<svg id="Layer_1" data-name="Layer 1" xmlns="http://www.w3.org/2000/svg" xmlns:xlink="http://www.w3.org/1999/xlink" viewBox="0 0 1280 186"><defs><style>.cls-1{fill:none;}.cls-2{clip-path:url(#clip-path);}.cls-3{fill:#3d7f7a;}.cls-4{fill:#276a75;}.cls-5{clip-path:url(#clip-path-2);}.cls-6{fill:#6eb7b4;}</style><clipPath id="clip-path"><rect class="cls-1" x="1" y="-9" width="1280" height="188"/></clipPath><clipPath id="clip-path-2"><rect class="cls-1" x="2.34" y="-57.64" width="1278" height="257.48" transform="translate(-0.22 2) rotate(-0.18)"/></clipPath></defs><title>Artboard 1</title><g class="cls-2"><rect class="cls-3" x="2.98" y="-157.2" width="1278" height="277.14" transform="translate(0.07 2.27) rotate(-0.2)"/><rect class="cls-3" x="321.84" y="-771.5" width="638.92" height="1281.33" transform="translate(770.2 510.86) rotate(-89.83)"/><polygon class="cls-4" points="1.78 580.97 1281.79 576.09 1281.28 117.72 1.27 121.64 1.78 580.97"/><g class="cls-5"><path class="cls-4" d="M1297.34,118.55s-97.54.42-87.78-41c10.24-43.53,59.17-17.54,57.2,2.19,0,0,17.26-48.44-36.72-71.31-72.53-30.72-146.77,56.32-92,119.23C1200.29,199,1297.34,118.55,1297.34,118.55Z"/><path class="cls-4" d="M1130.53,119.33s-97.54.42-87.78-41c10.24-43.53,59.17-17.54,57.2,2.19,0,0,17.26-48.44-36.72-71.31-72.53-30.72-146.77,56.32-92,119.23C1033.48,199.81,1130.53,119.33,1130.53,119.33Z"/><path class="cls-4" d="M965,119.33s-97.54.42-87.78-41c10.24-43.53,59.17-17.54,57.2,2.19,0,0,17.26-48.44-36.72-71.31-72.53-30.72-146.77,56.32-92,119.23C867.94,199.81,965,119.33,965,119.33Z"/><path class="cls-4" d="M798.59,119.33s-97.54.42-87.78-41C721.05,34.75,770,60.75,768,80.47c0,0,17.26-48.44-36.72-71.31-72.53-30.72-146.77,56.32-92,119.23C701.54,199.81,798.59,119.33,798.59,119.33Z"/><path class="cls-4" d="M633,119.33s-97.54.42-87.78-41c10.24-43.53,59.17-17.54,57.2,2.19,0,0,17.26-48.44-36.72-71.31C493.21-21.55,419,65.49,473.78,128.4,536,199.81,633,119.33,633,119.33Z"/><path class="cls-4" d="M468.36,119.33s-97.54.42-87.78-41c10.24-43.53,59.17-17.54,57.2,2.19,0,0,17.26-48.44-36.72-71.31-72.53-30.72-146.77,56.32-92,119.23C371.3,199.81,468.36,119.33,468.36,119.33Z"/><path class="cls-4" d="M303.66,120.89s-97.54.42-87.78-41c10.24-43.53,59.17-17.54,57.2,2.19,0,0,17.26-48.44-36.72-71.31C163.83-20,89.59,67,144.4,130,206.61,201.37,303.66,120.89,303.66,120.89Z"/><path class="cls-4" d="M139.19,120.19s-97.54.42-87.78-41c10.24-43.53,59.17-17.54,57.2,2.19,0,0,17.26-48.44-36.72-71.31C-.64-20.7-74.88,66.34-20.07,129.25,42.14,200.67,139.19,120.19,139.19,120.19Z"/></g><path class="cls-6" d="M1270,81.42a10.78,10.78,0,0,0,1.19-3.16l.34-1.68.25-1.7a55.24,55.24,0,0,0,.42-6.85,66.38,66.38,0,0,0-1.28-13.62A58.18,58.18,0,0,0,1260,29.8a54.53,54.53,0,0,0-9.4-9.59c-.85-.72-1.81-1.32-2.71-2l-1.37-1-1.44-.87c-1-.57-1.91-1.17-2.9-1.71l-3-1.5a29.94,29.94,0,0,0-3.08-1.36c-1-.42-2.08-.86-3.13-1.26l-3.22-1a32.39,32.39,0,0,0-3.24-.95c-2.2-.52-4.36-1.15-6.61-1.48l-3.34-.6c-1.11-.21-2.25-.28-3.37-.43l-3.37-.39c-1.12-.13-2.26-.15-3.39-.23-2.26-.12-4.54-.32-6.75-.22a63.44,63.44,0,0,0-13.24,1.4,68,68,0,0,0-24.24,10.86,79.75,79.75,0,0,0-10.29,8.58c-1.54,1.63-3.16,3.18-4.57,4.93-.72.86-1.47,1.69-2.17,2.57l-2,2.68c-.7.88-1.31,1.82-1.94,2.75s-1.27,1.85-1.86,2.8c-1.12,1.94-2.36,3.82-3.34,5.84a91.12,91.12,0,0,0-5.39,12.29,77.26,77.26,0,0,0-4.64,26.22v1.67c0,.56.07,1.11.1,1.66l.24,3.32a64.54,64.54,0,0,0,1.14,6.53l.37,1.61.19.81.25.79,1,3.15c.36,1,.84,2,1.25,3.06l.64,1.52.77,1.46c.53,1,1,2,1.57,2.9l1.81,2.76c1.22,1.84,2.65,3.62,4,5.35a49.36,49.36,0,0,0,9.55,9,31.78,31.78,0,0,0,11.78,5.06,55.06,55.06,0,0,0,13.25,1c4.52-.12,9.09-.53,13.67-1l13.79-1.29c4.61-.4,9.22-.75,13.87-1a83.14,83.14,0,0,1,14.06.42,78,78,0,0,1,13.74,2.95,87.54,87.54,0,0,1,12.94,5.32c4.16,2.07,8.14,4.45,12.19,6.59a32.7,32.7,0,0,0,6.27,2.69,11,11,0,0,0,6.67,0l.11.28a10.67,10.67,0,0,1-3.44.63,13.38,13.38,0,0,1-3.46-.45,33.2,33.2,0,0,1-6.46-2.55c-4.14-2.07-8.14-4.35-12.31-6.32a86.41,86.41,0,0,0-12.87-5,76.58,76.58,0,0,0-13.54-2.61c-9.18-1-18.41.11-27.58,1L1187.78,139c-4.59.49-9.19,1-13.81,1.15a57.51,57.51,0,0,1-13.84-.83,33.92,33.92,0,0,1-12.75-5.38,51.92,51.92,0,0,1-10.12-9.48c-1.47-1.79-2.92-3.59-4.21-5.51l-1.92-2.9c-.61-1-1.11-2-1.67-3l-.82-1.53-.68-1.6c-.44-1.07-.95-2.12-1.33-3.21l-1.08-3.31-.27-.83-.2-.85-.4-1.69a67.32,67.32,0,0,1-1.23-6.84l-.27-3.46c0-.58-.11-1.15-.11-1.73V86.17a80.17,80.17,0,0,1,4.67-27.25,92.66,92.66,0,0,1,5.63-12.68c1-2.08,2.31-4,3.48-6,.62-1,1.29-1.92,1.94-2.88s1.29-1.92,2-2.83l2.11-2.76c.72-.91,1.5-1.76,2.25-2.64,1.47-1.79,3.15-3.39,4.74-5.07a82.47,82.47,0,0,1,10.7-8.83,70.63,70.63,0,0,1,25.25-11.15,65,65,0,0,1,13.8-1.38c2.32-.07,4.62.16,6.93.32,1.15.1,2.31.13,3.45.28l3.44.44c1.14.17,2.3.25,3.43.49l3.41.66c2.29.37,4.5,1,6.74,1.61a33.67,33.67,0,0,1,3.32,1l3.29,1.11c1.07.43,2.13.89,3.2,1.34A31.33,31.33,0,0,1,1240,11.4l3.09,1.59c1,.57,2,1.21,3,1.81l1.47.92,1.4,1c.92.7,1.9,1.33,2.77,2.09a55.48,55.48,0,0,1,9.55,10,59.49,59.49,0,0,1,10.62,25.38,66.87,66.87,0,0,1,1,13.82,55.85,55.85,0,0,1-.62,6.91l-.31,1.71-.4,1.69a10.93,10.93,0,0,1-1.34,3.24Z"/><path class="cls-6" d="M1256.91,44.84a32,32,0,0,0-5.26-6c-.94-.94-2-1.75-3-2.61s-2.15-1.58-3.25-2.32a52.46,52.46,0,0,0-14.46-6.49l-.94-.3-1-.23-1.93-.46-1.93-.46c-.64-.16-1.31-.22-2-.33l-3.92-.61c-1.32-.13-2.64-.2-4-.3a78.37,78.37,0,0,0-7.94-.16,44.13,44.13,0,0,0-7.74.76A61.86,61.86,0,0,0,1172,39.06a74.21,74.21,0,0,0-19.13,24.53,59,59,0,0,0-3,7.15,45.25,45.25,0,0,0-1.78,7.44,27.8,27.8,0,0,0,1.37,14.63l.76,1.65c.26.55.62,1,.92,1.56l.47.78.56.74c.39.49.74,1,1.15,1.48a29.81,29.81,0,0,0,5.55,5,44.7,44.7,0,0,0,14.08,6,113.57,113.57,0,0,0,15.72,2.59c5.34.58,10.74,1,16.15,1.56a139.61,139.61,0,0,1,16.13,2.69,69.54,69.54,0,0,1,7.85,2.32,56.26,56.26,0,0,1,7.42,3.42l-.14.27a61.14,61.14,0,0,0-15.33-5,138.21,138.21,0,0,0-16.06-2.09c-5.39-.44-10.79-.73-16.18-1.18a116,116,0,0,1-16.08-2.28,44.43,44.43,0,0,1-15-6.13,32.45,32.45,0,0,1-6.11-5.4c-.45-.51-.85-1.07-1.27-1.6l-.62-.81-.54-.87c-.35-.59-.75-1.14-1.05-1.76l-.87-1.86a30.55,30.55,0,0,1-1.69-16.08,48.13,48.13,0,0,1,1.83-7.94,61.91,61.91,0,0,1,3.06-7.55A76.88,76.88,0,0,1,1170.25,37a70.77,70.77,0,0,1,13.59-8.9A54.07,54.07,0,0,1,1199.25,23a46.55,46.55,0,0,1,8.11-.61,80.59,80.59,0,0,1,8.12.35c1.35.14,2.7.24,4,.41l4,.71c.66.13,1.34.21,2,.39l2,.52,2,.52,1,.26,1,.34a53.75,53.75,0,0,1,14.54,7.19c1.1.8,2.17,1.63,3.22,2.48s2.06,1.77,3,2.77a32.38,32.38,0,0,1,5,6.39Z"/><path class="cls-6" d="M1269.68,81.4a10.58,10.58,0,0,0-.39-4.39,25.21,25.21,0,0,0-1.58-4.16,48.53,48.53,0,0,0-4.58-7.65,59.74,59.74,0,0,0-5.67-6.87,62,62,0,0,0-6.47-6,46.8,46.8,0,0,0-15-8.42,31.44,31.44,0,0,0-8.25-1.53,17.22,17.22,0,0,0-2.08,0,12.9,12.9,0,0,0-2.07.14c-.69.1-1.38.16-2.06.28l-2,.48c-5.42,1.32-10.31,4.45-14.71,8.2a43.81,43.81,0,0,0-5.89,6.24,32.67,32.67,0,0,0-4.16,7.38,30.68,30.68,0,0,0-1.42,17,42.9,42.9,0,0,0,2.47,8.54c.55,1.39,1.16,2.77,1.85,4.11a38,38,0,0,0,2.23,4l-.23.19a43.68,43.68,0,0,1-4.77-7.82,42.48,42.48,0,0,1-3.09-8.62,31.64,31.64,0,0,1,.74-18.11,32.7,32.7,0,0,1,4.25-8.12,46.42,46.42,0,0,1,6.14-6.81c4.57-4,9.86-7.47,15.85-9l2.25-.51c.76-.13,1.53-.19,2.29-.29a15,15,0,0,1,2.3-.14,19.59,19.59,0,0,1,2.3,0,33.25,33.25,0,0,1,9,1.77,41.09,41.09,0,0,1,8.3,3.9,51.69,51.69,0,0,1,7.39,5.41,64.38,64.38,0,0,1,11.93,13.83,47.45,47.45,0,0,1,4.19,8.14,25.63,25.63,0,0,1,1.31,4.4,11,11,0,0,1,0,4.6Z"/><path class="cls-6" d="M1283.88,120.07c-1.83,0-3.67-.08-5.5-.15s-3.66-.23-5.49-.37q-5.48-.42-11-1.06a177.29,177.29,0,0,1-21.72-4.23,75.33,75.33,0,0,1-10.64-3.61,39.63,39.63,0,0,1-10-5.93,11.83,11.83,0,0,1-1.14-1c-.35-.37-.77-.74-1.06-1.12l-1.84-2.25c-.62-.75-1.12-1.6-1.69-2.4a22,22,0,0,1-1.51-2.56,25.5,25.5,0,0,1-3.15-11.68l0-.77.06-.77.13-1.53c.12-1,.36-2,.55-3s.54-1.95.89-2.88.68-1.88,1.13-2.74a53.21,53.21,0,0,1,6-9.76c.28-.37.55-.74.94-1.16a14.5,14.5,0,0,1,1.09-1.19l1.18-1.07,1.27-.93a23.86,23.86,0,0,1,5.48-2.72,30,30,0,0,1,5.79-1.32,35.41,35.41,0,0,1,5.83-.18,36.93,36.93,0,0,1,21.26,7.79,26.93,26.93,0,0,1,7,9,21.64,21.64,0,0,1,1,2.62c.14.45.32.88.43,1.34l.32,1.37a25.88,25.88,0,0,1,.4,2.76c.08.92.07,1.85.11,2.77l-.3,0a24.65,24.65,0,0,0-9.95-18.57A35.13,35.13,0,0,0,1239.46,56a30.38,30.38,0,0,0-10.68,1.64,21.27,21.27,0,0,0-4.79,2.47,15.43,15.43,0,0,0-3.78,3.81,52.78,52.78,0,0,0-5.65,9.29c-.42.81-.68,1.68-1,2.51s-.52,1.73-.78,2.59-.37,1.77-.46,2.66l-.11,1.35-.05.67,0,.67A22.61,22.61,0,0,0,1214.88,94a19.42,19.42,0,0,0,1.36,2.34c.52.74,1,1.53,1.54,2.23l1.71,2.12c.28.36.62.66.92,1a9.66,9.66,0,0,0,1,.93,37.16,37.16,0,0,0,9.25,5.65,87.76,87.76,0,0,0,10.25,3.77,178.75,178.75,0,0,0,21.31,4.9c7.19,1.23,14.44,2.2,21.7,2.84Z"/><path class="cls-6" d="M1102.84,81.42a10.78,10.78,0,0,0,1.19-3.16l.34-1.68.25-1.7a55.24,55.24,0,0,0,.42-6.85,66.38,66.38,0,0,0-1.28-13.62,58.18,58.18,0,0,0-10.92-24.61,54.53,54.53,0,0,0-9.4-9.59c-.85-.72-1.81-1.32-2.71-2l-1.37-1-1.44-.87c-1-.57-1.91-1.17-2.9-1.71l-3-1.5a29.93,29.93,0,0,0-3.08-1.36c-1-.42-2.08-.86-3.13-1.26l-3.22-1a32.38,32.38,0,0,0-3.24-.95c-2.2-.52-4.36-1.15-6.61-1.48l-3.34-.6c-1.11-.21-2.25-.28-3.37-.43l-3.37-.39c-1.12-.13-2.26-.15-3.39-.23-2.26-.12-4.54-.32-6.75-.22a63.44,63.44,0,0,0-13.24,1.4A68,68,0,0,0,995,17.48a79.75,79.75,0,0,0-10.29,8.58c-1.54,1.63-3.16,3.18-4.57,4.93-.72.86-1.47,1.69-2.17,2.57l-2,2.68c-.7.88-1.31,1.82-1.94,2.75s-1.27,1.85-1.86,2.8c-1.12,1.94-2.36,3.82-3.34,5.84a91.11,91.11,0,0,0-5.39,12.29,77.26,77.26,0,0,0-4.64,26.22v1.67c0,.56.07,1.11.1,1.66l.24,3.32a64.55,64.55,0,0,0,1.14,6.53l.37,1.61.19.81.25.79,1,3.15c.36,1,.84,2,1.25,3.06l.64,1.52.77,1.46c.53,1,1,2,1.57,2.9l1.81,2.76c1.22,1.84,2.65,3.62,4,5.35a49.37,49.37,0,0,0,9.55,9,31.78,31.78,0,0,0,11.78,5.06,55.06,55.06,0,0,0,13.25,1c4.52-.12,9.09-.53,13.67-1l13.79-1.29c4.61-.4,9.22-.75,13.87-1a83.14,83.14,0,0,1,14.06.42,78,78,0,0,1,13.74,2.95,87.53,87.53,0,0,1,12.94,5.32c4.16,2.07,8.14,4.45,12.19,6.59a32.7,32.7,0,0,0,6.27,2.69,11,11,0,0,0,6.67,0l.11.28a10.66,10.66,0,0,1-3.44.63,13.38,13.38,0,0,1-3.46-.45,33.2,33.2,0,0,1-6.46-2.55c-4.14-2.07-8.14-4.35-12.31-6.32a86.41,86.41,0,0,0-12.87-5,76.58,76.58,0,0,0-13.54-2.61c-9.18-1-18.41.11-27.58,1L1020.67,139c-4.59.49-9.19,1-13.81,1.15a57.51,57.51,0,0,1-13.84-.83,33.92,33.92,0,0,1-12.75-5.38,51.92,51.92,0,0,1-10.12-9.48c-1.47-1.79-2.92-3.59-4.21-5.51L964,116c-.61-1-1.11-2-1.67-3l-.82-1.53-.68-1.6c-.44-1.07-.95-2.12-1.33-3.21l-1.08-3.31-.27-.83-.2-.85-.4-1.69a67.34,67.34,0,0,1-1.23-6.84l-.27-3.46c0-.58-.11-1.15-.11-1.73V86.17a80.17,80.17,0,0,1,4.67-27.25,92.65,92.65,0,0,1,5.63-12.68c1-2.08,2.31-4,3.48-6,.62-1,1.29-1.92,1.94-2.88s1.29-1.92,2-2.83l2.11-2.76c.72-.91,1.5-1.76,2.25-2.64,1.47-1.79,3.15-3.39,4.74-5.07a82.47,82.47,0,0,1,10.7-8.83,70.63,70.63,0,0,1,25.25-11.15,65,65,0,0,1,13.8-1.38c2.32-.07,4.62.16,6.93.32,1.15.1,2.31.13,3.45.28l3.44.44c1.14.17,2.3.25,3.43.49l3.41.66c2.29.37,4.5,1,6.74,1.61a33.68,33.68,0,0,1,3.32,1l3.29,1.11c1.07.43,2.13.89,3.2,1.34a31.33,31.33,0,0,1,3.15,1.44L1076,13c1,.57,2,1.21,3,1.81l1.47.92,1.4,1c.92.7,1.9,1.33,2.77,2.09a55.48,55.48,0,0,1,9.55,10,59.49,59.49,0,0,1,10.62,25.38,66.87,66.87,0,0,1,1,13.82,55.8,55.8,0,0,1-.62,6.91l-.31,1.71-.4,1.69a10.93,10.93,0,0,1-1.34,3.24Z"/><path class="cls-6" d="M1089.8,44.84a32,32,0,0,0-5.26-6c-.94-.94-2-1.75-3-2.61s-2.15-1.58-3.25-2.32a52.46,52.46,0,0,0-14.46-6.49l-.94-.3-1-.23-1.93-.46-1.93-.46c-.64-.16-1.31-.22-2-.33l-3.92-.61c-1.32-.13-2.64-.2-4-.3a78.36,78.36,0,0,0-7.94-.16,44.13,44.13,0,0,0-7.74.76,61.86,61.86,0,0,0-27.64,13.78,74.21,74.21,0,0,0-19.13,24.53,59,59,0,0,0-3,7.15A45.27,45.27,0,0,0,981,78.17a27.8,27.8,0,0,0,1.37,14.63l.76,1.65c.26.55.62,1,.92,1.56l.47.78.56.74c.39.49.74,1,1.15,1.48a29.81,29.81,0,0,0,5.55,5,44.7,44.7,0,0,0,14.08,6,113.58,113.58,0,0,0,15.72,2.59c5.34.58,10.74,1,16.15,1.56a139.61,139.61,0,0,1,16.13,2.69,69.54,69.54,0,0,1,7.85,2.32,56.26,56.26,0,0,1,7.42,3.42l-.14.27a61.14,61.14,0,0,0-15.33-5,138.22,138.22,0,0,0-16.06-2.09c-5.39-.44-10.79-.73-16.18-1.18a116,116,0,0,1-16.08-2.28,44.43,44.43,0,0,1-15-6.13,32.45,32.45,0,0,1-6.11-5.4c-.45-.51-.85-1.07-1.27-1.6l-.62-.81-.54-.87c-.35-.59-.75-1.14-1.05-1.76l-.87-1.86a30.55,30.55,0,0,1-1.69-16.08A48.13,48.13,0,0,1,980,69.83,61.91,61.91,0,0,1,983,62.28,76.88,76.88,0,0,1,1003.14,37a70.78,70.78,0,0,1,13.59-8.9A54.07,54.07,0,0,1,1032.14,23a46.55,46.55,0,0,1,8.11-.61,80.59,80.59,0,0,1,8.12.35c1.35.14,2.7.24,4,.41l4,.71c.66.13,1.34.21,2,.39l2,.52,2,.52,1,.26,1,.34a53.75,53.75,0,0,1,14.54,7.19c1.1.8,2.17,1.63,3.22,2.48s2.06,1.77,3,2.77a32.38,32.38,0,0,1,5,6.39Z"/><path class="cls-6" d="M1102.57,81.4a10.58,10.58,0,0,0-.39-4.39,25.21,25.21,0,0,0-1.58-4.16A48.54,48.54,0,0,0,1096,65.2a59.76,59.76,0,0,0-5.67-6.87,62,62,0,0,0-6.47-6,46.8,46.8,0,0,0-15-8.42,31.44,31.44,0,0,0-8.25-1.53,17.22,17.22,0,0,0-2.08,0,12.9,12.9,0,0,0-2.07.14c-.69.1-1.38.16-2.06.28l-2,.48c-5.42,1.32-10.31,4.45-14.71,8.2a43.81,43.81,0,0,0-5.89,6.24,32.67,32.67,0,0,0-4.16,7.38,30.68,30.68,0,0,0-1.42,17,42.9,42.9,0,0,0,2.47,8.54c.55,1.39,1.16,2.77,1.85,4.11a38.06,38.06,0,0,0,2.23,4l-.23.19a43.68,43.68,0,0,1-4.77-7.82,42.48,42.48,0,0,1-3.09-8.62,31.64,31.64,0,0,1,.74-18.11,32.7,32.7,0,0,1,4.25-8.12,46.43,46.43,0,0,1,6.14-6.81c4.57-4,9.86-7.47,15.85-9l2.25-.51c.76-.13,1.53-.19,2.29-.29a15,15,0,0,1,2.3-.14,19.58,19.58,0,0,1,2.3,0,33.25,33.25,0,0,1,9,1.77,41.08,41.08,0,0,1,8.3,3.9,51.69,51.69,0,0,1,7.39,5.41,64.38,64.38,0,0,1,11.93,13.83,47.45,47.45,0,0,1,4.19,8.14,25.61,25.61,0,0,1,1.31,4.4,11,11,0,0,1,0,4.6Z"/><path class="cls-6" d="M1116.77,120.07c-1.83,0-3.67-.08-5.5-.15s-3.66-.23-5.49-.37q-5.48-.42-11-1.06a177.28,177.28,0,0,1-21.72-4.23,75.33,75.33,0,0,1-10.64-3.61,39.62,39.62,0,0,1-10-5.93,11.83,11.83,0,0,1-1.14-1c-.35-.37-.77-.74-1.06-1.12l-1.84-2.25c-.62-.75-1.12-1.6-1.69-2.4a21.91,21.91,0,0,1-1.51-2.56A25.49,25.49,0,0,1,1042,83.66l0-.77.06-.77.13-1.53c.12-1,.36-2,.55-3s.54-1.95.89-2.88.68-1.88,1.13-2.74a53.21,53.21,0,0,1,6-9.76c.28-.37.55-.74.94-1.16a14.48,14.48,0,0,1,1.09-1.19l1.18-1.07,1.27-.93a23.86,23.86,0,0,1,5.48-2.72,30,30,0,0,1,5.79-1.32,35.41,35.41,0,0,1,5.83-.18,36.93,36.93,0,0,1,21.26,7.79,26.93,26.93,0,0,1,7,9,21.64,21.64,0,0,1,1,2.62c.14.45.32.88.43,1.34l.32,1.37a25.85,25.85,0,0,1,.4,2.76c.08.92.07,1.85.11,2.77l-.3,0a24.65,24.65,0,0,0-9.95-18.57A35.13,35.13,0,0,0,1072.35,56a30.38,30.38,0,0,0-10.68,1.64,21.27,21.27,0,0,0-4.79,2.47,15.43,15.43,0,0,0-3.78,3.81,52.77,52.77,0,0,0-5.65,9.29c-.42.81-.68,1.68-1,2.51s-.52,1.73-.78,2.59-.37,1.77-.46,2.66l-.11,1.35L1045,83l0,.67A22.61,22.61,0,0,0,1047.77,94a19.42,19.42,0,0,0,1.36,2.34c.52.74,1,1.53,1.54,2.23l1.71,2.12c.28.36.62.66.92,1a9.66,9.66,0,0,0,1,.93,37.16,37.16,0,0,0,9.25,5.65,87.76,87.76,0,0,0,10.25,3.77,178.75,178.75,0,0,0,21.31,4.9c7.19,1.23,14.44,2.2,21.7,2.84Z"/><path class="cls-6" d="M937.17,81.42a10.78,10.78,0,0,0,1.19-3.16l.34-1.68.25-1.7a55.25,55.25,0,0,0,.42-6.85,66.38,66.38,0,0,0-1.28-13.62A58.18,58.18,0,0,0,927.17,29.8a54.53,54.53,0,0,0-9.4-9.59c-.85-.72-1.81-1.32-2.71-2l-1.37-1-1.44-.87c-1-.57-1.91-1.17-2.9-1.71l-3-1.5a29.94,29.94,0,0,0-3.08-1.36c-1-.42-2.08-.86-3.13-1.26l-3.22-1a32.38,32.38,0,0,0-3.24-.95c-2.2-.52-4.36-1.15-6.61-1.48l-3.34-.6c-1.11-.21-2.25-.28-3.37-.43L877,5.67c-1.12-.13-2.26-.15-3.39-.23-2.26-.12-4.54-.32-6.75-.22a63.44,63.44,0,0,0-13.24,1.4,68,68,0,0,0-24.24,10.86A79.75,79.75,0,0,0,819,26.06c-1.54,1.63-3.16,3.18-4.57,4.93-.72.86-1.47,1.69-2.17,2.57l-2,2.68c-.7.88-1.31,1.82-1.94,2.75s-1.27,1.85-1.86,2.8c-1.12,1.94-2.36,3.82-3.34,5.84a91.12,91.12,0,0,0-5.39,12.29,77.26,77.26,0,0,0-4.64,26.22v1.67c0,.56.07,1.11.1,1.66l.24,3.32a64.55,64.55,0,0,0,1.14,6.53l.37,1.61.19.81.25.79,1,3.15c.36,1,.84,2,1.25,3.06l.64,1.52.77,1.46c.53,1,1,2,1.57,2.9l1.81,2.76c1.22,1.84,2.65,3.62,4,5.35a49.37,49.37,0,0,0,9.55,9,31.78,31.78,0,0,0,11.78,5.06,55.06,55.06,0,0,0,13.25,1c4.52-.12,9.09-.53,13.67-1l13.79-1.29c4.61-.4,9.22-.75,13.87-1a83.14,83.14,0,0,1,14.06.42,78,78,0,0,1,13.74,2.95,87.54,87.54,0,0,1,12.94,5.32c4.16,2.07,8.14,4.45,12.19,6.59a32.7,32.7,0,0,0,6.27,2.69,11,11,0,0,0,6.67,0l.11.28a10.66,10.66,0,0,1-3.44.63,13.38,13.38,0,0,1-3.46-.45,33.2,33.2,0,0,1-6.46-2.55c-4.14-2.07-8.14-4.35-12.31-6.32a86.41,86.41,0,0,0-12.87-5,76.59,76.59,0,0,0-13.54-2.61c-9.18-1-18.41.11-27.58,1L855,139c-4.59.49-9.19,1-13.81,1.15a57.51,57.51,0,0,1-13.84-.83,33.92,33.92,0,0,1-12.75-5.38,51.92,51.92,0,0,1-10.12-9.48c-1.47-1.79-2.92-3.59-4.21-5.51l-1.92-2.9c-.61-1-1.11-2-1.67-3l-.82-1.53-.68-1.6c-.44-1.07-.95-2.12-1.33-3.21l-1.08-3.31-.27-.83-.2-.85-.4-1.69a67.32,67.32,0,0,1-1.23-6.84l-.27-3.46c0-.58-.11-1.15-.11-1.73V86.17a80.17,80.17,0,0,1,4.67-27.25,92.65,92.65,0,0,1,5.63-12.68c1-2.08,2.31-4,3.48-6,.62-1,1.29-1.92,1.94-2.88s1.29-1.92,2-2.83l2.11-2.76c.72-.91,1.5-1.76,2.25-2.64,1.47-1.79,3.15-3.39,4.74-5.07a82.47,82.47,0,0,1,10.7-8.83A70.63,70.63,0,0,1,853,4.08a65,65,0,0,1,13.8-1.38c2.32-.07,4.62.16,6.93.32,1.15.1,2.31.13,3.46.28l3.44.44c1.14.17,2.3.25,3.43.49l3.41.66c2.29.37,4.5,1,6.74,1.61a33.67,33.67,0,0,1,3.32,1l3.29,1.11C901.91,9,903,9.51,904,10a31.34,31.34,0,0,1,3.15,1.44L910.28,13c1,.57,2,1.21,3,1.81l1.47.92,1.4,1c.92.7,1.9,1.33,2.77,2.09a55.48,55.48,0,0,1,9.55,10,59.49,59.49,0,0,1,10.62,25.38,66.87,66.87,0,0,1,1,13.82,55.82,55.82,0,0,1-.62,6.91l-.31,1.71-.4,1.69a10.93,10.93,0,0,1-1.34,3.24Z"/><path class="cls-6" d="M924.12,44.84a32,32,0,0,0-5.26-6c-.94-.94-2-1.75-3-2.61s-2.15-1.58-3.25-2.32a52.46,52.46,0,0,0-14.46-6.49l-.94-.3-1-.23-1.93-.46-1.93-.46c-.64-.16-1.31-.22-2-.33L886.48,25c-1.32-.13-2.64-.2-4-.3a78.36,78.36,0,0,0-7.94-.16,44.13,44.13,0,0,0-7.74.76A61.86,61.86,0,0,0,839.2,39.06a74.21,74.21,0,0,0-19.13,24.53,59,59,0,0,0-3,7.15,45.27,45.27,0,0,0-1.78,7.44,27.8,27.8,0,0,0,1.37,14.63l.76,1.65c.26.55.62,1,.92,1.56l.47.78.56.74c.39.49.74,1,1.15,1.48a29.81,29.81,0,0,0,5.55,5,44.7,44.7,0,0,0,14.08,6,113.58,113.58,0,0,0,15.72,2.59c5.34.58,10.74,1,16.15,1.56a139.61,139.61,0,0,1,16.13,2.69,69.54,69.54,0,0,1,7.85,2.32,56.26,56.26,0,0,1,7.42,3.42l-.14.27a61.14,61.14,0,0,0-15.33-5,138.21,138.21,0,0,0-16.06-2.09c-5.39-.44-10.79-.73-16.18-1.18a116,116,0,0,1-16.08-2.28,44.43,44.43,0,0,1-15-6.13,32.45,32.45,0,0,1-6.11-5.4c-.45-.51-.85-1.07-1.27-1.6l-.62-.81-.54-.87c-.35-.59-.75-1.14-1.05-1.76l-.87-1.86a30.55,30.55,0,0,1-1.69-16.08,48.12,48.12,0,0,1,1.83-7.94,61.91,61.91,0,0,1,3.06-7.55A76.88,76.88,0,0,1,837.46,37,70.78,70.78,0,0,1,851,28.06,54.07,54.07,0,0,1,866.46,23a46.55,46.55,0,0,1,8.11-.61,80.59,80.59,0,0,1,8.12.35c1.35.14,2.7.24,4,.41l4,.71c.66.13,1.34.21,2,.39l2,.52,2,.52,1,.26,1,.34a53.75,53.75,0,0,1,14.54,7.19c1.1.8,2.17,1.63,3.22,2.48s2.06,1.77,3,2.77a32.38,32.38,0,0,1,5,6.39Z"/><path class="cls-6" d="M936.9,81.4A10.58,10.58,0,0,0,936.5,77a25.21,25.21,0,0,0-1.58-4.16,48.53,48.53,0,0,0-4.58-7.65,59.74,59.74,0,0,0-5.67-6.87,62,62,0,0,0-6.47-6,46.8,46.8,0,0,0-15-8.42,31.44,31.44,0,0,0-8.25-1.53,17.22,17.22,0,0,0-2.08,0,12.9,12.9,0,0,0-2.07.14c-.69.1-1.38.16-2.06.28l-2,.48c-5.42,1.32-10.31,4.45-14.71,8.2a43.81,43.81,0,0,0-5.89,6.24,32.67,32.67,0,0,0-4.16,7.38,30.68,30.68,0,0,0-1.42,17A42.9,42.9,0,0,0,863,90.59c.55,1.39,1.16,2.77,1.85,4.11a38.05,38.05,0,0,0,2.23,4l-.23.19A43.68,43.68,0,0,1,862,91a42.48,42.48,0,0,1-3.09-8.62,31.64,31.64,0,0,1,.74-18.11,32.7,32.7,0,0,1,4.25-8.12,46.43,46.43,0,0,1,6.14-6.81c4.57-4,9.86-7.47,15.85-9l2.25-.51c.76-.13,1.53-.19,2.29-.29a15,15,0,0,1,2.3-.14,19.59,19.59,0,0,1,2.3,0,33.25,33.25,0,0,1,9,1.77,41.08,41.08,0,0,1,8.3,3.9,51.69,51.69,0,0,1,7.39,5.41,64.38,64.38,0,0,1,11.93,13.83,47.45,47.45,0,0,1,4.19,8.14,25.63,25.63,0,0,1,1.31,4.4,11,11,0,0,1,0,4.6Z"/><path class="cls-6" d="M951.09,120.07c-1.83,0-3.67-.08-5.5-.15s-3.66-.23-5.49-.37q-5.48-.42-11-1.06a177.28,177.28,0,0,1-21.72-4.23,75.32,75.32,0,0,1-10.64-3.61,39.62,39.62,0,0,1-10-5.93,11.83,11.83,0,0,1-1.14-1c-.35-.37-.77-.74-1.06-1.12l-1.84-2.25c-.62-.75-1.12-1.6-1.69-2.4a21.93,21.93,0,0,1-1.51-2.56,25.5,25.5,0,0,1-3.15-11.68l0-.77.06-.77.13-1.53c.12-1,.36-2,.55-3s.54-1.95.89-2.88.68-1.88,1.13-2.74a53.22,53.22,0,0,1,6-9.76c.28-.37.55-.74.94-1.16a14.5,14.5,0,0,1,1.09-1.19l1.18-1.07,1.27-.93a23.86,23.86,0,0,1,5.48-2.72,30,30,0,0,1,5.79-1.32,35.41,35.41,0,0,1,5.83-.18A36.93,36.93,0,0,1,928,61.43a26.93,26.93,0,0,1,7,9A21.64,21.64,0,0,1,936,73c.14.45.32.88.43,1.34l.32,1.37a25.87,25.87,0,0,1,.4,2.76c.08.92.07,1.85.11,2.77l-.3,0A24.65,24.65,0,0,0,927,62.68,35.13,35.13,0,0,0,906.67,56,30.38,30.38,0,0,0,896,57.6a21.27,21.27,0,0,0-4.79,2.47,15.43,15.43,0,0,0-3.78,3.81,52.78,52.78,0,0,0-5.65,9.29c-.42.81-.68,1.68-1,2.51s-.52,1.73-.78,2.59-.37,1.77-.47,2.66l-.11,1.35-.05.67,0,.67A22.61,22.61,0,0,0,882.09,94a19.42,19.42,0,0,0,1.36,2.34c.52.74,1,1.53,1.54,2.23l1.71,2.12c.28.36.62.66.92,1a9.67,9.67,0,0,0,1,.93,37.16,37.16,0,0,0,9.25,5.65A87.76,87.76,0,0,0,908.1,112a178.75,178.75,0,0,0,21.31,4.9c7.19,1.23,14.44,2.2,21.7,2.84Z"/><path class="cls-6" d="M770,81.42a10.78,10.78,0,0,0,1.19-3.16l.34-1.68.25-1.7a55.25,55.25,0,0,0,.42-6.85,66.38,66.38,0,0,0-1.28-13.62A58.18,58.18,0,0,0,760,29.8a54.53,54.53,0,0,0-9.4-9.59c-.85-.72-1.81-1.32-2.71-2l-1.37-1-1.44-.87c-1-.57-1.91-1.17-2.9-1.71l-3-1.5a29.94,29.94,0,0,0-3.08-1.36c-1-.42-2.08-.86-3.13-1.26l-3.22-1a32.38,32.38,0,0,0-3.24-.95c-2.2-.52-4.36-1.15-6.61-1.48l-3.34-.6c-1.11-.21-2.25-.28-3.37-.43l-3.37-.39c-1.12-.13-2.26-.15-3.39-.23-2.26-.12-4.54-.32-6.75-.22a63.44,63.44,0,0,0-13.24,1.4A68,68,0,0,0,662.2,17.48a79.75,79.75,0,0,0-10.29,8.58c-1.54,1.63-3.16,3.18-4.57,4.93-.72.86-1.47,1.69-2.17,2.57l-2,2.68c-.7.88-1.31,1.82-1.94,2.75s-1.27,1.85-1.86,2.8c-1.12,1.94-2.36,3.82-3.34,5.84a91.12,91.12,0,0,0-5.39,12.29A77.26,77.26,0,0,0,626,86.14v1.67c0,.56.07,1.11.1,1.66l.24,3.32a64.54,64.54,0,0,0,1.14,6.53l.37,1.61.19.81.25.79,1,3.15c.36,1,.84,2,1.25,3.06l.64,1.52.77,1.46c.53,1,1,2,1.57,2.9l1.81,2.76c1.22,1.84,2.65,3.62,4,5.35a49.37,49.37,0,0,0,9.55,9,31.78,31.78,0,0,0,11.78,5.06,55.06,55.06,0,0,0,13.25,1c4.52-.12,9.09-.53,13.67-1l13.79-1.29c4.61-.4,9.22-.75,13.87-1a83.14,83.14,0,0,1,14.06.42,78,78,0,0,1,13.74,2.95A87.54,87.54,0,0,1,756,143.23c4.16,2.07,8.14,4.45,12.19,6.59a32.7,32.7,0,0,0,6.27,2.69,11,11,0,0,0,6.67,0l.11.28a10.66,10.66,0,0,1-3.44.63,13.38,13.38,0,0,1-3.46-.45,33.2,33.2,0,0,1-6.46-2.55c-4.14-2.07-8.14-4.35-12.31-6.32a86.41,86.41,0,0,0-12.87-5,76.59,76.59,0,0,0-13.54-2.61c-9.18-1-18.41.11-27.58,1L687.85,139c-4.59.49-9.19,1-13.81,1.15a57.51,57.51,0,0,1-13.84-.83,33.92,33.92,0,0,1-12.75-5.38,51.92,51.92,0,0,1-10.12-9.48c-1.47-1.79-2.92-3.59-4.21-5.51L631.2,116c-.61-1-1.11-2-1.67-3l-.82-1.53-.68-1.6c-.44-1.07-.95-2.12-1.33-3.21l-1.08-3.31-.27-.83-.2-.85-.4-1.69a67.32,67.32,0,0,1-1.23-6.84l-.27-3.46c0-.58-.11-1.15-.11-1.73V86.17a80.17,80.17,0,0,1,4.67-27.25,92.65,92.65,0,0,1,5.63-12.68c1-2.08,2.31-4,3.48-6,.62-1,1.29-1.92,1.94-2.88s1.29-1.92,2-2.83L643,31.77c.72-.91,1.5-1.76,2.25-2.64,1.47-1.79,3.15-3.39,4.74-5.07a82.47,82.47,0,0,1,10.7-8.83A70.63,70.63,0,0,1,685.89,4.08a65,65,0,0,1,13.8-1.38c2.32-.07,4.62.16,6.93.32,1.15.1,2.31.13,3.46.28l3.44.44c1.14.17,2.3.25,3.43.49l3.41.66c2.29.37,4.5,1,6.74,1.61a33.67,33.67,0,0,1,3.32,1l3.29,1.11c1.07.43,2.13.89,3.2,1.34a31.34,31.34,0,0,1,3.15,1.44L743.14,13c1,.57,2,1.21,3,1.81l1.47.92,1.4,1c.92.7,1.9,1.33,2.77,2.09a55.48,55.48,0,0,1,9.55,10,59.49,59.49,0,0,1,10.62,25.38,66.87,66.87,0,0,1,1,13.82A55.82,55.82,0,0,1,772.3,75L772,76.68l-.4,1.69a10.93,10.93,0,0,1-1.34,3.24Z"/><path class="cls-6" d="M757,44.84a32,32,0,0,0-5.26-6c-.94-.94-2-1.75-3-2.61s-2.15-1.58-3.25-2.32A52.46,52.46,0,0,0,731,27.38l-.94-.3-1-.23-1.93-.46-1.93-.46c-.64-.16-1.31-.22-2-.33L719.34,25c-1.32-.13-2.64-.2-4-.3a78.36,78.36,0,0,0-7.94-.16,44.13,44.13,0,0,0-7.74.76,61.86,61.86,0,0,0-27.64,13.78,74.21,74.21,0,0,0-19.13,24.53,59,59,0,0,0-3,7.15,45.27,45.27,0,0,0-1.78,7.44,27.8,27.8,0,0,0,1.37,14.63l.76,1.65c.26.55.62,1,.92,1.56l.47.78.56.74c.39.49.74,1,1.15,1.48a29.81,29.81,0,0,0,5.55,5A44.7,44.7,0,0,0,673,110a113.58,113.58,0,0,0,15.72,2.59c5.34.58,10.74,1,16.15,1.56A139.61,139.61,0,0,1,721,116.86a69.54,69.54,0,0,1,7.85,2.32,56.26,56.26,0,0,1,7.42,3.42l-.14.27a61.14,61.14,0,0,0-15.33-5,138.22,138.22,0,0,0-16.06-2.09c-5.39-.44-10.79-.73-16.18-1.18a116,116,0,0,1-16.08-2.28,44.43,44.43,0,0,1-15-6.13,32.45,32.45,0,0,1-6.11-5.4c-.45-.51-.85-1.07-1.27-1.6l-.62-.81-.54-.87c-.35-.59-.75-1.14-1.05-1.76L647,93.86a30.55,30.55,0,0,1-1.69-16.08,48.12,48.12,0,0,1,1.83-7.94,61.91,61.91,0,0,1,3.06-7.55A76.88,76.88,0,0,1,670.32,37a70.78,70.78,0,0,1,13.59-8.9A54.07,54.07,0,0,1,699.32,23a46.55,46.55,0,0,1,8.11-.61,80.59,80.59,0,0,1,8.12.35c1.35.14,2.7.24,4,.41l4,.71c.66.13,1.34.21,2,.39l2,.52,2,.52,1,.26,1,.34A53.75,53.75,0,0,1,746,33.06c1.1.8,2.17,1.63,3.22,2.48s2.06,1.77,3,2.77a32.38,32.38,0,0,1,5,6.39Z"/><path class="cls-6" d="M769.75,81.4a10.58,10.58,0,0,0-.39-4.39,25.21,25.21,0,0,0-1.58-4.16,48.54,48.54,0,0,0-4.58-7.65,59.74,59.74,0,0,0-5.67-6.87,62,62,0,0,0-6.47-6,46.8,46.8,0,0,0-15-8.42,31.44,31.44,0,0,0-8.25-1.53,17.22,17.22,0,0,0-2.08,0,12.9,12.9,0,0,0-2.07.14c-.69.1-1.38.16-2.06.28l-2,.48c-5.42,1.32-10.31,4.45-14.71,8.2a43.81,43.81,0,0,0-5.89,6.24,32.67,32.67,0,0,0-4.16,7.38,30.68,30.68,0,0,0-1.42,17,42.9,42.9,0,0,0,2.47,8.54c.55,1.39,1.16,2.77,1.85,4.11a38.05,38.05,0,0,0,2.23,4l-.23.19A43.68,43.68,0,0,1,694.89,91a42.48,42.48,0,0,1-3.09-8.62,31.64,31.64,0,0,1,.74-18.11,32.7,32.7,0,0,1,4.25-8.12,46.43,46.43,0,0,1,6.14-6.81c4.57-4,9.86-7.47,15.85-9l2.25-.51c.76-.13,1.53-.19,2.29-.29a15,15,0,0,1,2.3-.14,19.59,19.59,0,0,1,2.3,0,33.25,33.25,0,0,1,9,1.77,41.08,41.08,0,0,1,8.3,3.9,51.69,51.69,0,0,1,7.39,5.41,64.38,64.38,0,0,1,11.93,13.83,47.44,47.44,0,0,1,4.19,8.14,25.62,25.62,0,0,1,1.31,4.4,11,11,0,0,1,0,4.6Z"/><path class="cls-6" d="M783.95,120.07c-1.83,0-3.67-.08-5.5-.15s-3.66-.23-5.49-.37q-5.48-.42-11-1.06a177.28,177.28,0,0,1-21.72-4.23,75.32,75.32,0,0,1-10.64-3.61,39.62,39.62,0,0,1-10-5.93,11.82,11.82,0,0,1-1.14-1c-.35-.37-.77-.74-1.06-1.12l-1.84-2.25c-.62-.75-1.12-1.6-1.69-2.4a21.93,21.93,0,0,1-1.51-2.56,25.49,25.49,0,0,1-3.15-11.68l0-.77.06-.77.13-1.53c.12-1,.36-2,.55-3s.54-1.95.89-2.88.68-1.88,1.13-2.74a53.22,53.22,0,0,1,6-9.76c.28-.37.55-.74.94-1.16A14.5,14.5,0,0,1,720,59.86l1.18-1.07,1.27-.93A23.86,23.86,0,0,1,728,55.13a30,30,0,0,1,5.79-1.32,35.41,35.41,0,0,1,5.83-.18,36.93,36.93,0,0,1,21.26,7.79,26.93,26.93,0,0,1,7,9,21.63,21.63,0,0,1,1,2.62c.14.45.32.88.43,1.34l.32,1.37a25.88,25.88,0,0,1,.4,2.76c.08.92.07,1.85.11,2.77l-.3,0a24.65,24.65,0,0,0-9.95-18.57A35.13,35.13,0,0,0,739.53,56a30.38,30.38,0,0,0-10.68,1.64A21.27,21.27,0,0,0,724,60.07a15.43,15.43,0,0,0-3.78,3.81,52.78,52.78,0,0,0-5.65,9.29c-.42.81-.68,1.68-1,2.51s-.52,1.73-.78,2.59-.37,1.77-.47,2.66l-.11,1.35-.05.67,0,.67A22.61,22.61,0,0,0,715,94a19.42,19.42,0,0,0,1.36,2.34c.52.74,1,1.53,1.54,2.23l1.71,2.12c.28.36.62.66.92,1a9.67,9.67,0,0,0,1,.93,37.16,37.16,0,0,0,9.25,5.65A87.76,87.76,0,0,0,741,112a178.75,178.75,0,0,0,21.31,4.9c7.19,1.23,14.44,2.2,21.7,2.84Z"/><path class="cls-6" d="M603.85,81.42A10.78,10.78,0,0,0,605,78.27l.34-1.68.25-1.7a55.24,55.24,0,0,0,.42-6.85,66.38,66.38,0,0,0-1.28-13.62A58.18,58.18,0,0,0,593.86,29.8a54.52,54.52,0,0,0-9.4-9.59c-.85-.72-1.81-1.32-2.71-2l-1.37-1-1.44-.87c-1-.57-1.91-1.17-2.9-1.71l-3-1.5a29.94,29.94,0,0,0-3.08-1.36c-1-.42-2.08-.86-3.13-1.26l-3.22-1a32.38,32.38,0,0,0-3.24-.95c-2.2-.52-4.36-1.15-6.61-1.48l-3.34-.6c-1.11-.21-2.25-.28-3.37-.43l-3.37-.39c-1.12-.13-2.26-.15-3.39-.23-2.26-.12-4.54-.32-6.75-.22a63.44,63.44,0,0,0-13.24,1.4A68,68,0,0,0,496,17.48a79.75,79.75,0,0,0-10.29,8.58c-1.54,1.63-3.16,3.18-4.57,4.93-.72.86-1.47,1.69-2.17,2.57l-2,2.68c-.7.88-1.31,1.82-1.94,2.75s-1.27,1.85-1.86,2.8c-1.12,1.94-2.36,3.82-3.34,5.84a91.11,91.11,0,0,0-5.39,12.29,77.26,77.26,0,0,0-4.64,26.22v1.67c0,.56.07,1.11.1,1.66l.24,3.32a64.54,64.54,0,0,0,1.14,6.53l.37,1.61.19.81.25.79,1,3.15c.36,1,.84,2,1.25,3.06l.64,1.52.77,1.46c.53,1,1,2,1.57,2.9l1.81,2.76c1.22,1.84,2.65,3.62,4,5.35a49.37,49.37,0,0,0,9.55,9,31.78,31.78,0,0,0,11.78,5.06,55.06,55.06,0,0,0,13.25,1c4.52-.12,9.09-.53,13.67-1l13.79-1.29c4.61-.4,9.22-.75,13.87-1a83.14,83.14,0,0,1,14.06.42,78,78,0,0,1,13.74,2.95,87.54,87.54,0,0,1,12.94,5.32c4.16,2.07,8.14,4.45,12.19,6.59a32.7,32.7,0,0,0,6.27,2.69,11,11,0,0,0,6.67,0l.11.28a10.66,10.66,0,0,1-3.44.63,13.38,13.38,0,0,1-3.46-.45,33.2,33.2,0,0,1-6.46-2.55c-4.14-2.07-8.14-4.35-12.31-6.32a86.41,86.41,0,0,0-12.87-5A76.58,76.58,0,0,0,563,136.53c-9.18-1-18.41.11-27.58,1L521.68,139c-4.59.49-9.19,1-13.81,1.15a57.51,57.51,0,0,1-13.84-.83,33.92,33.92,0,0,1-12.75-5.38,51.92,51.92,0,0,1-10.12-9.48c-1.47-1.79-2.92-3.59-4.21-5.51L465,116c-.61-1-1.11-2-1.67-3l-.82-1.53-.68-1.6c-.44-1.07-.95-2.12-1.33-3.21l-1.08-3.31-.27-.83-.2-.85-.4-1.69a67.34,67.34,0,0,1-1.23-6.84l-.27-3.46c0-.58-.11-1.15-.11-1.73V86.17a80.17,80.17,0,0,1,4.67-27.25,92.65,92.65,0,0,1,5.63-12.68c1-2.08,2.31-4,3.48-6,.62-1,1.29-1.92,1.94-2.88s1.29-1.92,2-2.83l2.11-2.76c.72-.91,1.5-1.76,2.25-2.64,1.47-1.79,3.15-3.39,4.74-5.07a82.47,82.47,0,0,1,10.7-8.83A70.63,70.63,0,0,1,519.72,4.08a65,65,0,0,1,13.8-1.38c2.32-.07,4.62.16,6.93.32,1.15.1,2.31.13,3.45.28l3.44.44c1.14.17,2.3.25,3.43.49l3.41.66c2.29.37,4.5,1,6.74,1.61a33.67,33.67,0,0,1,3.32,1l3.29,1.11c1.07.43,2.13.89,3.2,1.34a31.34,31.34,0,0,1,3.15,1.44L577,13c1,.57,2,1.21,3,1.81l1.47.92,1.4,1c.92.7,1.9,1.33,2.77,2.09a55.48,55.48,0,0,1,9.55,10,59.49,59.49,0,0,1,10.62,25.38,66.87,66.87,0,0,1,1,13.82,55.82,55.82,0,0,1-.62,6.91l-.31,1.71-.4,1.69a10.93,10.93,0,0,1-1.34,3.24Z"/><path class="cls-6" d="M590.81,44.84a32,32,0,0,0-5.26-6c-.94-.94-2-1.75-3-2.61s-2.15-1.58-3.25-2.32a52.46,52.46,0,0,0-14.46-6.49l-.94-.3-1-.23L561,26.38,559,25.92c-.64-.16-1.31-.22-2-.33L553.17,25c-1.32-.13-2.64-.2-4-.3a78.37,78.37,0,0,0-7.94-.16,44.13,44.13,0,0,0-7.74.76,61.86,61.86,0,0,0-27.64,13.78,74.21,74.21,0,0,0-19.13,24.53,59,59,0,0,0-3,7.15A45.26,45.26,0,0,0,482,78.17a27.8,27.8,0,0,0,1.37,14.63l.76,1.65c.26.55.62,1,.92,1.56l.47.78.56.74c.39.49.74,1,1.15,1.48a29.81,29.81,0,0,0,5.55,5,44.7,44.7,0,0,0,14.08,6,113.58,113.58,0,0,0,15.72,2.59c5.34.58,10.74,1,16.15,1.56a139.61,139.61,0,0,1,16.13,2.69,69.54,69.54,0,0,1,7.85,2.32,56.26,56.26,0,0,1,7.42,3.42l-.14.27a61.14,61.14,0,0,0-15.33-5,138.21,138.21,0,0,0-16.06-2.09c-5.39-.44-10.79-.73-16.18-1.18a116,116,0,0,1-16.08-2.28,44.43,44.43,0,0,1-15-6.13,32.45,32.45,0,0,1-6.11-5.4c-.45-.51-.85-1.07-1.27-1.6l-.62-.81-.54-.87c-.35-.59-.75-1.14-1.05-1.76l-.87-1.86a30.55,30.55,0,0,1-1.69-16.08A48.13,48.13,0,0,1,481,69.83a61.91,61.91,0,0,1,3.06-7.55A76.88,76.88,0,0,1,504.14,37a70.78,70.78,0,0,1,13.59-8.9A54.07,54.07,0,0,1,533.15,23a46.55,46.55,0,0,1,8.11-.61,80.59,80.59,0,0,1,8.12.35c1.35.14,2.7.24,4,.41l4,.71c.66.13,1.34.21,2,.39l2,.52,2,.52,1,.26,1,.34a53.75,53.75,0,0,1,14.54,7.19c1.1.8,2.17,1.63,3.22,2.48s2.06,1.77,3,2.77a32.38,32.38,0,0,1,5,6.39Z"/><path class="cls-6" d="M603.58,81.4a10.58,10.58,0,0,0-.39-4.39,25.21,25.21,0,0,0-1.58-4.16A48.53,48.53,0,0,0,597,65.2a59.75,59.75,0,0,0-5.67-6.87,62,62,0,0,0-6.47-6,46.8,46.8,0,0,0-15-8.42,31.44,31.44,0,0,0-8.25-1.53,17.22,17.22,0,0,0-2.08,0,12.9,12.9,0,0,0-2.07.14c-.69.1-1.38.16-2.06.28l-2,.48c-5.42,1.32-10.31,4.45-14.71,8.2a43.81,43.81,0,0,0-5.89,6.24,32.67,32.67,0,0,0-4.16,7.38,30.68,30.68,0,0,0-1.42,17,42.9,42.9,0,0,0,2.47,8.54c.55,1.39,1.16,2.77,1.85,4.11a38,38,0,0,0,2.23,4l-.23.19A43.68,43.68,0,0,1,528.72,91a42.48,42.48,0,0,1-3.09-8.62,31.64,31.64,0,0,1,.74-18.11,32.7,32.7,0,0,1,4.25-8.12,46.43,46.43,0,0,1,6.14-6.81c4.57-4,9.86-7.47,15.85-9l2.25-.51c.76-.13,1.53-.19,2.29-.29a15,15,0,0,1,2.3-.14,19.59,19.59,0,0,1,2.3,0,33.25,33.25,0,0,1,9,1.77,41.09,41.09,0,0,1,8.3,3.9,51.68,51.68,0,0,1,7.39,5.41,64.38,64.38,0,0,1,11.93,13.83,47.45,47.45,0,0,1,4.19,8.14,25.62,25.62,0,0,1,1.31,4.4,11,11,0,0,1,0,4.6Z"/><path class="cls-6" d="M617.78,120.07c-1.83,0-3.67-.08-5.5-.15s-3.66-.23-5.49-.37q-5.48-.42-11-1.06a177.29,177.29,0,0,1-21.72-4.23,75.32,75.32,0,0,1-10.64-3.61,39.62,39.62,0,0,1-10-5.93,11.84,11.84,0,0,1-1.14-1c-.35-.37-.77-.74-1.06-1.12l-1.84-2.25c-.62-.75-1.12-1.6-1.69-2.4a21.93,21.93,0,0,1-1.51-2.56A25.49,25.49,0,0,1,543,83.66l0-.77.06-.77.13-1.53c.12-1,.36-2,.55-3s.54-1.95.89-2.88.68-1.88,1.13-2.74a53.22,53.22,0,0,1,6-9.76c.28-.37.55-.74.94-1.16a14.51,14.51,0,0,1,1.09-1.19L555,58.78l1.27-.93a23.86,23.86,0,0,1,5.48-2.72,30,30,0,0,1,5.79-1.32,35.41,35.41,0,0,1,5.83-.18,36.93,36.93,0,0,1,21.26,7.79,26.93,26.93,0,0,1,7,9,21.64,21.64,0,0,1,1,2.62c.14.45.32.88.43,1.34l.32,1.37a25.87,25.87,0,0,1,.4,2.76c.08.92.07,1.85.11,2.77l-.3,0a24.65,24.65,0,0,0-9.95-18.57A35.13,35.13,0,0,0,573.36,56a30.38,30.38,0,0,0-10.68,1.64,21.27,21.27,0,0,0-4.79,2.47,15.43,15.43,0,0,0-3.78,3.81,52.78,52.78,0,0,0-5.65,9.29c-.42.81-.68,1.68-1,2.51s-.52,1.73-.78,2.59-.37,1.77-.47,2.66l-.11,1.35L546,83l0,.67A22.61,22.61,0,0,0,548.78,94a19.42,19.42,0,0,0,1.36,2.34c.52.74,1,1.53,1.54,2.23l1.71,2.12c.28.36.62.66.92,1a9.66,9.66,0,0,0,1,.93,37.16,37.16,0,0,0,9.25,5.65A87.76,87.76,0,0,0,574.79,112a178.75,178.75,0,0,0,21.31,4.9c7.19,1.23,14.44,2.2,21.7,2.84Z"/><path class="cls-6" d="M440.11,81.42a10.78,10.78,0,0,0,1.19-3.16l.34-1.68.25-1.7a55.25,55.25,0,0,0,.42-6.85A66.38,66.38,0,0,0,441,54.42,58.18,58.18,0,0,0,430.11,29.8a54.53,54.53,0,0,0-9.4-9.59c-.85-.72-1.81-1.32-2.71-2l-1.37-1-1.44-.87c-1-.57-1.91-1.17-2.9-1.71l-3-1.5a29.94,29.94,0,0,0-3.08-1.36c-1-.42-2.08-.86-3.13-1.26l-3.22-1a32.38,32.38,0,0,0-3.24-.95C394.4,8,392.23,7.41,390,7.08l-3.34-.6c-1.11-.21-2.25-.28-3.37-.43l-3.37-.39c-1.12-.13-2.26-.15-3.39-.23-2.26-.12-4.54-.32-6.75-.22a63.44,63.44,0,0,0-13.24,1.4,68,68,0,0,0-24.24,10.86A79.75,79.75,0,0,0,322,26.06c-1.54,1.63-3.16,3.18-4.57,4.93-.72.86-1.47,1.69-2.17,2.57l-2,2.68c-.7.88-1.31,1.82-1.94,2.75s-1.27,1.85-1.86,2.8c-1.12,1.94-2.36,3.82-3.34,5.84a91.11,91.11,0,0,0-5.39,12.29,77.26,77.26,0,0,0-4.64,26.22v1.67c0,.56.07,1.11.1,1.66l.24,3.32a64.54,64.54,0,0,0,1.14,6.53l.37,1.61.19.81.25.79,1,3.15c.36,1,.84,2,1.25,3.06l.64,1.52.77,1.46c.53,1,1,2,1.57,2.9l1.81,2.76c1.22,1.84,2.65,3.62,4,5.35a49.37,49.37,0,0,0,9.55,9,31.78,31.78,0,0,0,11.78,5.06,55.06,55.06,0,0,0,13.25,1c4.52-.12,9.09-.53,13.67-1l13.79-1.29c4.61-.4,9.22-.75,13.87-1a83.14,83.14,0,0,1,14.06.42,78,78,0,0,1,13.74,2.95,87.54,87.54,0,0,1,12.94,5.32c4.16,2.07,8.14,4.45,12.19,6.59a32.7,32.7,0,0,0,6.27,2.69,11,11,0,0,0,6.67,0l.11.28a10.66,10.66,0,0,1-3.44.63,13.38,13.38,0,0,1-3.46-.45,33.2,33.2,0,0,1-6.46-2.55c-4.14-2.07-8.14-4.35-12.31-6.32a86.41,86.41,0,0,0-12.87-5,76.58,76.58,0,0,0-13.54-2.61c-9.18-1-18.41.11-27.58,1L357.94,139c-4.59.49-9.19,1-13.81,1.15a57.51,57.51,0,0,1-13.84-.83,33.92,33.92,0,0,1-12.75-5.38,51.92,51.92,0,0,1-10.12-9.48c-1.47-1.79-2.92-3.59-4.21-5.51l-1.92-2.9c-.61-1-1.11-2-1.67-3l-.82-1.53-.68-1.6c-.44-1.07-.95-2.12-1.33-3.21l-1.08-3.31-.27-.83-.2-.85-.4-1.69a67.34,67.34,0,0,1-1.23-6.84l-.27-3.46c0-.58-.11-1.15-.11-1.73V86.17a80.17,80.17,0,0,1,4.67-27.25,92.65,92.65,0,0,1,5.63-12.68c1-2.08,2.31-4,3.48-6,.62-1,1.29-1.92,1.94-2.88s1.29-1.92,2-2.83L313,31.77c.72-.91,1.5-1.76,2.25-2.64,1.47-1.79,3.15-3.39,4.74-5.07a82.47,82.47,0,0,1,10.7-8.83A70.63,70.63,0,0,1,356,4.08a65,65,0,0,1,13.8-1.38c2.32-.07,4.62.16,6.93.32,1.15.1,2.31.13,3.45.28l3.44.44c1.14.17,2.3.25,3.43.49l3.41.66c2.29.37,4.5,1,6.74,1.61a33.68,33.68,0,0,1,3.32,1l3.29,1.11c1.07.43,2.13.89,3.2,1.34a31.33,31.33,0,0,1,3.15,1.44L413.22,13c1,.57,2,1.21,3,1.81l1.47.92,1.4,1c.92.7,1.9,1.33,2.77,2.09a55.48,55.48,0,0,1,9.55,10A59.49,59.49,0,0,1,442,54.24a66.87,66.87,0,0,1,1,13.82,55.82,55.82,0,0,1-.62,6.91l-.31,1.71-.4,1.69a10.93,10.93,0,0,1-1.34,3.24Z"/><path class="cls-6" d="M427.07,44.84a32,32,0,0,0-5.26-6c-.94-.94-2-1.75-3-2.61s-2.15-1.58-3.25-2.32a52.46,52.46,0,0,0-14.46-6.49l-.94-.3-1-.23-1.93-.46-1.93-.46c-.64-.16-1.31-.22-2-.33L389.43,25c-1.32-.13-2.64-.2-4-.3a78.37,78.37,0,0,0-7.94-.16,44.13,44.13,0,0,0-7.74.76,61.86,61.86,0,0,0-27.64,13.78A74.21,74.21,0,0,0,323,63.59a59,59,0,0,0-3,7.15,45.27,45.27,0,0,0-1.78,7.44,27.8,27.8,0,0,0,1.37,14.63l.76,1.65c.26.55.62,1,.92,1.56l.47.78.56.74c.39.49.74,1,1.15,1.48a29.81,29.81,0,0,0,5.55,5,44.7,44.7,0,0,0,14.08,6,113.58,113.58,0,0,0,15.72,2.59c5.34.58,10.74,1,16.15,1.56a139.61,139.61,0,0,1,16.13,2.69,69.54,69.54,0,0,1,7.85,2.32,56.26,56.26,0,0,1,7.42,3.42l-.14.27a61.14,61.14,0,0,0-15.33-5,138.21,138.21,0,0,0-16.06-2.09c-5.39-.44-10.79-.73-16.18-1.18a116,116,0,0,1-16.08-2.28,44.43,44.43,0,0,1-15-6.13,32.45,32.45,0,0,1-6.11-5.4c-.45-.51-.85-1.07-1.27-1.6l-.62-.81-.54-.87c-.35-.59-.75-1.14-1.05-1.76l-.87-1.86a30.55,30.55,0,0,1-1.69-16.08,48.13,48.13,0,0,1,1.83-7.94,61.91,61.91,0,0,1,3.06-7.55A76.88,76.88,0,0,1,340.4,37,70.78,70.78,0,0,1,354,28.06,54.07,54.07,0,0,1,369.41,23a46.55,46.55,0,0,1,8.11-.61,80.59,80.59,0,0,1,8.12.35c1.35.14,2.7.24,4,.41l4,.71c.66.13,1.34.21,2,.39l2,.52,2,.52,1,.26,1,.34a53.75,53.75,0,0,1,14.54,7.19c1.1.8,2.17,1.63,3.22,2.48s2.06,1.77,3,2.77a32.38,32.38,0,0,1,5,6.39Z"/><path class="cls-6" d="M439.84,81.4a10.58,10.58,0,0,0-.39-4.39,25.21,25.21,0,0,0-1.58-4.16,48.53,48.53,0,0,0-4.58-7.65,59.75,59.75,0,0,0-5.67-6.87,62,62,0,0,0-6.47-6,46.8,46.8,0,0,0-15-8.42,31.44,31.44,0,0,0-8.25-1.53,17.22,17.22,0,0,0-2.08,0,12.9,12.9,0,0,0-2.07.14c-.69.1-1.38.16-2.06.28l-2,.48c-5.42,1.32-10.31,4.45-14.71,8.2A43.81,43.81,0,0,0,369,57.7a32.67,32.67,0,0,0-4.16,7.38,30.68,30.68,0,0,0-1.42,17,42.9,42.9,0,0,0,2.47,8.54c.55,1.39,1.16,2.77,1.85,4.11a38,38,0,0,0,2.23,4l-.23.19A43.68,43.68,0,0,1,365,91a42.48,42.48,0,0,1-3.09-8.62,31.64,31.64,0,0,1,.74-18.11,32.7,32.7,0,0,1,4.25-8.12A46.42,46.42,0,0,1,373,49.36c4.57-4,9.86-7.47,15.85-9l2.25-.51c.76-.13,1.53-.19,2.29-.29a15,15,0,0,1,2.3-.14,19.59,19.59,0,0,1,2.3,0,33.25,33.25,0,0,1,9,1.77,41.09,41.09,0,0,1,8.3,3.9,51.69,51.69,0,0,1,7.39,5.41,64.38,64.38,0,0,1,11.93,13.83,47.45,47.45,0,0,1,4.19,8.14,25.62,25.62,0,0,1,1.31,4.4,11,11,0,0,1,0,4.6Z"/><path class="cls-6" d="M454,120.07c-1.83,0-3.67-.08-5.5-.15s-3.66-.23-5.49-.37q-5.48-.42-11-1.06a177.28,177.28,0,0,1-21.72-4.23,75.32,75.32,0,0,1-10.64-3.61,39.62,39.62,0,0,1-10-5.93,11.83,11.83,0,0,1-1.14-1c-.35-.37-.77-.74-1.06-1.12l-1.84-2.25c-.62-.75-1.12-1.6-1.69-2.4a21.93,21.93,0,0,1-1.51-2.56,25.49,25.49,0,0,1-3.15-11.68l0-.77.06-.77.13-1.53c.12-1,.36-2,.55-3s.54-1.95.89-2.88.68-1.88,1.13-2.74a53.21,53.21,0,0,1,6-9.76c.28-.37.55-.74.94-1.16a14.5,14.5,0,0,1,1.09-1.19l1.18-1.07,1.27-.93A23.86,23.86,0,0,1,398,55.13a30,30,0,0,1,5.79-1.32,35.41,35.41,0,0,1,5.83-.18,36.93,36.93,0,0,1,21.26,7.79,26.93,26.93,0,0,1,7,9,21.64,21.64,0,0,1,1,2.62c.14.45.32.88.43,1.34l.32,1.37a25.87,25.87,0,0,1,.4,2.76c.08.92.07,1.85.11,2.77l-.3,0A24.65,24.65,0,0,0,430,62.68,35.13,35.13,0,0,0,409.61,56a30.38,30.38,0,0,0-10.68,1.64,21.27,21.27,0,0,0-4.79,2.47,15.43,15.43,0,0,0-3.78,3.81,52.77,52.77,0,0,0-5.65,9.29c-.42.81-.68,1.68-1,2.51s-.52,1.73-.78,2.59-.37,1.77-.46,2.66l-.11,1.35-.05.67,0,.67A22.61,22.61,0,0,0,385,94a19.42,19.42,0,0,0,1.36,2.34c.52.74,1,1.53,1.54,2.23l1.71,2.12c.28.36.62.66.92,1a9.67,9.67,0,0,0,1,.93,37.16,37.16,0,0,0,9.25,5.65A87.75,87.75,0,0,0,411,112a178.75,178.75,0,0,0,21.31,4.9c7.19,1.23,14.44,2.2,21.7,2.84Z"/><path class="cls-6" d="M274.86,81.42a10.78,10.78,0,0,0,1.19-3.16l.34-1.68.25-1.7a55.24,55.24,0,0,0,.42-6.85,66.38,66.38,0,0,0-1.28-13.62A58.18,58.18,0,0,0,264.86,29.8a54.53,54.53,0,0,0-9.4-9.59c-.85-.72-1.81-1.32-2.71-2l-1.37-1-1.44-.87c-1-.57-1.91-1.17-2.9-1.71l-3-1.5a29.94,29.94,0,0,0-3.08-1.36c-1-.42-2.08-.86-3.13-1.26l-3.22-1a32.38,32.38,0,0,0-3.24-.95c-2.2-.52-4.36-1.15-6.61-1.48l-3.34-.6c-1.11-.21-2.25-.28-3.37-.43l-3.37-.39c-1.12-.13-2.26-.15-3.39-.23-2.26-.12-4.54-.32-6.75-.22a63.44,63.44,0,0,0-13.24,1.4A68,68,0,0,0,167,17.48a79.75,79.75,0,0,0-10.29,8.58c-1.54,1.63-3.16,3.18-4.57,4.93-.72.86-1.47,1.69-2.17,2.57l-2,2.68c-.7.88-1.31,1.82-1.94,2.75s-1.27,1.85-1.86,2.8c-1.12,1.94-2.36,3.82-3.34,5.84a91.11,91.11,0,0,0-5.39,12.29,77.26,77.26,0,0,0-4.64,26.22v1.67c0,.56.07,1.11.1,1.66l.24,3.32a64.54,64.54,0,0,0,1.14,6.53l.37,1.61.19.81.25.79,1,3.15c.36,1,.84,2,1.25,3.06l.64,1.52.77,1.46c.53,1,1,2,1.57,2.9l1.81,2.76c1.22,1.84,2.65,3.62,4,5.35a49.37,49.37,0,0,0,9.55,9,31.78,31.78,0,0,0,11.78,5.06,55.06,55.06,0,0,0,13.25,1c4.52-.12,9.09-.53,13.67-1l13.79-1.29c4.61-.4,9.22-.75,13.87-1a83.14,83.14,0,0,1,14.06.42,78,78,0,0,1,13.74,2.95,87.54,87.54,0,0,1,12.94,5.32c4.16,2.07,8.14,4.45,12.19,6.59a32.7,32.7,0,0,0,6.27,2.69,11,11,0,0,0,6.67,0l.11.28a10.66,10.66,0,0,1-3.44.63,13.38,13.38,0,0,1-3.46-.45,33.2,33.2,0,0,1-6.46-2.55c-4.14-2.07-8.14-4.35-12.31-6.32a86.41,86.41,0,0,0-12.87-5A76.58,76.58,0,0,0,234,136.53c-9.18-1-18.41.11-27.58,1L192.69,139c-4.59.49-9.19,1-13.81,1.15a57.51,57.51,0,0,1-13.84-.83,33.92,33.92,0,0,1-12.75-5.38,51.92,51.92,0,0,1-10.12-9.48c-1.47-1.79-2.92-3.59-4.21-5.51L136,116c-.61-1-1.11-2-1.67-3l-.82-1.53-.68-1.6c-.44-1.07-.95-2.12-1.33-3.21l-1.08-3.31-.27-.83-.2-.85-.4-1.69a67.33,67.33,0,0,1-1.23-6.84l-.27-3.46c0-.58-.11-1.15-.11-1.73V86.17a80.17,80.17,0,0,1,4.67-27.25,92.65,92.65,0,0,1,5.63-12.68c1-2.08,2.31-4,3.48-6,.62-1,1.29-1.92,1.94-2.88s1.29-1.92,2-2.83l2.11-2.76c.72-.91,1.5-1.76,2.25-2.64,1.47-1.79,3.15-3.39,4.74-5.07a82.47,82.47,0,0,1,10.7-8.83A70.63,70.63,0,0,1,190.73,4.08a65,65,0,0,1,13.8-1.38c2.32-.07,4.62.16,6.93.32,1.15.1,2.31.13,3.45.28l3.44.44c1.14.17,2.3.25,3.43.49l3.41.66c2.29.37,4.5,1,6.74,1.61a33.67,33.67,0,0,1,3.32,1l3.29,1.11c1.07.43,2.13.89,3.2,1.34a31.33,31.33,0,0,1,3.15,1.44L248,13c1,.57,2,1.21,3,1.81l1.47.92,1.4,1c.92.7,1.9,1.33,2.77,2.09a55.48,55.48,0,0,1,9.55,10,59.49,59.49,0,0,1,10.62,25.38,66.87,66.87,0,0,1,1,13.82,55.83,55.83,0,0,1-.62,6.91l-.31,1.71-.4,1.69a10.93,10.93,0,0,1-1.34,3.24Z"/><path class="cls-6" d="M261.82,44.84a32,32,0,0,0-5.26-6c-.94-.94-2-1.75-3-2.61s-2.15-1.58-3.25-2.32a52.46,52.46,0,0,0-14.46-6.49l-.94-.3-1-.23L232,26.38l-1.93-.46c-.64-.16-1.31-.22-2-.33L224.18,25c-1.32-.13-2.64-.2-4-.3a78.37,78.37,0,0,0-7.94-.16,44.13,44.13,0,0,0-7.74.76A61.86,61.86,0,0,0,176.9,39.06a74.21,74.21,0,0,0-19.13,24.53,59,59,0,0,0-3,7.15A45.26,45.26,0,0,0,153,78.17a27.8,27.8,0,0,0,1.37,14.63l.76,1.65c.26.55.62,1,.92,1.56l.47.78.56.74c.39.49.74,1,1.15,1.48a29.81,29.81,0,0,0,5.55,5,44.7,44.7,0,0,0,14.08,6,113.58,113.58,0,0,0,15.72,2.59c5.34.58,10.74,1,16.15,1.56a139.61,139.61,0,0,1,16.13,2.69,69.54,69.54,0,0,1,7.85,2.32,56.26,56.26,0,0,1,7.42,3.42l-.14.27a61.14,61.14,0,0,0-15.33-5,138.22,138.22,0,0,0-16.06-2.09c-5.39-.44-10.79-.73-16.18-1.18a116,116,0,0,1-16.08-2.28,44.43,44.43,0,0,1-15-6.13,32.45,32.45,0,0,1-6.11-5.4c-.45-.51-.85-1.07-1.27-1.6l-.62-.81-.54-.87c-.35-.59-.75-1.14-1.05-1.76l-.87-1.86a30.55,30.55,0,0,1-1.69-16.08A48.12,48.12,0,0,1,152,69.83a61.91,61.91,0,0,1,3.06-7.55A76.88,76.88,0,0,1,175.15,37a70.78,70.78,0,0,1,13.59-8.9A54.07,54.07,0,0,1,204.16,23a46.55,46.55,0,0,1,8.11-.61,80.59,80.59,0,0,1,8.12.35c1.35.14,2.7.24,4,.41l4,.71c.66.13,1.34.21,2,.39l2,.52,2,.52,1,.26,1,.34a53.75,53.75,0,0,1,14.54,7.19c1.1.8,2.17,1.63,3.22,2.48s2.06,1.77,3,2.77a32.38,32.38,0,0,1,5,6.39Z"/><path class="cls-6" d="M274.59,81.4A10.58,10.58,0,0,0,274.2,77a25.21,25.21,0,0,0-1.58-4.16A48.53,48.53,0,0,0,268,65.2a59.75,59.75,0,0,0-5.67-6.87,62,62,0,0,0-6.47-6,46.8,46.8,0,0,0-15-8.42,31.44,31.44,0,0,0-8.25-1.53,17.22,17.22,0,0,0-2.08,0,12.9,12.9,0,0,0-2.07.14c-.69.1-1.38.16-2.06.28l-2,.48c-5.42,1.32-10.31,4.45-14.71,8.2a43.81,43.81,0,0,0-5.89,6.24,32.67,32.67,0,0,0-4.16,7.38,30.68,30.68,0,0,0-1.42,17,42.9,42.9,0,0,0,2.47,8.54c.55,1.39,1.16,2.77,1.85,4.11a38,38,0,0,0,2.23,4l-.23.19A43.68,43.68,0,0,1,199.73,91a42.48,42.48,0,0,1-3.09-8.62,31.64,31.64,0,0,1,.74-18.11,32.7,32.7,0,0,1,4.25-8.12,46.42,46.42,0,0,1,6.14-6.81c4.57-4,9.86-7.47,15.85-9l2.25-.51c.76-.13,1.53-.19,2.29-.29a15,15,0,0,1,2.3-.14,19.59,19.59,0,0,1,2.3,0,33.25,33.25,0,0,1,9,1.77,41.09,41.09,0,0,1,8.3,3.9,51.68,51.68,0,0,1,7.39,5.41,64.38,64.38,0,0,1,11.93,13.83,47.45,47.45,0,0,1,4.19,8.14,25.63,25.63,0,0,1,1.31,4.4,11,11,0,0,1,0,4.6Z"/><path class="cls-6" d="M288.79,120.07c-1.83,0-3.67-.08-5.5-.15s-3.66-.23-5.49-.37q-5.48-.42-11-1.06a177.28,177.28,0,0,1-21.72-4.23,75.32,75.32,0,0,1-10.64-3.61,39.62,39.62,0,0,1-10-5.93,11.83,11.83,0,0,1-1.14-1c-.35-.37-.77-.74-1.06-1.12l-1.84-2.25c-.62-.75-1.12-1.6-1.69-2.4a21.93,21.93,0,0,1-1.51-2.56,25.49,25.49,0,0,1-3.15-11.68l0-.77.06-.77.13-1.53c.12-1,.36-2,.55-3s.54-1.95.89-2.88.68-1.88,1.13-2.74a53.22,53.22,0,0,1,6-9.76c.28-.37.55-.74.94-1.16a14.5,14.5,0,0,1,1.09-1.19L226,58.78l1.27-.93a23.86,23.86,0,0,1,5.48-2.72,30,30,0,0,1,5.79-1.32,35.41,35.41,0,0,1,5.83-.18,36.93,36.93,0,0,1,21.26,7.79,26.93,26.93,0,0,1,7,9,21.64,21.64,0,0,1,1,2.62c.14.45.32.88.43,1.34l.32,1.37a25.87,25.87,0,0,1,.4,2.76c.08.92.07,1.85.11,2.77l-.3,0a24.65,24.65,0,0,0-9.95-18.57A35.13,35.13,0,0,0,244.36,56a30.38,30.38,0,0,0-10.68,1.64,21.27,21.27,0,0,0-4.79,2.47,15.43,15.43,0,0,0-3.78,3.81,52.78,52.78,0,0,0-5.65,9.29c-.42.81-.68,1.68-1,2.51s-.52,1.73-.78,2.59-.37,1.77-.46,2.66l-.11,1.35L217,83l0,.67A22.61,22.61,0,0,0,219.79,94a19.42,19.42,0,0,0,1.36,2.34c.52.74,1,1.53,1.54,2.23l1.71,2.12c.28.36.62.66.92,1a9.67,9.67,0,0,0,1,.93,37.16,37.16,0,0,0,9.25,5.65A87.75,87.75,0,0,0,245.79,112a178.75,178.75,0,0,0,21.31,4.9c7.19,1.23,14.44,2.2,21.7,2.84Z"/><path class="cls-6" d="M109.9,81.42a10.78,10.78,0,0,0,1.19-3.16l.34-1.68.25-1.7a55.25,55.25,0,0,0,.42-6.85,66.38,66.38,0,0,0-1.28-13.62A58.18,58.18,0,0,0,99.91,29.8a54.53,54.53,0,0,0-9.4-9.59c-.85-.72-1.81-1.32-2.71-2l-1.37-1L85,16.38c-1-.57-1.91-1.17-2.9-1.71l-3-1.5A29.94,29.94,0,0,0,76,11.81c-1-.42-2.08-.86-3.13-1.26l-3.22-1a32.38,32.38,0,0,0-3.24-.95C64.19,8,62,7.41,59.78,7.08l-3.34-.6c-1.11-.21-2.25-.28-3.37-.43l-3.37-.39c-1.12-.13-2.26-.15-3.39-.23-2.26-.12-4.54-.32-6.75-.22a63.44,63.44,0,0,0-13.24,1.4A68,68,0,0,0,2.08,17.48,79.75,79.75,0,0,0-8.21,26.06c-1.54,1.63-3.16,3.18-4.57,4.93-.72.86-1.47,1.69-2.17,2.57l-2,2.68c-.7.88-1.31,1.82-1.94,2.75s-1.27,1.85-1.86,2.8c-1.12,1.94-2.36,3.82-3.34,5.84A91.11,91.11,0,0,0-29.5,59.92a77.26,77.26,0,0,0-4.64,26.22v1.67c0,.56.07,1.11.1,1.66l.24,3.32a64.54,64.54,0,0,0,1.14,6.53l.37,1.61.19.81.25.79,1,3.15c.36,1,.84,2,1.25,3.06l.64,1.52.77,1.46c.53,1,1,2,1.57,2.9l1.81,2.76c1.22,1.84,2.65,3.62,4,5.35a49.37,49.37,0,0,0,9.55,9A31.78,31.78,0,0,0,.59,136.82a55.06,55.06,0,0,0,13.25,1c4.52-.12,9.09-.53,13.67-1l13.79-1.29c4.61-.4,9.22-.75,13.87-1a83.14,83.14,0,0,1,14.06.42A78,78,0,0,1,83,137.91a87.54,87.54,0,0,1,12.94,5.32c4.16,2.07,8.14,4.45,12.19,6.59a32.7,32.7,0,0,0,6.27,2.69,11,11,0,0,0,6.67,0l.11.28a10.66,10.66,0,0,1-3.44.63,13.38,13.38,0,0,1-3.46-.45,33.2,33.2,0,0,1-6.46-2.55c-4.14-2.07-8.14-4.35-12.31-6.32a86.41,86.41,0,0,0-12.87-5,76.58,76.58,0,0,0-13.54-2.61c-9.18-1-18.41.11-27.58,1L27.73,139c-4.59.49-9.19,1-13.81,1.15a57.51,57.51,0,0,1-13.84-.83,33.92,33.92,0,0,1-12.75-5.38,51.92,51.92,0,0,1-10.12-9.48c-1.47-1.79-2.92-3.59-4.21-5.51l-1.92-2.9c-.61-1-1.11-2-1.67-3l-.82-1.53-.68-1.6c-.44-1.07-.95-2.12-1.33-3.21l-1.08-3.31-.27-.83-.2-.85-.4-1.69a67.33,67.33,0,0,1-1.23-6.84l-.27-3.46c0-.58-.11-1.15-.11-1.73V86.17a80.17,80.17,0,0,1,4.67-27.25A92.65,92.65,0,0,1-26.7,46.24c1-2.08,2.31-4,3.48-6,.62-1,1.29-1.92,1.94-2.88s1.29-1.92,2-2.83l2.11-2.76c.72-.91,1.5-1.76,2.25-2.64,1.47-1.79,3.15-3.39,4.74-5.07A82.47,82.47,0,0,1,.52,15.23,70.63,70.63,0,0,1,25.77,4.08,65,65,0,0,1,39.57,2.7c2.32-.07,4.62.16,6.93.32,1.15.1,2.31.13,3.45.28l3.44.44c1.14.17,2.3.25,3.43.49l3.41.66c2.29.37,4.5,1,6.74,1.61a33.67,33.67,0,0,1,3.32,1l3.29,1.11c1.07.43,2.13.89,3.2,1.34a31.33,31.33,0,0,1,3.15,1.44L83,13c1,.57,2,1.21,3,1.81l1.47.92,1.4,1c.92.7,1.9,1.33,2.77,2.09a55.48,55.48,0,0,1,9.55,10,59.49,59.49,0,0,1,10.62,25.38,66.87,66.87,0,0,1,1,13.82,55.82,55.82,0,0,1-.62,6.91l-.31,1.71-.4,1.69a10.93,10.93,0,0,1-1.34,3.24Z"/><path class="cls-6" d="M96.86,44.84a32,32,0,0,0-5.26-6c-.94-.94-2-1.75-3-2.61s-2.15-1.58-3.25-2.32a52.46,52.46,0,0,0-14.46-6.49l-.94-.3-1-.23L67,26.38l-1.93-.46c-.64-.16-1.31-.22-2-.33L59.22,25c-1.32-.13-2.64-.2-4-.3a78.37,78.37,0,0,0-7.94-.16,44.13,44.13,0,0,0-7.74.76A61.86,61.86,0,0,0,11.94,39.06,74.21,74.21,0,0,0-7.19,63.59a59,59,0,0,0-3,7.15,45.26,45.26,0,0,0-1.78,7.44A27.8,27.8,0,0,0-10.57,92.8l.76,1.65c.26.55.62,1,.92,1.56l.47.78.56.74c.39.49.74,1,1.15,1.48a29.81,29.81,0,0,0,5.55,5,44.7,44.7,0,0,0,14.08,6,113.58,113.58,0,0,0,15.72,2.59c5.34.58,10.74,1,16.15,1.56a139.61,139.61,0,0,1,16.13,2.69,69.54,69.54,0,0,1,7.85,2.32,56.26,56.26,0,0,1,7.42,3.42l-.14.27a61.14,61.14,0,0,0-15.33-5,138.21,138.21,0,0,0-16.06-2.09c-5.39-.44-10.79-.73-16.18-1.18a116,116,0,0,1-16.08-2.28,44.43,44.43,0,0,1-15-6.13,32.45,32.45,0,0,1-6.11-5.4c-.45-.51-.85-1.07-1.27-1.6l-.62-.81-.54-.87c-.35-.59-.75-1.14-1.05-1.76l-.87-1.86a30.55,30.55,0,0,1-1.69-16.08,48.13,48.13,0,0,1,1.83-7.94,61.91,61.91,0,0,1,3.06-7.55A76.88,76.88,0,0,1,10.2,37a70.78,70.78,0,0,1,13.59-8.9A54.07,54.07,0,0,1,39.2,23a46.55,46.55,0,0,1,8.11-.61,80.59,80.59,0,0,1,8.12.35c1.35.14,2.7.24,4,.41l4,.71c.66.13,1.34.21,2,.39l2,.52,2,.52,1,.26,1,.34a53.75,53.75,0,0,1,14.54,7.19c1.1.8,2.17,1.63,3.22,2.48s2.06,1.77,3,2.77a32.38,32.38,0,0,1,5,6.39Z"/><path class="cls-6" d="M109.63,81.4a10.58,10.58,0,0,0-.39-4.39,25.21,25.21,0,0,0-1.58-4.16,48.53,48.53,0,0,0-4.58-7.65,59.75,59.75,0,0,0-5.67-6.87,62,62,0,0,0-6.47-6,46.8,46.8,0,0,0-15-8.42,31.44,31.44,0,0,0-8.25-1.53,17.22,17.22,0,0,0-2.08,0,12.9,12.9,0,0,0-2.07.14c-.69.1-1.38.16-2.06.28l-2,.48C54,44.58,49.1,47.71,44.69,51.46A43.81,43.81,0,0,0,38.8,57.7a32.67,32.67,0,0,0-4.16,7.38,30.68,30.68,0,0,0-1.42,17,42.9,42.9,0,0,0,2.47,8.54c.55,1.39,1.16,2.77,1.85,4.11a38,38,0,0,0,2.23,4l-.23.19A43.68,43.68,0,0,1,34.77,91a42.48,42.48,0,0,1-3.09-8.62,31.64,31.64,0,0,1,.74-18.11,32.7,32.7,0,0,1,4.25-8.12,46.42,46.42,0,0,1,6.14-6.81c4.57-4,9.86-7.47,15.85-9l2.25-.51c.76-.13,1.53-.19,2.29-.29a15,15,0,0,1,2.3-.14,19.59,19.59,0,0,1,2.3,0,33.25,33.25,0,0,1,9,1.77,41.09,41.09,0,0,1,8.3,3.9,51.69,51.69,0,0,1,7.39,5.41,64.38,64.38,0,0,1,11.93,13.83,47.45,47.45,0,0,1,4.19,8.14,25.63,25.63,0,0,1,1.31,4.4,11,11,0,0,1,0,4.6Z"/><path class="cls-6" d="M123.83,120.07c-1.83,0-3.67-.08-5.5-.15s-3.66-.23-5.49-.37q-5.48-.42-11-1.06a177.28,177.28,0,0,1-21.72-4.23,75.32,75.32,0,0,1-10.64-3.61,39.62,39.62,0,0,1-10-5.93,11.83,11.83,0,0,1-1.14-1c-.35-.37-.77-.74-1.06-1.12l-1.84-2.25c-.62-.75-1.12-1.6-1.69-2.4a21.93,21.93,0,0,1-1.51-2.56A25.49,25.49,0,0,1,49.1,83.66l0-.77.06-.77.13-1.53c.12-1,.36-2,.55-3s.54-1.95.89-2.88.68-1.88,1.13-2.74a53.22,53.22,0,0,1,6-9.76c.28-.37.55-.74.94-1.16a14.5,14.5,0,0,1,1.09-1.19l1.18-1.07,1.27-.93a23.86,23.86,0,0,1,5.48-2.72,30,30,0,0,1,5.79-1.32,35.41,35.41,0,0,1,5.83-.18,36.93,36.93,0,0,1,21.26,7.79,26.93,26.93,0,0,1,7,9,21.64,21.64,0,0,1,1,2.62c.14.45.32.88.43,1.34l.32,1.37a25.87,25.87,0,0,1,.4,2.76c.08.92.07,1.85.11,2.77l-.3,0a24.65,24.65,0,0,0-9.95-18.57A35.13,35.13,0,0,0,79.41,56,30.38,30.38,0,0,0,68.72,57.6a21.27,21.27,0,0,0-4.79,2.47,15.43,15.43,0,0,0-3.78,3.81,52.78,52.78,0,0,0-5.65,9.29c-.42.81-.68,1.68-1,2.51s-.52,1.73-.78,2.59-.37,1.77-.47,2.66l-.11,1.35-.05.67,0,.67A22.61,22.61,0,0,0,54.83,94a19.42,19.42,0,0,0,1.36,2.34c.52.74,1,1.53,1.54,2.23l1.71,2.12c.28.36.62.66.92,1a9.67,9.67,0,0,0,1,.93,37.16,37.16,0,0,0,9.25,5.65A87.75,87.75,0,0,0,80.84,112a178.75,178.75,0,0,0,21.31,4.9c7.19,1.23,14.44,2.2,21.7,2.84Z"/></g></svg>