<?xml version="1.0" encoding="utf-8"?>
<!-- Generator: Adobe Illustrator 21.1.0, SVG Export Plug-In . SVG Version: 6.00 Build 0)  -->
<svg version="1.1" id="Layer_1" xmlns="http://www.w3.org/2000/svg" xmlns:xlink="http://www.w3.org/1999/xlink" x="0px" y="0px"
	 viewBox="0 0 1565.4 419.5" style="enable-background:new 0 0 1565.4 419.5;" xml:space="preserve">
<style type="text/css">
	.st0{fill:#3D7F7A;}
	.st1{opacity:0.42;fill:none;stroke:#6EB7B4;stroke-width:2.2444;stroke-miterlimit:10;enable-background:new    ;}
	.st2{opacity:0.41;}
	.st3{fill:none;}
	.st4{fill:#A1CBC4;}
</style>
<rect x="-30.8" y="-7" class="st0" width="1642.1" height="438.5"/>
<path class="st1" d="M152.2,139.3l44.5,49.6c0,0,8.9,7.5,5,15.2c-3,6.2-5.6,3.4-21.5-0.4c-18.4-4.4-99.8-23.9-99.8-23.9
	s-6.7-2.9-2.8-10c4.5-8.3,10.2-7.6,20.8-11.4c10.6-3.9,49.3-17.8,49.3-17.8s7.7-3.8,12.9-9.8c5.7-6.5,6.8-9.7,6.2-14.2
	c-2.1-16.4-22.4-12.2-20.1,0.4"/>
<g class="st2">
	<path class="st3" d="M1262.5,144.7c-4.3-1.2-9,3.3-9.8,5.2c-0.7,2-0.4,6.2-0.8,9.7c-0.4,3.5-4.6,8.5-1,8.6
		c3.6,0.2,12.6-7.7,12.9-10.9C1263.9,157.4,1266.8,145.9,1262.5,144.7z"/>
	<path class="st4" d="M1318.9,164.4c0,0-7.6-6.3-19.2,5.8c-11.6,12-21.5,11.8-28.6,9.5c-7.1-2.1-4.9-10.5-2.8-20.1
		c2.2-9.7-0.9-18.8-8.1-19.6c-7.1-0.8-8.2,7.1-13.3,16.1c-5.1,8.9,0.7,20.9-8.7,42.5c-9.3,21.5-5.9,33.9-5.9,33.9
		c2.1,0.5-2.9,14-8,21c-5,7,1,8.3,7.1,12.1s13.3,4.1,21.9,7.9c8.6,3.8,6.3,6.7,16.5,16.7c10.2,10,23.1-1.7,28.3-6.1
		c5.2-4.4,12-35.6,13.6-40.8c1.7-5.4-4.4-32.7,5.9-55.3C1328.1,165,1318.9,164.4,1318.9,164.4z M1263.9,157.4
		c-0.3,3.3-9.3,11.1-12.9,10.9s0.6-5.1,1-8.6c0.4-3.5,0-7.7,0.8-9.7c0.7-2,5.5-6.3,9.8-5.2C1266.8,145.9,1263.9,157.4,1263.9,157.4z
		 M1309.2,178.7c-8.2,2-11.3,0-12.7-1c-1.4-1,5.6-4.8,7.8-7.9s11-2.7,11-2.7c3.3,0.6,6.1,1.6,4,8.9
		C1317.2,183.4,1317.5,176.7,1309.2,178.7z"/>
</g>
</svg>
