<?xml version="1.0" encoding="utf-8"?>
<!-- Generator: Adobe Illustrator 21.1.0, SVG Export Plug-In . SVG Version: 6.00 Build 0)  -->
<svg version="1.1" id="Layer_1" xmlns="http://www.w3.org/2000/svg" xmlns:xlink="http://www.w3.org/1999/xlink" x="0px" y="0px"
	 viewBox="0 0 1565.4 419.5" style="enable-background:new 0 0 1565.4 419.5;" xml:space="preserve">
<style type="text/css">
	.st0{fill:#C3E6E6;}
	.st1{opacity:0.3;fill:#D07975;enable-background:new    ;}
	.st2{opacity:0.93;fill:#98D4D4;enable-background:new    ;}
</style>
<rect x="-2.3" y="-1.2" class="st0" width="1569.7" height="423.9"/>
<path class="st1" d="M1430.6,141c0.9-5.5,0.6-14.6-6.9-18.5s-12.6,9-16,17.3s-12.2,7.5-8.2-0.3c4-7.7,17.2-21.5,12.2-28.2
	s-4.6,1.3-11.2-0.5s-14.2,7.1-15.5,9.4c-1.3,2.2-12.4,8.5-21.3,13.3c-8.9,4.7-17.3,21.7-17.3,21.7s-7.1,6.9-14.3,15.5
	c-7.2,8.6,4.1,19.8,1.2,23.5s9.9,13.7,15,19c5,5.3,14.4,3.6,30.9,7.3s18.4-17.9,20.4-25.1c2-7.2,11.9-12.9,21.8-24.2
	C1431.4,159.8,1429.7,146.5,1430.6,141z M1385.8,136.5c-8.1-3.9-6.4-2.9-2.3-10c4.1-7.1,8.4-8.6,11.5-11.4s14.1-1.9,14.1-1.9
	c4.7,2.6-4.5,12.3-8.8,19.1C1396,139.1,1393.9,140.4,1385.8,136.5z M1422.7,151.2c-3.3,2.5-3.8-3.1-5.8-11.8s-1.8-9.6-1.8-9.6
	s0.8-3.2,4-4.7c5.5-2.6,6.3-0.1,9.1,7.4C1431.1,139.8,1425.9,148.7,1422.7,151.2z"/>
<path class="st2" d="M173.1,161c1.4,3.9,2.5,7.4,4.5,8.3c12.2,6,14.2,14.3,16.2,20.1c4.9,14.4,15.4,58.8,15.4,58.8s0,3.9-11.2,8
	c-11.2,4.2-18.9-1.5-18.9-1.5s-11-40.7-14.5-56.8s-0.3-20.2,3.3-26.7c0.9-1.6-1.2-8.4-1.2-8.4L173.1,161z"/>
</svg>
