<?xml version="1.0" encoding="utf-8"?>
<!-- Generator: Adobe Illustrator 21.1.0, SVG Export Plug-In . SVG Version: 6.00 Build 0)  -->
<svg version="1.1" id="Layer_1" xmlns="http://www.w3.org/2000/svg" xmlns:xlink="http://www.w3.org/1999/xlink" x="0px" y="0px"
	 viewBox="0 0 1565.4 419.5" style="enable-background:new 0 0 1565.4 419.5;" xml:space="preserve">
<style type="text/css">
	.st0{fill:#E2F2F0;}
	.st1{opacity:0.25;}
	.st2{fill:#093C4A;}
	.st3{fill:#98D4D4;}
	.st4{opacity:0.82;fill:#DD9797;enable-background:new    ;}
</style>
<rect x="-4.7" y="-2.6" class="st0" width="1580.4" height="419.9"/>
<g class="st1">
	<path class="st2" d="M256.1,59.4c0,0,11.2-15.4,12.3-20.3c1-4.9,16.5,14.9,18.4,20.1S256.1,59.4,256.1,59.4z"/>
	<path class="st2" d="M260.2,70.9c0,0-9.9,12.5-12.1,18.3c-2.1,5.8,31.2-13.7,31.2-13.7L260.2,70.9z"/>
	<path class="st2" d="M220.4,68.1c0,0-11.9-1.3-8.3-21c0,0,8.2,17,12.9,15s23.1,4.5,23.3,7.6c0.2,3-14.9,16.5-26,12.3
		s-19,3.5-19,3.5S206.6,70.6,220.4,68.1z"/>
	<path class="st3" d="M220.2,70.6c0,0,25-8.3,41.8-14.1s43,10.8,54.1,19.5c11.1,8.8-22.6,8.6-40.6,3.6
		C257.4,74.7,228.1,85.5,220.2,70.6z"/>
	<path class="st2" d="M298.1,72.4l1.2,0.1c0.5,0.1,1-0.3,1.1-0.9l0.1-1.2c0.1-0.5-0.3-1-0.9-1.1l-1.2-0.1c-0.5-0.1-1,0.3-1.1,0.9
		l-0.1,1.2C297.1,71.8,297.5,72.3,298.1,72.4z"/>
</g>
<path class="st4" d="M1405.3,133.4c0,0-11.6,2.5-17.3,20.4s-5.8-2.9-11.9-10.9c-6.2-8-9.1-10.3-9.5-19s-9.3,1.5-7.9,8.9
	s-2.3,0.5,7.1,18.7s2.7,18.2-2.5,19.5s-19.6-8.8-23.4-8.2c-3.9,0.7-18.9,4.2-6.9,9.2c12,5.1,10.9,13.6,20.6,11.7
	c9.7-1.9,17.5-4.9,16.1,0.7c-1.3,5.6-10.6,21.2-8.9,28.5s1.6,10.1,5.6,0.2c4.1-9.9,13.1-7.1,16-19s6.2-12,9.7-6.1s8.5,7,11.2,15.4
	c2.8,8.5,6.6,13.9,7.3,3.9c0.7-10-4.2-25.6-10.5-28.5s-5.4-5.8-1.8-10.6c3.7-4.7,5.1-18.7,5.7-22.8
	C1404.7,141.2,1420.8,129.7,1405.3,133.4z"/>
</svg>
