<?xml version="1.0" encoding="utf-8"?>
<!-- Generator: Adobe Illustrator 21.1.0, SVG Export Plug-In . SVG Version: 6.00 Build 0)  -->
<svg version="1.1" id="Layer_1" xmlns="http://www.w3.org/2000/svg" xmlns:xlink="http://www.w3.org/1999/xlink" x="0px" y="0px"
	 viewBox="0 0 1641.5 477" style="enable-background:new 0 0 1641.5 477;" xml:space="preserve">
<style type="text/css">
	.st0{fill:#276A75;}
	.st1{opacity:0.38;fill:#7DAEA4;enable-background:new    ;}
</style>
<rect x="-15.6" y="-15.6" class="st0" width="1664.7" height="530"/>
<path class="st1" d="M268.1,240.6c4.6,2.1,16.2,8,21.5-1.2c5.4-9.1,3.1-10.8,8.6-15.2c5.5-4.4,10.6-6,14.2-9.9
	c3.6-3.9,7.8-6,2.7-10.1c-4.9-4.1-11.1-12.7-9.8-13.5c0,0,0.1-9.5-10.8-23.2c-10.9-13.6-9-23.4-14.5-28.8
	c-5.5-5.4-7.8-10.9-12.7-8.9c-4.9,2-5.4,9.1-2,15.6c3.5,6.5,6.6,12.1,1.9,15c-4.7,2.9-11.6,5-22.5-1.3c-10.7-6.3-14.9-0.4-14.9-0.4
	s-6.5,2.2,5.2,16.5c11.8,14.2,12.8,35,15,38.5C252.6,217.5,263.5,238.5,268.1,240.6z M268.2,143.3c0,0-4.4-7.7-1.5-9.3
	c2.8-1.7,7.1,0.5,8,1.8c0.9,1.3,1.5,4.3,2.4,6.8c0.9,2.4,4.9,5.1,2.4,6C277,149.4,269,145.6,268.2,143.3z M233,160.2
	c0,0,6.3-2,8.5-0.2s8,3,7.1,4.1c-0.8,1-2.6,3-8.9,3.3c-6.3,0.2-4.8,4.9-7.8,0C229,162.5,230.8,161.3,233,160.2z"/>
</svg>
