<?xml version="1.0" encoding="utf-8"?>
<!-- Generator: Adobe Illustrator 21.1.0, SVG Export Plug-In . SVG Version: 6.00 Build 0)  -->
<svg version="1.1" id="Layer_1" xmlns="http://www.w3.org/2000/svg" xmlns:xlink="http://www.w3.org/1999/xlink" x="0px" y="0px"
	 viewBox="0 0 400 400" style="enable-background:new 0 0 400 400;" xml:space="preserve">
<style type="text/css">
	.st0{fill:#F0F7F6;}
	.st1{opacity:0.17;fill:#6EB7B4;}
	.st2{fill:#3D7F7A;}
	.st3{fill:#98D4D4;}
	.st4{fill:#6EB7B4;}
	.st5{fill:#154651;}
	.st6{fill:none;stroke:#98D4D4;stroke-width:4.0439;stroke-miterlimit:10;}
</style>
<g>
	<circle class="st0" cx="195" cy="194" r="168"/>
	<path class="st1" d="M362.4,210.5C355,295.5,282.2,362,195,362c-87,0-158.5-66.1-167.1-150.8C27.3,205.5,362.9,205.1,362.4,210.5z"
		/>
	<path class="st2" d="M132.2,210.2v-11.7c0,0-0.7-5.5,9.9-5.5c11.2-0.1,100.6-0.5,100.6-0.5s9.1-0.5,9.4,5.2c0.3,6.2,0,12.6,0,12.6
		S132.6,209.9,132.2,210.2z"/>
	<polygon class="st3" points="132.4,209 108.8,295.9 273.8,295.9 252,209 	"/>
	<path class="st4" d="M295.7,81.7"/>
	<g>
		<path class="st5" d="M32.5,160l10.2-0.6l10.2-0.4l20.5-0.9l20.5-0.6c6.8-0.2,13.6-0.3,20.5-0.5l10.2-0.2l10.2-0.1l20.5-0.3
			l40.9-0.2l40.9,0.2c13.6,0.2,27.3,0.3,40.9,0.7c13.6,0.3,27.3,0.7,40.9,1.1l20.5,0.9l10.2,0.4L360,160v0.5l-163.8,0.2l-163.8-0.2
			V160z"/>
	</g>
	<g>
		<path class="st5" d="M30.4,179.9l10.4-0.6l10.4-0.4l20.7-0.9l20.7-0.6c6.9-0.2,13.8-0.3,20.7-0.5l10.4-0.2l10.4-0.1l20.7-0.3
			l41.5-0.2l41.5,0.2c13.8,0.2,27.7,0.3,41.5,0.7c13.8,0.3,27.7,0.7,41.5,1.1l20.7,0.9l10.4,0.4l10.4,0.6v0.5l-165.9,0.2l-165.9-0.2
			V179.9z"/>
	</g>
	<g>
		<path class="st5" d="M31.2,210l10.3-0.6l10.3-0.4l20.6-0.9l20.6-0.6c6.9-0.2,13.7-0.3,20.6-0.5l10.3-0.2l10.3-0.1l20.6-0.3
			l41.2-0.2l41.2,0.2c13.7,0.2,27.5,0.3,41.2,0.7c13.7,0.3,27.5,0.7,41.2,1.1l20.6,0.9l10.3,0.4l10.3,0.6v0.5l-164.9,0.2l-164.9-0.2
			V210z"/>
	</g>
	<g>
		<path class="st5" d="M74.1,209.2c-0.5-2.6-0.9-5.2-1.3-7.8c-0.3-2.6-0.7-5.2-0.9-7.8c-0.3-2.6-0.5-5.2-0.7-7.8
			c-0.2-2.6-0.4-5.2-0.5-7.8l0-0.7l0.4-0.9l3.7-8.3l3.9-8.2l1-2l1-2l2.1-4l2.1-4c0.7-1.3,1.5-2.6,2.2-4c2.9-5.3,5.9-10.5,9.1-15.7
			l2.4-3.8l2.5-3.8c1.7-2.5,3.5-5,5.3-7.5l0.4,0.2l-16,32.5l-8,16.2L74.6,178l0-0.2l-0.1,31.3H74.1z"/>
	</g>
	<g>
		<path class="st5" d="M311.2,209.2c-0.6-2.5-1-5-1.4-7.6l-0.6-3.8l-0.4-3.8c-0.3-2.5-0.5-5-0.7-7.6c-0.2-2.5-0.3-5-0.5-7.6l0.2,1.1
			l-1.3-3.5c-0.4-1.2-0.8-2.3-1.2-3.5c-0.8-2.3-1.6-4.7-2.3-7c-1.4-4.7-2.9-9.4-4.1-14.2l-0.9-3.6l-0.8-3.6
			c-0.6-2.4-1.1-4.8-1.6-7.3c-0.2-1.2-0.5-2.4-0.7-3.7l-0.6-3.7c-0.4-2.5-0.7-4.9-0.9-7.5l0.4-0.1l4.6,14.1l4.5,14.1l4.5,14.1
			l4.4,14.1l0,0.1l0,0.1l-0.1,15.1c0,5-0.1,10.1-0.1,15.1H311.2z"/>
	</g>
	<path class="st2" d="M140.9,218.4l-19.3,69.8l16.9-0.4l14.8-69.5C153.3,218.4,141.1,218.4,140.9,218.4z"/>
	<path class="st2" d="M162,218.8l-10.7,69.6h19.2l3.7-69.6C174.2,218.8,161.4,218.1,162,218.8z"/>
	<polygon class="st2" points="183.9,219.3 180.9,287.6 199.6,288.1 196.8,219.3 	"/>
	<polygon class="st2" points="207.2,219.5 213.8,288.4 231.9,287.9 219.9,218.7 	"/>
	<polygon class="st2" points="230,218.9 242.3,288.2 260.4,287.7 243.2,218.8 	"/>
	<line class="st6" x1="132.1" y1="231.7" x2="252.4" y2="231.7"/>
	<line class="st6" x1="132.1" y1="217.6" x2="252.4" y2="217.6"/>
	<line class="st6" x1="127" y1="245.7" x2="255.9" y2="245.7"/>
	<line class="st6" x1="127" y1="259.2" x2="255.9" y2="259.2"/>
	<line class="st6" x1="119.2" y1="272.9" x2="261.4" y2="272.9"/>
	<line class="st6" x1="115" y1="287.4" x2="263.7" y2="287.4"/>
</g>
</svg>
