<?xml version="1.0" encoding="utf-8"?>
<!-- Generator: Adobe Illustrator 21.1.0, SVG Export Plug-In . SVG Version: 6.00 Build 0)  -->
<svg version="1.1" id="Layer_1" xmlns="http://www.w3.org/2000/svg" xmlns:xlink="http://www.w3.org/1999/xlink" x="0px" y="0px"
	 viewBox="0 0 1565.4 419.5" style="enable-background:new 0 0 1565.4 419.5;" xml:space="preserve">
<style type="text/css">
	.st0{fill:#6EB7B4;}
	.st1{opacity:0.82;fill:#DD9797;enable-background:new    ;}
	.st2{opacity:0.25;}
	.st3{fill:#C3E6E6;}
</style>
<rect x="-31.6" y="-10.5" class="st0" width="1630.3" height="438.7"/>
<path class="st1" d="M144.6,114.9c0,0-3.2,14.7,14.4,30.6s-6.4,5.1-18.9,8c-12.5,2.9-16.6,5.1-26.8,0.9c-10.2-4.2-3.2,11.5,6,13.8
	s-0.6,2.9,25.2,1.6s22.3,6.4,21,13.1c-1.3,6.7-20.4,17.9-21.7,22.7c-1.3,4.8-5.1,24,7,12.8c12.1-11.1,21.4-5.4,24.3-17.6
	c2.9-12.1,3.5-22.7,9.3-18.2c5.7,4.5,18.9,23.3,28.1,25.2c9.3,1.9,12.5,3.5,3.2-6.4c-9.3-9.9-1.3-18.9-13.4-28.4
	c-12.1-9.6-10.5-13.4-1.9-14.4c8.6-0.9,12.5-6,23.7-4.8c11.1,1.3,19.5-0.3,8.3-6.4c-11.1-6-31.6-8.6-38.3-2.9
	c-6.7,5.7-9.6,3.2-13.1-3.5c-3.5-6.7-18.9-15.6-23.3-18.5C153.2,119.7,148.4,95.1,144.6,114.9z"/>
<g class="st2">
	<g>
		<path class="st3" d="M1338.8,183.5c0,0-7.2,3.2-2.6,15.9c4.6,12.7,0.9,19.8-3.1,24.2c-4.1,4.4-9.4-0.1-15.6-5.1
			c-6.3-5-14-5.9-17.1-1c-3.1,4.9,2.3,8.4,7,15.3c4.7,6.9,15.4,6.9,27.8,21.3c12.4,14.4,22.6,16.1,22.6,16.1
			c1.1-1.4,9.1,7,12.4,13.1c3.3,6,6.4,2.1,11.3-0.9c4.9-3,7.6-8.2,13.4-13.1c5.8-4.9,7.1-2.2,17.9-6.1c10.8-4,6.9-17.4,5.5-22.8
			c-1.4-5.4-21.6-21.1-24.9-24.3c-3.2-3.1-25.3-8.3-38.1-23.8C1342.5,177,1338.8,183.5,1338.8,183.5z M1314.4,221.1
			c2.3,1.5,4.8,10.7,3.3,13.2c-1.4,2.5-3.5-2.3-5.9-3.8c-2.4-1.6-5.6-2.7-6.8-4c-1.1-1.3-2.7-6.1-0.3-9
			C1307.1,214.8,1314.4,221.1,1314.4,221.1z M1345.9,195.6c-1.5,6.7-4,8.2-5.3,8.9c-1.3,0.6-1.6-5.7-3-8.4c-1.5-2.7,1.9-9,1.9-9
			c1.6-2.2,3.3-3.9,7.9,0.3C1352,191.4,1347.3,188.9,1345.9,195.6z"/>
	</g>
</g>
</svg>
