<?xml version="1.0" encoding="utf-8"?>
<!-- Generator: Adobe Illustrator 21.1.0, SVG Export Plug-In . SVG Version: 6.00 Build 0)  -->
<svg version="1.1" id="Layer_1" xmlns="http://www.w3.org/2000/svg" xmlns:xlink="http://www.w3.org/1999/xlink" x="0px" y="0px"
	 viewBox="0 0 1565.4 419.5" style="enable-background:new 0 0 1565.4 419.5;" xml:space="preserve">
<style type="text/css">
	.st0{fill:#98D4D4;}
	.st1{opacity:0.88;}
	.st2{fill:#C3E6E6;}
	.st3{opacity:0.73;fill:none;stroke:#6EB7B4;stroke-width:2.1889;stroke-miterlimit:10;enable-background:new    ;}
</style>
<rect x="-49" y="-12.4" class="st0" width="1668.7" height="446.2"/>
<g class="st1">
	<g>
		<path class="st2" d="M292,122.5c0,0-5.8-4.8-14.8,4.4c-9.1,9.3-16.7,9.1-22.1,7.4s-3.8-8.1-2.1-15.6c1.7-7.5-0.7-14.5-6.2-15.2
			c-5.4-0.6-6.3,5.6-10.4,12.4c-4,6.8,0.5,16.1-6.7,32.8s-4.5,26.2-4.5,26.2c1.6,0.4-2.2,10.8-6.1,16.1c-3.8,5.4,0.9,6.4,5.4,9.3
			c4.7,2.9,10.3,3.1,17,6.1c6.6,3,4.8,5.2,12.7,12.9c7.9,7.7,17.8-1.3,21.9-4.7c4.1-3.4,9.3-27.4,10.6-31.5
			c1.3-4.1-3.4-25.3,4.6-42.7C299,123,292,122.5,292,122.5z M249.5,117.2c-0.3,2.6-7.3,8.5-9.9,8.4c-2.8-0.1,0.4-4,0.7-6.7
			c0.3-2.7,0-6,0.6-7.5c0.5-1.5,4.3-4.9,7.6-4.1C251.7,108.3,249.5,117.2,249.5,117.2z M284.5,133.6c-6.3,1.5-8.8,0-9.8-0.9
			c-1.1-0.9,4.3-3.7,6-6.1c1.7-2.3,8.5-2.1,8.5-2.1c2.5,0.4,4.7,1.2,3.1,6.9C290.6,137.2,290.8,132.1,284.5,133.6z"/>
	</g>
</g>
<path class="st3" d="M1357.5,88.2l63.9,12.1c0,0,11.3,0.5,12.9,8.8c1.3,6.6-2.2,5.9-16.9,12.4c-16.9,7.5-91.5,40.6-91.5,40.6
	s-6.9,1.7-8.1-6c-1.4-9.1,3.4-11.9,9.3-21.1c5.9-9.3,27.7-43,27.7-43s3.7-7.5,4.3-15.2c0.5-8.3-0.4-11.4-3.5-14.6
	c-11.3-11.4-24.6,3.8-15.4,12.2"/>
</svg>
