<?xml version="1.0" encoding="utf-8"?>
<!-- Generator: Adobe Illustrator 21.1.0, SVG Export Plug-In . SVG Version: 6.00 Build 0)  -->
<svg version="1.1" id="Layer_1" xmlns="http://www.w3.org/2000/svg" xmlns:xlink="http://www.w3.org/1999/xlink" x="0px" y="0px"
	 viewBox="0 0 1565.4 419.5" style="enable-background:new 0 0 1565.4 419.5;" xml:space="preserve">
<style type="text/css">
	.st0{fill:#154651;}
	.st1{opacity:0.3;}
	.st2{fill:#6EB7B4;}
	.st3{opacity:0.19;fill:#E4DACC;}
	.st4{opacity:0.1;fill:none;stroke:#6EB7B4;stroke-width:2.2614;stroke-miterlimit:10;}
</style>
<rect x="1" y="1.5" class="st0" width="1564.8" height="417.9"/>
<g class="st1">
	<path class="st2" d="M829.2,255.1c1.8-5,3.2-13.5-2.7-18c-5.9-4.5-12.8,7-17.3,14.4c-4.5,7.4-12.2,5.6-7.2-1.2
		c5-6.8,19.2-18.2,16-25c-3.2-6.8-4.3,0.7-9.8-1.7c-5.5-2.4-13.9,5.1-15.5,7c-1.6,1.9-12.5,6.6-21.3,10
		c-8.7,3.5-19.3,18.4-19.3,18.4s-7.5,5.7-15.5,12.9c-7.9,7.2,0.1,18.9-3.2,22.1c-3.3,3.2,6.3,13.8,9.8,19.4
		c3.5,5.5,12.1,4.9,26.1,10.2c14,5.3,19.6-14.7,22.6-21.2c3.1-6.5,12.9-10.8,23.8-20.2C826.5,272.8,827.4,260.1,829.2,255.1z
		 M790.3,246c-6.5-4.5-5.2-3.4-0.2-9.6c4.9-6.2,9-7.1,12.3-9.4c3.3-2.3,12.8-0.2,12.8-0.2c3.7,3-6.3,11-11.3,16.8
		C798.9,249.6,796.8,250.5,790.3,246z M820.3,263.8c-3.3,2-2.8-3.3-3-11.7c-0.2-8.4,0.2-9.2,0.2-9.2s1.3-2.9,4.4-3.9
		c5.3-1.9,5.6,0.6,6.8,7.9S823.6,261.8,820.3,263.8z"/>
</g>
<path class="st3" d="M155,199.4c4.4,0.9,19.2,8.9,16,20.2c-3.2,11.5,19,29.6,30.4,42.2s5.2,14.2,5.2,14.2s-3.9,5.2-12.4-8.6
	c-8.5-13.8-23.5-40.4-32-39.4c-11.3,1.4-18.2-10.2-18.4-19.4C143.5,196.9,146.2,197.6,155,199.4z"/>
<path class="st4" d="M1184.3,59.4l44.8,50c0,0,9,7.5,5.1,15.3c-3.1,6.3-5.6,3.4-21.6-0.4c-18.6-4.4-100.6-24.1-100.6-24.1
	s-6.8-2.9-2.9-10c4.6-8.3,10.3-7.6,20.9-11.5s49.7-18,49.7-18s7.8-3.8,13-9.8c5.7-6.5,6.8-9.7,6.3-14.2
	c-2.1-16.5-22.5-12.3-20.3,0.4"/>
</svg>
