<?xml version="1.0" encoding="utf-8"?>
<!-- Generator: Adobe Illustrator 21.1.0, SVG Export Plug-In . SVG Version: 6.00 Build 0)  -->
<svg version="1.1" id="Layer_1" xmlns="http://www.w3.org/2000/svg" xmlns:xlink="http://www.w3.org/1999/xlink" x="0px" y="0px"
	 viewBox="0 0 1604.2 448.6" style="enable-background:new 0 0 1604.2 448.6;" xml:space="preserve">
<style type="text/css">
	.st0{fill:#154651;}
	.st1{opacity:0.3;}
	.st2{fill:#6EB7B4;}
	.st3{opacity:0.19;fill:#E4DACC;}
	.st4{opacity:0.1;fill:none;stroke:#6EB7B4;stroke-width:2.3164;stroke-miterlimit:10;}
</style>
<rect x="-5.7" y="-3.8" class="st0" width="1619.5" height="452.3"/>
<g class="st1">
	<path class="st2" d="M958.9,337.2c1.8-5.1,3.3-13.9-2.8-18.4s-13.1,7.2-17.7,14.7c-4.6,7.6-12.5,5.8-7.4-1.2
		c5.1-6.9,19.7-18.6,16.4-25.6c-3.3-7-4.4,0.8-10.1-1.7c-5.6-2.5-14.3,5.2-15.9,7.2c-1.6,2-12.8,6.7-21.8,10.3s-19.8,18.8-19.8,18.8
		s-7.7,5.8-15.9,13.2s0.1,19.4-3.3,22.6c-3.3,3.3,6.5,14.2,10,19.8s12.4,5.1,26.7,10.4c14.3,5.4,20-15,23.2-21.7
		c3.2-6.7,13.2-11,24.3-20.7C956.1,355.4,957,342.4,958.9,337.2z M919,327.9c-6.6-4.6-5.3-3.5-0.2-9.8c5.1-6.4,9.3-7.3,12.6-9.6
		s13.1-0.2,13.1-0.2c3.8,3-6.4,11.2-11.5,17.3C927.9,331.5,925.7,332.5,919,327.9z M949.8,346.1c-3.4,2-2.9-3.4-3.1-12
		c-0.2-8.6,0.2-9.4,0.2-9.4s1.3-2.9,4.5-4c5.5-1.9,5.7,0.6,6.9,8.1C959.5,336.2,953.2,344.1,949.8,346.1z"/>
</g>
<path class="st3" d="M159.4,223.2c4.5,1,19.6,9.1,16.4,20.7c-3.3,11.8,19.5,30.3,31.2,43.2c11.7,12.9,5.3,14.6,5.3,14.6
	s-4,5.3-12.7-8.8c-8.7-14.2-24.1-41.4-32.8-40.3c-11.6,1.4-18.7-10.4-18.9-19.9C147.6,220.6,150.4,221.3,159.4,223.2z"/>
<path class="st4" d="M1331.9,153.2l45.9,51.2c0,0,9.2,7.7,5.2,15.7c-3.2,6.4-5.7,3.5-22.1-0.4c-19-4.6-103-24.7-103-24.7
	s-6.9-3-2.9-10.3c4.7-8.5,10.5-7.8,21.4-11.8c10.9-4,50.9-18.4,50.9-18.4s7.9-3.9,13.3-10c5.8-6.7,7-9.9,6.4-14.6
	c-2.2-16.9-23.1-12.6-20.8,0.4"/>
</svg>
