<?xml version="1.0" encoding="utf-8"?>
<!-- Generator: Adobe Illustrator 21.1.0, SVG Export Plug-In . SVG Version: 6.00 Build 0)  -->
<svg version="1.1" id="Layer_1" xmlns="http://www.w3.org/2000/svg" xmlns:xlink="http://www.w3.org/1999/xlink" x="0px" y="0px"
	 viewBox="0 0 1565.4 382.4" style="enable-background:new 0 0 1565.4 382.4;" xml:space="preserve">
<style type="text/css">
	.st0{fill:#F0F7F6;}
	.st1{opacity:0.2;fill:none;stroke:#6EB7B4;stroke-width:2.0767;stroke-miterlimit:10;enable-background:new    ;}
	.st2{opacity:0.48;}
	.st3{fill:#98D4D4;}
	.st4{opacity:0.66;}
	.st5{fill:#154651;}
	.st6{opacity:0.58;}
	.st7{fill:#C3E6E6;}
</style>
<rect x="-0.8" y="-2.8" transform="matrix(1 -3.103869e-03 3.103869e-03 1 -0.5881 2.4327)" class="st0" width="1568.5" height="387"/>
<path class="st1" d="M107.9,107.7l-41.2,45.9c0,0-8.3,6.9-4.7,14.1c2.9,5.8,5.1,3.2,19.9-0.4c17-4.1,92.4-22.1,92.4-22.1
	s6.2-2.7,2.6-9.2c-4.2-7.6-9.4-7-19.2-10.5c-9.8-3.6-45.6-16.5-45.6-16.5s-7.1-3.5-11.9-9c-5.2-6-6.3-8.9-5.7-13.1
	c1.9-15.2,20.7-11.3,18.6,0.3"/>
<g class="st2">
	<g>
		<path class="st3" d="M1405.4,239.7c0,0,0.2-9.2,9.8-9.2c9.6,0,15-3.5,24.4-0.8s27.6-0.4,27.8,3.1c0.2,3.5-13.4,14.2-13.4,14.2
			L1405.4,239.7z"/>
		<path class="st3" d="M1440.9,266.1c0,0,13.8,6.7,23.3,1.5s-13.5-8.6-13.5-8.6L1440.9,266.1z"/>
		<path class="st3" d="M1385.7,248.2c3.5-1.7,7.2-6.1,13.8-7.2c6.7-1.1,26.4-6.4,43.1-2.9c16.8,3.5,30.3,10.4,40.7,1.3
			c10.4-9.1,6.7-9.6,10.4-9.1c3.7,0.5-4.8,8.8-3.5,16.8s9.6,10.1,7.5,15.2s-11.2-8.3-17.3-8.5c-6.1-0.3-10.6-0.5-21.8,6.9
			s-33.8,13-63.1,3.2c0,0-12.8-3.7-16.2-2.1c-3.5,1.6-6.1-4,6.1-5.1c0,0-10.2-1-7.2-4C1380.4,250.6,1383.7,249.1,1385.7,248.2z"/>
		<g class="st4">
			
				<ellipse transform="matrix(0.9597 -0.2812 0.2812 0.9597 -13.276 403.4574)" class="st5" cx="1399.3" cy="248" rx="2.2" ry="1.4"/>
		</g>
		<path class="st3" d="M1391.5,262.8c0,0,24.3,8.6,38.7,6.6c14.4-2,16.1-1.3,27.4-8c10.3-6.1,15.3-7.4,15.3-7.4s-32.3,8.8-44.2,6.5
			C1416.9,258.3,1393.8,259.2,1391.5,262.8z"/>
	</g>
</g>
<g class="st6">
	<g>
		<path class="st7" d="M425.1,208.8c0,0-3.6-5.6-13.7-0.2c-10.1,5.4-16.5,3.2-20.6,0.4c-4.2-2.9-1.1-7.9,2.4-13.8
			c3.4-5.9,3.2-12.5-1.2-14.5s-6.8,3-12,7.7c-5.2,4.7-3.9,13.8-14.4,25.9c-10.5,12.1-10.8,21-10.8,21c1.2,0.8-4.8,8.5-9.5,12
			c-4.7,3.5-1,5.6,2.2,9.3c3.2,3.7,7.9,5.4,12.7,9.7c4.8,4.2,2.7,5.7,7.3,14.3c4.7,8.6,15.4,3.6,19.7,1.8
			c4.4-1.8,15.2-20.7,17.4-23.9c2.2-3.2,3.9-22.3,15.3-34.9C431,211.1,425.1,208.8,425.1,208.8z M390.6,192.9
			c-0.9,2.1-8.4,5.4-10.7,4.5c-2.3-0.9,1.5-3.2,2.5-5.4c1-2.2,1.6-5,2.5-6.1c0.9-1.1,4.9-3,7.5-1.4
			C394.9,186,390.6,192.9,390.6,192.9z M415.8,216.2c-5.8-0.4-7.4-2.4-8.1-3.3c-0.7-1,4.7-2,6.8-3.5c2.1-1.5,7.8,0.5,7.8,0.5
			c2,1.1,3.7,2.3,0.7,6.7C420.1,220.9,421.6,216.6,415.8,216.2z"/>
	</g>
</g>
</svg>
