<?xml version="1.0" encoding="utf-8"?>
<!-- Generator: Adobe Illustrator 21.1.0, SVG Export Plug-In . SVG Version: 6.00 Build 0)  -->
<svg version="1.1" id="Layer_1" xmlns="http://www.w3.org/2000/svg" xmlns:xlink="http://www.w3.org/1999/xlink" x="0px" y="0px"
	 viewBox="0 0 1779 820" style="enable-background:new 0 0 1779 820;" xml:space="preserve">
<style type="text/css">
	.st0{fill:#E2F2F0;}
	.st1{fill:#FFFFFF;}
	.st2{fill:#D07975;}
	.st3{opacity:0.14;}
</style>
<rect x="-4" y="-4" class="st0" width="1779" height="826"/>
<rect x="435.9" y="252" class="st1" width="898.4" height="244"/>
<g>
	<circle class="st2" cx="399.1" cy="234.4" r="51.8"/>
	<g>
		<g>
			<path class="st2" d="M396.9,173.3c-0.9-1.3-1.7-2.6-2.4-3.9c-0.7-1.3-1.3-2.6-1.8-3.9c-1.1-2.6-1.9-5.2-2.5-7.7
				c-1.2-5.2-1.8-10.3-1.8-15.5c0-5.2,0.6-10.3,1.8-15.5c0.6-2.6,1.4-5.2,2.5-7.7c1.1-2.6,2.3-5.2,4.2-7.7h1l0.2,7.7l0.1,7.7
				c0.1,5.2,0.1,10.3,0.1,15.5c0,5.2,0,10.3-0.1,15.5l-0.1,7.7l-0.2,7.7H396.9z"/>
			<path class="st2" d="M429,176.7c-0.2-1.8-0.3-3.5-0.3-5.1c0-1.7,0.1-3.3,0.2-4.9c0.3-3.2,0.8-6.3,1.5-9.3
				c1.4-6,3.3-11.8,5.8-17.3c2.5-5.5,5.5-10.8,9.2-15.8c1.8-2.5,3.8-4.9,6-7.2c2.2-2.3,4.6-4.6,7.5-6.6l0.9,0.4l-3.5,8.4l-3.6,8.3
				c-2.4,5.5-4.9,11.1-7.4,16.6c-2.5,5.5-5,11-7.6,16.5l-3.9,8.2l-4,8.2L429,176.7z"/>
			<path class="st2" d="M453.2,195.7c0.8-1.4,1.7-2.6,2.6-3.7c0.9-1.1,1.9-2.2,2.8-3.2c1.9-2,4-3.8,6.1-5.4
				c4.2-3.2,8.7-5.8,13.4-7.9c4.7-2.1,9.7-3.6,14.9-4.5c2.6-0.4,5.3-0.7,8.1-0.8c2.8,0,5.6,0.1,8.7,0.7l0.4,0.9l-7,3.3l-7,3.2
				c-4.7,2.1-9.4,4.2-14.1,6.3c-4.7,2-9.5,4.1-14.2,6.1l-7.1,3l-7.2,2.9L453.2,195.7z"/>
			<path class="st2" d="M463,226.5c1.5-0.9,3-1.7,4.6-2.3c1.5-0.7,3-1.2,4.6-1.7c3-1,6.1-1.8,9.1-2.4c6.1-1.2,12.1-1.7,18.2-1.6
				c6.1,0.1,12.1,0.7,18.1,2.1c3,0.7,6,1.5,9,2.6c3,1.1,6,2.4,9,4.3l0,1l-9.1,0.1l-9.1,0c-6.1,0-12.1-0.1-18.2-0.1
				c-6.1-0.1-12.1-0.2-18.2-0.4l-9.1-0.3l-9.1-0.4L463,226.5z"/>
			<path class="st2" d="M458.1,260.9c1.6-0.3,3-0.5,4.5-0.6c1.5-0.1,2.9-0.1,4.3-0.1c2.8,0.1,5.5,0.4,8.1,0.9
				c5.2,1,10.1,2.6,14.8,4.7c4.7,2.1,9.2,4.8,13.3,8c2.1,1.6,4.1,3.4,6,5.5c1.9,2,3.8,4.2,5.3,7l-0.4,0.9l-7.1-2.9l-7.1-3
				c-4.7-2-9.4-4.2-14.1-6.2c-4.7-2.1-9.4-4.3-14-6.4l-7-3.3l-6.9-3.4L458.1,260.9z"/>
			<path class="st2" d="M441.9,288.9c1.7,0.5,3.3,1.1,4.8,1.8c1.5,0.7,2.9,1.4,4.4,2.2c2.8,1.6,5.4,3.3,7.9,5.2
				c4.9,3.7,9.4,7.9,13.4,12.4c4,4.5,7.6,9.5,10.6,14.8c1.5,2.7,2.9,5.5,4.1,8.5c1.2,3,2.3,6.1,2.9,9.6l-0.7,0.7l-6.2-6.6l-6.1-6.7
				c-4.1-4.5-8.1-9-12.1-13.5c-4-4.6-8-9.1-11.9-13.7l-5.9-6.9l-5.8-7L441.9,288.9z"/>
			<path class="st2" d="M416.6,301.1c0.9,1.3,1.7,2.6,2.3,3.9c0.7,1.3,1.2,2.6,1.8,3.9c1,2.6,1.8,5.2,2.4,7.8
				c1.2,5.2,1.7,10.3,1.7,15.5c-0.1,5.2-0.7,10.3-2,15.4c-0.7,2.6-1.5,5.1-2.6,7.7c-1.1,2.6-2.4,5.1-4.2,7.7l-1,0l-0.2-7.7l-0.1-7.7
				c0-5.2,0-10.3,0-15.5c0.1-5.2,0.1-10.3,0.3-15.5l0.2-7.7l0.3-7.7L416.6,301.1z"/>
			<path class="st2" d="M385.5,298.5c0.2,1.8,0.3,3.5,0.2,5.1c0,1.7-0.1,3.3-0.3,4.9c-0.3,3.2-0.9,6.3-1.6,9.3
				c-1.4,6-3.5,11.7-6,17.2c-2.6,5.5-5.6,10.7-9.3,15.7c-1.9,2.5-3.9,4.9-6.1,7.2c-2.3,2.3-4.6,4.5-7.6,6.5l-0.9-0.4l3.6-8.3
				l3.7-8.3c2.5-5.5,5-11,7.6-16.5c2.6-5.5,5.1-11,7.8-16.4l4-8.2l4.1-8.1L385.5,298.5z"/>
			<path class="st2" d="M341.8,262.4c-0.7,1.4-1.6,2.7-2.4,3.8c-0.9,1.2-1.8,2.3-2.7,3.3c-1.8,2.1-3.8,3.9-5.8,5.7
				c-4.1,3.4-8.4,6.2-13.1,8.4c-4.6,2.3-9.5,4-14.7,5.2c-2.6,0.6-5.3,1-8,1.2c-2.8,0.2-5.6,0.2-8.8-0.3l-0.4-0.9l6.8-3.6l6.9-3.5
				c4.6-2.3,9.2-4.6,13.8-6.9c4.6-2.2,9.3-4.5,13.9-6.7l7-3.3l7-3.2L341.8,262.4z"/>
			<path class="st2" d="M334.6,232.1c-1.5,1-3,1.8-4.5,2.5c-1.5,0.7-3,1.4-4.5,1.9c-3,1.2-6,2-9,2.8c-6,1.4-12,2.2-18.1,2.4
				c-6,0.2-12.1-0.2-18.2-1.3c-3-0.6-6.1-1.3-9.2-2.2c-3.1-1-6.1-2.1-9.2-3.9l0-1l9.1-0.5l9.1-0.4c6-0.3,12.1-0.5,18.1-0.7
				c6-0.2,12.1-0.3,18.1-0.5l9.1-0.1l9.1,0L334.6,232.1z"/>
			<path class="st2" d="M341,204c-1.6-0.1-3.1-0.4-4.5-0.7c-1.4-0.3-2.8-0.7-4.1-1.1c-2.7-0.9-5.1-1.9-7.5-3.1
				c-4.7-2.4-9-5.3-13-8.6c-3.9-3.3-7.5-7.1-10.6-11.4c-1.5-2.2-3-4.4-4.3-6.9c-1.3-2.5-2.4-5.1-3.2-8.2l0.6-0.8l6.1,4.8l6,4.9
				c4,3.3,7.9,6.6,11.9,9.9c3.9,3.4,7.8,6.7,11.7,10.1l5.8,5.1l5.7,5.2L341,204z"/>
			<path class="st2" d="M364.3,181.6c-1.5-1-2.8-2-4.1-3.1c-1.3-1.1-2.4-2.2-3.6-3.3c-2.3-2.3-4.3-4.7-6.2-7.1
				c-3.7-4.9-6.8-10.1-9.4-15.6c-2.6-5.5-4.7-11.2-6.1-17.2c-0.7-3-1.3-6.1-1.6-9.3c-0.3-3.2-0.5-6.5-0.1-10l0.9-0.4l4.1,8.1l4,8.1
				c2.7,5.4,5.3,10.9,7.9,16.3c2.6,5.5,5.2,10.9,7.7,16.4l3.8,8.3l3.7,8.3L364.3,181.6z"/>
			<path class="st2" d="M361,288c-0.3,1.6-0.7,3-1.2,4.4c-0.5,1.4-1,2.7-1.5,4c-1.1,2.5-2.4,4.9-3.9,7.1c-2.9,4.5-6.2,8.4-9.9,12
				c-3.7,3.5-7.9,6.7-12.5,9.3c-2.3,1.3-4.7,2.5-7.3,3.5c-2.6,1-5.3,1.9-8.5,2.3l-0.7-0.7l5.4-5.5l5.5-5.4
				c3.7-3.6,7.4-7.2,11.1-10.7c3.8-3.5,7.5-7.1,11.3-10.6l5.7-5.2l5.8-5.2L361,288z"/>
		</g>
	</g>
	<g class="st3">
		<g>
			<path class="st2" d="M378.8,176.5c-1.2-1-2.4-2-3.4-3c-1-1-1.9-2.1-2.8-3.2c-1.7-2.2-3.2-4.4-4.6-6.7c-2.6-4.6-4.6-9.4-6.1-14.3
				c-1.4-4.9-2.3-10.1-2.6-15.3c-0.1-2.7-0.1-5.3,0.2-8.1c0.3-2.8,0.8-5.6,1.8-8.6l1-0.3l2.4,7.3l2.3,7.4c1.5,4.9,3,9.9,4.5,14.8
				c1.4,5,2.9,9.9,4.2,14.9l2,7.5l1.9,7.5L378.8,176.5z"/>
			<path class="st2" d="M410.6,170.6c-0.7-1.6-1.3-3.2-1.7-4.8c-0.5-1.6-0.8-3.2-1.2-4.7c-0.6-3.1-1-6.3-1.2-9.3
				c-0.4-6.2-0.1-12.2,0.7-18.2c0.9-6,2.3-11.9,4.4-17.7c1.1-2.9,2.3-5.8,3.7-8.6c1.5-2.8,3.1-5.7,5.4-8.4l1,0.1l-1,9l-1.1,9
				c-0.8,6-1.6,12-2.4,18c-0.9,6-1.7,12-2.7,18l-1.4,9l-1.5,9L410.6,170.6z"/>
			<path class="st2" d="M439.1,182.1c0.4-1.5,0.9-3,1.4-4.3c0.5-1.4,1.2-2.6,1.8-3.9c1.3-2.5,2.8-4.7,4.3-6.9
				c3.1-4.3,6.7-8,10.7-11.3c4-3.3,8.3-6.2,13-8.5c2.4-1.2,4.9-2.2,7.5-3c2.7-0.8,5.4-1.5,8.6-1.8l0.6,0.8l-5.8,5.1l-5.8,5.1
				c-3.9,3.4-7.8,6.7-11.8,10c-4,3.3-7.9,6.6-11.9,9.8l-6,4.9l-6.1,4.8L439.1,182.1z"/>
			<path class="st2" d="M457.2,208.9c1.2-1.3,2.5-2.5,3.7-3.5c1.3-1.1,2.6-2,3.9-3c2.6-1.8,5.3-3.4,8.1-4.9c5.5-2.8,11.2-5,17-6.6
				c5.8-1.6,11.8-2.7,18-3.1c3.1-0.2,6.2-0.2,9.4,0c3.2,0.2,6.4,0.6,9.9,1.6l0.3,1l-8.7,2.7l-8.7,2.6c-5.8,1.7-11.6,3.3-17.5,5
				c-5.8,1.6-11.7,3.2-17.5,4.8l-8.8,2.3l-8.8,2.2L457.2,208.9z"/>
			<path class="st2" d="M462.2,243.3c1.4-0.7,2.8-1.3,4.2-1.8c1.4-0.5,2.7-0.9,4.1-1.3c2.7-0.7,5.4-1.1,8-1.4
				c5.3-0.5,10.5-0.4,15.6,0.3c5.1,0.7,10.1,2,15.1,3.9c2.5,1,4.9,2.1,7.3,3.5c2.4,1.4,4.8,3,7.1,5.2l-0.1,1l-7.7-0.8l-7.7-0.9
				c-5.1-0.6-10.2-1.3-15.3-2c-5.1-0.7-10.2-1.4-15.3-2.2l-7.6-1.2l-7.6-1.3L462.2,243.3z"/>
			<path class="st2" d="M454.5,274.7c1.8,0,3.5,0.2,5.1,0.4c1.6,0.2,3.2,0.5,4.8,0.9c3.1,0.7,6.1,1.7,9,2.7
				c5.8,2.2,11.2,4.9,16.3,8.2c5.1,3.2,9.9,7,14.4,11.2c2.2,2.2,4.3,4.5,6.3,7c2,2.5,3.9,5.2,5.5,8.4l-0.5,0.8l-7.8-4.6l-7.8-4.7
				c-5.2-3.2-10.3-6.4-15.4-9.6c-5.1-3.3-10.2-6.5-15.3-9.8l-7.6-5l-7.5-5.1L454.5,274.7z"/>
			<path class="st2" d="M432.3,296c1.2,1,2.3,2,3.3,3.1c1,1.1,1.9,2.1,2.8,3.2c1.7,2.2,3.2,4.5,4.5,6.8c2.6,4.6,4.6,9.4,5.9,14.4
				c1.4,5,2.2,10.1,2.4,15.4c0.1,2.7,0,5.3-0.3,8.1c-0.3,2.8-0.8,5.6-1.9,8.6l-1,0.3l-2.3-7.4l-2.2-7.4c-1.5-4.9-2.9-9.9-4.3-14.8
				c-1.4-5-2.8-9.9-4.1-14.9l-2-7.5l-1.9-7.5L432.3,296z"/>
			<path class="st2" d="M400.5,301.6c0.7,1.6,1.2,3.2,1.7,4.8c0.5,1.6,0.8,3.2,1.1,4.8c0.6,3.2,0.9,6.3,1.1,9.3
				c0.3,6.2,0,12.2-0.9,18.2c-0.9,6-2.4,11.9-4.5,17.7c-1.1,2.9-2.3,5.8-3.8,8.6c-1.5,2.8-3.2,5.6-5.5,8.4l-1-0.1l1.1-9l1.2-9
				c0.8-6,1.7-12,2.6-18c0.9-6,1.9-12,2.8-17.9l1.5-9l1.6-8.9L400.5,301.6z"/>
			<path class="st2" d="M348.4,276.2c-0.3,1.5-0.7,3-1.2,4.4c-0.5,1.4-1,2.7-1.6,3.9c-1.2,2.5-2.5,4.9-4,7.1
				c-3,4.4-6.4,8.3-10.2,11.8c-3.8,3.5-8,6.5-12.6,9.1c-2.3,1.3-4.8,2.4-7.4,3.4c-2.6,0.9-5.4,1.8-8.5,2.2l-0.7-0.7l5.5-5.4l5.6-5.3
				c3.7-3.5,7.5-7,11.3-10.5c3.8-3.5,7.6-6.9,11.5-10.4l5.8-5.1l5.9-5L348.4,276.2z"/>
			<path class="st2" d="M335.1,246.3c-1.2,1.3-2.3,2.6-3.6,3.7c-1.2,1.1-2.5,2.1-3.8,3.1c-2.5,2-5.2,3.7-7.8,5.2
				c-5.4,3.1-10.9,5.5-16.7,7.4c-5.8,1.9-11.7,3.2-17.8,3.9c-3.1,0.3-6.2,0.5-9.4,0.4c-3.2-0.1-6.5-0.3-9.9-1.1l-0.3-0.9l8.6-3.1
				l8.6-3c5.7-2,11.5-3.8,17.2-5.8c5.8-1.8,11.5-3.7,17.3-5.5l8.7-2.7l8.7-2.6L335.1,246.3z"/>
			<path class="st2" d="M333.8,221.6c-1.6,0.3-3,0.5-4.5,0.6c-1.5,0.1-2.9,0.1-4.3,0.1c-2.8-0.1-5.5-0.4-8.1-0.8
				c-5.2-0.9-10.2-2.5-14.9-4.6c-4.7-2.1-9.2-4.7-13.4-7.9c-2.1-1.6-4.1-3.4-6.1-5.4c-1.9-2-3.8-4.2-5.4-6.9l0.4-0.9l7.2,2.9l7.1,3
				c4.7,2,9.5,4.1,14.2,6.1c4.7,2.1,9.4,4.2,14.1,6.4l7,3.3l7,3.3L333.8,221.6z"/>
			<path class="st2" d="M349.9,193.6c-1.7-0.5-3.3-1.1-4.8-1.8c-1.5-0.7-3-1.4-4.4-2.2c-2.8-1.5-5.4-3.3-7.9-5.1
				c-5-3.7-9.4-7.8-13.4-12.3c-4-4.5-7.6-9.4-10.7-14.8c-1.5-2.7-3-5.5-4.2-8.4c-1.2-3-2.3-6.1-2.9-9.5l0.7-0.7l6.2,6.6l6.2,6.7
				c4.1,4.5,8.1,9,12.2,13.5c4,4.5,8,9.1,12,13.6l5.9,6.9l5.9,6.9L349.9,193.6z"/>
			<path class="st2" d="M370.6,295.6c0.2,1.6,0.2,3.1,0.1,4.5c0,1.5-0.2,2.9-0.4,4.2c-0.4,2.8-1,5.4-1.7,7.9
				c-1.5,5.1-3.6,9.8-6.2,14.3c-2.6,4.5-5.7,8.6-9.3,12.5c-1.9,1.9-3.8,3.7-6,5.4c-2.2,1.7-4.6,3.3-7.5,4.6l-0.9-0.5l3.7-6.8
				l3.7-6.8c2.5-4.5,5.1-9,7.6-13.4c2.6-4.4,5.2-8.9,7.8-13.3l4-6.6l4.1-6.6L370.6,295.6z"/>
		</g>
	</g>
</g>
</svg>
