<?xml version="1.0" encoding="utf-8"?>
<!-- Generator: Adobe Illustrator 21.1.0, SVG Export Plug-In . SVG Version: 6.00 Build 0)  -->
<svg version="1.1" id="Layer_1" xmlns="http://www.w3.org/2000/svg" xmlns:xlink="http://www.w3.org/1999/xlink" x="0px" y="0px"
	 viewBox="0 0 1542 186" style="enable-background:new 0 0 1542 186;" xml:space="preserve">
<style type="text/css">
	.st0{clip-path:url(#SVGID_2_);fill:#276A75;}
	.st1{clip-path:url(#SVGID_2_);}
	.st2{clip-path:url(#SVGID_4_);fill:#154651;}
	.st3{fill:#6EB7B4;}
	.st4{clip-path:url(#SVGID_2_);fill:#154651;}
	.st5{clip-path:url(#SVGID_6_);fill:#154651;}
</style>
<title>Artboard 1</title>
<g>
	<defs>
		<rect id="SVGID_1_" x="0.2" y="-0.2" width="1546.5" height="188.4"/>
	</defs>
	<clipPath id="SVGID_2_">
		<use xlink:href="#SVGID_1_"  style="overflow:visible;"/>
	</clipPath>
	<rect x="-6.1" y="-4.4" class="st0" width="1389.8" height="162.7"/>
	<g class="st1">
		<defs>
			
				<rect id="SVGID_3_" x="521.8" y="-565.7" transform="matrix(3.210963e-03 -1 1 3.210963e-03 564.9728 748.4882)" width="272.2" height="1313"/>
		</defs>
		<clipPath id="SVGID_4_">
			<use xlink:href="#SVGID_3_"  style="overflow:visible;"/>
		</clipPath>
		<path class="st2" d="M-16,141c0,0,100.2,0.4,90.2-43.4c-10.5-46-60.8-18.5-58.8,2.3c0,0-17.7-51.2,37.7-75.4
			c74.5-32.5,150.8,59.5,94.5,126C83.7,226.1-16,141-16,141z"/>
		<path class="st2" d="M155.3,141.8c0,0,100.2,0.4,90.2-43.4c-10.5-46-60.8-18.5-58.8,2.3c0,0-17.7-51.2,37.7-75.4
			C299-7.1,375.3,84.9,319,151.4C255,226.9,155.3,141.8,155.3,141.8z"/>
		<path class="st2" d="M325.4,141.8c0,0,100.2,0.4,90.2-43.4c-10.5-46-60.8-18.5-58.8,2.3c0,0-17.7-51.2,37.7-75.4
			c74.5-32.5,150.8,59.5,94.5,126C425.1,226.9,325.4,141.8,325.4,141.8z"/>
		<path class="st2" d="M496.4,141.8c0,0,100.2,0.4,90.2-43.4c-10.5-46-60.8-18.5-58.8,2.3c0,0-17.7-51.2,37.7-75.4
			C640-7.1,716.3,84.9,660,151.4C596.1,226.9,496.4,141.8,496.4,141.8z"/>
		<path class="st2" d="M666.5,141.8c0,0,100.2,0.4,90.2-43.4c-10.5-46-60.8-18.5-58.8,2.3c0,0-17.7-51.2,37.7-75.4
			c74.5-32.5,150.8,59.5,94.5,126C766.2,226.9,666.5,141.8,666.5,141.8z"/>
		<path class="st2" d="M835.7,141.8c0,0,100.2,0.4,90.2-43.4c-10.5-46-60.8-18.5-58.8,2.3c0,0-17.7-51.2,37.7-75.4
			c74.5-32.5,150.8,59.5,94.5,126C935.4,226.9,835.7,141.8,835.7,141.8z"/>
		<path class="st2" d="M1004.9,143.5c0,0,100.2,0.4,90.2-43.4c-10.5-46-60.8-18.5-58.8,2.3c0,0-17.7-51.2,37.7-75.4
			c74.5-32.5,150.8,59.5,94.5,126C1104.6,228.6,1004.9,143.5,1004.9,143.5z"/>
	</g>
	<g class="st1">
		<g>
			<path class="st3" d="M16.3,100c-0.8-1-1.1-2.2-1.5-3.3l-0.5-1.7L14,93.2c-0.4-2.4-0.7-4.8-0.8-7.2c-0.3-4.8,0-9.6,0.7-14.4
				c0.7-4.8,1.9-9.5,3.6-14.1c1.7-4.6,4-8.9,6.7-13c5.5-8.1,13.3-14.6,21.9-19.2c8.7-4.7,18.2-7.2,27.8-8.7c2.4-0.3,4.8-0.7,7.2-0.9
				c2.4-0.2,4.8-0.5,7.3-0.4c1.2,0,2.5,0,3.7,0l3.7,0.3c0.6,0.1,1.2,0.1,1.8,0.2l1.8,0.3c1.2,0.2,2.4,0.4,3.7,0.6
				c9.7,2.2,18.9,6.2,26.9,12c4.1,2.8,7.8,6.1,11.3,9.4c1.7,1.8,3.5,3.5,5,5.4c0.8,0.9,1.6,1.9,2.4,2.8l2.2,2.9c0.8,1,1.4,2,2.1,3
				c0.7,1,1.4,2,2,3.1l1.9,3.2c0.3,0.5,0.6,1,0.9,1.6l0.9,1.6l1.7,3.3l1.5,3.4l0.8,1.7l0.7,1.7c0.4,1.1,0.9,2.3,1.3,3.4
				c3.1,9.3,5.1,19.1,4.9,29c0.1,2.5-0.2,4.9-0.4,7.4c-0.1,1.2-0.4,2.5-0.5,3.7l-0.3,1.8c-0.1,0.6-0.3,1.2-0.4,1.8
				c-0.3,1.2-0.6,2.4-0.9,3.6l-1.2,3.6c-0.3,1.2-0.9,2.3-1.4,3.5l-0.7,1.7l-0.4,0.9l-0.4,0.8l-1.8,3.3c-0.6,1.1-1.3,2.1-2,3.2
				l-1,1.6c-0.4,0.5-0.7,1-1.1,1.5c-0.7,1-1.5,2-2.3,2.9c-1.5,1.9-3.2,3.8-4.9,5.5c-1.8,1.7-3.6,3.4-5.7,4.9
				c-2.1,1.5-4.2,2.8-6.6,3.9c-2.3,1-4.8,1.9-7.3,2.4c-5,1.1-10,1.2-14.8,1c-4.9-0.2-9.7-0.8-14.4-1.3l-14.2-1.7
				c-4.7-0.5-9.5-1-14.2-1.4c-4.7-0.4-9.4-0.4-14,0c-4.7,0.4-9.3,1.2-13.9,2.4c-4.5,1.2-9,2.9-13.3,4.9c-4.3,2-8.5,4.3-12.8,6.4
				c-2.2,1-4.4,2-6.8,2.5c-1.2,0.3-2.4,0.4-3.6,0.4c-1.2,0-2.4-0.3-3.6-0.8l0.1-0.3c1.1,0.4,2.3,0.6,3.4,0.6c1.2,0,2.4-0.2,3.5-0.5
				c2.3-0.6,4.5-1.6,6.6-2.7c4.2-2.2,8.4-4.6,12.7-6.6c4.3-2.1,8.8-3.9,13.3-5.2c4.6-1.3,9.3-2.3,14.1-2.7c9.6-1,19.1,0.2,28.6,1
				l14.2,1.5c4.7,0.5,9.5,1,14.3,1.1c4.8,0.2,9.5,0,14.2-1.1c2.3-0.5,4.6-1.3,6.7-2.3c2.2-1,4.2-2.2,6.1-3.6c1.9-1.4,3.7-3,5.4-4.7
				c1.6-1.7,3.3-3.5,4.7-5.3c0.8-0.9,1.5-1.9,2.2-2.8c0.4-0.5,0.7-1,1.1-1.4l1-1.5c0.6-1,1.3-2,1.9-3l1.7-3.2l0.4-0.8l0.3-0.8
				l0.7-1.6c0.4-1.1,1-2.2,1.3-3.3l1.1-3.4c0.3-1.2,0.5-2.3,0.8-3.5c0.1-0.6,0.3-1.2,0.4-1.7l0.3-1.8c0.2-1.2,0.4-2.3,0.5-3.5
				c0.2-2.4,0.4-4.7,0.3-7.1c0.1-9.5-1.8-19-4.9-28l-1.3-3.3l-0.6-1.7l-0.7-1.6l-1.5-3.3l-1.6-3.2l-0.8-1.6c-0.3-0.5-0.6-1-0.9-1.5
				l-1.8-3.1c-0.6-1-1.3-2-2-3c-0.7-1-1.3-2-2-2.9l-2.1-2.9c-0.7-0.9-1.5-1.8-2.3-2.7c-1.5-1.9-3.2-3.5-4.8-5.3
				c-3.4-3.3-7-6.5-10.9-9.2c-7.7-5.6-16.6-9.5-25.8-11.6c-1.2-0.2-2.3-0.4-3.5-0.6l-1.8-0.3c-0.6-0.1-1.2-0.1-1.8-0.2L92.1,18
				c-1.2-0.1-2.4,0-3.6,0c-2.4-0.1-4.8,0.2-7.1,0.3c-2.4,0.1-4.7,0.5-7.1,0.8c-9.4,1.3-18.8,3.7-27.2,8.1
				C38.5,31.5,31,37.7,25.5,45.5c-2.8,3.9-5,8.1-6.8,12.5c-1.8,4.4-3,9-3.8,13.7c-0.8,4.7-1.1,9.5-1,14.2c0,2.4,0.3,4.8,0.6,7.1
				l0.3,1.8l0.4,1.7c0.3,1.1,0.6,2.3,1.3,3.2L16.3,100z"/>
		</g>
		<g>
			<path class="st3" d="M29.6,61.4c2.6-5,6.6-9.2,11.1-12.7c4.5-3.4,9.6-6.3,15-8.2l1-0.4l1-0.3l2.1-0.6l2.1-0.6
				c0.7-0.2,1.4-0.3,2.1-0.5l4.2-0.9c1.4-0.2,2.8-0.3,4.2-0.5c2.8-0.4,5.7-0.4,8.5-0.5c2.9-0.1,5.8,0.1,8.7,0.5
				c1.4,0.2,2.9,0.5,4.3,0.8c1.4,0.4,2.8,0.7,4.2,1.2c2.8,0.9,5.5,2,8,3.4c5.2,2.6,10,5.9,14.4,9.6c8.8,7.4,16.2,16.6,21.2,27.1
				c2.5,5.3,4.3,10.9,5.1,16.8c0.4,2.9,0.5,5.9,0.3,8.9c-0.2,3-1,6-2.1,8.9c-1.2,2.8-2.9,5.5-4.8,7.8c-2,2.3-4.2,4.3-6.6,6.1
				c-2.5,1.7-5.1,3.1-7.9,4.2c-2.7,1.1-5.6,1.8-8.4,2.5c-5.6,1.2-11.3,1.8-16.9,2.1c-5.6,0.4-11.2,0.6-16.7,0.9
				c-5.6,0.3-11.1,0.7-16.5,1.6c-5.5,0.9-10.8,2.4-15.9,4.6l-0.1-0.3c5-2.5,10.4-4.2,15.9-5.3c5.5-1.1,11.1-1.7,16.6-2.2
				c5.6-0.5,11.1-0.8,16.7-1.3c5.6-0.5,11.1-1.2,16.5-2.5c2.7-0.7,5.4-1.5,7.9-2.5c2.6-1.1,5-2.4,7.3-4c2.2-1.6,4.3-3.5,6.1-5.6
				c1.7-2.2,3.2-4.5,4.3-7.1c0.9-2.6,1.6-5.3,1.8-8.1c0.2-2.8,0.1-5.5-0.3-8.3c-0.8-5.5-2.6-10.8-5-15.8c-4.8-10-11.8-19-20.3-26.2
				c-4.2-3.6-8.9-6.8-13.8-9.3c-4.9-2.5-10.2-4.5-15.7-5.4c-2.7-0.4-5.5-0.7-8.3-0.7c-2.8,0.1-5.6,0-8.3,0.3
				c-1.4,0.1-2.8,0.3-4.2,0.4L64.3,40c-0.7,0.1-1.4,0.2-2,0.4l-2,0.5l-2,0.5l-1,0.3l-1,0.4c-5.3,1.7-10.3,4.2-14.9,7.5
				c-1.1,0.8-2.2,1.7-3.3,2.6C37,53.1,36,54,35,55c-1.9,2-3.7,4.2-5.1,6.6L29.6,61.4z"/>
		</g>
		<g>
			<path class="st3" d="M16.5,99.9c-0.5-1.6-0.5-3.2-0.3-4.8c0.2-1.6,0.6-3.2,1.1-4.7c1-3.1,2.4-6,4-8.8c3.1-5.6,7.2-10.7,12-15.2
				C38,62,43.5,58.2,49.8,55.8c6.3-2.3,13.4-2.9,20.1-1.1c3.3,0.8,6.5,2.2,9.4,4c2.9,1.8,5.5,3.8,8,6c2.5,2.2,4.7,4.8,6.6,7.6
				c1.9,2.8,3.5,5.9,4.5,9.2c1,3.3,1.6,6.7,1.5,10.1c-0.1,3.4-0.6,6.7-1.5,9.9c-0.5,1.6-1,3.1-1.6,4.6c-0.7,1.5-1.4,2.9-2.2,4.3
				c-1.6,2.8-3.5,5.5-5.7,7.8l-0.2-0.2c1.9-2.5,3.5-5.3,4.8-8.1c1.3-2.9,2.4-5.8,3.1-8.9c1.4-6.1,1.3-12.6-0.7-18.6
				c-2-6-5.9-11.1-10.5-15.4c-2.3-2.1-4.8-4.1-7.5-5.7c-2.7-1.6-5.6-2.9-8.6-3.7c-6-1.7-12.6-1.3-18.5,0.8c-6,2-11.3,5.5-16.1,9.7
				c-4.7,4.2-8.8,9-12.2,14.4c-1.7,2.7-3.2,5.5-4.3,8.4c-0.6,1.5-1,3-1.3,4.5c-0.3,1.5-0.4,3.1,0,4.6L16.5,99.9z"/>
		</g>
		<g>
			<path class="st3" d="M2.2,139.9c1.9-0.3,3.7-0.6,5.6-1c1.9-0.3,3.7-0.6,5.6-1c3.7-0.7,7.4-1.5,11.1-2.3
				c7.3-1.6,14.6-3.4,21.6-5.8c3.5-1.2,6.9-2.5,10.2-4.1c3.2-1.6,6.3-3.4,8.8-5.7c0.3-0.3,0.6-0.6,0.9-0.9c0.3-0.3,0.5-0.6,0.8-1
				c0.6-0.7,1.1-1.4,1.6-2.1c1-1.4,1.9-2.9,2.7-4.4c1.5-3.1,2.4-6.3,2.4-9.6c0-3.3-0.8-6.6-2.2-9.8c-1.4-3.2-3.3-6.3-5.4-9.3
				c-0.6-0.8-1-1.3-1.5-1.9c-0.5-0.6-1.1-1.1-1.8-1.6c-1.3-1-2.8-1.8-4.4-2.4c-3.2-1.2-6.7-1.9-10.2-1.9c-7.1-0.1-14.4,2-20.3,6.2
				c-2.9,2.1-5.5,4.7-7.3,7.9c-0.9,1.6-1.7,3.3-2.2,5c-0.6,1.8-1,3.6-1.2,5.5l-0.3,0c0.2-3.8,1.1-7.6,2.9-10.9
				c1.7-3.4,4.3-6.3,7.3-8.7c6-4.7,13.6-7.1,21.2-7.3c3.8-0.1,7.6,0.4,11.2,1.7c3.6,1.3,6.9,3.5,9.1,6.7c2.2,3.1,4.3,6.3,5.9,9.7
				c1.6,3.5,2.6,7.2,2.6,11.1c0,3.8-1,7.6-2.8,11c-1.8,3.4-4,6.5-6.7,9.2c-2.8,2.6-6.2,4.5-9.6,6.1c-3.4,1.6-7,2.9-10.6,4
				c-7.2,2.2-14.6,3.8-22.1,5.1c-7.4,1.3-14.9,2.3-22.5,2.9L2.2,139.9z"/>
		</g>
	</g>
	<g class="st1">
		<g>
			<path class="st3" d="M187.8,100c-0.8-1-1.1-2.2-1.5-3.3l-0.5-1.7l-0.4-1.8c-0.4-2.4-0.7-4.8-0.8-7.2c-0.3-4.8,0-9.6,0.7-14.4
				c0.7-4.8,1.9-9.5,3.6-14.1c1.7-4.6,4-8.9,6.7-13c5.5-8.1,13.3-14.6,21.9-19.2c8.7-4.7,18.2-7.2,27.8-8.7c2.4-0.3,4.8-0.7,7.2-0.9
				c2.4-0.2,4.8-0.5,7.3-0.4c1.2,0,2.5,0,3.7,0l3.7,0.3c0.6,0.1,1.2,0.1,1.8,0.2l1.8,0.3c1.2,0.2,2.4,0.4,3.7,0.6
				c9.7,2.2,18.9,6.2,26.9,12c4.1,2.8,7.8,6.1,11.3,9.4c1.7,1.8,3.5,3.5,5,5.4c0.8,0.9,1.6,1.9,2.4,2.8l2.2,2.9c0.8,1,1.4,2,2.1,3
				c0.7,1,1.4,2,2,3.1l1.9,3.2c0.3,0.5,0.6,1,0.9,1.6l0.9,1.6l1.7,3.3l1.5,3.4l0.8,1.7l0.7,1.7c0.4,1.1,0.9,2.3,1.3,3.4
				c3.1,9.3,5.1,19.1,4.9,29c0.1,2.5-0.2,4.9-0.4,7.4c-0.1,1.2-0.4,2.5-0.5,3.7l-0.3,1.8c-0.1,0.6-0.3,1.2-0.4,1.8
				c-0.3,1.2-0.6,2.4-0.9,3.6l-1.2,3.6c-0.3,1.2-0.9,2.3-1.4,3.5l-0.7,1.7l-0.4,0.9l-0.4,0.8l-1.8,3.3c-0.6,1.1-1.3,2.1-2,3.2
				l-1,1.6c-0.4,0.5-0.7,1-1.1,1.5c-0.7,1-1.5,2-2.3,2.9c-1.5,1.9-3.2,3.8-4.9,5.5c-1.8,1.7-3.6,3.4-5.7,4.9
				c-2.1,1.5-4.2,2.8-6.6,3.9c-2.3,1-4.8,1.9-7.3,2.4c-5,1.1-10,1.2-14.8,1c-4.9-0.2-9.7-0.8-14.4-1.3l-14.2-1.7
				c-4.7-0.5-9.5-1-14.2-1.4c-4.7-0.4-9.4-0.4-14,0c-4.7,0.4-9.3,1.2-13.9,2.4c-4.5,1.2-9,2.9-13.3,4.9c-4.3,2-8.5,4.3-12.8,6.4
				c-2.2,1-4.4,2-6.8,2.5c-1.2,0.3-2.4,0.4-3.6,0.4c-1.2,0-2.4-0.3-3.6-0.8l0.1-0.3c1.1,0.4,2.3,0.6,3.4,0.6c1.2,0,2.4-0.2,3.5-0.5
				c2.3-0.6,4.5-1.6,6.6-2.7c4.2-2.2,8.4-4.6,12.7-6.6c4.3-2.1,8.8-3.9,13.3-5.2c4.6-1.3,9.3-2.3,14.1-2.7c9.6-1,19.1,0.2,28.6,1
				l14.2,1.5c4.7,0.5,9.5,1,14.3,1.1c4.8,0.2,9.5,0,14.2-1.1c2.3-0.5,4.6-1.3,6.7-2.3c2.2-1,4.2-2.2,6.1-3.6c1.9-1.4,3.7-3,5.4-4.7
				c1.6-1.7,3.3-3.5,4.7-5.3c0.8-0.9,1.5-1.9,2.2-2.8c0.4-0.5,0.7-1,1.1-1.4l1-1.5c0.6-1,1.3-2,1.9-3l1.7-3.2l0.4-0.8l0.3-0.8
				l0.7-1.6c0.4-1.1,1-2.2,1.3-3.3l1.1-3.4c0.3-1.2,0.5-2.3,0.8-3.5c0.1-0.6,0.3-1.2,0.4-1.7l0.3-1.8c0.2-1.2,0.4-2.3,0.5-3.5
				c0.2-2.4,0.4-4.7,0.3-7.1c0.1-9.5-1.8-19-4.9-28l-1.3-3.3l-0.6-1.7l-0.7-1.6l-1.5-3.3l-1.6-3.2l-0.8-1.6c-0.3-0.5-0.6-1-0.9-1.5
				l-1.8-3.1c-0.6-1-1.3-2-2-3c-0.7-1-1.3-2-2-2.9l-2.1-2.9c-0.7-0.9-1.5-1.8-2.3-2.7c-1.5-1.9-3.2-3.5-4.8-5.3
				c-3.4-3.3-7-6.5-10.9-9.2c-7.7-5.6-16.6-9.5-25.8-11.6c-1.2-0.2-2.3-0.4-3.5-0.6l-1.8-0.3c-0.6-0.1-1.2-0.1-1.8-0.2l-3.6-0.3
				c-1.2-0.1-2.4,0-3.6,0c-2.4-0.1-4.8,0.2-7.1,0.3c-2.4,0.1-4.7,0.5-7.1,0.8c-9.4,1.3-18.8,3.7-27.2,8.1
				c-8.5,4.3-16.1,10.5-21.5,18.3c-2.8,3.9-5,8.1-6.8,12.5c-1.8,4.4-3,9-3.8,13.7c-0.8,4.7-1.1,9.5-1,14.2c0,2.4,0.3,4.8,0.6,7.1
				l0.3,1.8l0.4,1.7c0.3,1.1,0.6,2.3,1.3,3.2L187.8,100z"/>
		</g>
		<g>
			<path class="st3" d="M201.2,61.4c2.6-5,6.6-9.2,11.1-12.7c4.5-3.4,9.6-6.3,15-8.2l1-0.4l1-0.3l2.1-0.6l2.1-0.6
				c0.7-0.2,1.4-0.3,2.1-0.5l4.2-0.9c1.4-0.2,2.8-0.3,4.2-0.5c2.8-0.4,5.7-0.4,8.5-0.5c2.9-0.1,5.8,0.1,8.7,0.5
				c1.4,0.2,2.9,0.5,4.3,0.8c1.4,0.4,2.8,0.7,4.2,1.2c2.8,0.9,5.5,2,8,3.4c5.2,2.6,10,5.9,14.4,9.6c8.8,7.4,16.2,16.6,21.2,27.1
				c2.5,5.3,4.3,10.9,5.1,16.8c0.4,2.9,0.5,5.9,0.3,8.9c-0.2,3-1,6-2.1,8.9c-1.2,2.8-2.9,5.5-4.8,7.8c-2,2.3-4.2,4.3-6.6,6.1
				c-2.5,1.7-5.1,3.1-7.9,4.2c-2.7,1.1-5.6,1.8-8.4,2.5c-5.6,1.2-11.3,1.8-16.9,2.1c-5.6,0.4-11.2,0.6-16.7,0.9
				c-5.6,0.3-11.1,0.7-16.5,1.6c-5.5,0.9-10.8,2.4-15.9,4.6l-0.1-0.3c5-2.5,10.4-4.2,15.9-5.3c5.5-1.1,11.1-1.7,16.6-2.2
				c5.6-0.5,11.1-0.8,16.7-1.3c5.6-0.5,11.1-1.2,16.5-2.5c2.7-0.7,5.4-1.5,7.9-2.5c2.6-1.1,5-2.4,7.3-4c2.2-1.6,4.3-3.5,6.1-5.6
				c1.7-2.2,3.2-4.5,4.3-7.1c0.9-2.6,1.6-5.3,1.8-8.1c0.2-2.8,0.1-5.5-0.3-8.3c-0.8-5.5-2.6-10.8-5-15.8c-4.8-10-11.8-19-20.3-26.2
				c-4.2-3.6-8.9-6.8-13.8-9.3c-4.9-2.5-10.2-4.5-15.7-5.4c-2.7-0.4-5.5-0.7-8.3-0.7c-2.8,0.1-5.6,0-8.3,0.3
				c-1.4,0.1-2.8,0.3-4.2,0.4l-4.1,0.7c-0.7,0.1-1.4,0.2-2,0.4l-2,0.5l-2,0.5l-1,0.3l-1,0.4c-5.3,1.7-10.3,4.2-14.9,7.5
				c-1.1,0.8-2.2,1.7-3.3,2.6c-1,0.9-2.1,1.8-3,2.9c-1.9,2-3.7,4.2-5.1,6.6L201.2,61.4z"/>
		</g>
		<g>
			<path class="st3" d="M188.1,99.9c-0.5-1.6-0.5-3.2-0.3-4.8c0.2-1.6,0.6-3.2,1.1-4.7c1-3.1,2.4-6,4-8.8c3.1-5.6,7.2-10.7,12-15.2
				c4.8-4.4,10.3-8.2,16.6-10.6c6.3-2.3,13.4-2.9,20.1-1.1c3.3,0.8,6.5,2.2,9.4,4c2.9,1.8,5.5,3.8,8,6c2.5,2.2,4.7,4.8,6.6,7.6
				c1.9,2.8,3.5,5.9,4.5,9.2c1,3.3,1.6,6.7,1.5,10.1c-0.1,3.4-0.6,6.7-1.5,9.9c-0.5,1.6-1,3.1-1.6,4.6c-0.7,1.5-1.4,2.9-2.2,4.3
				c-1.6,2.8-3.5,5.5-5.7,7.8l-0.2-0.2c1.9-2.5,3.5-5.3,4.8-8.1c1.3-2.9,2.4-5.8,3.1-8.9c1.4-6.1,1.3-12.6-0.7-18.6
				c-2-6-5.9-11.1-10.5-15.4c-2.3-2.1-4.8-4.1-7.5-5.7c-2.7-1.6-5.6-2.9-8.6-3.7c-6-1.7-12.6-1.3-18.5,0.8c-6,2-11.3,5.5-16.1,9.7
				c-4.7,4.2-8.8,9-12.2,14.4c-1.7,2.7-3.2,5.5-4.3,8.4c-0.6,1.5-1,3-1.3,4.5c-0.3,1.5-0.4,3.1,0,4.6L188.1,99.9z"/>
		</g>
		<g>
			<path class="st3" d="M173.8,139.9c1.9-0.3,3.7-0.6,5.6-1c1.9-0.3,3.7-0.6,5.6-1c3.7-0.7,7.4-1.5,11.1-2.3
				c7.3-1.6,14.6-3.4,21.6-5.8c3.5-1.2,6.9-2.5,10.2-4.1c3.2-1.6,6.3-3.4,8.8-5.7c0.3-0.3,0.6-0.6,0.9-0.9c0.3-0.3,0.5-0.6,0.8-1
				c0.6-0.7,1.1-1.4,1.6-2.1c1-1.4,1.9-2.9,2.7-4.4c1.5-3.1,2.4-6.3,2.4-9.6c0-3.3-0.8-6.6-2.2-9.8c-1.4-3.2-3.3-6.3-5.4-9.3
				c-0.6-0.8-1-1.3-1.5-1.9c-0.5-0.6-1.1-1.1-1.8-1.6c-1.3-1-2.8-1.8-4.4-2.4c-3.2-1.2-6.7-1.9-10.2-1.9c-7.1-0.1-14.4,2-20.3,6.2
				c-2.9,2.1-5.5,4.7-7.3,7.9c-0.9,1.6-1.7,3.3-2.2,5c-0.6,1.8-1,3.6-1.2,5.5l-0.3,0c0.2-3.8,1.1-7.6,2.9-10.9
				c1.7-3.4,4.3-6.3,7.3-8.7c6-4.7,13.6-7.1,21.2-7.3c3.8-0.1,7.6,0.4,11.2,1.7c3.6,1.3,6.9,3.5,9.1,6.7c2.2,3.1,4.3,6.3,5.9,9.7
				c1.6,3.5,2.6,7.2,2.6,11.1c0,3.8-1,7.6-2.8,11c-1.8,3.4-4,6.5-6.7,9.2c-2.8,2.6-6.2,4.5-9.6,6.1c-3.4,1.6-7,2.9-10.6,4
				c-7.2,2.2-14.6,3.8-22.1,5.1c-7.4,1.3-14.9,2.3-22.5,2.9L173.8,139.9z"/>
		</g>
	</g>
	<g class="st1">
		<g>
			<path class="st3" d="M357.9,100c-0.8-1-1.1-2.2-1.5-3.3l-0.5-1.7l-0.4-1.8c-0.4-2.4-0.7-4.8-0.8-7.2c-0.3-4.8,0-9.6,0.7-14.4
				c0.7-4.8,1.9-9.5,3.6-14.1c1.7-4.6,4-8.9,6.7-13c5.5-8.1,13.3-14.6,21.9-19.2c8.7-4.7,18.2-7.2,27.8-8.7c2.4-0.3,4.8-0.7,7.2-0.9
				c2.4-0.2,4.8-0.5,7.3-0.4c1.2,0,2.5,0,3.7,0l3.7,0.3c0.6,0.1,1.2,0.1,1.8,0.2l1.8,0.3c1.2,0.2,2.4,0.4,3.7,0.6
				c9.7,2.2,18.9,6.2,26.9,12c4.1,2.8,7.8,6.1,11.3,9.4c1.7,1.8,3.5,3.5,5,5.4c0.8,0.9,1.6,1.9,2.4,2.8l2.2,2.9c0.8,1,1.4,2,2.1,3
				c0.7,1,1.4,2,2,3.1l1.9,3.2c0.3,0.5,0.6,1,0.9,1.6l0.9,1.6l1.7,3.3l1.5,3.4l0.8,1.7l0.7,1.7c0.4,1.1,0.9,2.3,1.3,3.4
				c3.1,9.3,5.1,19.1,4.9,29c0.1,2.5-0.2,4.9-0.4,7.4c-0.1,1.2-0.4,2.5-0.5,3.7l-0.3,1.8c-0.1,0.6-0.3,1.2-0.4,1.8
				c-0.3,1.2-0.6,2.4-0.9,3.6l-1.2,3.6c-0.3,1.2-0.9,2.3-1.4,3.5l-0.7,1.7l-0.4,0.9l-0.4,0.8l-1.8,3.3c-0.6,1.1-1.3,2.1-2,3.2
				l-1,1.6c-0.4,0.5-0.7,1-1.1,1.5c-0.7,1-1.5,2-2.3,2.9c-1.5,1.9-3.2,3.8-4.9,5.5c-1.8,1.7-3.6,3.4-5.7,4.9
				c-2.1,1.5-4.2,2.8-6.6,3.9c-2.3,1-4.8,1.9-7.3,2.4c-5,1.1-10,1.2-14.8,1c-4.9-0.2-9.7-0.8-14.4-1.3l-14.2-1.7
				c-4.7-0.5-9.5-1-14.2-1.4c-4.7-0.4-9.4-0.4-14,0c-4.7,0.4-9.3,1.2-13.9,2.4c-4.5,1.2-9,2.9-13.3,4.9c-4.3,2-8.5,4.3-12.8,6.4
				c-2.2,1-4.4,2-6.8,2.5c-1.2,0.3-2.4,0.4-3.6,0.4c-1.2,0-2.4-0.3-3.6-0.8l0.1-0.3c1.1,0.4,2.3,0.6,3.4,0.6c1.2,0,2.4-0.2,3.5-0.5
				c2.3-0.6,4.5-1.6,6.6-2.7c4.2-2.2,8.4-4.6,12.7-6.6c4.3-2.1,8.8-3.9,13.3-5.2c4.6-1.3,9.3-2.3,14.1-2.7c9.6-1,19.1,0.2,28.6,1
				l14.2,1.5c4.7,0.5,9.5,1,14.3,1.1c4.8,0.2,9.5,0,14.2-1.1c2.3-0.5,4.6-1.3,6.7-2.3c2.2-1,4.2-2.2,6.1-3.6c1.9-1.4,3.7-3,5.4-4.7
				c1.6-1.7,3.3-3.5,4.7-5.3c0.8-0.9,1.5-1.9,2.2-2.8c0.4-0.5,0.7-1,1.1-1.4l1-1.5c0.6-1,1.3-2,1.9-3l1.7-3.2l0.4-0.8l0.3-0.8
				l0.7-1.6c0.4-1.1,1-2.2,1.3-3.3l1.1-3.4c0.3-1.2,0.5-2.3,0.8-3.5c0.1-0.6,0.3-1.2,0.4-1.7l0.3-1.8c0.2-1.2,0.4-2.3,0.5-3.5
				c0.2-2.4,0.4-4.7,0.3-7.1c0.1-9.5-1.8-19-4.9-28l-1.3-3.3l-0.6-1.7l-0.7-1.6l-1.5-3.3l-1.6-3.2l-0.8-1.6c-0.3-0.5-0.6-1-0.9-1.5
				l-1.8-3.1c-0.6-1-1.3-2-2-3c-0.7-1-1.3-2-2-2.9l-2.1-2.9c-0.7-0.9-1.5-1.8-2.3-2.7c-1.5-1.9-3.2-3.5-4.8-5.3
				c-3.4-3.3-7-6.5-10.9-9.2c-7.7-5.6-16.6-9.5-25.8-11.6c-1.2-0.2-2.3-0.4-3.5-0.6l-1.8-0.3c-0.6-0.1-1.2-0.1-1.8-0.2l-3.6-0.3
				c-1.2-0.1-2.4,0-3.6,0c-2.4-0.1-4.8,0.2-7.1,0.3c-2.4,0.1-4.7,0.5-7.1,0.8c-9.4,1.3-18.8,3.7-27.2,8.1
				c-8.5,4.3-16.1,10.5-21.5,18.3c-2.8,3.9-5,8.1-6.8,12.5c-1.8,4.4-3,9-3.8,13.7c-0.8,4.7-1.1,9.5-1,14.2c0,2.4,0.3,4.8,0.6,7.1
				l0.3,1.8l0.4,1.7c0.3,1.1,0.6,2.3,1.3,3.2L357.9,100z"/>
		</g>
		<g>
			<path class="st3" d="M371.3,61.4c2.6-5,6.6-9.2,11.1-12.7c4.5-3.4,9.6-6.3,15-8.2l1-0.4l1-0.3l2.1-0.6l2.1-0.6
				c0.7-0.2,1.4-0.3,2.1-0.5l4.2-0.9c1.4-0.2,2.8-0.3,4.2-0.5c2.8-0.4,5.7-0.4,8.5-0.5c2.9-0.1,5.8,0.1,8.7,0.5
				c1.4,0.2,2.9,0.5,4.3,0.8c1.4,0.4,2.8,0.7,4.2,1.2c2.8,0.9,5.5,2,8,3.4c5.2,2.6,10,5.9,14.4,9.6c8.8,7.4,16.2,16.6,21.2,27.1
				c2.5,5.3,4.3,10.9,5.1,16.8c0.4,2.9,0.5,5.9,0.3,8.9c-0.2,3-1,6-2.1,8.9c-1.2,2.8-2.9,5.5-4.8,7.8c-2,2.3-4.2,4.3-6.6,6.1
				c-2.5,1.7-5.1,3.1-7.9,4.2c-2.7,1.1-5.6,1.8-8.4,2.5c-5.6,1.2-11.3,1.8-16.9,2.1c-5.6,0.4-11.2,0.6-16.7,0.9
				c-5.6,0.3-11.1,0.7-16.5,1.6c-5.5,0.9-10.8,2.4-15.9,4.6l-0.1-0.3c5-2.5,10.4-4.2,15.9-5.3c5.5-1.1,11.1-1.7,16.6-2.2
				c5.6-0.5,11.1-0.8,16.7-1.3c5.6-0.5,11.1-1.2,16.5-2.5c2.7-0.7,5.4-1.5,7.9-2.5c2.6-1.1,5-2.4,7.3-4c2.2-1.6,4.3-3.5,6.1-5.6
				c1.7-2.2,3.2-4.5,4.3-7.1c0.9-2.6,1.6-5.3,1.8-8.1c0.2-2.8,0.1-5.5-0.3-8.3c-0.8-5.5-2.6-10.8-5-15.8c-4.8-10-11.8-19-20.3-26.2
				c-4.2-3.6-8.9-6.8-13.8-9.3c-4.9-2.5-10.2-4.5-15.7-5.4c-2.7-0.4-5.5-0.7-8.3-0.7c-2.8,0.1-5.6,0-8.3,0.3
				c-1.4,0.1-2.8,0.3-4.2,0.4l-4.1,0.7c-0.7,0.1-1.4,0.2-2,0.4l-2,0.5l-2,0.5l-1,0.3l-1,0.4c-5.3,1.7-10.3,4.2-14.9,7.5
				c-1.1,0.8-2.2,1.7-3.3,2.6c-1,0.9-2.1,1.8-3,2.9c-1.9,2-3.7,4.2-5.1,6.6L371.3,61.4z"/>
		</g>
		<g>
			<path class="st3" d="M358.1,99.9c-0.5-1.6-0.5-3.2-0.3-4.8c0.2-1.6,0.6-3.2,1.1-4.7c1-3.1,2.4-6,4-8.8c3.1-5.6,7.2-10.7,12-15.2
				c4.8-4.4,10.3-8.2,16.6-10.6c6.3-2.3,13.4-2.9,20.1-1.1c3.3,0.8,6.5,2.2,9.4,4c2.9,1.8,5.5,3.8,8,6c2.5,2.2,4.7,4.8,6.6,7.6
				c1.9,2.8,3.5,5.9,4.5,9.2c1,3.3,1.6,6.7,1.5,10.1c-0.1,3.4-0.6,6.7-1.5,9.9c-0.5,1.6-1,3.1-1.6,4.6c-0.7,1.5-1.4,2.9-2.2,4.3
				c-1.6,2.8-3.5,5.5-5.7,7.8l-0.2-0.2c1.9-2.5,3.5-5.3,4.8-8.1c1.3-2.9,2.4-5.8,3.1-8.9c1.4-6.1,1.3-12.6-0.7-18.6
				c-2-6-5.9-11.1-10.5-15.4c-2.3-2.1-4.8-4.1-7.5-5.7c-2.7-1.6-5.6-2.9-8.6-3.7c-6-1.7-12.6-1.3-18.5,0.8c-6,2-11.3,5.5-16.1,9.7
				c-4.7,4.2-8.8,9-12.2,14.4c-1.7,2.7-3.2,5.5-4.3,8.4c-0.6,1.5-1,3-1.3,4.5c-0.3,1.5-0.4,3.1,0,4.6L358.1,99.9z"/>
		</g>
		<g>
			<path class="st3" d="M343.8,139.9c1.9-0.3,3.7-0.6,5.6-1c1.9-0.3,3.7-0.6,5.6-1c3.7-0.7,7.4-1.5,11.1-2.3
				c7.3-1.6,14.6-3.4,21.6-5.8c3.5-1.2,6.9-2.5,10.2-4.1c3.2-1.6,6.3-3.4,8.8-5.7c0.3-0.3,0.6-0.6,0.9-0.9c0.3-0.3,0.5-0.6,0.8-1
				c0.6-0.7,1.1-1.4,1.6-2.1c1-1.4,1.9-2.9,2.7-4.4c1.5-3.1,2.4-6.3,2.4-9.6c0-3.3-0.8-6.6-2.2-9.8c-1.4-3.2-3.3-6.3-5.4-9.3
				c-0.6-0.8-1-1.3-1.5-1.9c-0.5-0.6-1.1-1.1-1.8-1.6c-1.3-1-2.8-1.8-4.4-2.4c-3.2-1.2-6.7-1.9-10.2-1.9c-7.1-0.1-14.4,2-20.3,6.2
				c-2.9,2.1-5.5,4.7-7.3,7.9c-0.9,1.6-1.7,3.3-2.2,5c-0.6,1.8-1,3.6-1.2,5.5l-0.3,0c0.2-3.8,1.1-7.6,2.9-10.9
				c1.7-3.4,4.3-6.3,7.3-8.7c6-4.7,13.6-7.1,21.2-7.3c3.8-0.1,7.6,0.4,11.2,1.7c3.6,1.3,6.9,3.5,9.1,6.7c2.2,3.1,4.3,6.3,5.9,9.7
				c1.6,3.5,2.6,7.2,2.6,11.1c0,3.8-1,7.6-2.8,11c-1.8,3.4-4,6.5-6.7,9.2c-2.8,2.6-6.2,4.5-9.6,6.1c-3.4,1.6-7,2.9-10.6,4
				c-7.2,2.2-14.6,3.8-22.1,5.1c-7.4,1.3-14.9,2.3-22.5,2.9L343.8,139.9z"/>
		</g>
	</g>
	<g class="st1">
		<g>
			<path class="st3" d="M529.5,100c-0.8-1-1.1-2.2-1.5-3.3l-0.5-1.7l-0.4-1.8c-0.4-2.4-0.7-4.8-0.8-7.2c-0.3-4.8,0-9.6,0.7-14.4
				c0.7-4.8,1.9-9.5,3.6-14.1c1.7-4.6,4-8.9,6.7-13c5.5-8.1,13.3-14.6,21.9-19.2c8.7-4.7,18.2-7.2,27.8-8.7c2.4-0.3,4.8-0.7,7.2-0.9
				c2.4-0.2,4.8-0.5,7.3-0.4c1.2,0,2.5,0,3.7,0l3.7,0.3c0.6,0.1,1.2,0.1,1.8,0.2l1.8,0.3c1.2,0.2,2.4,0.4,3.7,0.6
				c9.7,2.2,18.9,6.2,26.9,12c4.1,2.8,7.8,6.1,11.3,9.4c1.7,1.8,3.5,3.5,5,5.4c0.8,0.9,1.6,1.9,2.4,2.8l2.2,2.9c0.8,1,1.4,2,2.1,3
				c0.7,1,1.4,2,2,3.1l1.9,3.2c0.3,0.5,0.6,1,0.9,1.6l0.9,1.6l1.7,3.3l1.5,3.4l0.8,1.7l0.7,1.7c0.4,1.1,0.9,2.3,1.3,3.4
				c3.1,9.3,5.1,19.1,4.9,29c0.1,2.5-0.2,4.9-0.4,7.4c-0.1,1.2-0.4,2.5-0.5,3.7l-0.3,1.8c-0.1,0.6-0.3,1.2-0.4,1.8
				c-0.3,1.2-0.6,2.4-0.9,3.6l-1.2,3.6c-0.3,1.2-0.9,2.3-1.4,3.5l-0.7,1.7l-0.4,0.9l-0.4,0.8l-1.8,3.3c-0.6,1.1-1.3,2.1-2,3.2
				l-1,1.6c-0.4,0.5-0.7,1-1.1,1.5c-0.7,1-1.5,2-2.3,2.9c-1.5,1.9-3.2,3.8-4.9,5.5c-1.8,1.7-3.6,3.4-5.7,4.9
				c-2.1,1.5-4.2,2.8-6.6,3.9c-2.3,1-4.8,1.9-7.3,2.4c-5,1.1-10,1.2-14.8,1c-4.9-0.2-9.7-0.8-14.4-1.3l-14.2-1.7
				c-4.7-0.5-9.5-1-14.2-1.4c-4.7-0.4-9.4-0.4-14,0c-4.7,0.4-9.3,1.2-13.9,2.4c-4.5,1.2-9,2.9-13.3,4.9c-4.3,2-8.5,4.3-12.8,6.4
				c-2.2,1-4.4,2-6.8,2.5c-1.2,0.3-2.4,0.4-3.6,0.4c-1.2,0-2.4-0.3-3.6-0.8l0.1-0.3c1.1,0.4,2.3,0.6,3.4,0.6c1.2,0,2.4-0.2,3.5-0.5
				c2.3-0.6,4.5-1.6,6.6-2.7c4.2-2.2,8.4-4.6,12.7-6.6c4.3-2.1,8.8-3.9,13.3-5.2c4.6-1.3,9.3-2.3,14.1-2.7c9.6-1,19.1,0.2,28.6,1
				l14.2,1.5c4.7,0.5,9.5,1,14.3,1.1c4.8,0.2,9.5,0,14.2-1.1c2.3-0.5,4.6-1.3,6.7-2.3c2.2-1,4.2-2.2,6.1-3.6c1.9-1.4,3.7-3,5.4-4.7
				c1.6-1.7,3.3-3.5,4.7-5.3c0.8-0.9,1.5-1.9,2.2-2.8c0.4-0.5,0.7-1,1.1-1.4l1-1.5c0.6-1,1.3-2,1.9-3l1.7-3.2l0.4-0.8l0.3-0.8
				l0.7-1.6c0.4-1.1,1-2.2,1.3-3.3l1.1-3.4c0.3-1.2,0.5-2.3,0.8-3.5c0.1-0.6,0.3-1.2,0.4-1.7l0.3-1.8c0.2-1.2,0.4-2.3,0.5-3.5
				c0.2-2.4,0.4-4.7,0.3-7.1c0.1-9.5-1.8-19-4.9-28l-1.3-3.3l-0.6-1.7l-0.7-1.6l-1.5-3.3l-1.6-3.2l-0.8-1.6c-0.3-0.5-0.6-1-0.9-1.5
				l-1.8-3.1c-0.6-1-1.3-2-2-3c-0.7-1-1.3-2-2-2.9l-2.1-2.9c-0.7-0.9-1.5-1.8-2.3-2.7c-1.5-1.9-3.2-3.5-4.8-5.3
				c-3.4-3.3-7-6.5-10.9-9.2c-7.7-5.6-16.6-9.5-25.8-11.6c-1.2-0.2-2.3-0.4-3.5-0.6l-1.8-0.3c-0.6-0.1-1.2-0.1-1.8-0.2l-3.6-0.3
				c-1.2-0.1-2.4,0-3.6,0c-2.4-0.1-4.8,0.2-7.1,0.3c-2.4,0.1-4.7,0.5-7.1,0.8c-9.4,1.3-18.8,3.7-27.2,8.1
				c-8.5,4.3-16.1,10.5-21.5,18.3c-2.8,3.9-5,8.1-6.8,12.5c-1.8,4.4-3,9-3.8,13.7c-0.8,4.7-1.1,9.5-1,14.2c0,2.4,0.3,4.8,0.6,7.1
				l0.3,1.8l0.4,1.7c0.3,1.1,0.6,2.3,1.3,3.2L529.5,100z"/>
		</g>
		<g>
			<path class="st3" d="M542.8,61.4c2.6-5,6.6-9.2,11.1-12.7c4.5-3.4,9.6-6.3,15-8.2l1-0.4l1-0.3l2.1-0.6l2.1-0.6
				c0.7-0.2,1.4-0.3,2.1-0.5l4.2-0.9c1.4-0.2,2.8-0.3,4.2-0.5c2.8-0.4,5.7-0.4,8.5-0.5c2.9-0.1,5.8,0.1,8.7,0.5
				c1.4,0.2,2.9,0.5,4.3,0.8c1.4,0.4,2.8,0.7,4.2,1.2c2.8,0.9,5.5,2,8,3.4c5.2,2.6,10,5.9,14.4,9.6c8.8,7.4,16.2,16.6,21.2,27.1
				c2.5,5.3,4.3,10.9,5.1,16.8c0.4,2.9,0.5,5.9,0.3,8.9c-0.2,3-1,6-2.1,8.9c-1.2,2.8-2.9,5.5-4.8,7.8c-2,2.3-4.2,4.3-6.6,6.1
				c-2.5,1.7-5.1,3.1-7.9,4.2c-2.7,1.1-5.6,1.8-8.4,2.5c-5.6,1.2-11.3,1.8-16.9,2.1c-5.6,0.4-11.2,0.6-16.7,0.9
				c-5.6,0.3-11.1,0.7-16.5,1.6c-5.5,0.9-10.8,2.4-15.9,4.6l-0.1-0.3c5-2.5,10.4-4.2,15.9-5.3c5.5-1.1,11.1-1.7,16.6-2.2
				c5.6-0.5,11.1-0.8,16.7-1.3c5.6-0.5,11.1-1.2,16.5-2.5c2.7-0.7,5.4-1.5,7.9-2.5c2.6-1.1,5-2.4,7.3-4c2.2-1.6,4.3-3.5,6.1-5.6
				c1.7-2.2,3.2-4.5,4.3-7.1c0.9-2.6,1.6-5.3,1.8-8.1c0.2-2.8,0.1-5.5-0.3-8.3c-0.8-5.5-2.6-10.8-5-15.8c-4.8-10-11.8-19-20.3-26.2
				c-4.2-3.6-8.9-6.8-13.8-9.3c-4.9-2.5-10.2-4.5-15.7-5.4c-2.7-0.4-5.5-0.7-8.3-0.7c-2.8,0.1-5.6,0-8.3,0.3
				c-1.4,0.1-2.8,0.3-4.2,0.4l-4.1,0.7c-0.7,0.1-1.4,0.2-2,0.4l-2,0.5l-2,0.5l-1,0.3l-1,0.4c-5.3,1.7-10.3,4.2-14.9,7.5
				c-1.1,0.8-2.2,1.7-3.3,2.6c-1,0.9-2.1,1.8-3,2.9c-1.9,2-3.7,4.2-5.1,6.6L542.8,61.4z"/>
		</g>
		<g>
			<path class="st3" d="M529.7,99.9c-0.5-1.6-0.5-3.2-0.3-4.8c0.2-1.6,0.6-3.2,1.1-4.7c1-3.1,2.4-6,4-8.8c3.1-5.6,7.2-10.7,12-15.2
				c4.8-4.4,10.3-8.2,16.6-10.6c6.3-2.3,13.4-2.9,20.1-1.1c3.3,0.8,6.5,2.2,9.4,4c2.9,1.8,5.5,3.8,8,6c2.5,2.2,4.7,4.8,6.6,7.6
				c1.9,2.8,3.5,5.9,4.5,9.2c1,3.3,1.6,6.7,1.5,10.1c-0.1,3.4-0.6,6.7-1.5,9.9c-0.5,1.6-1,3.1-1.6,4.6c-0.7,1.5-1.4,2.9-2.2,4.3
				c-1.6,2.8-3.5,5.5-5.7,7.8l-0.2-0.2c1.9-2.5,3.5-5.3,4.8-8.1c1.3-2.9,2.4-5.8,3.1-8.9c1.4-6.1,1.3-12.6-0.7-18.6
				c-2-6-5.9-11.1-10.5-15.4c-2.3-2.1-4.8-4.1-7.5-5.7c-2.7-1.6-5.6-2.9-8.6-3.7c-6-1.7-12.6-1.3-18.5,0.8c-6,2-11.3,5.5-16.1,9.7
				c-4.7,4.2-8.8,9-12.2,14.4c-1.7,2.7-3.2,5.5-4.3,8.4c-0.6,1.5-1,3-1.3,4.5c-0.3,1.5-0.4,3.1,0,4.6L529.7,99.9z"/>
		</g>
		<g>
			<path class="st3" d="M515.4,139.9c1.9-0.3,3.7-0.6,5.6-1c1.9-0.3,3.7-0.6,5.6-1c3.7-0.7,7.4-1.5,11.1-2.3
				c7.3-1.6,14.6-3.4,21.6-5.8c3.5-1.2,6.9-2.5,10.2-4.1c3.2-1.6,6.3-3.4,8.8-5.7c0.3-0.3,0.6-0.6,0.9-0.9c0.3-0.3,0.5-0.6,0.8-1
				c0.6-0.7,1.1-1.4,1.6-2.1c1-1.4,1.9-2.9,2.7-4.4c1.5-3.1,2.4-6.3,2.4-9.6c0-3.3-0.8-6.6-2.2-9.8c-1.4-3.2-3.3-6.3-5.4-9.3
				c-0.6-0.8-1-1.3-1.5-1.9c-0.5-0.6-1.1-1.1-1.8-1.6c-1.3-1-2.8-1.8-4.4-2.4c-3.2-1.2-6.7-1.9-10.2-1.9c-7.1-0.1-14.4,2-20.3,6.2
				c-2.9,2.1-5.5,4.7-7.3,7.9c-0.9,1.6-1.7,3.3-2.2,5c-0.6,1.8-1,3.6-1.2,5.5l-0.3,0c0.2-3.8,1.1-7.6,2.9-10.9
				c1.7-3.4,4.3-6.3,7.3-8.7c6-4.7,13.6-7.1,21.2-7.3c3.8-0.1,7.6,0.4,11.2,1.7c3.6,1.3,6.9,3.5,9.1,6.7c2.2,3.1,4.3,6.3,5.9,9.7
				c1.6,3.5,2.6,7.2,2.6,11.1c0,3.8-1,7.6-2.8,11c-1.8,3.4-4,6.5-6.7,9.2c-2.8,2.6-6.2,4.5-9.6,6.1c-3.4,1.6-7,2.9-10.6,4
				c-7.2,2.2-14.6,3.8-22.1,5.1c-7.4,1.3-14.9,2.3-22.5,2.9L515.4,139.9z"/>
		</g>
	</g>
	<g class="st1">
		<g>
			<path class="st3" d="M700.1,100c-0.8-1-1.1-2.2-1.5-3.3l-0.5-1.7l-0.4-1.8c-0.4-2.4-0.7-4.8-0.8-7.2c-0.3-4.8,0-9.6,0.7-14.4
				c0.7-4.8,1.9-9.5,3.6-14.1c1.7-4.6,4-8.9,6.7-13c5.5-8.1,13.3-14.6,21.9-19.2c8.7-4.7,18.2-7.2,27.8-8.7c2.4-0.3,4.8-0.7,7.2-0.9
				c2.4-0.2,4.8-0.5,7.3-0.4c1.2,0,2.5,0,3.7,0l3.7,0.3c0.6,0.1,1.2,0.1,1.8,0.2l1.8,0.3c1.2,0.2,2.4,0.4,3.7,0.6
				c9.7,2.2,18.9,6.2,26.9,12c4.1,2.8,7.8,6.1,11.3,9.4c1.7,1.8,3.5,3.5,5,5.4c0.8,0.9,1.6,1.9,2.4,2.8l2.2,2.9c0.8,1,1.4,2,2.1,3
				c0.7,1,1.4,2,2,3.1l1.9,3.2c0.3,0.5,0.6,1,0.9,1.6l0.9,1.6l1.7,3.3l1.5,3.4l0.8,1.7l0.7,1.7c0.4,1.1,0.9,2.3,1.3,3.4
				c3.1,9.3,5.1,19.1,4.9,29c0.1,2.5-0.2,4.9-0.4,7.4c-0.1,1.2-0.4,2.5-0.5,3.7l-0.3,1.8c-0.1,0.6-0.3,1.2-0.4,1.8
				c-0.3,1.2-0.6,2.4-0.9,3.6l-1.2,3.6c-0.3,1.2-0.9,2.3-1.4,3.5l-0.7,1.7l-0.4,0.9l-0.4,0.8l-1.8,3.3c-0.6,1.1-1.3,2.1-2,3.2
				l-1,1.6c-0.4,0.5-0.7,1-1.1,1.5c-0.7,1-1.5,2-2.3,2.9c-1.5,1.9-3.2,3.8-4.9,5.5c-1.8,1.7-3.6,3.4-5.7,4.9
				c-2.1,1.5-4.2,2.8-6.6,3.9c-2.3,1-4.8,1.9-7.3,2.4c-5,1.1-10,1.2-14.8,1c-4.9-0.2-9.7-0.8-14.4-1.3l-14.2-1.7
				c-4.7-0.5-9.5-1-14.2-1.4c-4.7-0.4-9.4-0.4-14,0c-4.7,0.4-9.3,1.2-13.9,2.4c-4.5,1.2-9,2.9-13.3,4.9c-4.3,2-8.5,4.3-12.8,6.4
				c-2.2,1-4.4,2-6.8,2.5c-1.2,0.3-2.4,0.4-3.6,0.4c-1.2,0-2.4-0.3-3.6-0.8l0.1-0.3c1.1,0.4,2.3,0.6,3.4,0.6c1.2,0,2.4-0.2,3.5-0.5
				c2.3-0.6,4.5-1.6,6.6-2.7c4.2-2.2,8.4-4.6,12.7-6.6c4.3-2.1,8.8-3.9,13.3-5.2c4.6-1.3,9.3-2.3,14.1-2.7c9.6-1,19.1,0.2,28.6,1
				l14.2,1.5c4.7,0.5,9.5,1,14.3,1.1c4.8,0.2,9.5,0,14.2-1.1c2.3-0.5,4.6-1.3,6.7-2.3c2.2-1,4.2-2.2,6.1-3.6c1.9-1.4,3.7-3,5.4-4.7
				c1.6-1.7,3.3-3.5,4.7-5.3c0.8-0.9,1.5-1.9,2.2-2.8c0.4-0.5,0.7-1,1.1-1.4l1-1.5c0.6-1,1.3-2,1.9-3l1.7-3.2l0.4-0.8l0.3-0.8
				l0.7-1.6c0.4-1.1,1-2.2,1.3-3.3l1.1-3.4c0.3-1.2,0.5-2.3,0.8-3.5c0.1-0.6,0.3-1.2,0.4-1.7l0.3-1.8c0.2-1.2,0.4-2.3,0.5-3.5
				c0.2-2.4,0.4-4.7,0.3-7.1c0.1-9.5-1.8-19-4.9-28l-1.3-3.3l-0.6-1.7l-0.7-1.6l-1.5-3.3l-1.6-3.2l-0.8-1.6c-0.3-0.5-0.6-1-0.9-1.5
				l-1.8-3.1c-0.6-1-1.3-2-2-3c-0.7-1-1.3-2-2-2.9l-2.1-2.9c-0.7-0.9-1.5-1.8-2.3-2.7c-1.5-1.9-3.2-3.5-4.8-5.3
				c-3.4-3.3-7-6.5-10.9-9.2c-7.7-5.6-16.6-9.5-25.8-11.6c-1.2-0.2-2.3-0.4-3.5-0.6l-1.8-0.3c-0.6-0.1-1.2-0.1-1.8-0.2l-3.6-0.3
				c-1.2-0.1-2.4,0-3.6,0c-2.4-0.1-4.8,0.2-7.1,0.3c-2.4,0.1-4.7,0.5-7.1,0.8c-9.4,1.3-18.8,3.7-27.2,8.1
				c-8.5,4.3-16.1,10.5-21.5,18.3c-2.8,3.9-5,8.1-6.8,12.5c-1.8,4.4-3,9-3.8,13.7c-0.8,4.7-1.1,9.5-1,14.2c0,2.4,0.3,4.8,0.6,7.1
				l0.3,1.8l0.4,1.7c0.3,1.1,0.6,2.3,1.3,3.2L700.1,100z"/>
		</g>
		<g>
			<path class="st3" d="M713.4,61.4c2.6-5,6.6-9.2,11.1-12.7c4.5-3.4,9.6-6.3,15-8.2l1-0.4l1-0.3l2.1-0.6l2.1-0.6
				c0.7-0.2,1.4-0.3,2.1-0.5l4.2-0.9c1.4-0.2,2.8-0.3,4.2-0.5c2.8-0.4,5.7-0.4,8.5-0.5c2.9-0.1,5.8,0.1,8.7,0.5
				c1.4,0.2,2.9,0.5,4.3,0.8c1.4,0.4,2.8,0.7,4.2,1.2c2.8,0.9,5.5,2,8,3.4c5.2,2.6,10,5.9,14.4,9.6c8.8,7.4,16.2,16.6,21.2,27.1
				c2.5,5.3,4.3,10.9,5.1,16.8c0.4,2.9,0.5,5.9,0.3,8.9c-0.2,3-1,6-2.1,8.9c-1.2,2.8-2.9,5.5-4.8,7.8c-2,2.3-4.2,4.3-6.6,6.1
				c-2.5,1.7-5.1,3.1-7.9,4.2c-2.7,1.1-5.6,1.8-8.4,2.5c-5.6,1.2-11.3,1.8-16.9,2.1c-5.6,0.4-11.2,0.6-16.7,0.9
				c-5.6,0.3-11.1,0.7-16.5,1.6c-5.5,0.9-10.8,2.4-15.9,4.6l-0.1-0.3c5-2.5,10.4-4.2,15.9-5.3c5.5-1.1,11.1-1.7,16.6-2.2
				c5.6-0.5,11.1-0.8,16.7-1.3c5.6-0.5,11.1-1.2,16.5-2.5c2.7-0.7,5.4-1.5,7.9-2.5c2.6-1.1,5-2.4,7.3-4c2.2-1.6,4.3-3.5,6.1-5.6
				c1.7-2.2,3.2-4.5,4.3-7.1c0.9-2.6,1.6-5.3,1.8-8.1c0.2-2.8,0.1-5.5-0.3-8.3c-0.8-5.5-2.6-10.8-5-15.8c-4.8-10-11.8-19-20.3-26.2
				c-4.2-3.6-8.9-6.8-13.8-9.3c-4.9-2.5-10.2-4.5-15.7-5.4c-2.7-0.4-5.5-0.7-8.3-0.7c-2.8,0.1-5.6,0-8.3,0.3
				c-1.4,0.1-2.8,0.3-4.2,0.4l-4.1,0.7c-0.7,0.1-1.4,0.2-2,0.4l-2,0.5l-2,0.5l-1,0.3l-1,0.4c-5.3,1.7-10.3,4.2-14.9,7.5
				c-1.1,0.8-2.2,1.7-3.3,2.6c-1,0.9-2.1,1.8-3,2.9c-1.9,2-3.7,4.2-5.1,6.6L713.4,61.4z"/>
		</g>
		<g>
			<path class="st3" d="M700.3,99.9c-0.5-1.6-0.5-3.2-0.3-4.8c0.2-1.6,0.6-3.2,1.1-4.7c1-3.1,2.4-6,4-8.8c3.1-5.6,7.2-10.7,12-15.2
				c4.8-4.4,10.3-8.2,16.6-10.6c6.3-2.3,13.4-2.9,20.1-1.1c3.3,0.8,6.5,2.2,9.4,4c2.9,1.8,5.5,3.8,8,6c2.5,2.2,4.7,4.8,6.6,7.6
				c1.9,2.8,3.5,5.9,4.5,9.2c1,3.3,1.6,6.7,1.5,10.1c-0.1,3.4-0.6,6.7-1.5,9.9c-0.5,1.6-1,3.1-1.6,4.6c-0.7,1.5-1.4,2.9-2.2,4.3
				c-1.6,2.8-3.5,5.5-5.7,7.8l-0.2-0.2c1.9-2.5,3.5-5.3,4.8-8.1c1.3-2.9,2.4-5.8,3.1-8.9c1.4-6.1,1.3-12.6-0.7-18.6
				c-2-6-5.9-11.1-10.5-15.4c-2.3-2.1-4.8-4.1-7.5-5.7c-2.7-1.6-5.6-2.9-8.6-3.7c-6-1.7-12.6-1.3-18.5,0.8c-6,2-11.3,5.5-16.1,9.7
				c-4.7,4.2-8.8,9-12.2,14.4c-1.7,2.7-3.2,5.5-4.3,8.4c-0.6,1.5-1,3-1.3,4.5c-0.3,1.5-0.4,3.1,0,4.6L700.3,99.9z"/>
		</g>
		<g>
			<path class="st3" d="M686,139.9c1.9-0.3,3.7-0.6,5.6-1c1.9-0.3,3.7-0.6,5.6-1c3.7-0.7,7.4-1.5,11.1-2.3
				c7.3-1.6,14.6-3.4,21.6-5.8c3.5-1.2,6.9-2.5,10.2-4.1c3.2-1.6,6.3-3.4,8.8-5.7c0.3-0.3,0.6-0.6,0.9-0.9c0.3-0.3,0.5-0.6,0.8-1
				c0.6-0.7,1.1-1.4,1.6-2.1c1-1.4,1.9-2.9,2.7-4.4c1.5-3.1,2.4-6.3,2.4-9.6c0-3.3-0.8-6.6-2.2-9.8c-1.4-3.2-3.3-6.3-5.4-9.3
				c-0.6-0.8-1-1.3-1.5-1.9c-0.5-0.6-1.1-1.1-1.8-1.6c-1.3-1-2.8-1.8-4.4-2.4c-3.2-1.2-6.7-1.9-10.2-1.9c-7.1-0.1-14.4,2-20.3,6.2
				c-2.9,2.1-5.5,4.7-7.3,7.9c-0.9,1.6-1.7,3.3-2.2,5c-0.6,1.8-1,3.6-1.2,5.5l-0.3,0c0.2-3.8,1.1-7.6,2.9-10.9
				c1.7-3.4,4.3-6.3,7.3-8.7c6-4.7,13.6-7.1,21.2-7.3c3.8-0.1,7.6,0.4,11.2,1.7c3.6,1.3,6.9,3.5,9.1,6.7c2.2,3.1,4.3,6.3,5.9,9.7
				c1.6,3.5,2.6,7.2,2.6,11.1c0,3.8-1,7.6-2.8,11c-1.8,3.4-4,6.5-6.7,9.2c-2.8,2.6-6.2,4.5-9.6,6.1c-3.4,1.6-7,2.9-10.6,4
				c-7.2,2.2-14.6,3.8-22.1,5.1c-7.4,1.3-14.9,2.3-22.5,2.9L686,139.9z"/>
		</g>
	</g>
	<g class="st1">
		<g>
			<path class="st3" d="M868.1,100c-0.8-1-1.1-2.2-1.5-3.3l-0.5-1.7l-0.4-1.8c-0.4-2.4-0.7-4.8-0.8-7.2c-0.3-4.8,0-9.6,0.7-14.4
				c0.7-4.8,1.9-9.5,3.6-14.1c1.7-4.6,4-8.9,6.7-13c5.5-8.1,13.3-14.6,21.9-19.2c8.7-4.7,18.2-7.2,27.8-8.7c2.4-0.3,4.8-0.7,7.2-0.9
				c2.4-0.2,4.8-0.5,7.3-0.4c1.2,0,2.5,0,3.7,0l3.7,0.3c0.6,0.1,1.2,0.1,1.8,0.2l1.8,0.3c1.2,0.2,2.4,0.4,3.7,0.6
				c9.7,2.2,18.9,6.2,26.9,12c4.1,2.8,7.8,6.1,11.3,9.4c1.7,1.8,3.5,3.5,5,5.4c0.8,0.9,1.6,1.9,2.4,2.8l2.2,2.9c0.8,1,1.4,2,2.1,3
				c0.7,1,1.4,2,2,3.1l1.9,3.2c0.3,0.5,0.6,1,0.9,1.6l0.9,1.6l1.7,3.3l1.5,3.4l0.8,1.7l0.7,1.7c0.4,1.1,0.9,2.3,1.3,3.4
				c3.1,9.3,5.1,19.1,4.9,29c0.1,2.5-0.2,4.9-0.4,7.4c-0.1,1.2-0.4,2.5-0.5,3.7l-0.3,1.8c-0.1,0.6-0.3,1.2-0.4,1.8
				c-0.3,1.2-0.6,2.4-0.9,3.6l-1.2,3.6c-0.3,1.2-0.9,2.3-1.4,3.5l-0.7,1.7l-0.4,0.9l-0.4,0.8l-1.8,3.3c-0.6,1.1-1.3,2.1-2,3.2
				l-1,1.6c-0.4,0.5-0.7,1-1.1,1.5c-0.7,1-1.5,2-2.3,2.9c-1.5,1.9-3.2,3.8-4.9,5.5c-1.8,1.7-3.6,3.4-5.7,4.9
				c-2.1,1.5-4.2,2.8-6.6,3.9c-2.3,1-4.8,1.9-7.3,2.4c-5,1.1-10,1.2-14.8,1c-4.9-0.2-9.7-0.8-14.4-1.3l-14.2-1.7
				c-4.7-0.5-9.5-1-14.2-1.4c-4.7-0.4-9.4-0.4-14,0c-4.7,0.4-9.3,1.2-13.9,2.4c-4.5,1.2-9,2.9-13.3,4.9c-4.3,2-8.5,4.3-12.8,6.4
				c-2.2,1-4.4,2-6.8,2.5c-1.2,0.3-2.4,0.4-3.6,0.4c-1.2,0-2.4-0.3-3.6-0.8l0.1-0.3c1.1,0.4,2.3,0.6,3.4,0.6c1.2,0,2.4-0.2,3.5-0.5
				c2.3-0.6,4.5-1.6,6.6-2.7c4.2-2.2,8.4-4.6,12.7-6.6c4.3-2.1,8.8-3.9,13.3-5.2c4.6-1.3,9.3-2.3,14.1-2.7c9.6-1,19.1,0.2,28.6,1
				l14.2,1.5c4.7,0.5,9.5,1,14.3,1.1c4.8,0.2,9.5,0,14.2-1.1c2.3-0.5,4.6-1.3,6.7-2.3c2.2-1,4.2-2.2,6.1-3.6c1.9-1.4,3.7-3,5.4-4.7
				c1.6-1.7,3.3-3.5,4.7-5.3c0.8-0.9,1.5-1.9,2.2-2.8c0.4-0.5,0.7-1,1.1-1.4l1-1.5c0.6-1,1.3-2,1.9-3l1.7-3.2l0.4-0.8l0.3-0.8
				l0.7-1.6c0.4-1.1,1-2.2,1.3-3.3l1.1-3.4c0.3-1.2,0.5-2.3,0.8-3.5c0.1-0.6,0.3-1.2,0.4-1.7l0.3-1.8c0.2-1.2,0.4-2.3,0.5-3.5
				c0.2-2.4,0.4-4.7,0.3-7.1c0.1-9.5-1.8-19-4.9-28l-1.3-3.3l-0.6-1.7l-0.7-1.6l-1.5-3.3l-1.6-3.2l-0.8-1.6c-0.3-0.5-0.6-1-0.9-1.5
				l-1.8-3.1c-0.6-1-1.3-2-2-3c-0.7-1-1.3-2-2-2.9l-2.1-2.9c-0.7-0.9-1.5-1.8-2.3-2.7c-1.5-1.9-3.2-3.5-4.8-5.3
				c-3.4-3.3-7-6.5-10.9-9.2c-7.7-5.6-16.6-9.5-25.8-11.6c-1.2-0.2-2.3-0.4-3.5-0.6l-1.8-0.3c-0.6-0.1-1.2-0.1-1.8-0.2l-3.6-0.3
				c-1.2-0.1-2.4,0-3.6,0c-2.4-0.1-4.8,0.2-7.1,0.3c-2.4,0.1-4.7,0.5-7.1,0.8c-9.4,1.3-18.8,3.7-27.2,8.1
				c-8.5,4.3-16.1,10.5-21.5,18.3c-2.8,3.9-5,8.1-6.8,12.5c-1.8,4.4-3,9-3.8,13.7c-0.8,4.7-1.1,9.5-1,14.2c0,2.4,0.3,4.8,0.6,7.1
				l0.3,1.8l0.4,1.7c0.3,1.1,0.6,2.3,1.3,3.2L868.1,100z"/>
		</g>
		<g>
			<path class="st3" d="M881.5,61.4c2.6-5,6.6-9.2,11.1-12.7c4.5-3.4,9.6-6.3,15-8.2l1-0.4l1-0.3l2.1-0.6l2.1-0.6
				c0.7-0.2,1.4-0.3,2.1-0.5l4.2-0.9c1.4-0.2,2.8-0.3,4.2-0.5c2.8-0.4,5.7-0.4,8.5-0.5c2.9-0.1,5.8,0.1,8.7,0.5
				c1.4,0.2,2.9,0.5,4.3,0.8c1.4,0.4,2.8,0.7,4.2,1.2c2.8,0.9,5.5,2,8,3.4c5.2,2.6,10,5.9,14.4,9.6c8.8,7.4,16.2,16.6,21.2,27.1
				c2.5,5.3,4.3,10.9,5.1,16.8c0.4,2.9,0.5,5.9,0.3,8.9c-0.2,3-1,6-2.1,8.9c-1.2,2.8-2.9,5.5-4.8,7.8c-2,2.3-4.2,4.3-6.6,6.1
				c-2.5,1.7-5.1,3.1-7.9,4.2c-2.7,1.1-5.6,1.8-8.4,2.5c-5.6,1.2-11.3,1.8-16.9,2.1c-5.6,0.4-11.2,0.6-16.7,0.9
				c-5.6,0.3-11.1,0.7-16.5,1.6c-5.5,0.9-10.8,2.4-15.9,4.6l-0.1-0.3c5-2.5,10.4-4.2,15.9-5.3c5.5-1.1,11.1-1.7,16.6-2.2
				c5.6-0.5,11.1-0.8,16.7-1.3c5.6-0.5,11.1-1.2,16.5-2.5c2.7-0.7,5.4-1.5,7.9-2.5c2.6-1.1,5-2.4,7.3-4c2.2-1.6,4.3-3.5,6.1-5.6
				c1.7-2.2,3.2-4.5,4.3-7.1c0.9-2.6,1.6-5.3,1.8-8.1c0.2-2.8,0.1-5.5-0.3-8.3c-0.8-5.5-2.6-10.8-5-15.8c-4.8-10-11.8-19-20.3-26.2
				c-4.2-3.6-8.9-6.8-13.8-9.3c-4.9-2.5-10.2-4.5-15.7-5.4c-2.7-0.4-5.5-0.7-8.3-0.7c-2.8,0.1-5.6,0-8.3,0.3
				c-1.4,0.1-2.8,0.3-4.2,0.4l-4.1,0.7c-0.7,0.1-1.4,0.2-2,0.4l-2,0.5l-2,0.5l-1,0.3l-1,0.4c-5.3,1.7-10.3,4.2-14.9,7.5
				c-1.1,0.8-2.2,1.7-3.3,2.6c-1,0.9-2.1,1.8-3,2.9c-1.9,2-3.7,4.2-5.1,6.6L881.5,61.4z"/>
		</g>
		<g>
			<path class="st3" d="M868.4,99.9c-0.5-1.6-0.5-3.2-0.3-4.8c0.2-1.6,0.6-3.2,1.1-4.7c1-3.1,2.4-6,4-8.8c3.1-5.6,7.2-10.7,12-15.2
				c4.8-4.4,10.3-8.2,16.6-10.6c6.3-2.3,13.4-2.9,20.1-1.1c3.3,0.8,6.5,2.2,9.4,4c2.9,1.8,5.5,3.8,8,6c2.5,2.2,4.7,4.8,6.6,7.6
				c1.9,2.8,3.5,5.9,4.5,9.2c1,3.3,1.6,6.7,1.5,10.1c-0.1,3.4-0.6,6.7-1.5,9.9c-0.5,1.6-1,3.1-1.6,4.6c-0.7,1.5-1.4,2.9-2.2,4.3
				c-1.6,2.8-3.5,5.5-5.7,7.8l-0.2-0.2c1.9-2.5,3.5-5.3,4.8-8.1c1.3-2.9,2.4-5.8,3.1-8.9c1.4-6.1,1.3-12.6-0.7-18.6
				c-2-6-5.9-11.1-10.5-15.4c-2.3-2.1-4.8-4.1-7.5-5.7c-2.7-1.6-5.6-2.9-8.6-3.7c-6-1.7-12.6-1.3-18.5,0.8c-6,2-11.3,5.5-16.1,9.7
				c-4.7,4.2-8.8,9-12.2,14.4c-1.7,2.7-3.2,5.5-4.3,8.4c-0.6,1.5-1,3-1.3,4.5c-0.3,1.5-0.4,3.1,0,4.6L868.4,99.9z"/>
		</g>
		<g>
			<path class="st3" d="M854.1,139.9c1.9-0.3,3.7-0.6,5.6-1c1.9-0.3,3.7-0.6,5.6-1c3.7-0.7,7.4-1.5,11.1-2.3
				c7.3-1.6,14.6-3.4,21.6-5.8c3.5-1.2,6.9-2.5,10.2-4.1c3.2-1.6,6.3-3.4,8.8-5.7c0.3-0.3,0.6-0.6,0.9-0.9c0.3-0.3,0.5-0.6,0.8-1
				c0.6-0.7,1.1-1.4,1.6-2.1c1-1.4,1.9-2.9,2.7-4.4c1.5-3.1,2.4-6.3,2.4-9.6c0-3.3-0.8-6.6-2.2-9.8c-1.4-3.2-3.3-6.3-5.4-9.3
				c-0.6-0.8-1-1.3-1.5-1.9c-0.5-0.6-1.1-1.1-1.8-1.6c-1.3-1-2.8-1.8-4.4-2.4c-3.2-1.2-6.7-1.9-10.2-1.9c-7.1-0.1-14.4,2-20.3,6.2
				c-2.9,2.1-5.5,4.7-7.3,7.9c-0.9,1.6-1.7,3.3-2.2,5c-0.6,1.8-1,3.6-1.2,5.5l-0.3,0c0.2-3.8,1.1-7.6,2.9-10.9
				c1.7-3.4,4.3-6.3,7.3-8.7c6-4.7,13.6-7.1,21.2-7.3c3.8-0.1,7.6,0.4,11.2,1.7c3.6,1.3,6.9,3.5,9.1,6.7c2.2,3.1,4.3,6.3,5.9,9.7
				c1.6,3.5,2.6,7.2,2.6,11.1c0,3.8-1,7.6-2.8,11c-1.8,3.4-4,6.5-6.7,9.2c-2.8,2.6-6.2,4.5-9.6,6.1c-3.4,1.6-7,2.9-10.6,4
				c-7.2,2.2-14.6,3.8-22.1,5.1c-7.4,1.3-14.9,2.3-22.5,2.9L854.1,139.9z"/>
		</g>
	</g>
	<g class="st1">
		<g>
			<path class="st3" d="M1037.8,100c-0.8-1-1.1-2.2-1.5-3.3l-0.5-1.7l-0.4-1.8c-0.4-2.4-0.7-4.8-0.8-7.2c-0.3-4.8,0-9.6,0.7-14.4
				c0.7-4.8,1.9-9.5,3.6-14.1c1.7-4.6,4-8.9,6.7-13c5.5-8.1,13.3-14.6,21.9-19.2c8.7-4.7,18.2-7.2,27.8-8.7c2.4-0.3,4.8-0.7,7.2-0.9
				c2.4-0.2,4.8-0.5,7.3-0.4c1.2,0,2.5,0,3.7,0l3.7,0.3c0.6,0.1,1.2,0.1,1.8,0.2l1.8,0.3c1.2,0.2,2.4,0.4,3.7,0.6
				c9.7,2.2,18.9,6.2,26.9,12c4.1,2.8,7.8,6.1,11.3,9.4c1.7,1.8,3.5,3.5,5,5.4c0.8,0.9,1.6,1.9,2.4,2.8l2.2,2.9c0.8,1,1.4,2,2.1,3
				c0.7,1,1.4,2,2,3.1l1.9,3.2c0.3,0.5,0.6,1,0.9,1.6l0.9,1.6l1.7,3.3l1.5,3.4l0.8,1.7l0.7,1.7c0.4,1.1,0.9,2.3,1.3,3.4
				c3.1,9.3,5.1,19.1,4.9,29c0.1,2.5-0.2,4.9-0.4,7.4c-0.1,1.2-0.4,2.5-0.5,3.7l-0.3,1.8c-0.1,0.6-0.3,1.2-0.4,1.8
				c-0.3,1.2-0.6,2.4-0.9,3.6l-1.2,3.6c-0.3,1.2-0.9,2.3-1.4,3.5l-0.7,1.7l-0.4,0.9l-0.4,0.8l-1.8,3.3c-0.6,1.1-1.3,2.1-2,3.2
				l-1,1.6c-0.4,0.5-0.7,1-1.1,1.5c-0.7,1-1.5,2-2.3,2.9c-1.5,1.9-3.2,3.8-4.9,5.5c-1.8,1.7-3.6,3.4-5.7,4.9
				c-2.1,1.5-4.2,2.8-6.6,3.9c-2.3,1-4.8,1.9-7.3,2.4c-5,1.1-10,1.2-14.8,1c-4.9-0.2-9.7-0.8-14.4-1.3l-14.2-1.7
				c-4.7-0.5-9.5-1-14.2-1.4c-4.7-0.4-9.4-0.4-14,0c-4.7,0.4-9.3,1.2-13.9,2.4c-4.5,1.2-9,2.9-13.3,4.9c-4.3,2-8.5,4.3-12.8,6.4
				c-2.2,1-4.4,2-6.8,2.5c-1.2,0.3-2.4,0.4-3.6,0.4c-1.2,0-2.4-0.3-3.6-0.8l0.1-0.3c1.1,0.4,2.3,0.6,3.4,0.6c1.2,0,2.4-0.2,3.5-0.5
				c2.3-0.6,4.5-1.6,6.6-2.7c4.2-2.2,8.4-4.6,12.7-6.6c4.3-2.1,8.8-3.9,13.3-5.2c4.6-1.3,9.3-2.3,14.1-2.7c9.6-1,19.1,0.2,28.6,1
				l14.2,1.5c4.7,0.5,9.5,1,14.3,1.1c4.8,0.2,9.5,0,14.2-1.1c2.3-0.5,4.6-1.3,6.7-2.3c2.2-1,4.2-2.2,6.1-3.6c1.9-1.4,3.7-3,5.4-4.7
				c1.6-1.7,3.3-3.5,4.7-5.3c0.8-0.9,1.5-1.9,2.2-2.8c0.4-0.5,0.7-1,1.1-1.4l1-1.5c0.6-1,1.3-2,1.9-3l1.7-3.2l0.4-0.8l0.3-0.8
				l0.7-1.6c0.4-1.1,1-2.2,1.3-3.3l1.1-3.4c0.3-1.2,0.5-2.3,0.8-3.5c0.1-0.6,0.3-1.2,0.4-1.7l0.3-1.8c0.2-1.2,0.4-2.3,0.5-3.5
				c0.2-2.4,0.4-4.7,0.3-7.1c0.1-9.5-1.8-19-4.9-28l-1.3-3.3l-0.6-1.7l-0.7-1.6l-1.5-3.3l-1.6-3.2l-0.8-1.6c-0.3-0.5-0.6-1-0.9-1.5
				l-1.8-3.1c-0.6-1-1.3-2-2-3c-0.7-1-1.3-2-2-2.9l-2.1-2.9c-0.7-0.9-1.5-1.8-2.3-2.7c-1.5-1.9-3.2-3.5-4.8-5.3
				c-3.4-3.3-7-6.5-10.9-9.2c-7.7-5.6-16.6-9.5-25.8-11.6c-1.2-0.2-2.3-0.4-3.5-0.6l-1.8-0.3c-0.6-0.1-1.2-0.1-1.8-0.2l-3.6-0.3
				c-1.2-0.1-2.4,0-3.6,0c-2.4-0.1-4.8,0.2-7.1,0.3c-2.4,0.1-4.7,0.5-7.1,0.8c-9.4,1.3-18.8,3.7-27.2,8.1
				c-8.5,4.3-16.1,10.5-21.5,18.3c-2.8,3.9-5,8.1-6.8,12.5c-1.8,4.4-3,9-3.8,13.7c-0.8,4.7-1.1,9.5-1,14.2c0,2.4,0.3,4.8,0.6,7.1
				l0.3,1.8l0.4,1.7c0.3,1.1,0.6,2.3,1.3,3.2L1037.8,100z"/>
		</g>
		<g>
			<path class="st3" d="M1051.1,61.4c2.6-5,6.6-9.2,11.1-12.7c4.5-3.4,9.6-6.3,15-8.2l1-0.4l1-0.3l2.1-0.6l2.1-0.6
				c0.7-0.2,1.4-0.3,2.1-0.5l4.2-0.9c1.4-0.2,2.8-0.3,4.2-0.5c2.8-0.4,5.7-0.4,8.5-0.5c2.9-0.1,5.8,0.1,8.7,0.5
				c1.4,0.2,2.9,0.5,4.3,0.8c1.4,0.4,2.8,0.7,4.2,1.2c2.8,0.9,5.5,2,8,3.4c5.2,2.6,10,5.9,14.4,9.6c8.8,7.4,16.2,16.6,21.2,27.1
				c2.5,5.3,4.3,10.9,5.1,16.8c0.4,2.9,0.5,5.9,0.3,8.9c-0.2,3-1,6-2.1,8.9c-1.2,2.8-2.9,5.5-4.8,7.8c-2,2.3-4.2,4.3-6.6,6.1
				c-2.5,1.7-5.1,3.1-7.9,4.2c-2.7,1.1-5.6,1.8-8.4,2.5c-5.6,1.2-11.3,1.8-16.9,2.1c-5.6,0.4-11.2,0.6-16.7,0.9
				c-5.6,0.3-11.1,0.7-16.5,1.6c-5.5,0.9-10.8,2.4-15.9,4.6l-0.1-0.3c5-2.5,10.4-4.2,15.9-5.3c5.5-1.1,11.1-1.7,16.6-2.2
				c5.6-0.5,11.1-0.8,16.7-1.3c5.6-0.5,11.1-1.2,16.5-2.5c2.7-0.7,5.4-1.5,7.9-2.5c2.6-1.1,5-2.4,7.3-4c2.2-1.6,4.3-3.5,6.1-5.6
				c1.7-2.2,3.2-4.5,4.3-7.1c0.9-2.6,1.6-5.3,1.8-8.1c0.2-2.8,0.1-5.5-0.3-8.3c-0.8-5.5-2.6-10.8-5-15.8c-4.8-10-11.8-19-20.3-26.2
				c-4.2-3.6-8.9-6.8-13.8-9.3c-4.9-2.5-10.2-4.5-15.7-5.4c-2.7-0.4-5.5-0.7-8.3-0.7c-2.8,0.1-5.6,0-8.3,0.3
				c-1.4,0.1-2.8,0.3-4.2,0.4l-4.1,0.7c-0.7,0.1-1.4,0.2-2,0.4l-2,0.5l-2,0.5l-1,0.3l-1,0.4c-5.3,1.7-10.3,4.2-14.9,7.5
				c-1.1,0.8-2.2,1.7-3.3,2.6c-1,0.9-2.1,1.8-3,2.9c-1.9,2-3.7,4.2-5.1,6.6L1051.1,61.4z"/>
		</g>
		<g>
			<path class="st3" d="M1038,99.9c-0.5-1.6-0.5-3.2-0.3-4.8c0.2-1.6,0.6-3.2,1.1-4.7c1-3.1,2.4-6,4-8.8c3.1-5.6,7.2-10.7,12-15.2
				c4.8-4.4,10.3-8.2,16.6-10.6c6.3-2.3,13.4-2.9,20.1-1.1c3.3,0.8,6.5,2.2,9.4,4c2.9,1.8,5.5,3.8,8,6c2.5,2.2,4.7,4.8,6.6,7.6
				c1.9,2.8,3.5,5.9,4.5,9.2c1,3.3,1.6,6.7,1.5,10.1c-0.1,3.4-0.6,6.7-1.5,9.9c-0.5,1.6-1,3.1-1.6,4.6c-0.7,1.5-1.4,2.9-2.2,4.3
				c-1.6,2.8-3.5,5.5-5.7,7.8l-0.2-0.2c1.9-2.5,3.5-5.3,4.8-8.1c1.3-2.9,2.4-5.8,3.1-8.9c1.4-6.1,1.3-12.6-0.7-18.6
				c-2-6-5.9-11.1-10.5-15.4c-2.3-2.1-4.8-4.1-7.5-5.7c-2.7-1.6-5.6-2.9-8.6-3.7c-6-1.7-12.6-1.3-18.5,0.8c-6,2-11.3,5.5-16.1,9.7
				c-4.7,4.2-8.8,9-12.2,14.4c-1.7,2.7-3.2,5.5-4.3,8.4c-0.6,1.5-1,3-1.3,4.5c-0.3,1.5-0.4,3.1,0,4.6L1038,99.9z"/>
		</g>
		<g>
			<path class="st3" d="M1023.7,139.9c1.9-0.3,3.7-0.6,5.6-1c1.9-0.3,3.7-0.6,5.6-1c3.7-0.7,7.4-1.5,11.1-2.3
				c7.3-1.6,14.6-3.4,21.6-5.8c3.5-1.2,6.9-2.5,10.2-4.1c3.2-1.6,6.3-3.4,8.8-5.7c0.3-0.3,0.6-0.6,0.9-0.9c0.3-0.3,0.5-0.6,0.8-1
				c0.6-0.7,1.1-1.4,1.6-2.1c1-1.4,1.9-2.9,2.7-4.4c1.5-3.1,2.4-6.3,2.4-9.6c0-3.3-0.8-6.6-2.2-9.8c-1.4-3.2-3.3-6.3-5.4-9.3
				c-0.6-0.8-1-1.3-1.5-1.9c-0.5-0.6-1.1-1.1-1.8-1.6c-1.3-1-2.8-1.8-4.4-2.4c-3.2-1.2-6.7-1.9-10.2-1.9c-7.1-0.1-14.4,2-20.3,6.2
				c-2.9,2.1-5.5,4.7-7.3,7.9c-0.9,1.6-1.7,3.3-2.2,5c-0.6,1.8-1,3.6-1.2,5.5l-0.3,0c0.2-3.8,1.1-7.6,2.9-10.9
				c1.7-3.4,4.3-6.3,7.3-8.7c6-4.7,13.6-7.1,21.2-7.3c3.8-0.1,7.6,0.4,11.2,1.7c3.6,1.3,6.9,3.5,9.1,6.7c2.2,3.1,4.3,6.3,5.9,9.7
				c1.6,3.5,2.6,7.2,2.6,11.1c0,3.8-1,7.6-2.8,11c-1.8,3.4-4,6.5-6.7,9.2c-2.8,2.6-6.2,4.5-9.6,6.1c-3.4,1.6-7,2.9-10.6,4
				c-7.2,2.2-14.6,3.8-22.1,5.1c-7.4,1.3-14.9,2.3-22.5,2.9L1023.7,139.9z"/>
		</g>
	</g>
	<rect x="-6.1" y="142.5" class="st4" width="1389.8" height="101.7"/>
	<rect x="1193.9" y="-4.4" class="st0" width="1389.8" height="162.7"/>
	<g class="st1">
		<defs>
			
				<rect id="SVGID_5_" x="1721.9" y="-565.7" transform="matrix(3.210963e-03 -1 1 3.210963e-03 1761.1761 1948.5387)" width="272.2" height="1313"/>
		</defs>
		<clipPath id="SVGID_6_">
			<use xlink:href="#SVGID_5_"  style="overflow:visible;"/>
		</clipPath>
		<path class="st5" d="M1184,141c0,0,100.2,0.4,90.2-43.4c-10.5-46-60.8-18.5-58.8,2.3c0,0-17.7-51.2,37.7-75.4
			c74.5-32.5,150.8,59.5,94.5,126C1283.7,226.1,1184,141,1184,141z"/>
		<path class="st5" d="M1355.4,141.8c0,0,100.2,0.4,90.2-43.4c-10.5-46-60.8-18.5-58.8,2.3c0,0-17.7-51.2,37.7-75.4
			c74.5-32.5,150.8,59.5,94.5,126C1455.1,226.9,1355.4,141.8,1355.4,141.8z"/>
		<path class="st5" d="M1525.5,141.8c0,0,100.2,0.4,90.2-43.4c-10.5-46-60.8-18.5-58.8,2.3c0,0-17.7-51.2,37.7-75.4
			c74.5-32.5,150.8,59.5,94.5,126C1625.2,226.9,1525.5,141.8,1525.5,141.8z"/>
		<path class="st5" d="M1696.4,141.8c0,0,100.2,0.4,90.2-43.4c-10.5-46-60.8-18.5-58.8,2.3c0,0-17.7-51.2,37.7-75.4
			c74.5-32.5,150.8,59.5,94.5,126C1796.1,226.9,1696.4,141.8,1696.4,141.8z"/>
		<path class="st5" d="M1866.5,141.8c0,0,100.2,0.4,90.2-43.4c-10.5-46-60.8-18.5-58.8,2.3c0,0-17.7-51.2,37.7-75.4
			c74.5-32.5,150.8,59.5,94.5,126C1966.2,226.9,1866.5,141.8,1866.5,141.8z"/>
		<path class="st5" d="M2035.7,141.8c0,0,100.2,0.4,90.2-43.4c-10.5-46-60.8-18.5-58.8,2.3c0,0-17.7-51.2,37.7-75.4
			c74.5-32.5,150.8,59.5,94.5,126C2135.4,226.9,2035.7,141.8,2035.7,141.8z"/>
		<path class="st5" d="M2204.9,143.5c0,0,100.2,0.4,90.2-43.4c-10.5-46-60.8-18.5-58.8,2.3c0,0-17.7-51.2,37.7-75.4
			c74.5-32.5,150.8,59.5,94.5,126C2304.6,228.6,2204.9,143.5,2204.9,143.5z"/>
	</g>
	<g class="st1">
		<g>
			<path class="st3" d="M1216.3,100c-0.8-1-1.1-2.2-1.5-3.3l-0.5-1.7l-0.4-1.8c-0.4-2.4-0.7-4.8-0.8-7.2c-0.3-4.8,0-9.6,0.7-14.4
				c0.7-4.8,1.9-9.5,3.6-14.1c1.7-4.6,4-8.9,6.7-13c5.5-8.1,13.3-14.6,21.9-19.2c8.7-4.7,18.2-7.2,27.8-8.7c2.4-0.3,4.8-0.7,7.2-0.9
				c2.4-0.2,4.8-0.5,7.3-0.4c1.2,0,2.5,0,3.7,0l3.7,0.3c0.6,0.1,1.2,0.1,1.8,0.2l1.8,0.3c1.2,0.2,2.4,0.4,3.7,0.6
				c9.7,2.2,18.9,6.2,26.9,12c4.1,2.8,7.8,6.1,11.3,9.4c1.7,1.8,3.5,3.5,5,5.4c0.8,0.9,1.6,1.9,2.4,2.8l2.2,2.9c0.8,1,1.4,2,2.1,3
				c0.7,1,1.4,2,2,3.1l1.9,3.2c0.3,0.5,0.6,1,0.9,1.6l0.9,1.6l1.7,3.3l1.5,3.4l0.8,1.7l0.7,1.7c0.4,1.1,0.9,2.3,1.3,3.4
				c3.1,9.3,5.1,19.1,4.9,29c0.1,2.5-0.2,4.9-0.4,7.4c-0.1,1.2-0.4,2.5-0.5,3.7l-0.3,1.8c-0.1,0.6-0.3,1.2-0.4,1.8
				c-0.3,1.2-0.6,2.4-0.9,3.6l-1.2,3.6c-0.3,1.2-0.9,2.3-1.4,3.5l-0.7,1.7l-0.4,0.9l-0.4,0.8l-1.8,3.3c-0.6,1.1-1.3,2.1-2,3.2
				l-1,1.6c-0.4,0.5-0.7,1-1.1,1.5c-0.7,1-1.5,2-2.3,2.9c-1.5,1.9-3.2,3.8-4.9,5.5c-1.8,1.7-3.6,3.4-5.7,4.9
				c-2.1,1.5-4.2,2.8-6.6,3.9c-2.3,1-4.8,1.9-7.3,2.4c-5,1.1-10,1.2-14.8,1c-4.9-0.2-9.7-0.8-14.4-1.3l-14.2-1.7
				c-4.7-0.5-9.5-1-14.2-1.4c-4.7-0.4-9.4-0.4-14,0c-4.7,0.4-9.3,1.2-13.9,2.4c-4.5,1.2-9,2.9-13.3,4.9c-4.3,2-8.5,4.3-12.8,6.4
				c-2.2,1-4.4,2-6.8,2.5c-1.2,0.3-2.4,0.4-3.6,0.4c-1.2,0-2.4-0.3-3.6-0.8l0.1-0.3c1.1,0.4,2.3,0.6,3.4,0.6c1.2,0,2.4-0.2,3.5-0.5
				c2.3-0.6,4.5-1.6,6.6-2.7c4.2-2.2,8.4-4.6,12.7-6.6c4.3-2.1,8.8-3.9,13.3-5.2c4.6-1.3,9.3-2.3,14.1-2.7c9.6-1,19.1,0.2,28.6,1
				l14.2,1.5c4.7,0.5,9.5,1,14.3,1.1c4.8,0.2,9.5,0,14.2-1.1c2.3-0.5,4.6-1.3,6.7-2.3c2.2-1,4.2-2.2,6.1-3.6c1.9-1.4,3.7-3,5.4-4.7
				c1.6-1.7,3.3-3.5,4.7-5.3c0.8-0.9,1.5-1.9,2.2-2.8c0.4-0.5,0.7-1,1.1-1.4l1-1.5c0.6-1,1.3-2,1.9-3l1.7-3.2l0.4-0.8l0.3-0.8
				l0.7-1.6c0.4-1.1,1-2.2,1.3-3.3l1.1-3.4c0.3-1.2,0.5-2.3,0.8-3.5c0.1-0.6,0.3-1.2,0.4-1.7l0.3-1.8c0.2-1.2,0.4-2.3,0.5-3.5
				c0.2-2.4,0.4-4.7,0.3-7.1c0.1-9.5-1.8-19-4.9-28l-1.3-3.3l-0.6-1.7l-0.7-1.6l-1.5-3.3l-1.6-3.2l-0.8-1.6c-0.3-0.5-0.6-1-0.9-1.5
				l-1.8-3.1c-0.6-1-1.3-2-2-3c-0.7-1-1.3-2-2-2.9l-2.1-2.9c-0.7-0.9-1.5-1.8-2.3-2.7c-1.5-1.9-3.2-3.5-4.8-5.3
				c-3.4-3.3-7-6.5-10.9-9.2c-7.7-5.6-16.6-9.5-25.8-11.6c-1.2-0.2-2.3-0.4-3.5-0.6l-1.8-0.3c-0.6-0.1-1.2-0.1-1.8-0.2l-3.6-0.3
				c-1.2-0.1-2.4,0-3.6,0c-2.4-0.1-4.8,0.2-7.1,0.3c-2.4,0.1-4.7,0.5-7.1,0.8c-9.4,1.3-18.8,3.7-27.2,8.1
				c-8.5,4.3-16.1,10.5-21.5,18.3c-2.8,3.9-5,8.1-6.8,12.5c-1.8,4.4-3,9-3.8,13.7c-0.8,4.7-1.1,9.5-1,14.2c0,2.4,0.3,4.8,0.6,7.1
				l0.3,1.8l0.4,1.7c0.3,1.1,0.6,2.3,1.3,3.2L1216.3,100z"/>
		</g>
		<g>
			<path class="st3" d="M1229.7,61.4c2.6-5,6.6-9.2,11.1-12.7c4.5-3.4,9.6-6.3,15-8.2l1-0.4l1-0.3l2.1-0.6l2.1-0.6
				c0.7-0.2,1.4-0.3,2.1-0.5l4.2-0.9c1.4-0.2,2.8-0.3,4.2-0.5c2.8-0.4,5.7-0.4,8.5-0.5c2.9-0.1,5.8,0.1,8.7,0.5
				c1.4,0.2,2.9,0.5,4.3,0.8c1.4,0.4,2.8,0.7,4.2,1.2c2.8,0.9,5.5,2,8,3.4c5.2,2.6,10,5.9,14.4,9.6c8.8,7.4,16.2,16.6,21.2,27.1
				c2.5,5.3,4.3,10.9,5.1,16.8c0.4,2.9,0.5,5.9,0.3,8.9c-0.2,3-1,6-2.1,8.9c-1.2,2.8-2.9,5.5-4.8,7.8c-2,2.3-4.2,4.3-6.6,6.1
				c-2.5,1.7-5.1,3.1-7.9,4.2c-2.7,1.1-5.6,1.8-8.4,2.5c-5.6,1.2-11.3,1.8-16.9,2.1c-5.6,0.4-11.2,0.6-16.7,0.9
				c-5.6,0.3-11.1,0.7-16.5,1.6c-5.5,0.9-10.8,2.4-15.9,4.6l-0.1-0.3c5-2.5,10.4-4.2,15.9-5.3c5.5-1.1,11.1-1.7,16.6-2.2
				c5.6-0.5,11.1-0.8,16.7-1.3c5.6-0.5,11.1-1.2,16.5-2.5c2.7-0.7,5.4-1.5,7.9-2.5c2.6-1.1,5-2.4,7.3-4c2.2-1.6,4.3-3.5,6.1-5.6
				c1.7-2.2,3.2-4.5,4.3-7.1c0.9-2.6,1.6-5.3,1.8-8.1c0.2-2.8,0.1-5.5-0.3-8.3c-0.8-5.5-2.6-10.8-5-15.8c-4.8-10-11.8-19-20.3-26.2
				c-4.2-3.6-8.9-6.8-13.8-9.3c-4.9-2.5-10.2-4.5-15.7-5.4c-2.7-0.4-5.5-0.7-8.3-0.7c-2.8,0.1-5.6,0-8.3,0.3
				c-1.4,0.1-2.8,0.3-4.2,0.4l-4.1,0.7c-0.7,0.1-1.4,0.2-2,0.4l-2,0.5l-2,0.5l-1,0.3l-1,0.4c-5.3,1.7-10.3,4.2-14.9,7.5
				c-1.1,0.8-2.2,1.7-3.3,2.6c-1,0.9-2.1,1.8-3,2.9c-1.9,2-3.7,4.2-5.1,6.6L1229.7,61.4z"/>
		</g>
		<g>
			<path class="st3" d="M1216.6,99.9c-0.5-1.6-0.5-3.2-0.3-4.8c0.2-1.6,0.6-3.2,1.1-4.7c1-3.1,2.4-6,4-8.8c3.1-5.6,7.2-10.7,12-15.2
				c4.8-4.4,10.3-8.2,16.6-10.6c6.3-2.3,13.4-2.9,20.1-1.1c3.3,0.8,6.5,2.2,9.4,4c2.9,1.8,5.5,3.8,8,6c2.5,2.2,4.7,4.8,6.6,7.6
				c1.9,2.8,3.5,5.9,4.5,9.2c1,3.3,1.6,6.7,1.5,10.1c-0.1,3.4-0.6,6.7-1.5,9.9c-0.5,1.6-1,3.1-1.6,4.6c-0.7,1.5-1.4,2.9-2.2,4.3
				c-1.6,2.8-3.5,5.5-5.7,7.8l-0.2-0.2c1.9-2.5,3.5-5.3,4.8-8.1c1.3-2.9,2.4-5.8,3.1-8.9c1.4-6.1,1.3-12.6-0.7-18.6
				c-2-6-5.9-11.1-10.5-15.4c-2.3-2.1-4.8-4.1-7.5-5.7c-2.7-1.6-5.6-2.9-8.6-3.7c-6-1.7-12.6-1.3-18.5,0.8c-6,2-11.3,5.5-16.1,9.7
				c-4.7,4.2-8.8,9-12.2,14.4c-1.7,2.7-3.2,5.5-4.3,8.4c-0.6,1.5-1,3-1.3,4.5c-0.3,1.5-0.4,3.1,0,4.6L1216.6,99.9z"/>
		</g>
		<g>
			<path class="st3" d="M1202.3,139.9c1.9-0.3,3.7-0.6,5.6-1c1.9-0.3,3.7-0.6,5.6-1c3.7-0.7,7.4-1.5,11.1-2.3
				c7.3-1.6,14.6-3.4,21.6-5.8c3.5-1.2,6.9-2.5,10.2-4.1c3.2-1.6,6.3-3.4,8.8-5.7c0.3-0.3,0.6-0.6,0.9-0.9c0.3-0.3,0.5-0.6,0.8-1
				c0.6-0.7,1.1-1.4,1.6-2.1c1-1.4,1.9-2.9,2.7-4.4c1.5-3.1,2.4-6.3,2.4-9.6c0-3.3-0.8-6.6-2.2-9.8c-1.4-3.2-3.3-6.3-5.4-9.3
				c-0.6-0.8-1-1.3-1.5-1.9c-0.5-0.6-1.1-1.1-1.8-1.6c-1.3-1-2.8-1.8-4.4-2.4c-3.2-1.2-6.7-1.9-10.2-1.9c-7.1-0.1-14.4,2-20.3,6.2
				c-2.9,2.1-5.5,4.7-7.3,7.9c-0.9,1.6-1.7,3.3-2.2,5c-0.6,1.8-1,3.6-1.2,5.5l-0.3,0c0.2-3.8,1.1-7.6,2.9-10.9
				c1.7-3.4,4.3-6.3,7.3-8.7c6-4.7,13.6-7.1,21.2-7.3c3.8-0.1,7.6,0.4,11.2,1.7c3.6,1.3,6.9,3.5,9.1,6.7c2.2,3.1,4.3,6.3,5.9,9.7
				c1.6,3.5,2.6,7.2,2.6,11.1c0,3.8-1,7.6-2.8,11c-1.8,3.4-4,6.5-6.7,9.2c-2.8,2.6-6.2,4.5-9.6,6.1c-3.4,1.6-7,2.9-10.6,4
				c-7.2,2.2-14.6,3.8-22.1,5.1c-7.4,1.3-14.9,2.3-22.5,2.9L1202.3,139.9z"/>
		</g>
	</g>
	<g class="st1">
		<g>
			<path class="st3" d="M1387.9,100c-0.8-1-1.1-2.2-1.5-3.3l-0.5-1.7l-0.4-1.8c-0.4-2.4-0.7-4.8-0.8-7.2c-0.3-4.8,0-9.6,0.7-14.4
				c0.7-4.8,1.9-9.5,3.6-14.1c1.7-4.6,4-8.9,6.7-13c5.5-8.1,13.3-14.6,21.9-19.2c8.7-4.7,18.2-7.2,27.8-8.7c2.4-0.3,4.8-0.7,7.2-0.9
				c2.4-0.2,4.8-0.5,7.3-0.4c1.2,0,2.5,0,3.7,0l3.7,0.3c0.6,0.1,1.2,0.1,1.8,0.2l1.8,0.3c1.2,0.2,2.4,0.4,3.7,0.6
				c9.7,2.2,18.9,6.2,26.9,12c4.1,2.8,7.8,6.1,11.3,9.4c1.7,1.8,3.5,3.5,5,5.4c0.8,0.9,1.6,1.9,2.4,2.8l2.2,2.9c0.8,1,1.4,2,2.1,3
				c0.7,1,1.4,2,2,3.1l1.9,3.2c0.3,0.5,0.6,1,0.9,1.6l0.9,1.6l1.7,3.3l1.5,3.4l0.8,1.7l0.7,1.7c0.4,1.1,0.9,2.3,1.3,3.4
				c3.1,9.3,5.1,19.1,4.9,29c0.1,2.5-0.2,4.9-0.4,7.4c-0.1,1.2-0.4,2.5-0.5,3.7l-0.3,1.8c-0.1,0.6-0.3,1.2-0.4,1.8
				c-0.3,1.2-0.6,2.4-0.9,3.6l-1.2,3.6c-0.3,1.2-0.9,2.3-1.4,3.5l-0.7,1.7l-0.4,0.9l-0.4,0.8l-1.8,3.3c-0.6,1.1-1.3,2.1-2,3.2
				l-1,1.6c-0.4,0.5-0.7,1-1.1,1.5c-0.7,1-1.5,2-2.3,2.9c-1.5,1.9-3.2,3.8-4.9,5.5c-1.8,1.7-3.6,3.4-5.7,4.9
				c-2.1,1.5-4.2,2.8-6.6,3.9c-2.3,1-4.8,1.9-7.3,2.4c-5,1.1-10,1.2-14.8,1c-4.9-0.2-9.7-0.8-14.4-1.3l-14.2-1.7
				c-4.7-0.5-9.5-1-14.2-1.4c-4.7-0.4-9.4-0.4-14,0c-4.7,0.4-9.3,1.2-13.9,2.4c-4.5,1.2-9,2.9-13.3,4.9c-4.3,2-8.5,4.3-12.8,6.4
				c-2.2,1-4.4,2-6.8,2.5c-1.2,0.3-2.4,0.4-3.6,0.4c-1.2,0-2.4-0.3-3.6-0.8l0.1-0.3c1.1,0.4,2.3,0.6,3.4,0.6c1.2,0,2.4-0.2,3.5-0.5
				c2.3-0.6,4.5-1.6,6.6-2.7c4.2-2.2,8.4-4.6,12.7-6.6c4.3-2.1,8.8-3.9,13.3-5.2c4.6-1.3,9.3-2.3,14.1-2.7c9.6-1,19.1,0.2,28.6,1
				l14.2,1.5c4.7,0.5,9.5,1,14.3,1.1c4.8,0.2,9.5,0,14.2-1.1c2.3-0.5,4.6-1.3,6.7-2.3c2.2-1,4.2-2.2,6.1-3.6c1.9-1.4,3.7-3,5.4-4.7
				c1.6-1.7,3.3-3.5,4.7-5.3c0.8-0.9,1.5-1.9,2.2-2.8c0.4-0.5,0.7-1,1.1-1.4l1-1.5c0.6-1,1.3-2,1.9-3l1.7-3.2l0.4-0.8l0.3-0.8
				l0.7-1.6c0.4-1.1,1-2.2,1.3-3.3l1.1-3.4c0.3-1.2,0.5-2.3,0.8-3.5c0.1-0.6,0.3-1.2,0.4-1.7l0.3-1.8c0.2-1.2,0.4-2.3,0.5-3.5
				c0.2-2.4,0.4-4.7,0.3-7.1c0.1-9.5-1.8-19-4.9-28l-1.3-3.3l-0.6-1.7l-0.7-1.6l-1.5-3.3l-1.6-3.2l-0.8-1.6c-0.3-0.5-0.6-1-0.9-1.5
				l-1.8-3.1c-0.6-1-1.3-2-2-3c-0.7-1-1.3-2-2-2.9l-2.1-2.9c-0.7-0.9-1.5-1.8-2.3-2.7c-1.5-1.9-3.2-3.5-4.8-5.3
				c-3.4-3.3-7-6.5-10.9-9.2c-7.7-5.6-16.6-9.5-25.8-11.6c-1.2-0.2-2.3-0.4-3.5-0.6l-1.8-0.3c-0.6-0.1-1.2-0.1-1.8-0.2l-3.6-0.3
				c-1.2-0.1-2.4,0-3.6,0c-2.4-0.1-4.8,0.2-7.1,0.3c-2.4,0.1-4.7,0.5-7.1,0.8c-9.4,1.3-18.8,3.7-27.2,8.1
				c-8.5,4.3-16.1,10.5-21.5,18.3c-2.8,3.9-5,8.1-6.8,12.5c-1.8,4.4-3,9-3.8,13.7c-0.8,4.7-1.1,9.5-1,14.2c0,2.4,0.3,4.8,0.6,7.1
				l0.3,1.8l0.4,1.7c0.3,1.1,0.6,2.3,1.3,3.2L1387.9,100z"/>
		</g>
		<g>
			<path class="st3" d="M1401.2,61.4c2.6-5,6.6-9.2,11.1-12.7c4.5-3.4,9.6-6.3,15-8.2l1-0.4l1-0.3l2.1-0.6l2.1-0.6
				c0.7-0.2,1.4-0.3,2.1-0.5l4.2-0.9c1.4-0.2,2.8-0.3,4.2-0.5c2.8-0.4,5.7-0.4,8.5-0.5c2.9-0.1,5.8,0.1,8.7,0.5
				c1.4,0.2,2.9,0.5,4.3,0.8c1.4,0.4,2.8,0.7,4.2,1.2c2.8,0.9,5.5,2,8,3.4c5.2,2.6,10,5.9,14.4,9.6c8.8,7.4,16.2,16.6,21.2,27.1
				c2.5,5.3,4.3,10.9,5.1,16.8c0.4,2.9,0.5,5.9,0.3,8.9c-0.2,3-1,6-2.1,8.9c-1.2,2.8-2.9,5.5-4.8,7.8c-2,2.3-4.2,4.3-6.6,6.1
				c-2.5,1.7-5.1,3.1-7.9,4.2c-2.7,1.1-5.6,1.8-8.4,2.5c-5.6,1.2-11.3,1.8-16.9,2.1c-5.6,0.4-11.2,0.6-16.7,0.9
				c-5.6,0.3-11.1,0.7-16.5,1.6c-5.5,0.9-10.8,2.4-15.9,4.6l-0.1-0.3c5-2.5,10.4-4.2,15.9-5.3c5.5-1.1,11.1-1.7,16.6-2.2
				c5.6-0.5,11.1-0.8,16.7-1.3c5.6-0.5,11.1-1.2,16.5-2.5c2.7-0.7,5.4-1.5,7.9-2.5c2.6-1.1,5-2.4,7.3-4c2.2-1.6,4.3-3.5,6.1-5.6
				c1.7-2.2,3.2-4.5,4.3-7.1c0.9-2.6,1.6-5.3,1.8-8.1c0.2-2.8,0.1-5.5-0.3-8.3c-0.8-5.5-2.6-10.8-5-15.8c-4.8-10-11.8-19-20.3-26.2
				c-4.2-3.6-8.9-6.8-13.8-9.3c-4.9-2.5-10.2-4.5-15.7-5.4c-2.7-0.4-5.5-0.7-8.3-0.7c-2.8,0.1-5.6,0-8.3,0.3
				c-1.4,0.1-2.8,0.3-4.2,0.4l-4.1,0.7c-0.7,0.1-1.4,0.2-2,0.4l-2,0.5l-2,0.5l-1,0.3l-1,0.4c-5.3,1.7-10.3,4.2-14.9,7.5
				c-1.1,0.8-2.2,1.7-3.3,2.6c-1,0.9-2.1,1.8-3,2.9c-1.9,2-3.7,4.2-5.1,6.6L1401.2,61.4z"/>
		</g>
		<g>
			<path class="st3" d="M1388.1,99.9c-0.5-1.6-0.5-3.2-0.3-4.8c0.2-1.6,0.6-3.2,1.1-4.7c1-3.1,2.4-6,4-8.8c3.1-5.6,7.2-10.7,12-15.2
				c4.8-4.4,10.3-8.2,16.6-10.6c6.3-2.3,13.4-2.9,20.1-1.1c3.3,0.8,6.5,2.2,9.4,4c2.9,1.8,5.5,3.8,8,6c2.5,2.2,4.7,4.8,6.6,7.6
				c1.9,2.8,3.5,5.9,4.5,9.2c1,3.3,1.6,6.7,1.5,10.1c-0.1,3.4-0.6,6.7-1.5,9.9c-0.5,1.6-1,3.1-1.6,4.6c-0.7,1.5-1.4,2.9-2.2,4.3
				c-1.6,2.8-3.5,5.5-5.7,7.8l-0.2-0.2c1.9-2.5,3.5-5.3,4.8-8.1c1.3-2.9,2.4-5.8,3.1-8.9c1.4-6.1,1.3-12.6-0.7-18.6
				c-2-6-5.9-11.1-10.5-15.4c-2.3-2.1-4.8-4.1-7.5-5.7c-2.7-1.6-5.6-2.9-8.6-3.7c-6-1.7-12.6-1.3-18.5,0.8c-6,2-11.3,5.5-16.1,9.7
				c-4.7,4.2-8.8,9-12.2,14.4c-1.7,2.7-3.2,5.5-4.3,8.4c-0.6,1.5-1,3-1.3,4.5c-0.3,1.5-0.4,3.1,0,4.6L1388.1,99.9z"/>
		</g>
		<g>
			<path class="st3" d="M1373.8,139.9c1.9-0.3,3.7-0.6,5.6-1c1.9-0.3,3.7-0.6,5.6-1c3.7-0.7,7.4-1.5,11.1-2.3
				c7.3-1.6,14.6-3.4,21.6-5.8c3.5-1.2,6.9-2.5,10.2-4.1c3.2-1.6,6.3-3.4,8.8-5.7c0.3-0.3,0.6-0.6,0.9-0.9c0.3-0.3,0.5-0.6,0.8-1
				c0.6-0.7,1.1-1.4,1.6-2.1c1-1.4,1.9-2.9,2.7-4.4c1.5-3.1,2.4-6.3,2.4-9.6c0-3.3-0.8-6.6-2.2-9.8c-1.4-3.2-3.3-6.3-5.4-9.3
				c-0.6-0.8-1-1.3-1.5-1.9c-0.5-0.6-1.1-1.1-1.8-1.6c-1.3-1-2.8-1.8-4.4-2.4c-3.2-1.2-6.7-1.9-10.2-1.9c-7.1-0.1-14.4,2-20.3,6.2
				c-2.9,2.1-5.5,4.7-7.3,7.9c-0.9,1.6-1.7,3.3-2.2,5c-0.6,1.8-1,3.6-1.2,5.5l-0.3,0c0.2-3.8,1.1-7.6,2.9-10.9
				c1.7-3.4,4.3-6.3,7.3-8.7c6-4.7,13.6-7.1,21.2-7.3c3.8-0.1,7.6,0.4,11.2,1.7c3.6,1.3,6.9,3.5,9.1,6.7c2.2,3.1,4.3,6.3,5.9,9.7
				c1.6,3.5,2.6,7.2,2.6,11.1c0,3.8-1,7.6-2.8,11c-1.8,3.4-4,6.5-6.7,9.2c-2.8,2.6-6.2,4.5-9.6,6.1c-3.4,1.6-7,2.9-10.6,4
				c-7.2,2.2-14.6,3.8-22.1,5.1c-7.4,1.3-14.9,2.3-22.5,2.9L1373.8,139.9z"/>
		</g>
	</g>
	<g class="st1">
		<g>
			<path class="st3" d="M1558,100c-0.8-1-1.1-2.2-1.5-3.3l-0.5-1.7l-0.4-1.8c-0.4-2.4-0.7-4.8-0.8-7.2c-0.3-4.8,0-9.6,0.7-14.4
				c0.7-4.8,1.9-9.5,3.6-14.1c1.7-4.6,4-8.9,6.7-13c5.5-8.1,13.3-14.6,21.9-19.2c8.7-4.7,18.2-7.2,27.8-8.7c2.4-0.3,4.8-0.7,7.2-0.9
				c2.4-0.2,4.8-0.5,7.3-0.4c1.2,0,2.5,0,3.7,0l3.7,0.3c0.6,0.1,1.2,0.1,1.8,0.2l1.8,0.3c1.2,0.2,2.4,0.4,3.7,0.6
				c9.7,2.2,18.9,6.2,26.9,12c4.1,2.8,7.8,6.1,11.3,9.4c1.7,1.8,3.5,3.5,5,5.4c0.8,0.9,1.6,1.9,2.4,2.8l2.2,2.9c0.8,1,1.4,2,2.1,3
				c0.7,1,1.4,2,2,3.1l1.9,3.2c0.3,0.5,0.6,1,0.9,1.6l0.9,1.6l1.7,3.3l1.5,3.4l0.8,1.7l0.7,1.7c0.4,1.1,0.9,2.3,1.3,3.4
				c3.1,9.3,5.1,19.1,4.9,29c0.1,2.5-0.2,4.9-0.4,7.4c-0.1,1.2-0.4,2.5-0.5,3.7l-0.3,1.8c-0.1,0.6-0.3,1.2-0.4,1.8
				c-0.3,1.2-0.6,2.4-0.9,3.6l-1.2,3.6c-0.3,1.2-0.9,2.3-1.4,3.5l-0.7,1.7l-0.4,0.9l-0.4,0.8l-1.8,3.3c-0.6,1.1-1.3,2.1-2,3.2
				l-1,1.6c-0.4,0.5-0.7,1-1.1,1.5c-0.7,1-1.5,2-2.3,2.9c-1.5,1.9-3.2,3.8-4.9,5.5c-1.8,1.7-3.6,3.4-5.7,4.9
				c-2.1,1.5-4.2,2.8-6.6,3.9c-2.3,1-4.8,1.9-7.3,2.4c-5,1.1-10,1.2-14.8,1c-4.9-0.2-9.7-0.8-14.4-1.3l-14.2-1.7
				c-4.7-0.5-9.5-1-14.2-1.4c-4.7-0.4-9.4-0.4-14,0c-4.7,0.4-9.3,1.2-13.9,2.4c-4.5,1.2-9,2.9-13.3,4.9c-4.3,2-8.5,4.3-12.8,6.4
				c-2.2,1-4.4,2-6.8,2.5c-1.2,0.3-2.4,0.4-3.6,0.4c-1.2,0-2.4-0.3-3.6-0.8l0.1-0.3c1.1,0.4,2.3,0.6,3.4,0.6c1.2,0,2.4-0.2,3.5-0.5
				c2.3-0.6,4.5-1.6,6.6-2.7c4.2-2.2,8.4-4.6,12.7-6.6c4.3-2.1,8.8-3.9,13.3-5.2c4.6-1.3,9.3-2.3,14.1-2.7c9.6-1,19.1,0.2,28.6,1
				l14.2,1.5c4.7,0.5,9.5,1,14.3,1.1c4.8,0.2,9.5,0,14.2-1.1c2.3-0.5,4.6-1.3,6.7-2.3c2.2-1,4.2-2.2,6.1-3.6c1.9-1.4,3.7-3,5.4-4.7
				c1.6-1.7,3.3-3.5,4.7-5.3c0.8-0.9,1.5-1.9,2.2-2.8c0.4-0.5,0.7-1,1.1-1.4l1-1.5c0.6-1,1.3-2,1.9-3l1.7-3.2l0.4-0.8l0.3-0.8
				l0.7-1.6c0.4-1.1,1-2.2,1.3-3.3l1.1-3.4c0.3-1.2,0.5-2.3,0.8-3.5c0.1-0.6,0.3-1.2,0.4-1.7l0.3-1.8c0.2-1.2,0.4-2.3,0.5-3.5
				c0.2-2.4,0.4-4.7,0.3-7.1c0.1-9.5-1.8-19-4.9-28l-1.3-3.3l-0.6-1.7l-0.7-1.6l-1.5-3.3l-1.6-3.2l-0.8-1.6c-0.3-0.5-0.6-1-0.9-1.5
				l-1.8-3.1c-0.6-1-1.3-2-2-3c-0.7-1-1.3-2-2-2.9l-2.1-2.9c-0.7-0.9-1.5-1.8-2.3-2.7c-1.5-1.9-3.2-3.5-4.8-5.3
				c-3.4-3.3-7-6.5-10.9-9.2c-7.7-5.6-16.6-9.5-25.8-11.6c-1.2-0.2-2.3-0.4-3.5-0.6l-1.8-0.3c-0.6-0.1-1.2-0.1-1.8-0.2l-3.6-0.3
				c-1.2-0.1-2.4,0-3.6,0c-2.4-0.1-4.8,0.2-7.1,0.3c-2.4,0.1-4.7,0.5-7.1,0.8c-9.4,1.3-18.8,3.7-27.2,8.1
				c-8.5,4.3-16.1,10.5-21.5,18.3c-2.8,3.9-5,8.1-6.8,12.5c-1.8,4.4-3,9-3.8,13.7c-0.8,4.7-1.1,9.5-1,14.2c0,2.4,0.3,4.8,0.6,7.1
				l0.3,1.8l0.4,1.7c0.3,1.1,0.6,2.3,1.3,3.2L1558,100z"/>
		</g>
		<g>
			<path class="st3" d="M1571.3,61.4c2.6-5,6.6-9.2,11.1-12.7c4.5-3.4,9.6-6.3,15-8.2l1-0.4l1-0.3l2.1-0.6l2.1-0.6
				c0.7-0.2,1.4-0.3,2.1-0.5l4.2-0.9c1.4-0.2,2.8-0.3,4.2-0.5c2.8-0.4,5.7-0.4,8.5-0.5c2.9-0.1,5.8,0.1,8.7,0.5
				c1.4,0.2,2.9,0.5,4.3,0.8c1.4,0.4,2.8,0.7,4.2,1.2c2.8,0.9,5.5,2,8,3.4c5.2,2.6,10,5.9,14.4,9.6c8.8,7.4,16.2,16.6,21.2,27.1
				c2.5,5.3,4.3,10.9,5.1,16.8c0.4,2.9,0.5,5.9,0.3,8.9c-0.2,3-1,6-2.1,8.9c-1.2,2.8-2.9,5.5-4.8,7.8c-2,2.3-4.2,4.3-6.6,6.1
				c-2.5,1.7-5.1,3.1-7.9,4.2c-2.7,1.1-5.6,1.8-8.4,2.5c-5.6,1.2-11.3,1.8-16.9,2.1c-5.6,0.4-11.2,0.6-16.7,0.9
				c-5.6,0.3-11.1,0.7-16.5,1.6c-5.5,0.9-10.8,2.4-15.9,4.6l-0.1-0.3c5-2.5,10.4-4.2,15.9-5.3c5.5-1.1,11.1-1.7,16.6-2.2
				c5.6-0.5,11.1-0.8,16.7-1.3c5.6-0.5,11.1-1.2,16.5-2.5c2.7-0.7,5.4-1.5,7.9-2.5c2.6-1.1,5-2.4,7.3-4c2.2-1.6,4.3-3.5,6.1-5.6
				c1.7-2.2,3.2-4.5,4.3-7.1c0.9-2.6,1.6-5.3,1.8-8.1c0.2-2.8,0.1-5.5-0.3-8.3c-0.8-5.5-2.6-10.8-5-15.8c-4.8-10-11.8-19-20.3-26.2
				c-4.2-3.6-8.9-6.8-13.8-9.3c-4.9-2.5-10.2-4.5-15.7-5.4c-2.7-0.4-5.5-0.7-8.3-0.7c-2.8,0.1-5.6,0-8.3,0.3
				c-1.4,0.1-2.8,0.3-4.2,0.4L1606,40c-0.7,0.1-1.4,0.2-2,0.4l-2,0.5l-2,0.5l-1,0.3l-1,0.4c-5.3,1.7-10.3,4.2-14.9,7.5
				c-1.1,0.8-2.2,1.7-3.3,2.6c-1,0.9-2.1,1.8-3,2.9c-1.9,2-3.7,4.2-5.1,6.6L1571.3,61.4z"/>
		</g>
		<g>
			<path class="st3" d="M1558.2,99.9c-0.5-1.6-0.5-3.2-0.3-4.8c0.2-1.6,0.6-3.2,1.1-4.7c1-3.1,2.4-6,4-8.8c3.1-5.6,7.2-10.7,12-15.2
				c4.8-4.4,10.3-8.2,16.6-10.6c6.3-2.3,13.4-2.9,20.1-1.1c3.3,0.8,6.5,2.2,9.4,4c2.9,1.8,5.5,3.8,8,6c2.5,2.2,4.7,4.8,6.6,7.6
				c1.9,2.8,3.5,5.9,4.5,9.2c1,3.3,1.6,6.7,1.5,10.1c-0.1,3.4-0.6,6.7-1.5,9.9c-0.5,1.6-1,3.1-1.6,4.6c-0.7,1.5-1.4,2.9-2.2,4.3
				c-1.6,2.8-3.5,5.5-5.7,7.8l-0.2-0.2c1.9-2.5,3.5-5.3,4.8-8.1c1.3-2.9,2.4-5.8,3.1-8.9c1.4-6.1,1.3-12.6-0.7-18.6
				c-2-6-5.9-11.1-10.5-15.4c-2.3-2.1-4.8-4.1-7.5-5.7c-2.7-1.6-5.6-2.9-8.6-3.7c-6-1.7-12.6-1.3-18.5,0.8c-6,2-11.3,5.5-16.1,9.7
				c-4.7,4.2-8.8,9-12.2,14.4c-1.7,2.7-3.2,5.5-4.3,8.4c-0.6,1.5-1,3-1.3,4.5c-0.3,1.5-0.4,3.1,0,4.6L1558.2,99.9z"/>
		</g>
		<g>
			<path class="st3" d="M1543.9,139.9c1.9-0.3,3.7-0.6,5.6-1c1.9-0.3,3.7-0.6,5.6-1c3.7-0.7,7.4-1.5,11.1-2.3
				c7.3-1.6,14.6-3.4,21.6-5.8c3.5-1.2,6.9-2.5,10.2-4.1c3.2-1.6,6.3-3.4,8.8-5.7c0.3-0.3,0.6-0.6,0.9-0.9c0.3-0.3,0.5-0.6,0.8-1
				c0.6-0.7,1.1-1.4,1.6-2.1c1-1.4,1.9-2.9,2.7-4.4c1.5-3.1,2.4-6.3,2.4-9.6c0-3.3-0.8-6.6-2.2-9.8c-1.4-3.2-3.3-6.3-5.4-9.3
				c-0.6-0.8-1-1.3-1.5-1.9c-0.5-0.6-1.1-1.1-1.8-1.6c-1.3-1-2.8-1.8-4.4-2.4c-3.2-1.2-6.7-1.9-10.2-1.9c-7.1-0.1-14.4,2-20.3,6.2
				c-2.9,2.1-5.5,4.7-7.3,7.9c-0.9,1.6-1.7,3.3-2.2,5c-0.6,1.8-1,3.6-1.2,5.5l-0.3,0c0.2-3.8,1.1-7.6,2.9-10.9
				c1.7-3.4,4.3-6.3,7.3-8.7c6-4.7,13.6-7.1,21.2-7.3c3.8-0.1,7.6,0.4,11.2,1.7c3.6,1.3,6.9,3.5,9.1,6.7c2.2,3.1,4.3,6.3,5.9,9.7
				c1.6,3.5,2.6,7.2,2.6,11.1c0,3.8-1,7.6-2.8,11c-1.8,3.4-4,6.5-6.7,9.2c-2.8,2.6-6.2,4.5-9.6,6.1c-3.4,1.6-7,2.9-10.6,4
				c-7.2,2.2-14.6,3.8-22.1,5.1c-7.4,1.3-14.9,2.3-22.5,2.9L1543.9,139.9z"/>
		</g>
	</g>
	<rect x="1193.9" y="142.5" class="st4" width="1389.8" height="101.7"/>
</g>
</svg>
