<?xml version="1.0" encoding="utf-8"?>
<!-- Generator: Adobe Illustrator 21.1.0, SVG Export Plug-In . SVG Version: 6.00 Build 0)  -->
<svg version="1.1" id="Layer_1" xmlns="http://www.w3.org/2000/svg" xmlns:xlink="http://www.w3.org/1999/xlink" x="0px" y="0px"
	 viewBox="0 0 1542 186" style="enable-background:new 0 0 1542 186;" xml:space="preserve">
<style type="text/css">
	.st0{fill:#154651;}
	.st1{clip-path:url(#SVGID_2_);fill:#154651;}
	.st2{clip-path:url(#SVGID_2_);fill:#276A75;}
	.st3{clip-path:url(#SVGID_2_);}
	.st4{clip-path:url(#SVGID_4_);fill:#154651;}
	.st5{fill:#6EB7B4;}
	.st6{clip-path:url(#SVGID_6_);fill:#154651;}
</style>
<rect x="-11" y="144.9" class="st0" width="1565.9" height="42.6"/>
<title>Artboard 1</title>
<g>
	<defs>
		<rect id="SVGID_1_" x="-11" y="-3.3" width="1566.2" height="187"/>
	</defs>
	<clipPath id="SVGID_2_">
		<use xlink:href="#SVGID_1_"  style="overflow:visible;"/>
	</clipPath>
	
		<rect x="318.7" y="-205.3" transform="matrix(3.040485e-03 -1 1 3.040485e-03 189.1078 1124.416)" class="st1" width="679.6" height="1345.3"/>
	<polygon class="st2" points="1330.1,143.3 -15.1,155 -17.4,-139.7 1327.5,-151.5 	"/>
	<g class="st3">
		<defs>
			
				<rect id="SVGID_3_" x="519" y="-575.4" transform="matrix(3.153258e-03 -1 1 3.153258e-03 556.6763 752.9118)" width="273.9" height="1345.3"/>
		</defs>
		<clipPath id="SVGID_4_">
			<use xlink:href="#SVGID_3_"  style="overflow:visible;"/>
		</clipPath>
		<path class="st4" d="M-34.5,147.7c0,0,102.7,0.4,92.4-43.7C47.1,57.7-4.4,85.4-2.3,106.4c0,0-18.2-51.5,38.7-75.8
			c76.3-32.7,154.5,59.9,96.8,126.8C67.6,233.3-34.5,147.7-34.5,147.7z"/>
		<path class="st4" d="M141,148.5c0,0,102.7,0.4,92.4-43.7c-10.8-46.3-62.3-18.7-60.2,2.3c0,0-18.2-51.5,38.7-75.8
			c76.3-32.7,154.5,59.9,96.8,126.8C243.2,234.1,141,148.5,141,148.5z"/>
		<path class="st4" d="M315.3,148.5c0,0,102.7,0.4,92.4-43.7c-10.8-46.3-62.3-18.7-60.2,2.3c0,0-18.2-51.5,38.7-75.8
			c76.3-32.7,154.5,59.9,96.8,126.8C417.5,234.1,315.3,148.5,315.3,148.5z"/>
		<path class="st4" d="M490.5,148.5c0,0,102.7,0.4,92.4-43.7c-10.8-46.3-62.3-18.7-60.2,2.3c0,0-18.2-51.5,38.7-75.8
			c76.3-32.7,154.5,59.9,96.8,126.8C592.6,234.1,490.5,148.5,490.5,148.5z"/>
		<path class="st4" d="M664.7,148.5c0,0,102.7,0.4,92.4-43.7c-10.8-46.3-62.3-18.7-60.2,2.3c0,0-18.2-51.5,38.7-75.8
			C811.9-1.3,890,91.3,832.4,158.2C766.9,234.1,664.7,148.5,664.7,148.5z"/>
		<path class="st4" d="M838.1,148.5c0,0,102.7,0.4,92.4-43.7c-10.8-46.3-62.3-18.7-60.2,2.3c0,0-18.2-51.5,38.7-75.8
			c76.3-32.7,154.5,59.9,96.8,126.8C940.2,234.1,838.1,148.5,838.1,148.5z"/>
		<path class="st4" d="M1011.4,150.2c0,0,102.7,0.4,92.4-43.7c-10.8-46.3-62.3-18.7-60.2,2.3c0,0-18.2-51.5,38.7-75.8
			c76.3-32.7,154.5,59.9,96.8,126.8C1113.6,235.8,1011.4,150.2,1011.4,150.2z"/>
	</g>
	<g class="st3">
		<g>
			<path class="st5" d="M-2.4,106.5c-0.8-1-1.1-2.2-1.5-3.4l-0.4-1.8l-0.4-1.8c-0.4-2.4-0.7-4.8-0.8-7.3c-0.3-4.9,0-9.8,0.8-14.6
				c1.5-9.7,5-19.1,10.9-27.2c2.9-4,6.3-7.7,10.1-10.8c0.9-0.8,2-1.5,2.9-2.3l1.5-1.1l1.6-1c1.1-0.7,2.1-1.3,3.2-2l3.3-1.7
				c1.1-0.6,2.2-1.1,3.4-1.6c1.1-0.5,2.3-1,3.4-1.5l3.5-1.2c1.2-0.4,2.3-0.8,3.5-1.1c2.4-0.6,4.8-1.4,7.2-1.8l3.6-0.7
				c1.2-0.3,2.4-0.4,3.7-0.6l3.7-0.5c1.2-0.2,2.4-0.2,3.7-0.3c2.5-0.2,4.9-0.5,7.4-0.4c5-0.2,10,0.5,14.9,1.4
				c9.7,2.2,19.1,6.2,27.2,11.9c4.1,2.8,7.9,6.1,11.5,9.5c1.7,1.8,3.5,3.5,5.1,5.4c0.8,0.9,1.6,1.9,2.4,2.8l2.3,2.9
				c0.8,1,1.5,2,2.2,3c0.7,1,1.4,2,2.1,3.1c1.3,2.1,2.6,4.2,3.7,6.4c2.4,4.3,4.3,8.9,6.1,13.6c3.2,9.4,5.1,19.3,4.9,29.3l0,1.9
				c0,0.6-0.1,1.2-0.1,1.9l-0.3,3.7c-0.4,2.5-0.7,5-1.3,7.4l-0.4,1.8l-0.2,0.9l-0.3,0.9l-1.2,3.6c-0.4,1.2-1,2.3-1.4,3.5l-0.7,1.7
				l-0.9,1.7c-0.6,1.1-1.2,2.2-1.8,3.3l-2.1,3.1c-1.4,2.1-3,4-4.5,5.9c-3.2,3.8-6.8,7.4-11,10.3c-4.2,2.9-9,5-14,5.9
				c-2.5,0.5-5,0.8-7.5,0.8c-2.5,0.1-5,0.1-7.4-0.1c-4.9-0.2-9.8-0.8-14.6-1.3l-14.5-1.7c-4.8-0.5-9.6-1-14.4-1.4
				c-4.8-0.4-9.6-0.3-14.3,0.1c-4.8,0.4-9.5,1.2-14.1,2.5c-4.6,1.3-9.1,3-13.5,5c-4.4,2-8.7,4.3-13.1,6.4c-2.2,1-4.5,2-6.9,2.6
				c-1.2,0.3-2.4,0.4-3.7,0.4c-1.2,0-2.5-0.3-3.6-0.7l0.1-0.2c1.1,0.4,2.3,0.6,3.5,0.6c1.2,0,2.4-0.2,3.6-0.5
				c2.3-0.6,4.6-1.6,6.7-2.7c4.3-2.2,8.6-4.6,12.9-6.7c4.4-2.1,8.9-3.9,13.6-5.3c4.7-1.4,9.5-2.3,14.3-2.8c9.7-1.1,19.4,0.1,29.1,1
				l14.5,1.5c4.8,0.5,9.7,1,14.5,1.2c2.4,0.1,4.8,0.1,7.3,0c2.4-0.1,4.8-0.4,7.2-0.9c4.7-0.9,9.3-2.9,13.2-5.6
				c4-2.8,7.4-6.2,10.5-9.9c1.5-1.9,3.1-3.8,4.4-5.8l2-3c0.6-1,1.2-2.1,1.7-3.2l0.9-1.6l0.7-1.7c0.5-1.1,1-2.2,1.4-3.4l1.1-3.4
				l0.3-0.9l0.2-0.9l0.4-1.8c0.6-2.3,0.9-4.8,1.3-7.1l0.3-3.6c0-0.6,0.1-1.2,0.1-1.8l0-1.8c0.1-9.7-1.8-19.3-4.9-28.5
				c-1.7-4.5-3.5-9-5.9-13.3c-1.1-2.2-2.4-4.2-3.6-6.3c-0.6-1-1.3-2-2-3c-0.7-1-1.3-2-2.1-3l-2.2-2.9c-0.8-0.9-1.6-1.8-2.3-2.8
				c-1.5-1.9-3.3-3.6-5-5.3c-3.5-3.3-7.1-6.6-11.2-9.2c-7.9-5.6-16.9-9.5-26.4-11.7c-4.7-0.9-9.6-1.6-14.4-1.5
				c-2.4-0.1-4.8,0.2-7.3,0.3c-1.2,0.1-2.4,0.1-3.6,0.3L57.3,25c-1.2,0.2-2.4,0.3-3.6,0.5l-3.6,0.7c-2.4,0.4-4.7,1.1-7.1,1.7
				c-1.2,0.3-2.3,0.7-3.5,1.1l-3.4,1.2c-1.1,0.4-2.2,0.9-3.4,1.4c-1.1,0.5-2.2,0.9-3.3,1.5l-3.2,1.7c-1.1,0.6-2.1,1.3-3.1,1.9
				l-1.5,1l-1.5,1.1c-1,0.7-2,1.4-2.9,2.2c-3.8,3-7.1,6.6-10,10.5C1.4,59-2.2,68.2-3.9,77.7c-0.8,4.8-1.2,9.6-1.1,14.5
				c0.1,2.4,0.3,4.8,0.6,7.2l0.3,1.8l0.4,1.8c0.4,1.1,0.7,2.4,1.4,3.3L-2.4,106.5z"/>
		</g>
		<g>
			<path class="st5" d="M11.2,67.7c1.4-2.5,3.1-4.8,5.1-6.9c0.9-1.1,2-2,3.1-3c1.1-0.9,2.2-1.8,3.3-2.7c4.6-3.4,9.8-6.2,15.3-8.1
				l1-0.4l1-0.3l2.1-0.6l2.1-0.6c0.7-0.2,1.4-0.3,2.1-0.4l4.3-0.8c1.4-0.2,2.9-0.3,4.3-0.5c2.9-0.4,5.8-0.4,8.7-0.5
				c2.9-0.1,5.9,0.1,8.8,0.5c5.8,0.8,11.5,2.7,16.7,5.3c5.3,2.6,10.2,5.8,14.7,9.5c9,7.4,16.5,16.6,21.7,27.2
				c1.3,2.6,2.3,5.4,3.3,8.2c0.8,2.8,1.6,5.7,2,8.7c0.8,5.9,0.4,12.2-2,17.8l-1,2.1c-0.3,0.7-0.8,1.3-1.2,2l-0.6,1l-0.7,0.9
				c-0.5,0.6-0.9,1.2-1.4,1.8c-2,2.3-4.3,4.3-6.8,6c-2.5,1.7-5.2,3-7.9,4.1c-2.8,1.1-5.6,1.8-8.5,2.4c-5.7,1.2-11.4,1.8-17.1,2.2
				c-5.7,0.4-11.4,0.6-17,1c-5.7,0.3-11.3,0.8-16.9,1.7c-5.6,1-11,2.5-16.2,4.8l-0.1-0.2c5.1-2.5,10.6-4.2,16.2-5.4
				c5.6-1.1,11.3-1.7,16.9-2.2c5.7-0.5,11.4-0.8,17-1.3c5.7-0.5,11.3-1.1,16.9-2.4c5.5-1.3,10.9-3.2,15.6-6.4
				c2.3-1.6,4.5-3.5,6.3-5.6c0.5-0.5,0.9-1.1,1.3-1.7l0.6-0.8l0.6-0.9c0.4-0.6,0.8-1.2,1.1-1.8l0.9-1.9c2.1-5.2,2.5-11.1,1.7-16.6
				c-0.3-2.8-1.1-5.6-1.9-8.3c-0.9-2.7-1.9-5.3-3.2-7.9c-4.9-10.2-12.2-19.3-20.9-26.5c-4.4-3.6-9.1-6.8-14.2-9.3
				c-5.1-2.5-10.5-4.4-16.1-5.3c-2.8-0.4-5.6-0.7-8.5-0.6c-2.8,0.1-5.7,0-8.5,0.3c-1.4,0.1-2.8,0.3-4.2,0.4l-4.2,0.7
				c-0.7,0.1-1.4,0.2-2.1,0.4L42.5,47l-2.1,0.5l-1,0.3l-1,0.4c-5.4,1.7-10.6,4.3-15.2,7.5c-1.1,0.8-2.3,1.7-3.4,2.6
				c-1,1-2.2,1.8-3.1,2.9c-2,2-3.8,4.2-5.3,6.6L11.2,67.7z"/>
		</g>
		<g>
			<path class="st5" d="M-2.2,106.3c-0.5-1.6-0.4-3.3-0.2-4.9c0.2-1.6,0.7-3.2,1.2-4.7c1.1-3.1,2.5-6,4.2-8.8
				c3.3-5.6,7.5-10.7,12.4-15.1c4.9-4.4,10.5-8.1,16.8-10.4c6.3-2.3,13.4-2.8,20-1.1c3.3,0.8,6.5,2.2,9.4,3.8
				c2.9,1.7,5.6,3.7,8.1,5.9c5,4.4,9.1,10.1,11.3,16.5c1.1,3.2,1.8,6.6,1.7,10c0,3.4-0.5,6.7-1.4,9.9c-0.4,1.6-1,3.2-1.6,4.7
				c-0.6,1.5-1.4,3-2.2,4.4c-1.6,2.8-3.4,5.5-5.7,7.9l-0.2-0.2c1.9-2.5,3.6-5.3,4.9-8.2c1.4-2.9,2.5-5.9,3.2-9
				c1.5-6.2,1.3-12.8-0.8-18.8c-2.1-6-6.1-11.2-10.9-15.5c-2.4-2.1-4.9-4.1-7.7-5.7c-2.8-1.6-5.7-2.9-8.8-3.7
				c-6.2-1.6-12.8-1.2-18.8,0.8c-6.1,2-11.6,5.5-16.4,9.7c-4.8,4.2-9.1,9.1-12.5,14.4C2.1,91.2,0.6,94-0.6,97
				c-0.6,1.5-1.1,3-1.4,4.6c-0.3,1.6-0.4,3.2,0,4.7L-2.2,106.3z"/>
		</g>
		<g>
			<path class="st5" d="M-16.9,146.7c1.9-0.3,3.8-0.6,5.7-0.9c1.9-0.3,3.8-0.6,5.7-0.9c3.8-0.7,7.5-1.4,11.3-2.2
				c7.5-1.5,14.9-3.3,22.1-5.7c3.6-1.2,7.1-2.5,10.5-4c3.4-1.6,6.6-3.4,9.2-5.7c0.7-0.6,1.2-1.2,1.8-1.9c0.6-0.7,1.2-1.4,1.7-2.1
				c1.1-1.5,2.1-3,2.9-4.6c1.7-3.2,2.5-6.6,2.6-10c0.1-3.5-0.8-6.9-2.3-10.2c-1.5-3.3-3.5-6.5-5.7-9.5c-0.6-0.8-1-1.4-1.6-2
				c-0.6-0.6-1.2-1.2-1.9-1.7c-1.4-1-3-1.8-4.6-2.4c-3.3-1.2-7-1.8-10.7-1.9c-7.3,0-14.8,2.1-20.9,6.4c-3,2.1-5.7,4.9-7.6,8.1
				c-1,1.6-1.7,3.3-2.3,5.1c-0.6,1.8-1,3.7-1.2,5.6l-0.2,0c0.2-3.8,1.2-7.7,3-11.1c1.8-3.4,4.4-6.4,7.5-8.7c6.2-4.7,13.9-7,21.6-7.2
				c3.9-0.1,7.7,0.4,11.4,1.7c3.6,1.3,7.1,3.5,9.3,6.7c2.3,3.1,4.4,6.3,6,9.8c1.6,3.5,2.7,7.3,2.6,11.2c0,3.9-1.1,7.7-3,11.1
				c-0.9,1.7-2,3.3-3.1,4.9c-1.2,1.5-2.4,3-3.9,4.3c-2.9,2.6-6.4,4.4-9.9,6c-3.5,1.6-7.2,2.8-10.8,4c-7.4,2.2-14.9,3.8-22.5,5.1
				c-7.6,1.3-15.2,2.3-22.9,2.9L-16.9,146.7z"/>
		</g>
	</g>
	<g class="st3">
		<g>
			<path class="st5" d="M173.3,106.5c-0.8-1-1.1-2.2-1.5-3.4l-0.4-1.8l-0.4-1.8c-0.4-2.4-0.7-4.8-0.8-7.3c-0.3-4.9,0-9.8,0.8-14.6
				c1.5-9.7,5-19.1,10.9-27.2c2.9-4,6.3-7.7,10.1-10.8c0.9-0.8,2-1.5,2.9-2.3l1.5-1.1l1.6-1c1.1-0.7,2.1-1.3,3.2-2l3.3-1.7
				c1.1-0.6,2.2-1.1,3.4-1.6c1.1-0.5,2.3-1,3.4-1.5l3.5-1.2c1.2-0.4,2.3-0.8,3.5-1.1c2.4-0.6,4.8-1.4,7.2-1.8l3.6-0.7
				c1.2-0.3,2.4-0.4,3.7-0.6l3.7-0.5c1.2-0.2,2.4-0.2,3.7-0.3c2.5-0.2,4.9-0.5,7.4-0.4c5-0.2,10,0.5,14.9,1.4
				c9.7,2.2,19.1,6.2,27.2,11.9c4.1,2.8,7.9,6.1,11.5,9.5c1.7,1.8,3.5,3.5,5.1,5.4c0.8,0.9,1.6,1.9,2.4,2.8l2.3,2.9
				c0.8,1,1.5,2,2.2,3c0.7,1,1.4,2,2.1,3.1c1.3,2.1,2.6,4.2,3.7,6.4c2.4,4.3,4.3,8.9,6.1,13.6c3.2,9.4,5.1,19.3,4.9,29.3l0,1.9
				c0,0.6-0.1,1.2-0.1,1.9l-0.3,3.7c-0.4,2.5-0.7,5-1.3,7.4l-0.4,1.8l-0.2,0.9l-0.3,0.9l-1.2,3.6c-0.4,1.2-1,2.3-1.4,3.5l-0.7,1.7
				l-0.9,1.7c-0.6,1.1-1.2,2.2-1.8,3.3l-2.1,3.1c-1.4,2.1-3,4-4.5,5.9c-3.2,3.8-6.8,7.4-11,10.3c-4.2,2.9-9,5-14,5.9
				c-2.5,0.5-5,0.8-7.5,0.8c-2.5,0.1-5,0.1-7.4-0.1c-4.9-0.2-9.8-0.8-14.6-1.3l-14.5-1.7c-4.8-0.5-9.6-1-14.4-1.4
				c-4.8-0.4-9.6-0.3-14.3,0.1c-4.8,0.4-9.5,1.2-14.1,2.5c-4.6,1.3-9.1,3-13.5,5c-4.4,2-8.7,4.3-13.1,6.4c-2.2,1-4.5,2-6.9,2.6
				c-1.2,0.3-2.4,0.4-3.7,0.4c-1.2,0-2.5-0.3-3.6-0.7l0.1-0.2c1.1,0.4,2.3,0.6,3.5,0.6c1.2,0,2.4-0.2,3.6-0.5
				c2.3-0.6,4.6-1.6,6.7-2.7c4.3-2.2,8.6-4.6,12.9-6.7c4.4-2.1,8.9-3.9,13.6-5.3c4.7-1.4,9.5-2.3,14.3-2.8c9.7-1.1,19.4,0.1,29.1,1
				l14.5,1.5c4.8,0.5,9.7,1,14.5,1.2c2.4,0.1,4.8,0.1,7.3,0c2.4-0.1,4.8-0.4,7.2-0.9c4.7-0.9,9.3-2.9,13.2-5.6
				c4-2.8,7.4-6.2,10.5-9.9c1.5-1.9,3.1-3.8,4.4-5.8l2-3c0.6-1,1.2-2.1,1.7-3.2l0.9-1.6l0.7-1.7c0.5-1.1,1-2.2,1.4-3.4l1.1-3.4
				l0.3-0.9l0.2-0.9l0.4-1.8c0.6-2.3,0.9-4.8,1.3-7.1l0.3-3.6c0-0.6,0.1-1.2,0.1-1.8l0-1.8c0.1-9.7-1.8-19.3-4.9-28.5
				c-1.7-4.5-3.5-9-5.9-13.3c-1.1-2.2-2.4-4.2-3.6-6.3c-0.6-1-1.3-2-2-3c-0.7-1-1.3-2-2.1-3l-2.2-2.9c-0.8-0.9-1.6-1.8-2.3-2.8
				c-1.5-1.9-3.3-3.6-5-5.3c-3.5-3.3-7.1-6.6-11.2-9.2c-7.9-5.6-16.9-9.5-26.4-11.7c-4.7-0.9-9.6-1.6-14.4-1.5
				c-2.4-0.1-4.8,0.2-7.3,0.3c-1.2,0.1-2.4,0.1-3.6,0.3L233,25c-1.2,0.2-2.4,0.3-3.6,0.5l-3.6,0.7c-2.4,0.4-4.7,1.1-7.1,1.7
				c-1.2,0.3-2.3,0.7-3.5,1.1l-3.4,1.2c-1.1,0.4-2.2,0.9-3.4,1.4c-1.1,0.5-2.2,0.9-3.3,1.5l-3.2,1.7c-1.1,0.6-2.1,1.3-3.1,1.9
				l-1.5,1l-1.5,1.1c-1,0.7-2,1.4-2.9,2.2c-3.8,3-7.1,6.6-10,10.5c-5.8,7.8-9.5,17-11.1,26.5c-0.8,4.8-1.2,9.6-1.1,14.5
				c0.1,2.4,0.3,4.8,0.6,7.2l0.3,1.8l0.4,1.8c0.4,1.1,0.7,2.4,1.4,3.3L173.3,106.5z"/>
		</g>
		<g>
			<path class="st5" d="M187,67.7c1.4-2.5,3.1-4.8,5.1-6.9c0.9-1.1,2-2,3.1-3c1.1-0.9,2.2-1.8,3.3-2.7c4.6-3.4,9.8-6.2,15.3-8.1
				l1-0.4l1-0.3l2.1-0.6l2.1-0.6c0.7-0.2,1.4-0.3,2.1-0.4l4.3-0.8c1.4-0.2,2.9-0.3,4.3-0.5c2.9-0.4,5.8-0.4,8.7-0.5
				c2.9-0.1,5.9,0.1,8.8,0.5c5.8,0.8,11.5,2.7,16.7,5.3c5.3,2.6,10.2,5.8,14.7,9.5c9,7.4,16.5,16.6,21.7,27.2
				c1.3,2.6,2.3,5.4,3.3,8.2c0.8,2.8,1.6,5.7,2,8.7c0.8,5.9,0.4,12.2-2,17.8l-1,2.1c-0.3,0.7-0.8,1.3-1.2,2l-0.6,1L301,126
				c-0.5,0.6-0.9,1.2-1.4,1.8c-2,2.3-4.3,4.3-6.8,6c-2.5,1.7-5.2,3-7.9,4.1c-2.8,1.1-5.6,1.8-8.5,2.4c-5.7,1.2-11.4,1.8-17.1,2.2
				c-5.7,0.4-11.4,0.6-17,1c-5.7,0.3-11.3,0.8-16.9,1.7c-5.6,1-11,2.5-16.2,4.8l-0.1-0.2c5.1-2.5,10.6-4.2,16.2-5.4
				c5.6-1.1,11.3-1.7,16.9-2.2c5.7-0.5,11.4-0.8,17-1.3c5.7-0.5,11.3-1.1,16.9-2.4c5.5-1.3,10.9-3.2,15.6-6.4
				c2.3-1.6,4.5-3.5,6.3-5.6c0.5-0.5,0.9-1.1,1.3-1.7l0.6-0.8l0.6-0.9c0.4-0.6,0.8-1.2,1.1-1.8l0.9-1.9c2.1-5.2,2.5-11.1,1.7-16.6
				c-0.3-2.8-1.1-5.6-1.9-8.3c-0.9-2.7-1.9-5.3-3.2-7.9c-4.9-10.2-12.2-19.3-20.9-26.5c-4.4-3.6-9.1-6.8-14.2-9.3
				c-5.1-2.5-10.5-4.4-16.1-5.3c-2.8-0.4-5.6-0.7-8.5-0.6c-2.8,0.1-5.7,0-8.5,0.3c-1.4,0.1-2.8,0.3-4.2,0.4l-4.2,0.7
				c-0.7,0.1-1.4,0.2-2.1,0.4l-2.1,0.5l-2.1,0.5l-1,0.3l-1,0.4c-5.4,1.7-10.6,4.3-15.2,7.5c-1.1,0.8-2.3,1.7-3.4,2.6
				c-1,1-2.2,1.8-3.1,2.9c-2,2-3.8,4.2-5.3,6.6L187,67.7z"/>
		</g>
		<g>
			<path class="st5" d="M173.5,106.3c-0.5-1.6-0.4-3.3-0.2-4.9c0.2-1.6,0.7-3.2,1.2-4.7c1.1-3.1,2.5-6,4.2-8.8
				c3.3-5.6,7.5-10.7,12.4-15.1c4.9-4.4,10.5-8.1,16.8-10.4c6.3-2.3,13.4-2.8,20-1.1c3.3,0.8,6.5,2.2,9.4,3.8
				c2.9,1.7,5.6,3.7,8.1,5.9c5,4.4,9.1,10.1,11.3,16.5c1.1,3.2,1.8,6.6,1.7,10c0,3.4-0.5,6.7-1.4,9.9c-0.4,1.6-1,3.2-1.6,4.7
				c-0.6,1.5-1.4,3-2.2,4.4c-1.6,2.8-3.4,5.5-5.7,7.9l-0.2-0.2c1.9-2.5,3.6-5.3,4.9-8.2c1.4-2.9,2.5-5.9,3.2-9
				c1.5-6.2,1.3-12.8-0.8-18.8c-2.1-6-6.1-11.2-10.9-15.5c-2.4-2.1-4.9-4.1-7.7-5.7c-2.8-1.6-5.7-2.9-8.8-3.7
				c-6.2-1.6-12.8-1.2-18.8,0.8c-6.1,2-11.6,5.5-16.4,9.7c-4.8,4.2-9.1,9.1-12.5,14.4c-1.7,2.7-3.3,5.5-4.4,8.5
				c-0.6,1.5-1.1,3-1.4,4.6c-0.3,1.6-0.4,3.2,0,4.7L173.5,106.3z"/>
		</g>
		<g>
			<path class="st5" d="M158.9,146.7c1.9-0.3,3.8-0.6,5.7-0.9c1.9-0.3,3.8-0.6,5.7-0.9c3.8-0.7,7.5-1.4,11.3-2.2
				c7.5-1.5,14.9-3.3,22.1-5.7c3.6-1.2,7.1-2.5,10.5-4c3.4-1.6,6.6-3.4,9.2-5.7c0.7-0.6,1.2-1.2,1.8-1.9c0.6-0.7,1.2-1.4,1.7-2.1
				c1.1-1.5,2.1-3,2.9-4.6c1.7-3.2,2.5-6.6,2.6-10c0.1-3.5-0.8-6.9-2.3-10.2c-1.5-3.3-3.5-6.5-5.7-9.5c-0.6-0.8-1-1.4-1.6-2
				c-0.6-0.6-1.2-1.2-1.9-1.7c-1.4-1-3-1.8-4.6-2.4c-3.3-1.2-7-1.8-10.7-1.9c-7.3,0-14.8,2.1-20.9,6.4c-3,2.1-5.7,4.9-7.6,8.1
				c-1,1.6-1.7,3.3-2.3,5.1c-0.6,1.8-1,3.7-1.2,5.6l-0.2,0c0.2-3.8,1.2-7.7,3-11.1c1.8-3.4,4.4-6.4,7.5-8.7c6.2-4.7,13.9-7,21.6-7.2
				c3.9-0.1,7.7,0.4,11.4,1.7c3.6,1.3,7.1,3.5,9.3,6.7c2.3,3.1,4.4,6.3,6,9.8c1.6,3.5,2.7,7.3,2.6,11.2c0,3.9-1.1,7.7-3,11.1
				c-0.9,1.7-2,3.3-3.1,4.9c-1.2,1.5-2.4,3-3.9,4.3c-2.9,2.6-6.4,4.4-9.9,6c-3.5,1.6-7.2,2.8-10.8,4c-7.4,2.2-14.9,3.8-22.5,5.1
				c-7.6,1.3-15.2,2.3-22.9,2.9L158.9,146.7z"/>
		</g>
	</g>
	<g class="st3">
		<g>
			<path class="st5" d="M347.6,106.5c-0.8-1-1.1-2.2-1.5-3.4l-0.4-1.8l-0.4-1.8c-0.4-2.4-0.7-4.8-0.8-7.3c-0.3-4.9,0-9.8,0.8-14.6
				c1.5-9.7,5-19.1,10.9-27.2c2.9-4,6.3-7.7,10.1-10.8c0.9-0.8,2-1.5,2.9-2.3l1.5-1.1l1.6-1c1.1-0.7,2.1-1.3,3.2-2l3.3-1.7
				c1.1-0.6,2.2-1.1,3.4-1.6c1.1-0.5,2.3-1,3.4-1.5l3.5-1.2c1.2-0.4,2.3-0.8,3.5-1.1c2.4-0.6,4.8-1.4,7.2-1.8l3.6-0.7
				c1.2-0.3,2.4-0.4,3.7-0.6l3.7-0.5c1.2-0.2,2.4-0.2,3.7-0.3c2.5-0.2,4.9-0.5,7.4-0.4c5-0.2,10,0.5,14.9,1.4
				c9.7,2.2,19.1,6.2,27.2,11.9c4.1,2.8,7.9,6.1,11.5,9.5c1.7,1.8,3.5,3.5,5.1,5.4c0.8,0.9,1.6,1.9,2.4,2.8l2.3,2.9
				c0.8,1,1.5,2,2.2,3c0.7,1,1.4,2,2.1,3.1c1.3,2.1,2.6,4.2,3.7,6.4c2.4,4.3,4.3,8.9,6.1,13.6c3.2,9.4,5.1,19.3,4.9,29.3l0,1.9
				c0,0.6-0.1,1.2-0.1,1.9l-0.3,3.7c-0.4,2.5-0.7,5-1.3,7.4l-0.4,1.8l-0.2,0.9l-0.3,0.9l-1.2,3.6c-0.4,1.2-1,2.3-1.4,3.5l-0.7,1.7
				l-0.9,1.7c-0.6,1.1-1.2,2.2-1.8,3.3l-2.1,3.1c-1.4,2.1-3,4-4.5,5.9c-3.2,3.8-6.8,7.4-11,10.3c-4.2,2.9-9,5-14,5.9
				c-2.5,0.5-5,0.8-7.5,0.8c-2.5,0.1-5,0.1-7.4-0.1c-4.9-0.2-9.8-0.8-14.6-1.3l-14.5-1.7c-4.8-0.5-9.6-1-14.4-1.4
				c-4.8-0.4-9.6-0.3-14.3,0.1c-4.8,0.4-9.5,1.2-14.1,2.5c-4.6,1.3-9.1,3-13.5,5c-4.4,2-8.7,4.3-13.1,6.4c-2.2,1-4.5,2-6.9,2.6
				c-1.2,0.3-2.4,0.4-3.7,0.4c-1.2,0-2.5-0.3-3.6-0.7l0.1-0.2c1.1,0.4,2.3,0.6,3.5,0.6c1.2,0,2.4-0.2,3.6-0.5
				c2.3-0.6,4.6-1.6,6.7-2.7c4.3-2.2,8.6-4.6,12.9-6.7c4.4-2.1,8.9-3.9,13.6-5.3c4.7-1.4,9.5-2.3,14.3-2.8c9.7-1.1,19.4,0.1,29.1,1
				l14.5,1.5c4.8,0.5,9.7,1,14.5,1.2c2.4,0.1,4.8,0.1,7.3,0c2.4-0.1,4.8-0.4,7.2-0.9c4.7-0.9,9.3-2.9,13.2-5.6
				c4-2.8,7.4-6.2,10.5-9.9c1.5-1.9,3.1-3.8,4.4-5.8l2-3c0.6-1,1.2-2.1,1.7-3.2l0.9-1.6l0.7-1.7c0.5-1.1,1-2.2,1.4-3.4l1.1-3.4
				l0.3-0.9l0.2-0.9l0.4-1.8c0.6-2.3,0.9-4.8,1.3-7.1l0.3-3.6c0-0.6,0.1-1.2,0.1-1.8l0-1.8c0.1-9.7-1.8-19.3-4.9-28.5
				c-1.7-4.5-3.5-9-5.9-13.3c-1.1-2.2-2.4-4.2-3.6-6.3c-0.6-1-1.3-2-2-3c-0.7-1-1.3-2-2.1-3l-2.2-2.9c-0.8-0.9-1.6-1.8-2.3-2.8
				c-1.5-1.9-3.3-3.6-5-5.3c-3.5-3.3-7.1-6.6-11.2-9.2c-7.9-5.6-16.9-9.5-26.4-11.7c-4.7-0.9-9.6-1.6-14.4-1.5
				c-2.4-0.1-4.8,0.2-7.3,0.3c-1.2,0.1-2.4,0.1-3.6,0.3l-3.6,0.5c-1.2,0.2-2.4,0.3-3.6,0.5l-3.6,0.7c-2.4,0.4-4.7,1.1-7.1,1.7
				c-1.2,0.3-2.3,0.7-3.5,1.1l-3.4,1.2c-1.1,0.4-2.2,0.9-3.4,1.4c-1.1,0.5-2.2,0.9-3.3,1.5l-3.2,1.7c-1.1,0.6-2.1,1.3-3.1,1.9
				l-1.5,1l-1.5,1.1c-1,0.7-2,1.4-2.9,2.2c-3.8,3-7.1,6.6-10,10.5c-5.8,7.8-9.5,17-11.1,26.5c-0.8,4.8-1.2,9.6-1.1,14.5
				c0.1,2.4,0.3,4.8,0.6,7.2l0.3,1.8l0.4,1.8c0.4,1.1,0.7,2.4,1.4,3.3L347.6,106.5z"/>
		</g>
		<g>
			<path class="st5" d="M361.3,67.7c1.4-2.5,3.1-4.8,5.1-6.9c0.9-1.1,2-2,3.1-3c1.1-0.9,2.2-1.8,3.3-2.7c4.6-3.4,9.8-6.2,15.3-8.1
				l1-0.4l1-0.3l2.1-0.6l2.1-0.6c0.7-0.2,1.4-0.3,2.1-0.4l4.3-0.8c1.4-0.2,2.9-0.3,4.3-0.5c2.9-0.4,5.8-0.4,8.7-0.5
				c2.9-0.1,5.9,0.1,8.8,0.5c5.8,0.8,11.5,2.7,16.7,5.3c5.3,2.6,10.2,5.8,14.7,9.5c9,7.4,16.5,16.6,21.7,27.2
				c1.3,2.6,2.3,5.4,3.3,8.2c0.8,2.8,1.6,5.7,2,8.7c0.8,5.9,0.4,12.2-2,17.8l-1,2.1c-0.3,0.7-0.8,1.3-1.2,2l-0.6,1l-0.7,0.9
				c-0.5,0.6-0.9,1.2-1.4,1.8c-2,2.3-4.3,4.3-6.8,6c-2.5,1.7-5.2,3-7.9,4.1c-2.8,1.1-5.6,1.8-8.5,2.4c-5.7,1.2-11.4,1.8-17.1,2.2
				c-5.7,0.4-11.4,0.6-17,1c-5.7,0.3-11.3,0.8-16.9,1.7c-5.6,1-11,2.5-16.2,4.8l-0.1-0.2c5.1-2.5,10.6-4.2,16.2-5.4
				c5.6-1.1,11.3-1.7,16.9-2.2c5.7-0.5,11.4-0.8,17-1.3c5.7-0.5,11.3-1.1,16.9-2.4c5.5-1.3,10.9-3.2,15.6-6.4
				c2.3-1.6,4.5-3.5,6.3-5.6c0.5-0.5,0.9-1.1,1.3-1.7l0.6-0.8l0.6-0.9c0.4-0.6,0.8-1.2,1.1-1.8l0.9-1.9c2.1-5.2,2.5-11.1,1.7-16.6
				c-0.3-2.8-1.1-5.6-1.9-8.3c-0.9-2.7-1.9-5.3-3.2-7.9c-4.9-10.2-12.2-19.3-20.9-26.5c-4.4-3.6-9.1-6.8-14.2-9.3
				c-5.1-2.5-10.5-4.4-16.1-5.3c-2.8-0.4-5.6-0.7-8.5-0.6c-2.8,0.1-5.7,0-8.5,0.3c-1.4,0.1-2.8,0.3-4.2,0.4l-4.2,0.7
				c-0.7,0.1-1.4,0.2-2.1,0.4l-2.1,0.5l-2.1,0.5l-1,0.3l-1,0.4c-5.4,1.7-10.6,4.3-15.2,7.5c-1.1,0.8-2.3,1.7-3.4,2.6
				c-1,1-2.2,1.8-3.1,2.9c-2,2-3.8,4.2-5.3,6.6L361.3,67.7z"/>
		</g>
		<g>
			<path class="st5" d="M347.8,106.3c-0.5-1.6-0.4-3.3-0.2-4.9c0.2-1.6,0.7-3.2,1.2-4.7c1.1-3.1,2.5-6,4.2-8.8
				c3.3-5.6,7.5-10.7,12.4-15.1c4.9-4.4,10.5-8.1,16.8-10.4c6.3-2.3,13.4-2.8,20-1.1c3.3,0.8,6.5,2.2,9.4,3.8
				c2.9,1.7,5.6,3.7,8.1,5.9c5,4.4,9.1,10.1,11.3,16.5c1.1,3.2,1.8,6.6,1.7,10c0,3.4-0.5,6.7-1.4,9.9c-0.4,1.6-1,3.2-1.6,4.7
				c-0.6,1.5-1.4,3-2.2,4.4c-1.6,2.8-3.4,5.5-5.7,7.9l-0.2-0.2c1.9-2.5,3.6-5.3,4.9-8.2c1.4-2.9,2.5-5.9,3.2-9
				c1.5-6.2,1.3-12.8-0.8-18.8c-2.1-6-6.1-11.2-10.9-15.5c-2.4-2.1-4.9-4.1-7.7-5.7c-2.8-1.6-5.7-2.9-8.8-3.7
				c-6.2-1.6-12.8-1.2-18.8,0.8c-6.1,2-11.6,5.5-16.4,9.7c-4.8,4.2-9.1,9.1-12.5,14.4c-1.7,2.7-3.3,5.5-4.4,8.5
				c-0.6,1.5-1.1,3-1.4,4.6c-0.3,1.6-0.4,3.2,0,4.7L347.8,106.3z"/>
		</g>
		<g>
			<path class="st5" d="M333.1,146.7c1.9-0.3,3.8-0.6,5.7-0.9c1.9-0.3,3.8-0.6,5.7-0.9c3.8-0.7,7.5-1.4,11.3-2.2
				c7.5-1.5,14.9-3.3,22.1-5.7c3.6-1.2,7.1-2.5,10.5-4c3.4-1.6,6.6-3.4,9.2-5.7c0.7-0.6,1.2-1.2,1.8-1.9c0.6-0.7,1.2-1.4,1.7-2.1
				c1.1-1.5,2.1-3,2.9-4.6c1.7-3.2,2.5-6.6,2.6-10c0.1-3.5-0.8-6.9-2.3-10.2c-1.5-3.3-3.5-6.5-5.7-9.5c-0.6-0.8-1-1.4-1.6-2
				c-0.6-0.6-1.2-1.2-1.9-1.7c-1.4-1-3-1.8-4.6-2.4c-3.3-1.2-7-1.8-10.7-1.9c-7.3,0-14.8,2.1-20.9,6.4c-3,2.1-5.7,4.9-7.6,8.1
				c-1,1.6-1.7,3.3-2.3,5.1c-0.6,1.8-1,3.7-1.2,5.6l-0.2,0c0.2-3.8,1.2-7.7,3-11.1c1.8-3.4,4.4-6.4,7.5-8.7c6.2-4.7,13.9-7,21.6-7.2
				c3.9-0.1,7.7,0.4,11.4,1.7c3.6,1.3,7.1,3.5,9.3,6.7c2.3,3.1,4.4,6.3,6,9.8c1.6,3.5,2.7,7.3,2.6,11.2c0,3.9-1.1,7.7-3,11.1
				c-0.9,1.7-2,3.3-3.1,4.9c-1.2,1.5-2.4,3-3.9,4.3c-2.9,2.6-6.4,4.4-9.9,6c-3.5,1.6-7.2,2.8-10.8,4c-7.4,2.2-14.9,3.8-22.5,5.1
				c-7.6,1.3-15.2,2.3-22.9,2.9L333.1,146.7z"/>
		</g>
	</g>
	<g class="st3">
		<g>
			<path class="st5" d="M523.4,106.5c-0.8-1-1.1-2.2-1.5-3.4l-0.4-1.8l-0.4-1.8c-0.4-2.4-0.7-4.8-0.8-7.3c-0.3-4.9,0-9.8,0.8-14.6
				c1.5-9.7,5-19.1,10.9-27.2c2.9-4,6.3-7.7,10.1-10.8c0.9-0.8,2-1.5,2.9-2.3l1.5-1.1l1.6-1c1.1-0.7,2.1-1.3,3.2-2l3.3-1.7
				c1.1-0.6,2.2-1.1,3.4-1.6c1.1-0.5,2.3-1,3.4-1.5l3.5-1.2c1.2-0.4,2.3-0.8,3.5-1.1c2.4-0.6,4.8-1.4,7.2-1.8l3.6-0.7
				c1.2-0.3,2.4-0.4,3.7-0.6l3.7-0.5c1.2-0.2,2.4-0.2,3.7-0.3c2.5-0.2,4.9-0.5,7.4-0.4c5-0.2,10,0.5,14.9,1.4
				c9.7,2.2,19.1,6.2,27.2,11.9c4.1,2.8,7.9,6.1,11.5,9.5c1.7,1.8,3.5,3.5,5.1,5.4c0.8,0.9,1.6,1.9,2.4,2.8l2.3,2.9
				c0.8,1,1.5,2,2.2,3c0.7,1,1.4,2,2.1,3.1c1.3,2.1,2.6,4.2,3.7,6.4c2.4,4.3,4.3,8.9,6.1,13.6c3.2,9.4,5.1,19.3,4.9,29.3l0,1.9
				c0,0.6-0.1,1.2-0.1,1.9l-0.3,3.7c-0.4,2.5-0.7,5-1.3,7.4l-0.4,1.8l-0.2,0.9l-0.3,0.9l-1.2,3.6c-0.4,1.2-1,2.3-1.4,3.5l-0.7,1.7
				l-0.9,1.7c-0.6,1.1-1.2,2.2-1.8,3.3l-2.1,3.1c-1.4,2.1-3,4-4.5,5.9c-3.2,3.8-6.8,7.4-11,10.3c-4.2,2.9-9,5-14,5.9
				c-2.5,0.5-5,0.8-7.5,0.8c-2.5,0.1-5,0.1-7.4-0.1c-4.9-0.2-9.8-0.8-14.6-1.3l-14.5-1.7c-4.8-0.5-9.6-1-14.4-1.4
				c-4.8-0.4-9.6-0.3-14.3,0.1c-4.8,0.4-9.5,1.2-14.1,2.5c-4.6,1.3-9.1,3-13.5,5c-4.4,2-8.7,4.3-13.1,6.4c-2.2,1-4.5,2-6.9,2.6
				c-1.2,0.3-2.4,0.4-3.7,0.4c-1.2,0-2.5-0.3-3.6-0.7l0.1-0.2c1.1,0.4,2.3,0.6,3.5,0.6c1.2,0,2.4-0.2,3.6-0.5
				c2.3-0.6,4.6-1.6,6.7-2.7c4.3-2.2,8.6-4.6,12.9-6.7c4.4-2.1,8.9-3.9,13.6-5.3c4.7-1.4,9.5-2.3,14.3-2.8c9.7-1.1,19.4,0.1,29.1,1
				l14.5,1.5c4.8,0.5,9.7,1,14.5,1.2c2.4,0.1,4.8,0.1,7.3,0c2.4-0.1,4.8-0.4,7.2-0.9c4.7-0.9,9.3-2.9,13.2-5.6
				c4-2.8,7.4-6.2,10.5-9.9c1.5-1.9,3.1-3.8,4.4-5.8l2-3c0.6-1,1.2-2.1,1.7-3.2l0.9-1.6l0.7-1.7c0.5-1.1,1-2.2,1.4-3.4l1.1-3.4
				l0.3-0.9l0.2-0.9l0.4-1.8c0.6-2.3,0.9-4.8,1.3-7.1l0.3-3.6c0-0.6,0.1-1.2,0.1-1.8l0-1.8c0.1-9.7-1.8-19.3-4.9-28.5
				c-1.7-4.5-3.5-9-5.9-13.3c-1.1-2.2-2.4-4.2-3.6-6.3c-0.6-1-1.3-2-2-3c-0.7-1-1.3-2-2.1-3l-2.2-2.9c-0.8-0.9-1.6-1.8-2.3-2.8
				c-1.5-1.9-3.3-3.6-5-5.3c-3.5-3.3-7.1-6.6-11.2-9.2c-7.9-5.6-16.9-9.5-26.4-11.7c-4.7-0.9-9.6-1.6-14.4-1.5
				c-2.4-0.1-4.8,0.2-7.3,0.3c-1.2,0.1-2.4,0.1-3.6,0.3l-3.6,0.5c-1.2,0.2-2.4,0.3-3.6,0.5l-3.6,0.7c-2.4,0.4-4.7,1.1-7.1,1.7
				c-1.2,0.3-2.3,0.7-3.5,1.1l-3.4,1.2c-1.1,0.4-2.2,0.9-3.4,1.4c-1.1,0.5-2.2,0.9-3.3,1.5l-3.2,1.7c-1.1,0.6-2.1,1.3-3.1,1.9
				l-1.5,1l-1.5,1.1c-1,0.7-2,1.4-2.9,2.2c-3.8,3-7.1,6.6-10,10.5c-5.8,7.8-9.5,17-11.1,26.5c-0.8,4.8-1.2,9.6-1.1,14.5
				c0.1,2.4,0.3,4.8,0.6,7.2l0.3,1.8l0.4,1.8c0.4,1.1,0.7,2.4,1.4,3.3L523.4,106.5z"/>
		</g>
		<g>
			<path class="st5" d="M537,67.7c1.4-2.5,3.1-4.8,5.1-6.9c0.9-1.1,2-2,3.1-3c1.1-0.9,2.2-1.8,3.3-2.7c4.6-3.4,9.8-6.2,15.3-8.1
				l1-0.4l1-0.3l2.1-0.6l2.1-0.6c0.7-0.2,1.4-0.3,2.1-0.4l4.3-0.8c1.4-0.2,2.9-0.3,4.3-0.5c2.9-0.4,5.8-0.4,8.7-0.5
				c2.9-0.1,5.9,0.1,8.8,0.5c5.8,0.8,11.5,2.7,16.7,5.3c5.3,2.6,10.2,5.8,14.7,9.5c9,7.4,16.5,16.6,21.7,27.2
				c1.3,2.6,2.3,5.4,3.3,8.2c0.8,2.8,1.6,5.7,2,8.7c0.8,5.9,0.4,12.2-2,17.8l-1,2.1c-0.3,0.7-0.8,1.3-1.2,2l-0.6,1l-0.7,0.9
				c-0.5,0.6-0.9,1.2-1.4,1.8c-2,2.3-4.3,4.3-6.8,6c-2.5,1.7-5.2,3-7.9,4.1c-2.8,1.1-5.6,1.8-8.5,2.4c-5.7,1.2-11.4,1.8-17.1,2.2
				c-5.7,0.4-11.4,0.6-17,1c-5.7,0.3-11.3,0.8-16.9,1.7c-5.6,1-11,2.5-16.2,4.8l-0.1-0.2c5.1-2.5,10.6-4.2,16.2-5.4
				c5.6-1.1,11.3-1.7,16.9-2.2c5.7-0.5,11.4-0.8,17-1.3c5.7-0.5,11.3-1.1,16.9-2.4c5.5-1.3,10.9-3.2,15.6-6.4
				c2.3-1.6,4.5-3.5,6.3-5.6c0.5-0.5,0.9-1.1,1.3-1.7l0.6-0.8l0.6-0.9c0.4-0.6,0.8-1.2,1.1-1.8l0.9-1.9c2.1-5.2,2.5-11.1,1.7-16.6
				c-0.3-2.8-1.1-5.6-1.9-8.3c-0.9-2.7-1.9-5.3-3.2-7.9c-4.9-10.2-12.2-19.3-20.9-26.5c-4.4-3.6-9.1-6.8-14.2-9.3
				c-5.1-2.5-10.5-4.4-16.1-5.3c-2.8-0.4-5.6-0.7-8.5-0.6c-2.8,0.1-5.7,0-8.5,0.3c-1.4,0.1-2.8,0.3-4.2,0.4l-4.2,0.7
				c-0.7,0.1-1.4,0.2-2.1,0.4l-2.1,0.5l-2.1,0.5l-1,0.3l-1,0.4c-5.4,1.7-10.6,4.3-15.2,7.5c-1.1,0.8-2.3,1.7-3.4,2.6
				c-1,1-2.2,1.8-3.1,2.9c-2,2-3.8,4.2-5.3,6.6L537,67.7z"/>
		</g>
		<g>
			<path class="st5" d="M523.6,106.3c-0.5-1.6-0.4-3.3-0.2-4.9c0.2-1.6,0.7-3.2,1.2-4.7c1.1-3.1,2.5-6,4.2-8.8
				c3.3-5.6,7.5-10.7,12.4-15.1c4.9-4.4,10.5-8.1,16.8-10.4c6.3-2.3,13.4-2.8,20-1.1c3.3,0.8,6.5,2.2,9.4,3.8
				c2.9,1.7,5.6,3.7,8.1,5.9c5,4.4,9.1,10.1,11.3,16.5c1.1,3.2,1.8,6.6,1.7,10c0,3.4-0.5,6.7-1.4,9.9c-0.4,1.6-1,3.2-1.6,4.7
				c-0.6,1.5-1.4,3-2.2,4.4c-1.6,2.8-3.4,5.5-5.7,7.9l-0.2-0.2c1.9-2.5,3.6-5.3,4.9-8.2c1.4-2.9,2.5-5.9,3.2-9
				c1.5-6.2,1.3-12.8-0.8-18.8c-2.1-6-6.1-11.2-10.9-15.5c-2.4-2.1-4.9-4.1-7.7-5.7c-2.8-1.6-5.7-2.9-8.8-3.7
				c-6.2-1.6-12.8-1.2-18.8,0.8c-6.1,2-11.6,5.5-16.4,9.7c-4.8,4.2-9.1,9.1-12.5,14.4c-1.7,2.7-3.3,5.5-4.4,8.5
				c-0.6,1.5-1.1,3-1.4,4.6c-0.3,1.6-0.4,3.2,0,4.7L523.6,106.3z"/>
		</g>
		<g>
			<path class="st5" d="M508.9,146.7c1.9-0.3,3.8-0.6,5.7-0.9c1.9-0.3,3.8-0.6,5.7-0.9c3.8-0.7,7.5-1.4,11.3-2.2
				c7.5-1.5,14.9-3.3,22.1-5.7c3.6-1.2,7.1-2.5,10.5-4c3.4-1.6,6.6-3.4,9.2-5.7c0.7-0.6,1.2-1.2,1.8-1.9c0.6-0.7,1.2-1.4,1.7-2.1
				c1.1-1.5,2.1-3,2.9-4.6c1.7-3.2,2.5-6.6,2.6-10c0.1-3.5-0.8-6.9-2.3-10.2c-1.5-3.3-3.5-6.5-5.7-9.5c-0.6-0.8-1-1.4-1.6-2
				c-0.6-0.6-1.2-1.2-1.9-1.7c-1.4-1-3-1.8-4.6-2.4c-3.3-1.2-7-1.8-10.7-1.9c-7.3,0-14.8,2.1-20.9,6.4c-3,2.1-5.7,4.9-7.6,8.1
				c-1,1.6-1.7,3.3-2.3,5.1c-0.6,1.8-1,3.7-1.2,5.6l-0.2,0c0.2-3.8,1.2-7.7,3-11.1c1.8-3.4,4.4-6.4,7.5-8.7c6.2-4.7,13.9-7,21.6-7.2
				c3.9-0.1,7.7,0.4,11.4,1.7c3.6,1.3,7.1,3.5,9.3,6.7c2.3,3.1,4.4,6.3,6,9.8c1.6,3.5,2.7,7.3,2.6,11.2c0,3.9-1.1,7.7-3,11.1
				c-0.9,1.7-2,3.3-3.1,4.9c-1.2,1.5-2.4,3-3.9,4.3c-2.9,2.6-6.4,4.4-9.9,6c-3.5,1.6-7.2,2.8-10.8,4c-7.4,2.2-14.9,3.8-22.5,5.1
				c-7.6,1.3-15.2,2.3-22.9,2.9L508.9,146.7z"/>
		</g>
	</g>
	<g class="st3">
		<g>
			<path class="st5" d="M698.1,106.5c-0.8-1-1.1-2.2-1.5-3.4l-0.4-1.8l-0.4-1.8c-0.4-2.4-0.7-4.8-0.8-7.3c-0.3-4.9,0-9.8,0.8-14.6
				c1.5-9.7,5-19.1,10.9-27.2c2.9-4,6.3-7.7,10.1-10.8c0.9-0.8,2-1.5,2.9-2.3l1.5-1.1l1.6-1c1.1-0.7,2.1-1.3,3.2-2l3.3-1.7
				c1.1-0.6,2.2-1.1,3.4-1.6c1.1-0.5,2.3-1,3.4-1.5l3.5-1.2c1.2-0.4,2.3-0.8,3.5-1.1c2.4-0.6,4.8-1.4,7.2-1.8l3.6-0.7
				c1.2-0.3,2.4-0.4,3.7-0.6l3.7-0.5c1.2-0.2,2.4-0.2,3.7-0.3c2.5-0.2,4.9-0.5,7.4-0.4c5-0.2,10,0.5,14.9,1.4
				c9.7,2.2,19.1,6.2,27.2,11.9c4.1,2.8,7.9,6.1,11.5,9.5c1.7,1.8,3.5,3.5,5.1,5.4c0.8,0.9,1.6,1.9,2.4,2.8l2.3,2.9
				c0.8,1,1.5,2,2.2,3c0.7,1,1.4,2,2.1,3.1c1.3,2.1,2.6,4.2,3.7,6.4c2.4,4.3,4.3,8.9,6.1,13.6c3.2,9.4,5.1,19.3,4.9,29.3l0,1.9
				c0,0.6-0.1,1.2-0.1,1.9l-0.3,3.7c-0.4,2.5-0.7,5-1.3,7.4l-0.4,1.8l-0.2,0.9l-0.3,0.9l-1.2,3.6c-0.4,1.2-1,2.3-1.4,3.5l-0.7,1.7
				l-0.9,1.7c-0.6,1.1-1.2,2.2-1.8,3.3l-2.1,3.1c-1.4,2.1-3,4-4.5,5.9c-3.2,3.8-6.8,7.4-11,10.3c-4.2,2.9-9,5-14,5.9
				c-2.5,0.5-5,0.8-7.5,0.8c-2.5,0.1-5,0.1-7.4-0.1c-4.9-0.2-9.8-0.8-14.6-1.3l-14.5-1.7c-4.8-0.5-9.6-1-14.4-1.4
				c-4.8-0.4-9.6-0.3-14.3,0.1c-4.8,0.4-9.5,1.2-14.1,2.5c-4.6,1.3-9.1,3-13.5,5c-4.4,2-8.7,4.3-13.1,6.4c-2.2,1-4.5,2-6.9,2.6
				c-1.2,0.3-2.4,0.4-3.7,0.4c-1.2,0-2.5-0.3-3.6-0.7l0.1-0.2c1.1,0.4,2.3,0.6,3.5,0.6c1.2,0,2.4-0.2,3.6-0.5
				c2.3-0.6,4.6-1.6,6.7-2.7c4.3-2.2,8.6-4.6,12.9-6.7c4.4-2.1,8.9-3.9,13.6-5.3c4.7-1.4,9.5-2.3,14.3-2.8c9.7-1.1,19.4,0.1,29.1,1
				l14.5,1.5c4.8,0.5,9.7,1,14.5,1.2c2.4,0.1,4.8,0.1,7.3,0c2.4-0.1,4.8-0.4,7.2-0.9c4.7-0.9,9.3-2.9,13.2-5.6
				c4-2.8,7.4-6.2,10.5-9.9c1.5-1.9,3.1-3.8,4.4-5.8l2-3c0.6-1,1.2-2.1,1.7-3.2l0.9-1.6l0.7-1.7c0.5-1.1,1-2.2,1.4-3.4l1.1-3.4
				l0.3-0.9l0.2-0.9l0.4-1.8c0.6-2.3,0.9-4.8,1.3-7.1l0.3-3.6c0-0.6,0.1-1.2,0.1-1.8l0-1.8c0.1-9.7-1.8-19.3-4.9-28.5
				c-1.7-4.5-3.5-9-5.9-13.3c-1.1-2.2-2.4-4.2-3.6-6.3c-0.6-1-1.3-2-2-3c-0.7-1-1.3-2-2.1-3l-2.2-2.9c-0.8-0.9-1.6-1.8-2.3-2.8
				c-1.5-1.9-3.3-3.6-5-5.3c-3.5-3.3-7.1-6.6-11.2-9.2c-7.9-5.6-16.9-9.5-26.4-11.7c-4.7-0.9-9.6-1.6-14.4-1.5
				c-2.4-0.1-4.8,0.2-7.3,0.3c-1.2,0.1-2.4,0.1-3.6,0.3l-3.6,0.5c-1.2,0.2-2.4,0.3-3.6,0.5l-3.6,0.7c-2.4,0.4-4.7,1.1-7.1,1.7
				c-1.2,0.3-2.3,0.7-3.5,1.1l-3.4,1.2c-1.1,0.4-2.2,0.9-3.4,1.4c-1.1,0.5-2.2,0.9-3.3,1.5l-3.2,1.7c-1.1,0.6-2.1,1.3-3.1,1.9
				l-1.5,1l-1.5,1.1c-1,0.7-2,1.4-2.9,2.2c-3.8,3-7.1,6.6-10,10.5c-5.8,7.8-9.5,17-11.1,26.5c-0.8,4.8-1.2,9.6-1.1,14.5
				c0.1,2.4,0.3,4.8,0.6,7.2l0.3,1.8l0.4,1.8c0.4,1.1,0.7,2.4,1.4,3.3L698.1,106.5z"/>
		</g>
		<g>
			<path class="st5" d="M711.8,67.7c1.4-2.5,3.1-4.8,5.1-6.9c0.9-1.1,2-2,3.1-3c1.1-0.9,2.2-1.8,3.3-2.7c4.6-3.4,9.8-6.2,15.3-8.1
				l1-0.4l1-0.3l2.1-0.6l2.1-0.6c0.7-0.2,1.4-0.3,2.1-0.4l4.3-0.8c1.4-0.2,2.9-0.3,4.3-0.5c2.9-0.4,5.8-0.4,8.7-0.5
				c2.9-0.1,5.9,0.1,8.8,0.5c5.8,0.8,11.5,2.7,16.7,5.3c5.3,2.6,10.2,5.8,14.7,9.5c9,7.4,16.5,16.6,21.7,27.2
				c1.3,2.6,2.3,5.4,3.3,8.2c0.8,2.8,1.6,5.7,2,8.7c0.8,5.9,0.4,12.2-2,17.8l-1,2.1c-0.3,0.7-0.8,1.3-1.2,2l-0.6,1l-0.7,0.9
				c-0.5,0.6-0.9,1.2-1.4,1.8c-2,2.3-4.3,4.3-6.8,6c-2.5,1.7-5.2,3-7.9,4.1c-2.8,1.1-5.6,1.8-8.5,2.4c-5.7,1.2-11.4,1.8-17.1,2.2
				c-5.7,0.4-11.4,0.6-17,1c-5.7,0.3-11.3,0.8-16.9,1.7c-5.6,1-11,2.5-16.2,4.8l-0.1-0.2c5.1-2.5,10.6-4.2,16.2-5.4
				c5.6-1.1,11.3-1.7,16.9-2.2c5.7-0.5,11.4-0.8,17-1.3c5.7-0.5,11.3-1.1,16.9-2.4c5.5-1.3,10.9-3.2,15.6-6.4
				c2.3-1.6,4.5-3.5,6.3-5.6c0.5-0.5,0.9-1.1,1.3-1.7l0.6-0.8l0.6-0.9c0.4-0.6,0.8-1.2,1.1-1.8l0.9-1.9c2.1-5.2,2.5-11.1,1.7-16.6
				c-0.3-2.8-1.1-5.6-1.9-8.3c-0.9-2.7-1.9-5.3-3.2-7.9c-4.9-10.2-12.2-19.3-20.9-26.5c-4.4-3.6-9.1-6.8-14.2-9.3
				c-5.1-2.5-10.5-4.4-16.1-5.3c-2.8-0.4-5.6-0.7-8.5-0.6c-2.8,0.1-5.7,0-8.5,0.3c-1.4,0.1-2.8,0.3-4.2,0.4l-4.2,0.7
				c-0.7,0.1-1.4,0.2-2.1,0.4l-2.1,0.5l-2.1,0.5l-1,0.3l-1,0.4c-5.4,1.7-10.6,4.3-15.2,7.5c-1.1,0.8-2.3,1.7-3.4,2.6
				c-1,1-2.2,1.8-3.1,2.9c-2,2-3.8,4.2-5.3,6.6L711.8,67.7z"/>
		</g>
		<g>
			<path class="st5" d="M698.4,106.3c-0.5-1.6-0.4-3.3-0.2-4.9c0.2-1.6,0.7-3.2,1.2-4.7c1.1-3.1,2.5-6,4.2-8.8
				c3.3-5.6,7.5-10.7,12.4-15.1c4.9-4.4,10.5-8.1,16.8-10.4c6.3-2.3,13.4-2.8,20-1.1c3.3,0.8,6.5,2.2,9.4,3.8
				c2.9,1.7,5.6,3.7,8.1,5.9c5,4.4,9.1,10.1,11.3,16.5c1.1,3.2,1.8,6.6,1.7,10c0,3.4-0.5,6.7-1.4,9.9c-0.4,1.6-1,3.2-1.6,4.7
				c-0.6,1.5-1.4,3-2.2,4.4c-1.6,2.8-3.4,5.5-5.7,7.9l-0.2-0.2c1.9-2.5,3.6-5.3,4.9-8.2c1.4-2.9,2.5-5.9,3.2-9
				c1.5-6.2,1.3-12.8-0.8-18.8c-2.1-6-6.1-11.2-10.9-15.5c-2.4-2.1-4.9-4.1-7.7-5.7c-2.8-1.6-5.7-2.9-8.8-3.7
				c-6.2-1.6-12.8-1.2-18.8,0.8c-6.1,2-11.6,5.5-16.4,9.7c-4.8,4.2-9.1,9.1-12.5,14.4c-1.7,2.7-3.3,5.5-4.4,8.5
				c-0.6,1.5-1.1,3-1.4,4.6c-0.3,1.6-0.4,3.2,0,4.7L698.4,106.3z"/>
		</g>
		<g>
			<path class="st5" d="M683.7,146.7c1.9-0.3,3.8-0.6,5.7-0.9c1.9-0.3,3.8-0.6,5.7-0.9c3.8-0.7,7.5-1.4,11.3-2.2
				c7.5-1.5,14.9-3.3,22.1-5.7c3.6-1.2,7.1-2.5,10.5-4c3.4-1.6,6.6-3.4,9.2-5.7c0.7-0.6,1.2-1.2,1.8-1.9c0.6-0.7,1.2-1.4,1.7-2.1
				c1.1-1.5,2.1-3,2.9-4.6c1.7-3.2,2.5-6.6,2.6-10c0.1-3.5-0.8-6.9-2.3-10.2c-1.5-3.3-3.5-6.5-5.7-9.5c-0.6-0.8-1-1.4-1.6-2
				c-0.6-0.6-1.2-1.2-1.9-1.7c-1.4-1-3-1.8-4.6-2.4c-3.3-1.2-7-1.8-10.7-1.9c-7.3,0-14.8,2.1-20.9,6.4c-3,2.1-5.7,4.9-7.6,8.1
				c-1,1.6-1.7,3.3-2.3,5.1c-0.6,1.8-1,3.7-1.2,5.6l-0.2,0c0.2-3.8,1.2-7.7,3-11.1c1.8-3.4,4.4-6.4,7.5-8.7c6.2-4.7,13.9-7,21.6-7.2
				c3.9-0.1,7.7,0.4,11.4,1.7c3.6,1.3,7.1,3.5,9.3,6.7c2.3,3.1,4.4,6.3,6,9.8c1.6,3.5,2.7,7.3,2.6,11.2c0,3.9-1.1,7.7-3,11.1
				c-0.9,1.7-2,3.3-3.1,4.9c-1.2,1.5-2.4,3-3.9,4.3c-2.9,2.6-6.4,4.4-9.9,6c-3.5,1.6-7.2,2.8-10.8,4c-7.4,2.2-14.9,3.8-22.5,5.1
				c-7.6,1.3-15.2,2.3-22.9,2.9L683.7,146.7z"/>
		</g>
	</g>
	<g class="st3">
		<g>
			<path class="st5" d="M870.3,106.5c-0.8-1-1.1-2.2-1.5-3.4l-0.4-1.8l-0.4-1.8c-0.4-2.4-0.7-4.8-0.8-7.3c-0.3-4.9,0-9.8,0.8-14.6
				c1.5-9.7,5-19.1,10.9-27.2c2.9-4,6.3-7.7,10.1-10.8c0.9-0.8,2-1.5,2.9-2.3l1.5-1.1l1.6-1c1.1-0.7,2.1-1.3,3.2-2l3.3-1.7
				c1.1-0.6,2.2-1.1,3.4-1.6c1.1-0.5,2.3-1,3.4-1.5l3.5-1.2c1.2-0.4,2.3-0.8,3.5-1.1c2.4-0.6,4.8-1.4,7.2-1.8l3.6-0.7
				c1.2-0.3,2.4-0.4,3.7-0.6l3.7-0.5c1.2-0.2,2.4-0.2,3.7-0.3c2.5-0.2,4.9-0.5,7.4-0.4c5-0.2,10,0.5,14.9,1.4
				c9.7,2.2,19.1,6.2,27.2,11.9c4.1,2.8,7.9,6.1,11.5,9.5c1.7,1.8,3.5,3.5,5.1,5.4c0.8,0.9,1.6,1.9,2.4,2.8l2.3,2.9
				c0.8,1,1.5,2,2.2,3c0.7,1,1.4,2,2.1,3.1c1.3,2.1,2.6,4.2,3.7,6.4c2.4,4.3,4.3,8.9,6.1,13.6c3.2,9.4,5.1,19.3,4.9,29.3l0,1.9
				c0,0.6-0.1,1.2-0.1,1.9l-0.3,3.7c-0.4,2.5-0.7,5-1.3,7.4l-0.4,1.8l-0.2,0.9l-0.3,0.9l-1.2,3.6c-0.4,1.2-1,2.3-1.4,3.5l-0.7,1.7
				l-0.9,1.7c-0.6,1.1-1.2,2.2-1.8,3.3l-2.1,3.1c-1.4,2.1-3,4-4.5,5.9c-3.2,3.8-6.8,7.4-11,10.3c-4.2,2.9-9,5-14,5.9
				c-2.5,0.5-5,0.8-7.5,0.8c-2.5,0.1-5,0.1-7.4-0.1c-4.9-0.2-9.8-0.8-14.6-1.3l-14.5-1.7c-4.8-0.5-9.6-1-14.4-1.4
				c-4.8-0.4-9.6-0.3-14.3,0.1c-4.8,0.4-9.5,1.2-14.1,2.5c-4.6,1.3-9.1,3-13.5,5c-4.4,2-8.7,4.3-13.1,6.4c-2.2,1-4.5,2-6.9,2.6
				c-1.2,0.3-2.4,0.4-3.7,0.4c-1.2,0-2.5-0.3-3.6-0.7l0.1-0.2c1.1,0.4,2.3,0.6,3.5,0.6c1.2,0,2.4-0.2,3.6-0.5
				c2.3-0.6,4.6-1.6,6.7-2.7c4.3-2.2,8.6-4.6,12.9-6.7c4.4-2.1,8.9-3.9,13.6-5.3c4.7-1.4,9.5-2.3,14.3-2.8c9.7-1.1,19.4,0.1,29.1,1
				l14.5,1.5c4.8,0.5,9.7,1,14.5,1.2c2.4,0.1,4.8,0.1,7.3,0c2.4-0.1,4.8-0.4,7.2-0.9c4.7-0.9,9.3-2.9,13.2-5.6
				c4-2.8,7.4-6.2,10.5-9.9c1.5-1.9,3.1-3.8,4.4-5.8l2-3c0.6-1,1.2-2.1,1.7-3.2l0.9-1.6l0.7-1.7c0.5-1.1,1-2.2,1.4-3.4l1.1-3.4
				l0.3-0.9l0.2-0.9l0.4-1.8c0.6-2.3,0.9-4.8,1.3-7.1l0.3-3.6c0-0.6,0.1-1.2,0.1-1.8l0-1.8c0.1-9.7-1.8-19.3-4.9-28.5
				c-1.7-4.5-3.5-9-5.9-13.3c-1.1-2.2-2.4-4.2-3.6-6.3c-0.6-1-1.3-2-2-3c-0.7-1-1.3-2-2.1-3l-2.2-2.9c-0.8-0.9-1.6-1.8-2.3-2.8
				c-1.5-1.9-3.3-3.6-5-5.3c-3.5-3.3-7.1-6.6-11.2-9.2c-7.9-5.6-16.9-9.5-26.4-11.7c-4.7-0.9-9.6-1.6-14.4-1.5
				c-2.4-0.1-4.8,0.2-7.3,0.3c-1.2,0.1-2.4,0.1-3.6,0.3L930,25c-1.2,0.2-2.4,0.3-3.6,0.5l-3.6,0.7c-2.4,0.4-4.7,1.1-7.1,1.7
				c-1.2,0.3-2.3,0.7-3.5,1.1l-3.4,1.2c-1.1,0.4-2.2,0.9-3.4,1.4c-1.1,0.5-2.2,0.9-3.3,1.5l-3.2,1.7c-1.1,0.6-2.1,1.3-3.1,1.9
				l-1.5,1l-1.5,1.1c-1,0.7-2,1.4-2.9,2.2c-3.8,3-7.1,6.6-10,10.5c-5.8,7.8-9.5,17-11.1,26.5c-0.8,4.8-1.2,9.6-1.1,14.5
				c0.1,2.4,0.3,4.8,0.6,7.2l0.3,1.8l0.4,1.8c0.4,1.1,0.7,2.4,1.4,3.3L870.3,106.5z"/>
		</g>
		<g>
			<path class="st5" d="M884,67.7c1.4-2.5,3.1-4.8,5.1-6.9c0.9-1.1,2-2,3.1-3c1.1-0.9,2.2-1.8,3.3-2.7c4.6-3.4,9.8-6.2,15.3-8.1
				l1-0.4l1-0.3l2.1-0.6l2.1-0.6c0.7-0.2,1.4-0.3,2.1-0.4l4.3-0.8c1.4-0.2,2.9-0.3,4.3-0.5c2.9-0.4,5.8-0.4,8.7-0.5
				c2.9-0.1,5.9,0.1,8.8,0.5c5.8,0.8,11.5,2.7,16.7,5.3c5.3,2.6,10.2,5.8,14.7,9.5c9,7.4,16.5,16.6,21.7,27.2
				c1.3,2.6,2.3,5.4,3.3,8.2c0.8,2.8,1.6,5.7,2,8.7c0.8,5.9,0.4,12.2-2,17.8l-1,2.1c-0.3,0.7-0.8,1.3-1.2,2l-0.6,1l-0.7,0.9
				c-0.5,0.6-0.9,1.2-1.4,1.8c-2,2.3-4.3,4.3-6.8,6c-2.5,1.7-5.2,3-7.9,4.1c-2.8,1.1-5.6,1.8-8.5,2.4c-5.7,1.2-11.4,1.8-17.1,2.2
				c-5.7,0.4-11.4,0.6-17,1c-5.7,0.3-11.3,0.8-16.9,1.7c-5.6,1-11,2.5-16.2,4.8l-0.1-0.2c5.1-2.5,10.6-4.2,16.2-5.4
				c5.6-1.1,11.3-1.7,16.9-2.2c5.7-0.5,11.4-0.8,17-1.3c5.7-0.5,11.3-1.1,16.9-2.4c5.5-1.3,10.9-3.2,15.6-6.4
				c2.3-1.6,4.5-3.5,6.3-5.6c0.5-0.5,0.9-1.1,1.3-1.7l0.6-0.8l0.6-0.9c0.4-0.6,0.8-1.2,1.1-1.8l0.9-1.9c2.1-5.2,2.5-11.1,1.7-16.6
				c-0.3-2.8-1.1-5.6-1.9-8.3c-0.9-2.7-1.9-5.3-3.2-7.9c-4.9-10.2-12.2-19.3-20.9-26.5c-4.4-3.6-9.1-6.8-14.2-9.3
				c-5.1-2.5-10.5-4.4-16.1-5.3c-2.8-0.4-5.6-0.7-8.5-0.6c-2.8,0.1-5.7,0-8.5,0.3c-1.4,0.1-2.8,0.3-4.2,0.4l-4.2,0.7
				c-0.7,0.1-1.4,0.2-2.1,0.4l-2.1,0.5l-2.1,0.5l-1,0.3l-1,0.4c-5.4,1.7-10.6,4.3-15.2,7.5c-1.1,0.8-2.3,1.7-3.4,2.6
				c-1,1-2.2,1.8-3.1,2.9c-2,2-3.8,4.2-5.3,6.6L884,67.7z"/>
		</g>
		<g>
			<path class="st5" d="M870.6,106.3c-0.5-1.6-0.4-3.3-0.2-4.9c0.2-1.6,0.7-3.2,1.2-4.7c1.1-3.1,2.5-6,4.2-8.8
				c3.3-5.6,7.5-10.7,12.4-15.1c4.9-4.4,10.5-8.1,16.8-10.4c6.3-2.3,13.4-2.8,20-1.1c3.3,0.8,6.5,2.2,9.4,3.8
				c2.9,1.7,5.6,3.7,8.1,5.9c5,4.4,9.1,10.1,11.3,16.5c1.1,3.2,1.8,6.6,1.7,10c0,3.4-0.5,6.7-1.4,9.9c-0.4,1.6-1,3.2-1.6,4.7
				c-0.6,1.5-1.4,3-2.2,4.4c-1.6,2.8-3.4,5.5-5.7,7.9l-0.2-0.2c1.9-2.5,3.6-5.3,4.9-8.2c1.4-2.9,2.5-5.9,3.2-9
				c1.5-6.2,1.3-12.8-0.8-18.8c-2.1-6-6.1-11.2-10.9-15.5c-2.4-2.1-4.9-4.1-7.7-5.7c-2.8-1.6-5.7-2.9-8.8-3.7
				c-6.2-1.6-12.8-1.2-18.8,0.8c-6.1,2-11.6,5.5-16.4,9.7c-4.8,4.2-9.1,9.1-12.5,14.4c-1.7,2.7-3.3,5.5-4.4,8.5
				c-0.6,1.5-1.1,3-1.4,4.6c-0.3,1.6-0.4,3.2,0,4.7L870.6,106.3z"/>
		</g>
		<g>
			<path class="st5" d="M855.9,146.7c1.9-0.3,3.8-0.6,5.7-0.9c1.9-0.3,3.8-0.6,5.7-0.9c3.8-0.7,7.5-1.4,11.3-2.2
				c7.5-1.5,14.9-3.3,22.1-5.7c3.6-1.2,7.1-2.5,10.5-4c3.4-1.6,6.6-3.4,9.2-5.7c0.7-0.6,1.2-1.2,1.8-1.9c0.6-0.7,1.2-1.4,1.7-2.1
				c1.1-1.5,2.1-3,2.9-4.6c1.7-3.2,2.5-6.6,2.6-10c0.1-3.5-0.8-6.9-2.3-10.2c-1.5-3.3-3.5-6.5-5.7-9.5c-0.6-0.8-1-1.4-1.6-2
				c-0.6-0.6-1.2-1.2-1.9-1.7c-1.4-1-3-1.8-4.6-2.4c-3.3-1.2-7-1.8-10.7-1.9c-7.3,0-14.8,2.1-20.9,6.4c-3,2.1-5.7,4.9-7.6,8.1
				c-1,1.6-1.7,3.3-2.3,5.1c-0.6,1.8-1,3.7-1.2,5.6l-0.2,0c0.2-3.8,1.2-7.7,3-11.1c1.8-3.4,4.4-6.4,7.5-8.7c6.2-4.7,13.9-7,21.6-7.2
				c3.9-0.1,7.7,0.4,11.4,1.7c3.6,1.3,7.1,3.5,9.3,6.7c2.3,3.1,4.4,6.3,6,9.8c1.6,3.5,2.7,7.3,2.6,11.2c0,3.9-1.1,7.7-3,11.1
				c-0.9,1.7-2,3.3-3.1,4.9c-1.2,1.5-2.4,3-3.9,4.3c-2.9,2.6-6.4,4.4-9.9,6c-3.5,1.6-7.2,2.8-10.8,4c-7.4,2.2-14.9,3.8-22.5,5.1
				c-7.6,1.3-15.2,2.3-22.9,2.9L855.9,146.7z"/>
		</g>
	</g>
	<g class="st3">
		<g>
			<path class="st5" d="M1044.1,106.5c-0.8-1-1.1-2.2-1.5-3.4l-0.4-1.8l-0.4-1.8c-0.4-2.4-0.7-4.8-0.8-7.3c-0.3-4.9,0-9.8,0.8-14.6
				c1.5-9.7,5-19.1,10.9-27.2c2.9-4,6.3-7.7,10.1-10.8c0.9-0.8,2-1.5,2.9-2.3l1.5-1.1l1.6-1c1.1-0.7,2.1-1.3,3.2-2l3.3-1.7
				c1.1-0.6,2.2-1.1,3.4-1.6c1.1-0.5,2.3-1,3.4-1.5l3.5-1.2c1.2-0.4,2.3-0.8,3.5-1.1c2.4-0.6,4.8-1.4,7.2-1.8l3.6-0.7
				c1.2-0.3,2.4-0.4,3.7-0.6l3.7-0.5c1.2-0.2,2.4-0.2,3.7-0.3c2.5-0.2,4.9-0.5,7.4-0.4c5-0.2,10,0.5,14.9,1.4
				c9.7,2.2,19.1,6.2,27.2,11.9c4.1,2.8,7.9,6.1,11.5,9.5c1.7,1.8,3.5,3.5,5.1,5.4c0.8,0.9,1.6,1.9,2.4,2.8l2.3,2.9
				c0.8,1,1.5,2,2.2,3c0.7,1,1.4,2,2.1,3.1c1.3,2.1,2.6,4.2,3.7,6.4c2.4,4.3,4.3,8.9,6.1,13.6c3.2,9.4,5.1,19.3,4.9,29.3l0,1.9
				c0,0.6-0.1,1.2-0.1,1.9l-0.3,3.7c-0.4,2.5-0.7,5-1.3,7.4l-0.4,1.8l-0.2,0.9l-0.3,0.9l-1.2,3.6c-0.4,1.2-1,2.3-1.4,3.5l-0.7,1.7
				l-0.9,1.7c-0.6,1.1-1.2,2.2-1.8,3.3l-2.1,3.1c-1.4,2.1-3,4-4.5,5.9c-3.2,3.8-6.8,7.4-11,10.3c-4.2,2.9-9,5-14,5.9
				c-2.5,0.5-5,0.8-7.5,0.8c-2.5,0.1-5,0.1-7.4-0.1c-4.9-0.2-9.8-0.8-14.6-1.3l-14.5-1.7c-4.8-0.5-9.6-1-14.4-1.4
				c-4.8-0.4-9.6-0.3-14.3,0.1c-4.8,0.4-9.5,1.2-14.1,2.5c-4.6,1.3-9.1,3-13.5,5c-4.4,2-8.7,4.3-13.1,6.4c-2.2,1-4.5,2-6.9,2.6
				c-1.2,0.3-2.4,0.4-3.7,0.4c-1.2,0-2.5-0.3-3.6-0.7l0.1-0.2c1.1,0.4,2.3,0.6,3.5,0.6c1.2,0,2.4-0.2,3.6-0.5
				c2.3-0.6,4.6-1.6,6.7-2.7c4.3-2.2,8.6-4.6,12.9-6.7c4.4-2.1,8.9-3.9,13.6-5.3c4.7-1.4,9.5-2.3,14.3-2.8c9.7-1.1,19.4,0.1,29.1,1
				l14.5,1.5c4.8,0.5,9.7,1,14.5,1.2c2.4,0.1,4.8,0.1,7.3,0c2.4-0.1,4.8-0.4,7.2-0.9c4.7-0.9,9.3-2.9,13.2-5.6
				c4-2.8,7.4-6.2,10.5-9.9c1.5-1.9,3.1-3.8,4.4-5.8l2-3c0.6-1,1.2-2.1,1.7-3.2l0.9-1.6l0.7-1.7c0.5-1.1,1-2.2,1.4-3.4l1.1-3.4
				l0.3-0.9l0.2-0.9l0.4-1.8c0.6-2.3,0.9-4.8,1.3-7.1l0.3-3.6c0-0.6,0.1-1.2,0.1-1.8l0-1.8c0.1-9.7-1.8-19.3-4.9-28.5
				c-1.7-4.5-3.5-9-5.9-13.3c-1.1-2.2-2.4-4.2-3.6-6.3c-0.6-1-1.3-2-2-3c-0.7-1-1.3-2-2.1-3l-2.2-2.9c-0.8-0.9-1.6-1.8-2.3-2.8
				c-1.5-1.9-3.3-3.6-5-5.3c-3.5-3.3-7.1-6.6-11.2-9.2c-7.9-5.6-16.9-9.5-26.4-11.7c-4.7-0.9-9.6-1.6-14.4-1.5
				c-2.4-0.1-4.8,0.2-7.3,0.3c-1.2,0.1-2.4,0.1-3.6,0.3l-3.6,0.5c-1.2,0.2-2.4,0.3-3.6,0.5l-3.6,0.7c-2.4,0.4-4.7,1.1-7.1,1.7
				c-1.2,0.3-2.3,0.7-3.5,1.1l-3.4,1.2c-1.1,0.4-2.2,0.9-3.4,1.4c-1.1,0.5-2.2,0.9-3.3,1.5l-3.2,1.7c-1.1,0.6-2.1,1.3-3.1,1.9
				l-1.5,1l-1.5,1.1c-1,0.7-2,1.4-2.9,2.2c-3.8,3-7.1,6.6-10,10.5c-5.8,7.8-9.5,17-11.1,26.5c-0.8,4.8-1.2,9.6-1.1,14.5
				c0.1,2.4,0.3,4.8,0.6,7.2l0.3,1.8l0.4,1.8c0.4,1.1,0.7,2.4,1.4,3.3L1044.1,106.5z"/>
		</g>
		<g>
			<path class="st5" d="M1057.8,67.7c1.4-2.5,3.1-4.8,5.1-6.9c0.9-1.1,2-2,3.1-3c1.1-0.9,2.2-1.8,3.3-2.7c4.6-3.4,9.8-6.2,15.3-8.1
				l1-0.4l1-0.3l2.1-0.6l2.1-0.6c0.7-0.2,1.4-0.3,2.1-0.4l4.3-0.8c1.4-0.2,2.9-0.3,4.3-0.5c2.9-0.4,5.8-0.4,8.7-0.5
				c2.9-0.1,5.9,0.1,8.8,0.5c5.8,0.8,11.5,2.7,16.7,5.3c5.3,2.6,10.2,5.8,14.7,9.5c9,7.4,16.5,16.6,21.7,27.2
				c1.3,2.6,2.3,5.4,3.3,8.2c0.8,2.8,1.6,5.7,2,8.7c0.8,5.9,0.4,12.2-2,17.8l-1,2.1c-0.3,0.7-0.8,1.3-1.2,2l-0.6,1l-0.7,0.9
				c-0.5,0.6-0.9,1.2-1.4,1.8c-2,2.3-4.3,4.3-6.8,6c-2.5,1.7-5.2,3-7.9,4.1c-2.8,1.1-5.6,1.8-8.5,2.4c-5.7,1.2-11.4,1.8-17.1,2.2
				c-5.7,0.4-11.4,0.6-17,1c-5.7,0.3-11.3,0.8-16.9,1.7c-5.6,1-11,2.5-16.2,4.8l-0.1-0.2c5.1-2.5,10.6-4.2,16.2-5.4
				c5.6-1.1,11.3-1.7,16.9-2.2c5.7-0.5,11.4-0.8,17-1.3c5.7-0.5,11.3-1.1,16.9-2.4c5.5-1.3,10.9-3.2,15.6-6.4
				c2.3-1.6,4.5-3.5,6.3-5.6c0.5-0.5,0.9-1.1,1.3-1.7l0.6-0.8l0.6-0.9c0.4-0.6,0.8-1.2,1.1-1.8l0.9-1.9c2.1-5.2,2.5-11.1,1.7-16.6
				c-0.3-2.8-1.1-5.6-1.9-8.3c-0.9-2.7-1.9-5.3-3.2-7.9c-4.9-10.2-12.2-19.3-20.9-26.5c-4.4-3.6-9.1-6.8-14.2-9.3
				c-5.1-2.5-10.5-4.4-16.1-5.3c-2.8-0.4-5.6-0.7-8.5-0.6c-2.8,0.1-5.7,0-8.5,0.3c-1.4,0.1-2.8,0.3-4.2,0.4l-4.2,0.7
				c-0.7,0.1-1.4,0.2-2.1,0.4l-2.1,0.5l-2.1,0.5l-1,0.3l-1,0.4c-5.4,1.7-10.6,4.3-15.2,7.5c-1.1,0.8-2.3,1.7-3.4,2.6
				c-1,1-2.2,1.8-3.1,2.9c-2,2-3.8,4.2-5.3,6.6L1057.8,67.7z"/>
		</g>
		<g>
			<path class="st5" d="M1044.4,106.3c-0.5-1.6-0.4-3.3-0.2-4.9c0.2-1.6,0.7-3.2,1.2-4.7c1.1-3.1,2.5-6,4.2-8.8
				c3.3-5.6,7.5-10.7,12.4-15.1c4.9-4.4,10.5-8.1,16.8-10.4c6.3-2.3,13.4-2.8,20-1.1c3.3,0.8,6.5,2.2,9.4,3.8
				c2.9,1.7,5.6,3.7,8.1,5.9c5,4.4,9.1,10.1,11.3,16.5c1.1,3.2,1.8,6.6,1.7,10c0,3.4-0.5,6.7-1.4,9.9c-0.4,1.6-1,3.2-1.6,4.7
				c-0.6,1.5-1.4,3-2.2,4.4c-1.6,2.8-3.4,5.5-5.7,7.9l-0.2-0.2c1.9-2.5,3.6-5.3,4.9-8.2c1.4-2.9,2.5-5.9,3.2-9
				c1.5-6.2,1.3-12.8-0.8-18.8c-2.1-6-6.1-11.2-10.9-15.5c-2.4-2.1-4.9-4.1-7.7-5.7c-2.8-1.6-5.7-2.9-8.8-3.7
				c-6.2-1.6-12.8-1.2-18.8,0.8c-6.1,2-11.6,5.5-16.4,9.7c-4.8,4.2-9.1,9.1-12.5,14.4c-1.7,2.7-3.3,5.5-4.4,8.5
				c-0.6,1.5-1.1,3-1.4,4.6c-0.3,1.6-0.4,3.2,0,4.7L1044.4,106.3z"/>
		</g>
		<g>
			<path class="st5" d="M1029.7,146.7c1.9-0.3,3.8-0.6,5.7-0.9c1.9-0.3,3.8-0.6,5.7-0.9c3.8-0.7,7.5-1.4,11.3-2.2
				c7.5-1.5,14.9-3.3,22.1-5.7c3.6-1.2,7.1-2.5,10.5-4c3.4-1.6,6.6-3.4,9.2-5.7c0.7-0.6,1.2-1.2,1.8-1.9c0.6-0.7,1.2-1.4,1.7-2.1
				c1.1-1.5,2.1-3,2.9-4.6c1.7-3.2,2.5-6.6,2.6-10c0.1-3.5-0.8-6.9-2.3-10.2c-1.5-3.3-3.5-6.5-5.7-9.5c-0.6-0.8-1-1.4-1.6-2
				c-0.6-0.6-1.2-1.2-1.9-1.7c-1.4-1-3-1.8-4.6-2.4c-3.3-1.2-7-1.8-10.7-1.9c-7.3,0-14.8,2.1-20.9,6.4c-3,2.1-5.7,4.9-7.6,8.1
				c-1,1.6-1.7,3.3-2.3,5.1c-0.6,1.8-1,3.7-1.2,5.6l-0.2,0c0.2-3.8,1.2-7.7,3-11.1c1.8-3.4,4.4-6.4,7.5-8.7c6.2-4.7,13.9-7,21.6-7.2
				c3.9-0.1,7.7,0.4,11.4,1.7c3.6,1.3,7.1,3.5,9.3,6.7c2.3,3.1,4.4,6.3,6,9.8c1.6,3.5,2.7,7.3,2.6,11.2c0,3.9-1.1,7.7-3,11.1
				c-0.9,1.7-2,3.3-3.1,4.9c-1.2,1.5-2.4,3-3.9,4.3c-2.9,2.6-6.4,4.4-9.9,6c-3.5,1.6-7.2,2.8-10.8,4c-7.4,2.2-14.9,3.8-22.5,5.1
				c-7.6,1.3-15.2,2.3-22.9,2.9L1029.7,146.7z"/>
		</g>
	</g>
	
		<rect x="1547.8" y="-205.3" transform="matrix(3.040485e-03 -1 1 3.040485e-03 1414.5131 2353.5527)" class="st1" width="679.6" height="1345.3"/>
	<polygon class="st2" points="2554.2,143.3 1209,155 1206.7,-139.7 2551.6,-151.5 	"/>
	<g class="st3">
		<defs>
			
				<rect id="SVGID_5_" x="1743.1" y="-575.4" transform="matrix(3.153258e-03 -1 1 3.153258e-03 1776.9017 1976.991)" width="273.9" height="1345.3"/>
		</defs>
		<clipPath id="SVGID_6_">
			<use xlink:href="#SVGID_5_"  style="overflow:visible;"/>
		</clipPath>
		<path class="st6" d="M1189.5,147.7c0,0,102.7,0.4,92.4-43.7c-10.8-46.3-62.3-18.7-60.2,2.3c0,0-18.2-51.5,38.7-75.8
			c76.3-32.7,154.5,59.9,96.8,126.8C1291.7,233.3,1189.5,147.7,1189.5,147.7z"/>
		<path class="st6" d="M1365.1,148.5c0,0,102.7,0.4,92.4-43.7c-10.8-46.3-62.3-18.7-60.2,2.3c0,0-18.2-51.5,38.7-75.8
			c76.3-32.7,154.5,59.9,96.8,126.8C1467.3,234.1,1365.1,148.5,1365.1,148.5z"/>
		<path class="st6" d="M1539.4,148.5c0,0,102.7,0.4,92.4-43.7c-10.8-46.3-62.3-18.7-60.2,2.3c0,0-18.2-51.5,38.7-75.8
			c76.3-32.7,154.5,59.9,96.8,126.8C1641.5,234.1,1539.4,148.5,1539.4,148.5z"/>
		<path class="st6" d="M1714.5,148.5c0,0,102.7,0.4,92.4-43.7c-10.8-46.3-62.3-18.7-60.2,2.3c0,0-18.2-51.5,38.7-75.8
			c76.3-32.7,154.5,59.9,96.8,126.8C1816.7,234.1,1714.5,148.5,1714.5,148.5z"/>
		<path class="st6" d="M1888.8,148.5c0,0,102.7,0.4,92.4-43.7c-10.8-46.3-62.3-18.7-60.2,2.3c0,0-18.2-51.5,38.7-75.8
			c76.3-32.7,154.5,59.9,96.8,126.8C1991,234.1,1888.8,148.5,1888.8,148.5z"/>
		<path class="st6" d="M2062.2,148.5c0,0,102.7,0.4,92.4-43.7c-10.8-46.3-62.3-18.7-60.2,2.3c0,0-18.2-51.5,38.7-75.8
			c76.3-32.7,154.5,59.9,96.8,126.8C2164.3,234.1,2062.2,148.5,2062.2,148.5z"/>
		<path class="st6" d="M2235.5,150.2c0,0,102.7,0.4,92.4-43.7c-10.8-46.3-62.3-18.7-60.2,2.3c0,0-18.2-51.5,38.7-75.8
			c76.3-32.7,154.5,59.9,96.8,126.8C2337.7,235.8,2235.5,150.2,2235.5,150.2z"/>
	</g>
	<g class="st3">
		<g>
			<path class="st5" d="M1221.6,106.5c-0.8-1-1.1-2.2-1.5-3.4l-0.4-1.8l-0.4-1.8c-0.4-2.4-0.7-4.8-0.8-7.3c-0.3-4.9,0-9.8,0.8-14.6
				c1.5-9.7,5-19.1,10.9-27.2c2.9-4,6.3-7.7,10.1-10.8c0.9-0.8,2-1.5,2.9-2.3l1.5-1.1l1.6-1c1.1-0.7,2.1-1.3,3.2-2l3.3-1.7
				c1.1-0.6,2.2-1.1,3.4-1.6c1.1-0.5,2.3-1,3.4-1.5l3.5-1.2c1.2-0.4,2.3-0.8,3.5-1.1c2.4-0.6,4.8-1.4,7.2-1.8l3.6-0.7
				c1.2-0.3,2.4-0.4,3.7-0.6l3.7-0.5c1.2-0.2,2.4-0.2,3.7-0.3c2.5-0.2,4.9-0.5,7.4-0.4c5-0.2,10,0.5,14.9,1.4
				c9.7,2.2,19.1,6.2,27.2,11.9c4.1,2.8,7.9,6.1,11.5,9.5c1.7,1.8,3.5,3.5,5.1,5.4c0.8,0.9,1.6,1.9,2.4,2.8l2.3,2.9
				c0.8,1,1.5,2,2.2,3c0.7,1,1.4,2,2.1,3.1c1.3,2.1,2.6,4.2,3.7,6.4c2.4,4.3,4.3,8.9,6.1,13.6c3.2,9.4,5.1,19.3,4.9,29.3l0,1.9
				c0,0.6-0.1,1.2-0.1,1.9l-0.3,3.7c-0.4,2.5-0.7,5-1.3,7.4l-0.4,1.8l-0.2,0.9l-0.3,0.9l-1.2,3.6c-0.4,1.2-1,2.3-1.4,3.5l-0.7,1.7
				l-0.9,1.7c-0.6,1.1-1.2,2.2-1.8,3.3l-2.1,3.1c-1.4,2.1-3,4-4.5,5.9c-3.2,3.8-6.8,7.4-11,10.3c-4.2,2.9-9,5-14,5.9
				c-2.5,0.5-5,0.8-7.5,0.8c-2.5,0.1-5,0.1-7.4-0.1c-4.9-0.2-9.8-0.8-14.6-1.3l-14.5-1.7c-4.8-0.5-9.6-1-14.4-1.4
				c-4.8-0.4-9.6-0.3-14.3,0.1c-4.8,0.4-9.5,1.2-14.1,2.5c-4.6,1.3-9.1,3-13.5,5c-4.4,2-8.7,4.3-13.1,6.4c-2.2,1-4.5,2-6.9,2.6
				c-1.2,0.3-2.4,0.4-3.7,0.4c-1.2,0-2.5-0.3-3.6-0.7l0.1-0.2c1.1,0.4,2.3,0.6,3.5,0.6c1.2,0,2.4-0.2,3.6-0.5
				c2.3-0.6,4.6-1.6,6.7-2.7c4.3-2.2,8.6-4.6,12.9-6.7c4.4-2.1,8.9-3.9,13.6-5.3c4.7-1.4,9.5-2.3,14.3-2.8c9.7-1.1,19.4,0.1,29.1,1
				l14.5,1.5c4.8,0.5,9.7,1,14.5,1.2c2.4,0.1,4.8,0.1,7.3,0c2.4-0.1,4.8-0.4,7.2-0.9c4.7-0.9,9.3-2.9,13.2-5.6
				c4-2.8,7.4-6.2,10.5-9.9c1.5-1.9,3.1-3.8,4.4-5.8l2-3c0.6-1,1.2-2.1,1.7-3.2l0.9-1.6l0.7-1.7c0.5-1.1,1-2.2,1.4-3.4l1.1-3.4
				l0.3-0.9l0.2-0.9l0.4-1.8c0.6-2.3,0.9-4.8,1.3-7.1l0.3-3.6c0-0.6,0.1-1.2,0.1-1.8l0-1.8c0.1-9.7-1.8-19.3-4.9-28.5
				c-1.7-4.5-3.5-9-5.9-13.3c-1.1-2.2-2.4-4.2-3.6-6.3c-0.6-1-1.3-2-2-3c-0.7-1-1.3-2-2.1-3l-2.2-2.9c-0.8-0.9-1.6-1.8-2.3-2.8
				c-1.5-1.9-3.3-3.6-5-5.3c-3.5-3.3-7.1-6.6-11.2-9.2c-7.9-5.6-16.9-9.5-26.4-11.7c-4.7-0.9-9.6-1.6-14.4-1.5
				c-2.4-0.1-4.8,0.2-7.3,0.3c-1.2,0.1-2.4,0.1-3.6,0.3l-3.6,0.5c-1.2,0.2-2.4,0.3-3.6,0.5l-3.6,0.7c-2.4,0.4-4.7,1.1-7.1,1.7
				c-1.2,0.3-2.3,0.7-3.5,1.1l-3.4,1.2c-1.1,0.4-2.2,0.9-3.4,1.4c-1.1,0.5-2.2,0.9-3.3,1.5l-3.2,1.7c-1.1,0.6-2.1,1.3-3.1,1.9
				l-1.5,1l-1.5,1.1c-1,0.7-2,1.4-2.9,2.2c-3.8,3-7.1,6.6-10,10.5c-5.8,7.8-9.5,17-11.1,26.5c-0.8,4.8-1.2,9.6-1.1,14.5
				c0.1,2.4,0.3,4.8,0.6,7.2l0.3,1.8l0.4,1.8c0.4,1.1,0.7,2.4,1.4,3.3L1221.6,106.5z"/>
		</g>
		<g>
			<path class="st5" d="M1235.3,67.7c1.4-2.5,3.1-4.8,5.1-6.9c0.9-1.1,2-2,3.1-3c1.1-0.9,2.2-1.8,3.3-2.7c4.6-3.4,9.8-6.2,15.3-8.1
				l1-0.4l1-0.3l2.1-0.6l2.1-0.6c0.7-0.2,1.4-0.3,2.1-0.4l4.3-0.8c1.4-0.2,2.9-0.3,4.3-0.5c2.9-0.4,5.8-0.4,8.7-0.5
				c2.9-0.1,5.9,0.1,8.8,0.5c5.8,0.8,11.5,2.7,16.7,5.3c5.3,2.6,10.2,5.8,14.7,9.5c9,7.4,16.5,16.6,21.7,27.2
				c1.3,2.6,2.3,5.4,3.3,8.2c0.8,2.8,1.6,5.7,2,8.7c0.8,5.9,0.4,12.2-2,17.8l-1,2.1c-0.3,0.7-0.8,1.3-1.2,2l-0.6,1l-0.7,0.9
				c-0.5,0.6-0.9,1.2-1.4,1.8c-2,2.3-4.3,4.3-6.8,6c-2.5,1.7-5.2,3-7.9,4.1c-2.8,1.1-5.6,1.8-8.5,2.4c-5.7,1.2-11.4,1.8-17.1,2.2
				c-5.7,0.4-11.4,0.6-17,1c-5.7,0.3-11.3,0.8-16.9,1.7c-5.6,1-11,2.5-16.2,4.8l-0.1-0.2c5.1-2.5,10.6-4.2,16.2-5.4
				c5.6-1.1,11.3-1.7,16.9-2.2c5.7-0.5,11.4-0.8,17-1.3c5.7-0.5,11.3-1.1,16.9-2.4c5.5-1.3,10.9-3.2,15.6-6.4
				c2.3-1.6,4.5-3.5,6.3-5.6c0.5-0.5,0.9-1.1,1.3-1.7l0.6-0.8l0.6-0.9c0.4-0.6,0.8-1.2,1.1-1.8l0.9-1.9c2.1-5.2,2.5-11.1,1.7-16.6
				c-0.3-2.8-1.1-5.6-1.9-8.3c-0.9-2.7-1.9-5.3-3.2-7.9c-4.9-10.2-12.2-19.3-20.9-26.5c-4.4-3.6-9.1-6.8-14.2-9.3
				c-5.1-2.5-10.5-4.4-16.1-5.3c-2.8-0.4-5.6-0.7-8.5-0.6c-2.8,0.1-5.7,0-8.5,0.3c-1.4,0.1-2.8,0.3-4.2,0.4l-4.2,0.7
				c-0.7,0.1-1.4,0.2-2.1,0.4l-2.1,0.5l-2.1,0.5l-1,0.3l-1,0.4c-5.4,1.7-10.6,4.3-15.2,7.5c-1.1,0.8-2.3,1.7-3.4,2.6
				c-1,1-2.2,1.8-3.1,2.9c-2,2-3.8,4.2-5.3,6.6L1235.3,67.7z"/>
		</g>
		<g>
			<path class="st5" d="M1221.9,106.3c-0.5-1.6-0.4-3.3-0.2-4.9c0.2-1.6,0.7-3.2,1.2-4.7c1.1-3.1,2.5-6,4.2-8.8
				c3.3-5.6,7.5-10.7,12.4-15.1c4.9-4.4,10.5-8.1,16.8-10.4c6.3-2.3,13.4-2.8,20-1.1c3.3,0.8,6.5,2.2,9.4,3.8
				c2.9,1.7,5.6,3.7,8.1,5.9c5,4.4,9.1,10.1,11.3,16.5c1.1,3.2,1.8,6.6,1.7,10c0,3.4-0.5,6.7-1.4,9.9c-0.4,1.6-1,3.2-1.6,4.7
				c-0.6,1.5-1.4,3-2.2,4.4c-1.6,2.8-3.4,5.5-5.7,7.9l-0.2-0.2c1.9-2.5,3.6-5.3,4.9-8.2c1.4-2.9,2.5-5.9,3.2-9
				c1.5-6.2,1.3-12.8-0.8-18.8c-2.1-6-6.1-11.2-10.9-15.5c-2.4-2.1-4.9-4.1-7.7-5.7c-2.8-1.6-5.7-2.9-8.8-3.7
				c-6.2-1.6-12.8-1.2-18.8,0.8c-6.1,2-11.6,5.5-16.4,9.7c-4.8,4.2-9.1,9.1-12.5,14.4c-1.7,2.7-3.3,5.5-4.4,8.5
				c-0.6,1.5-1.1,3-1.4,4.6c-0.3,1.6-0.4,3.2,0,4.7L1221.9,106.3z"/>
		</g>
		<g>
			<path class="st5" d="M1207.2,146.7c1.9-0.3,3.8-0.6,5.7-0.9c1.9-0.3,3.8-0.6,5.7-0.9c3.8-0.7,7.5-1.4,11.3-2.2
				c7.5-1.5,14.9-3.3,22.1-5.7c3.6-1.2,7.1-2.5,10.5-4c3.4-1.6,6.6-3.4,9.2-5.7c0.7-0.6,1.2-1.2,1.8-1.9c0.6-0.7,1.2-1.4,1.7-2.1
				c1.1-1.5,2.1-3,2.9-4.6c1.7-3.2,2.5-6.6,2.6-10c0.1-3.5-0.8-6.9-2.3-10.2c-1.5-3.3-3.5-6.5-5.7-9.5c-0.6-0.8-1-1.4-1.6-2
				c-0.6-0.6-1.2-1.2-1.9-1.7c-1.4-1-3-1.8-4.6-2.4c-3.3-1.2-7-1.8-10.7-1.9c-7.3,0-14.8,2.1-20.9,6.4c-3,2.1-5.7,4.9-7.6,8.1
				c-1,1.6-1.7,3.3-2.3,5.1c-0.6,1.8-1,3.7-1.2,5.6l-0.2,0c0.2-3.8,1.2-7.7,3-11.1c1.8-3.4,4.4-6.4,7.5-8.7c6.2-4.7,13.9-7,21.6-7.2
				c3.9-0.1,7.7,0.4,11.4,1.7c3.6,1.3,7.1,3.5,9.3,6.7c2.3,3.1,4.4,6.3,6,9.8c1.6,3.5,2.7,7.3,2.6,11.2c0,3.9-1.1,7.7-3,11.1
				c-0.9,1.7-2,3.3-3.1,4.9c-1.2,1.5-2.4,3-3.9,4.3c-2.9,2.6-6.4,4.4-9.9,6c-3.5,1.6-7.2,2.8-10.8,4c-7.4,2.2-14.9,3.8-22.5,5.1
				c-7.6,1.3-15.2,2.3-22.9,2.9L1207.2,146.7z"/>
		</g>
	</g>
	<g class="st3">
		<g>
			<path class="st5" d="M1397.4,106.5c-0.8-1-1.1-2.2-1.5-3.4l-0.4-1.8l-0.4-1.8c-0.4-2.4-0.7-4.8-0.8-7.3c-0.3-4.9,0-9.8,0.8-14.6
				c1.5-9.7,5-19.1,10.9-27.2c2.9-4,6.3-7.7,10.1-10.8c0.9-0.8,2-1.5,2.9-2.3l1.5-1.1l1.6-1c1.1-0.7,2.1-1.3,3.2-2l3.3-1.7
				c1.1-0.6,2.2-1.1,3.4-1.6c1.1-0.5,2.3-1,3.4-1.5l3.5-1.2c1.2-0.4,2.3-0.8,3.5-1.1c2.4-0.6,4.8-1.4,7.2-1.8l3.6-0.7
				c1.2-0.3,2.4-0.4,3.7-0.6l3.7-0.5c1.2-0.2,2.4-0.2,3.7-0.3c2.5-0.2,4.9-0.5,7.4-0.4c5-0.2,10,0.5,14.9,1.4
				c9.7,2.2,19.1,6.2,27.2,11.9c4.1,2.8,7.9,6.1,11.5,9.5c1.7,1.8,3.5,3.5,5.1,5.4c0.8,0.9,1.6,1.9,2.4,2.8l2.3,2.9
				c0.8,1,1.5,2,2.2,3c0.7,1,1.4,2,2.1,3.1c1.3,2.1,2.6,4.2,3.7,6.4c2.4,4.3,4.3,8.9,6.1,13.6c3.2,9.4,5.1,19.3,4.9,29.3l0,1.9
				c0,0.6-0.1,1.2-0.1,1.9l-0.3,3.7c-0.4,2.5-0.7,5-1.3,7.4l-0.4,1.8l-0.2,0.9l-0.3,0.9l-1.2,3.6c-0.4,1.2-1,2.3-1.4,3.5l-0.7,1.7
				l-0.9,1.7c-0.6,1.1-1.2,2.2-1.8,3.3l-2.1,3.1c-1.4,2.1-3,4-4.5,5.9c-3.2,3.8-6.8,7.4-11,10.3c-4.2,2.9-9,5-14,5.9
				c-2.5,0.5-5,0.8-7.5,0.8c-2.5,0.1-5,0.1-7.4-0.1c-4.9-0.2-9.8-0.8-14.6-1.3l-14.5-1.7c-4.8-0.5-9.6-1-14.4-1.4
				c-4.8-0.4-9.6-0.3-14.3,0.1c-4.8,0.4-9.5,1.2-14.1,2.5c-4.6,1.3-9.1,3-13.5,5c-4.4,2-8.7,4.3-13.1,6.4c-2.2,1-4.5,2-6.9,2.6
				c-1.2,0.3-2.4,0.4-3.7,0.4c-1.2,0-2.5-0.3-3.6-0.7l0.1-0.2c1.1,0.4,2.3,0.6,3.5,0.6c1.2,0,2.4-0.2,3.6-0.5
				c2.3-0.6,4.6-1.6,6.7-2.7c4.3-2.2,8.6-4.6,12.9-6.7c4.4-2.1,8.9-3.9,13.6-5.3c4.7-1.4,9.5-2.3,14.3-2.8c9.7-1.1,19.4,0.1,29.1,1
				l14.5,1.5c4.8,0.5,9.7,1,14.5,1.2c2.4,0.1,4.8,0.1,7.3,0c2.4-0.1,4.8-0.4,7.2-0.9c4.7-0.9,9.3-2.9,13.2-5.6
				c4-2.8,7.4-6.2,10.5-9.9c1.5-1.9,3.1-3.8,4.4-5.8l2-3c0.6-1,1.2-2.1,1.7-3.2l0.9-1.6l0.7-1.7c0.5-1.1,1-2.2,1.4-3.4l1.1-3.4
				l0.3-0.9l0.2-0.9l0.4-1.8c0.6-2.3,0.9-4.8,1.3-7.1l0.3-3.6c0-0.6,0.1-1.2,0.1-1.8l0-1.8c0.1-9.7-1.8-19.3-4.9-28.5
				c-1.7-4.5-3.5-9-5.9-13.3c-1.1-2.2-2.4-4.2-3.6-6.3c-0.6-1-1.3-2-2-3c-0.7-1-1.3-2-2.1-3l-2.2-2.9c-0.8-0.9-1.6-1.8-2.3-2.8
				c-1.5-1.9-3.3-3.6-5-5.3c-3.5-3.3-7.1-6.6-11.2-9.2c-7.9-5.6-16.9-9.5-26.4-11.7c-4.7-0.9-9.6-1.6-14.4-1.5
				c-2.4-0.1-4.8,0.2-7.3,0.3c-1.2,0.1-2.4,0.1-3.6,0.3l-3.6,0.5c-1.2,0.2-2.4,0.3-3.6,0.5l-3.6,0.7c-2.4,0.4-4.7,1.1-7.1,1.7
				c-1.2,0.3-2.3,0.7-3.5,1.1l-3.4,1.2c-1.1,0.4-2.2,0.9-3.4,1.4c-1.1,0.5-2.2,0.9-3.3,1.5l-3.2,1.7c-1.1,0.6-2.1,1.3-3.1,1.9
				l-1.5,1l-1.5,1.1c-1,0.7-2,1.4-2.9,2.2c-3.8,3-7.1,6.6-10,10.5c-5.8,7.8-9.5,17-11.1,26.5c-0.8,4.8-1.2,9.6-1.1,14.5
				c0.1,2.4,0.3,4.8,0.6,7.2l0.3,1.8l0.4,1.8c0.4,1.1,0.7,2.4,1.4,3.3L1397.4,106.5z"/>
		</g>
		<g>
			<path class="st5" d="M1411.1,67.7c1.4-2.5,3.1-4.8,5.1-6.9c0.9-1.1,2-2,3.1-3c1.1-0.9,2.2-1.8,3.3-2.7c4.6-3.4,9.8-6.2,15.3-8.1
				l1-0.4l1-0.3l2.1-0.6l2.1-0.6c0.7-0.2,1.4-0.3,2.1-0.4l4.3-0.8c1.4-0.2,2.9-0.3,4.3-0.5c2.9-0.4,5.8-0.4,8.7-0.5
				c2.9-0.1,5.9,0.1,8.8,0.5c5.8,0.8,11.5,2.7,16.7,5.3c5.3,2.6,10.2,5.8,14.7,9.5c9,7.4,16.5,16.6,21.7,27.2
				c1.3,2.6,2.3,5.4,3.3,8.2c0.8,2.8,1.6,5.7,2,8.7c0.8,5.9,0.4,12.2-2,17.8l-1,2.1c-0.3,0.7-0.8,1.3-1.2,2l-0.6,1l-0.7,0.9
				c-0.5,0.6-0.9,1.2-1.4,1.8c-2,2.3-4.3,4.3-6.8,6c-2.5,1.7-5.2,3-7.9,4.1c-2.8,1.1-5.6,1.8-8.5,2.4c-5.7,1.2-11.4,1.8-17.1,2.2
				c-5.7,0.4-11.4,0.6-17,1c-5.7,0.3-11.3,0.8-16.9,1.7c-5.6,1-11,2.5-16.2,4.8l-0.1-0.2c5.1-2.5,10.6-4.2,16.2-5.4
				c5.6-1.1,11.3-1.7,16.9-2.2c5.7-0.5,11.4-0.8,17-1.3c5.7-0.5,11.3-1.1,16.9-2.4c5.5-1.3,10.9-3.2,15.6-6.4
				c2.3-1.6,4.5-3.5,6.3-5.6c0.5-0.5,0.9-1.1,1.3-1.7l0.6-0.8l0.6-0.9c0.4-0.6,0.8-1.2,1.1-1.8l0.9-1.9c2.1-5.2,2.5-11.1,1.7-16.6
				c-0.3-2.8-1.1-5.6-1.9-8.3c-0.9-2.7-1.9-5.3-3.2-7.9c-4.9-10.2-12.2-19.3-20.9-26.5c-4.4-3.6-9.1-6.8-14.2-9.3
				c-5.1-2.5-10.5-4.4-16.1-5.3c-2.8-0.4-5.6-0.7-8.5-0.6c-2.8,0.1-5.7,0-8.5,0.3c-1.4,0.1-2.8,0.3-4.2,0.4l-4.2,0.7
				c-0.7,0.1-1.4,0.2-2.1,0.4l-2.1,0.5l-2.1,0.5l-1,0.3l-1,0.4c-5.4,1.7-10.6,4.3-15.2,7.5c-1.1,0.8-2.3,1.7-3.4,2.6
				c-1,1-2.2,1.8-3.1,2.9c-2,2-3.8,4.2-5.3,6.6L1411.1,67.7z"/>
		</g>
		<g>
			<path class="st5" d="M1397.6,106.3c-0.5-1.6-0.4-3.3-0.2-4.9c0.2-1.6,0.7-3.2,1.2-4.7c1.1-3.1,2.5-6,4.2-8.8
				c3.3-5.6,7.5-10.7,12.4-15.1c4.9-4.4,10.5-8.1,16.8-10.4c6.3-2.3,13.4-2.8,20-1.1c3.3,0.8,6.5,2.2,9.4,3.8
				c2.9,1.7,5.6,3.7,8.1,5.9c5,4.4,9.1,10.1,11.3,16.5c1.1,3.2,1.8,6.6,1.7,10c0,3.4-0.5,6.7-1.4,9.9c-0.4,1.6-1,3.2-1.6,4.7
				c-0.6,1.5-1.4,3-2.2,4.4c-1.6,2.8-3.4,5.5-5.7,7.9l-0.2-0.2c1.9-2.5,3.6-5.3,4.9-8.2c1.4-2.9,2.5-5.9,3.2-9
				c1.5-6.2,1.3-12.8-0.8-18.8c-2.1-6-6.1-11.2-10.9-15.5c-2.4-2.1-4.9-4.1-7.7-5.7c-2.8-1.6-5.7-2.9-8.8-3.7
				c-6.2-1.6-12.8-1.2-18.8,0.8c-6.1,2-11.6,5.5-16.4,9.7c-4.8,4.2-9.1,9.1-12.5,14.4c-1.7,2.7-3.3,5.5-4.4,8.5
				c-0.6,1.5-1.1,3-1.4,4.6c-0.3,1.6-0.4,3.2,0,4.7L1397.6,106.3z"/>
		</g>
		<g>
			<path class="st5" d="M1383,146.7c1.9-0.3,3.8-0.6,5.7-0.9c1.9-0.3,3.8-0.6,5.7-0.9c3.8-0.7,7.5-1.4,11.3-2.2
				c7.5-1.5,14.9-3.3,22.1-5.7c3.6-1.2,7.1-2.5,10.5-4c3.4-1.6,6.6-3.4,9.2-5.7c0.7-0.6,1.2-1.2,1.8-1.9c0.6-0.7,1.2-1.4,1.7-2.1
				c1.1-1.5,2.1-3,2.9-4.6c1.7-3.2,2.5-6.6,2.6-10c0.1-3.5-0.8-6.9-2.3-10.2c-1.5-3.3-3.5-6.5-5.7-9.5c-0.6-0.8-1-1.4-1.6-2
				c-0.6-0.6-1.2-1.2-1.9-1.7c-1.4-1-3-1.8-4.6-2.4c-3.3-1.2-7-1.8-10.7-1.9c-7.3,0-14.8,2.1-20.9,6.4c-3,2.1-5.7,4.9-7.6,8.1
				c-1,1.6-1.7,3.3-2.3,5.1c-0.6,1.8-1,3.7-1.2,5.6l-0.2,0c0.2-3.8,1.2-7.7,3-11.1c1.8-3.4,4.4-6.4,7.5-8.7c6.2-4.7,13.9-7,21.6-7.2
				c3.9-0.1,7.7,0.4,11.4,1.7c3.6,1.3,7.1,3.5,9.3,6.7c2.3,3.1,4.4,6.3,6,9.8c1.6,3.5,2.7,7.3,2.6,11.2c0,3.9-1.1,7.7-3,11.1
				c-0.9,1.7-2,3.3-3.1,4.9c-1.2,1.5-2.4,3-3.9,4.3c-2.9,2.6-6.4,4.4-9.9,6c-3.5,1.6-7.2,2.8-10.8,4c-7.4,2.2-14.9,3.8-22.5,5.1
				c-7.6,1.3-15.2,2.3-22.9,2.9L1383,146.7z"/>
		</g>
	</g>
	<g class="st3">
		<g>
			<path class="st5" d="M1571.6,106.5c-0.8-1-1.1-2.2-1.5-3.4l-0.4-1.8l-0.4-1.8c-0.4-2.4-0.7-4.8-0.8-7.3c-0.3-4.9,0-9.8,0.8-14.6
				c1.5-9.7,5-19.1,10.9-27.2c2.9-4,6.3-7.7,10.1-10.8c0.9-0.8,2-1.5,2.9-2.3l1.5-1.1l1.6-1c1.1-0.7,2.1-1.3,3.2-2l3.3-1.7
				c1.1-0.6,2.2-1.1,3.4-1.6c1.1-0.5,2.3-1,3.4-1.5l3.5-1.2c1.2-0.4,2.3-0.8,3.5-1.1c2.4-0.6,4.8-1.4,7.2-1.8l3.6-0.7
				c1.2-0.3,2.4-0.4,3.7-0.6l3.7-0.5c1.2-0.2,2.4-0.2,3.7-0.3c2.5-0.2,4.9-0.5,7.4-0.4c5-0.2,10,0.5,14.9,1.4
				c9.7,2.2,19.1,6.2,27.2,11.9c4.1,2.8,7.9,6.1,11.5,9.5c1.7,1.8,3.5,3.5,5.1,5.4c0.8,0.9,1.6,1.9,2.4,2.8l2.3,2.9
				c0.8,1,1.5,2,2.2,3c0.7,1,1.4,2,2.1,3.1c1.3,2.1,2.6,4.2,3.7,6.4c2.4,4.3,4.3,8.9,6.1,13.6c3.2,9.4,5.1,19.3,4.9,29.3l0,1.9
				c0,0.6-0.1,1.2-0.1,1.9l-0.3,3.7c-0.4,2.5-0.7,5-1.3,7.4l-0.4,1.8l-0.2,0.9l-0.3,0.9l-1.2,3.6c-0.4,1.2-1,2.3-1.4,3.5l-0.7,1.7
				l-0.9,1.7c-0.6,1.1-1.2,2.2-1.8,3.3l-2.1,3.1c-1.4,2.1-3,4-4.5,5.9c-3.2,3.8-6.8,7.4-11,10.3c-4.2,2.9-9,5-14,5.9
				c-2.5,0.5-5,0.8-7.5,0.8c-2.5,0.1-5,0.1-7.4-0.1c-4.9-0.2-9.8-0.8-14.6-1.3l-14.5-1.7c-4.8-0.5-9.6-1-14.4-1.4
				c-4.8-0.4-9.6-0.3-14.3,0.1c-4.8,0.4-9.5,1.2-14.1,2.5c-4.6,1.3-9.1,3-13.5,5c-4.4,2-8.7,4.3-13.1,6.4c-2.2,1-4.5,2-6.9,2.6
				c-1.2,0.3-2.4,0.4-3.7,0.4c-1.2,0-2.5-0.3-3.6-0.7l0.1-0.2c1.1,0.4,2.3,0.6,3.5,0.6c1.2,0,2.4-0.2,3.6-0.5
				c2.3-0.6,4.6-1.6,6.7-2.7c4.3-2.2,8.6-4.6,12.9-6.7c4.4-2.1,8.9-3.9,13.6-5.3c4.7-1.4,9.5-2.3,14.3-2.8c9.7-1.1,19.4,0.1,29.1,1
				l14.5,1.5c4.8,0.5,9.7,1,14.5,1.2c2.4,0.1,4.8,0.1,7.3,0c2.4-0.1,4.8-0.4,7.2-0.9c4.7-0.9,9.3-2.9,13.2-5.6
				c4-2.8,7.4-6.2,10.5-9.9c1.5-1.9,3.1-3.8,4.4-5.8l2-3c0.6-1,1.2-2.1,1.7-3.2l0.9-1.6l0.7-1.7c0.5-1.1,1-2.2,1.4-3.4l1.1-3.4
				l0.3-0.9l0.2-0.9l0.4-1.8c0.6-2.3,0.9-4.8,1.3-7.1l0.3-3.6c0-0.6,0.1-1.2,0.1-1.8l0-1.8c0.1-9.7-1.8-19.3-4.9-28.5
				c-1.7-4.5-3.5-9-5.9-13.3c-1.1-2.2-2.4-4.2-3.6-6.3c-0.6-1-1.3-2-2-3c-0.7-1-1.3-2-2.1-3l-2.2-2.9c-0.8-0.9-1.6-1.8-2.3-2.8
				c-1.5-1.9-3.3-3.6-5-5.3c-3.5-3.3-7.1-6.6-11.2-9.2c-7.9-5.6-16.9-9.5-26.4-11.7c-4.7-0.9-9.6-1.6-14.4-1.5
				c-2.4-0.1-4.8,0.2-7.3,0.3c-1.2,0.1-2.4,0.1-3.6,0.3l-3.6,0.5c-1.2,0.2-2.4,0.3-3.6,0.5l-3.6,0.7c-2.4,0.4-4.7,1.1-7.1,1.7
				c-1.2,0.3-2.3,0.7-3.5,1.1l-3.4,1.2c-1.1,0.4-2.2,0.9-3.4,1.4c-1.1,0.5-2.2,0.9-3.3,1.5l-3.2,1.7c-1.1,0.6-2.1,1.3-3.1,1.9
				l-1.5,1l-1.5,1.1c-1,0.7-2,1.4-2.9,2.2c-3.8,3-7.1,6.6-10,10.5c-5.8,7.8-9.5,17-11.1,26.5c-0.8,4.8-1.2,9.6-1.1,14.5
				c0.1,2.4,0.3,4.8,0.6,7.2l0.3,1.8l0.4,1.8c0.4,1.1,0.7,2.4,1.4,3.3L1571.6,106.5z"/>
		</g>
		<g>
			<path class="st5" d="M1585.3,67.7c1.4-2.5,3.1-4.8,5.1-6.9c0.9-1.1,2-2,3.1-3c1.1-0.9,2.2-1.8,3.3-2.7c4.6-3.4,9.8-6.2,15.3-8.1
				l1-0.4l1-0.3l2.1-0.6l2.1-0.6c0.7-0.2,1.4-0.3,2.1-0.4l4.3-0.8c1.4-0.2,2.9-0.3,4.3-0.5c2.9-0.4,5.8-0.4,8.7-0.5
				c2.9-0.1,5.9,0.1,8.8,0.5c5.8,0.8,11.5,2.7,16.7,5.3c5.3,2.6,10.2,5.8,14.7,9.5c9,7.4,16.5,16.6,21.7,27.2
				c1.3,2.6,2.3,5.4,3.3,8.2c0.8,2.8,1.6,5.7,2,8.7c0.8,5.9,0.4,12.2-2,17.8l-1,2.1c-0.3,0.7-0.8,1.3-1.2,2l-0.6,1l-0.7,0.9
				c-0.5,0.6-0.9,1.2-1.4,1.8c-2,2.3-4.3,4.3-6.8,6c-2.5,1.7-5.2,3-7.9,4.1c-2.8,1.1-5.6,1.8-8.5,2.4c-5.7,1.2-11.4,1.8-17.1,2.2
				c-5.7,0.4-11.4,0.6-17,1c-5.7,0.3-11.3,0.8-16.9,1.7c-5.6,1-11,2.5-16.2,4.8l-0.1-0.2c5.1-2.5,10.6-4.2,16.2-5.4
				c5.6-1.1,11.3-1.7,16.9-2.2c5.7-0.5,11.4-0.8,17-1.3c5.7-0.5,11.3-1.1,16.9-2.4c5.5-1.3,10.9-3.2,15.6-6.4
				c2.3-1.6,4.5-3.5,6.3-5.6c0.5-0.5,0.9-1.1,1.3-1.7l0.6-0.8l0.6-0.9c0.4-0.6,0.8-1.2,1.1-1.8l0.9-1.9c2.1-5.2,2.5-11.1,1.7-16.6
				c-0.3-2.8-1.1-5.6-1.9-8.3c-0.9-2.7-1.9-5.3-3.2-7.9c-4.9-10.2-12.2-19.3-20.9-26.5c-4.4-3.6-9.1-6.8-14.2-9.3
				c-5.1-2.5-10.5-4.4-16.1-5.3c-2.8-0.4-5.6-0.7-8.5-0.6c-2.8,0.1-5.7,0-8.5,0.3c-1.4,0.1-2.8,0.3-4.2,0.4l-4.2,0.7
				c-0.7,0.1-1.4,0.2-2.1,0.4l-2.1,0.5l-2.1,0.5l-1,0.3l-1,0.4c-5.4,1.7-10.6,4.3-15.2,7.5c-1.1,0.8-2.3,1.7-3.4,2.6
				c-1,1-2.2,1.8-3.1,2.9c-2,2-3.8,4.2-5.3,6.6L1585.3,67.7z"/>
		</g>
		<g>
			<path class="st5" d="M1571.9,106.3c-0.5-1.6-0.4-3.3-0.2-4.9c0.2-1.6,0.7-3.2,1.2-4.7c1.1-3.1,2.5-6,4.2-8.8
				c3.3-5.6,7.5-10.7,12.4-15.1c4.9-4.4,10.5-8.1,16.8-10.4c6.3-2.3,13.4-2.8,20-1.1c3.3,0.8,6.5,2.2,9.4,3.8
				c2.9,1.7,5.6,3.7,8.1,5.9c5,4.4,9.1,10.1,11.3,16.5c1.1,3.2,1.8,6.6,1.7,10c0,3.4-0.5,6.7-1.4,9.9c-0.4,1.6-1,3.2-1.6,4.7
				c-0.6,1.5-1.4,3-2.2,4.4c-1.6,2.8-3.4,5.5-5.7,7.9l-0.2-0.2c1.9-2.5,3.6-5.3,4.9-8.2c1.4-2.9,2.5-5.9,3.2-9
				c1.5-6.2,1.3-12.8-0.8-18.8c-2.1-6-6.1-11.2-10.9-15.5c-2.4-2.1-4.9-4.1-7.7-5.7c-2.8-1.6-5.7-2.9-8.8-3.7
				c-6.2-1.6-12.8-1.2-18.8,0.8c-6.1,2-11.6,5.5-16.4,9.7c-4.8,4.2-9.1,9.1-12.5,14.4c-1.7,2.7-3.3,5.5-4.4,8.5
				c-0.6,1.5-1.1,3-1.4,4.6c-0.3,1.6-0.4,3.2,0,4.7L1571.9,106.3z"/>
		</g>
		<g>
			<path class="st5" d="M1557.2,146.7c1.9-0.3,3.8-0.6,5.7-0.9c1.9-0.3,3.8-0.6,5.7-0.9c3.8-0.7,7.5-1.4,11.3-2.2
				c7.5-1.5,14.9-3.3,22.1-5.7c3.6-1.2,7.1-2.5,10.5-4c3.4-1.6,6.6-3.4,9.2-5.7c0.7-0.6,1.2-1.2,1.8-1.9c0.6-0.7,1.2-1.4,1.7-2.1
				c1.1-1.5,2.1-3,2.9-4.6c1.7-3.2,2.5-6.6,2.6-10c0.1-3.5-0.8-6.9-2.3-10.2c-1.5-3.3-3.5-6.5-5.7-9.5c-0.6-0.8-1-1.4-1.6-2
				c-0.6-0.6-1.2-1.2-1.9-1.7c-1.4-1-3-1.8-4.6-2.4c-3.3-1.2-7-1.8-10.7-1.9c-7.3,0-14.8,2.1-20.9,6.4c-3,2.1-5.7,4.9-7.6,8.1
				c-1,1.6-1.7,3.3-2.3,5.1c-0.6,1.8-1,3.7-1.2,5.6l-0.2,0c0.2-3.8,1.2-7.7,3-11.1c1.8-3.4,4.4-6.4,7.5-8.7c6.2-4.7,13.9-7,21.6-7.2
				c3.9-0.1,7.7,0.4,11.4,1.7c3.6,1.3,7.1,3.5,9.3,6.7c2.3,3.1,4.4,6.3,6,9.8c1.6,3.5,2.7,7.3,2.6,11.2c0,3.9-1.1,7.7-3,11.1
				c-0.9,1.7-2,3.3-3.1,4.9c-1.2,1.5-2.4,3-3.9,4.3c-2.9,2.6-6.4,4.4-9.9,6c-3.5,1.6-7.2,2.8-10.8,4c-7.4,2.2-14.9,3.8-22.5,5.1
				c-7.6,1.3-15.2,2.3-22.9,2.9L1557.2,146.7z"/>
		</g>
	</g>
</g>
</svg>
