<svg id="Layer_1" data-name="Layer 1" xmlns="http://www.w3.org/2000/svg" xmlns:xlink="http://www.w3.org/1999/xlink" viewBox="0 0 1542 186"><defs><style>.cls-1{fill:none;}.cls-2{clip-path:url(#clip-path);}.cls-3{fill:#fcf6f1;}.cls-4{fill:#f4eee6;}.cls-5{clip-path:url(#clip-path-2);}.cls-6{fill:#f0eadf;}.cls-7{clip-path:url(#clip-path-3);}</style><clipPath id="clip-path"><rect class="cls-1" width="1543" height="187"/></clipPath><clipPath id="clip-path-2"><rect class="cls-1" x="-320.93" y="-560.24" width="262.78" height="1304.3" transform="translate(-280.86 -97.92) rotate(-89.82)"/></clipPath><clipPath id="clip-path-3"><rect class="cls-1" x="870.08" y="-559.24" width="262.78" height="1304.3" transform="translate(905.44 1094.09) rotate(-89.82)"/></clipPath></defs><title>Artboard 1</title><g class="cls-2"><polygon class="cls-3" points="-844 612.27 460.3 607.29 459.78 139.49 -844.52 143.48 -844 612.27"/><rect class="cls-4" x="-334.68" y="-651.82" width="282.84" height="1304.3" transform="translate(-192.9 -192.93) rotate(-89.8)"/><g class="cls-5"><path class="cls-3" d="M-181.08,141.13s99.54.43,89.59-41.89c-10.45-44.43-60.39-17.9-58.38,2.23,0,0-17.61-49.44,37.47-72.77,74-31.35,149.79,57.48,93.85,121.69C-82,223.27-181.08,141.13-181.08,141.13Z"/><path class="cls-3" d="M-13,141.13s99.54.43,89.59-41.89c-10.45-44.43-60.39-17.9-58.38,2.23,0,0-17.61-49.44,37.47-72.77,74-31.35,149.79,57.48,93.85,121.69C86.05,223.27-13,141.13-13,141.13Z"/><path class="cls-3" d="M155.08,142.73s99.54.43,89.59-41.89c-10.45-44.43-60.39-17.9-58.38,2.23,0,0-17.61-49.44,37.47-72.77C297.8-1.06,373.56,87.77,317.63,152,254.13,224.86,155.08,142.73,155.08,142.73Z"/></g><path class="cls-6" d="M18.2,103.43a11.08,11.08,0,0,1-1.46-3.26l-.46-1.72-.36-1.74a56.89,56.89,0,0,1-.83-7,67.11,67.11,0,0,1,.77-14.16A60.66,60.66,0,0,1,26.51,49.2a58.49,58.49,0,0,1,9.91-10.45c.93-.76,1.92-1.45,2.88-2.18.49-.35,1-.73,1.46-1.06l1.53-1c1-.62,2-1.32,3.08-1.88L48.56,31c1.05-.59,2.17-1,3.27-1.51s2.2-1,3.32-1.4l3.4-1.18,1.7-.59L62,25.84c2.31-.62,4.61-1.31,7-1.72l3.51-.71c1.17-.23,2.36-.35,3.54-.53l3.55-.5c1.18-.15,2.37-.21,3.56-.32,2.37-.19,4.74-.44,7.18-.4a67.79,67.79,0,0,1,14.46,1.4,74.53,74.53,0,0,1,26.51,11.49,86.19,86.19,0,0,1,11.24,9.12c1.68,1.73,3.44,3.38,5,5.24.79.91,1.61,1.8,2.36,2.74l2.22,2.85c.76.93,1.44,1.93,2.12,2.93s1.39,2,2,3c1.24,2.07,2.58,4.08,3.67,6.23a93.78,93.78,0,0,1,5.94,13.19c.73,2.3,1.55,4.58,2.09,6.94.28,1.18.65,2.33.86,3.52l.69,3.57a76.1,76.1,0,0,1,1.12,14.5l0,1.82-.15,1.82c-.11,1.21-.17,2.43-.33,3.64a65.1,65.1,0,0,1-1.36,7.2,66.38,66.38,0,0,1-2.14,7,61.74,61.74,0,0,1-3.11,6.66l-.88,1.61-.44.81c-.16.26-.34.51-.51.77l-2.06,3.05c-1.41,2-2.92,3.83-4.48,5.68a53.62,53.62,0,0,1-10.91,9.83,36.6,36.6,0,0,1-13.84,5.51,63.33,63.33,0,0,1-14.53.6c-4.77-.26-9.46-.81-14.12-1.35l-14-1.65c-4.64-.51-9.3-1-13.93-1.33a87,87,0,0,0-13.8.06,77.09,77.09,0,0,0-13.61,2.34,87.76,87.76,0,0,0-13.06,4.72c-4.26,1.89-8.37,4.11-12.65,6.11a34.26,34.26,0,0,1-6.69,2.4,13.84,13.84,0,0,1-3.56.36A11,11,0,0,1,7,175.32l.11-.29a11.4,11.4,0,0,0,6.82.16,33.62,33.62,0,0,0,6.5-2.55c4.19-2.08,8.28-4.39,12.53-6.39a89,89,0,0,1,13.13-5.07,78.57,78.57,0,0,1,13.81-2.68c9.37-1.05,18.78,0,28.09.88l14,1.46c4.66.48,9.32,1,14,1.16a61.06,61.06,0,0,0,14-.75,34.19,34.19,0,0,0,12.85-5.2,51,51,0,0,0,10.31-9.39,63,63,0,0,0,8-11.47,59,59,0,0,0,2.93-6.35,63.57,63.57,0,0,0,2-6.7,62.23,62.23,0,0,0,1.27-6.88c.15-1.16.19-2.32.3-3.49l.13-1.74v-1.75a73.15,73.15,0,0,0-1.14-13.93l-.68-3.43c-.21-1.15-.57-2.26-.85-3.4-.54-2.28-1.34-4.47-2.05-6.69a92.15,92.15,0,0,0-5.69-12.79c-1-2.09-2.33-4-3.52-6.05-.62-1-1.31-1.93-2-2.9s-1.31-1.94-2-2.85l-2.14-2.77c-.73-.91-1.52-1.77-2.28-2.66-1.49-1.81-3.19-3.41-4.8-5.1a83.37,83.37,0,0,0-10.82-8.87,71.8,71.8,0,0,0-25.48-11.2,66.2,66.2,0,0,0-13.9-1.42c-2.34-.07-4.67.14-7,.3-1.17.09-2.34.13-3.5.26l-3.48.44c-1.16.16-2.33.26-3.48.47l-3.45.65c-2.31.37-4.56,1-6.83,1.59l-1.7.44L59.21,29l-3.33,1.11c-1.1.39-2.16.88-3.25,1.32s-2.18.86-3.2,1.42l-3.12,1.59c-1,.53-2,1.19-3,1.79l-1.5.91c-.49.31-1,.68-1.43,1-.94.69-1.91,1.35-2.82,2.07a57.54,57.54,0,0,0-9.75,10A59.36,59.36,0,0,0,16.87,75.7a66.62,66.62,0,0,0-1.07,14,56.27,56.27,0,0,0,.62,7l.31,1.72.4,1.7a10.85,10.85,0,0,0,1.31,3.18Z"/><path class="cls-6" d="M31.47,66.16a33,33,0,0,1,4.88-6.74c.91-1.06,2-2,3-2.94s2.14-1.8,3.25-2.65A56,56,0,0,1,57.38,46l1-.38,1-.29,2-.58,2-.57c.68-.2,1.37-.29,2.06-.44l4.14-.82c1.39-.2,2.78-.33,4.18-.5a83.67,83.67,0,0,1,8.4-.53,39.52,39.52,0,0,1,4.27,0l1.08,0,1.07.12,2.14.25c1.42.18,2.82.51,4.23.76s2.78.71,4.15,1.1a63.11,63.11,0,0,1,7.95,3.19,74.36,74.36,0,0,1,14.35,9.15,79.9,79.9,0,0,1,21.34,26.29,64.65,64.65,0,0,1,3.22,8,50.55,50.55,0,0,1,1.91,8.49,41.18,41.18,0,0,1,.37,4.39c0,.74,0,1.48,0,2.22a16.54,16.54,0,0,1-.15,2.22l-.28,2.22-.5,2.2a15.88,15.88,0,0,1-.66,2.17,16.49,16.49,0,0,1-.81,2.12,31.52,31.52,0,0,1-11.66,13.28,45.05,45.05,0,0,1-16.07,6.19,122,122,0,0,1-16.64,2c-5.52.34-11,.54-16.48.84-10.9.49-21.89,1.62-32,6l-.14-.27a63.06,63.06,0,0,1,15.67-5.14,141.82,141.82,0,0,1,16.36-2.15l16.45-1.23a120.35,120.35,0,0,0,16.29-2.3,45.21,45.21,0,0,0,15.14-6.08,28.87,28.87,0,0,0,10.56-12.17,14.16,14.16,0,0,0,.71-1.91,13.62,13.62,0,0,0,.58-2l.44-2,.24-2a14.46,14.46,0,0,0,.12-2c0-.68.06-1.36,0-2A38.25,38.25,0,0,0,145,99.7a47.58,47.58,0,0,0-1.86-8A61.62,61.62,0,0,0,140,84.15a77.19,77.19,0,0,0-20.36-25.47,71.63,71.63,0,0,0-13.75-8.92,54.81,54.81,0,0,0-15.55-5.08,46.92,46.92,0,0,0-8.18-.61,81.58,81.58,0,0,0-8.21.33c-1.36.13-2.73.24-4.09.4l-4.05.71c-.67.13-1.36.2-2,.38l-2,.52-2,.52-1,.26-1,.34a54.69,54.69,0,0,0-14.73,7.16c-1.12.79-2.2,1.63-3.27,2.48s-2.09,1.77-3,2.77a32.48,32.48,0,0,0-5.11,6.38Z"/><path class="cls-6" d="M18.42,103.3A11.22,11.22,0,0,1,18,98.56a25.91,25.91,0,0,1,1.07-4.64A46.79,46.79,0,0,1,23,85.27,61.73,61.73,0,0,1,35,70.5a49.3,49.3,0,0,1,7.68-5.83,44.31,44.31,0,0,1,8.81-4.27,19.32,19.32,0,0,1,2.37-.73,22.13,22.13,0,0,1,2.42-.58l2.46-.43,2.5-.21a21.7,21.7,0,0,1,2.51,0,17.87,17.87,0,0,1,2.51.13c.83.1,1.67.18,2.5.3l2.46.54C77.75,61,83.49,64.75,88.3,69a49.92,49.92,0,0,1,6.5,7.32,33.48,33.48,0,0,1,4.44,8.83,31,31,0,0,1,1.58,9.72,34.28,34.28,0,0,1-1.4,9.59,41.76,41.76,0,0,1-3.73,8.75,40,40,0,0,1-5.5,7.6l-.24-.19a43.74,43.74,0,0,0,4.79-7.86,42.28,42.28,0,0,0,3.09-8.67A31.19,31.19,0,0,0,97,86a33.1,33.1,0,0,0-4.34-8.07,47.13,47.13,0,0,0-6.24-6.75c-4.64-4-10-7.37-15.93-8.83l-2.24-.51c-.76-.11-1.52-.19-2.27-.29a15.54,15.54,0,0,0-2.29-.14,19.11,19.11,0,0,0-2.29,0l-2.29.17L56.81,62a19.74,19.74,0,0,0-2.24.52,20.31,20.31,0,0,0-2.2.65,48,48,0,0,0-15.83,9.21A64.75,64.75,0,0,0,24.38,86.15a47.47,47.47,0,0,0-4.3,8.15,25.25,25.25,0,0,0-1.34,4.39,10.72,10.72,0,0,0,0,4.52Z"/><path class="cls-6" d="M4.22,141.94c1.83-.28,3.67-.6,5.49-.92s3.66-.61,5.48-.95q5.47-1,10.88-2.21a185.84,185.84,0,0,0,21.32-5.55c1.73-.58,3.44-1.19,5.12-1.86s3.35-1.33,5-2.07a35.86,35.86,0,0,0,8.8-5.44,7.2,7.2,0,0,0,.88-.84c.27-.3.56-.56.83-.87l1.64-2,.41-.51.36-.54.71-1.07c.23-.36.49-.7.7-1.07l.59-1.12a20.29,20.29,0,0,0,2.54-9.38,17,17,0,0,0-.1-2.42c-.07-.81-.28-1.61-.4-2.42s-.43-1.6-.71-2.39-.55-1.59-1-2.36a53.31,53.31,0,0,0-5.47-9,11.18,11.18,0,0,0-.76-1,9.19,9.19,0,0,0-.75-.86l-.84-.81L64,83.53a19.56,19.56,0,0,0-4.32-2.29,31.4,31.4,0,0,0-10.1-1.79,34.72,34.72,0,0,0-20,5.8,25.17,25.17,0,0,0-7.39,7.58,21,21,0,0,0-1.27,2.38c-.18.41-.39.82-.55,1.24l-.45,1.28a24.64,24.64,0,0,0-.78,2.63c-.21.89-.33,1.81-.5,2.72l-.31,0a25.88,25.88,0,0,1,3-10.7A26.49,26.49,0,0,1,28.63,84a36.53,36.53,0,0,1,20.93-6.89,31.73,31.73,0,0,1,11,1.64,22.34,22.34,0,0,1,5,2.54,16.24,16.24,0,0,1,4,4,53.72,53.72,0,0,1,5.88,9.5c.44.83.71,1.73,1.07,2.59s.55,1.79.82,2.69.4,1.84.49,2.77a20,20,0,0,1,.14,2.81,23.25,23.25,0,0,1-3,10.75l-.67,1.23c-.23.41-.52.78-.77,1.17l-.79,1.16-.39.58L72,121l-1.77,2.17c-.31.35-.66.67-1,1a9.15,9.15,0,0,1-1,.95,38.67,38.67,0,0,1-9.6,5.7,91.11,91.11,0,0,1-10.5,3.76,185,185,0,0,1-21.74,4.86c-7.33,1.22-14.69,2.17-22.09,2.79Z"/><path class="cls-6" d="M184.7,102.43a11.08,11.08,0,0,1-1.46-3.26l-.46-1.72-.36-1.74a56.89,56.89,0,0,1-.83-7,67.11,67.11,0,0,1,.77-14.16A60.66,60.66,0,0,1,193,48.2a58.49,58.49,0,0,1,9.91-10.45c.93-.76,1.92-1.45,2.88-2.18.49-.35,1-.73,1.46-1.06l1.53-1c1-.62,2-1.32,3.08-1.88L215.07,30c1.05-.59,2.17-1,3.27-1.51s2.2-1,3.32-1.4l3.4-1.18,1.7-.59,1.73-.48c2.31-.62,4.61-1.31,7-1.72L239,22.4c1.17-.23,2.36-.35,3.54-.53l3.55-.5c1.18-.15,2.37-.21,3.56-.32,2.37-.19,4.74-.44,7.18-.4a67.79,67.79,0,0,1,14.46,1.4,74.53,74.53,0,0,1,26.51,11.49A86.19,86.19,0,0,1,309,42.68c1.68,1.73,3.44,3.38,5,5.24.79.91,1.61,1.8,2.36,2.74l2.22,2.85c.76.93,1.44,1.93,2.12,2.93s1.39,2,2,3c1.24,2.07,2.58,4.08,3.67,6.23a93.78,93.78,0,0,1,5.94,13.19c.73,2.3,1.55,4.58,2.09,6.94.28,1.18.65,2.33.86,3.52l.69,3.57a76.1,76.1,0,0,1,1.12,14.5l0,1.82-.15,1.82c-.11,1.21-.17,2.43-.33,3.64a65.1,65.1,0,0,1-1.36,7.2,66.38,66.38,0,0,1-2.14,7,61.73,61.73,0,0,1-3.11,6.66l-.88,1.61-.44.81c-.16.26-.34.51-.51.77l-2.06,3.05c-1.41,2-2.92,3.83-4.48,5.68a53.62,53.62,0,0,1-10.91,9.83,36.6,36.6,0,0,1-13.84,5.51,63.33,63.33,0,0,1-14.53.6c-4.77-.26-9.46-.81-14.12-1.35l-14-1.65c-4.64-.51-9.3-1-13.93-1.33a87,87,0,0,0-13.8.06,77.09,77.09,0,0,0-13.61,2.34,87.76,87.76,0,0,0-13.06,4.72c-4.26,1.89-8.37,4.11-12.65,6.11a34.26,34.26,0,0,1-6.69,2.4A13.84,13.84,0,0,1,177,175a11,11,0,0,1-3.49-.73l.11-.29a11.4,11.4,0,0,0,6.82.16,33.62,33.62,0,0,0,6.5-2.55c4.19-2.08,8.28-4.39,12.53-6.39a89,89,0,0,1,13.13-5.07,78.57,78.57,0,0,1,13.81-2.68c9.37-1.05,18.78,0,28.09.88l14,1.46c4.66.48,9.32,1,14,1.16a61.06,61.06,0,0,0,14-.75,34.19,34.19,0,0,0,12.85-5.2,51,51,0,0,0,10.31-9.39,63,63,0,0,0,8-11.47,59,59,0,0,0,2.93-6.35,63.58,63.58,0,0,0,2-6.7,62.23,62.23,0,0,0,1.27-6.88c.15-1.16.19-2.32.3-3.49l.13-1.74v-1.75A73.15,73.15,0,0,0,333,93.38l-.68-3.43c-.21-1.15-.57-2.26-.85-3.4-.54-2.28-1.34-4.47-2.05-6.69a92.15,92.15,0,0,0-5.69-12.79c-1-2.09-2.33-4-3.52-6.05-.62-1-1.31-1.93-2-2.9s-1.31-1.94-2-2.85l-2.14-2.77c-.73-.91-1.52-1.77-2.28-2.66-1.49-1.81-3.19-3.41-4.8-5.1a83.37,83.37,0,0,0-10.82-8.87,71.8,71.8,0,0,0-25.48-11.2,66.2,66.2,0,0,0-13.9-1.42c-2.34-.07-4.67.14-7,.3-1.17.09-2.34.13-3.5.26l-3.48.44c-1.16.16-2.33.26-3.48.47l-3.45.65c-2.31.37-4.56,1-6.83,1.59l-1.7.44-1.66.55-3.33,1.11c-1.1.39-2.16.88-3.25,1.32s-2.18.86-3.2,1.42l-3.12,1.59c-1,.53-2,1.19-3,1.79l-1.5.91c-.49.31-1,.68-1.43,1-.94.69-1.91,1.35-2.82,2.07a57.54,57.54,0,0,0-9.75,10A59.36,59.36,0,0,0,183.37,74.7a66.62,66.62,0,0,0-1.07,14,56.27,56.27,0,0,0,.62,7l.31,1.72.4,1.7a10.85,10.85,0,0,0,1.31,3.18Z"/><path class="cls-6" d="M199,66.16a33,33,0,0,1,4.88-6.74c.91-1.06,2-2,3-2.94s2.14-1.8,3.25-2.65A56,56,0,0,1,224.88,46l1-.38,1-.29,2-.58,2-.57c.68-.2,1.37-.29,2.06-.44l4.14-.82c1.39-.2,2.78-.33,4.18-.5a83.67,83.67,0,0,1,8.4-.53,39.52,39.52,0,0,1,4.27,0l1.08,0,1.07.12,2.14.25c1.42.18,2.82.51,4.23.76s2.78.71,4.15,1.1a63.11,63.11,0,0,1,7.95,3.19,74.36,74.36,0,0,1,14.35,9.15,79.9,79.9,0,0,1,21.34,26.29,64.65,64.65,0,0,1,3.22,8,50.55,50.55,0,0,1,1.91,8.49,41.18,41.18,0,0,1,.37,4.39c0,.74,0,1.48,0,2.22a16.54,16.54,0,0,1-.15,2.22l-.28,2.22-.5,2.2a15.88,15.88,0,0,1-.66,2.17,16.49,16.49,0,0,1-.81,2.12,31.52,31.52,0,0,1-11.66,13.28,45.05,45.05,0,0,1-16.07,6.19,122,122,0,0,1-16.64,2c-5.52.34-11,.54-16.48.84-10.9.49-21.89,1.62-32,6l-.14-.27A63.06,63.06,0,0,1,236,139.66a141.82,141.82,0,0,1,16.36-2.15l16.45-1.23a120.35,120.35,0,0,0,16.29-2.3,45.21,45.21,0,0,0,15.14-6.08,28.87,28.87,0,0,0,10.56-12.17,14.16,14.16,0,0,0,.71-1.91,13.62,13.62,0,0,0,.58-2l.44-2,.24-2a14.46,14.46,0,0,0,.12-2c0-.68.06-1.36,0-2a38.25,38.25,0,0,0-.37-4.07,47.58,47.58,0,0,0-1.86-8,61.62,61.62,0,0,0-3.12-7.58,77.19,77.19,0,0,0-20.36-25.47,71.63,71.63,0,0,0-13.75-8.92,54.81,54.81,0,0,0-15.55-5.08,46.92,46.92,0,0,0-8.18-.61,81.58,81.58,0,0,0-8.21.33c-1.36.13-2.73.24-4.09.4l-4.05.71c-.67.13-1.36.2-2,.38l-2,.52-2,.52-1,.26-1,.34a54.69,54.69,0,0,0-14.73,7.16c-1.12.79-2.2,1.63-3.27,2.48s-2.09,1.77-3,2.77a32.48,32.48,0,0,0-5.11,6.38Z"/><path class="cls-6" d="M185.92,103.3a11.22,11.22,0,0,1-.37-4.74,25.9,25.9,0,0,1,1.07-4.64,46.79,46.79,0,0,1,3.91-8.65,61.73,61.73,0,0,1,12-14.77,49.3,49.3,0,0,1,7.68-5.83A44.31,44.31,0,0,1,219,60.4a19.32,19.32,0,0,1,2.37-.73,22.13,22.13,0,0,1,2.42-.58l2.46-.43,2.5-.21a21.7,21.7,0,0,1,2.51,0,17.87,17.87,0,0,1,2.51.13c.83.1,1.67.18,2.5.3l2.46.54C245.26,61,251,64.75,255.8,69a49.92,49.92,0,0,1,6.5,7.32,33.48,33.48,0,0,1,4.44,8.83,31,31,0,0,1,1.58,9.72,34.28,34.28,0,0,1-1.4,9.59,41.77,41.77,0,0,1-3.73,8.75,40,40,0,0,1-5.5,7.6l-.24-.19a43.74,43.74,0,0,0,4.79-7.86,42.28,42.28,0,0,0,3.09-8.67A31.19,31.19,0,0,0,264.48,86a33.1,33.1,0,0,0-4.34-8.07,47.13,47.13,0,0,0-6.24-6.75c-4.64-4-10-7.37-15.93-8.83l-2.24-.51c-.76-.11-1.52-.19-2.27-.29a15.54,15.54,0,0,0-2.29-.14,19.11,19.11,0,0,0-2.29,0l-2.29.17-2.26.38a19.74,19.74,0,0,0-2.24.52,20.31,20.31,0,0,0-2.2.65A48,48,0,0,0,204,72.34a64.75,64.75,0,0,0-12.16,13.81,47.47,47.47,0,0,0-4.3,8.15,25.25,25.25,0,0,0-1.34,4.39,10.72,10.72,0,0,0,0,4.52Z"/><path class="cls-6" d="M171.72,141.94c1.83-.28,3.67-.6,5.49-.92s3.66-.61,5.48-.95q5.47-1,10.88-2.21a185.84,185.84,0,0,0,21.32-5.55c1.73-.58,3.44-1.19,5.12-1.86s3.35-1.33,5-2.07a35.86,35.86,0,0,0,8.8-5.44,7.2,7.2,0,0,0,.88-.84c.27-.3.56-.56.83-.87l1.64-2,.41-.51.36-.54.71-1.07c.23-.36.49-.7.7-1.07l.59-1.12a20.29,20.29,0,0,0,2.54-9.38,17,17,0,0,0-.1-2.42c-.07-.81-.28-1.61-.4-2.42s-.43-1.6-.71-2.39-.55-1.59-1-2.36a53.31,53.31,0,0,0-5.47-9,11.18,11.18,0,0,0-.76-1,9.19,9.19,0,0,0-.75-.86l-.84-.81-.93-.73a19.56,19.56,0,0,0-4.32-2.29,31.4,31.4,0,0,0-10.1-1.79,34.72,34.72,0,0,0-20,5.8,25.17,25.17,0,0,0-7.39,7.58,21,21,0,0,0-1.27,2.38c-.18.41-.39.82-.55,1.24l-.45,1.28a24.63,24.63,0,0,0-.78,2.63c-.21.89-.33,1.81-.5,2.72l-.31,0a25.88,25.88,0,0,1,3-10.7A26.49,26.49,0,0,1,196.13,84a36.53,36.53,0,0,1,20.93-6.89,31.73,31.73,0,0,1,11,1.64,22.34,22.34,0,0,1,5,2.54,16.24,16.24,0,0,1,4,4A53.72,53.72,0,0,1,243,94.7c.44.83.71,1.73,1.07,2.59s.55,1.79.82,2.69.4,1.84.49,2.77a20,20,0,0,1,.14,2.81,23.25,23.25,0,0,1-3,10.75l-.67,1.23c-.23.41-.52.78-.77,1.17l-.79,1.16-.39.58-.44.54-1.77,2.17c-.31.35-.66.67-1,1a9.15,9.15,0,0,1-1,.95,38.67,38.67,0,0,1-9.6,5.7,91.11,91.11,0,0,1-10.5,3.76,185,185,0,0,1-21.74,4.86c-7.33,1.22-14.69,2.17-22.09,2.79Z"/><polygon class="cls-3" points="351.1 612.27 1655.39 607.29 1654.88 139.49 350.58 143.48 351.1 612.27"/><rect class="cls-4" x="860.42" y="-651.82" width="282.84" height="1304.3" transform="translate(997.98 1002.16) rotate(-89.8)"/><g class="cls-7"><path class="cls-3" d="M332,141.33s99.54.43,89.59-41.89c-10.45-44.43-60.39-17.9-58.38,2.23,0,0-17.61-49.44,37.47-72.77,74-31.35,149.79,57.48,93.85,121.69C431,223.47,332,141.33,332,141.33Z"/><path class="cls-3" d="M502.21,141.13s99.54.43,89.59-41.89c-10.45-44.43-60.39-17.9-58.38,2.23,0,0-17.61-49.44,37.47-72.77,74-31.35,149.79,57.48,93.85,121.69C601.26,223.27,502.21,141.13,502.21,141.13Z"/><path class="cls-3" d="M671.17,142.13s99.54.43,89.59-41.89c-10.45-44.43-60.39-17.9-58.38,2.23,0,0-17.61-49.44,37.47-72.77,74-31.35,149.79,57.48,93.85,121.69C770.21,224.27,671.17,142.13,671.17,142.13Z"/><path class="cls-3" d="M841,142.13s99.54.43,89.59-41.89c-10.45-44.43-60.39-17.9-58.38,2.23,0,0-17.61-49.44,37.47-72.77,74-31.35,149.79,57.48,93.85,121.69C940,224.27,841,142.13,841,142.13Z"/><path class="cls-3" d="M1009.94,142.13s99.54.43,89.59-41.89c-10.45-44.43-60.39-17.9-58.38,2.23,0,0-17.61-49.44,37.47-72.77,74-31.35,149.79,57.48,93.85,121.69C1109,224.27,1009.94,142.13,1009.94,142.13Z"/><path class="cls-3" d="M1178,142.13s99.54.43,89.59-41.89c-10.45-44.43-60.39-17.9-58.38,2.23,0,0-17.61-49.44,37.47-72.77,74-31.35,149.79,57.48,93.85,121.69C1277.07,224.27,1178,142.13,1178,142.13Z"/><path class="cls-3" d="M1346.1,143.73s99.54.43,89.59-41.89c-10.45-44.43-60.39-17.9-58.38,2.23,0,0-17.61-49.44,37.47-72.77,74-31.35,149.79,57.48,93.85,121.69C1445.15,225.86,1346.1,143.73,1346.1,143.73Z"/></g><path class="cls-6" d="M363.09,103.43a11.08,11.08,0,0,1-1.46-3.26l-.46-1.72-.36-1.74a56.89,56.89,0,0,1-.83-7,67.11,67.11,0,0,1,.77-14.16A60.66,60.66,0,0,1,371.39,49.2a58.49,58.49,0,0,1,9.91-10.45c.93-.76,1.92-1.45,2.88-2.18.49-.35,1-.73,1.46-1.06l1.53-1c1-.62,2-1.32,3.08-1.88L393.45,31c1.05-.59,2.17-1,3.27-1.51s2.2-1,3.32-1.4l3.4-1.18,1.7-.59,1.73-.48c2.31-.62,4.61-1.31,7-1.72l3.51-.71c1.17-.23,2.36-.35,3.54-.53l3.55-.5c1.18-.15,2.37-.21,3.56-.32,2.37-.19,4.74-.44,7.18-.4a67.79,67.79,0,0,1,14.46,1.4,74.53,74.53,0,0,1,26.51,11.49,86.19,86.19,0,0,1,11.24,9.12c1.68,1.73,3.44,3.38,5,5.24.79.91,1.61,1.8,2.36,2.74L497,54.5c.76.93,1.44,1.93,2.12,2.93s1.39,2,2,3c1.24,2.07,2.58,4.08,3.67,6.23a93.78,93.78,0,0,1,5.94,13.19c.73,2.3,1.55,4.58,2.09,6.94.28,1.18.65,2.33.86,3.52l.69,3.57a76.1,76.1,0,0,1,1.12,14.5l0,1.82-.15,1.82c-.11,1.21-.17,2.43-.33,3.64a65.11,65.11,0,0,1-1.36,7.2,66.38,66.38,0,0,1-2.14,7,61.74,61.74,0,0,1-3.11,6.66l-.88,1.61-.44.81c-.16.26-.34.51-.51.77l-2.06,3.05c-1.41,2-2.92,3.83-4.48,5.68a53.62,53.62,0,0,1-10.91,9.83,36.6,36.6,0,0,1-13.84,5.51,63.33,63.33,0,0,1-14.53.6c-4.77-.26-9.46-.81-14.12-1.35l-14-1.65c-4.64-.51-9.3-1-13.93-1.33a87,87,0,0,0-13.8.06,77.09,77.09,0,0,0-13.61,2.34,87.76,87.76,0,0,0-13.06,4.72c-4.26,1.89-8.37,4.11-12.65,6.11a34.26,34.26,0,0,1-6.69,2.4,13.84,13.84,0,0,1-3.56.36,11,11,0,0,1-3.49-.73L352,175a11.4,11.4,0,0,0,6.82.16,33.62,33.62,0,0,0,6.5-2.55c4.19-2.08,8.28-4.39,12.53-6.39a89,89,0,0,1,13.13-5.07,78.57,78.57,0,0,1,13.81-2.68c9.37-1.05,18.78,0,28.09.88l14,1.46c4.66.48,9.32,1,14,1.16a61.06,61.06,0,0,0,14-.75,34.19,34.19,0,0,0,12.85-5.2,51,51,0,0,0,10.31-9.39,63,63,0,0,0,8-11.47,59,59,0,0,0,2.93-6.35,63.57,63.57,0,0,0,2-6.7,62.23,62.23,0,0,0,1.27-6.88c.15-1.16.19-2.32.3-3.49l.13-1.74v-1.75a73.15,73.15,0,0,0-1.14-13.93l-.68-3.43c-.21-1.15-.57-2.26-.85-3.4-.54-2.28-1.34-4.47-2.05-6.69a92.14,92.14,0,0,0-5.69-12.79c-1-2.09-2.33-4-3.52-6.05-.62-1-1.31-1.93-2-2.9s-1.31-1.94-2-2.85l-2.14-2.77c-.73-.91-1.52-1.77-2.28-2.66-1.49-1.81-3.19-3.41-4.8-5.1a83.37,83.37,0,0,0-10.82-8.87,71.8,71.8,0,0,0-25.48-11.2,66.2,66.2,0,0,0-13.9-1.42c-2.34-.07-4.67.14-7,.3-1.17.09-2.34.13-3.5.26l-3.48.44c-1.16.16-2.33.26-3.48.47l-3.45.65c-2.31.37-4.56,1-6.83,1.59l-1.7.44-1.66.55-3.33,1.11c-1.1.39-2.16.88-3.25,1.32s-2.18.86-3.2,1.42l-3.12,1.59c-1,.53-2,1.19-3,1.79l-1.5.91c-.49.31-1,.68-1.43,1-.94.69-1.91,1.35-2.82,2.07a57.54,57.54,0,0,0-9.75,10A59.36,59.36,0,0,0,361.75,75.7a66.62,66.62,0,0,0-1.07,14,56.27,56.27,0,0,0,.62,7l.31,1.72.4,1.7a10.85,10.85,0,0,0,1.31,3.18Z"/><path class="cls-6" d="M376.35,66.16a33,33,0,0,1,4.88-6.74c.91-1.06,2-2,3-2.94s2.14-1.8,3.24-2.65A56,56,0,0,1,402.27,46l1-.38,1-.29,2-.58,2-.57c.68-.2,1.37-.29,2.06-.44l4.14-.82c1.39-.2,2.78-.33,4.18-.5a83.67,83.67,0,0,1,8.4-.53,39.52,39.52,0,0,1,4.27,0l1.08,0,1.07.12,2.14.25c1.42.18,2.82.51,4.23.76s2.78.71,4.15,1.1A63.11,63.11,0,0,1,452,47.37a74.36,74.36,0,0,1,14.35,9.15,79.9,79.9,0,0,1,21.34,26.29,64.65,64.65,0,0,1,3.22,8,50.55,50.55,0,0,1,1.91,8.49,41.19,41.19,0,0,1,.37,4.39c0,.74,0,1.48,0,2.22a16.54,16.54,0,0,1-.15,2.22l-.28,2.22-.5,2.2a15.88,15.88,0,0,1-.65,2.17,16.5,16.5,0,0,1-.81,2.12,31.52,31.52,0,0,1-11.66,13.28A45.05,45.05,0,0,1,463,136.3a122,122,0,0,1-16.64,2c-5.52.34-11,.54-16.48.84-10.9.49-21.89,1.62-32,6l-.14-.27a63.06,63.06,0,0,1,15.67-5.14,141.82,141.82,0,0,1,16.36-2.15l16.45-1.23a120.35,120.35,0,0,0,16.29-2.3,45.21,45.21,0,0,0,15.14-6.08,28.87,28.87,0,0,0,10.56-12.17,14.17,14.17,0,0,0,.71-1.91,13.62,13.62,0,0,0,.58-2l.44-2,.24-2a14.46,14.46,0,0,0,.12-2c0-.68.06-1.36,0-2a38.25,38.25,0,0,0-.37-4.07,47.57,47.57,0,0,0-1.86-8,61.62,61.62,0,0,0-3.12-7.58,77.19,77.19,0,0,0-20.36-25.47,71.63,71.63,0,0,0-13.75-8.92,54.81,54.81,0,0,0-15.55-5.08,46.92,46.92,0,0,0-8.18-.61,81.58,81.58,0,0,0-8.21.33c-1.36.13-2.73.24-4.09.4l-4.05.71c-.67.13-1.36.2-2,.38l-2,.52-2,.52-1,.26-1,.34A54.69,54.69,0,0,0,388,54.67c-1.12.79-2.2,1.63-3.27,2.48s-2.09,1.77-3,2.77a32.48,32.48,0,0,0-5.11,6.38Z"/><path class="cls-6" d="M363.31,103.3a11.22,11.22,0,0,1-.37-4.74A25.91,25.91,0,0,1,364,93.92a46.79,46.79,0,0,1,3.91-8.65,61.73,61.73,0,0,1,12-14.77,49.3,49.3,0,0,1,7.68-5.83,44.31,44.31,0,0,1,8.81-4.27,19.32,19.32,0,0,1,2.37-.73,22.13,22.13,0,0,1,2.42-.58l2.46-.43,2.5-.21a21.7,21.7,0,0,1,2.51,0,17.87,17.87,0,0,1,2.51.13c.83.1,1.67.18,2.5.3l2.46.54c6.54,1.66,12.28,5.37,17.09,9.64a49.92,49.92,0,0,1,6.5,7.32,33.48,33.48,0,0,1,4.44,8.83,31,31,0,0,1,1.58,9.72,34.28,34.28,0,0,1-1.4,9.59,41.77,41.77,0,0,1-3.73,8.75,40,40,0,0,1-5.5,7.6l-.24-.19a43.74,43.74,0,0,0,4.79-7.86,42.28,42.28,0,0,0,3.09-8.67A31.19,31.19,0,0,0,441.86,86a33.1,33.1,0,0,0-4.34-8.07,47.12,47.12,0,0,0-6.24-6.75c-4.64-4-10-7.37-15.93-8.83l-2.24-.51c-.76-.11-1.52-.19-2.27-.29a15.54,15.54,0,0,0-2.29-.14,19.11,19.11,0,0,0-2.29,0l-2.29.17L401.7,62a19.74,19.74,0,0,0-2.24.52,20.31,20.31,0,0,0-2.2.65,48,48,0,0,0-15.83,9.21,64.75,64.75,0,0,0-12.16,13.81A47.47,47.47,0,0,0,365,94.3a25.25,25.25,0,0,0-1.34,4.39,10.72,10.72,0,0,0,0,4.52Z"/><path class="cls-6" d="M349.1,141.94c1.83-.28,3.67-.6,5.49-.92s3.66-.61,5.48-.95q5.47-1,10.88-2.21a185.85,185.85,0,0,0,21.32-5.55c1.73-.58,3.44-1.19,5.12-1.86s3.35-1.33,5-2.07a35.86,35.86,0,0,0,8.8-5.44,7.2,7.2,0,0,0,.88-.84c.27-.3.56-.56.83-.87l1.64-2,.41-.51.36-.54.71-1.07c.23-.36.49-.7.7-1.07l.59-1.12a20.29,20.29,0,0,0,2.54-9.38,17,17,0,0,0-.1-2.42c-.07-.81-.28-1.61-.4-2.42s-.43-1.6-.71-2.39-.55-1.59-1-2.36a53.31,53.31,0,0,0-5.47-9,11.18,11.18,0,0,0-.76-1,9.2,9.2,0,0,0-.75-.86l-.84-.81-.93-.73a19.56,19.56,0,0,0-4.32-2.29,31.4,31.4,0,0,0-10.1-1.79,34.72,34.72,0,0,0-20,5.8,25.17,25.17,0,0,0-7.39,7.58,21,21,0,0,0-1.27,2.38c-.18.41-.39.82-.55,1.24l-.46,1.28a24.64,24.64,0,0,0-.78,2.63c-.21.89-.33,1.81-.5,2.72l-.31,0a25.88,25.88,0,0,1,3-10.7A26.49,26.49,0,0,1,373.51,84a36.53,36.53,0,0,1,20.93-6.89,31.73,31.73,0,0,1,11,1.64,22.34,22.34,0,0,1,5,2.54,16.24,16.24,0,0,1,4,4,53.72,53.72,0,0,1,5.88,9.5c.44.83.71,1.73,1.07,2.59s.55,1.79.82,2.69.4,1.84.49,2.77a20,20,0,0,1,.14,2.81,23.25,23.25,0,0,1-3,10.75l-.67,1.23c-.23.41-.52.78-.77,1.17l-.79,1.16-.39.58-.44.54-1.77,2.17c-.31.35-.66.67-1,1a9.15,9.15,0,0,1-1,.95,38.67,38.67,0,0,1-9.6,5.7A91.11,91.11,0,0,1,393,134.6a185,185,0,0,1-21.74,4.86c-7.33,1.22-14.69,2.17-22.09,2.79Z"/><path class="cls-6" d="M532.49,103.43a11.08,11.08,0,0,1-1.46-3.26l-.46-1.72-.36-1.74a56.88,56.88,0,0,1-.83-7,67.11,67.11,0,0,1,.77-14.16A60.66,60.66,0,0,1,540.8,49.2a58.49,58.49,0,0,1,9.91-10.45c.93-.76,1.92-1.45,2.88-2.18.49-.35,1-.73,1.46-1.06l1.53-1c1-.62,2-1.32,3.08-1.88L562.85,31c1.05-.59,2.17-1,3.27-1.51s2.2-1,3.32-1.4l3.4-1.18,1.7-.59,1.73-.48c2.31-.62,4.61-1.31,7-1.72l3.51-.71c1.17-.23,2.36-.35,3.54-.53l3.55-.5c1.18-.15,2.37-.21,3.56-.32,2.37-.19,4.74-.44,7.18-.4A67.79,67.79,0,0,1,619,23.07a74.53,74.53,0,0,1,26.51,11.49,86.2,86.2,0,0,1,11.24,9.12c1.68,1.73,3.44,3.38,5,5.24.79.91,1.61,1.8,2.36,2.74l2.22,2.85c.76.93,1.44,1.93,2.12,2.93s1.39,2,2,3c1.24,2.07,2.58,4.08,3.67,6.23a93.78,93.78,0,0,1,5.94,13.19c.73,2.3,1.55,4.58,2.09,6.94.28,1.18.65,2.33.86,3.52l.69,3.57a76.1,76.1,0,0,1,1.12,14.5l0,1.82-.15,1.82c-.11,1.21-.17,2.43-.33,3.64a65.09,65.09,0,0,1-1.36,7.2,66.38,66.38,0,0,1-2.14,7,61.75,61.75,0,0,1-3.11,6.66l-.88,1.61-.44.81c-.16.26-.34.51-.51.77l-2.06,3.05c-1.41,2-2.92,3.83-4.48,5.68a53.62,53.62,0,0,1-10.91,9.83,36.6,36.6,0,0,1-13.84,5.51,63.33,63.33,0,0,1-14.53.6c-4.77-.26-9.46-.81-14.12-1.35l-14-1.65c-4.64-.51-9.3-1-13.93-1.33a87,87,0,0,0-13.8.06,77.09,77.09,0,0,0-13.61,2.34,87.76,87.76,0,0,0-13.06,4.72c-4.26,1.89-8.37,4.11-12.65,6.11a34.26,34.26,0,0,1-6.69,2.4,13.84,13.84,0,0,1-3.56.36,11,11,0,0,1-3.49-.73l.11-.29a11.4,11.4,0,0,0,6.82.16,33.62,33.62,0,0,0,6.5-2.55c4.19-2.08,8.28-4.39,12.53-6.39a89,89,0,0,1,13.13-5.07,78.57,78.57,0,0,1,13.81-2.68c9.37-1.05,18.78,0,28.09.88l14,1.46c4.66.48,9.32,1,14,1.16a61.06,61.06,0,0,0,14-.75,34.19,34.19,0,0,0,12.85-5.2,51,51,0,0,0,10.31-9.39,63,63,0,0,0,8-11.47,59,59,0,0,0,2.93-6.35,63.57,63.57,0,0,0,2-6.7,62.22,62.22,0,0,0,1.27-6.88c.15-1.16.19-2.32.3-3.49l.13-1.74v-1.75a73.14,73.14,0,0,0-1.14-13.93l-.68-3.43c-.21-1.15-.57-2.26-.85-3.4-.54-2.28-1.34-4.47-2.05-6.69a92.14,92.14,0,0,0-5.69-12.79c-1-2.09-2.33-4-3.52-6.05-.62-1-1.31-1.93-2-2.9s-1.31-1.94-2-2.85l-2.14-2.77c-.73-.91-1.52-1.77-2.28-2.66-1.49-1.81-3.19-3.41-4.8-5.1A83.37,83.37,0,0,0,644,36.86a71.8,71.8,0,0,0-25.48-11.2,66.2,66.2,0,0,0-13.9-1.42c-2.34-.07-4.67.14-7,.3-1.17.09-2.34.13-3.5.26l-3.48.44c-1.16.16-2.33.26-3.48.47l-3.45.65c-2.31.37-4.56,1-6.83,1.59l-1.7.44L573.5,29l-3.33,1.11c-1.1.39-2.16.88-3.25,1.32s-2.18.86-3.2,1.42l-3.12,1.59c-1,.53-2,1.19-3,1.79l-1.5.91c-.49.31-1,.68-1.43,1-.94.69-1.91,1.35-2.82,2.07a57.54,57.54,0,0,0-9.75,10A59.36,59.36,0,0,0,531.16,75.7a66.62,66.62,0,0,0-1.07,14,56.27,56.27,0,0,0,.62,7l.31,1.72.4,1.7a10.85,10.85,0,0,0,1.31,3.18Z"/><path class="cls-6" d="M546.76,66.16a33,33,0,0,1,4.88-6.74c.91-1.06,2-2,3-2.94s2.14-1.8,3.24-2.65A56,56,0,0,1,572.67,46l1-.38,1-.29,2-.58,2-.57c.68-.2,1.37-.29,2.06-.44l4.14-.82c1.39-.2,2.78-.33,4.18-.5a83.67,83.67,0,0,1,8.4-.53,39.52,39.52,0,0,1,4.27,0l1.08,0,1.07.12,2.14.25c1.42.18,2.82.51,4.23.76s2.78.71,4.15,1.1a63.11,63.11,0,0,1,7.95,3.19,74.36,74.36,0,0,1,14.35,9.15,79.9,79.9,0,0,1,21.34,26.29,64.65,64.65,0,0,1,3.22,8,50.55,50.55,0,0,1,1.91,8.49,41.19,41.19,0,0,1,.37,4.39c0,.74,0,1.48,0,2.22a16.54,16.54,0,0,1-.15,2.22l-.28,2.22-.5,2.2a15.88,15.88,0,0,1-.66,2.17,16.5,16.5,0,0,1-.81,2.12,31.52,31.52,0,0,1-11.66,13.28,45,45,0,0,1-16.07,6.19,122,122,0,0,1-16.64,2c-5.52.34-11,.54-16.48.84-10.9.49-21.89,1.62-32,6l-.14-.27a63.06,63.06,0,0,1,15.67-5.14,141.82,141.82,0,0,1,16.36-2.15l16.45-1.23a120.35,120.35,0,0,0,16.29-2.3A45.21,45.21,0,0,0,648,127.91a28.87,28.87,0,0,0,10.56-12.17,14.17,14.17,0,0,0,.71-1.91,13.62,13.62,0,0,0,.58-2l.44-2,.24-2a14.46,14.46,0,0,0,.12-2c0-.68.06-1.36,0-2a38.26,38.26,0,0,0-.37-4.07,47.57,47.57,0,0,0-1.86-8,61.62,61.62,0,0,0-3.12-7.58A77.19,77.19,0,0,0,635,58.68a71.63,71.63,0,0,0-13.75-8.92,54.81,54.81,0,0,0-15.55-5.08,46.92,46.92,0,0,0-8.18-.61,81.57,81.57,0,0,0-8.21.33c-1.36.13-2.73.24-4.09.4l-4.05.71c-.67.13-1.36.2-2,.38l-2,.52-2,.52-1,.26-1,.34a54.69,54.69,0,0,0-14.73,7.16c-1.12.79-2.2,1.63-3.27,2.48s-2.09,1.77-3,2.77A32.48,32.48,0,0,0,547,66.31Z"/><path class="cls-6" d="M533.71,103.3a11.22,11.22,0,0,1-.37-4.74,25.91,25.91,0,0,1,1.07-4.64,46.79,46.79,0,0,1,3.91-8.65,61.73,61.73,0,0,1,12-14.77,49.3,49.3,0,0,1,7.68-5.83,44.31,44.31,0,0,1,8.81-4.27,19.32,19.32,0,0,1,2.37-.73,22.13,22.13,0,0,1,2.42-.58l2.46-.43,2.5-.21a21.7,21.7,0,0,1,2.51,0,17.87,17.87,0,0,1,2.51.13c.83.1,1.67.18,2.5.3l2.46.54C593,61,598.78,64.75,603.59,69a49.92,49.92,0,0,1,6.5,7.32,33.48,33.48,0,0,1,4.44,8.83,31,31,0,0,1,1.58,9.72,34.28,34.28,0,0,1-1.4,9.59,41.76,41.76,0,0,1-3.73,8.75,40,40,0,0,1-5.5,7.6l-.24-.19a43.74,43.74,0,0,0,4.79-7.86,42.28,42.28,0,0,0,3.09-8.67A31.19,31.19,0,0,0,612.27,86a33.1,33.1,0,0,0-4.34-8.07,47.12,47.12,0,0,0-6.24-6.75c-4.64-4-10-7.37-15.93-8.83l-2.24-.51c-.76-.11-1.52-.19-2.27-.29a15.54,15.54,0,0,0-2.29-.14,19.11,19.11,0,0,0-2.29,0l-2.29.17-2.26.38a19.74,19.74,0,0,0-2.24.52,20.31,20.31,0,0,0-2.2.65,48,48,0,0,0-15.83,9.21,64.75,64.75,0,0,0-12.16,13.81,47.47,47.47,0,0,0-4.3,8.15A25.25,25.25,0,0,0,534,98.7a10.72,10.72,0,0,0,0,4.52Z"/><path class="cls-6" d="M519.51,141.94c1.83-.28,3.67-.6,5.49-.92s3.66-.61,5.48-.95q5.47-1,10.88-2.21a185.84,185.84,0,0,0,21.32-5.55c1.73-.58,3.44-1.19,5.12-1.86s3.35-1.33,5-2.07a35.86,35.86,0,0,0,8.8-5.44,7.2,7.2,0,0,0,.88-.84c.27-.3.56-.56.83-.87l1.64-2,.41-.51.36-.54.71-1.07c.23-.36.49-.7.7-1.07l.59-1.12a20.29,20.29,0,0,0,2.54-9.38,17,17,0,0,0-.1-2.42c-.07-.81-.28-1.61-.4-2.42s-.43-1.6-.71-2.39-.55-1.59-1-2.36a53.31,53.31,0,0,0-5.47-9,11.18,11.18,0,0,0-.76-1,9.19,9.19,0,0,0-.75-.86l-.84-.81-.93-.73A19.56,19.56,0,0,0,575,81.24a31.4,31.4,0,0,0-10.1-1.79,34.72,34.72,0,0,0-20,5.8,25.17,25.17,0,0,0-7.39,7.58,21,21,0,0,0-1.27,2.38c-.18.41-.39.82-.55,1.24l-.45,1.28a24.63,24.63,0,0,0-.78,2.63c-.21.89-.33,1.81-.5,2.72l-.31,0a25.88,25.88,0,0,1,3-10.7A26.49,26.49,0,0,1,543.92,84a36.53,36.53,0,0,1,20.93-6.89,31.73,31.73,0,0,1,11,1.64,22.34,22.34,0,0,1,5,2.54,16.24,16.24,0,0,1,4,4,53.72,53.72,0,0,1,5.88,9.5c.44.83.71,1.73,1.07,2.59s.55,1.79.82,2.69.4,1.84.49,2.77a20,20,0,0,1,.14,2.81,23.25,23.25,0,0,1-3,10.75l-.67,1.23c-.23.41-.52.78-.77,1.17l-.79,1.16-.39.58-.44.54-1.77,2.17c-.31.35-.66.67-1,1a9.15,9.15,0,0,1-1,.95,38.67,38.67,0,0,1-9.6,5.7,91.11,91.11,0,0,1-10.5,3.76,185,185,0,0,1-21.74,4.86c-7.33,1.22-14.69,2.17-22.09,2.79Z"/><path class="cls-6" d="M701.44,103.43a11.08,11.08,0,0,1-1.46-3.26l-.46-1.72-.36-1.74a56.89,56.89,0,0,1-.83-7,67.11,67.11,0,0,1,.77-14.16A60.66,60.66,0,0,1,709.75,49.2a58.49,58.49,0,0,1,9.91-10.45c.93-.76,1.92-1.45,2.88-2.18.49-.35,1-.73,1.46-1.06l1.53-1c1-.62,2-1.32,3.08-1.88L731.8,31c1.05-.59,2.17-1,3.27-1.51s2.2-1,3.32-1.4l3.4-1.18,1.7-.59,1.73-.48c2.31-.62,4.61-1.31,7-1.72l3.51-.71c1.17-.23,2.36-.35,3.54-.53l3.55-.5c1.18-.15,2.37-.21,3.56-.32,2.37-.19,4.74-.44,7.18-.4A67.79,67.79,0,0,1,788,23.07a74.53,74.53,0,0,1,26.51,11.49,86.19,86.19,0,0,1,11.24,9.12c1.68,1.73,3.44,3.38,5,5.24.79.91,1.61,1.8,2.36,2.74l2.22,2.85c.76.93,1.44,1.93,2.12,2.93s1.39,2,2,3c1.24,2.07,2.58,4.08,3.67,6.23a93.78,93.78,0,0,1,5.94,13.19c.73,2.3,1.55,4.58,2.09,6.94.28,1.18.65,2.33.86,3.52l.69,3.57a76.11,76.11,0,0,1,1.12,14.5l0,1.82-.15,1.82c-.11,1.21-.17,2.43-.33,3.64a65.09,65.09,0,0,1-1.36,7.2,66.38,66.38,0,0,1-2.14,7,61.73,61.73,0,0,1-3.11,6.66l-.88,1.61-.44.81c-.16.26-.34.51-.51.77l-2.06,3.05c-1.41,2-2.92,3.83-4.48,5.68a53.62,53.62,0,0,1-10.91,9.83,36.6,36.6,0,0,1-13.84,5.51,63.33,63.33,0,0,1-14.53.6c-4.77-.26-9.46-.81-14.12-1.35l-14-1.65c-4.64-.51-9.3-1-13.93-1.33a87,87,0,0,0-13.8.06,77.09,77.09,0,0,0-13.61,2.34,87.76,87.76,0,0,0-13.06,4.72c-4.26,1.89-8.37,4.11-12.65,6.11a34.26,34.26,0,0,1-6.69,2.4,13.84,13.84,0,0,1-3.56.36,11,11,0,0,1-3.49-.73l.11-.29a11.4,11.4,0,0,0,6.82.16,33.62,33.62,0,0,0,6.5-2.55c4.19-2.08,8.28-4.39,12.53-6.39a89,89,0,0,1,13.13-5.07,78.57,78.57,0,0,1,13.81-2.68c9.37-1.05,18.78,0,28.09.88l14,1.46c4.66.48,9.32,1,14,1.16a61.06,61.06,0,0,0,14-.75,34.19,34.19,0,0,0,12.85-5.2,51,51,0,0,0,10.31-9.39,63,63,0,0,0,8-11.47,59,59,0,0,0,2.93-6.35,63.57,63.57,0,0,0,2-6.7,62.23,62.23,0,0,0,1.27-6.88c.15-1.16.19-2.32.3-3.49l.13-1.74v-1.75a73.15,73.15,0,0,0-1.14-13.93l-.68-3.43c-.21-1.15-.57-2.26-.85-3.4-.54-2.28-1.34-4.47-2.05-6.69a92.15,92.15,0,0,0-5.69-12.79c-1-2.09-2.33-4-3.52-6.05-.62-1-1.31-1.93-2-2.9s-1.31-1.94-2-2.85l-2.14-2.77c-.73-.91-1.52-1.77-2.28-2.66-1.49-1.81-3.19-3.41-4.8-5.1a83.37,83.37,0,0,0-10.82-8.87,71.8,71.8,0,0,0-25.48-11.2,66.2,66.2,0,0,0-13.9-1.42c-2.34-.07-4.67.14-7,.3-1.17.09-2.34.13-3.5.26l-3.48.44c-1.16.16-2.33.26-3.48.47l-3.45.65c-2.31.37-4.56,1-6.83,1.59l-1.7.44-1.66.55-3.33,1.11c-1.1.39-2.16.88-3.25,1.32s-2.18.86-3.2,1.42l-3.12,1.59c-1,.53-2,1.19-3,1.79l-1.5.91c-.49.31-1,.68-1.43,1-.94.69-1.91,1.35-2.82,2.07a57.54,57.54,0,0,0-9.75,10A59.36,59.36,0,0,0,700.1,75.7a66.62,66.62,0,0,0-1.07,14,56.28,56.28,0,0,0,.62,7l.31,1.72.4,1.7a10.85,10.85,0,0,0,1.31,3.18Z"/><path class="cls-6" d="M714.71,66.16a33,33,0,0,1,4.88-6.74c.91-1.06,2-2,3-2.94s2.14-1.8,3.24-2.65A56,56,0,0,1,740.62,46l1-.38,1-.29,2-.58,2-.57c.68-.2,1.37-.29,2.06-.44l4.14-.82c1.39-.2,2.78-.33,4.18-.5a83.67,83.67,0,0,1,8.4-.53,39.52,39.52,0,0,1,4.27,0l1.08,0,1.07.12,2.14.25c1.42.18,2.82.51,4.23.76s2.78.71,4.15,1.1a63.11,63.11,0,0,1,7.95,3.19,74.36,74.36,0,0,1,14.35,9.15A79.9,79.9,0,0,1,826,82.81a64.66,64.66,0,0,1,3.22,8,50.55,50.55,0,0,1,1.91,8.49,41.17,41.17,0,0,1,.37,4.39c0,.74,0,1.48,0,2.22a16.53,16.53,0,0,1-.15,2.22l-.28,2.22-.5,2.2a15.87,15.87,0,0,1-.65,2.17,16.5,16.5,0,0,1-.81,2.12,31.52,31.52,0,0,1-11.66,13.28,45.05,45.05,0,0,1-16.07,6.19,122,122,0,0,1-16.64,2c-5.52.34-11,.54-16.48.84-10.9.49-21.89,1.62-32,6l-.14-.27a63.06,63.06,0,0,1,15.67-5.14,141.82,141.82,0,0,1,16.36-2.15l16.45-1.23a120.35,120.35,0,0,0,16.29-2.3A45.21,45.21,0,0,0,816,127.91a28.87,28.87,0,0,0,10.56-12.17,14.17,14.17,0,0,0,.71-1.91,13.62,13.62,0,0,0,.58-2l.44-2,.24-2a14.46,14.46,0,0,0,.12-2c0-.68.06-1.36,0-2a38.25,38.25,0,0,0-.37-4.07,47.58,47.58,0,0,0-1.86-8,61.61,61.61,0,0,0-3.12-7.58,77.19,77.19,0,0,0-20.36-25.47,71.63,71.63,0,0,0-13.75-8.92,54.81,54.81,0,0,0-15.55-5.08,46.92,46.92,0,0,0-8.18-.61,81.57,81.57,0,0,0-8.21.33c-1.36.13-2.73.24-4.09.4l-4.05.71c-.67.13-1.36.2-2,.38l-2,.52-2,.52-1,.26-1,.34a54.69,54.69,0,0,0-14.73,7.16c-1.12.79-2.2,1.63-3.27,2.48s-2.09,1.77-3,2.77A32.48,32.48,0,0,0,715,66.31Z"/><path class="cls-6" d="M701.66,103.3a11.22,11.22,0,0,1-.37-4.74,25.91,25.91,0,0,1,1.07-4.64,46.79,46.79,0,0,1,3.91-8.65,61.73,61.73,0,0,1,12-14.77,49.3,49.3,0,0,1,7.68-5.83,44.31,44.31,0,0,1,8.81-4.27,19.32,19.32,0,0,1,2.37-.73,22.13,22.13,0,0,1,2.42-.58l2.46-.43,2.5-.21a21.7,21.7,0,0,1,2.51,0,17.87,17.87,0,0,1,2.51.13c.83.1,1.67.18,2.5.3l2.46.54C761,61,766.73,64.75,771.53,69a49.92,49.92,0,0,1,6.5,7.32,33.48,33.48,0,0,1,4.44,8.83,31,31,0,0,1,1.58,9.72,34.28,34.28,0,0,1-1.4,9.59,41.76,41.76,0,0,1-3.73,8.75,40,40,0,0,1-5.5,7.6l-.24-.19a43.74,43.74,0,0,0,4.79-7.86,42.28,42.28,0,0,0,3.09-8.67A31.19,31.19,0,0,0,780.22,86a33.1,33.1,0,0,0-4.34-8.07,47.13,47.13,0,0,0-6.24-6.75c-4.64-4-10-7.37-15.93-8.83l-2.24-.51c-.76-.11-1.52-.19-2.27-.29a15.54,15.54,0,0,0-2.29-.14,19.11,19.11,0,0,0-2.29,0l-2.29.17-2.26.38a19.73,19.73,0,0,0-2.24.52,20.3,20.3,0,0,0-2.2.65,48,48,0,0,0-15.83,9.21,64.75,64.75,0,0,0-12.16,13.81,47.46,47.46,0,0,0-4.3,8.15A25.24,25.24,0,0,0,702,98.7a10.72,10.72,0,0,0,0,4.52Z"/><path class="cls-6" d="M687.45,141.94c1.83-.28,3.67-.6,5.49-.92s3.66-.61,5.48-.95q5.47-1,10.88-2.21a185.85,185.85,0,0,0,21.32-5.55c1.73-.58,3.44-1.19,5.12-1.86s3.35-1.33,5-2.07a35.86,35.86,0,0,0,8.8-5.44,7.19,7.19,0,0,0,.88-.84c.27-.3.56-.56.83-.87l1.64-2,.41-.51.36-.54.71-1.07c.23-.36.49-.7.7-1.07l.59-1.12a20.29,20.29,0,0,0,2.54-9.38,17,17,0,0,0-.1-2.42c-.07-.81-.28-1.61-.4-2.42s-.43-1.6-.71-2.39-.55-1.59-1-2.36a53.31,53.31,0,0,0-5.47-9,11.17,11.17,0,0,0-.76-1,9.19,9.19,0,0,0-.75-.86l-.84-.81-.93-.73a19.56,19.56,0,0,0-4.32-2.29,31.4,31.4,0,0,0-10.1-1.79,34.72,34.72,0,0,0-20,5.8,25.17,25.17,0,0,0-7.39,7.58,21,21,0,0,0-1.27,2.38c-.18.41-.39.82-.55,1.24l-.46,1.28a24.63,24.63,0,0,0-.78,2.63c-.21.89-.33,1.81-.5,2.72l-.31,0a25.88,25.88,0,0,1,3-10.7A26.49,26.49,0,0,1,711.86,84a36.53,36.53,0,0,1,20.93-6.89,31.73,31.73,0,0,1,11,1.64,22.34,22.34,0,0,1,5,2.54,16.24,16.24,0,0,1,4,4,53.72,53.72,0,0,1,5.88,9.5c.44.83.71,1.73,1.07,2.59s.55,1.79.82,2.69.4,1.84.49,2.77a20,20,0,0,1,.14,2.81,23.25,23.25,0,0,1-3,10.75l-.67,1.23c-.23.41-.52.78-.77,1.17l-.79,1.16-.39.58-.44.54-1.77,2.17c-.31.35-.66.67-1,1a9.15,9.15,0,0,1-1,.95,38.67,38.67,0,0,1-9.6,5.7,91.11,91.11,0,0,1-10.5,3.76,185,185,0,0,1-21.74,4.86c-7.33,1.22-14.69,2.17-22.09,2.79Z"/><path class="cls-6" d="M870.88,103.43a10.52,10.52,0,0,1-1.47-3.27,33.65,33.65,0,0,1-.82-3.46,55.43,55.43,0,0,1-.83-7.06,68.19,68.19,0,0,1,.78-14.2,61,61,0,0,1,10.71-26.38,59.9,59.9,0,0,1,22.18-18.19A91.33,91.33,0,0,1,929,22.78l3.56-.45L936.1,22c2.38-.18,4.76-.35,7.21-.38a69.7,69.7,0,0,1,14.49,1.5,77.12,77.12,0,0,1,26.65,11.31,91,91,0,0,1,21.18,19.65,93.33,93.33,0,0,1,14.18,25.21,77.93,77.93,0,0,1,4.8,28.64,59.48,59.48,0,0,1-7.75,28.11,54,54,0,0,1-4.08,6.13c-.74,1-1.51,1.91-2.28,2.84s-1.57,1.83-2.37,2.73a60.56,60.56,0,0,1-11,9.75A43.11,43.11,0,0,1,990.6,161a37.64,37.64,0,0,1-7.15,2.23,46.75,46.75,0,0,1-7.33.91c-2.44.14-4.86.12-7.25,0-4.8-.19-9.51-.69-14.19-1.21l-14-1.59c-4.66-.5-9.33-1-14-1.33a87.66,87.66,0,0,0-13.84,0,75.82,75.82,0,0,0-13.65,2.33,86.7,86.7,0,0,0-13.1,4.72c-4.27,1.89-8.4,4.12-12.68,6.13a35.39,35.39,0,0,1-6.7,2.43,11.76,11.76,0,0,1-7.07-.37l.11-.29a11.35,11.35,0,0,0,6.84.17,34.76,34.76,0,0,0,6.51-2.57c4.2-2.08,8.3-4.41,12.56-6.41a87.93,87.93,0,0,1,13.17-5.06,77.29,77.29,0,0,1,13.86-2.67,87.26,87.26,0,0,1,14.11-.24c4.69.31,9.38.7,14.06,1.15l14,1.4c4.67.46,9.35.88,14,1,2.34.07,4.69.06,7-.11a44.31,44.31,0,0,0,6.94-.95,36.49,36.49,0,0,0,6.66-2.12,40.48,40.48,0,0,0,6.13-3.36,57.9,57.9,0,0,0,10.41-9.36,64.65,64.65,0,0,0,8.34-11.26,56.61,56.61,0,0,0,7.25-26.81,74.94,74.94,0,0,0-4.75-27.51,90.51,90.51,0,0,0-13.61-24.46A88.15,88.15,0,0,0,982.9,36.73a74.39,74.39,0,0,0-25.66-11,67.86,67.86,0,0,0-13.94-1.51,120.89,120.89,0,0,0-14,1,89.11,89.11,0,0,0-27,7.53A58.24,58.24,0,0,0,880.55,50a59.66,59.66,0,0,0-11,25.58,67.68,67.68,0,0,0-1.07,14,54.81,54.81,0,0,0,.62,7,33.18,33.18,0,0,0,.71,3.43,10.27,10.27,0,0,0,1.31,3.18Z"/><path class="cls-6" d="M884.14,66.16A33,33,0,0,1,889,59.43c.91-1.06,2-2,3-2.94s2.14-1.8,3.24-2.65A56,56,0,0,1,910.05,46l1-.38,1-.29,2-.58,2-.57c.68-.2,1.37-.29,2.06-.44l4.14-.82c1.39-.2,2.78-.33,4.18-.5a83.67,83.67,0,0,1,8.4-.53,39.52,39.52,0,0,1,4.27,0l1.08,0,1.07.12,2.14.25c1.42.18,2.82.51,4.23.76s2.78.71,4.15,1.1a63.11,63.11,0,0,1,7.95,3.19,74.36,74.36,0,0,1,14.35,9.15,79.9,79.9,0,0,1,21.34,26.29,64.65,64.65,0,0,1,3.22,8,50.55,50.55,0,0,1,1.91,8.49,41.19,41.19,0,0,1,.37,4.39c0,.74,0,1.48,0,2.22a16.54,16.54,0,0,1-.15,2.22l-.28,2.22-.5,2.2a15.88,15.88,0,0,1-.66,2.17,16.5,16.5,0,0,1-.81,2.12,31.52,31.52,0,0,1-11.66,13.28,45,45,0,0,1-16.07,6.19,122,122,0,0,1-16.64,2c-5.52.34-11,.54-16.48.84-10.9.49-21.89,1.62-32,6l-.14-.27a63.06,63.06,0,0,1,15.67-5.14,141.82,141.82,0,0,1,16.36-2.15L954,136.29a120.35,120.35,0,0,0,16.29-2.3,45.21,45.21,0,0,0,15.14-6.08A28.87,28.87,0,0,0,996,115.74a14.17,14.17,0,0,0,.71-1.91,13.62,13.62,0,0,0,.58-2l.44-2,.24-2a14.46,14.46,0,0,0,.12-2c0-.68.06-1.36,0-2a38.26,38.26,0,0,0-.37-4.07,47.57,47.57,0,0,0-1.86-8,61.62,61.62,0,0,0-3.12-7.58,77.19,77.19,0,0,0-20.36-25.47,71.63,71.63,0,0,0-13.75-8.92A54.81,54.81,0,0,0,943,44.67a46.92,46.92,0,0,0-8.18-.61,81.57,81.57,0,0,0-8.21.33c-1.36.13-2.73.24-4.09.4l-4.05.71c-.67.13-1.36.2-2,.38l-2,.52-2,.52-1,.26-1,.34a54.68,54.68,0,0,0-14.73,7.16c-1.12.79-2.2,1.63-3.27,2.48s-2.09,1.77-3,2.77a32.48,32.48,0,0,0-5.11,6.38Z"/><path class="cls-6" d="M871.1,103.3a11.22,11.22,0,0,1-.37-4.74,25.9,25.9,0,0,1,1.07-4.64,46.79,46.79,0,0,1,3.91-8.65,61.73,61.73,0,0,1,12-14.77,49.3,49.3,0,0,1,7.68-5.83,44.31,44.31,0,0,1,8.81-4.27,19.32,19.32,0,0,1,2.37-.73,22.12,22.12,0,0,1,2.42-.58l2.46-.43,2.5-.21a21.7,21.7,0,0,1,2.51,0,17.87,17.87,0,0,1,2.51.13c.83.1,1.67.18,2.5.3l2.46.54C930.43,61,936.16,64.75,941,69a49.92,49.92,0,0,1,6.5,7.32,33.48,33.48,0,0,1,4.44,8.83,31,31,0,0,1,1.58,9.72,34.28,34.28,0,0,1-1.4,9.59,41.77,41.77,0,0,1-3.73,8.75,40,40,0,0,1-5.5,7.6l-.24-.19a43.74,43.74,0,0,0,4.79-7.86,42.28,42.28,0,0,0,3.09-8.67A31.19,31.19,0,0,0,949.65,86a33.1,33.1,0,0,0-4.34-8.07,47.12,47.12,0,0,0-6.24-6.75c-4.64-4-10-7.37-15.93-8.83l-2.24-.51c-.76-.11-1.52-.19-2.27-.29a15.54,15.54,0,0,0-2.29-.14,19.11,19.11,0,0,0-2.29,0l-2.29.17-2.26.38a19.74,19.74,0,0,0-2.24.52,20.31,20.31,0,0,0-2.2.65,48,48,0,0,0-15.83,9.21,64.75,64.75,0,0,0-12.16,13.81,47.47,47.47,0,0,0-4.3,8.15,25.25,25.25,0,0,0-1.34,4.39,10.72,10.72,0,0,0,0,4.52Z"/><path class="cls-6" d="M856.89,141.94c1.83-.28,3.67-.6,5.49-.92s3.66-.61,5.48-.95q5.47-1,10.88-2.21a185.85,185.85,0,0,0,21.32-5.55c1.73-.58,3.44-1.19,5.12-1.86s3.35-1.33,5-2.07a35.86,35.86,0,0,0,8.8-5.44,7.19,7.19,0,0,0,.88-.84c.27-.3.56-.56.83-.87l1.64-2,.41-.51.36-.54.71-1.07c.23-.36.49-.7.7-1.07l.59-1.12a20.29,20.29,0,0,0,2.54-9.38,17,17,0,0,0-.1-2.42c-.07-.81-.28-1.61-.4-2.42s-.43-1.6-.71-2.39-.55-1.59-1-2.36a53.31,53.31,0,0,0-5.47-9,11.18,11.18,0,0,0-.76-1,9.19,9.19,0,0,0-.75-.86l-.84-.81-.93-.73a19.56,19.56,0,0,0-4.32-2.29,31.4,31.4,0,0,0-10.1-1.79,34.72,34.72,0,0,0-20,5.8,25.17,25.17,0,0,0-7.39,7.58,21,21,0,0,0-1.27,2.38c-.18.41-.39.82-.55,1.24l-.46,1.28a24.65,24.65,0,0,0-.78,2.63c-.21.89-.33,1.81-.5,2.72l-.31,0a25.88,25.88,0,0,1,3-10.7A26.49,26.49,0,0,1,881.3,84a36.53,36.53,0,0,1,20.93-6.89,31.73,31.73,0,0,1,11,1.64,22.33,22.33,0,0,1,5,2.54,16.24,16.24,0,0,1,4,4,53.72,53.72,0,0,1,5.88,9.5c.44.83.71,1.73,1.07,2.59s.55,1.79.82,2.69.4,1.84.49,2.77a20,20,0,0,1,.14,2.81,23.25,23.25,0,0,1-3,10.75l-.67,1.23c-.23.41-.52.78-.77,1.17l-.79,1.16-.39.58-.44.54-1.77,2.17c-.31.35-.66.67-1,1a9.15,9.15,0,0,1-1,.95,38.67,38.67,0,0,1-9.6,5.7,91.11,91.11,0,0,1-10.5,3.76A185,185,0,0,1,879,139.46c-7.33,1.22-14.69,2.17-22.09,2.79Z"/><path class="cls-6" d="M1040.32,103.43a11.08,11.08,0,0,1-1.46-3.26l-.46-1.72-.36-1.74a56.89,56.89,0,0,1-.83-7,67.11,67.11,0,0,1,.77-14.16,60.66,60.66,0,0,1,10.64-26.32,58.49,58.49,0,0,1,9.91-10.45c.93-.76,1.92-1.45,2.88-2.18.49-.35,1-.73,1.46-1.06l1.53-1c1-.62,2-1.32,3.08-1.88l3.19-1.68c1.05-.59,2.17-1,3.27-1.51s2.2-1,3.32-1.4l3.4-1.18,1.7-.59,1.73-.48c2.31-.62,4.61-1.31,7-1.72l3.51-.71c1.17-.23,2.36-.35,3.54-.53l3.55-.5c1.18-.15,2.37-.21,3.56-.32,2.37-.19,4.74-.44,7.18-.4a67.79,67.79,0,0,1,14.46,1.4,74.53,74.53,0,0,1,26.51,11.49,86.19,86.19,0,0,1,11.24,9.12c1.68,1.73,3.44,3.38,5,5.24.79.91,1.61,1.8,2.36,2.74l2.22,2.85c.76.93,1.44,1.93,2.12,2.93s1.39,2,2,3c1.24,2.07,2.58,4.08,3.67,6.23a93.79,93.79,0,0,1,5.94,13.19c.73,2.3,1.55,4.58,2.09,6.94.28,1.18.65,2.33.86,3.52l.69,3.57a76.11,76.11,0,0,1,1.12,14.5l0,1.82-.15,1.82c-.11,1.21-.17,2.43-.33,3.64a65.09,65.09,0,0,1-1.36,7.2,66.37,66.37,0,0,1-2.14,7,61.75,61.75,0,0,1-3.11,6.66l-.88,1.61-.44.81c-.16.26-.34.51-.51.77l-2.06,3.05c-1.41,2-2.92,3.83-4.48,5.68a53.62,53.62,0,0,1-10.91,9.83,36.6,36.6,0,0,1-13.84,5.51,63.33,63.33,0,0,1-14.53.6c-4.77-.26-9.46-.81-14.12-1.35l-14-1.65c-4.64-.51-9.3-1-13.93-1.33a87,87,0,0,0-13.8.06,77.09,77.09,0,0,0-13.61,2.34,87.76,87.76,0,0,0-13.06,4.72c-4.26,1.89-8.37,4.11-12.65,6.11a34.26,34.26,0,0,1-6.69,2.4,13.84,13.84,0,0,1-3.56.36,11,11,0,0,1-3.49-.73l.11-.29a11.4,11.4,0,0,0,6.82.16,33.62,33.62,0,0,0,6.5-2.55c4.19-2.08,8.28-4.39,12.53-6.39a89,89,0,0,1,13.13-5.07,78.57,78.57,0,0,1,13.81-2.68c9.37-1.05,18.78,0,28.09.88l14,1.46c4.66.48,9.32,1,14,1.16a61.06,61.06,0,0,0,14-.75,34.19,34.19,0,0,0,12.85-5.2,51,51,0,0,0,10.31-9.39,63,63,0,0,0,8-11.47,59,59,0,0,0,2.93-6.35,63.56,63.56,0,0,0,2-6.7,62.26,62.26,0,0,0,1.27-6.88c.15-1.16.19-2.32.3-3.49l.13-1.74v-1.75a73.15,73.15,0,0,0-1.14-13.93l-.68-3.43c-.21-1.15-.57-2.26-.85-3.4-.54-2.28-1.34-4.47-2.05-6.69a92.15,92.15,0,0,0-5.69-12.79c-1-2.09-2.33-4-3.52-6.05-.62-1-1.31-1.93-2-2.9s-1.31-1.94-2-2.85l-2.14-2.77c-.73-.91-1.52-1.77-2.28-2.66-1.49-1.81-3.19-3.41-4.8-5.1a83.37,83.37,0,0,0-10.82-8.87,71.8,71.8,0,0,0-25.48-11.2,66.2,66.2,0,0,0-13.9-1.42c-2.34-.07-4.67.14-7,.3-1.17.09-2.34.13-3.5.26l-3.48.44c-1.16.16-2.33.26-3.48.47l-3.45.65c-2.31.37-4.56,1-6.83,1.59l-1.7.44-1.66.55L1078,30.06c-1.1.39-2.16.88-3.25,1.32s-2.18.86-3.2,1.42l-3.12,1.59c-1,.53-2,1.19-3,1.79l-1.5.91c-.49.31-1,.68-1.43,1-.94.69-1.91,1.35-2.82,2.07a57.54,57.54,0,0,0-9.75,10A59.36,59.36,0,0,0,1039,75.7a66.62,66.62,0,0,0-1.07,14,56.27,56.27,0,0,0,.62,7l.31,1.72.4,1.7a10.85,10.85,0,0,0,1.31,3.18Z"/><path class="cls-6" d="M1054.59,66.16a33,33,0,0,1,4.88-6.74c.91-1.06,2-2,3-2.94s2.14-1.8,3.24-2.65A56,56,0,0,1,1080.5,46l1-.38,1-.29,2-.58,2-.57c.68-.2,1.37-.29,2.06-.44l4.14-.82c1.39-.2,2.78-.33,4.18-.5a83.67,83.67,0,0,1,8.4-.53,39.52,39.52,0,0,1,4.27,0l1.08,0,1.07.12,2.14.25c1.42.18,2.82.51,4.23.76s2.78.71,4.15,1.1a63.11,63.11,0,0,1,7.95,3.19,74.36,74.36,0,0,1,14.35,9.15,79.9,79.9,0,0,1,21.34,26.29,64.66,64.66,0,0,1,3.22,8A50.55,50.55,0,0,1,1171,99.3a41.19,41.19,0,0,1,.37,4.39c0,.74,0,1.48,0,2.22a16.53,16.53,0,0,1-.15,2.22l-.28,2.22-.5,2.2a15.88,15.88,0,0,1-.65,2.17,16.49,16.49,0,0,1-.81,2.12,31.52,31.52,0,0,1-11.66,13.28,45.05,45.05,0,0,1-16.07,6.19,122,122,0,0,1-16.64,2c-5.52.34-11,.54-16.48.84-10.9.49-21.89,1.62-32,6l-.14-.27a63.06,63.06,0,0,1,15.67-5.14,141.82,141.82,0,0,1,16.36-2.15l16.45-1.23a120.35,120.35,0,0,0,16.29-2.3,45.21,45.21,0,0,0,15.14-6.08,28.87,28.87,0,0,0,10.56-12.17,14.16,14.16,0,0,0,.71-1.91,13.62,13.62,0,0,0,.58-2l.44-2,.24-2a14.45,14.45,0,0,0,.12-2c0-.68.06-1.36,0-2a38.23,38.23,0,0,0-.37-4.07,47.57,47.57,0,0,0-1.86-8,61.61,61.61,0,0,0-3.12-7.58,77.19,77.19,0,0,0-20.36-25.47A71.63,71.63,0,0,0,1129,49.75a54.81,54.81,0,0,0-15.55-5.08,46.92,46.92,0,0,0-8.18-.61,81.58,81.58,0,0,0-8.21.33c-1.36.13-2.73.24-4.09.4l-4.05.71c-.67.13-1.36.2-2,.38l-2,.52-2,.52-1,.26-1,.34a54.68,54.68,0,0,0-14.73,7.16c-1.12.79-2.2,1.63-3.27,2.48s-2.09,1.77-3,2.77a32.48,32.48,0,0,0-5.11,6.38Z"/><path class="cls-6" d="M1041.54,103.3a11.22,11.22,0,0,1-.37-4.74,25.9,25.9,0,0,1,1.07-4.64,46.8,46.8,0,0,1,3.91-8.65,61.73,61.73,0,0,1,12-14.77,49.3,49.3,0,0,1,7.68-5.83,44.31,44.31,0,0,1,8.81-4.27,19.32,19.32,0,0,1,2.37-.73,22.12,22.12,0,0,1,2.42-.58l2.46-.43,2.5-.21a21.7,21.7,0,0,1,2.51,0,17.87,17.87,0,0,1,2.51.13c.83.1,1.67.18,2.5.3l2.46.54c6.54,1.66,12.28,5.37,17.09,9.64a49.92,49.92,0,0,1,6.5,7.32,33.48,33.48,0,0,1,4.44,8.83,31,31,0,0,1,1.58,9.72,34.28,34.28,0,0,1-1.4,9.59,41.76,41.76,0,0,1-3.73,8.75,40,40,0,0,1-5.5,7.6l-.24-.19a43.74,43.74,0,0,0,4.79-7.86,42.29,42.29,0,0,0,3.09-8.67A31.19,31.19,0,0,0,1120.1,86a33.1,33.1,0,0,0-4.34-8.07,47.12,47.12,0,0,0-6.24-6.75c-4.64-4-10-7.37-15.93-8.83l-2.24-.51c-.76-.11-1.52-.19-2.27-.29a15.54,15.54,0,0,0-2.29-.14,19.11,19.11,0,0,0-2.29,0l-2.29.17-2.26.38a19.74,19.74,0,0,0-2.24.52,20.31,20.31,0,0,0-2.2.65,48,48,0,0,0-15.83,9.21,64.75,64.75,0,0,0-12.16,13.81,47.47,47.47,0,0,0-4.3,8.15,25.25,25.25,0,0,0-1.34,4.39,10.72,10.72,0,0,0,0,4.52Z"/><path class="cls-6" d="M1027.34,141.94c1.83-.28,3.67-.6,5.49-.92s3.66-.61,5.48-.95q5.47-1,10.88-2.21a185.85,185.85,0,0,0,21.32-5.55c1.73-.58,3.44-1.19,5.12-1.86s3.35-1.33,5-2.07a35.86,35.86,0,0,0,8.8-5.44,7.19,7.19,0,0,0,.88-.84c.27-.3.56-.56.83-.87l1.64-2,.41-.51.36-.54.71-1.07c.23-.36.49-.7.7-1.07l.59-1.12a20.29,20.29,0,0,0,2.54-9.38,17,17,0,0,0-.1-2.42c-.07-.81-.28-1.61-.4-2.42s-.43-1.6-.71-2.39-.55-1.59-1-2.36a53.31,53.31,0,0,0-5.47-9,11.18,11.18,0,0,0-.76-1,9.2,9.2,0,0,0-.75-.86l-.84-.81-.93-.73a19.56,19.56,0,0,0-4.32-2.29,31.4,31.4,0,0,0-10.1-1.79,34.72,34.72,0,0,0-20,5.8,25.17,25.17,0,0,0-7.39,7.58,21,21,0,0,0-1.27,2.38c-.18.41-.39.82-.55,1.24l-.46,1.28a24.65,24.65,0,0,0-.78,2.63c-.21.89-.33,1.81-.5,2.72l-.31,0a25.88,25.88,0,0,1,3-10.7,26.49,26.49,0,0,1,7.31-8.38,36.53,36.53,0,0,1,20.93-6.89,31.73,31.73,0,0,1,11,1.64,22.33,22.33,0,0,1,5,2.54,16.24,16.24,0,0,1,4,4,53.72,53.72,0,0,1,5.88,9.5c.44.83.71,1.73,1.07,2.59s.55,1.79.82,2.69.4,1.84.49,2.77a20,20,0,0,1,.14,2.81,23.25,23.25,0,0,1-3,10.75l-.67,1.23c-.23.41-.52.78-.77,1.17l-.79,1.16-.39.58-.44.54-1.77,2.17c-.31.35-.66.67-1,1a9.15,9.15,0,0,1-1,.95,38.67,38.67,0,0,1-9.6,5.7,91.11,91.11,0,0,1-10.5,3.76,185.05,185.05,0,0,1-21.74,4.86c-7.33,1.22-14.69,2.17-22.09,2.79Z"/><path class="cls-6" d="M1209.3,103.43a11.08,11.08,0,0,1-1.46-3.26l-.46-1.72-.36-1.74a56.88,56.88,0,0,1-.83-7,67.11,67.11,0,0,1,.77-14.16,60.66,60.66,0,0,1,10.64-26.32,58.49,58.49,0,0,1,9.91-10.45c.93-.76,1.92-1.45,2.88-2.18.49-.35,1-.73,1.46-1.06l1.53-1c1-.62,2-1.32,3.08-1.88l3.19-1.68c1.05-.59,2.17-1,3.27-1.51s2.2-1,3.32-1.4l3.4-1.18,1.7-.59,1.73-.48c2.31-.62,4.61-1.31,7-1.72l3.51-.71c1.17-.23,2.36-.35,3.54-.53l3.55-.5c1.18-.15,2.37-.21,3.56-.32,2.37-.19,4.74-.44,7.18-.4a67.79,67.79,0,0,1,14.46,1.4,74.53,74.53,0,0,1,26.51,11.49,86.19,86.19,0,0,1,11.24,9.12c1.68,1.73,3.44,3.38,5,5.24.79.91,1.61,1.8,2.36,2.74l2.22,2.85c.76.93,1.44,1.93,2.12,2.93s1.39,2,2,3c1.24,2.07,2.58,4.08,3.67,6.23a93.78,93.78,0,0,1,5.94,13.19c.73,2.3,1.55,4.58,2.09,6.94.28,1.18.65,2.33.86,3.52l.69,3.57a76.09,76.09,0,0,1,1.12,14.5l0,1.82-.15,1.82c-.11,1.21-.17,2.43-.33,3.64a65.15,65.15,0,0,1-1.36,7.2,66.4,66.4,0,0,1-2.14,7,61.72,61.72,0,0,1-3.11,6.66l-.88,1.61-.44.81c-.16.26-.34.51-.51.77l-2.06,3.05c-1.41,2-2.92,3.83-4.48,5.68a53.62,53.62,0,0,1-10.91,9.83,36.6,36.6,0,0,1-13.84,5.51,63.33,63.33,0,0,1-14.53.6c-4.77-.26-9.46-.81-14.12-1.35l-14-1.65c-4.64-.51-9.3-1-13.93-1.33a87,87,0,0,0-13.8.06,77.09,77.09,0,0,0-13.61,2.34,87.76,87.76,0,0,0-13.06,4.72c-4.26,1.89-8.37,4.11-12.65,6.11a34.26,34.26,0,0,1-6.69,2.4,13.84,13.84,0,0,1-3.56.36,11,11,0,0,1-3.49-.73l.11-.29a11.4,11.4,0,0,0,6.82.16,33.63,33.63,0,0,0,6.5-2.55c4.19-2.08,8.28-4.39,12.53-6.39a89,89,0,0,1,13.13-5.07,78.57,78.57,0,0,1,13.81-2.68c9.37-1.05,18.78,0,28.09.88l14,1.46c4.66.48,9.32,1,14,1.16a61.06,61.06,0,0,0,14-.75,34.19,34.19,0,0,0,12.85-5.2,51,51,0,0,0,10.31-9.39,63,63,0,0,0,8-11.47,59,59,0,0,0,2.93-6.35,63.59,63.59,0,0,0,2-6.7,62.2,62.2,0,0,0,1.27-6.88c.15-1.16.19-2.32.3-3.49l.13-1.74v-1.75a73.15,73.15,0,0,0-1.14-13.93l-.68-3.43c-.21-1.15-.57-2.26-.85-3.4-.54-2.28-1.34-4.47-2.05-6.69a92.14,92.14,0,0,0-5.69-12.79c-1-2.09-2.33-4-3.52-6.05-.62-1-1.31-1.93-2-2.9s-1.31-1.94-2-2.85l-2.14-2.77c-.73-.91-1.52-1.77-2.28-2.66-1.49-1.81-3.19-3.41-4.8-5.1a83.37,83.37,0,0,0-10.82-8.87,71.8,71.8,0,0,0-25.48-11.2,66.2,66.2,0,0,0-13.9-1.42c-2.34-.07-4.67.14-7,.3-1.17.09-2.34.13-3.5.26l-3.48.44c-1.16.16-2.33.26-3.48.47l-3.45.65c-2.31.37-4.56,1-6.83,1.59l-1.7.44-1.66.55L1247,30.06c-1.1.39-2.16.88-3.25,1.32s-2.18.86-3.2,1.42l-3.12,1.59c-1,.53-2,1.19-3,1.79l-1.5.91c-.49.31-1,.68-1.43,1-.94.69-1.91,1.35-2.82,2.07a57.54,57.54,0,0,0-9.75,10A59.36,59.36,0,0,0,1208,75.7a66.62,66.62,0,0,0-1.07,14,56.3,56.3,0,0,0,.62,7l.31,1.72.4,1.7a10.85,10.85,0,0,0,1.31,3.18Z"/><path class="cls-6" d="M1222.56,66.16a33,33,0,0,1,4.88-6.74c.91-1.06,2-2,3-2.94s2.14-1.8,3.24-2.65A56,56,0,0,1,1248.48,46l1-.38,1-.29,2-.58,2-.57c.68-.2,1.37-.29,2.06-.44l4.14-.82c1.39-.2,2.78-.33,4.18-.5a83.67,83.67,0,0,1,8.4-.53,39.52,39.52,0,0,1,4.27,0l1.08,0,1.07.12,2.14.25c1.42.18,2.82.51,4.23.76s2.78.71,4.15,1.1a63.11,63.11,0,0,1,7.95,3.19,74.36,74.36,0,0,1,14.35,9.15,79.9,79.9,0,0,1,21.34,26.29,64.66,64.66,0,0,1,3.22,8A50.54,50.54,0,0,1,1339,99.3a41.15,41.15,0,0,1,.37,4.39c0,.74,0,1.48,0,2.22a16.53,16.53,0,0,1-.15,2.22l-.28,2.22-.5,2.2a15.87,15.87,0,0,1-.66,2.17,16.5,16.5,0,0,1-.81,2.12,31.52,31.52,0,0,1-11.66,13.28,45,45,0,0,1-16.07,6.19,122,122,0,0,1-16.64,2c-5.52.34-11,.54-16.48.84-10.9.49-21.89,1.62-32,6l-.14-.27a63.06,63.06,0,0,1,15.67-5.14,141.82,141.82,0,0,1,16.36-2.15l16.45-1.23a120.35,120.35,0,0,0,16.29-2.3,45.21,45.21,0,0,0,15.14-6.08,28.87,28.87,0,0,0,10.56-12.17,14.17,14.17,0,0,0,.71-1.91,13.62,13.62,0,0,0,.58-2l.44-2,.24-2a14.47,14.47,0,0,0,.12-2c0-.68.06-1.36,0-2a38.26,38.26,0,0,0-.37-4.07,47.58,47.58,0,0,0-1.86-8,61.59,61.59,0,0,0-3.12-7.58,77.19,77.19,0,0,0-20.36-25.47A71.63,71.63,0,0,0,1297,49.75a54.81,54.81,0,0,0-15.55-5.08,46.92,46.92,0,0,0-8.18-.61,81.57,81.57,0,0,0-8.21.33c-1.36.13-2.73.24-4.09.4l-4.05.71c-.67.13-1.36.2-2,.38l-2,.52-2,.52-1,.26-1,.34a54.68,54.68,0,0,0-14.73,7.16c-1.12.79-2.2,1.63-3.27,2.48s-2.09,1.77-3,2.77a32.48,32.48,0,0,0-5.11,6.38Z"/><path class="cls-6" d="M1209.52,103.3a11.22,11.22,0,0,1-.37-4.74,25.91,25.91,0,0,1,1.07-4.64,46.8,46.8,0,0,1,3.91-8.65,61.73,61.73,0,0,1,12-14.77,49.3,49.3,0,0,1,7.68-5.83,44.31,44.31,0,0,1,8.81-4.27,19.33,19.33,0,0,1,2.37-.73,22.13,22.13,0,0,1,2.42-.58l2.46-.43,2.5-.21a21.7,21.7,0,0,1,2.51,0,17.87,17.87,0,0,1,2.51.13c.83.1,1.67.18,2.5.3l2.46.54c6.54,1.66,12.28,5.37,17.09,9.64a49.93,49.93,0,0,1,6.5,7.32,33.48,33.48,0,0,1,4.44,8.83,31,31,0,0,1,1.58,9.72,34.28,34.28,0,0,1-1.4,9.59,41.76,41.76,0,0,1-3.73,8.75,40,40,0,0,1-5.5,7.6l-.24-.19a43.74,43.74,0,0,0,4.79-7.86,42.28,42.28,0,0,0,3.09-8.67,31.19,31.19,0,0,0-.87-18.12,33.1,33.1,0,0,0-4.34-8.07,47.12,47.12,0,0,0-6.24-6.75c-4.64-4-10-7.37-15.93-8.83l-2.24-.51c-.76-.11-1.52-.19-2.27-.29a15.54,15.54,0,0,0-2.29-.14,19.11,19.11,0,0,0-2.29,0l-2.29.17-2.26.38a19.73,19.73,0,0,0-2.24.52,20.31,20.31,0,0,0-2.2.65,48,48,0,0,0-15.83,9.21,64.76,64.76,0,0,0-12.16,13.81,47.47,47.47,0,0,0-4.3,8.15,25.25,25.25,0,0,0-1.34,4.39,10.72,10.72,0,0,0,0,4.52Z"/><path class="cls-6" d="M1195.31,141.94c1.83-.28,3.67-.6,5.49-.92s3.66-.61,5.48-.95q5.47-1,10.88-2.21a185.85,185.85,0,0,0,21.32-5.55c1.73-.58,3.44-1.19,5.12-1.86s3.35-1.33,5-2.07a35.86,35.86,0,0,0,8.8-5.44,7.21,7.21,0,0,0,.88-.84c.27-.3.56-.56.83-.87l1.64-2,.41-.51.36-.54.71-1.07c.23-.36.49-.7.7-1.07l.59-1.12a20.29,20.29,0,0,0,2.54-9.38,17,17,0,0,0-.1-2.42c-.07-.81-.28-1.61-.4-2.42s-.43-1.6-.71-2.39-.55-1.59-1-2.36a53.31,53.31,0,0,0-5.47-9,11.19,11.19,0,0,0-.76-1,9.18,9.18,0,0,0-.75-.86l-.84-.81-.93-.73a19.56,19.56,0,0,0-4.32-2.29,31.4,31.4,0,0,0-10.1-1.79,34.72,34.72,0,0,0-20,5.8,25.17,25.17,0,0,0-7.39,7.58,21,21,0,0,0-1.27,2.38c-.18.41-.39.82-.55,1.24l-.45,1.28a24.62,24.62,0,0,0-.78,2.63c-.21.89-.33,1.81-.5,2.72l-.31,0a25.88,25.88,0,0,1,3-10.7,26.49,26.49,0,0,1,7.31-8.38,36.53,36.53,0,0,1,20.93-6.89,31.73,31.73,0,0,1,11,1.64,22.34,22.34,0,0,1,5,2.54,16.24,16.24,0,0,1,4,4,53.72,53.72,0,0,1,5.88,9.5c.44.83.71,1.73,1.07,2.59s.55,1.79.82,2.69.4,1.84.49,2.77a20,20,0,0,1,.14,2.81,23.25,23.25,0,0,1-3,10.75l-.67,1.23c-.23.41-.52.78-.77,1.17l-.79,1.16-.39.58-.44.54-1.77,2.17c-.31.35-.66.67-1,1a9.15,9.15,0,0,1-1,.95,38.67,38.67,0,0,1-9.6,5.7,91.11,91.11,0,0,1-10.5,3.76,185.05,185.05,0,0,1-21.74,4.86c-7.33,1.22-14.69,2.17-22.09,2.79Z"/><path class="cls-6" d="M1377.8,103.43a11.08,11.08,0,0,1-1.46-3.26l-.46-1.72-.36-1.74a56.88,56.88,0,0,1-.83-7,67.11,67.11,0,0,1,.77-14.16,60.66,60.66,0,0,1,10.64-26.32A58.5,58.5,0,0,1,1396,38.75c.93-.76,1.92-1.45,2.88-2.18.49-.35,1-.73,1.46-1.06l1.53-1c1-.62,2-1.32,3.08-1.88l3.19-1.68c1.05-.59,2.17-1,3.27-1.51s2.2-1,3.32-1.4l3.4-1.18,1.7-.59,1.73-.48c2.31-.62,4.61-1.31,7-1.72l3.51-.71c1.17-.23,2.36-.35,3.54-.53l3.55-.5c1.18-.15,2.37-.21,3.56-.32,2.37-.19,4.74-.44,7.18-.4a67.79,67.79,0,0,1,14.46,1.4,74.53,74.53,0,0,1,26.51,11.49,86.19,86.19,0,0,1,11.24,9.12c1.68,1.73,3.44,3.38,5,5.24.79.91,1.61,1.8,2.36,2.74l2.22,2.85c.76.93,1.44,1.93,2.12,2.93s1.39,2,2,3c1.24,2.07,2.58,4.08,3.67,6.23a93.77,93.77,0,0,1,5.94,13.19c.73,2.3,1.55,4.58,2.09,6.94.28,1.18.65,2.33.86,3.52l.69,3.57a76.1,76.1,0,0,1,1.12,14.5l0,1.82L1530,112c-.11,1.21-.17,2.43-.33,3.64a65.09,65.09,0,0,1-1.36,7.2,66.37,66.37,0,0,1-2.14,7,61.75,61.75,0,0,1-3.11,6.66l-.88,1.61-.44.81c-.16.26-.34.51-.51.77l-2.06,3.05c-1.41,2-2.92,3.83-4.48,5.68a53.62,53.62,0,0,1-10.91,9.83,36.6,36.6,0,0,1-13.84,5.51,63.33,63.33,0,0,1-14.53.6c-4.77-.26-9.46-.81-14.12-1.35l-14-1.65c-4.64-.51-9.3-1-13.93-1.33a87,87,0,0,0-13.8.06,77.09,77.09,0,0,0-13.61,2.34,87.76,87.76,0,0,0-13.06,4.72c-4.26,1.89-8.37,4.11-12.65,6.11a34.26,34.26,0,0,1-6.69,2.4,13.84,13.84,0,0,1-3.56.36,11,11,0,0,1-3.49-.73l.11-.29a11.4,11.4,0,0,0,6.82.16,33.62,33.62,0,0,0,6.5-2.55c4.19-2.08,8.28-4.39,12.53-6.39a89,89,0,0,1,13.13-5.07,78.57,78.57,0,0,1,13.81-2.68c9.37-1.05,18.78,0,28.09.88l14,1.46c4.66.48,9.32,1,14,1.16a61.06,61.06,0,0,0,14-.75,34.19,34.19,0,0,0,12.85-5.2,51,51,0,0,0,10.31-9.39,63,63,0,0,0,8-11.47,59,59,0,0,0,2.93-6.35,63.56,63.56,0,0,0,2-6.7,62.23,62.23,0,0,0,1.27-6.88c.15-1.16.19-2.32.3-3.49l.13-1.74v-1.75a73.15,73.15,0,0,0-1.14-13.93l-.68-3.43c-.21-1.15-.57-2.26-.85-3.4-.54-2.28-1.34-4.47-2.05-6.69a92.14,92.14,0,0,0-5.69-12.79c-1-2.09-2.33-4-3.52-6.05-.62-1-1.31-1.93-2-2.9s-1.31-1.94-2-2.85l-2.14-2.77c-.73-.91-1.52-1.77-2.28-2.66-1.49-1.81-3.19-3.41-4.8-5.1a83.37,83.37,0,0,0-10.82-8.87,71.8,71.8,0,0,0-25.48-11.2,66.2,66.2,0,0,0-13.9-1.42c-2.34-.07-4.67.14-7,.3-1.17.09-2.34.13-3.5.26l-3.48.44c-1.16.16-2.33.26-3.48.47l-3.45.65c-2.31.37-4.56,1-6.83,1.59l-1.7.44-1.66.55-3.33,1.11c-1.1.39-2.16.88-3.25,1.32s-2.18.86-3.2,1.42l-3.12,1.59c-1,.53-2,1.19-3,1.79l-1.5.91c-.49.31-1,.68-1.43,1-.94.69-1.91,1.35-2.82,2.07a57.54,57.54,0,0,0-9.75,10,59.36,59.36,0,0,0-10.94,25.53,66.61,66.61,0,0,0-1.07,14,56.26,56.26,0,0,0,.62,7l.31,1.72.4,1.7a10.85,10.85,0,0,0,1.31,3.18Z"/><path class="cls-6" d="M1391.07,66.16a33,33,0,0,1,4.88-6.74c.91-1.06,2-2,3-2.94s2.14-1.8,3.24-2.65A56,56,0,0,1,1417,46l1-.38,1-.29,2-.58,2-.57c.68-.2,1.37-.29,2.06-.44l4.14-.82c1.39-.2,2.78-.33,4.18-.5a83.67,83.67,0,0,1,8.4-.53,39.52,39.52,0,0,1,4.27,0l1.08,0,1.07.12,2.14.25c1.42.18,2.82.51,4.23.76s2.78.71,4.15,1.1a63.11,63.11,0,0,1,7.95,3.19A74.36,74.36,0,0,1,1481,56.52a79.9,79.9,0,0,1,21.34,26.29,64.66,64.66,0,0,1,3.22,8,50.55,50.55,0,0,1,1.91,8.49,41.19,41.19,0,0,1,.37,4.39c0,.74,0,1.48,0,2.22a16.55,16.55,0,0,1-.15,2.22l-.28,2.22-.5,2.2a15.9,15.9,0,0,1-.66,2.17,16.5,16.5,0,0,1-.81,2.12,31.52,31.52,0,0,1-11.66,13.28,45,45,0,0,1-16.07,6.19,122,122,0,0,1-16.64,2c-5.52.34-11,.54-16.48.84-10.9.49-21.89,1.62-32,6l-.14-.27a63.06,63.06,0,0,1,15.67-5.14,141.82,141.82,0,0,1,16.36-2.15l16.45-1.23a120.36,120.36,0,0,0,16.29-2.3,45.21,45.21,0,0,0,15.14-6.08,28.87,28.87,0,0,0,10.56-12.17,14.17,14.17,0,0,0,.71-1.91,13.64,13.64,0,0,0,.58-2l.44-2,.24-2a14.47,14.47,0,0,0,.12-2c0-.68.06-1.36,0-2a38.23,38.23,0,0,0-.37-4.07,47.58,47.58,0,0,0-1.86-8,61.63,61.63,0,0,0-3.12-7.58,77.19,77.19,0,0,0-20.36-25.47,71.63,71.63,0,0,0-13.75-8.92A54.81,54.81,0,0,0,1450,44.67a46.92,46.92,0,0,0-8.18-.61,81.57,81.57,0,0,0-8.21.33c-1.36.13-2.73.24-4.09.4l-4.05.71c-.67.13-1.36.2-2,.38l-2,.52-2,.52-1,.26-1,.34a54.68,54.68,0,0,0-14.73,7.16c-1.12.79-2.2,1.63-3.27,2.48s-2.09,1.77-3,2.77a32.48,32.48,0,0,0-5.11,6.38Z"/><path class="cls-6" d="M1378,103.3a11.21,11.21,0,0,1-.37-4.74,25.9,25.9,0,0,1,1.07-4.64,46.8,46.8,0,0,1,3.91-8.65,61.73,61.73,0,0,1,12-14.77,49.3,49.3,0,0,1,7.68-5.83,44.31,44.31,0,0,1,8.81-4.27,19.32,19.32,0,0,1,2.37-.73,22.12,22.12,0,0,1,2.42-.58l2.46-.43,2.5-.21a21.7,21.7,0,0,1,2.51,0,17.87,17.87,0,0,1,2.51.13c.83.1,1.67.18,2.5.3l2.46.54c6.54,1.66,12.28,5.37,17.09,9.64a49.91,49.91,0,0,1,6.5,7.32,33.47,33.47,0,0,1,4.44,8.83,31,31,0,0,1,1.58,9.72,34.29,34.29,0,0,1-1.4,9.59,41.77,41.77,0,0,1-3.73,8.75,40,40,0,0,1-5.5,7.6l-.24-.19a43.74,43.74,0,0,0,4.79-7.86,42.28,42.28,0,0,0,3.09-8.67,31.19,31.19,0,0,0-.87-18.12,33.11,33.11,0,0,0-4.34-8.07,47.12,47.12,0,0,0-6.24-6.75c-4.64-4-10-7.37-15.93-8.83l-2.24-.51c-.76-.11-1.52-.19-2.27-.29a15.55,15.55,0,0,0-2.29-.14,19.11,19.11,0,0,0-2.29,0l-2.29.17-2.26.38a19.74,19.74,0,0,0-2.24.52,20.31,20.31,0,0,0-2.2.65,48,48,0,0,0-15.83,9.21A64.76,64.76,0,0,0,1384,86.15a47.46,47.46,0,0,0-4.3,8.15,25.25,25.25,0,0,0-1.34,4.39,10.72,10.72,0,0,0,0,4.52Z"/><path class="cls-6" d="M1363.82,141.94c1.83-.28,3.67-.6,5.49-.92s3.66-.61,5.48-.95q5.47-1,10.88-2.21a185.84,185.84,0,0,0,21.32-5.55c1.73-.58,3.44-1.19,5.12-1.86s3.35-1.33,5-2.07a35.85,35.85,0,0,0,8.8-5.44,7.19,7.19,0,0,0,.88-.84c.27-.3.56-.56.83-.87l1.64-2,.41-.51.36-.54.71-1.07c.23-.36.49-.7.7-1.07l.59-1.12a20.29,20.29,0,0,0,2.54-9.38,17,17,0,0,0-.1-2.42c-.07-.81-.28-1.61-.4-2.42s-.43-1.6-.71-2.39-.55-1.59-1-2.36a53.31,53.31,0,0,0-5.47-9,11.17,11.17,0,0,0-.76-1,9.2,9.2,0,0,0-.75-.86l-.84-.81-.93-.73a19.57,19.57,0,0,0-4.32-2.29,31.4,31.4,0,0,0-10.1-1.79,34.72,34.72,0,0,0-20,5.8,25.17,25.17,0,0,0-7.39,7.58,21,21,0,0,0-1.27,2.38c-.18.41-.39.82-.55,1.24l-.46,1.28a24.65,24.65,0,0,0-.78,2.63c-.21.89-.33,1.81-.5,2.72l-.31,0a25.88,25.88,0,0,1,3-10.7,26.49,26.49,0,0,1,7.31-8.38,36.53,36.53,0,0,1,20.93-6.89,31.73,31.73,0,0,1,11,1.64,22.33,22.33,0,0,1,5,2.54,16.24,16.24,0,0,1,4,4,53.72,53.72,0,0,1,5.88,9.5c.44.83.71,1.73,1.07,2.59s.55,1.79.82,2.69.4,1.84.49,2.77a20,20,0,0,1,.14,2.81,23.25,23.25,0,0,1-3,10.75l-.67,1.23c-.23.41-.52.78-.77,1.17l-.79,1.16-.39.58-.44.54-1.77,2.17c-.31.35-.66.67-1,1a9.16,9.16,0,0,1-1,.95,38.67,38.67,0,0,1-9.6,5.7,91.11,91.11,0,0,1-10.5,3.76,185.05,185.05,0,0,1-21.74,4.86c-7.33,1.22-14.69,2.17-22.09,2.79Z"/></g></svg>