<?xml version="1.0" encoding="utf-8"?>
<!-- Generator: Adobe Illustrator 21.1.0, SVG Export Plug-In . SVG Version: 6.00 Build 0)  -->
<svg version="1.1" id="Layer_1" xmlns="http://www.w3.org/2000/svg" xmlns:xlink="http://www.w3.org/1999/xlink" x="0px" y="0px"
	 viewBox="0 0 2800.5 337.8" style="enable-background:new 0 0 2800.5 337.8;" xml:space="preserve">
<style type="text/css">
	.st0{clip-path:url(#SVGID_2_);fill:#E2F2F0;}
	.st1{clip-path:url(#SVGID_2_);fill:none;}
	.st2{clip-path:url(#SVGID_2_);}
	.st3{fill:#F4EEE6;}
	.st4{fill:none;stroke:#FCF6F1;stroke-width:5.65;stroke-miterlimit:10;}
	.st5{fill:none;}
</style>
<title>Artboard 1</title>
<g>
	<defs>
		<rect id="SVGID_1_" x="-5.6" y="-4.9" width="2807" height="347.9"/>
	</defs>
	<clipPath id="SVGID_2_">
		<use xlink:href="#SVGID_1_"  style="overflow:visible;"/>
	</clipPath>
	<rect x="-301.6" y="-414.3" class="st0" width="3202.8" height="655.6"/>
	<rect x="-3.6" y="-15.9" class="st1" width="2811.3" height="345.3"/>
	<g class="st2">
		<polygon class="st3" points="2838.4,401.5 805.1,394.6 804.1,237.6 2837.4,244.1 		"/>
		<polygon class="st3" points="2025.4,401.3 -7.8,394.4 -8.9,235.5 2024.4,242.1 		"/>
		<path class="st3" d="M2195,241.4c0,0-182.4,0.8-164.2-78.1c19.2-82.8,110.6-33.4,107,4.2c0,0,32.3-92.2-68.7-135.7
			c-135.6-58.5-274.4,107.2-172,226.9C2013.5,394.5,2195,241.4,2195,241.4z"/>
		<path class="st3" d="M1883.1,242.9c0,0-182.4,0.8-164.2-78.1c19.2-82.8,110.6-33.4,107,4.2c0,0,32.3-92.2-68.7-135.7
			c-135.6-58.4-274.4,107.2-171.9,226.9C1701.6,396,1883.1,242.9,1883.1,242.9z"/>
		<path class="st3" d="M1573.6,242.9c0,0-182.4,0.8-164.2-78.1c19.2-82.8,110.6-33.4,107,4.2c0,0,32.3-92.2-68.7-135.7
			c-135.6-58.4-274.4,107.2-171.9,226.9C1392.1,396,1573.6,242.9,1573.6,242.9z"/>
		<path class="st3" d="M1262.5,242.9c0,0-182.4,0.8-164.2-78.1c19.2-82.8,110.6-33.4,107,4.2c0,0,32.3-92.2-68.7-135.7
			c-135.6-58.4-274.4,107.2-171.9,226.9C1081,396,1262.5,242.9,1262.5,242.9z"/>
		<path class="st3" d="M951.1,242.9c0,0-182.4,0.8-164.2-78.1c19.2-82.8,110.6-33.4,107,4.2c0,0,32.3-92.2-68.7-135.7
			C689.6-25.2,550.8,140.4,653.3,260.1C769.6,396,951.1,242.9,951.1,242.9z"/>
		<path class="st3" d="M641.5,242.9c0,0-182.4,0.8-164.2-78.1c19.2-82.8,110.6-33.4,107,4.2c0,0,32.3-92.2-68.7-135.7
			C380-25.2,241.2,140.4,343.7,260.1C460,396,641.5,242.9,641.5,242.9z"/>
		<path class="st3" d="M330.4,242.9c0,0-182.4,0.8-164.2-78.1c19.2-82.8,110.6-33.4,107,4.2c0,0,32.3-92.2-68.7-135.7
			C68.9-25.2-69.9,140.4,32.6,260.1C148.9,396,330.4,242.9,330.4,242.9z"/>
		<path class="st4" d="M2137.8,167.4c8.6-10.8,23.5-141.5-127-147.9c-108.9-4.6-185,140.4-127.5,219.6c39.2,54,68.7,36.9,151.1,31.1
			c74.1-5.2,100.6,40.1,124.2,31.1"/>
		<path class="st4" d="M2113.5,98.3c0,0-22.6-43.3-95.5-41.8c-71.7,1.5-137.3,96.5-105.1,142.4s110.1,19.9,161.6,46.1"/>
		<path class="st4" d="M2137.4,167.3c6.7-23.3-57.8-113.4-119.9-64.2c-54.5,43.2-11.1,96.7-11.1,96.7"/>
		<path class="st4" d="M2163.7,239.7c0,0-96-7.4-120.4-35.4s-13.5-51.1,1.8-71.6c19.5-26,89.5-15.7,92.3,34.2"/>
		<path class="st4" d="M1825.6,167.4c8.6-10.8,23.5-141.5-127-147.9c-108.9-4.6-185,140.4-127.5,219.6c39.2,54,68.7,36.9,151.1,31.1
			c74.1-5.2,100.6,40.1,124.2,31.1"/>
		<path class="st4" d="M1801.3,98.3c0,0-22.5-43.3-95.5-41.8c-71.7,1.5-137.3,96.5-105.1,142.4c32.2,45.9,110.1,19.9,161.6,46.1"/>
		<path class="st4" d="M1825.2,167.3c6.7-23.3-57.8-113.4-119.9-64.2c-54.5,43.2-11.1,96.7-11.1,96.7"/>
		<path class="st4" d="M1851.4,239.7c0,0-96-7.4-120.4-35.4c-24.4-28-13.5-51.1,1.8-71.6c19.5-26,89.5-15.7,92.3,34.2"/>
		<path class="st4" d="M1516,167.4c8.6-10.8,23.5-141.5-127-147.9c-108.9-4.6-185,140.4-127.5,219.6c39.2,54,68.7,36.9,151.1,31.1
			c74.1-5.2,100.6,40.1,124.2,31.1"/>
		<path class="st4" d="M1491.7,98.3c0,0-22.6-43.3-95.5-41.8c-71.7,1.4-137.4,96.5-105.1,142.4s110,19.9,161.6,46.1"/>
		<path class="st4" d="M1515.6,167.3c6.7-23.3-57.8-113.4-119.9-64.2c-54.5,43.2-11.1,96.7-11.1,96.7"/>
		<path class="st4" d="M1541.9,239.7c0,0-96-7.4-120.4-35.4c-24.4-28-13.5-51.1,1.8-71.6c19.5-26,89.5-15.7,92.3,34.2"/>
		
			<rect x="729" y="-93.9" transform="matrix(1 -3.197185e-03 3.197185e-03 1 -0.4761 6.1518)" class="st5" width="2389.7" height="491.9"/>
		<g>
			<path class="st3" d="M2838.7,242.9c0,0-182.4,0.8-164.2-78.1c19.2-82.8,110.6-33.4,107,4.2c0,0,32.3-92.2-68.7-135.7
				c-135.6-58.4-274.4,107.2-171.9,226.9C2657.2,396,2838.7,242.9,2838.7,242.9z"/>
			<path class="st3" d="M2529.1,242.9c0,0-182.4,0.8-164.2-78.1c19.2-82.8,110.6-33.4,107,4.2c0,0,32.3-92.2-68.7-135.7
				c-135.5-58.4-274.4,107.2-171.9,226.9C2347.6,396,2529.1,242.9,2529.1,242.9z"/>
		</g>
		<path class="st4" d="M2781.1,167.4c8.6-10.8,23.5-141.5-127-147.9c-108.9-4.6-185,140.4-127.5,219.6c39.2,54,68.7,36.9,151.1,31.1
			c74.1-5.2,100.6,40.1,124.2,31.1"/>
		<path class="st4" d="M2756.8,98.3c0,0-22.6-43.3-95.5-41.8c-71.7,1.5-137.3,96.5-105.1,142.4s110.1,19.9,161.6,46.1"/>
		<path class="st4" d="M2780.7,167.3c6.7-23.3-57.8-113.4-119.9-64.2c-54.5,43.2-11.1,96.7-11.1,96.7"/>
		<path class="st4" d="M2806.9,239.7c0,0-96-7.4-120.4-35.4s-13.5-51.1,1.8-71.6c19.5-26,89.5-15.7,92.3,34.2"/>
		<path class="st4" d="M2471.6,167.4c8.6-10.8,23.5-141.5-127-147.9c-108.9-4.6-185,140.4-127.5,219.6c39.2,54,68.7,36.9,151.1,31.1
			c74.1-5.2,100.6,40.1,124.2,31.1"/>
		<path class="st4" d="M2447.3,98.3c0,0-22.6-43.3-95.5-41.8c-71.7,1.5-137.3,96.5-105.1,142.4c32.2,45.9,110.1,19.9,161.6,46.1"/>
		<path class="st4" d="M2471.1,167.3c6.7-23.3-57.8-113.4-119.9-64.2c-54.5,43.2-11.1,96.7-11.1,96.7"/>
		<path class="st4" d="M2497.4,239.7c0,0-96-7.4-120.4-35.4s-13.5-51.1,1.8-71.6c19.5-26,89.5-15.7,92.3,34.2"/>
		<path class="st4" d="M1203.8,167.4c8.6-10.8,23.5-141.5-127-147.9c-108.9-4.6-185,140.4-127.5,219.6c39.2,54,68.7,36.9,151.1,31.1
			c74.1-5.2,100.6,40.1,124.2,31.1"/>
		<path class="st4" d="M1179.5,98.3c0,0-22.6-43.3-95.5-41.8C1012.3,58,946.6,153.1,978.8,199c32.2,45.9,110.1,19.9,161.6,46.1"/>
		<path class="st4" d="M1203.3,167.3c6.7-23.3-57.8-113.4-119.9-64.2c-54.5,43.2-11.1,96.7-11.1,96.7"/>
		<path class="st4" d="M1229.6,239.7c0,0-96-7.4-120.4-35.4c-24.4-28-13.5-51.1,1.8-71.6c19.5-26,89.5-15.7,92.3,34.2"/>
		<path class="st4" d="M893.3,167.4c8.6-10.8,23.5-141.5-127-147.9c-108.9-4.6-185,140.4-127.5,219.6c39.2,54,68.7,36.9,151.1,31.1
			c74.1-5.2,100.6,40.1,124.2,31.1"/>
		<path class="st4" d="M869,98.3c0,0-22.6-43.3-95.5-41.8C701.9,58,636.2,153.1,668.4,199c32.2,45.9,110.1,19.9,161.6,46.1"/>
		<path class="st4" d="M892.9,167.3c6.7-23.3-57.8-113.4-119.9-64.2c-54.5,43.2-11.1,96.7-11.1,96.7"/>
		<path class="st4" d="M919.2,239.7c0,0-96-7.4-120.4-35.4s-13.5-51.1,1.8-71.6c19.5-26,89.5-15.7,92.3,34.2"/>
		<path class="st4" d="M587.5,167.4c8.6-10.8,23.5-141.5-127-147.9c-108.9-4.6-185,140.4-127.5,219.6c39.2,54,68.7,36.9,151.1,31.1
			c74.1-5.2,100.6,40.1,124.2,31.1"/>
		<path class="st4" d="M563.1,98.3c0,0-22.6-43.3-95.5-41.8c-71.6,1.4-137.3,96.5-105.1,142.4s110.1,19.9,161.6,46.1"/>
		<path class="st4" d="M587,167.3c6.7-23.3-57.9-113.4-119.9-64.2c-54.5,43.2-11.1,96.7-11.1,96.7"/>
		<path class="st4" d="M613.2,239.7c0,0-96-7.4-120.4-35.4s-13.5-51.1,1.8-71.6c19.5-26,89.5-15.7,92.3,34.2"/>
		<path class="st4" d="M278.7,167.4c8.6-10.8,23.5-141.5-127-147.9C42.8,14.9-33.3,159.9,24.1,239.2c39.2,54,68.7,36.9,151,31.1
			c74.1-5.2,100.6,40.1,124.2,31.1"/>
		<path class="st4" d="M254.4,98.3c0,0-22.6-43.3-95.6-41.8C87.1,58,21.4,153.1,53.7,199s110.1,19.8,161.7,46.1"/>
		<path class="st4" d="M278.2,167.3c6.7-23.3-57.8-113.4-119.9-64.2c-54.5,43.2-11.1,96.7-11.1,96.7"/>
		<path class="st4" d="M304.5,239.7c0,0-96-7.4-120.4-35.4s-13.5-51.1,1.8-71.6c19.6-26.1,89.6-15.7,92.4,34.2"/>
	</g>
	<rect x="-6.6" y="-16.4" class="st1" width="2809" height="359.1"/>
</g>
</svg>
