<?xml version="1.0" encoding="utf-8"?>
<!-- Generator: Adobe Illustrator 21.1.0, SVG Export Plug-In . SVG Version: 6.00 Build 0)  -->
<svg version="1.1" id="Layer_1" xmlns="http://www.w3.org/2000/svg" xmlns:xlink="http://www.w3.org/1999/xlink" x="0px" y="0px"
	 viewBox="0 0 1542 186" style="enable-background:new 0 0 1542 186;" xml:space="preserve">
<style type="text/css">
	.st0{fill:#A1CBC4;}
	.st1{clip-path:url(#SVGID_2_);fill:#6EB7B4;}
	.st2{clip-path:url(#SVGID_2_);fill:#3D7F7A;}
	.st3{clip-path:url(#SVGID_2_);}
	.st4{clip-path:url(#SVGID_4_);fill:#3D7F7A;}
	.st5{clip-path:url(#SVGID_6_);fill:#3D7F7A;}
</style>
<title>Artboard 1</title>
<g>
	<g>
		<path class="st0" d="M1722,83.6c-0.8-1-1.1-2.2-1.5-3.3l-0.5-1.7l-0.4-1.8c-0.4-2.3-0.7-4.7-0.8-7.1c-0.3-4.8,0-9.6,0.8-14.3
			c1.5-9.4,5-18.8,10.8-26.6c2.9-3.9,6.3-7.5,10-10.6c0.9-0.8,1.9-1.5,2.9-2.2c0.5-0.4,1-0.7,1.5-1.1l1.5-1c1-0.6,2-1.3,3.1-1.9
			l3.2-1.7c1.1-0.6,2.2-1,3.3-1.5c1.1-0.5,2.2-1,3.4-1.4l3.4-1.2l1.7-0.6l1.7-0.5c2.3-0.6,4.7-1.3,7-1.7l3.6-0.7
			c1.2-0.2,2.4-0.4,3.6-0.5l3.6-0.5c1.2-0.2,2.4-0.2,3.6-0.3l3.6-0.3l0.9-0.1l0.9,0l1.8,0c4.9-0.2,9.8,0.5,14.6,1.4
			c9.6,2.1,18.8,6,26.8,11.6c4.1,2.7,7.8,5.9,11.4,9.2c1.7,1.7,3.5,3.4,5,5.3c0.8,0.9,1.6,1.8,2.4,2.8l2.2,2.9c0.8,0.9,1.5,2,2.1,3
			c0.7,1,1.4,2,2.1,3c1.3,2.1,2.6,4.1,3.7,6.3c2.4,4.3,4.3,8.8,6,13.3c0.7,2.3,1.6,4.6,2.1,7c0.3,1.2,0.7,2.4,0.9,3.6l0.7,3.6
			c0.8,4.8,1.3,9.7,1.1,14.7l0,1.8l-0.1,1.8c-0.1,1.2-0.2,2.5-0.3,3.7c-0.4,2.4-0.7,4.9-1.4,7.3c-0.5,2.4-1.4,4.7-2.2,7.1
			c-1,2.3-1.9,4.6-3.1,6.7l-0.9,1.6l-0.4,0.8c-0.2,0.3-0.3,0.5-0.5,0.8l-2.1,3.1c-1.4,2-2.9,3.9-4.5,5.7c-3.2,3.7-6.8,7.2-11,9.9
			c-2.1,1.4-4.4,2.6-6.7,3.5c-2.4,0.9-4.8,1.7-7.3,2.1c-4.9,0.9-9.9,0.9-14.7,0.6c-4.8-0.3-9.6-0.8-14.3-1.4l-14.1-1.7
			c-4.7-0.5-9.4-1-14.1-1.3c-4.6-0.3-9.3-0.3-13.9,0.1c-4.6,0.4-9.2,1.2-13.8,2.4c-4.5,1.2-8.9,2.8-13.2,4.8
			c-4.3,1.9-8.5,4.2-12.8,6.2c-2.2,1-4.4,1.9-6.8,2.4c-1.2,0.3-2.4,0.4-3.6,0.4c-1.2,0-2.4-0.3-3.5-0.7l0.1-0.3
			c2.2,0.8,4.6,0.8,6.9,0.2c2.3-0.6,4.4-1.5,6.6-2.6c4.2-2.1,8.4-4.4,12.7-6.5c4.3-2,8.7-3.8,13.3-5.1c4.6-1.3,9.2-2.2,14-2.7
			c9.5-1.1,19,0,28.4,0.9l14.1,1.5c4.7,0.5,9.4,1,14.1,1.2c4.7,0.2,9.5,0.1,14.1-0.8c4.6-0.9,9.1-2.6,13-5.3
			c3.9-2.6,7.3-5.9,10.4-9.5c3-3.6,5.9-7.4,8.1-11.6c1.2-2,2-4.3,3-6.4c0.7-2.2,1.6-4.5,2-6.8c0.6-2.3,0.9-4.6,1.3-6.9
			c0.2-1.2,0.2-2.3,0.3-3.5l0.1-1.8l0-1.8c0.1-4.7-0.4-9.4-1.2-14.1l-0.7-3.5c-0.2-1.2-0.6-2.3-0.9-3.4c-0.5-2.3-1.4-4.5-2.1-6.8
			c-1.6-4.4-3.5-8.8-5.8-12.9c-1.1-2.1-2.4-4.1-3.6-6.1c-0.6-1-1.3-2-2-2.9c-0.7-1-1.3-2-2.1-2.9l-2.2-2.8c-0.7-0.9-1.5-1.8-2.3-2.7
			c-1.5-1.8-3.2-3.4-4.9-5.2c-3.4-3.2-7-6.4-10.9-9c-7.7-5.4-16.6-9.2-25.8-11.3c-4.6-0.9-9.3-1.5-14.1-1.4
			c-2.4-0.1-4.7,0.1-7.1,0.3c-1.2,0.1-2.4,0.1-3.5,0.3l-3.5,0.4c-1.2,0.2-2.3,0.3-3.5,0.5l-3.5,0.7c-2.3,0.4-4.6,1-6.9,1.6l-1.7,0.4
			l-1.7,0.6l-3.4,1.1c-1.1,0.4-2.2,0.9-3.3,1.3c-1.1,0.5-2.2,0.9-3.2,1.4l-3.2,1.6c-1.1,0.5-2,1.2-3,1.8l-1.5,0.9
			c-0.5,0.3-1,0.7-1.4,1c-0.9,0.7-1.9,1.4-2.9,2.1c-3.7,3-7,6.4-9.9,10.1c-5.8,7.5-9.4,16.5-11.1,25.8c-0.8,4.6-1.2,9.4-1.1,14.1
			c0.1,2.4,0.3,4.7,0.6,7.1l0.3,1.7l0.4,1.7c0.4,1.1,0.6,2.3,1.3,3.2L1722,83.6z"/>
	</g>
	<g>
		<path class="st0" d="M1735.4,45.9c1.3-2.5,3-4.7,4.9-6.8c0.9-1.1,2-2,3-3c1.1-0.9,2.2-1.8,3.3-2.7c4.5-3.4,9.6-6.1,15-8l1-0.4
			l1-0.3l2-0.6l2.1-0.6c0.7-0.2,1.4-0.3,2.1-0.4l4.2-0.8c1.4-0.2,2.8-0.3,4.2-0.5c2.8-0.4,5.7-0.4,8.5-0.5c1.4-0.1,2.9,0,4.3,0
			l1.1,0l1.1,0.1l2.2,0.3c1.4,0.2,2.8,0.5,4.3,0.8c1.4,0.4,2.8,0.7,4.2,1.1c2.7,0.9,5.4,2,8,3.2c5.2,2.5,10,5.6,14.5,9.2
			c8.9,7.2,16.4,16.2,21.6,26.6c1.3,2.6,2.3,5.3,3.3,8.1c0.8,2.8,1.6,5.6,1.9,8.6c0.2,1.5,0.3,3,0.4,4.4c0,0.7,0,1.5,0,2.2
			c0,0.7,0,1.5-0.2,2.2l-0.3,2.2l-0.5,2.2c-0.1,0.7-0.4,1.5-0.7,2.2c-0.3,0.7-0.5,1.5-0.8,2.1c-2.6,5.7-6.8,10.1-11.8,13.4
			c-5,3.3-10.7,5.1-16.2,6.3c-5.6,1.1-11.2,1.6-16.8,2c-5.6,0.3-11.1,0.5-16.7,0.9c-11,0.5-22.1,1.6-32.4,6l-0.1-0.3
			c5-2.5,10.4-4.1,15.8-5.2c5.5-1.1,11-1.7,16.5-2.2l16.6-1.2c5.5-0.5,11.1-1.1,16.5-2.3c5.4-1.2,10.7-3.1,15.3-6.1
			c4.6-3,8.5-7.3,10.7-12.3c0.3-0.6,0.5-1.3,0.7-1.9c0.2-0.7,0.5-1.3,0.6-2l0.4-2l0.2-2c0.1-0.7,0.1-1.4,0.1-2.1
			c0-0.7,0.1-1.4,0-2.1c-0.1-1.4-0.1-2.8-0.4-4.1c-0.3-2.7-1.1-5.4-1.9-8.1c-0.9-2.6-1.9-5.2-3.2-7.7c-4.9-9.9-12-18.7-20.6-25.7
			c-4.3-3.5-8.9-6.6-13.9-9c-5-2.4-10.2-4.3-15.7-5.1c-2.7-0.4-5.5-0.7-8.3-0.6c-2.8,0.1-5.5,0-8.3,0.3c-1.4,0.1-2.8,0.2-4.1,0.4
			l-4.1,0.7c-0.7,0.1-1.4,0.2-2,0.4l-2,0.5l-2,0.5l-1,0.3l-1,0.3c-5.3,1.6-10.3,4.1-14.9,7.2c-1.1,0.8-2.2,1.7-3.3,2.5
			c-1,0.9-2.1,1.8-3.1,2.8c-2,1.9-3.8,4.1-5.2,6.4L1735.4,45.9z"/>
	</g>
	<g>
		<path class="st0" d="M1722.2,83.4c-0.6-1.5-0.5-3.2-0.4-4.8c0.2-1.6,0.6-3.2,1.1-4.7c1-3.1,2.4-5.9,3.9-8.7
			c3.2-5.5,7.3-10.6,12.1-14.9c2.4-2.2,5-4.2,7.8-5.9c2.8-1.7,5.7-3.2,8.9-4.3c0.8-0.3,1.6-0.5,2.4-0.7c0.8-0.2,1.6-0.5,2.4-0.6
			l2.5-0.4l2.5-0.2c0.8-0.1,1.7,0,2.5,0c0.8,0,1.7,0,2.5,0.1c0.8,0.1,1.7,0.2,2.5,0.3l2.5,0.5c6.6,1.7,12.4,5.4,17.3,9.7
			c2.4,2.3,4.6,4.7,6.6,7.4c1.9,2.7,3.5,5.7,4.5,8.9c1,3.2,1.6,6.5,1.6,9.8c0,3.3-0.5,6.6-1.4,9.7c-0.9,3.1-2.2,6.1-3.8,8.8
			c-1.6,2.8-3.4,5.4-5.6,7.7l-0.2-0.2c1.9-2.4,3.5-5.1,4.8-7.9c1.4-2.8,2.4-5.7,3.1-8.8c1.5-6,1.3-12.5-0.9-18.3
			c-1.1-2.9-2.6-5.6-4.4-8.2c-1.9-2.5-4-4.7-6.3-6.8c-4.7-4-10.1-7.5-16.1-8.9l-2.3-0.5c-0.8-0.1-1.5-0.2-2.3-0.3
			c-0.8-0.1-1.5-0.1-2.3-0.1c-0.8,0-1.5-0.1-2.3,0l-2.3,0.2l-2.3,0.4c-0.8,0.1-1.5,0.3-2.3,0.5c-0.7,0.2-1.5,0.4-2.2,0.7
			c-5.9,2-11.3,5.3-16,9.3c-2.4,2-4.6,4.2-6.6,6.5c-2.1,2.3-4,4.8-5.6,7.4c-1.7,2.6-3.2,5.3-4.3,8.2c-0.6,1.4-1,2.9-1.4,4.4
			c-0.3,1.5-0.4,3.1,0,4.6L1722.2,83.4z"/>
	</g>
	<g>
		<path class="st0" d="M1707.8,122.5c1.9-0.3,3.7-0.6,5.6-0.9c1.8-0.3,3.7-0.6,5.5-1c3.7-0.7,7.4-1.4,11-2.2
			c7.3-1.5,14.6-3.3,21.6-5.6c1.7-0.6,3.5-1.2,5.2-1.9c1.7-0.7,3.4-1.3,5-2.1c3.3-1.5,6.4-3.3,8.9-5.5c0.3-0.3,0.6-0.5,0.9-0.8
			c0.3-0.3,0.6-0.6,0.8-0.9l1.7-2.1l0.4-0.5l0.4-0.5l0.7-1.1c0.2-0.4,0.5-0.7,0.7-1.1l0.6-1.1c1.6-3,2.5-6.2,2.6-9.5
			c0.1-0.8-0.1-1.6-0.1-2.4c-0.1-0.8-0.3-1.6-0.4-2.4c-0.2-0.8-0.4-1.6-0.7-2.4c-0.3-0.8-0.6-1.6-1-2.4c-1.4-3.2-3.4-6.2-5.5-9.1
			c-0.3-0.4-0.5-0.8-0.8-1c-0.3-0.3-0.5-0.6-0.8-0.9l-0.8-0.8l-0.9-0.7c-1.3-0.9-2.8-1.7-4.4-2.3c-3.2-1.1-6.7-1.8-10.2-1.8
			c-7.1-0.1-14.3,1.8-20.2,5.9c-2.9,2-5.6,4.6-7.5,7.7c-0.4,0.8-0.9,1.6-1.3,2.4c-0.2,0.4-0.4,0.8-0.6,1.3l-0.5,1.3
			c-0.4,0.9-0.5,1.8-0.8,2.7c-0.2,0.9-0.3,1.8-0.5,2.7l-0.3,0c0.2-3.8,1.2-7.5,3-10.8c1.8-3.3,4.4-6.2,7.4-8.5
			c6.1-4.5,13.6-6.8,21.2-7c3.8-0.1,7.6,0.4,11.2,1.7c1.8,0.6,3.5,1.5,5.1,2.6c1.6,1,2.9,2.5,4,4c2.3,3,4.3,6.2,5.9,9.6
			c0.4,0.8,0.7,1.8,1.1,2.6c0.3,0.9,0.6,1.8,0.8,2.7c0.2,0.9,0.4,1.9,0.5,2.8c0.1,0.9,0.2,1.9,0.1,2.8c0,3.8-1.2,7.6-3,10.9
			l-0.7,1.2c-0.2,0.4-0.5,0.8-0.8,1.2l-0.8,1.2l-0.4,0.6l-0.4,0.5l-1.8,2.2c-0.3,0.4-0.7,0.7-1,1c-0.3,0.3-0.7,0.7-1.1,1
			c-2.9,2.5-6.3,4.3-9.7,5.8c-3.5,1.5-7,2.7-10.6,3.8c-7.2,2.1-14.6,3.7-22,4.9c-7.4,1.2-14.9,2.2-22.3,2.8L1707.8,122.5z"/>
	</g>
</g>
<g>
	<g>
		<path class="st0" d="M1833.2,83.9c-0.7-1-1-2.1-1.4-3.2l-0.4-1.7l-0.4-1.7c-0.4-2.3-0.7-4.6-0.8-6.9c-0.3-4.6,0-9.3,0.8-13.9
			c1.5-9.2,4.8-18.2,10.4-25.8c2.8-3.8,6.1-7.2,9.7-10.2c0.9-0.7,1.9-1.4,2.8-2.1c0.5-0.3,0.9-0.7,1.4-1l1.5-0.9c1-0.6,2-1.3,3-1.8
			l3.1-1.6c1-0.6,2.1-1,3.2-1.5c1.1-0.5,2.2-1,3.3-1.4l3.3-1.2l1.7-0.6l1.7-0.5c2.3-0.6,4.5-1.3,6.8-1.7l3.4-0.7
			c1.1-0.2,2.3-0.3,3.5-0.5l3.5-0.5c1.2-0.1,2.3-0.2,3.5-0.3c2.3-0.2,4.6-0.4,7-0.4c4.8-0.1,9.5,0.5,14.2,1.4
			c9.3,2,18.2,5.8,26,11.3c4,2.6,7.6,5.7,11,8.9c1.6,1.7,3.4,3.3,4.9,5.1c0.8,0.9,1.6,1.8,2.3,2.7l2.2,2.8c0.7,0.9,1.4,1.9,2.1,2.9
			c0.7,1,1.4,1.9,2,2.9c1.2,2,2.5,4,3.6,6.1c2.3,4.1,4.2,8.5,5.8,12.9c0.7,2.3,1.5,4.5,2.1,6.8c0.3,1.2,0.6,2.3,0.8,3.5l0.7,3.5
			c0.7,4.7,1.3,9.4,1.1,14.2l0,1.8l-0.1,1.8c-0.1,1.2-0.2,2.4-0.3,3.6c-0.4,2.4-0.7,4.7-1.3,7.1c-0.5,2.4-1.4,4.6-2.1,6.9
			c-1,2.2-1.8,4.5-3,6.5l-0.9,1.6l-0.4,0.8c-0.2,0.3-0.3,0.5-0.5,0.8l-2,3c-1.4,1.9-2.9,3.8-4.4,5.6c-3.1,3.6-6.6,7-10.7,9.6
			c-2,1.4-4.2,2.5-6.5,3.4c-2.3,0.9-4.6,1.6-7,2c-4.8,0.8-9.6,0.8-14.2,0.6c-4.7-0.3-9.3-0.8-13.8-1.3l-13.7-1.6
			c-4.5-0.5-9.1-1-13.6-1.3c-4.5-0.3-9-0.3-13.5,0.1c-4.5,0.4-9,1.1-13.3,2.3c-4.4,1.2-8.6,2.8-12.8,4.6c-4.2,1.8-8.2,4-12.4,6
			c-2.1,1-4.3,1.8-6.6,2.4c-2.3,0.5-4.7,0.5-6.9-0.4l0.1-0.3c2.1,0.8,4.5,0.7,6.7,0.2c2.2-0.6,4.3-1.5,6.4-2.5
			c4.1-2,8.1-4.3,12.3-6.3c4.2-2,8.4-3.7,12.9-5c4.4-1.3,9-2.2,13.5-2.6c9.2-1,18.4,0,27.5,0.9l13.7,1.4c4.6,0.5,9.1,0.9,13.7,1.1
			c4.6,0.2,9.2,0.1,13.7-0.7c4.5-0.8,8.8-2.5,12.6-5.1c3.8-2.5,7.1-5.8,10.1-9.2c2.9-3.5,5.7-7.2,7.8-11.2c1.2-2,1.9-4.1,2.9-6.2
			c0.7-2.2,1.5-4.3,2-6.6c0.6-2.2,0.9-4.5,1.2-6.7c0.1-1.1,0.2-2.3,0.3-3.4l0.1-1.7l0-1.7c0.1-4.6-0.4-9.1-1.1-13.7l-0.7-3.4
			c-0.2-1.1-0.6-2.2-0.8-3.3c-0.5-2.2-1.3-4.4-2-6.6c-1.6-4.3-3.3-8.5-5.6-12.5c-1-2.1-2.3-4-3.5-5.9c-0.6-1-1.3-1.9-1.9-2.8
			c-0.6-0.9-1.3-1.9-2-2.8l-2.1-2.7c-0.7-0.9-1.5-1.7-2.2-2.6c-1.5-1.8-3.1-3.3-4.7-5c-3.3-3.1-6.8-6.2-10.6-8.7
			c-7.5-5.3-16-9-25-11c-4.5-0.9-9-1.5-13.6-1.4c-2.3-0.1-4.6,0.1-6.9,0.3c-1.1,0.1-2.3,0.1-3.4,0.3l-3.4,0.4
			c-1.1,0.2-2.3,0.3-3.4,0.5l-3.4,0.6c-2.3,0.4-4.5,1-6.7,1.6l-1.7,0.4l-1.6,0.5l-3.3,1.1c-1.1,0.4-2.1,0.9-3.2,1.3
			c-1.1,0.5-2.1,0.8-3.1,1.4l-3.1,1.6c-1,0.5-2,1.2-3,1.8l-1.5,0.9c-0.5,0.3-0.9,0.7-1.4,1c-0.9,0.7-1.9,1.3-2.8,2
			c-3.6,2.9-6.8,6.2-9.6,9.8c-5.6,7.3-9.1,16-10.7,25c-0.8,4.5-1.2,9.1-1,13.7c0.1,2.3,0.3,4.6,0.6,6.8l0.3,1.7l0.4,1.7
			c0.3,1.1,0.6,2.2,1.3,3.1L1833.2,83.9z"/>
	</g>
	<g>
		<path class="st0" d="M1846.2,47.4c1.3-2.4,2.9-4.6,4.8-6.6c0.9-1,1.9-1.9,2.9-2.9c1-0.9,2.1-1.8,3.2-2.6c4.4-3.3,9.3-5.9,14.5-7.7
			l1-0.4l1-0.3l2-0.6l2-0.6c0.7-0.2,1.3-0.3,2-0.4l4.1-0.8c1.4-0.2,2.7-0.3,4.1-0.5c2.7-0.4,5.5-0.4,8.2-0.5c1.4-0.1,2.8,0,4.2,0
			l1.1,0l1,0.1l2.1,0.2c1.4,0.2,2.8,0.5,4.1,0.7c1.4,0.3,2.7,0.7,4.1,1.1c2.7,0.9,5.3,1.9,7.8,3.1c5,2.4,9.7,5.5,14.1,9
			c8.6,7,15.9,15.7,20.9,25.8c1.2,2.5,2.2,5.2,3.2,7.8c0.8,2.7,1.5,5.5,1.9,8.3c0.2,1.4,0.3,2.9,0.4,4.3c0,0.7,0,1.5,0,2.2
			c0,0.7,0,1.5-0.1,2.2l-0.3,2.2l-0.5,2.2c-0.1,0.7-0.4,1.4-0.6,2.1c-0.3,0.7-0.4,1.4-0.8,2.1c-2.5,5.5-6.6,9.8-11.4,13
			c-4.8,3.2-10.3,5-15.8,6.1c-5.4,1.1-10.9,1.6-16.3,1.9c-5.4,0.3-10.8,0.5-16.1,0.8c-10.7,0.5-21.4,1.6-31.4,5.8l-0.1-0.3
			c4.9-2.4,10.1-4,15.3-5c5.3-1.1,10.7-1.6,16-2.1l16.1-1.2c5.4-0.5,10.7-1.1,16-2.3c5.2-1.2,10.4-3,14.8-6c4.4-3,8.2-7,10.4-11.9
			c0.3-0.6,0.5-1.2,0.7-1.9c0.2-0.6,0.5-1.3,0.6-1.9l0.4-2l0.2-2c0.1-0.7,0.1-1.3,0.1-2c0-0.7,0.1-1.3,0-2c-0.1-1.3-0.1-2.7-0.4-4
			c-0.3-2.7-1-5.2-1.8-7.8c-0.9-2.5-1.8-5-3.1-7.4c-4.7-9.6-11.7-18.1-19.9-25c-4.1-3.4-8.7-6.4-13.5-8.7c-4.8-2.4-9.9-4.1-15.2-5
			c-2.6-0.4-5.3-0.7-8-0.6c-2.7,0.1-5.4,0-8,0.3c-1.3,0.1-2.7,0.2-4,0.4l-4,0.7c-0.7,0.1-1.3,0.2-2,0.4L1876,28l-1.9,0.5l-1,0.3
			l-1,0.3c-5.1,1.6-10,4-14.4,7c-1.1,0.8-2.2,1.6-3.2,2.4c-1,0.9-2,1.7-3,2.7c-1.9,1.9-3.7,4-5,6.3L1846.2,47.4z"/>
	</g>
	<g>
		<path class="st0" d="M1833.4,83.8c-0.5-1.5-0.5-3.1-0.4-4.6c0.2-1.5,0.6-3.1,1-4.5c0.9-3,2.3-5.8,3.8-8.5
			c3.1-5.4,7.1-10.3,11.7-14.5c2.3-2.1,4.8-4.1,7.5-5.7c2.7-1.6,5.6-3.2,8.6-4.2c0.7-0.3,1.5-0.5,2.3-0.7c0.8-0.2,1.6-0.5,2.4-0.6
			l2.4-0.4l2.5-0.2c0.8-0.1,1.6,0,2.5,0c0.8,0,1.6,0,2.5,0.1c0.8,0.1,1.6,0.2,2.5,0.3l2.4,0.5c6.4,1.6,12,5.3,16.7,9.4
			c2.3,2.2,4.5,4.5,6.4,7.2c1.9,2.6,3.3,5.6,4.4,8.7c1,3.1,1.6,6.3,1.5,9.5c0,3.2-0.5,6.4-1.4,9.4c-0.9,3-2.1,5.9-3.7,8.6
			c-1.5,2.7-3.3,5.2-5.4,7.5l-0.2-0.2c1.8-2.4,3.4-5,4.7-7.7c1.3-2.7,2.3-5.6,3-8.5c1.4-5.8,1.2-12.1-0.8-17.8
			c-1-2.8-2.5-5.5-4.3-7.9c-1.8-2.4-3.9-4.6-6.1-6.6c-4.5-3.9-9.8-7.2-15.6-8.6l-2.2-0.5c-0.7-0.1-1.5-0.2-2.2-0.3
			c-0.7-0.1-1.5-0.1-2.2-0.1c-0.7,0-1.5-0.1-2.2,0l-2.2,0.2l-2.2,0.4c-0.7,0.1-1.5,0.3-2.2,0.5c-0.7,0.2-1.5,0.4-2.2,0.6
			c-5.7,1.9-10.9,5.1-15.5,9c-2.3,1.9-4.4,4.1-6.4,6.3c-2,2.3-3.8,4.7-5.5,7.2c-1.6,2.5-3.1,5.2-4.2,8c-0.6,1.4-1,2.8-1.3,4.3
			c-0.2,1.5-0.4,3,0,4.4L1833.4,83.8z"/>
	</g>
	<g>
		<path class="st0" d="M1819.5,121.6c1.8-0.3,3.6-0.6,5.4-0.9c1.8-0.3,3.6-0.6,5.4-0.9c3.6-0.7,7.1-1.4,10.7-2.2
			c7.1-1.5,14.1-3.2,20.9-5.4c1.7-0.6,3.4-1.2,5-1.8c1.7-0.6,3.3-1.3,4.9-2c3.2-1.5,6.2-3.2,8.6-5.3c0.3-0.3,0.6-0.5,0.9-0.8
			c0.3-0.3,0.5-0.5,0.8-0.8l1.6-2c0.3-0.3,0.5-0.7,0.8-1l0.7-1c0.2-0.4,0.5-0.7,0.7-1.1l0.6-1.1c1.6-2.9,2.5-6,2.5-9.2
			c0.1-0.8-0.1-1.6-0.1-2.4c-0.1-0.8-0.3-1.6-0.4-2.4c-0.2-0.8-0.4-1.6-0.7-2.3c-0.3-0.8-0.5-1.6-0.9-2.3c-1.4-3.1-3.3-6-5.4-8.8
			c-0.3-0.4-0.5-0.7-0.7-1c-0.2-0.3-0.4-0.6-0.7-0.8l-0.8-0.8l-0.9-0.7c-1.3-0.9-2.7-1.7-4.2-2.2c-3.1-1.1-6.5-1.7-9.9-1.8
			c-6.8-0.1-13.9,1.8-19.6,5.7c-2.8,2-5.4,4.4-7.2,7.4c-0.4,0.8-0.9,1.5-1.2,2.3c-0.2,0.4-0.4,0.8-0.5,1.2l-0.4,1.3
			c-0.4,0.8-0.5,1.7-0.8,2.6c-0.2,0.9-0.3,1.8-0.5,2.7l-0.3,0c0.2-3.6,1.2-7.3,2.9-10.5c1.7-3.2,4.3-6,7.2-8.2
			c5.9-4.4,13.2-6.6,20.5-6.8c3.7-0.1,7.3,0.4,10.8,1.6c1.7,0.6,3.4,1.4,4.9,2.5c1.5,1,2.8,2.4,3.9,3.9c2.2,2.9,4.2,6,5.8,9.3
			c0.4,0.8,0.7,1.7,1,2.5c0.3,0.9,0.5,1.8,0.8,2.6c0.2,0.9,0.4,1.8,0.5,2.7c0.1,0.9,0.2,1.8,0.1,2.8c0,3.7-1.2,7.3-2.9,10.5
			l-0.7,1.2c-0.2,0.4-0.5,0.8-0.8,1.1c-0.5,0.7-1,1.6-1.6,2.2l-1.7,2.1c-0.3,0.3-0.6,0.7-1,1c-0.3,0.3-0.7,0.6-1,0.9
			c-2.8,2.4-6.1,4.1-9.4,5.6c-3.3,1.5-6.8,2.6-10.3,3.7c-7,2.1-14.1,3.6-21.3,4.8c-7.2,1.2-14.4,2.1-21.6,2.7L1819.5,121.6z"/>
	</g>
</g>
<g>
	<g>
		<path class="st0" d="M1996.8,83.9c-0.7-1-1-2.1-1.4-3.2l-0.4-1.7l-0.4-1.7c-0.4-2.3-0.7-4.6-0.8-6.9c-0.3-4.6,0-9.3,0.8-13.9
			c1.5-9.2,4.8-18.2,10.4-25.8c2.8-3.8,6.1-7.2,9.7-10.2c0.9-0.7,1.9-1.4,2.8-2.1c0.5-0.3,0.9-0.7,1.4-1l1.5-0.9c1-0.6,2-1.3,3-1.8
			l3.1-1.6c1-0.6,2.1-1,3.2-1.5c1.1-0.5,2.2-1,3.3-1.4l3.3-1.2l1.7-0.6l1.7-0.5c2.3-0.6,4.5-1.3,6.8-1.7l3.4-0.7
			c1.1-0.2,2.3-0.3,3.5-0.5l3.5-0.5c1.2-0.1,2.3-0.2,3.5-0.3c2.3-0.2,4.6-0.4,7-0.4c4.8-0.1,9.5,0.5,14.2,1.4
			c9.3,2,18.2,5.8,26,11.3c4,2.6,7.6,5.7,11,8.9c1.6,1.7,3.4,3.3,4.9,5.1c0.8,0.9,1.6,1.8,2.3,2.7l2.2,2.8c0.7,0.9,1.4,1.9,2.1,2.9
			c0.7,1,1.4,1.9,2,2.9c1.2,2,2.5,4,3.6,6.1c2.3,4.1,4.2,8.5,5.8,12.9c0.7,2.3,1.5,4.5,2.1,6.8c0.3,1.2,0.6,2.3,0.8,3.5l0.7,3.5
			c0.7,4.7,1.3,9.4,1.1,14.2l0,1.8l-0.1,1.8c-0.1,1.2-0.2,2.4-0.3,3.6c-0.4,2.4-0.7,4.7-1.3,7.1c-0.5,2.4-1.4,4.6-2.1,6.9
			c-1,2.2-1.8,4.5-3,6.5l-0.9,1.6l-0.4,0.8c-0.2,0.3-0.3,0.5-0.5,0.8l-2,3c-1.4,1.9-2.9,3.8-4.4,5.6c-3.1,3.6-6.6,7-10.7,9.6
			c-2,1.4-4.2,2.5-6.5,3.4c-2.3,0.9-4.6,1.6-7,2c-4.8,0.8-9.6,0.8-14.2,0.6c-4.7-0.3-9.3-0.8-13.8-1.3l-13.7-1.6
			c-4.5-0.5-9.1-1-13.6-1.3c-4.5-0.3-9-0.3-13.5,0.1c-4.5,0.4-9,1.1-13.3,2.3c-4.4,1.2-8.6,2.8-12.8,4.6c-4.2,1.8-8.2,4-12.4,6
			c-2.1,1-4.3,1.8-6.6,2.4c-2.3,0.5-4.7,0.5-6.9-0.4l0.1-0.3c2.1,0.8,4.5,0.7,6.7,0.2c2.2-0.6,4.3-1.5,6.4-2.5
			c4.1-2,8.1-4.3,12.3-6.3c4.2-2,8.4-3.7,12.9-5c4.4-1.3,9-2.2,13.5-2.6c9.2-1,18.4,0,27.5,0.9l13.7,1.4c4.6,0.5,9.1,0.9,13.7,1.1
			c4.6,0.2,9.2,0.1,13.7-0.7c4.5-0.8,8.8-2.5,12.6-5.1c3.8-2.5,7.1-5.8,10.1-9.2c2.9-3.5,5.7-7.2,7.8-11.2c1.2-2,1.9-4.1,2.9-6.2
			c0.7-2.2,1.5-4.3,2-6.6c0.6-2.2,0.9-4.5,1.2-6.7c0.1-1.1,0.2-2.3,0.3-3.4l0.1-1.7l0-1.7c0.1-4.6-0.4-9.1-1.1-13.7l-0.7-3.4
			c-0.2-1.1-0.6-2.2-0.8-3.3c-0.5-2.2-1.3-4.4-2-6.6c-1.6-4.3-3.3-8.5-5.6-12.5c-1-2.1-2.3-4-3.5-5.9c-0.6-1-1.3-1.9-1.9-2.8
			c-0.6-0.9-1.3-1.9-2-2.8l-2.1-2.7c-0.7-0.9-1.5-1.7-2.2-2.6c-1.5-1.8-3.1-3.3-4.7-5c-3.3-3.1-6.8-6.2-10.6-8.7
			c-7.5-5.3-16-9-25-11c-4.5-0.9-9-1.5-13.6-1.4c-2.3-0.1-4.6,0.1-6.9,0.3c-1.1,0.1-2.3,0.1-3.4,0.3l-3.4,0.4
			c-1.1,0.2-2.3,0.3-3.4,0.5l-3.4,0.6c-2.3,0.4-4.5,1-6.7,1.6l-1.7,0.4l-1.6,0.5l-3.3,1.1c-1.1,0.4-2.1,0.9-3.2,1.3
			c-1.1,0.5-2.1,0.8-3.1,1.4l-3.1,1.6c-1,0.5-2,1.2-3,1.8l-1.5,0.9c-0.5,0.3-0.9,0.7-1.4,1c-0.9,0.7-1.9,1.3-2.8,2
			c-3.6,2.9-6.8,6.2-9.6,9.8c-5.6,7.3-9.1,16-10.7,25c-0.8,4.5-1.2,9.1-1,13.7c0.1,2.3,0.3,4.6,0.6,6.8l0.3,1.7l0.4,1.7
			c0.3,1.1,0.6,2.2,1.3,3.1L1996.8,83.9z"/>
	</g>
	<g>
		<path class="st0" d="M2009.8,47.4c1.3-2.4,2.9-4.6,4.8-6.6c0.9-1,1.9-1.9,2.9-2.9c1-0.9,2.1-1.8,3.2-2.6c4.4-3.3,9.3-5.9,14.5-7.7
			l1-0.4l1-0.3l2-0.6l2-0.6c0.7-0.2,1.3-0.3,2-0.4l4.1-0.8c1.4-0.2,2.7-0.3,4.1-0.5c2.7-0.4,5.5-0.4,8.2-0.5c1.4-0.1,2.8,0,4.2,0
			l1.1,0l1,0.1l2.1,0.2c1.4,0.2,2.8,0.5,4.1,0.7c1.4,0.3,2.7,0.7,4.1,1.1c2.7,0.9,5.3,1.9,7.8,3.1c5,2.4,9.7,5.5,14.1,9
			c8.6,7,15.9,15.7,20.9,25.8c1.2,2.5,2.2,5.2,3.2,7.8c0.8,2.7,1.5,5.5,1.9,8.3c0.2,1.4,0.3,2.9,0.4,4.3c0,0.7,0,1.5,0,2.2
			c0,0.7,0,1.5-0.1,2.2l-0.3,2.2l-0.5,2.2c-0.1,0.7-0.4,1.4-0.6,2.1c-0.3,0.7-0.4,1.4-0.8,2.1c-2.5,5.5-6.6,9.8-11.4,13
			c-4.8,3.2-10.3,5-15.8,6.1c-5.4,1.1-10.9,1.6-16.3,1.9c-5.4,0.3-10.8,0.5-16.1,0.8c-10.7,0.5-21.4,1.6-31.4,5.8l-0.1-0.3
			c4.9-2.4,10.1-4,15.3-5c5.3-1.1,10.7-1.6,16-2.1l16.1-1.2c5.4-0.5,10.7-1.1,16-2.3c5.2-1.2,10.4-3,14.8-6c4.4-3,8.2-7,10.4-11.9
			c0.3-0.6,0.5-1.2,0.7-1.9c0.2-0.6,0.5-1.3,0.6-1.9l0.4-2l0.2-2c0.1-0.7,0.1-1.3,0.1-2c0-0.7,0.1-1.3,0-2c-0.1-1.3-0.1-2.7-0.4-4
			c-0.3-2.7-1-5.2-1.8-7.8c-0.9-2.5-1.8-5-3.1-7.4c-4.7-9.6-11.7-18.1-19.9-25c-4.1-3.4-8.7-6.4-13.5-8.7c-4.8-2.4-9.9-4.1-15.2-5
			c-2.6-0.4-5.3-0.7-8-0.6c-2.7,0.1-5.4,0-8,0.3c-1.3,0.1-2.7,0.2-4,0.4l-4,0.7c-0.7,0.1-1.3,0.2-2,0.4l-1.9,0.5l-1.9,0.5l-1,0.3
			l-1,0.3c-5.1,1.6-10,4-14.4,7c-1.1,0.8-2.2,1.6-3.2,2.4c-1,0.9-2,1.7-3,2.7c-1.9,1.9-3.7,4-5,6.3L2009.8,47.4z"/>
	</g>
	<g>
		<path class="st0" d="M1997,83.8c-0.5-1.5-0.5-3.1-0.4-4.6c0.2-1.5,0.6-3.1,1-4.5c0.9-3,2.3-5.8,3.8-8.5
			c3.1-5.4,7.1-10.3,11.7-14.5c2.3-2.1,4.8-4.1,7.5-5.7c2.7-1.6,5.6-3.2,8.6-4.2c0.7-0.3,1.5-0.5,2.3-0.7c0.8-0.2,1.6-0.5,2.4-0.6
			l2.4-0.4l2.5-0.2c0.8-0.1,1.6,0,2.5,0c0.8,0,1.6,0,2.5,0.1c0.8,0.1,1.6,0.2,2.5,0.3l2.4,0.5c6.4,1.6,12,5.3,16.7,9.4
			c2.3,2.2,4.5,4.5,6.4,7.2c1.9,2.6,3.3,5.6,4.4,8.7c1,3.1,1.6,6.3,1.5,9.5c0,3.2-0.5,6.4-1.4,9.4c-0.9,3-2.1,5.9-3.7,8.6
			c-1.5,2.7-3.3,5.2-5.4,7.5l-0.2-0.2c1.8-2.4,3.4-5,4.7-7.7c1.3-2.7,2.3-5.6,3-8.5c1.4-5.8,1.2-12.1-0.8-17.8
			c-1-2.8-2.5-5.5-4.3-7.9c-1.8-2.4-3.9-4.6-6.1-6.6c-4.5-3.9-9.8-7.2-15.6-8.6l-2.2-0.5c-0.7-0.1-1.5-0.2-2.2-0.3
			c-0.7-0.1-1.5-0.1-2.2-0.1c-0.7,0-1.5-0.1-2.2,0l-2.2,0.2l-2.2,0.4c-0.7,0.1-1.5,0.3-2.2,0.5c-0.7,0.2-1.5,0.4-2.2,0.6
			c-5.7,1.9-10.9,5.1-15.5,9c-2.3,1.9-4.4,4.1-6.4,6.3c-2,2.3-3.8,4.7-5.5,7.2c-1.6,2.5-3.1,5.2-4.2,8c-0.6,1.4-1,2.8-1.3,4.3
			c-0.2,1.5-0.4,3,0,4.4L1997,83.8z"/>
	</g>
	<g>
		<path class="st0" d="M1983.1,121.6c1.8-0.3,3.6-0.6,5.4-0.9c1.8-0.3,3.6-0.6,5.4-0.9c3.6-0.7,7.1-1.4,10.7-2.2
			c7.1-1.5,14.1-3.2,20.9-5.4c1.7-0.6,3.4-1.2,5-1.8c1.7-0.6,3.3-1.3,4.9-2c3.2-1.5,6.2-3.2,8.6-5.3c0.3-0.3,0.6-0.5,0.9-0.8
			c0.3-0.3,0.5-0.5,0.8-0.8l1.6-2c0.3-0.3,0.5-0.7,0.8-1l0.7-1c0.2-0.4,0.5-0.7,0.7-1.1l0.6-1.1c1.6-2.9,2.5-6,2.5-9.2
			c0.1-0.8-0.1-1.6-0.1-2.4c-0.1-0.8-0.3-1.6-0.4-2.4c-0.2-0.8-0.4-1.6-0.7-2.3c-0.3-0.8-0.5-1.6-0.9-2.3c-1.4-3.1-3.3-6-5.4-8.8
			c-0.3-0.4-0.5-0.7-0.7-1c-0.2-0.3-0.4-0.6-0.7-0.8l-0.8-0.8l-0.9-0.7c-1.3-0.9-2.7-1.7-4.2-2.2c-3.1-1.1-6.5-1.7-9.9-1.8
			c-6.8-0.1-13.9,1.8-19.6,5.7c-2.8,2-5.4,4.4-7.2,7.4c-0.4,0.8-0.9,1.5-1.2,2.3c-0.2,0.4-0.4,0.8-0.5,1.2l-0.4,1.3
			c-0.4,0.8-0.5,1.7-0.8,2.6c-0.2,0.9-0.3,1.8-0.5,2.7l-0.3,0c0.2-3.6,1.2-7.3,2.9-10.5c1.7-3.2,4.3-6,7.2-8.2
			c5.9-4.4,13.2-6.6,20.5-6.8c3.7-0.1,7.3,0.4,10.8,1.6c1.7,0.6,3.4,1.4,4.9,2.5c1.5,1,2.8,2.4,3.9,3.9c2.2,2.9,4.2,6,5.8,9.3
			c0.4,0.8,0.7,1.7,1,2.5c0.3,0.9,0.5,1.8,0.8,2.6c0.2,0.9,0.4,1.8,0.5,2.7c0.1,0.9,0.2,1.8,0.1,2.8c0,3.7-1.2,7.3-2.9,10.5
			l-0.7,1.2c-0.2,0.4-0.5,0.8-0.8,1.1c-0.5,0.7-1,1.6-1.6,2.2l-1.7,2.1c-0.3,0.3-0.6,0.7-1,1c-0.3,0.3-0.7,0.6-1,0.9
			c-2.8,2.4-6.1,4.1-9.4,5.6c-3.3,1.5-6.8,2.6-10.3,3.7c-7,2.1-14.1,3.6-21.3,4.8c-7.2,1.2-14.4,2.1-21.6,2.7L1983.1,121.6z"/>
	</g>
</g>
<g>
	<g>
		<path class="st0" d="M2161.9,83.9c-0.7-1-1-2.1-1.4-3.2L2160,79l-0.4-1.7c-0.4-2.3-0.7-4.6-0.8-6.9c-0.3-4.6,0-9.3,0.8-13.9
			c1.5-9.2,4.8-18.2,10.4-25.8c2.8-3.8,6.1-7.2,9.7-10.2c0.9-0.7,1.9-1.4,2.8-2.1c0.5-0.3,0.9-0.7,1.4-1l1.5-0.9c1-0.6,2-1.3,3-1.8
			l3.1-1.6c1-0.6,2.1-1,3.2-1.5c1.1-0.5,2.2-1,3.3-1.4l3.3-1.2l1.7-0.6l1.7-0.5c2.3-0.6,4.5-1.3,6.8-1.7l3.4-0.7
			c1.1-0.2,2.3-0.3,3.5-0.5l3.5-0.5c1.2-0.1,2.3-0.2,3.5-0.3c2.3-0.2,4.6-0.4,7-0.4c4.8-0.1,9.5,0.5,14.2,1.4
			c9.3,2,18.2,5.8,26,11.3c4,2.6,7.6,5.7,11,8.9c1.6,1.7,3.4,3.3,4.9,5.1c0.8,0.9,1.6,1.8,2.3,2.7l2.2,2.8c0.7,0.9,1.4,1.9,2.1,2.9
			c0.7,1,1.4,1.9,2,2.9c1.2,2,2.5,4,3.6,6.1c2.3,4.1,4.2,8.5,5.8,12.9c0.7,2.3,1.5,4.5,2.1,6.8c0.3,1.2,0.6,2.3,0.8,3.5l0.7,3.5
			c0.7,4.7,1.3,9.4,1.1,14.2l0,1.8l-0.1,1.8c-0.1,1.2-0.2,2.4-0.3,3.6c-0.4,2.4-0.7,4.7-1.3,7.1c-0.5,2.4-1.4,4.6-2.1,6.9
			c-1,2.2-1.8,4.5-3,6.5l-0.9,1.6l-0.4,0.8c-0.2,0.3-0.3,0.5-0.5,0.8l-2,3c-1.4,1.9-2.9,3.8-4.4,5.6c-3.1,3.6-6.6,7-10.7,9.6
			c-2,1.4-4.2,2.5-6.5,3.4c-2.3,0.9-4.6,1.6-7,2c-4.8,0.8-9.6,0.8-14.2,0.6c-4.7-0.3-9.3-0.8-13.8-1.3l-13.7-1.6
			c-4.5-0.5-9.1-1-13.6-1.3c-4.5-0.3-9-0.3-13.5,0.1c-4.5,0.4-9,1.1-13.3,2.3c-4.4,1.2-8.6,2.8-12.8,4.6c-4.2,1.8-8.2,4-12.4,6
			c-2.1,1-4.3,1.8-6.6,2.4c-2.3,0.5-4.7,0.5-6.9-0.4l0.1-0.3c2.1,0.8,4.5,0.7,6.7,0.2c2.2-0.6,4.3-1.5,6.4-2.5
			c4.1-2,8.1-4.3,12.3-6.3c4.2-2,8.4-3.7,12.9-5c4.4-1.3,9-2.2,13.5-2.6c9.2-1,18.4,0,27.5,0.9l13.7,1.4c4.6,0.5,9.1,0.9,13.7,1.1
			c4.6,0.2,9.2,0.1,13.7-0.7c4.5-0.8,8.8-2.5,12.6-5.1c3.8-2.5,7.1-5.8,10.1-9.2c2.9-3.5,5.7-7.2,7.8-11.2c1.2-2,1.9-4.1,2.9-6.2
			c0.7-2.2,1.5-4.3,2-6.6c0.6-2.2,0.9-4.5,1.2-6.7c0.1-1.1,0.2-2.3,0.3-3.4l0.1-1.7l0-1.7c0.1-4.6-0.4-9.1-1.1-13.7l-0.7-3.4
			c-0.2-1.1-0.6-2.2-0.8-3.3c-0.5-2.2-1.3-4.4-2-6.6c-1.6-4.3-3.3-8.5-5.6-12.5c-1-2.1-2.3-4-3.5-5.9c-0.6-1-1.3-1.9-1.9-2.8
			c-0.6-0.9-1.3-1.9-2-2.8l-2.1-2.7c-0.7-0.9-1.5-1.7-2.2-2.6c-1.5-1.8-3.1-3.3-4.7-5c-3.3-3.1-6.8-6.2-10.6-8.7
			c-7.5-5.3-16-9-25-11c-4.5-0.9-9-1.5-13.6-1.4c-2.3-0.1-4.6,0.1-6.9,0.3c-1.1,0.1-2.3,0.1-3.4,0.3l-3.4,0.4
			c-1.1,0.2-2.3,0.3-3.4,0.5l-3.4,0.6c-2.3,0.4-4.5,1-6.7,1.6l-1.7,0.4l-1.6,0.5l-3.3,1.1c-1.1,0.4-2.1,0.9-3.2,1.3
			c-1.1,0.5-2.1,0.8-3.1,1.4l-3.1,1.6c-1,0.5-2,1.2-3,1.8l-1.5,0.9c-0.5,0.3-0.9,0.7-1.4,1c-0.9,0.7-1.9,1.3-2.8,2
			c-3.6,2.9-6.8,6.2-9.6,9.8c-5.6,7.3-9.1,16-10.7,25c-0.8,4.5-1.2,9.1-1,13.7c0.1,2.3,0.3,4.6,0.6,6.8l0.3,1.7l0.4,1.7
			c0.3,1.1,0.6,2.2,1.3,3.1L2161.9,83.9z"/>
	</g>
	<g>
		<path class="st0" d="M2174.9,47.4c1.3-2.4,2.9-4.6,4.8-6.6c0.9-1,1.9-1.9,2.9-2.9c1-0.9,2.1-1.8,3.2-2.6c4.4-3.3,9.3-5.9,14.5-7.7
			l1-0.4l1-0.3l2-0.6l2-0.6c0.7-0.2,1.3-0.3,2-0.4l4.1-0.8c1.4-0.2,2.7-0.3,4.1-0.5c2.7-0.4,5.5-0.4,8.2-0.5c1.4-0.1,2.8,0,4.2,0
			l1.1,0l1,0.1l2.1,0.2c1.4,0.2,2.8,0.5,4.1,0.7c1.4,0.3,2.7,0.7,4.1,1.1c2.7,0.9,5.3,1.9,7.8,3.1c5,2.4,9.7,5.5,14.1,9
			c8.6,7,15.9,15.7,20.9,25.8c1.2,2.5,2.2,5.2,3.2,7.8c0.8,2.7,1.5,5.5,1.9,8.3c0.2,1.4,0.3,2.9,0.4,4.3c0,0.7,0,1.5,0,2.2
			c0,0.7,0,1.5-0.1,2.2l-0.3,2.2l-0.5,2.2c-0.1,0.7-0.4,1.4-0.6,2.1c-0.3,0.7-0.4,1.4-0.8,2.1c-2.5,5.5-6.6,9.8-11.4,13
			c-4.8,3.2-10.3,5-15.8,6.1c-5.4,1.1-10.9,1.6-16.3,1.9c-5.4,0.3-10.8,0.5-16.1,0.8c-10.7,0.5-21.4,1.6-31.4,5.8l-0.1-0.3
			c4.9-2.4,10.1-4,15.3-5c5.3-1.1,10.7-1.6,16-2.1l16.1-1.2c5.4-0.5,10.7-1.1,16-2.3c5.2-1.2,10.4-3,14.8-6c4.4-3,8.2-7,10.4-11.9
			c0.3-0.6,0.5-1.2,0.7-1.9c0.2-0.6,0.5-1.3,0.6-1.9l0.4-2l0.2-2c0.1-0.7,0.1-1.3,0.1-2c0-0.7,0.1-1.3,0-2c-0.1-1.3-0.1-2.7-0.4-4
			c-0.3-2.7-1-5.2-1.8-7.8c-0.9-2.5-1.8-5-3.1-7.4c-4.7-9.6-11.7-18.1-19.9-25c-4.1-3.4-8.7-6.4-13.5-8.7c-4.8-2.4-9.9-4.1-15.2-5
			c-2.6-0.4-5.3-0.7-8-0.6c-2.7,0.1-5.4,0-8,0.3c-1.3,0.1-2.7,0.2-4,0.4l-4,0.7c-0.7,0.1-1.3,0.2-2,0.4l-1.9,0.5l-1.9,0.5l-1,0.3
			l-1,0.3c-5.1,1.6-10,4-14.4,7c-1.1,0.8-2.2,1.6-3.2,2.4c-1,0.9-2,1.7-3,2.7c-1.9,1.9-3.7,4-5,6.3L2174.9,47.4z"/>
	</g>
	<g>
		<path class="st0" d="M2162.1,83.8c-0.5-1.5-0.5-3.1-0.4-4.6c0.2-1.5,0.6-3.1,1-4.5c0.9-3,2.3-5.8,3.8-8.5
			c3.1-5.4,7.1-10.3,11.7-14.5c2.3-2.1,4.8-4.1,7.5-5.7c2.7-1.6,5.6-3.2,8.6-4.2c0.7-0.3,1.5-0.5,2.3-0.7c0.8-0.2,1.6-0.5,2.4-0.6
			l2.4-0.4l2.5-0.2c0.8-0.1,1.6,0,2.5,0c0.8,0,1.6,0,2.5,0.1c0.8,0.1,1.6,0.2,2.5,0.3l2.4,0.5c6.4,1.6,12,5.3,16.7,9.4
			c2.3,2.2,4.5,4.5,6.4,7.2c1.9,2.6,3.3,5.6,4.4,8.7c1,3.1,1.6,6.3,1.5,9.5c0,3.2-0.5,6.4-1.4,9.4c-0.9,3-2.1,5.9-3.7,8.6
			c-1.5,2.7-3.3,5.2-5.4,7.5l-0.2-0.2c1.8-2.4,3.4-5,4.7-7.7c1.3-2.7,2.3-5.6,3-8.5c1.4-5.8,1.2-12.1-0.8-17.8
			c-1-2.8-2.5-5.5-4.3-7.9c-1.8-2.4-3.9-4.6-6.1-6.6c-4.5-3.9-9.8-7.2-15.6-8.6l-2.2-0.5c-0.7-0.1-1.5-0.2-2.2-0.3
			c-0.7-0.1-1.5-0.1-2.2-0.1c-0.7,0-1.5-0.1-2.2,0l-2.2,0.2l-2.2,0.4c-0.7,0.1-1.5,0.3-2.2,0.5c-0.7,0.2-1.5,0.4-2.2,0.6
			c-5.7,1.9-10.9,5.1-15.5,9c-2.3,1.9-4.4,4.1-6.4,6.3c-2,2.3-3.8,4.7-5.5,7.2c-1.6,2.5-3.1,5.2-4.2,8c-0.6,1.4-1,2.8-1.3,4.3
			c-0.2,1.5-0.4,3,0,4.4L2162.1,83.8z"/>
	</g>
	<g>
		<path class="st0" d="M2148.2,121.6c1.8-0.3,3.6-0.6,5.4-0.9c1.8-0.3,3.6-0.6,5.4-0.9c3.6-0.7,7.1-1.4,10.7-2.2
			c7.1-1.5,14.1-3.2,20.9-5.4c1.7-0.6,3.4-1.2,5-1.8c1.7-0.6,3.3-1.3,4.9-2c3.2-1.5,6.2-3.2,8.6-5.3c0.3-0.3,0.6-0.5,0.9-0.8
			c0.3-0.3,0.5-0.5,0.8-0.8l1.6-2c0.3-0.3,0.5-0.7,0.8-1l0.7-1c0.2-0.4,0.5-0.7,0.7-1.1l0.6-1.1c1.6-2.9,2.5-6,2.5-9.2
			c0.1-0.8-0.1-1.6-0.1-2.4c-0.1-0.8-0.3-1.6-0.4-2.4c-0.2-0.8-0.4-1.6-0.7-2.3c-0.3-0.8-0.5-1.6-0.9-2.3c-1.4-3.1-3.3-6-5.4-8.8
			c-0.3-0.4-0.5-0.7-0.7-1c-0.2-0.3-0.4-0.6-0.7-0.8l-0.8-0.8l-0.9-0.7c-1.3-0.9-2.7-1.7-4.2-2.2c-3.1-1.1-6.5-1.7-9.9-1.8
			c-6.8-0.1-13.9,1.8-19.6,5.7c-2.8,2-5.4,4.4-7.2,7.4c-0.4,0.8-0.9,1.5-1.2,2.3c-0.2,0.4-0.4,0.8-0.5,1.2l-0.4,1.3
			c-0.4,0.8-0.5,1.7-0.8,2.6c-0.2,0.9-0.3,1.8-0.5,2.7l-0.3,0c0.2-3.6,1.2-7.3,2.9-10.5c1.7-3.2,4.3-6,7.2-8.2
			c5.9-4.4,13.2-6.6,20.5-6.8c3.7-0.1,7.3,0.4,10.8,1.6c1.7,0.6,3.4,1.4,4.9,2.5c1.5,1,2.8,2.4,3.9,3.9c2.2,2.9,4.2,6,5.8,9.3
			c0.4,0.8,0.7,1.7,1,2.5c0.3,0.9,0.5,1.8,0.8,2.6c0.2,0.9,0.4,1.8,0.5,2.7c0.1,0.9,0.2,1.8,0.1,2.8c0,3.7-1.2,7.3-2.9,10.5
			l-0.7,1.2c-0.2,0.4-0.5,0.8-0.8,1.1c-0.5,0.7-1,1.6-1.6,2.2l-1.7,2.1c-0.3,0.3-0.6,0.7-1,1c-0.3,0.3-0.7,0.6-1,0.9
			c-2.8,2.4-6.1,4.1-9.4,5.6c-3.3,1.5-6.8,2.6-10.3,3.7c-7,2.1-14.1,3.6-21.3,4.8c-7.2,1.2-14.4,2.1-21.6,2.7L2148.2,121.6z"/>
	</g>
</g>
<g>
	<defs>
		<rect id="SVGID_1_" x="-0.4" y="-2.6" width="1547.4" height="197.6"/>
	</defs>
	<clipPath id="SVGID_2_">
		<use xlink:href="#SVGID_1_"  style="overflow:visible;"/>
	</clipPath>
	<polygon class="st1" points="1669.7,128.6 -2.9,122.6 -1.6,-163.2 1670.6,-157.3 	"/>
	<rect x="-4.9" y="123.8" class="st2" width="1795.5" height="227"/>
	<g class="st3">
		<defs>
			
				<rect id="SVGID_3_" x="522.7" y="-584.5" transform="matrix(3.120645e-03 -1 1 3.120645e-03 578.8365 729.8554)" width="265.6" height="1318.3"/>
		</defs>
		<clipPath id="SVGID_4_">
			<use xlink:href="#SVGID_3_"  style="overflow:visible;"/>
		</clipPath>
		<path class="st4" d="M-21.2,123.6c0,0,100.6,0.4,90.5-42.3c-10.6-44.9-61-18.1-59,2.3c0,0-17.8-50,37.9-73.6
			c74.8-31.7,151.4,58.1,94.9,123C78.9,206.6-21.2,123.6-21.2,123.6z"/>
		<path class="st4" d="M150.9,124.4c0,0,100.6,0.4,90.5-42.3c-10.6-44.9-61-18.1-59,2.3c0,0-17.8-50,37.9-73.6
			c74.8-31.7,151.4,58.1,94.9,123C251,207.4,150.9,124.4,150.9,124.4z"/>
		<path class="st4" d="M321.6,124.4c0,0,100.6,0.4,90.5-42.3c-10.6-44.9-61-18.1-59,2.3c0,0-17.8-50,37.9-73.6
			c74.8-31.7,151.4,58.1,94.9,123C421.7,207.4,321.6,124.4,321.6,124.4z"/>
		<path class="st4" d="M493.3,124.4c0,0,100.6,0.4,90.5-42.3c-10.6-44.9-61-18.1-59,2.3c0,0-17.8-50,37.9-73.6
			c74.8-31.7,151.4,58.1,94.9,123C593.4,207.4,493.3,124.4,493.3,124.4z"/>
		<path class="st4" d="M664,124.4c0,0,100.6,0.4,90.5-42.3c-10.6-44.9-61-18.1-59,2.3c0,0-17.8-50,37.9-73.6
			c74.8-31.7,151.4,58.1,94.9,123C764.2,207.4,664,124.4,664,124.4z"/>
		<path class="st4" d="M833.9,124.4c0,0,100.6,0.4,90.5-42.3c-10.6-44.9-61-18.1-59,2.3c0,0-17.8-50,37.9-73.6
			c74.8-31.7,151.4,58.1,94.9,123C934,207.4,833.9,124.4,833.9,124.4z"/>
		<path class="st4" d="M1003.8,126c0,0,100.6,0.4,90.5-42.3c-10.6-44.9-61-18.1-59,2.3c0,0-17.8-50,37.9-73.6
			c74.8-31.7,151.4,58.1,94.9,123C1103.9,209,1003.8,126,1003.8,126z"/>
	</g>
	<g class="st3">
		<g>
			<path class="st0" d="M11.3,83.6c-0.8-1-1.1-2.2-1.5-3.3l-0.5-1.7L9,76.8c-0.4-2.3-0.7-4.7-0.8-7.1c-0.3-4.8,0-9.6,0.8-14.3
				c1.5-9.4,5-18.8,10.8-26.6c2.9-3.9,6.3-7.5,10-10.6c0.9-0.8,1.9-1.5,2.9-2.2c0.5-0.4,1-0.7,1.5-1.1l1.5-1c1-0.6,2-1.3,3.1-1.9
				l3.2-1.7c1.1-0.6,2.2-1,3.3-1.5c1.1-0.5,2.2-1,3.4-1.4L52,6.2l1.7-0.6l1.7-0.5c2.3-0.6,4.7-1.3,7-1.7l3.6-0.7
				c1.2-0.2,2.4-0.4,3.6-0.5l3.6-0.5c1.2-0.2,2.4-0.2,3.6-0.3L80.5,1L81.4,1l0.9,0l1.8,0c4.9-0.2,9.8,0.5,14.6,1.4
				c9.6,2.1,18.8,6,26.8,11.6c4.1,2.7,7.8,5.9,11.4,9.2c1.7,1.7,3.5,3.4,5,5.3c0.8,0.9,1.6,1.8,2.4,2.8l2.2,2.9c0.8,0.9,1.5,2,2.1,3
				c0.7,1,1.4,2,2.1,3c1.3,2.1,2.6,4.1,3.7,6.3c2.4,4.3,4.3,8.8,6,13.3c0.7,2.3,1.6,4.6,2.1,7c0.3,1.2,0.7,2.4,0.9,3.6l0.7,3.6
				c0.8,4.8,1.3,9.7,1.1,14.7l0,1.8l-0.1,1.8c-0.1,1.2-0.2,2.5-0.3,3.7c-0.4,2.4-0.7,4.9-1.4,7.3c-0.5,2.4-1.4,4.7-2.2,7.1
				c-1,2.3-1.9,4.6-3.1,6.7l-0.9,1.6l-0.4,0.8c-0.2,0.3-0.3,0.5-0.5,0.8l-2.1,3.1c-1.4,2-2.9,3.9-4.5,5.7c-3.2,3.7-6.8,7.2-11,9.9
				c-2.1,1.4-4.4,2.6-6.7,3.5c-2.4,0.9-4.8,1.7-7.3,2.1c-4.9,0.9-9.9,0.9-14.7,0.6c-4.8-0.3-9.6-0.8-14.3-1.4l-14.1-1.7
				c-4.7-0.5-9.4-1-14.1-1.3c-4.6-0.3-9.3-0.3-13.9,0.1c-4.6,0.4-9.2,1.2-13.8,2.4c-4.5,1.2-8.9,2.8-13.2,4.8
				c-4.3,1.9-8.5,4.2-12.8,6.2c-2.2,1-4.4,1.9-6.8,2.4c-1.2,0.3-2.4,0.4-3.6,0.4c-1.2,0-2.4-0.3-3.5-0.7l0.1-0.3
				c2.2,0.8,4.6,0.8,6.9,0.2c2.3-0.6,4.4-1.5,6.6-2.6c4.2-2.1,8.4-4.4,12.7-6.5c4.3-2,8.7-3.8,13.3-5.1c4.6-1.3,9.2-2.2,14-2.7
				c9.5-1.1,19,0,28.4,0.9l14.1,1.5c4.7,0.5,9.4,1,14.1,1.2c4.7,0.2,9.5,0.1,14.1-0.8c4.6-0.9,9.1-2.6,13-5.3
				c3.9-2.6,7.3-5.9,10.4-9.5c3-3.6,5.9-7.4,8.1-11.6c1.2-2,2-4.3,3-6.4c0.7-2.2,1.6-4.5,2-6.8c0.6-2.3,0.9-4.6,1.3-6.9
				c0.2-1.2,0.2-2.3,0.3-3.5l0.1-1.8l0-1.8c0.1-4.7-0.4-9.4-1.2-14.1l-0.7-3.5c-0.2-1.2-0.6-2.3-0.9-3.4c-0.5-2.3-1.4-4.5-2.1-6.8
				c-1.6-4.4-3.5-8.8-5.8-12.9c-1.1-2.1-2.4-4.1-3.6-6.1c-0.6-1-1.3-2-2-2.9c-0.7-1-1.3-2-2.1-2.9l-2.2-2.8
				c-0.7-0.9-1.5-1.8-2.3-2.7c-1.5-1.8-3.2-3.4-4.9-5.2c-3.4-3.2-7-6.4-10.9-9C116.2,10.8,107.4,7,98.2,5c-4.6-0.9-9.3-1.5-14.1-1.4
				c-2.4-0.1-4.7,0.1-7.1,0.3c-1.2,0.1-2.4,0.1-3.5,0.3L70,4.5c-1.2,0.2-2.3,0.3-3.5,0.5L63,5.7c-2.3,0.4-4.6,1-6.9,1.6l-1.7,0.4
				l-1.7,0.6l-3.4,1.1c-1.1,0.4-2.2,0.9-3.3,1.3c-1.1,0.5-2.2,0.9-3.2,1.4l-3.2,1.6c-1.1,0.5-2,1.2-3,1.8l-1.5,0.9
				c-0.5,0.3-1,0.7-1.4,1c-0.9,0.7-1.9,1.4-2.9,2.1c-3.7,3-7,6.4-9.9,10.1c-5.8,7.5-9.4,16.5-11.1,25.8c-0.8,4.6-1.2,9.4-1.1,14.1
				c0.1,2.4,0.3,4.7,0.6,7.1l0.3,1.7l0.4,1.7c0.4,1.1,0.6,2.3,1.3,3.2L11.3,83.6z"/>
		</g>
		<g>
			<path class="st0" d="M24.7,45.9c1.3-2.5,3-4.7,4.9-6.8c0.9-1.1,2-2,3-3c1.1-0.9,2.2-1.8,3.3-2.7c4.5-3.4,9.6-6.1,15-8l1-0.4
				l1-0.3l2-0.6l2.1-0.6c0.7-0.2,1.4-0.3,2.1-0.4l4.2-0.8c1.4-0.2,2.8-0.3,4.2-0.5c2.8-0.4,5.7-0.4,8.5-0.5c1.4-0.1,2.9,0,4.3,0
				l1.1,0l1.1,0.1l2.2,0.3c1.4,0.2,2.8,0.5,4.3,0.8c1.4,0.4,2.8,0.7,4.2,1.1c2.7,0.9,5.4,2,8,3.2c5.2,2.5,10,5.6,14.5,9.2
				c8.9,7.2,16.4,16.2,21.6,26.6c1.3,2.6,2.3,5.3,3.3,8.1c0.8,2.8,1.6,5.6,1.9,8.6c0.2,1.5,0.3,3,0.4,4.4c0,0.7,0,1.5,0,2.2
				c0,0.7,0,1.5-0.2,2.2l-0.3,2.2l-0.5,2.2c-0.1,0.7-0.4,1.5-0.7,2.2c-0.3,0.7-0.5,1.5-0.8,2.1c-2.6,5.7-6.8,10.1-11.8,13.4
				c-5,3.3-10.7,5.1-16.2,6.3c-5.6,1.1-11.2,1.6-16.8,2c-5.6,0.3-11.1,0.5-16.7,0.9c-11,0.5-22.1,1.6-32.4,6l-0.1-0.3
				c5-2.5,10.4-4.1,15.8-5.2c5.5-1.1,11-1.7,16.5-2.2l16.6-1.2c5.5-0.5,11.1-1.1,16.5-2.3c5.4-1.2,10.7-3.1,15.3-6.1
				c4.6-3,8.5-7.3,10.7-12.3c0.3-0.6,0.5-1.3,0.7-1.9c0.2-0.7,0.5-1.3,0.6-2l0.4-2l0.2-2c0.1-0.7,0.1-1.4,0.1-2.1
				c0-0.7,0.1-1.4,0-2.1c-0.1-1.4-0.1-2.8-0.4-4.1c-0.3-2.7-1.1-5.4-1.9-8.1c-0.9-2.6-1.9-5.2-3.2-7.7c-4.9-9.9-12-18.7-20.6-25.7
				c-4.3-3.5-8.9-6.6-13.9-9c-5-2.4-10.2-4.3-15.7-5.1c-2.7-0.4-5.5-0.7-8.3-0.6c-2.8,0.1-5.5,0-8.3,0.3c-1.4,0.1-2.8,0.2-4.1,0.4
				L59.4,25c-0.7,0.1-1.4,0.2-2,0.4l-2,0.5l-2,0.5l-1,0.3l-1,0.3c-5.3,1.6-10.3,4.1-14.9,7.2c-1.1,0.8-2.2,1.7-3.3,2.5
				c-1,0.9-2.1,1.8-3.1,2.8c-2,1.9-3.8,4.1-5.2,6.4L24.7,45.9z"/>
		</g>
		<g>
			<path class="st0" d="M11.5,83.4c-0.6-1.5-0.5-3.2-0.4-4.8c0.2-1.6,0.6-3.2,1.1-4.7c1-3.1,2.4-5.9,3.9-8.7
				c3.2-5.5,7.3-10.6,12.1-14.9c2.4-2.2,5-4.2,7.8-5.9c2.8-1.7,5.7-3.2,8.9-4.3c0.8-0.3,1.6-0.5,2.4-0.7c0.8-0.2,1.6-0.5,2.4-0.6
				l2.5-0.4l2.5-0.2c0.8-0.1,1.7,0,2.5,0c0.8,0,1.7,0,2.5,0.1c0.8,0.1,1.7,0.2,2.5,0.3l2.5,0.5c6.6,1.7,12.4,5.4,17.3,9.7
				c2.4,2.3,4.6,4.7,6.6,7.4c1.9,2.7,3.5,5.7,4.5,8.9c1,3.2,1.6,6.5,1.6,9.8c0,3.3-0.5,6.6-1.4,9.7c-0.9,3.1-2.2,6.1-3.8,8.8
				c-1.6,2.8-3.4,5.4-5.6,7.7l-0.2-0.2c1.9-2.4,3.5-5.1,4.8-7.9c1.4-2.8,2.4-5.7,3.1-8.8c1.5-6,1.3-12.5-0.9-18.3
				c-1.1-2.9-2.6-5.6-4.4-8.2c-1.9-2.5-4-4.7-6.3-6.8c-4.7-4-10.1-7.5-16.1-8.9l-2.3-0.5c-0.8-0.1-1.5-0.2-2.3-0.3
				c-0.8-0.1-1.5-0.1-2.3-0.1c-0.8,0-1.5-0.1-2.3,0l-2.3,0.2l-2.3,0.4c-0.8,0.1-1.5,0.3-2.3,0.5c-0.7,0.2-1.5,0.4-2.2,0.7
				c-5.9,2-11.3,5.3-16,9.3c-2.4,2-4.6,4.2-6.6,6.5c-2.1,2.3-4,4.8-5.6,7.4c-1.7,2.6-3.2,5.3-4.3,8.2c-0.6,1.4-1,2.9-1.4,4.4
				c-0.3,1.5-0.4,3.1,0,4.6L11.5,83.4z"/>
		</g>
		<g>
			<path class="st0" d="M-2.9,122.5c1.9-0.3,3.7-0.6,5.6-0.9c1.8-0.3,3.7-0.6,5.5-1c3.7-0.7,7.4-1.4,11-2.2
				c7.3-1.5,14.6-3.3,21.6-5.6c1.7-0.6,3.5-1.2,5.2-1.9c1.7-0.7,3.4-1.3,5-2.1c3.3-1.5,6.4-3.3,8.9-5.5c0.3-0.3,0.6-0.5,0.9-0.8
				c0.3-0.3,0.6-0.6,0.8-0.9l1.7-2.1l0.4-0.5l0.4-0.5l0.7-1.1c0.2-0.4,0.5-0.7,0.7-1.1l0.6-1.1c1.6-3,2.5-6.2,2.6-9.5
				c0.1-0.8-0.1-1.6-0.1-2.4c-0.1-0.8-0.3-1.6-0.4-2.4c-0.2-0.8-0.4-1.6-0.7-2.4c-0.3-0.8-0.6-1.6-1-2.4c-1.4-3.2-3.4-6.2-5.5-9.1
				c-0.3-0.4-0.5-0.8-0.8-1c-0.3-0.3-0.5-0.6-0.8-0.9l-0.8-0.8l-0.9-0.7c-1.3-0.9-2.8-1.7-4.4-2.3C50,60,46.5,59.4,43,59.3
				c-7.1-0.1-14.3,1.8-20.2,5.9c-2.9,2-5.6,4.6-7.5,7.7c-0.4,0.8-0.9,1.6-1.3,2.4c-0.2,0.4-0.4,0.8-0.6,1.3L13,77.8
				c-0.4,0.9-0.5,1.8-0.8,2.7c-0.2,0.9-0.3,1.8-0.5,2.7l-0.3,0c0.2-3.8,1.2-7.5,3-10.8c1.8-3.3,4.4-6.2,7.4-8.5
				c6.1-4.5,13.6-6.8,21.2-7c3.8-0.1,7.6,0.4,11.2,1.7c1.8,0.6,3.5,1.5,5.1,2.6c1.6,1,2.9,2.5,4,4c2.3,3,4.3,6.2,5.9,9.6
				c0.4,0.8,0.7,1.8,1.1,2.6c0.3,0.9,0.6,1.8,0.8,2.7c0.2,0.9,0.4,1.9,0.5,2.8c0.1,0.9,0.2,1.9,0.1,2.8c0,3.8-1.2,7.6-3,10.9
				L68,97.8c-0.2,0.4-0.5,0.8-0.8,1.2l-0.8,1.2l-0.4,0.6l-0.4,0.5l-1.8,2.2c-0.3,0.4-0.7,0.7-1,1c-0.3,0.3-0.7,0.7-1.1,1
				c-2.9,2.5-6.3,4.3-9.7,5.8c-3.5,1.5-7,2.7-10.6,3.8c-7.2,2.1-14.6,3.7-22,4.9c-7.4,1.2-14.9,2.2-22.3,2.8L-2.9,122.5z"/>
		</g>
	</g>
	<g class="st3">
		<g>
			<path class="st0" d="M183.5,83.6c-0.8-1-1.1-2.2-1.5-3.3l-0.5-1.7l-0.4-1.8c-0.4-2.3-0.7-4.7-0.8-7.1c-0.3-4.8,0-9.6,0.8-14.3
				c1.5-9.4,5-18.8,10.8-26.6c2.9-3.9,6.3-7.5,10-10.6c0.9-0.8,1.9-1.5,2.9-2.2c0.5-0.4,1-0.7,1.5-1.1l1.5-1c1-0.6,2-1.3,3.1-1.9
				l3.2-1.7c1.1-0.6,2.2-1,3.3-1.5c1.1-0.5,2.2-1,3.4-1.4l3.4-1.2l1.7-0.6l1.7-0.5c2.3-0.6,4.7-1.3,7-1.7l3.6-0.7
				c1.2-0.2,2.4-0.4,3.6-0.5l3.6-0.5c1.2-0.2,2.4-0.2,3.6-0.3l3.6-0.3l0.9-0.1l0.9,0l1.8,0c4.9-0.2,9.8,0.5,14.6,1.4
				c9.6,2.1,18.8,6,26.8,11.6c4.1,2.7,7.8,5.9,11.4,9.2c1.7,1.7,3.5,3.4,5,5.3c0.8,0.9,1.6,1.8,2.4,2.8l2.2,2.9c0.8,0.9,1.5,2,2.1,3
				c0.7,1,1.4,2,2.1,3c1.3,2.1,2.6,4.1,3.7,6.3c2.4,4.3,4.3,8.8,6,13.3c0.7,2.3,1.6,4.6,2.1,7c0.3,1.2,0.7,2.4,0.9,3.6l0.7,3.6
				c0.8,4.8,1.3,9.7,1.1,14.7l0,1.8l-0.1,1.8c-0.1,1.2-0.2,2.5-0.3,3.7c-0.4,2.4-0.7,4.9-1.4,7.3c-0.5,2.4-1.4,4.7-2.2,7.1
				c-1,2.3-1.9,4.6-3.1,6.7l-0.9,1.6l-0.4,0.8c-0.2,0.3-0.3,0.5-0.5,0.8l-2.1,3.1c-1.4,2-2.9,3.9-4.5,5.7c-3.2,3.7-6.8,7.2-11,9.9
				c-2.1,1.4-4.4,2.6-6.7,3.5c-2.4,0.9-4.8,1.7-7.3,2.1c-4.9,0.9-9.9,0.9-14.7,0.6c-4.8-0.3-9.6-0.8-14.3-1.4l-14.1-1.7
				c-4.7-0.5-9.4-1-14.1-1.3c-4.6-0.3-9.3-0.3-13.9,0.1c-4.6,0.4-9.2,1.2-13.8,2.4c-4.5,1.2-8.9,2.8-13.2,4.8
				c-4.3,1.9-8.5,4.2-12.8,6.2c-2.2,1-4.4,1.9-6.8,2.4c-1.2,0.3-2.4,0.4-3.6,0.4c-1.2,0-2.4-0.3-3.5-0.7l0.1-0.3
				c2.2,0.8,4.6,0.8,6.9,0.2c2.3-0.6,4.4-1.5,6.6-2.6c4.2-2.1,8.4-4.4,12.7-6.5c4.3-2,8.7-3.8,13.3-5.1c4.6-1.3,9.2-2.2,14-2.7
				c9.5-1.1,19,0,28.4,0.9l14.1,1.5c4.7,0.5,9.4,1,14.1,1.2c4.7,0.2,9.5,0.1,14.1-0.8c4.6-0.9,9.1-2.6,13-5.3
				c3.9-2.6,7.3-5.9,10.4-9.5c3-3.6,5.9-7.4,8.1-11.6c1.2-2,2-4.3,3-6.4c0.7-2.2,1.6-4.5,2-6.8c0.6-2.3,0.9-4.6,1.3-6.9
				c0.2-1.2,0.2-2.3,0.3-3.5l0.1-1.8l0-1.8c0.1-4.7-0.4-9.4-1.2-14.1l-0.7-3.5c-0.2-1.2-0.6-2.3-0.9-3.4c-0.5-2.3-1.4-4.5-2.1-6.8
				c-1.6-4.4-3.5-8.8-5.8-12.9c-1.1-2.1-2.4-4.1-3.6-6.1c-0.6-1-1.3-2-2-2.9c-0.7-1-1.3-2-2.1-2.9l-2.2-2.8
				c-0.7-0.9-1.5-1.8-2.3-2.7c-1.5-1.8-3.2-3.4-4.9-5.2c-3.4-3.2-7-6.4-10.9-9C288.4,10.8,279.6,7,270.4,5
				c-4.6-0.9-9.3-1.5-14.1-1.4c-2.4-0.1-4.7,0.1-7.1,0.3c-1.2,0.1-2.4,0.1-3.5,0.3l-3.5,0.4c-1.2,0.2-2.3,0.3-3.5,0.5l-3.5,0.7
				c-2.3,0.4-4.6,1-6.9,1.6l-1.7,0.4l-1.7,0.6l-3.4,1.1c-1.1,0.4-2.2,0.9-3.3,1.3c-1.1,0.5-2.2,0.9-3.2,1.4l-3.2,1.6
				c-1.1,0.5-2,1.2-3,1.8l-1.5,0.9c-0.5,0.3-1,0.7-1.4,1c-0.9,0.7-1.9,1.4-2.9,2.1c-3.7,3-7,6.4-9.9,10.1
				c-5.8,7.5-9.4,16.5-11.1,25.8c-0.8,4.6-1.2,9.4-1.1,14.1c0.1,2.4,0.3,4.7,0.6,7.1l0.3,1.7l0.4,1.7c0.4,1.1,0.6,2.3,1.3,3.2
				L183.5,83.6z"/>
		</g>
		<g>
			<path class="st0" d="M196.9,45.9c1.3-2.5,3-4.7,4.9-6.8c0.9-1.1,2-2,3-3c1.1-0.9,2.2-1.8,3.3-2.7c4.5-3.4,9.6-6.1,15-8l1-0.4
				l1-0.3l2-0.6l2.1-0.6c0.7-0.2,1.4-0.3,2.1-0.4l4.2-0.8c1.4-0.2,2.8-0.3,4.2-0.5c2.8-0.4,5.7-0.4,8.5-0.5c1.4-0.1,2.9,0,4.3,0
				l1.1,0l1.1,0.1l2.2,0.3c1.4,0.2,2.8,0.5,4.3,0.8c1.4,0.4,2.8,0.7,4.2,1.1c2.7,0.9,5.4,2,8,3.2c5.2,2.5,10,5.6,14.5,9.2
				c8.9,7.2,16.4,16.2,21.6,26.6c1.3,2.6,2.3,5.3,3.3,8.1c0.8,2.8,1.6,5.6,1.9,8.6c0.2,1.5,0.3,3,0.4,4.4c0,0.7,0,1.5,0,2.2
				c0,0.7,0,1.5-0.2,2.2l-0.3,2.2l-0.5,2.2c-0.1,0.7-0.4,1.5-0.7,2.2c-0.3,0.7-0.5,1.5-0.8,2.1c-2.6,5.7-6.8,10.1-11.8,13.4
				c-5,3.3-10.7,5.1-16.2,6.3c-5.6,1.1-11.2,1.6-16.8,2c-5.6,0.3-11.1,0.5-16.7,0.9c-11,0.5-22.1,1.6-32.4,6l-0.1-0.3
				c5-2.5,10.4-4.1,15.8-5.2c5.5-1.1,11-1.7,16.5-2.2l16.6-1.2c5.5-0.5,11.1-1.1,16.5-2.3c5.4-1.2,10.7-3.1,15.3-6.1
				c4.6-3,8.5-7.3,10.7-12.3c0.3-0.6,0.5-1.3,0.7-1.9c0.2-0.7,0.5-1.3,0.6-2l0.4-2l0.2-2c0.1-0.7,0.1-1.4,0.1-2.1
				c0-0.7,0.1-1.4,0-2.1c-0.1-1.4-0.1-2.8-0.4-4.1c-0.3-2.7-1.1-5.4-1.9-8.1c-0.9-2.6-1.9-5.2-3.2-7.7c-4.9-9.9-12-18.7-20.6-25.7
				c-4.3-3.5-8.9-6.6-13.9-9c-5-2.4-10.2-4.3-15.7-5.1c-2.7-0.4-5.5-0.7-8.3-0.6c-2.8,0.1-5.5,0-8.3,0.3c-1.4,0.1-2.8,0.2-4.1,0.4
				l-4.1,0.7c-0.7,0.1-1.4,0.2-2,0.4l-2,0.5l-2,0.5l-1,0.3l-1,0.3c-5.3,1.6-10.3,4.1-14.9,7.2c-1.1,0.8-2.2,1.7-3.3,2.5
				c-1,0.9-2.1,1.8-3.1,2.8c-2,1.9-3.8,4.1-5.2,6.4L196.9,45.9z"/>
		</g>
		<g>
			<path class="st0" d="M183.7,83.4c-0.6-1.5-0.5-3.2-0.4-4.8c0.2-1.6,0.6-3.2,1.1-4.7c1-3.1,2.4-5.9,3.9-8.7
				c3.2-5.5,7.3-10.6,12.1-14.9c2.4-2.2,5-4.2,7.8-5.9c2.8-1.7,5.7-3.2,8.9-4.3c0.8-0.3,1.6-0.5,2.4-0.7c0.8-0.2,1.6-0.5,2.4-0.6
				l2.5-0.4l2.5-0.2c0.8-0.1,1.7,0,2.5,0c0.8,0,1.7,0,2.5,0.1c0.8,0.1,1.7,0.2,2.5,0.3l2.5,0.5c6.6,1.7,12.4,5.4,17.3,9.7
				c2.4,2.3,4.6,4.7,6.6,7.4c1.9,2.7,3.5,5.7,4.5,8.9c1,3.2,1.6,6.5,1.6,9.8c0,3.3-0.5,6.6-1.4,9.7c-0.9,3.1-2.2,6.1-3.8,8.8
				c-1.6,2.8-3.4,5.4-5.6,7.7L256,101c1.9-2.4,3.5-5.1,4.8-7.9c1.4-2.8,2.4-5.7,3.1-8.8c1.5-6,1.3-12.5-0.9-18.3
				c-1.1-2.9-2.6-5.6-4.4-8.2c-1.9-2.5-4-4.7-6.3-6.8c-4.7-4-10.1-7.5-16.1-8.9l-2.3-0.5c-0.8-0.1-1.5-0.2-2.3-0.3
				c-0.8-0.1-1.5-0.1-2.3-0.1c-0.8,0-1.5-0.1-2.3,0l-2.3,0.2l-2.3,0.4c-0.8,0.1-1.5,0.3-2.3,0.5c-0.7,0.2-1.5,0.4-2.2,0.7
				c-5.9,2-11.3,5.3-16,9.3c-2.4,2-4.6,4.2-6.6,6.5c-2.1,2.3-4,4.8-5.6,7.4c-1.7,2.6-3.2,5.3-4.3,8.2c-0.6,1.4-1,2.9-1.4,4.4
				c-0.3,1.5-0.4,3.1,0,4.6L183.7,83.4z"/>
		</g>
		<g>
			<path class="st0" d="M169.4,122.5c1.9-0.3,3.7-0.6,5.6-0.9c1.8-0.3,3.7-0.6,5.5-1c3.7-0.7,7.4-1.4,11-2.2
				c7.3-1.5,14.6-3.3,21.6-5.6c1.7-0.6,3.5-1.2,5.2-1.9c1.7-0.7,3.4-1.3,5-2.1c3.3-1.5,6.4-3.3,8.9-5.5c0.3-0.3,0.6-0.5,0.9-0.8
				c0.3-0.3,0.6-0.6,0.8-0.9l1.7-2.1l0.4-0.5l0.4-0.5l0.7-1.1c0.2-0.4,0.5-0.7,0.7-1.1l0.6-1.1c1.6-3,2.5-6.2,2.6-9.5
				c0.1-0.8-0.1-1.6-0.1-2.4c-0.1-0.8-0.3-1.6-0.4-2.4c-0.2-0.8-0.4-1.6-0.7-2.4c-0.3-0.8-0.6-1.6-1-2.4c-1.4-3.2-3.4-6.2-5.5-9.1
				c-0.3-0.4-0.5-0.8-0.8-1c-0.3-0.3-0.5-0.6-0.8-0.9l-0.8-0.8l-0.9-0.7c-1.3-0.9-2.8-1.7-4.4-2.3c-3.2-1.1-6.7-1.8-10.2-1.8
				c-7.1-0.1-14.3,1.8-20.2,5.9c-2.9,2-5.6,4.6-7.5,7.7c-0.4,0.8-0.9,1.6-1.3,2.4c-0.2,0.4-0.4,0.8-0.6,1.3l-0.5,1.3
				c-0.4,0.9-0.5,1.8-0.8,2.7c-0.2,0.9-0.3,1.8-0.5,2.7l-0.3,0c0.2-3.8,1.2-7.5,3-10.8c1.8-3.3,4.4-6.2,7.4-8.5
				c6.1-4.5,13.6-6.8,21.2-7c3.8-0.1,7.6,0.4,11.2,1.7c1.8,0.6,3.5,1.5,5.1,2.6c1.6,1,2.9,2.5,4,4c2.3,3,4.3,6.2,5.9,9.6
				c0.4,0.8,0.7,1.8,1.1,2.6c0.3,0.9,0.6,1.8,0.8,2.7c0.2,0.9,0.4,1.9,0.5,2.8c0.1,0.9,0.2,1.9,0.1,2.8c0,3.8-1.2,7.6-3,10.9
				l-0.7,1.2c-0.2,0.4-0.5,0.8-0.8,1.2l-0.8,1.2l-0.4,0.6l-0.4,0.5l-1.8,2.2c-0.3,0.4-0.7,0.7-1,1c-0.3,0.3-0.7,0.7-1.1,1
				c-2.9,2.5-6.3,4.3-9.7,5.8c-3.5,1.5-7,2.7-10.6,3.8c-7.2,2.1-14.6,3.7-22,4.9c-7.4,1.2-14.9,2.2-22.3,2.8L169.4,122.5z"/>
		</g>
	</g>
	<g class="st3">
		<g>
			<path class="st0" d="M354.3,83.6c-0.8-1-1.1-2.2-1.5-3.3l-0.5-1.7l-0.4-1.8c-0.4-2.3-0.7-4.7-0.8-7.1c-0.3-4.8,0-9.6,0.8-14.3
				c1.5-9.4,5-18.8,10.8-26.6c2.9-3.9,6.3-7.5,10-10.6c0.9-0.8,1.9-1.5,2.9-2.2c0.5-0.4,1-0.7,1.5-1.1l1.5-1c1-0.6,2-1.3,3.1-1.9
				l3.2-1.7c1.1-0.6,2.2-1,3.3-1.5c1.1-0.5,2.2-1,3.4-1.4l3.4-1.2l1.7-0.6l1.7-0.5c2.3-0.6,4.7-1.3,7-1.7l3.6-0.7
				c1.2-0.2,2.4-0.4,3.6-0.5l3.6-0.5c1.2-0.2,2.4-0.2,3.6-0.3l3.6-0.3l0.9-0.1l0.9,0l1.8,0c4.9-0.2,9.8,0.5,14.6,1.4
				c9.6,2.1,18.8,6,26.8,11.6c4.1,2.7,7.8,5.9,11.4,9.2c1.7,1.7,3.5,3.4,5,5.3c0.8,0.9,1.6,1.8,2.4,2.8l2.2,2.9c0.8,0.9,1.5,2,2.1,3
				c0.7,1,1.4,2,2.1,3c1.3,2.1,2.6,4.1,3.7,6.3c2.4,4.3,4.3,8.8,6,13.3c0.7,2.3,1.6,4.6,2.1,7c0.3,1.2,0.7,2.4,0.9,3.6l0.7,3.6
				c0.8,4.8,1.3,9.7,1.1,14.7l0,1.8l-0.1,1.8c-0.1,1.2-0.2,2.5-0.3,3.7c-0.4,2.4-0.7,4.9-1.4,7.3c-0.5,2.4-1.4,4.7-2.2,7.1
				c-1,2.3-1.9,4.6-3.1,6.7l-0.9,1.6l-0.4,0.8c-0.2,0.3-0.3,0.5-0.5,0.8l-2.1,3.1c-1.4,2-2.9,3.9-4.5,5.7c-3.2,3.7-6.8,7.2-11,9.9
				c-2.1,1.4-4.4,2.6-6.7,3.5c-2.4,0.9-4.8,1.7-7.3,2.1c-4.9,0.9-9.9,0.9-14.7,0.6c-4.8-0.3-9.6-0.8-14.3-1.4l-14.1-1.7
				c-4.7-0.5-9.4-1-14.1-1.3c-4.6-0.3-9.3-0.3-13.9,0.1c-4.6,0.4-9.2,1.2-13.8,2.4c-4.5,1.2-8.9,2.8-13.2,4.8
				c-4.3,1.9-8.5,4.2-12.8,6.2c-2.2,1-4.4,1.9-6.8,2.4c-1.2,0.3-2.4,0.4-3.6,0.4c-1.2,0-2.4-0.3-3.5-0.7l0.1-0.3
				c2.2,0.8,4.6,0.8,6.9,0.2c2.3-0.6,4.4-1.5,6.6-2.6c4.2-2.1,8.4-4.4,12.7-6.5c4.3-2,8.7-3.8,13.3-5.1c4.6-1.3,9.2-2.2,14-2.7
				c9.5-1.1,19,0,28.4,0.9l14.1,1.5c4.7,0.5,9.4,1,14.1,1.2c4.7,0.2,9.5,0.1,14.1-0.8c4.6-0.9,9.1-2.6,13-5.3
				c3.9-2.6,7.3-5.9,10.4-9.5c3-3.6,5.9-7.4,8.1-11.6c1.2-2,2-4.3,3-6.4c0.7-2.2,1.6-4.5,2-6.8c0.6-2.3,0.9-4.6,1.3-6.9
				c0.2-1.2,0.2-2.3,0.3-3.5l0.1-1.8l0-1.8c0.1-4.7-0.4-9.4-1.2-14.1l-0.7-3.5c-0.2-1.2-0.6-2.3-0.9-3.4c-0.5-2.3-1.4-4.5-2.1-6.8
				c-1.6-4.4-3.5-8.8-5.8-12.9c-1.1-2.1-2.4-4.1-3.6-6.1c-0.6-1-1.3-2-2-2.9c-0.7-1-1.3-2-2.1-2.9l-2.2-2.8
				c-0.7-0.9-1.5-1.8-2.3-2.7c-1.5-1.8-3.2-3.4-4.9-5.2c-3.4-3.2-7-6.4-10.9-9C459.2,10.8,450.4,7,441.2,5
				c-4.6-0.9-9.3-1.5-14.1-1.4c-2.4-0.1-4.7,0.1-7.1,0.3c-1.2,0.1-2.4,0.1-3.5,0.3L413,4.5c-1.2,0.2-2.4,0.3-3.5,0.5L406,5.7
				c-2.3,0.4-4.6,1-6.9,1.6l-1.7,0.4l-1.7,0.6l-3.4,1.1c-1.1,0.4-2.2,0.9-3.3,1.3c-1.1,0.5-2.2,0.9-3.2,1.4l-3.2,1.6
				c-1.1,0.5-2,1.2-3,1.8l-1.5,0.9c-0.5,0.3-1,0.7-1.4,1c-0.9,0.7-1.9,1.4-2.9,2.1c-3.7,3-7,6.4-9.9,10.1
				c-5.8,7.5-9.4,16.5-11.1,25.8c-0.8,4.6-1.2,9.4-1.1,14.1c0.1,2.4,0.3,4.7,0.6,7.1l0.3,1.7l0.4,1.7c0.4,1.1,0.6,2.3,1.3,3.2
				L354.3,83.6z"/>
		</g>
		<g>
			<path class="st0" d="M367.7,45.9c1.3-2.5,3-4.7,4.9-6.8c0.9-1.1,2-2,3-3c1.1-0.9,2.2-1.8,3.3-2.7c4.5-3.4,9.6-6.1,15-8l1-0.4
				l1-0.3l2-0.6l2.1-0.6c0.7-0.2,1.4-0.3,2.1-0.4l4.2-0.8c1.4-0.2,2.8-0.3,4.2-0.5c2.8-0.4,5.7-0.4,8.5-0.5c1.4-0.1,2.9,0,4.3,0
				l1.1,0l1.1,0.1l2.2,0.3c1.4,0.2,2.8,0.5,4.3,0.8c1.4,0.4,2.8,0.7,4.2,1.1c2.7,0.9,5.4,2,8,3.2c5.2,2.5,10,5.6,14.5,9.2
				c8.9,7.2,16.4,16.2,21.6,26.6c1.3,2.6,2.3,5.3,3.3,8.1c0.8,2.8,1.6,5.6,1.9,8.6c0.2,1.5,0.3,3,0.4,4.4c0,0.7,0,1.5,0,2.2
				c0,0.7,0,1.5-0.2,2.2l-0.3,2.2l-0.5,2.2c-0.1,0.7-0.4,1.5-0.7,2.2c-0.3,0.7-0.5,1.5-0.8,2.1c-2.6,5.7-6.8,10.1-11.8,13.4
				c-5,3.3-10.7,5.1-16.2,6.3c-5.6,1.1-11.2,1.6-16.8,2c-5.6,0.3-11.1,0.5-16.7,0.9c-11,0.5-22.1,1.6-32.4,6l-0.1-0.3
				c5-2.5,10.4-4.1,15.8-5.2c5.5-1.1,11-1.7,16.5-2.2l16.6-1.2c5.5-0.5,11.1-1.1,16.5-2.3c5.4-1.2,10.7-3.1,15.3-6.1
				c4.6-3,8.5-7.3,10.7-12.3c0.3-0.6,0.5-1.3,0.7-1.9c0.2-0.7,0.5-1.3,0.6-2l0.4-2l0.2-2c0.1-0.7,0.1-1.4,0.1-2.1
				c0-0.7,0.1-1.4,0-2.1c-0.1-1.4-0.1-2.8-0.4-4.1c-0.3-2.7-1.1-5.4-1.9-8.1c-0.9-2.6-1.9-5.2-3.2-7.7c-4.9-9.9-12-18.7-20.6-25.7
				c-4.3-3.5-8.9-6.6-13.9-9c-5-2.4-10.2-4.3-15.7-5.1c-2.7-0.4-5.5-0.7-8.3-0.6c-2.8,0.1-5.5,0-8.3,0.3c-1.4,0.1-2.8,0.2-4.1,0.4
				l-4.1,0.7c-0.7,0.1-1.4,0.2-2,0.4l-2,0.5l-2,0.5l-1,0.3l-1,0.3c-5.3,1.6-10.3,4.1-14.9,7.2c-1.1,0.8-2.2,1.7-3.3,2.5
				c-1,0.9-2.1,1.8-3.1,2.8c-2,1.9-3.8,4.1-5.2,6.4L367.7,45.9z"/>
		</g>
		<g>
			<path class="st0" d="M354.5,83.4c-0.6-1.5-0.5-3.2-0.4-4.8c0.2-1.6,0.6-3.2,1.1-4.7c1-3.1,2.4-5.9,3.9-8.7
				c3.2-5.5,7.3-10.6,12.1-14.9c2.4-2.2,5-4.2,7.8-5.9c2.8-1.7,5.7-3.2,8.9-4.3c0.8-0.3,1.6-0.5,2.4-0.7c0.8-0.2,1.6-0.5,2.4-0.6
				l2.5-0.4l2.5-0.2c0.8-0.1,1.7,0,2.5,0c0.8,0,1.7,0,2.5,0.1c0.8,0.1,1.7,0.2,2.5,0.3l2.5,0.5c6.6,1.7,12.4,5.4,17.3,9.7
				c2.4,2.3,4.6,4.7,6.6,7.4c1.9,2.7,3.5,5.7,4.5,8.9c1,3.2,1.6,6.5,1.6,9.8c0,3.3-0.5,6.6-1.4,9.7c-0.9,3.1-2.2,6.1-3.8,8.8
				c-1.6,2.8-3.4,5.4-5.6,7.7l-0.2-0.2c1.9-2.4,3.5-5.1,4.8-7.9c1.4-2.8,2.4-5.7,3.1-8.8c1.5-6,1.3-12.5-0.9-18.3
				c-1.1-2.9-2.6-5.6-4.4-8.2c-1.9-2.5-4-4.7-6.3-6.8c-4.7-4-10.1-7.5-16.1-8.9l-2.3-0.5c-0.8-0.1-1.5-0.2-2.3-0.3
				c-0.8-0.1-1.5-0.1-2.3-0.1c-0.8,0-1.5-0.1-2.3,0l-2.3,0.2l-2.3,0.4c-0.8,0.1-1.5,0.3-2.3,0.5c-0.7,0.2-1.5,0.4-2.2,0.7
				c-5.9,2-11.3,5.3-16,9.3c-2.4,2-4.6,4.2-6.6,6.5c-2.1,2.3-4,4.8-5.6,7.4c-1.7,2.6-3.2,5.3-4.3,8.2c-0.6,1.4-1,2.9-1.4,4.4
				c-0.3,1.5-0.4,3.1,0,4.6L354.5,83.4z"/>
		</g>
		<g>
			<path class="st0" d="M340.1,122.5c1.9-0.3,3.7-0.6,5.6-0.9c1.8-0.3,3.7-0.6,5.5-1c3.7-0.7,7.4-1.4,11-2.2
				c7.3-1.5,14.6-3.3,21.6-5.6c1.7-0.6,3.5-1.2,5.2-1.9c1.7-0.7,3.4-1.3,5-2.1c3.3-1.5,6.4-3.3,8.9-5.5c0.3-0.3,0.6-0.5,0.9-0.8
				c0.3-0.3,0.6-0.6,0.8-0.9l1.7-2.1l0.4-0.5l0.4-0.5l0.7-1.1c0.2-0.4,0.5-0.7,0.7-1.1l0.6-1.1c1.6-3,2.5-6.2,2.6-9.5
				c0.1-0.8-0.1-1.6-0.1-2.4c-0.1-0.8-0.3-1.6-0.4-2.4c-0.2-0.8-0.4-1.6-0.7-2.4c-0.3-0.8-0.6-1.6-1-2.4c-1.4-3.2-3.4-6.2-5.5-9.1
				c-0.3-0.4-0.5-0.8-0.8-1c-0.3-0.3-0.5-0.6-0.8-0.9l-0.8-0.8l-0.9-0.7c-1.3-0.9-2.8-1.7-4.4-2.3c-3.2-1.1-6.7-1.8-10.2-1.8
				c-7.1-0.1-14.3,1.8-20.2,5.9c-2.9,2-5.6,4.6-7.5,7.7c-0.4,0.8-0.9,1.6-1.3,2.4c-0.2,0.4-0.4,0.8-0.6,1.3l-0.5,1.3
				c-0.4,0.9-0.5,1.8-0.8,2.7c-0.2,0.9-0.3,1.8-0.5,2.7l-0.3,0c0.2-3.8,1.2-7.5,3-10.8c1.8-3.3,4.4-6.2,7.4-8.5
				c6.1-4.5,13.6-6.8,21.2-7c3.8-0.1,7.6,0.4,11.2,1.7c1.8,0.6,3.5,1.5,5.1,2.6c1.6,1,2.9,2.5,4,4c2.3,3,4.3,6.2,5.9,9.6
				c0.4,0.8,0.7,1.8,1.1,2.6c0.3,0.9,0.6,1.8,0.8,2.7c0.2,0.9,0.4,1.9,0.5,2.8c0.1,0.9,0.2,1.9,0.1,2.8c0,3.8-1.2,7.6-3,10.9
				l-0.7,1.2c-0.2,0.4-0.5,0.8-0.8,1.2l-0.8,1.2l-0.4,0.6l-0.4,0.5l-1.8,2.2c-0.3,0.4-0.7,0.7-1,1c-0.3,0.3-0.7,0.7-1.1,1
				c-2.9,2.5-6.3,4.3-9.7,5.8c-3.5,1.5-7,2.7-10.6,3.8c-7.2,2.1-14.6,3.7-22,4.9c-7.4,1.2-14.9,2.2-22.3,2.8L340.1,122.5z"/>
		</g>
	</g>
	<g class="st3">
		<g>
			<path class="st0" d="M526.5,83.6c-0.8-1-1.1-2.2-1.5-3.3l-0.5-1.7l-0.4-1.8c-0.4-2.3-0.7-4.7-0.8-7.1c-0.3-4.8,0-9.6,0.8-14.3
				c1.5-9.4,5-18.8,10.8-26.6c2.9-3.9,6.3-7.5,10-10.6c0.9-0.8,1.9-1.5,2.9-2.2c0.5-0.4,1-0.7,1.5-1.1l1.5-1c1-0.6,2-1.3,3.1-1.9
				l3.2-1.7c1.1-0.6,2.2-1,3.3-1.5c1.1-0.5,2.2-1,3.4-1.4l3.4-1.2l1.7-0.6l1.7-0.5c2.3-0.6,4.7-1.3,7-1.7l3.6-0.7
				c1.2-0.2,2.4-0.4,3.6-0.5l3.6-0.5c1.2-0.2,2.4-0.2,3.6-0.3l3.6-0.3l0.9-0.1l0.9,0l1.8,0c4.9-0.2,9.8,0.5,14.6,1.4
				c9.6,2.1,18.8,6,26.8,11.6c4.1,2.7,7.8,5.9,11.4,9.2c1.7,1.7,3.5,3.4,5,5.3c0.8,0.9,1.6,1.8,2.4,2.8l2.2,2.9c0.8,0.9,1.5,2,2.1,3
				c0.7,1,1.4,2,2.1,3c1.3,2.1,2.6,4.1,3.7,6.3c2.4,4.3,4.3,8.8,6,13.3c0.7,2.3,1.6,4.6,2.1,7c0.3,1.2,0.7,2.4,0.9,3.6l0.7,3.6
				c0.8,4.8,1.3,9.7,1.1,14.7l0,1.8l-0.1,1.8c-0.1,1.2-0.2,2.5-0.3,3.7c-0.4,2.4-0.7,4.9-1.4,7.3c-0.5,2.4-1.4,4.7-2.2,7.1
				c-1,2.3-1.9,4.6-3.1,6.7l-0.9,1.6l-0.4,0.8c-0.2,0.3-0.3,0.5-0.5,0.8l-2.1,3.1c-1.4,2-2.9,3.9-4.5,5.7c-3.2,3.7-6.8,7.2-11,9.9
				c-2.1,1.4-4.4,2.6-6.7,3.5c-2.4,0.9-4.8,1.7-7.3,2.1c-4.9,0.9-9.9,0.9-14.7,0.6c-4.8-0.3-9.6-0.8-14.3-1.4l-14.1-1.7
				c-4.7-0.5-9.4-1-14.1-1.3c-4.6-0.3-9.3-0.3-13.9,0.1c-4.6,0.4-9.2,1.2-13.8,2.4c-4.5,1.2-8.9,2.8-13.2,4.8
				c-4.3,1.9-8.5,4.2-12.8,6.2c-2.2,1-4.4,1.9-6.8,2.4c-1.2,0.3-2.4,0.4-3.6,0.4c-1.2,0-2.4-0.3-3.5-0.7l0.1-0.3
				c2.2,0.8,4.6,0.8,6.9,0.2c2.3-0.6,4.4-1.5,6.6-2.6c4.2-2.1,8.4-4.4,12.7-6.5c4.3-2,8.7-3.8,13.3-5.1c4.6-1.3,9.2-2.2,14-2.7
				c9.5-1.1,19,0,28.4,0.9l14.1,1.5c4.7,0.5,9.4,1,14.1,1.2c4.7,0.2,9.5,0.1,14.1-0.8c4.6-0.9,9.1-2.6,13-5.3
				c3.9-2.6,7.3-5.9,10.4-9.5c3-3.6,5.9-7.4,8.1-11.6c1.2-2,2-4.3,3-6.4c0.7-2.2,1.6-4.5,2-6.8c0.6-2.3,0.9-4.6,1.3-6.9
				c0.2-1.2,0.2-2.3,0.3-3.5l0.1-1.8l0-1.8c0.1-4.7-0.4-9.4-1.2-14.1l-0.7-3.5c-0.2-1.2-0.6-2.3-0.9-3.4c-0.5-2.3-1.4-4.5-2.1-6.8
				c-1.6-4.4-3.5-8.8-5.8-12.9c-1.1-2.1-2.4-4.1-3.6-6.1c-0.6-1-1.3-2-2-2.9c-0.7-1-1.3-2-2.1-2.9l-2.2-2.8
				c-0.7-0.9-1.5-1.8-2.3-2.7c-1.5-1.8-3.2-3.4-4.9-5.2c-3.4-3.2-7-6.4-10.9-9C631.5,10.8,622.6,7,613.4,5
				c-4.6-0.9-9.3-1.5-14.1-1.4c-2.4-0.1-4.7,0.1-7.1,0.3c-1.2,0.1-2.4,0.1-3.5,0.3l-3.5,0.4c-1.2,0.2-2.3,0.3-3.5,0.5l-3.5,0.7
				c-2.3,0.4-4.6,1-6.9,1.6l-1.7,0.4L568,8.3l-3.4,1.1c-1.1,0.4-2.2,0.9-3.3,1.3c-1.1,0.5-2.2,0.9-3.2,1.4l-3.2,1.6
				c-1.1,0.5-2,1.2-3,1.8l-1.5,0.9c-0.5,0.3-1,0.7-1.4,1c-0.9,0.7-1.9,1.4-2.9,2.1c-3.7,3-7,6.4-9.9,10.1
				c-5.8,7.5-9.4,16.5-11.1,25.8c-0.8,4.6-1.2,9.4-1.1,14.1c0.1,2.4,0.3,4.7,0.6,7.1l0.3,1.7l0.4,1.7c0.4,1.1,0.6,2.3,1.3,3.2
				L526.5,83.6z"/>
		</g>
		<g>
			<path class="st0" d="M539.9,45.9c1.3-2.5,3-4.7,4.9-6.8c0.9-1.1,2-2,3-3c1.1-0.9,2.2-1.8,3.3-2.7c4.5-3.4,9.6-6.1,15-8l1-0.4
				l1-0.3l2-0.6l2.1-0.6c0.7-0.2,1.4-0.3,2.1-0.4l4.2-0.8c1.4-0.2,2.8-0.3,4.2-0.5c2.8-0.4,5.7-0.4,8.5-0.5c1.4-0.1,2.9,0,4.3,0
				l1.1,0l1.1,0.1l2.2,0.3c1.4,0.2,2.8,0.5,4.3,0.8c1.4,0.4,2.8,0.7,4.2,1.1c2.7,0.9,5.4,2,8,3.2c5.2,2.5,10,5.6,14.5,9.2
				c8.9,7.2,16.4,16.2,21.6,26.6c1.3,2.6,2.3,5.3,3.3,8.1c0.8,2.8,1.6,5.6,1.9,8.6c0.2,1.5,0.3,3,0.4,4.4c0,0.7,0,1.5,0,2.2
				c0,0.7,0,1.5-0.2,2.2l-0.3,2.2l-0.5,2.2c-0.1,0.7-0.4,1.5-0.7,2.2c-0.3,0.7-0.5,1.5-0.8,2.1c-2.6,5.7-6.8,10.1-11.8,13.4
				c-5,3.3-10.7,5.1-16.2,6.3c-5.6,1.1-11.2,1.6-16.8,2c-5.6,0.3-11.1,0.5-16.7,0.9c-11,0.5-22.1,1.6-32.4,6l-0.1-0.3
				c5-2.5,10.4-4.1,15.8-5.2c5.5-1.1,11-1.7,16.5-2.2l16.6-1.2c5.5-0.5,11.1-1.1,16.5-2.3c5.4-1.2,10.7-3.1,15.3-6.1
				c4.6-3,8.5-7.3,10.7-12.3c0.3-0.6,0.5-1.3,0.7-1.9c0.2-0.7,0.5-1.3,0.6-2l0.4-2l0.2-2c0.1-0.7,0.1-1.4,0.1-2.1
				c0-0.7,0.1-1.4,0-2.1c-0.1-1.4-0.1-2.8-0.4-4.1c-0.3-2.7-1.1-5.4-1.9-8.1c-0.9-2.6-1.9-5.2-3.2-7.7c-4.9-9.9-12-18.7-20.6-25.7
				c-4.3-3.5-8.9-6.6-13.9-9c-5-2.4-10.2-4.3-15.7-5.1c-2.7-0.4-5.5-0.7-8.3-0.6c-2.8,0.1-5.5,0-8.3,0.3c-1.4,0.1-2.8,0.2-4.1,0.4
				l-4.1,0.7c-0.7,0.1-1.4,0.2-2,0.4l-2,0.5l-2,0.5l-1,0.3l-1,0.3c-5.3,1.6-10.3,4.1-14.9,7.2c-1.1,0.8-2.2,1.7-3.3,2.5
				c-1,0.9-2.1,1.8-3.1,2.8c-2,1.9-3.8,4.1-5.2,6.4L539.9,45.9z"/>
		</g>
		<g>
			<path class="st0" d="M526.7,83.4c-0.6-1.5-0.5-3.2-0.4-4.8c0.2-1.6,0.6-3.2,1.1-4.7c1-3.1,2.4-5.9,3.9-8.7
				c3.2-5.5,7.3-10.6,12.1-14.9c2.4-2.2,5-4.2,7.8-5.9c2.8-1.7,5.7-3.2,8.9-4.3c0.8-0.3,1.6-0.5,2.4-0.7c0.8-0.2,1.6-0.5,2.4-0.6
				l2.5-0.4l2.5-0.2c0.8-0.1,1.7,0,2.5,0c0.8,0,1.7,0,2.5,0.1c0.8,0.1,1.7,0.2,2.5,0.3l2.5,0.5c6.6,1.7,12.4,5.4,17.3,9.7
				c2.4,2.3,4.6,4.7,6.6,7.4c1.9,2.7,3.5,5.7,4.5,8.9c1,3.2,1.6,6.5,1.6,9.8c0,3.3-0.5,6.6-1.4,9.7c-0.9,3.1-2.2,6.1-3.8,8.8
				c-1.6,2.8-3.4,5.4-5.6,7.7L599,101c1.9-2.4,3.5-5.1,4.8-7.9c1.4-2.8,2.4-5.7,3.1-8.8c1.5-6,1.3-12.5-0.9-18.3
				c-1.1-2.9-2.6-5.6-4.4-8.2c-1.9-2.5-4-4.7-6.3-6.8c-4.7-4-10.1-7.5-16.1-8.9l-2.3-0.5c-0.8-0.1-1.5-0.2-2.3-0.3
				c-0.8-0.1-1.5-0.1-2.3-0.1c-0.8,0-1.5-0.1-2.3,0l-2.3,0.2l-2.3,0.4c-0.8,0.1-1.5,0.3-2.3,0.5c-0.7,0.2-1.5,0.4-2.2,0.7
				c-5.9,2-11.3,5.3-16,9.3c-2.4,2-4.6,4.2-6.6,6.5c-2.1,2.3-4,4.8-5.6,7.4c-1.7,2.6-3.2,5.3-4.3,8.2c-0.6,1.4-1,2.9-1.4,4.4
				c-0.3,1.5-0.4,3.1,0,4.6L526.7,83.4z"/>
		</g>
		<g>
			<path class="st0" d="M512.4,122.5c1.9-0.3,3.7-0.6,5.6-0.9c1.8-0.3,3.7-0.6,5.5-1c3.7-0.7,7.4-1.4,11-2.2
				c7.3-1.5,14.6-3.3,21.6-5.6c1.7-0.6,3.5-1.2,5.2-1.9c1.7-0.7,3.4-1.3,5-2.1c3.3-1.5,6.4-3.3,8.9-5.5c0.3-0.3,0.6-0.5,0.9-0.8
				c0.3-0.3,0.6-0.6,0.8-0.9l1.7-2.1l0.4-0.5l0.4-0.5l0.7-1.1c0.2-0.4,0.5-0.7,0.7-1.1l0.6-1.1c1.6-3,2.5-6.2,2.6-9.5
				c0.1-0.8-0.1-1.6-0.1-2.4c-0.1-0.8-0.3-1.6-0.4-2.4c-0.2-0.8-0.4-1.6-0.7-2.4c-0.3-0.8-0.6-1.6-1-2.4c-1.4-3.2-3.4-6.2-5.5-9.1
				c-0.3-0.4-0.5-0.8-0.8-1c-0.3-0.3-0.5-0.6-0.8-0.9l-0.8-0.8l-0.9-0.7c-1.3-0.9-2.8-1.7-4.4-2.3c-3.2-1.1-6.7-1.8-10.2-1.8
				c-7.1-0.1-14.3,1.8-20.2,5.9c-2.9,2-5.6,4.6-7.5,7.7c-0.4,0.8-0.9,1.6-1.3,2.4c-0.2,0.4-0.4,0.8-0.6,1.3l-0.5,1.3
				c-0.4,0.9-0.5,1.8-0.8,2.7c-0.2,0.9-0.3,1.8-0.5,2.7l-0.3,0c0.2-3.8,1.2-7.5,3-10.8c1.8-3.3,4.4-6.2,7.4-8.5
				c6.1-4.5,13.6-6.8,21.2-7c3.8-0.1,7.6,0.4,11.2,1.7c1.8,0.6,3.5,1.5,5.1,2.6c1.6,1,2.9,2.5,4,4c2.3,3,4.3,6.2,5.9,9.6
				c0.4,0.8,0.7,1.8,1.1,2.6c0.3,0.9,0.6,1.8,0.8,2.7c0.2,0.9,0.4,1.9,0.5,2.8c0.1,0.9,0.2,1.9,0.1,2.8c0,3.8-1.2,7.6-3,10.9
				l-0.7,1.2c-0.2,0.4-0.5,0.8-0.8,1.2l-0.8,1.2l-0.4,0.6l-0.4,0.5l-1.8,2.2c-0.3,0.4-0.7,0.7-1,1c-0.3,0.3-0.7,0.7-1.1,1
				c-2.9,2.5-6.3,4.3-9.7,5.8c-3.5,1.5-7,2.7-10.6,3.8c-7.2,2.1-14.6,3.7-22,4.9c-7.4,1.2-14.9,2.2-22.3,2.8L512.4,122.5z"/>
		</g>
	</g>
	<g class="st3">
		<g>
			<path class="st0" d="M695.7,83.6c-0.8-1-1.1-2.2-1.5-3.3l-0.5-1.7l-0.4-1.8c-0.4-2.3-0.7-4.7-0.8-7.1c-0.3-4.8,0-9.6,0.8-14.3
				c1.5-9.4,5-18.8,10.8-26.6c2.9-3.9,6.3-7.5,10-10.6c0.9-0.8,1.9-1.5,2.9-2.2c0.5-0.4,1-0.7,1.5-1.1l1.5-1c1-0.6,2-1.3,3.1-1.9
				l3.2-1.7c1.1-0.6,2.2-1,3.3-1.5c1.1-0.5,2.2-1,3.4-1.4l3.4-1.2l1.7-0.6l1.7-0.5c2.3-0.6,4.7-1.3,7-1.7l3.6-0.7
				c1.2-0.2,2.4-0.4,3.6-0.5l3.6-0.5c1.2-0.2,2.4-0.2,3.6-0.3l3.6-0.3l0.9-0.1l0.9,0l1.8,0c4.9-0.2,9.8,0.5,14.6,1.4
				c9.6,2.1,18.8,6,26.8,11.6c4.1,2.7,7.8,5.9,11.4,9.2c1.7,1.7,3.5,3.4,5,5.3c0.8,0.9,1.6,1.8,2.4,2.8l2.2,2.9c0.8,0.9,1.5,2,2.1,3
				c0.7,1,1.4,2,2.1,3c1.3,2.1,2.6,4.1,3.7,6.3c2.4,4.3,4.3,8.8,6,13.3c0.7,2.3,1.6,4.6,2.1,7c0.3,1.2,0.7,2.4,0.9,3.6l0.7,3.6
				c0.8,4.8,1.3,9.7,1.1,14.7l0,1.8l-0.1,1.8c-0.1,1.2-0.2,2.5-0.3,3.7c-0.4,2.4-0.7,4.9-1.4,7.3c-0.5,2.4-1.4,4.7-2.2,7.1
				c-1,2.3-1.9,4.6-3.1,6.7l-0.9,1.6l-0.4,0.8c-0.2,0.3-0.3,0.5-0.5,0.8l-2.1,3.1c-1.4,2-2.9,3.9-4.5,5.7c-3.2,3.7-6.8,7.2-11,9.9
				c-2.1,1.4-4.4,2.6-6.7,3.5c-2.4,0.9-4.8,1.7-7.3,2.1c-4.9,0.9-9.9,0.9-14.7,0.6c-4.8-0.3-9.6-0.8-14.3-1.4l-14.1-1.7
				c-4.7-0.5-9.4-1-14.1-1.3c-4.6-0.3-9.3-0.3-13.9,0.1c-4.6,0.4-9.2,1.2-13.8,2.4c-4.5,1.2-8.9,2.8-13.2,4.8
				c-4.3,1.9-8.5,4.2-12.8,6.2c-2.2,1-4.4,1.9-6.8,2.4c-1.2,0.3-2.4,0.4-3.6,0.4c-1.2,0-2.4-0.3-3.5-0.7l0.1-0.3
				c2.2,0.8,4.6,0.8,6.9,0.2c2.3-0.6,4.4-1.5,6.6-2.6c4.2-2.1,8.4-4.4,12.7-6.5c4.3-2,8.7-3.8,13.3-5.1c4.6-1.3,9.2-2.2,14-2.7
				c9.5-1.1,19,0,28.4,0.9l14.1,1.5c4.7,0.5,9.4,1,14.1,1.2c4.7,0.2,9.5,0.1,14.1-0.8c4.6-0.9,9.1-2.6,13-5.3
				c3.9-2.6,7.3-5.9,10.4-9.5c3-3.6,5.9-7.4,8.1-11.6c1.2-2,2-4.3,3-6.4c0.7-2.2,1.6-4.5,2-6.8c0.6-2.3,0.9-4.6,1.3-6.9
				c0.2-1.2,0.2-2.3,0.3-3.5l0.1-1.8l0-1.8c0.1-4.7-0.4-9.4-1.2-14.1l-0.7-3.5c-0.2-1.2-0.6-2.3-0.9-3.4c-0.5-2.3-1.4-4.5-2.1-6.8
				c-1.6-4.4-3.5-8.8-5.8-12.9c-1.1-2.1-2.4-4.1-3.6-6.1c-0.6-1-1.3-2-2-2.9c-0.7-1-1.3-2-2.1-2.9l-2.2-2.8
				c-0.7-0.9-1.5-1.8-2.3-2.7c-1.5-1.8-3.2-3.4-4.9-5.2c-3.4-3.2-7-6.4-10.9-9C800.7,10.8,791.8,7,782.6,5
				c-4.6-0.9-9.3-1.5-14.1-1.4c-2.4-0.1-4.7,0.1-7.1,0.3c-1.2,0.1-2.4,0.1-3.5,0.3l-3.5,0.4c-1.2,0.2-2.3,0.3-3.5,0.5l-3.5,0.7
				c-2.3,0.4-4.6,1-6.9,1.6l-1.7,0.4l-1.7,0.6l-3.4,1.1c-1.1,0.4-2.2,0.9-3.3,1.3c-1.1,0.5-2.2,0.9-3.2,1.4l-3.2,1.6
				c-1.1,0.5-2,1.2-3,1.8l-1.5,0.9c-0.5,0.3-1,0.7-1.4,1c-0.9,0.7-1.9,1.4-2.9,2.1c-3.7,3-7,6.4-9.9,10.1
				c-5.8,7.5-9.4,16.5-11.1,25.8c-0.8,4.6-1.2,9.4-1.1,14.1c0.1,2.4,0.3,4.7,0.6,7.1l0.3,1.7l0.4,1.7c0.4,1.1,0.6,2.3,1.3,3.2
				L695.7,83.6z"/>
		</g>
		<g>
			<path class="st0" d="M709.1,45.9c1.3-2.5,3-4.7,4.9-6.8c0.9-1.1,2-2,3-3c1.1-0.9,2.2-1.8,3.3-2.7c4.5-3.4,9.6-6.1,15-8l1-0.4
				l1-0.3l2-0.6l2.1-0.6c0.7-0.2,1.4-0.3,2.1-0.4l4.2-0.8c1.4-0.2,2.8-0.3,4.2-0.5c2.8-0.4,5.7-0.4,8.5-0.5c1.4-0.1,2.9,0,4.3,0
				l1.1,0l1.1,0.1l2.2,0.3c1.4,0.2,2.8,0.5,4.3,0.8c1.4,0.4,2.8,0.7,4.2,1.1c2.7,0.9,5.4,2,8,3.2c5.2,2.5,10,5.6,14.5,9.2
				c8.9,7.2,16.4,16.2,21.6,26.6c1.3,2.6,2.3,5.3,3.3,8.1c0.8,2.8,1.6,5.6,1.9,8.6c0.2,1.5,0.3,3,0.4,4.4c0,0.7,0,1.5,0,2.2
				c0,0.7,0,1.5-0.2,2.2l-0.3,2.2l-0.5,2.2c-0.1,0.7-0.4,1.5-0.7,2.2c-0.3,0.7-0.5,1.5-0.8,2.1c-2.6,5.7-6.8,10.1-11.8,13.4
				c-5,3.3-10.7,5.1-16.2,6.3c-5.6,1.1-11.2,1.6-16.8,2c-5.6,0.3-11.1,0.5-16.7,0.9c-11,0.5-22.1,1.6-32.4,6l-0.1-0.3
				c5-2.5,10.4-4.1,15.8-5.2c5.5-1.1,11-1.7,16.5-2.2l16.6-1.2c5.5-0.5,11.1-1.1,16.5-2.3c5.4-1.2,10.7-3.1,15.3-6.1
				c4.6-3,8.5-7.3,10.7-12.3c0.3-0.6,0.5-1.3,0.7-1.9c0.2-0.7,0.5-1.3,0.6-2l0.4-2l0.2-2c0.1-0.7,0.1-1.4,0.1-2.1
				c0-0.7,0.1-1.4,0-2.1c-0.1-1.4-0.1-2.8-0.4-4.1c-0.3-2.7-1.1-5.4-1.9-8.1c-0.9-2.6-1.9-5.2-3.2-7.7c-4.9-9.9-12-18.7-20.6-25.7
				c-4.3-3.5-8.9-6.6-13.9-9c-5-2.4-10.2-4.3-15.7-5.1c-2.7-0.4-5.5-0.7-8.3-0.6c-2.8,0.1-5.5,0-8.3,0.3c-1.4,0.1-2.8,0.2-4.1,0.4
				l-4.1,0.7c-0.7,0.1-1.4,0.2-2,0.4l-2,0.5l-2,0.5l-1,0.3l-1,0.3c-5.3,1.6-10.3,4.1-14.9,7.2c-1.1,0.8-2.2,1.7-3.3,2.5
				c-1,0.9-2.1,1.8-3.1,2.8c-2,1.9-3.8,4.1-5.2,6.4L709.1,45.9z"/>
		</g>
		<g>
			<path class="st0" d="M695.9,83.4c-0.6-1.5-0.5-3.2-0.4-4.8c0.2-1.6,0.6-3.2,1.1-4.7c1-3.1,2.4-5.9,3.9-8.7
				c3.2-5.5,7.3-10.6,12.1-14.9c2.4-2.2,5-4.2,7.8-5.9c2.8-1.7,5.7-3.2,8.9-4.3c0.8-0.3,1.6-0.5,2.4-0.7c0.8-0.2,1.6-0.5,2.4-0.6
				l2.5-0.4l2.5-0.2c0.8-0.1,1.7,0,2.5,0c0.8,0,1.7,0,2.5,0.1c0.8,0.1,1.7,0.2,2.5,0.3l2.5,0.5c6.6,1.7,12.4,5.4,17.3,9.7
				c2.4,2.3,4.6,4.7,6.6,7.4c1.9,2.7,3.5,5.7,4.5,8.9c1,3.2,1.6,6.5,1.6,9.8c0,3.3-0.5,6.6-1.4,9.7c-0.9,3.1-2.2,6.1-3.8,8.8
				c-1.6,2.8-3.4,5.4-5.6,7.7l-0.2-0.2c1.9-2.4,3.5-5.1,4.8-7.9c1.4-2.8,2.4-5.7,3.1-8.8c1.5-6,1.3-12.5-0.9-18.3
				c-1.1-2.9-2.6-5.6-4.4-8.2c-1.9-2.5-4-4.7-6.3-6.8c-4.7-4-10.1-7.5-16.1-8.9l-2.3-0.5c-0.8-0.1-1.5-0.2-2.3-0.3
				c-0.8-0.1-1.5-0.1-2.3-0.1c-0.8,0-1.5-0.1-2.3,0l-2.3,0.2l-2.3,0.4c-0.8,0.1-1.5,0.3-2.3,0.5c-0.7,0.2-1.5,0.4-2.2,0.7
				c-5.9,2-11.3,5.3-16,9.3c-2.4,2-4.6,4.2-6.6,6.5c-2.1,2.3-4,4.8-5.6,7.4c-1.7,2.6-3.2,5.3-4.3,8.2c-0.6,1.4-1,2.9-1.4,4.4
				c-0.3,1.5-0.4,3.1,0,4.6L695.9,83.4z"/>
		</g>
		<g>
			<path class="st0" d="M681.6,122.5c1.9-0.3,3.7-0.6,5.6-0.9c1.8-0.3,3.7-0.6,5.5-1c3.7-0.7,7.4-1.4,11-2.2
				c7.3-1.5,14.6-3.3,21.6-5.6c1.7-0.6,3.5-1.2,5.2-1.9c1.7-0.7,3.4-1.3,5-2.1c3.3-1.5,6.4-3.3,8.9-5.5c0.3-0.3,0.6-0.5,0.9-0.8
				c0.3-0.3,0.6-0.6,0.8-0.9l1.7-2.1l0.4-0.5l0.4-0.5l0.7-1.1c0.2-0.4,0.5-0.7,0.7-1.1l0.6-1.1c1.6-3,2.5-6.2,2.6-9.5
				c0.1-0.8-0.1-1.6-0.1-2.4c-0.1-0.8-0.3-1.6-0.4-2.4c-0.2-0.8-0.4-1.6-0.7-2.4c-0.3-0.8-0.6-1.6-1-2.4c-1.4-3.2-3.4-6.2-5.5-9.1
				c-0.3-0.4-0.5-0.8-0.8-1c-0.3-0.3-0.5-0.6-0.8-0.9l-0.8-0.8l-0.9-0.7c-1.3-0.9-2.8-1.7-4.4-2.3c-3.2-1.1-6.7-1.8-10.2-1.8
				c-7.1-0.1-14.3,1.8-20.2,5.9c-2.9,2-5.6,4.6-7.5,7.7c-0.4,0.8-0.9,1.6-1.3,2.4c-0.2,0.4-0.4,0.8-0.6,1.3l-0.5,1.3
				c-0.4,0.9-0.5,1.8-0.8,2.7c-0.2,0.9-0.3,1.8-0.5,2.7l-0.3,0c0.2-3.8,1.2-7.5,3-10.8c1.8-3.3,4.4-6.2,7.4-8.5
				c6.1-4.5,13.6-6.8,21.2-7c3.8-0.1,7.6,0.4,11.2,1.7c1.8,0.6,3.5,1.5,5.1,2.6c1.6,1,2.9,2.5,4,4c2.3,3,4.3,6.2,5.9,9.6
				c0.4,0.8,0.7,1.8,1.1,2.6c0.3,0.9,0.6,1.8,0.8,2.7c0.2,0.9,0.4,1.9,0.5,2.8c0.1,0.9,0.2,1.9,0.1,2.8c0,3.8-1.2,7.6-3,10.9
				l-0.7,1.2c-0.2,0.4-0.5,0.8-0.8,1.2l-0.8,1.2l-0.4,0.6l-0.4,0.5l-1.8,2.2c-0.3,0.4-0.7,0.7-1,1c-0.3,0.3-0.7,0.7-1.1,1
				c-2.9,2.5-6.3,4.3-9.7,5.8c-3.5,1.5-7,2.7-10.6,3.8c-7.2,2.1-14.6,3.7-22,4.9c-7.4,1.2-14.9,2.2-22.3,2.8L681.6,122.5z"/>
		</g>
	</g>
	<g class="st3">
		<g>
			<path class="st0" d="M864.5,83.6c-0.8-1-1.1-2.2-1.5-3.3l-0.5-1.7l-0.4-1.8c-0.4-2.3-0.7-4.7-0.8-7.1c-0.3-4.8,0-9.6,0.8-14.3
				c1.5-9.4,5-18.8,10.8-26.6c2.9-3.9,6.3-7.5,10-10.6c0.9-0.8,1.9-1.5,2.9-2.2c0.5-0.4,1-0.7,1.5-1.1l1.5-1c1-0.6,2-1.3,3.1-1.9
				l3.2-1.7c1.1-0.6,2.2-1,3.3-1.5c1.1-0.5,2.2-1,3.4-1.4l3.4-1.2l1.7-0.6l1.7-0.5c2.3-0.6,4.7-1.3,7-1.7l3.6-0.7
				c1.2-0.2,2.4-0.4,3.6-0.5l3.6-0.5c1.2-0.2,2.4-0.2,3.6-0.3l3.6-0.3l0.9-0.1l0.9,0l1.8,0c4.9-0.2,9.8,0.5,14.6,1.4
				c9.6,2.1,18.8,6,26.8,11.6c4.1,2.7,7.8,5.9,11.4,9.2c1.7,1.7,3.5,3.4,5,5.3c0.8,0.9,1.6,1.8,2.4,2.8l2.2,2.9c0.8,0.9,1.5,2,2.1,3
				c0.7,1,1.4,2,2.1,3c1.3,2.1,2.6,4.1,3.7,6.3c2.4,4.3,4.3,8.8,6,13.3c0.7,2.3,1.6,4.6,2.1,7c0.3,1.2,0.7,2.4,0.9,3.6l0.7,3.6
				c0.8,4.8,1.3,9.7,1.1,14.7l0,1.8l-0.1,1.8c-0.1,1.2-0.2,2.5-0.3,3.7c-0.4,2.4-0.7,4.9-1.4,7.3c-0.5,2.4-1.4,4.7-2.2,7.1
				c-1,2.3-1.9,4.6-3.1,6.7l-0.9,1.6l-0.4,0.8c-0.2,0.3-0.3,0.5-0.5,0.8l-2.1,3.1c-1.4,2-2.9,3.9-4.5,5.7c-3.2,3.7-6.8,7.2-11,9.9
				c-2.1,1.4-4.4,2.6-6.7,3.5c-2.4,0.9-4.8,1.7-7.3,2.1c-4.9,0.9-9.9,0.9-14.7,0.6c-4.8-0.3-9.6-0.8-14.3-1.4l-14.1-1.7
				c-4.7-0.5-9.4-1-14.1-1.3c-4.6-0.3-9.3-0.3-13.9,0.1c-4.6,0.4-9.2,1.2-13.8,2.4c-4.5,1.2-8.9,2.8-13.2,4.8
				c-4.3,1.9-8.5,4.2-12.8,6.2c-2.2,1-4.4,1.9-6.8,2.4c-1.2,0.3-2.4,0.4-3.6,0.4c-1.2,0-2.4-0.3-3.5-0.7l0.1-0.3
				c2.2,0.8,4.6,0.8,6.9,0.2c2.3-0.6,4.4-1.5,6.6-2.6c4.2-2.1,8.4-4.4,12.7-6.5c4.3-2,8.7-3.8,13.3-5.1c4.6-1.3,9.2-2.2,14-2.7
				c9.5-1.1,19,0,28.4,0.9l14.1,1.5c4.7,0.5,9.4,1,14.1,1.2c4.7,0.2,9.5,0.1,14.1-0.8c4.6-0.9,9.1-2.6,13-5.3
				c3.9-2.6,7.3-5.9,10.4-9.5c3-3.6,5.9-7.4,8.1-11.6c1.2-2,2-4.3,3-6.4c0.7-2.2,1.6-4.5,2-6.8c0.6-2.3,0.9-4.6,1.3-6.9
				c0.2-1.2,0.2-2.3,0.3-3.5l0.1-1.8l0-1.8c0.1-4.7-0.4-9.4-1.2-14.1l-0.7-3.5c-0.2-1.2-0.6-2.3-0.9-3.4c-0.5-2.3-1.4-4.5-2.1-6.8
				c-1.6-4.4-3.5-8.8-5.8-12.9c-1.1-2.1-2.4-4.1-3.6-6.1c-0.6-1-1.3-2-2-2.9c-0.7-1-1.3-2-2.1-2.9l-2.2-2.8
				c-0.7-0.9-1.5-1.8-2.3-2.7c-1.5-1.8-3.2-3.4-4.9-5.2c-3.4-3.2-7-6.4-10.9-9C969.4,10.8,960.6,7,951.4,5
				c-4.6-0.9-9.3-1.5-14.1-1.4c-2.4-0.1-4.7,0.1-7.1,0.3c-1.2,0.1-2.4,0.1-3.5,0.3l-3.5,0.4c-1.2,0.2-2.3,0.3-3.5,0.5l-3.5,0.7
				c-2.3,0.4-4.6,1-6.9,1.6l-1.7,0.4l-1.7,0.6l-3.4,1.1c-1.1,0.4-2.2,0.9-3.3,1.3c-1.1,0.5-2.2,0.9-3.2,1.4l-3.2,1.6
				c-1.1,0.5-2,1.2-3,1.8l-1.5,0.9c-0.5,0.3-1,0.7-1.4,1c-0.9,0.7-1.9,1.4-2.9,2.1c-3.7,3-7,6.4-9.9,10.1
				c-5.8,7.5-9.4,16.5-11.1,25.8c-0.8,4.6-1.2,9.4-1.1,14.1c0.1,2.4,0.3,4.7,0.6,7.1l0.3,1.7l0.4,1.7c0.4,1.1,0.6,2.3,1.3,3.2
				L864.5,83.6z"/>
		</g>
		<g>
			<path class="st0" d="M877.9,45.9c1.3-2.5,3-4.7,4.9-6.8c0.9-1.1,2-2,3-3c1.1-0.9,2.2-1.8,3.3-2.7c4.5-3.4,9.6-6.1,15-8l1-0.4
				l1-0.3l2-0.6l2.1-0.6c0.7-0.2,1.4-0.3,2.1-0.4l4.2-0.8c1.4-0.2,2.8-0.3,4.2-0.5c2.8-0.4,5.7-0.4,8.5-0.5c1.4-0.1,2.9,0,4.3,0
				l1.1,0l1.1,0.1l2.2,0.3c1.4,0.2,2.8,0.5,4.3,0.8c1.4,0.4,2.8,0.7,4.2,1.1c2.7,0.9,5.4,2,8,3.2c5.2,2.5,10,5.6,14.5,9.2
				c8.9,7.2,16.4,16.2,21.6,26.6c1.3,2.6,2.3,5.3,3.3,8.1c0.8,2.8,1.6,5.6,1.9,8.6c0.2,1.5,0.3,3,0.4,4.4c0,0.7,0,1.5,0,2.2
				c0,0.7,0,1.5-0.2,2.2l-0.3,2.2l-0.5,2.2c-0.1,0.7-0.4,1.5-0.7,2.2c-0.3,0.7-0.5,1.5-0.8,2.1c-2.6,5.7-6.8,10.1-11.8,13.4
				c-5,3.3-10.7,5.1-16.2,6.3c-5.6,1.1-11.2,1.6-16.8,2c-5.6,0.3-11.1,0.5-16.7,0.9c-11,0.5-22.1,1.6-32.4,6l-0.1-0.3
				c5-2.5,10.4-4.1,15.8-5.2c5.5-1.1,11-1.7,16.5-2.2l16.6-1.2c5.5-0.5,11.1-1.1,16.5-2.3c5.4-1.2,10.7-3.1,15.3-6.1
				c4.6-3,8.5-7.3,10.7-12.3c0.3-0.6,0.5-1.3,0.7-1.9c0.2-0.7,0.5-1.3,0.6-2l0.4-2l0.2-2c0.1-0.7,0.1-1.4,0.1-2.1
				c0-0.7,0.1-1.4,0-2.1c-0.1-1.4-0.1-2.8-0.4-4.1c-0.3-2.7-1.1-5.4-1.9-8.1c-0.9-2.6-1.9-5.2-3.2-7.7c-4.9-9.9-12-18.7-20.6-25.7
				c-4.3-3.5-8.9-6.6-13.9-9c-5-2.4-10.2-4.3-15.7-5.1c-2.7-0.4-5.5-0.7-8.3-0.6c-2.8,0.1-5.5,0-8.3,0.3c-1.4,0.1-2.8,0.2-4.1,0.4
				l-4.1,0.7c-0.7,0.1-1.4,0.2-2,0.4l-2,0.5l-2,0.5l-1,0.3l-1,0.3c-5.3,1.6-10.3,4.1-14.9,7.2c-1.1,0.8-2.2,1.7-3.3,2.5
				c-1,0.9-2.1,1.8-3.1,2.8c-2,1.9-3.8,4.1-5.2,6.4L877.9,45.9z"/>
		</g>
		<g>
			<path class="st0" d="M864.7,83.4c-0.6-1.5-0.5-3.2-0.4-4.8c0.2-1.6,0.6-3.2,1.1-4.7c1-3.1,2.4-5.9,3.9-8.7
				c3.2-5.5,7.3-10.6,12.1-14.9c2.4-2.2,5-4.2,7.8-5.9c2.8-1.7,5.7-3.2,8.9-4.3c0.8-0.3,1.6-0.5,2.4-0.7c0.8-0.2,1.6-0.5,2.4-0.6
				l2.5-0.4l2.5-0.2c0.8-0.1,1.7,0,2.5,0c0.8,0,1.7,0,2.5,0.1c0.8,0.1,1.7,0.2,2.5,0.3l2.5,0.5c6.6,1.7,12.4,5.4,17.3,9.7
				c2.4,2.3,4.6,4.7,6.6,7.4c1.9,2.7,3.5,5.7,4.5,8.9c1,3.2,1.6,6.5,1.6,9.8c0,3.3-0.5,6.6-1.4,9.7c-0.9,3.1-2.2,6.1-3.8,8.8
				c-1.6,2.8-3.4,5.4-5.6,7.7L937,101c1.9-2.4,3.5-5.1,4.8-7.9c1.4-2.8,2.4-5.7,3.1-8.8c1.5-6,1.3-12.5-0.9-18.3
				c-1.1-2.9-2.6-5.6-4.4-8.2c-1.9-2.5-4-4.7-6.3-6.8c-4.7-4-10.1-7.5-16.1-8.9l-2.3-0.5c-0.8-0.1-1.5-0.2-2.3-0.3
				c-0.8-0.1-1.5-0.1-2.3-0.1c-0.8,0-1.5-0.1-2.3,0l-2.3,0.2l-2.3,0.4c-0.8,0.1-1.5,0.3-2.3,0.5c-0.7,0.2-1.5,0.4-2.2,0.7
				c-5.9,2-11.3,5.3-16,9.3c-2.4,2-4.6,4.2-6.6,6.5c-2.1,2.3-4,4.8-5.6,7.4c-1.7,2.6-3.2,5.3-4.3,8.2c-0.6,1.4-1,2.9-1.4,4.4
				c-0.3,1.5-0.4,3.1,0,4.6L864.7,83.4z"/>
		</g>
		<g>
			<path class="st0" d="M850.4,122.5c1.9-0.3,3.7-0.6,5.6-0.9c1.8-0.3,3.7-0.6,5.5-1c3.7-0.7,7.4-1.4,11-2.2
				c7.3-1.5,14.6-3.3,21.6-5.6c1.7-0.6,3.5-1.2,5.2-1.9c1.7-0.7,3.4-1.3,5-2.1c3.3-1.5,6.4-3.3,8.9-5.5c0.3-0.3,0.6-0.5,0.9-0.8
				c0.3-0.3,0.6-0.6,0.8-0.9l1.7-2.1l0.4-0.5l0.4-0.5l0.7-1.1c0.2-0.4,0.5-0.7,0.7-1.1l0.6-1.1c1.6-3,2.5-6.2,2.6-9.5
				c0.1-0.8-0.1-1.6-0.1-2.4c-0.1-0.8-0.3-1.6-0.4-2.4c-0.2-0.8-0.4-1.6-0.7-2.4c-0.3-0.8-0.6-1.6-1-2.4c-1.4-3.2-3.4-6.2-5.5-9.1
				c-0.3-0.4-0.5-0.8-0.8-1c-0.3-0.3-0.5-0.6-0.8-0.9l-0.8-0.8l-0.9-0.7c-1.3-0.9-2.8-1.7-4.4-2.3c-3.2-1.1-6.7-1.8-10.2-1.8
				c-7.1-0.1-14.3,1.8-20.2,5.9c-2.9,2-5.6,4.6-7.5,7.7c-0.4,0.8-0.9,1.6-1.3,2.4c-0.2,0.4-0.4,0.8-0.6,1.3l-0.5,1.3
				c-0.4,0.9-0.5,1.8-0.8,2.7c-0.2,0.9-0.3,1.8-0.5,2.7l-0.3,0c0.2-3.8,1.2-7.5,3-10.8c1.8-3.3,4.4-6.2,7.4-8.5
				c6.1-4.5,13.6-6.8,21.2-7c3.8-0.1,7.6,0.4,11.2,1.7c1.8,0.6,3.5,1.5,5.1,2.6c1.6,1,2.9,2.5,4,4c2.3,3,4.3,6.2,5.9,9.6
				c0.4,0.8,0.7,1.8,1.1,2.6c0.3,0.9,0.6,1.8,0.8,2.7c0.2,0.9,0.4,1.9,0.5,2.8c0.1,0.9,0.2,1.9,0.1,2.8c0,3.8-1.2,7.6-3,10.9
				l-0.7,1.2c-0.2,0.4-0.5,0.8-0.8,1.2l-0.8,1.2l-0.4,0.6l-0.4,0.5l-1.8,2.2c-0.3,0.4-0.7,0.7-1,1c-0.3,0.3-0.7,0.7-1.1,1
				c-2.9,2.5-6.3,4.3-9.7,5.8c-3.5,1.5-7,2.7-10.6,3.8c-7.2,2.1-14.6,3.7-22,4.9c-7.4,1.2-14.9,2.2-22.3,2.8L850.4,122.5z"/>
		</g>
	</g>
	<g class="st3">
		<g>
			<path class="st0" d="M1034.8,83.6c-0.8-1-1.1-2.2-1.5-3.3l-0.5-1.7l-0.4-1.8c-0.4-2.3-0.7-4.7-0.8-7.1c-0.3-4.8,0-9.6,0.8-14.3
				c1.5-9.4,5-18.8,10.8-26.6c2.9-3.9,6.3-7.5,10-10.6c0.9-0.8,1.9-1.5,2.9-2.2c0.5-0.4,1-0.7,1.5-1.1l1.5-1c1-0.6,2-1.3,3.1-1.9
				l3.2-1.7c1.1-0.6,2.2-1,3.3-1.5c1.1-0.5,2.2-1,3.4-1.4l3.4-1.2l1.7-0.6l1.7-0.5c2.3-0.6,4.7-1.3,7-1.7l3.6-0.7
				c1.2-0.2,2.4-0.4,3.6-0.5l3.6-0.5c1.2-0.2,2.4-0.2,3.6-0.3L1104,1l0.9-0.1l0.9,0l1.8,0c4.9-0.2,9.8,0.5,14.6,1.4
				c9.6,2.1,18.8,6,26.8,11.6c4.1,2.7,7.8,5.9,11.4,9.2c1.7,1.7,3.5,3.4,5,5.3c0.8,0.9,1.6,1.8,2.4,2.8l2.2,2.9c0.8,0.9,1.5,2,2.1,3
				c0.7,1,1.4,2,2.1,3c1.3,2.1,2.6,4.1,3.7,6.3c2.4,4.3,4.3,8.8,6,13.3c0.7,2.3,1.6,4.6,2.1,7c0.3,1.2,0.7,2.4,0.9,3.6l0.7,3.6
				c0.8,4.8,1.3,9.7,1.1,14.7l0,1.8l-0.1,1.8c-0.1,1.2-0.2,2.5-0.3,3.7c-0.4,2.4-0.7,4.9-1.4,7.3c-0.5,2.4-1.4,4.7-2.2,7.1
				c-1,2.3-1.9,4.6-3.1,6.7l-0.9,1.6l-0.4,0.8c-0.2,0.3-0.3,0.5-0.5,0.8l-2.1,3.1c-1.4,2-2.9,3.9-4.5,5.7c-3.2,3.7-6.8,7.2-11,9.9
				c-2.1,1.4-4.4,2.6-6.7,3.5c-2.4,0.9-4.8,1.7-7.3,2.1c-4.9,0.9-9.9,0.9-14.7,0.6c-4.8-0.3-9.6-0.8-14.3-1.4l-14.1-1.7
				c-4.7-0.5-9.4-1-14.1-1.3c-4.6-0.3-9.3-0.3-13.9,0.1c-4.6,0.4-9.2,1.2-13.8,2.4c-4.5,1.2-8.9,2.8-13.2,4.8
				c-4.3,1.9-8.5,4.2-12.8,6.2c-2.2,1-4.4,1.9-6.8,2.4c-1.2,0.3-2.4,0.4-3.6,0.4c-1.2,0-2.4-0.3-3.5-0.7l0.1-0.3
				c2.2,0.8,4.6,0.8,6.9,0.2c2.3-0.6,4.4-1.5,6.6-2.6c4.2-2.1,8.4-4.4,12.7-6.5c4.3-2,8.7-3.8,13.3-5.1c4.6-1.3,9.2-2.2,14-2.7
				c9.5-1.1,19,0,28.4,0.9l14.1,1.5c4.7,0.5,9.4,1,14.1,1.2c4.7,0.2,9.5,0.1,14.1-0.8c4.6-0.9,9.1-2.6,13-5.3
				c3.9-2.6,7.3-5.9,10.4-9.5c3-3.6,5.9-7.4,8.1-11.6c1.2-2,2-4.3,3-6.4c0.7-2.2,1.6-4.5,2-6.8c0.6-2.3,0.9-4.6,1.3-6.9
				c0.2-1.2,0.2-2.3,0.3-3.5l0.1-1.8l0-1.8c0.1-4.7-0.4-9.4-1.2-14.1l-0.7-3.5c-0.2-1.2-0.6-2.3-0.9-3.4c-0.5-2.3-1.4-4.5-2.1-6.8
				c-1.6-4.4-3.5-8.8-5.8-12.9c-1.1-2.1-2.4-4.1-3.6-6.1c-0.6-1-1.3-2-2-2.9c-0.7-1-1.3-2-2.1-2.9l-2.2-2.8
				c-0.7-0.9-1.5-1.8-2.3-2.7c-1.5-1.8-3.2-3.4-4.9-5.2c-3.4-3.2-7-6.4-10.9-9c-7.7-5.4-16.6-9.2-25.8-11.3
				c-4.6-0.9-9.3-1.5-14.1-1.4c-2.4-0.1-4.7,0.1-7.1,0.3c-1.2,0.1-2.4,0.1-3.5,0.3l-3.5,0.4c-1.2,0.2-2.3,0.3-3.5,0.5l-3.5,0.7
				c-2.3,0.4-4.6,1-6.9,1.6l-1.7,0.4l-1.7,0.6l-3.4,1.1c-1.1,0.4-2.2,0.9-3.3,1.3c-1.1,0.5-2.2,0.9-3.2,1.4l-3.2,1.6
				c-1.1,0.5-2,1.2-3,1.8l-1.5,0.9c-0.5,0.3-1,0.7-1.4,1c-0.9,0.7-1.9,1.4-2.9,2.1c-3.7,3-7,6.4-9.9,10.1
				c-5.8,7.5-9.4,16.5-11.1,25.8c-0.8,4.6-1.2,9.4-1.1,14.1c0.1,2.4,0.3,4.7,0.6,7.1l0.3,1.7l0.4,1.7c0.4,1.1,0.6,2.3,1.3,3.2
				L1034.8,83.6z"/>
		</g>
		<g>
			<path class="st0" d="M1048.2,45.9c1.3-2.5,3-4.7,4.9-6.8c0.9-1.1,2-2,3-3c1.1-0.9,2.2-1.8,3.3-2.7c4.5-3.4,9.6-6.1,15-8l1-0.4
				l1-0.3l2-0.6l2.1-0.6c0.7-0.2,1.4-0.3,2.1-0.4l4.2-0.8c1.4-0.2,2.8-0.3,4.2-0.5c2.8-0.4,5.7-0.4,8.5-0.5c1.4-0.1,2.9,0,4.3,0
				l1.1,0l1.1,0.1l2.2,0.3c1.4,0.2,2.8,0.5,4.3,0.8c1.4,0.4,2.8,0.7,4.2,1.1c2.7,0.9,5.4,2,8,3.2c5.2,2.5,10,5.6,14.5,9.2
				c8.9,7.2,16.4,16.2,21.6,26.6c1.3,2.6,2.3,5.3,3.3,8.1c0.8,2.8,1.6,5.6,1.9,8.6c0.2,1.5,0.3,3,0.4,4.4c0,0.7,0,1.5,0,2.2
				c0,0.7,0,1.5-0.2,2.2l-0.3,2.2l-0.5,2.2c-0.1,0.7-0.4,1.5-0.7,2.2c-0.3,0.7-0.5,1.5-0.8,2.1c-2.6,5.7-6.8,10.1-11.8,13.4
				c-5,3.3-10.7,5.1-16.2,6.3c-5.6,1.1-11.2,1.6-16.8,2c-5.6,0.3-11.1,0.5-16.7,0.9c-11,0.5-22.1,1.6-32.4,6l-0.1-0.3
				c5-2.5,10.4-4.1,15.8-5.2c5.5-1.1,11-1.7,16.5-2.2l16.6-1.2c5.5-0.5,11.1-1.1,16.5-2.3c5.4-1.2,10.7-3.1,15.3-6.1
				c4.6-3,8.5-7.3,10.7-12.3c0.3-0.6,0.5-1.3,0.7-1.9c0.2-0.7,0.5-1.3,0.6-2l0.4-2l0.2-2c0.1-0.7,0.1-1.4,0.1-2.1
				c0-0.7,0.1-1.4,0-2.1c-0.1-1.4-0.1-2.8-0.4-4.1c-0.3-2.7-1.1-5.4-1.9-8.1c-0.9-2.6-1.9-5.2-3.2-7.7c-4.9-9.9-12-18.7-20.6-25.7
				c-4.3-3.5-8.9-6.6-13.9-9c-5-2.4-10.2-4.3-15.7-5.1c-2.7-0.4-5.5-0.7-8.3-0.6c-2.8,0.1-5.5,0-8.3,0.3c-1.4,0.1-2.8,0.2-4.1,0.4
				L1083,25c-0.7,0.1-1.4,0.2-2,0.4l-2,0.5l-2,0.5l-1,0.3l-1,0.3c-5.3,1.6-10.3,4.1-14.9,7.2c-1.1,0.8-2.2,1.7-3.3,2.5
				c-1,0.9-2.1,1.8-3.1,2.8c-2,1.9-3.8,4.1-5.2,6.4L1048.2,45.9z"/>
		</g>
		<g>
			<path class="st0" d="M1035,83.4c-0.6-1.5-0.5-3.2-0.4-4.8c0.2-1.6,0.6-3.2,1.1-4.7c1-3.1,2.4-5.9,3.9-8.7
				c3.2-5.5,7.3-10.6,12.1-14.9c2.4-2.2,5-4.2,7.8-5.9c2.8-1.7,5.7-3.2,8.9-4.3c0.8-0.3,1.6-0.5,2.4-0.7c0.8-0.2,1.6-0.5,2.4-0.6
				l2.5-0.4l2.5-0.2c0.8-0.1,1.7,0,2.5,0c0.8,0,1.7,0,2.5,0.1c0.8,0.1,1.7,0.2,2.5,0.3l2.5,0.5c6.6,1.7,12.4,5.4,17.3,9.7
				c2.4,2.3,4.6,4.7,6.6,7.4c1.9,2.7,3.5,5.7,4.5,8.9c1,3.2,1.6,6.5,1.6,9.8c0,3.3-0.5,6.6-1.4,9.7c-0.9,3.1-2.2,6.1-3.8,8.8
				c-1.6,2.8-3.4,5.4-5.6,7.7l-0.2-0.2c1.9-2.4,3.5-5.1,4.8-7.9c1.4-2.8,2.4-5.7,3.1-8.8c1.5-6,1.3-12.5-0.9-18.3
				c-1.1-2.9-2.6-5.6-4.4-8.2c-1.9-2.5-4-4.7-6.3-6.8c-4.7-4-10.1-7.5-16.1-8.9l-2.3-0.5c-0.8-0.1-1.5-0.2-2.3-0.3
				c-0.8-0.1-1.5-0.1-2.3-0.1c-0.8,0-1.5-0.1-2.3,0l-2.3,0.2l-2.3,0.4c-0.8,0.1-1.5,0.3-2.3,0.5c-0.7,0.2-1.5,0.4-2.2,0.7
				c-5.9,2-11.3,5.3-16,9.3c-2.4,2-4.6,4.2-6.6,6.5c-2.1,2.3-4,4.8-5.6,7.4c-1.7,2.6-3.2,5.3-4.3,8.2c-0.6,1.4-1,2.9-1.4,4.4
				c-0.3,1.5-0.4,3.1,0,4.6L1035,83.4z"/>
		</g>
		<g>
			<path class="st0" d="M1020.7,122.5c1.9-0.3,3.7-0.6,5.6-0.9c1.8-0.3,3.7-0.6,5.5-1c3.7-0.7,7.4-1.4,11-2.2
				c7.3-1.5,14.6-3.3,21.6-5.6c1.7-0.6,3.5-1.2,5.2-1.9c1.7-0.7,3.4-1.3,5-2.1c3.3-1.5,6.4-3.3,8.9-5.5c0.3-0.3,0.6-0.5,0.9-0.8
				c0.3-0.3,0.6-0.6,0.8-0.9l1.7-2.1l0.4-0.5l0.4-0.5l0.7-1.1c0.2-0.4,0.5-0.7,0.7-1.1l0.6-1.1c1.6-3,2.5-6.2,2.6-9.5
				c0.1-0.8-0.1-1.6-0.1-2.4c-0.1-0.8-0.3-1.6-0.4-2.4c-0.2-0.8-0.4-1.6-0.7-2.4c-0.3-0.8-0.6-1.6-1-2.4c-1.4-3.2-3.4-6.2-5.5-9.1
				c-0.3-0.4-0.5-0.8-0.8-1c-0.3-0.3-0.5-0.6-0.8-0.9l-0.8-0.8l-0.9-0.7c-1.3-0.9-2.8-1.7-4.4-2.3c-3.2-1.1-6.7-1.8-10.2-1.8
				c-7.1-0.1-14.3,1.8-20.2,5.9c-2.9,2-5.6,4.6-7.5,7.7c-0.4,0.8-0.9,1.6-1.3,2.4c-0.2,0.4-0.4,0.8-0.6,1.3l-0.5,1.3
				c-0.4,0.9-0.5,1.8-0.8,2.7c-0.2,0.9-0.3,1.8-0.5,2.7l-0.3,0c0.2-3.8,1.2-7.5,3-10.8c1.8-3.3,4.4-6.2,7.4-8.5
				c6.1-4.5,13.6-6.8,21.2-7c3.8-0.1,7.6,0.4,11.2,1.7c1.8,0.6,3.5,1.5,5.1,2.6c1.6,1,2.9,2.5,4,4c2.3,3,4.3,6.2,5.9,9.6
				c0.4,0.8,0.7,1.8,1.1,2.6c0.3,0.9,0.6,1.8,0.8,2.7c0.2,0.9,0.4,1.9,0.5,2.8c0.1,0.9,0.2,1.9,0.1,2.8c0,3.8-1.2,7.6-3,10.9
				l-0.7,1.2c-0.2,0.4-0.5,0.8-0.8,1.2l-0.8,1.2l-0.4,0.6l-0.4,0.5l-1.8,2.2c-0.3,0.4-0.7,0.7-1,1c-0.3,0.3-0.7,0.7-1.1,1
				c-2.9,2.5-6.3,4.3-9.7,5.8c-3.5,1.5-7,2.7-10.6,3.8c-7.2,2.1-14.6,3.7-22,4.9c-7.4,1.2-14.9,2.2-22.3,2.8L1020.7,122.5z"/>
		</g>
	</g>
	<g class="st3">
		<defs>
			
				<rect id="SVGID_5_" x="1718.1" y="-584.5" transform="matrix(3.120645e-03 -1 1 3.120645e-03 1770.5378 1925.2815)" width="265.6" height="1318.3"/>
		</defs>
		<clipPath id="SVGID_6_">
			<use xlink:href="#SVGID_5_"  style="overflow:visible;"/>
		</clipPath>
		<path class="st5" d="M1174.2,123.6c0,0,100.6,0.4,90.5-42.3c-10.6-44.9-61-18.1-59,2.3c0,0-17.8-50,37.9-73.6
			c74.8-31.7,151.4,58.1,94.9,123C1274.3,206.6,1174.2,123.6,1174.2,123.6z"/>
		<path class="st5" d="M1346.3,124.4c0,0,100.6,0.4,90.5-42.3c-10.6-44.9-61-18.1-59,2.3c0,0-17.8-50,37.9-73.6
			c74.8-31.7,151.4,58.1,94.9,123C1446.4,207.4,1346.3,124.4,1346.3,124.4z"/>
		<path class="st5" d="M1517.1,124.4c0,0,100.6,0.4,90.5-42.3c-10.6-44.9-61-18.1-59,2.3c0,0-17.8-50,37.9-73.6
			c74.8-31.7,151.4,58.1,94.9,123C1617.2,207.4,1517.1,124.4,1517.1,124.4z"/>
		<path class="st5" d="M1688.7,124.4c0,0,100.6,0.4,90.5-42.3c-10.6-44.9-61-18.1-59,2.3c0,0-17.8-50,37.9-73.6
			c74.8-31.7,151.4,58.1,94.9,123C1788.8,207.4,1688.7,124.4,1688.7,124.4z"/>
		<path class="st5" d="M1859.5,124.4c0,0,100.6,0.4,90.5-42.3c-10.6-44.9-61-18.1-59,2.3c0,0-17.8-50,37.9-73.6
			c74.8-31.7,151.4,58.1,94.9,123C1959.6,207.4,1859.5,124.4,1859.5,124.4z"/>
		<path class="st5" d="M2029.4,124.4c0,0,100.6,0.4,90.5-42.3c-10.6-44.9-61-18.1-59,2.3c0,0-17.8-50,37.9-73.6
			c74.8-31.7,151.4,58.1,94.9,123C2129.5,207.4,2029.4,124.4,2029.4,124.4z"/>
		<path class="st5" d="M2199.2,126c0,0,100.6,0.4,90.5-42.3c-10.6-44.9-61-18.1-59,2.3c0,0-17.8-50,37.9-73.6
			c74.8-31.7,151.4,58.1,94.9,123C2299.4,209,2199.2,126,2199.2,126z"/>
	</g>
	<g class="st3">
		<g>
			<path class="st0" d="M1206.7,83.6c-0.8-1-1.1-2.2-1.5-3.3l-0.5-1.7l-0.4-1.8c-0.4-2.3-0.7-4.7-0.8-7.1c-0.3-4.8,0-9.6,0.8-14.3
				c1.5-9.4,5-18.8,10.8-26.6c2.9-3.9,6.3-7.5,10-10.6c0.9-0.8,1.9-1.5,2.9-2.2c0.5-0.4,1-0.7,1.5-1.1l1.5-1c1-0.6,2-1.3,3.1-1.9
				l3.2-1.7c1.1-0.6,2.2-1,3.3-1.5c1.1-0.5,2.2-1,3.4-1.4l3.4-1.2l1.7-0.6l1.7-0.5c2.3-0.6,4.7-1.3,7-1.7l3.6-0.7
				c1.2-0.2,2.4-0.4,3.6-0.5l3.6-0.5c1.2-0.2,2.4-0.2,3.6-0.3l3.6-0.3l0.9-0.1l0.9,0l1.8,0c4.9-0.2,9.8,0.5,14.6,1.4
				c9.6,2.1,18.8,6,26.8,11.6c4.1,2.7,7.8,5.9,11.4,9.2c1.7,1.7,3.5,3.4,5,5.3c0.8,0.9,1.6,1.8,2.4,2.8l2.2,2.9c0.8,0.9,1.5,2,2.1,3
				c0.7,1,1.4,2,2.1,3c1.3,2.1,2.6,4.1,3.7,6.3c2.4,4.3,4.3,8.8,6,13.3c0.7,2.3,1.6,4.6,2.1,7c0.3,1.2,0.7,2.4,0.9,3.6l0.7,3.6
				c0.8,4.8,1.3,9.7,1.1,14.7l0,1.8l-0.1,1.8c-0.1,1.2-0.2,2.5-0.3,3.7c-0.4,2.4-0.7,4.9-1.4,7.3c-0.5,2.4-1.4,4.7-2.2,7.1
				c-1,2.3-1.9,4.6-3.1,6.7l-0.9,1.6l-0.4,0.8c-0.2,0.3-0.3,0.5-0.5,0.8l-2.1,3.1c-1.4,2-2.9,3.9-4.5,5.7c-3.2,3.7-6.8,7.2-11,9.9
				c-2.1,1.4-4.4,2.6-6.7,3.5c-2.4,0.9-4.8,1.7-7.3,2.1c-4.9,0.9-9.9,0.9-14.7,0.6c-4.8-0.3-9.6-0.8-14.3-1.4l-14.1-1.7
				c-4.7-0.5-9.4-1-14.1-1.3c-4.6-0.3-9.3-0.3-13.9,0.1c-4.6,0.4-9.2,1.2-13.8,2.4c-4.5,1.2-8.9,2.8-13.2,4.8
				c-4.3,1.9-8.5,4.2-12.8,6.2c-2.2,1-4.4,1.9-6.8,2.4c-1.2,0.3-2.4,0.4-3.6,0.4c-1.2,0-2.4-0.3-3.5-0.7l0.1-0.3
				c2.2,0.8,4.6,0.8,6.9,0.2c2.3-0.6,4.4-1.5,6.6-2.6c4.2-2.1,8.4-4.4,12.7-6.5c4.3-2,8.7-3.8,13.3-5.1c4.6-1.3,9.2-2.2,14-2.7
				c9.5-1.1,19,0,28.4,0.9l14.1,1.5c4.7,0.5,9.4,1,14.1,1.2c4.7,0.2,9.5,0.1,14.1-0.8c4.6-0.9,9.1-2.6,13-5.3
				c3.9-2.6,7.3-5.9,10.4-9.5c3-3.6,5.9-7.4,8.1-11.6c1.2-2,2-4.3,3-6.4c0.7-2.2,1.6-4.5,2-6.8c0.6-2.3,0.9-4.6,1.3-6.9
				c0.2-1.2,0.2-2.3,0.3-3.5l0.1-1.8l0-1.8c0.1-4.7-0.4-9.4-1.2-14.1l-0.7-3.5c-0.2-1.2-0.6-2.3-0.9-3.4c-0.5-2.3-1.4-4.5-2.1-6.8
				c-1.6-4.4-3.5-8.8-5.8-12.9c-1.1-2.1-2.4-4.1-3.6-6.1c-0.6-1-1.3-2-2-2.9c-0.7-1-1.3-2-2.1-2.9l-2.2-2.8
				c-0.7-0.9-1.5-1.8-2.3-2.7c-1.5-1.8-3.2-3.4-4.9-5.2c-3.4-3.2-7-6.4-10.9-9c-7.7-5.4-16.6-9.2-25.8-11.3
				c-4.6-0.9-9.3-1.5-14.1-1.4c-2.4-0.1-4.7,0.1-7.1,0.3c-1.2,0.1-2.4,0.1-3.5,0.3l-3.5,0.4c-1.2,0.2-2.3,0.3-3.5,0.5l-3.5,0.7
				c-2.3,0.4-4.6,1-6.9,1.6l-1.7,0.4l-1.7,0.6l-3.4,1.1c-1.1,0.4-2.2,0.9-3.3,1.3c-1.1,0.5-2.2,0.9-3.2,1.4l-3.2,1.6
				c-1.1,0.5-2,1.2-3,1.8l-1.5,0.9c-0.5,0.3-1,0.7-1.4,1c-0.9,0.7-1.9,1.4-2.9,2.1c-3.7,3-7,6.4-9.9,10.1
				c-5.8,7.5-9.4,16.5-11.1,25.8c-0.8,4.6-1.2,9.4-1.1,14.1c0.1,2.4,0.3,4.7,0.6,7.1l0.3,1.7l0.4,1.7c0.4,1.1,0.6,2.3,1.3,3.2
				L1206.7,83.6z"/>
		</g>
		<g>
			<path class="st0" d="M1220.1,45.9c1.3-2.5,3-4.7,4.9-6.8c0.9-1.1,2-2,3-3c1.1-0.9,2.2-1.8,3.3-2.7c4.5-3.4,9.6-6.1,15-8l1-0.4
				l1-0.3l2-0.6l2.1-0.6c0.7-0.2,1.4-0.3,2.1-0.4l4.2-0.8c1.4-0.2,2.8-0.3,4.2-0.5c2.8-0.4,5.7-0.4,8.5-0.5c1.4-0.1,2.9,0,4.3,0
				l1.1,0l1.1,0.1l2.2,0.3c1.4,0.2,2.8,0.5,4.3,0.8c1.4,0.4,2.8,0.7,4.2,1.1c2.7,0.9,5.4,2,8,3.2c5.2,2.5,10,5.6,14.5,9.2
				c8.9,7.2,16.4,16.2,21.6,26.6c1.3,2.6,2.3,5.3,3.3,8.1c0.8,2.8,1.6,5.6,1.9,8.6c0.2,1.5,0.3,3,0.4,4.4c0,0.7,0,1.5,0,2.2
				c0,0.7,0,1.5-0.2,2.2l-0.3,2.2l-0.5,2.2c-0.1,0.7-0.4,1.5-0.7,2.2c-0.3,0.7-0.5,1.5-0.8,2.1c-2.6,5.7-6.8,10.1-11.8,13.4
				c-5,3.3-10.7,5.1-16.2,6.3c-5.6,1.1-11.2,1.6-16.8,2c-5.6,0.3-11.1,0.5-16.7,0.9c-11,0.5-22.1,1.6-32.4,6l-0.1-0.3
				c5-2.5,10.4-4.1,15.8-5.2c5.5-1.1,11-1.7,16.5-2.2l16.6-1.2c5.5-0.5,11.1-1.1,16.5-2.3c5.4-1.2,10.7-3.1,15.3-6.1
				c4.6-3,8.5-7.3,10.7-12.3c0.3-0.6,0.5-1.3,0.7-1.9c0.2-0.7,0.5-1.3,0.6-2l0.4-2l0.2-2c0.1-0.7,0.1-1.4,0.1-2.1
				c0-0.7,0.1-1.4,0-2.1c-0.1-1.4-0.1-2.8-0.4-4.1c-0.3-2.7-1.1-5.4-1.9-8.1c-0.9-2.6-1.9-5.2-3.2-7.7c-4.9-9.9-12-18.7-20.6-25.7
				c-4.3-3.5-8.9-6.6-13.9-9c-5-2.4-10.2-4.3-15.7-5.1c-2.7-0.4-5.5-0.7-8.3-0.6c-2.8,0.1-5.5,0-8.3,0.3c-1.4,0.1-2.8,0.2-4.1,0.4
				l-4.1,0.7c-0.7,0.1-1.4,0.2-2,0.4l-2,0.5l-2,0.5l-1,0.3l-1,0.3c-5.3,1.6-10.3,4.1-14.9,7.2c-1.1,0.8-2.2,1.7-3.3,2.5
				c-1,0.9-2.1,1.8-3.1,2.8c-2,1.9-3.8,4.1-5.2,6.4L1220.1,45.9z"/>
		</g>
		<g>
			<path class="st0" d="M1206.9,83.4c-0.6-1.5-0.5-3.2-0.4-4.8c0.2-1.6,0.6-3.2,1.1-4.7c1-3.1,2.4-5.9,3.9-8.7
				c3.2-5.5,7.3-10.6,12.1-14.9c2.4-2.2,5-4.2,7.8-5.9c2.8-1.7,5.7-3.2,8.9-4.3c0.8-0.3,1.6-0.5,2.4-0.7c0.8-0.2,1.6-0.5,2.4-0.6
				l2.5-0.4l2.5-0.2c0.8-0.1,1.7,0,2.5,0c0.8,0,1.7,0,2.5,0.1c0.8,0.1,1.7,0.2,2.5,0.3l2.5,0.5c6.6,1.7,12.4,5.4,17.3,9.7
				c2.4,2.3,4.6,4.7,6.6,7.4c1.9,2.7,3.5,5.7,4.5,8.9c1,3.2,1.6,6.5,1.6,9.8c0,3.3-0.5,6.6-1.4,9.7c-0.9,3.1-2.2,6.1-3.8,8.8
				c-1.6,2.8-3.4,5.4-5.6,7.7l-0.2-0.2c1.9-2.4,3.5-5.1,4.8-7.9c1.4-2.8,2.4-5.7,3.1-8.8c1.5-6,1.3-12.5-0.9-18.3
				c-1.1-2.9-2.6-5.6-4.4-8.2c-1.9-2.5-4-4.7-6.3-6.8c-4.7-4-10.1-7.5-16.1-8.9l-2.3-0.5c-0.8-0.1-1.5-0.2-2.3-0.3
				c-0.8-0.1-1.5-0.1-2.3-0.1c-0.8,0-1.5-0.1-2.3,0l-2.3,0.2l-2.3,0.4c-0.8,0.1-1.5,0.3-2.3,0.5c-0.7,0.2-1.5,0.4-2.2,0.7
				c-5.9,2-11.3,5.3-16,9.3c-2.4,2-4.6,4.2-6.6,6.5c-2.1,2.3-4,4.8-5.6,7.4c-1.7,2.6-3.2,5.3-4.3,8.2c-0.6,1.4-1,2.9-1.4,4.4
				c-0.3,1.5-0.4,3.1,0,4.6L1206.9,83.4z"/>
		</g>
		<g>
			<path class="st0" d="M1192.6,122.5c1.9-0.3,3.7-0.6,5.6-0.9c1.8-0.3,3.7-0.6,5.5-1c3.7-0.7,7.4-1.4,11-2.2
				c7.3-1.5,14.6-3.3,21.6-5.6c1.7-0.6,3.5-1.2,5.2-1.9c1.7-0.7,3.4-1.3,5-2.1c3.3-1.5,6.4-3.3,8.9-5.5c0.3-0.3,0.6-0.5,0.9-0.8
				c0.3-0.3,0.6-0.6,0.8-0.9l1.7-2.1l0.4-0.5l0.4-0.5l0.7-1.1c0.2-0.4,0.5-0.7,0.7-1.1l0.6-1.1c1.6-3,2.5-6.2,2.6-9.5
				c0.1-0.8-0.1-1.6-0.1-2.4c-0.1-0.8-0.3-1.6-0.4-2.4c-0.2-0.8-0.4-1.6-0.7-2.4c-0.3-0.8-0.6-1.6-1-2.4c-1.4-3.2-3.4-6.2-5.5-9.1
				c-0.3-0.4-0.5-0.8-0.8-1c-0.3-0.3-0.5-0.6-0.8-0.9l-0.8-0.8l-0.9-0.7c-1.3-0.9-2.8-1.7-4.4-2.3c-3.2-1.1-6.7-1.8-10.2-1.8
				c-7.1-0.1-14.3,1.8-20.2,5.9c-2.9,2-5.6,4.6-7.5,7.7c-0.4,0.8-0.9,1.6-1.3,2.4c-0.2,0.4-0.4,0.8-0.6,1.3l-0.5,1.3
				c-0.4,0.9-0.5,1.8-0.8,2.7c-0.2,0.9-0.3,1.8-0.5,2.7l-0.3,0c0.2-3.8,1.2-7.5,3-10.8c1.8-3.3,4.4-6.2,7.4-8.5
				c6.1-4.5,13.6-6.8,21.2-7c3.8-0.1,7.6,0.4,11.2,1.7c1.8,0.6,3.5,1.5,5.1,2.6c1.6,1,2.9,2.5,4,4c2.3,3,4.3,6.2,5.9,9.6
				c0.4,0.8,0.7,1.8,1.1,2.6c0.3,0.9,0.6,1.8,0.8,2.7c0.2,0.9,0.4,1.9,0.5,2.8c0.1,0.9,0.2,1.9,0.1,2.8c0,3.8-1.2,7.6-3,10.9
				l-0.7,1.2c-0.2,0.4-0.5,0.8-0.8,1.2l-0.8,1.2l-0.4,0.6l-0.4,0.5l-1.8,2.2c-0.3,0.4-0.7,0.7-1,1c-0.3,0.3-0.7,0.7-1.1,1
				c-2.9,2.5-6.3,4.3-9.7,5.8c-3.5,1.5-7,2.7-10.6,3.8c-7.2,2.1-14.6,3.7-22,4.9c-7.4,1.2-14.9,2.2-22.3,2.8L1192.6,122.5z"/>
		</g>
	</g>
	<g class="st3">
		<g>
			<path class="st0" d="M1378.9,83.6c-0.8-1-1.1-2.2-1.5-3.3l-0.5-1.7l-0.4-1.8c-0.4-2.3-0.7-4.7-0.8-7.1c-0.3-4.8,0-9.6,0.8-14.3
				c1.5-9.4,5-18.8,10.8-26.6c2.9-3.9,6.3-7.5,10-10.6c0.9-0.8,1.9-1.5,2.9-2.2c0.5-0.4,1-0.7,1.5-1.1l1.5-1c1-0.6,2-1.3,3.1-1.9
				l3.2-1.7c1.1-0.6,2.2-1,3.3-1.5c1.1-0.5,2.2-1,3.4-1.4l3.4-1.2l1.7-0.6l1.7-0.5c2.3-0.6,4.7-1.3,7-1.7l3.6-0.7
				c1.2-0.2,2.4-0.4,3.6-0.5l3.6-0.5c1.2-0.2,2.4-0.2,3.6-0.3l3.6-0.3L1449,1l0.9,0l1.8,0c4.9-0.2,9.8,0.5,14.6,1.4
				c9.6,2.1,18.8,6,26.8,11.6c4.1,2.7,7.8,5.9,11.4,9.2c1.7,1.7,3.5,3.4,5,5.3c0.8,0.9,1.6,1.8,2.4,2.8l2.2,2.9c0.8,0.9,1.5,2,2.1,3
				c0.7,1,1.4,2,2.1,3c1.3,2.1,2.6,4.1,3.7,6.3c2.4,4.3,4.3,8.8,6,13.3c0.7,2.3,1.6,4.6,2.1,7c0.3,1.2,0.7,2.4,0.9,3.6l0.7,3.6
				c0.8,4.8,1.3,9.7,1.1,14.7l0,1.8l-0.1,1.8c-0.1,1.2-0.2,2.5-0.3,3.7c-0.4,2.4-0.7,4.9-1.4,7.3c-0.5,2.4-1.4,4.7-2.2,7.1
				c-1,2.3-1.9,4.6-3.1,6.7l-0.9,1.6l-0.4,0.8c-0.2,0.3-0.3,0.5-0.5,0.8l-2.1,3.1c-1.4,2-2.9,3.9-4.5,5.7c-3.2,3.7-6.8,7.2-11,9.9
				c-2.1,1.4-4.4,2.6-6.7,3.5c-2.4,0.9-4.8,1.7-7.3,2.1c-4.9,0.9-9.9,0.9-14.7,0.6c-4.8-0.3-9.6-0.8-14.3-1.4l-14.1-1.7
				c-4.7-0.5-9.4-1-14.1-1.3c-4.6-0.3-9.3-0.3-13.9,0.1c-4.6,0.4-9.2,1.2-13.8,2.4c-4.5,1.2-8.9,2.8-13.2,4.8
				c-4.3,1.9-8.5,4.2-12.8,6.2c-2.2,1-4.4,1.9-6.8,2.4c-1.2,0.3-2.4,0.4-3.6,0.4c-1.2,0-2.4-0.3-3.5-0.7l0.1-0.3
				c2.2,0.8,4.6,0.8,6.9,0.2c2.3-0.6,4.4-1.5,6.6-2.6c4.2-2.1,8.4-4.4,12.7-6.5c4.3-2,8.7-3.8,13.3-5.1c4.6-1.3,9.2-2.2,14-2.7
				c9.5-1.1,19,0,28.4,0.9l14.1,1.5c4.7,0.5,9.4,1,14.1,1.2c4.7,0.2,9.5,0.1,14.1-0.8c4.6-0.9,9.1-2.6,13-5.3
				c3.9-2.6,7.3-5.9,10.4-9.5c3-3.6,5.9-7.4,8.1-11.6c1.2-2,2-4.3,3-6.4c0.7-2.2,1.6-4.5,2-6.8c0.6-2.3,0.9-4.6,1.3-6.9
				c0.2-1.2,0.2-2.3,0.3-3.5l0.1-1.8l0-1.8c0.1-4.7-0.4-9.4-1.2-14.1l-0.7-3.5c-0.2-1.2-0.6-2.3-0.9-3.4c-0.5-2.3-1.4-4.5-2.1-6.8
				c-1.6-4.4-3.5-8.8-5.8-12.9c-1.1-2.1-2.4-4.1-3.6-6.1c-0.6-1-1.3-2-2-2.9c-0.7-1-1.3-2-2.1-2.9l-2.2-2.8
				c-0.7-0.9-1.5-1.8-2.3-2.7c-1.5-1.8-3.2-3.4-4.9-5.2c-3.4-3.2-7-6.4-10.9-9c-7.7-5.4-16.6-9.2-25.8-11.3
				c-4.6-0.9-9.3-1.5-14.1-1.4c-2.4-0.1-4.7,0.1-7.1,0.3c-1.2,0.1-2.4,0.1-3.5,0.3l-3.5,0.4c-1.2,0.2-2.3,0.3-3.5,0.5l-3.5,0.7
				c-2.3,0.4-4.6,1-6.9,1.6l-1.7,0.4l-1.7,0.6l-3.4,1.1c-1.1,0.4-2.2,0.9-3.3,1.3c-1.1,0.5-2.2,0.9-3.2,1.4l-3.2,1.6
				c-1.1,0.5-2,1.2-3,1.8l-1.5,0.9c-0.5,0.3-1,0.7-1.4,1c-0.9,0.7-1.9,1.4-2.9,2.1c-3.7,3-7,6.4-9.9,10.1
				c-5.8,7.5-9.4,16.5-11.1,25.8c-0.8,4.6-1.2,9.4-1.1,14.1c0.1,2.4,0.3,4.7,0.6,7.1l0.3,1.7l0.4,1.7c0.4,1.1,0.6,2.3,1.3,3.2
				L1378.9,83.6z"/>
		</g>
		<g>
			<path class="st0" d="M1392.3,45.9c1.3-2.5,3-4.7,4.9-6.8c0.9-1.1,2-2,3-3c1.1-0.9,2.2-1.8,3.3-2.7c4.5-3.4,9.6-6.1,15-8l1-0.4
				l1-0.3l2-0.6l2.1-0.6c0.7-0.2,1.4-0.3,2.1-0.4l4.2-0.8c1.4-0.2,2.8-0.3,4.2-0.5c2.8-0.4,5.7-0.4,8.5-0.5c1.4-0.1,2.9,0,4.3,0
				l1.1,0l1.1,0.1l2.2,0.3c1.4,0.2,2.8,0.5,4.3,0.8c1.4,0.4,2.8,0.7,4.2,1.1c2.7,0.9,5.4,2,8,3.2c5.2,2.5,10,5.6,14.5,9.2
				c8.9,7.2,16.4,16.2,21.6,26.6c1.3,2.6,2.3,5.3,3.3,8.1c0.8,2.8,1.6,5.6,1.9,8.6c0.2,1.5,0.3,3,0.4,4.4c0,0.7,0,1.5,0,2.2
				c0,0.7,0,1.5-0.2,2.2l-0.3,2.2l-0.5,2.2c-0.1,0.7-0.4,1.5-0.7,2.2c-0.3,0.7-0.5,1.5-0.8,2.1c-2.6,5.7-6.8,10.1-11.8,13.4
				c-5,3.3-10.7,5.1-16.2,6.3c-5.6,1.1-11.2,1.6-16.8,2c-5.6,0.3-11.1,0.5-16.7,0.9c-11,0.5-22.1,1.6-32.4,6l-0.1-0.3
				c5-2.5,10.4-4.1,15.8-5.2c5.5-1.1,11-1.7,16.5-2.2l16.6-1.2c5.5-0.5,11.1-1.1,16.5-2.3c5.4-1.2,10.7-3.1,15.3-6.1
				c4.6-3,8.5-7.3,10.7-12.3c0.3-0.6,0.5-1.3,0.7-1.9c0.2-0.7,0.5-1.3,0.6-2l0.4-2l0.2-2c0.1-0.7,0.1-1.4,0.1-2.1
				c0-0.7,0.1-1.4,0-2.1c-0.1-1.4-0.1-2.8-0.4-4.1c-0.3-2.7-1.1-5.4-1.9-8.1c-0.9-2.6-1.9-5.2-3.2-7.7c-4.9-9.9-12-18.7-20.6-25.7
				c-4.3-3.5-8.9-6.6-13.9-9c-5-2.4-10.2-4.3-15.7-5.1c-2.7-0.4-5.5-0.7-8.3-0.6c-2.8,0.1-5.5,0-8.3,0.3c-1.4,0.1-2.8,0.2-4.1,0.4
				l-4.1,0.7c-0.7,0.1-1.4,0.2-2,0.4l-2,0.5l-2,0.5l-1,0.3l-1,0.3c-5.3,1.6-10.3,4.1-14.9,7.2c-1.1,0.8-2.2,1.7-3.3,2.5
				c-1,0.9-2.1,1.8-3.1,2.8c-2,1.9-3.8,4.1-5.2,6.4L1392.3,45.9z"/>
		</g>
		<g>
			<path class="st0" d="M1379.1,83.4c-0.6-1.5-0.5-3.2-0.4-4.8c0.2-1.6,0.6-3.2,1.1-4.7c1-3.1,2.4-5.9,3.9-8.7
				c3.2-5.5,7.3-10.6,12.1-14.9c2.4-2.2,5-4.2,7.8-5.9c2.8-1.7,5.7-3.2,8.9-4.3c0.8-0.3,1.6-0.5,2.4-0.7c0.8-0.2,1.6-0.5,2.4-0.6
				l2.5-0.4l2.5-0.2c0.8-0.1,1.7,0,2.5,0c0.8,0,1.7,0,2.5,0.1c0.8,0.1,1.7,0.2,2.5,0.3l2.5,0.5c6.6,1.7,12.4,5.4,17.3,9.7
				c2.4,2.3,4.6,4.7,6.6,7.4c1.9,2.7,3.5,5.7,4.5,8.9c1,3.2,1.6,6.5,1.6,9.8c0,3.3-0.5,6.6-1.4,9.7c-0.9,3.1-2.2,6.1-3.8,8.8
				c-1.6,2.8-3.4,5.4-5.6,7.7l-0.2-0.2c1.9-2.4,3.5-5.1,4.8-7.9c1.4-2.8,2.4-5.7,3.1-8.8c1.5-6,1.3-12.5-0.9-18.3
				c-1.1-2.9-2.6-5.6-4.4-8.2c-1.9-2.5-4-4.7-6.3-6.8c-4.7-4-10.1-7.5-16.1-8.9l-2.3-0.5c-0.8-0.1-1.5-0.2-2.3-0.3
				c-0.8-0.1-1.5-0.1-2.3-0.1c-0.8,0-1.5-0.1-2.3,0l-2.3,0.2l-2.3,0.4c-0.8,0.1-1.5,0.3-2.3,0.5c-0.7,0.2-1.5,0.4-2.2,0.7
				c-5.9,2-11.3,5.3-16,9.3c-2.4,2-4.6,4.2-6.6,6.5c-2.1,2.3-4,4.8-5.6,7.4c-1.7,2.6-3.2,5.3-4.3,8.2c-0.6,1.4-1,2.9-1.4,4.4
				c-0.3,1.5-0.4,3.1,0,4.6L1379.1,83.4z"/>
		</g>
		<g>
			<path class="st0" d="M1364.8,122.5c1.9-0.3,3.7-0.6,5.6-0.9c1.8-0.3,3.7-0.6,5.5-1c3.7-0.7,7.4-1.4,11-2.2
				c7.3-1.5,14.6-3.3,21.6-5.6c1.7-0.6,3.5-1.2,5.2-1.9c1.7-0.7,3.4-1.3,5-2.1c3.3-1.5,6.4-3.3,8.9-5.5c0.3-0.3,0.6-0.5,0.9-0.8
				c0.3-0.3,0.6-0.6,0.8-0.9l1.7-2.1l0.4-0.5l0.4-0.5l0.7-1.1c0.2-0.4,0.5-0.7,0.7-1.1l0.6-1.1c1.6-3,2.5-6.2,2.6-9.5
				c0.1-0.8-0.1-1.6-0.1-2.4c-0.1-0.8-0.3-1.6-0.4-2.4c-0.2-0.8-0.4-1.6-0.7-2.4c-0.3-0.8-0.6-1.6-1-2.4c-1.4-3.2-3.4-6.2-5.5-9.1
				c-0.3-0.4-0.5-0.8-0.8-1c-0.3-0.3-0.5-0.6-0.8-0.9l-0.8-0.8l-0.9-0.7c-1.3-0.9-2.8-1.7-4.4-2.3c-3.2-1.1-6.7-1.8-10.2-1.8
				c-7.1-0.1-14.3,1.8-20.2,5.9c-2.9,2-5.6,4.6-7.5,7.7c-0.4,0.8-0.9,1.6-1.3,2.4c-0.2,0.4-0.4,0.8-0.6,1.3l-0.5,1.3
				c-0.4,0.9-0.5,1.8-0.8,2.7c-0.2,0.9-0.3,1.8-0.5,2.7l-0.3,0c0.2-3.8,1.2-7.5,3-10.8c1.8-3.3,4.4-6.2,7.4-8.5
				c6.1-4.5,13.6-6.8,21.2-7c3.8-0.1,7.6,0.4,11.2,1.7c1.8,0.6,3.5,1.5,5.1,2.6c1.6,1,2.9,2.5,4,4c2.3,3,4.3,6.2,5.9,9.6
				c0.4,0.8,0.7,1.8,1.1,2.6c0.3,0.9,0.6,1.8,0.8,2.7c0.2,0.9,0.4,1.9,0.5,2.8c0.1,0.9,0.2,1.9,0.1,2.8c0,3.8-1.2,7.6-3,10.9
				l-0.7,1.2c-0.2,0.4-0.5,0.8-0.8,1.2l-0.8,1.2l-0.4,0.6l-0.4,0.5l-1.8,2.2c-0.3,0.4-0.7,0.7-1,1c-0.3,0.3-0.7,0.7-1.1,1
				c-2.9,2.5-6.3,4.3-9.7,5.8c-3.5,1.5-7,2.7-10.6,3.8c-7.2,2.1-14.6,3.7-22,4.9c-7.4,1.2-14.9,2.2-22.3,2.8L1364.8,122.5z"/>
		</g>
	</g>
	<g class="st3">
		<g>
			<path class="st0" d="M1549.7,83.6c-0.8-1-1.1-2.2-1.5-3.3l-0.5-1.7l-0.4-1.8c-0.4-2.3-0.7-4.7-0.8-7.1c-0.3-4.8,0-9.6,0.8-14.3
				c1.5-9.4,5-18.8,10.8-26.6c2.9-3.9,6.3-7.5,10-10.6c0.9-0.8,1.9-1.5,2.9-2.2c0.5-0.4,1-0.7,1.5-1.1l1.5-1c1-0.6,2-1.3,3.1-1.9
				l3.2-1.7c1.1-0.6,2.2-1,3.3-1.5c1.1-0.5,2.2-1,3.4-1.4l3.4-1.2l1.7-0.6l1.7-0.5c2.3-0.6,4.7-1.3,7-1.7l3.6-0.7
				c1.2-0.2,2.4-0.4,3.6-0.5l3.6-0.5c1.2-0.2,2.4-0.2,3.6-0.3l3.6-0.3l0.9-0.1l0.9,0l1.8,0c4.9-0.2,9.8,0.5,14.6,1.4
				c9.6,2.1,18.8,6,26.8,11.6c4.1,2.7,7.8,5.9,11.4,9.2c1.7,1.7,3.5,3.4,5,5.3c0.8,0.9,1.6,1.8,2.4,2.8l2.2,2.9c0.8,0.9,1.5,2,2.1,3
				c0.7,1,1.4,2,2.1,3c1.3,2.1,2.6,4.1,3.7,6.3c2.4,4.3,4.3,8.8,6,13.3c0.7,2.3,1.6,4.6,2.1,7c0.3,1.2,0.7,2.4,0.9,3.6l0.7,3.6
				c0.8,4.8,1.3,9.7,1.1,14.7l0,1.8l-0.1,1.8c-0.1,1.2-0.2,2.5-0.3,3.7c-0.4,2.4-0.7,4.9-1.4,7.3c-0.5,2.4-1.4,4.7-2.2,7.1
				c-1,2.3-1.9,4.6-3.1,6.7l-0.9,1.6l-0.4,0.8c-0.2,0.3-0.3,0.5-0.5,0.8l-2.1,3.1c-1.4,2-2.9,3.9-4.5,5.7c-3.2,3.7-6.8,7.2-11,9.9
				c-2.1,1.4-4.4,2.6-6.7,3.5c-2.4,0.9-4.8,1.7-7.3,2.1c-4.9,0.9-9.9,0.9-14.7,0.6c-4.8-0.3-9.6-0.8-14.3-1.4l-14.1-1.7
				c-4.7-0.5-9.4-1-14.1-1.3c-4.6-0.3-9.3-0.3-13.9,0.1c-4.6,0.4-9.2,1.2-13.8,2.4c-4.5,1.2-8.9,2.8-13.2,4.8
				c-4.3,1.9-8.5,4.2-12.8,6.2c-2.2,1-4.4,1.9-6.8,2.4c-1.2,0.3-2.4,0.4-3.6,0.4c-1.2,0-2.4-0.3-3.5-0.7l0.1-0.3
				c2.2,0.8,4.6,0.8,6.9,0.2c2.3-0.6,4.4-1.5,6.6-2.6c4.2-2.1,8.4-4.4,12.7-6.5c4.3-2,8.7-3.8,13.3-5.1c4.6-1.3,9.2-2.2,14-2.7
				c9.5-1.1,19,0,28.4,0.9l14.1,1.5c4.7,0.5,9.4,1,14.1,1.2c4.7,0.2,9.5,0.1,14.1-0.8c4.6-0.9,9.1-2.6,13-5.3
				c3.9-2.6,7.3-5.9,10.4-9.5c3-3.6,5.9-7.4,8.1-11.6c1.2-2,2-4.3,3-6.4c0.7-2.2,1.6-4.5,2-6.8c0.6-2.3,0.9-4.6,1.3-6.9
				c0.2-1.2,0.2-2.3,0.3-3.5l0.1-1.8l0-1.8c0.1-4.7-0.4-9.4-1.2-14.1l-0.7-3.5c-0.2-1.2-0.6-2.3-0.9-3.4c-0.5-2.3-1.4-4.5-2.1-6.8
				c-1.6-4.4-3.5-8.8-5.8-12.9c-1.1-2.1-2.4-4.1-3.6-6.1c-0.6-1-1.3-2-2-2.9c-0.7-1-1.3-2-2.1-2.9l-2.2-2.8
				c-0.7-0.9-1.5-1.8-2.3-2.7c-1.5-1.8-3.2-3.4-4.9-5.2c-3.4-3.2-7-6.4-10.9-9c-7.7-5.4-16.6-9.2-25.8-11.3
				c-4.6-0.9-9.3-1.5-14.1-1.4c-2.4-0.1-4.7,0.1-7.1,0.3c-1.2,0.1-2.4,0.1-3.5,0.3l-3.5,0.4c-1.2,0.2-2.3,0.3-3.5,0.5l-3.5,0.7
				c-2.3,0.4-4.6,1-6.9,1.6l-1.7,0.4l-1.7,0.6l-3.4,1.1c-1.1,0.4-2.2,0.9-3.3,1.3c-1.1,0.5-2.2,0.9-3.2,1.4l-3.2,1.6
				c-1.1,0.5-2,1.2-3,1.8l-1.5,0.9c-0.5,0.3-1,0.7-1.4,1c-0.9,0.7-1.9,1.4-2.9,2.1c-3.7,3-7,6.4-9.9,10.1
				c-5.8,7.5-9.4,16.5-11.1,25.8c-0.8,4.6-1.2,9.4-1.1,14.1c0.1,2.4,0.3,4.7,0.6,7.1l0.3,1.7l0.4,1.7c0.4,1.1,0.6,2.3,1.3,3.2
				L1549.7,83.6z"/>
		</g>
		<g>
			<path class="st0" d="M1563.1,45.9c1.3-2.5,3-4.7,4.9-6.8c0.9-1.1,2-2,3-3c1.1-0.9,2.2-1.8,3.3-2.7c4.5-3.4,9.6-6.1,15-8l1-0.4
				l1-0.3l2-0.6l2.1-0.6c0.7-0.2,1.4-0.3,2.1-0.4l4.2-0.8c1.4-0.2,2.8-0.3,4.2-0.5c2.8-0.4,5.7-0.4,8.5-0.5c1.4-0.1,2.9,0,4.3,0
				l1.1,0l1.1,0.1l2.2,0.3c1.4,0.2,2.8,0.5,4.3,0.8c1.4,0.4,2.8,0.7,4.2,1.1c2.7,0.9,5.4,2,8,3.2c5.2,2.5,10,5.6,14.5,9.2
				c8.9,7.2,16.4,16.2,21.6,26.6c1.3,2.6,2.3,5.3,3.3,8.1c0.8,2.8,1.6,5.6,1.9,8.6c0.2,1.5,0.3,3,0.4,4.4c0,0.7,0,1.5,0,2.2
				c0,0.7,0,1.5-0.2,2.2l-0.3,2.2l-0.5,2.2c-0.1,0.7-0.4,1.5-0.7,2.2c-0.3,0.7-0.5,1.5-0.8,2.1c-2.6,5.7-6.8,10.1-11.8,13.4
				c-5,3.3-10.7,5.1-16.2,6.3c-5.6,1.1-11.2,1.6-16.8,2c-5.6,0.3-11.1,0.5-16.7,0.9c-11,0.5-22.1,1.6-32.4,6l-0.1-0.3
				c5-2.5,10.4-4.1,15.8-5.2c5.5-1.1,11-1.7,16.5-2.2l16.6-1.2c5.5-0.5,11.1-1.1,16.5-2.3c5.4-1.2,10.7-3.1,15.3-6.1
				c4.6-3,8.5-7.3,10.7-12.3c0.3-0.6,0.5-1.3,0.7-1.9c0.2-0.7,0.5-1.3,0.6-2l0.4-2l0.2-2c0.1-0.7,0.1-1.4,0.1-2.1
				c0-0.7,0.1-1.4,0-2.1c-0.1-1.4-0.1-2.8-0.4-4.1c-0.3-2.7-1.1-5.4-1.9-8.1c-0.9-2.6-1.9-5.2-3.2-7.7c-4.9-9.9-12-18.7-20.6-25.7
				c-4.3-3.5-8.9-6.6-13.9-9c-5-2.4-10.2-4.3-15.7-5.1c-2.7-0.4-5.5-0.7-8.3-0.6c-2.8,0.1-5.5,0-8.3,0.3c-1.4,0.1-2.8,0.2-4.1,0.4
				l-4.1,0.7c-0.7,0.1-1.4,0.2-2,0.4l-2,0.5l-2,0.5l-1,0.3l-1,0.3c-5.3,1.6-10.3,4.1-14.9,7.2c-1.1,0.8-2.2,1.7-3.3,2.5
				c-1,0.9-2.1,1.8-3.1,2.8c-2,1.9-3.8,4.1-5.2,6.4L1563.1,45.9z"/>
		</g>
		<g>
			<path class="st0" d="M1549.9,83.4c-0.6-1.5-0.5-3.2-0.4-4.8c0.2-1.6,0.6-3.2,1.1-4.7c1-3.1,2.4-5.9,3.9-8.7
				c3.2-5.5,7.3-10.6,12.1-14.9c2.4-2.2,5-4.2,7.8-5.9c2.8-1.7,5.7-3.2,8.9-4.3c0.8-0.3,1.6-0.5,2.4-0.7c0.8-0.2,1.6-0.5,2.4-0.6
				l2.5-0.4l2.5-0.2c0.8-0.1,1.7,0,2.5,0c0.8,0,1.7,0,2.5,0.1c0.8,0.1,1.7,0.2,2.5,0.3l2.5,0.5c6.6,1.7,12.4,5.4,17.3,9.7
				c2.4,2.3,4.6,4.7,6.6,7.4c1.9,2.7,3.5,5.7,4.5,8.9c1,3.2,1.6,6.5,1.6,9.8c0,3.3-0.5,6.6-1.4,9.7c-0.9,3.1-2.2,6.1-3.8,8.8
				c-1.6,2.8-3.4,5.4-5.6,7.7l-0.2-0.2c1.9-2.4,3.5-5.1,4.8-7.9c1.4-2.8,2.4-5.7,3.1-8.8c1.5-6,1.3-12.5-0.9-18.3
				c-1.1-2.9-2.6-5.6-4.4-8.2c-1.9-2.5-4-4.7-6.3-6.8c-4.7-4-10.1-7.5-16.1-8.9l-2.3-0.5c-0.8-0.1-1.5-0.2-2.3-0.3
				c-0.8-0.1-1.5-0.1-2.3-0.1c-0.8,0-1.5-0.1-2.3,0l-2.3,0.2l-2.3,0.4c-0.8,0.1-1.5,0.3-2.3,0.5c-0.7,0.2-1.5,0.4-2.2,0.7
				c-5.9,2-11.3,5.3-16,9.3c-2.4,2-4.6,4.2-6.6,6.5c-2.1,2.3-4,4.8-5.6,7.4c-1.7,2.6-3.2,5.3-4.3,8.2c-0.6,1.4-1,2.9-1.4,4.4
				c-0.3,1.5-0.4,3.1,0,4.6L1549.9,83.4z"/>
		</g>
		<g>
			<path class="st0" d="M1535.6,122.5c1.9-0.3,3.7-0.6,5.6-0.9c1.8-0.3,3.7-0.6,5.5-1c3.7-0.7,7.4-1.4,11-2.2
				c7.3-1.5,14.6-3.3,21.6-5.6c1.7-0.6,3.5-1.2,5.2-1.9c1.7-0.7,3.4-1.3,5-2.1c3.3-1.5,6.4-3.3,8.9-5.5c0.3-0.3,0.6-0.5,0.9-0.8
				c0.3-0.3,0.6-0.6,0.8-0.9l1.7-2.1l0.4-0.5l0.4-0.5l0.7-1.1c0.2-0.4,0.5-0.7,0.7-1.1l0.6-1.1c1.6-3,2.5-6.2,2.6-9.5
				c0.1-0.8-0.1-1.6-0.1-2.4c-0.1-0.8-0.3-1.6-0.4-2.4c-0.2-0.8-0.4-1.6-0.7-2.4c-0.3-0.8-0.6-1.6-1-2.4c-1.4-3.2-3.4-6.2-5.5-9.1
				c-0.3-0.4-0.5-0.8-0.8-1c-0.3-0.3-0.5-0.6-0.8-0.9l-0.8-0.8l-0.9-0.7c-1.3-0.9-2.8-1.7-4.4-2.3c-3.2-1.1-6.7-1.8-10.2-1.8
				c-7.1-0.1-14.3,1.8-20.2,5.9c-2.9,2-5.6,4.6-7.5,7.7c-0.4,0.8-0.9,1.6-1.3,2.4c-0.2,0.4-0.4,0.8-0.6,1.3l-0.5,1.3
				c-0.4,0.9-0.5,1.8-0.8,2.7c-0.2,0.9-0.3,1.8-0.5,2.7l-0.3,0c0.2-3.8,1.2-7.5,3-10.8c1.8-3.3,4.4-6.2,7.4-8.5
				c6.1-4.5,13.6-6.8,21.2-7c3.8-0.1,7.6,0.4,11.2,1.7c1.8,0.6,3.5,1.5,5.1,2.6c1.6,1,2.9,2.5,4,4c2.3,3,4.3,6.2,5.9,9.6
				c0.4,0.8,0.7,1.8,1.1,2.6c0.3,0.9,0.6,1.8,0.8,2.7c0.2,0.9,0.4,1.9,0.5,2.8c0.1,0.9,0.2,1.9,0.1,2.8c0,3.8-1.2,7.6-3,10.9
				l-0.7,1.2c-0.2,0.4-0.5,0.8-0.8,1.2l-0.8,1.2l-0.4,0.6l-0.4,0.5l-1.8,2.2c-0.3,0.4-0.7,0.7-1,1c-0.3,0.3-0.7,0.7-1.1,1
				c-2.9,2.5-6.3,4.3-9.7,5.8c-3.5,1.5-7,2.7-10.6,3.8c-7.2,2.1-14.6,3.7-22,4.9c-7.4,1.2-14.9,2.2-22.3,2.8L1535.6,122.5z"/>
		</g>
	</g>
</g>
</svg>
