<svg id="Layer_1" data-name="Layer 1" xmlns="http://www.w3.org/2000/svg" xmlns:xlink="http://www.w3.org/1999/xlink" viewBox="0 0 1542 186"><defs><style>.cls-1{fill:none;}.cls-2{clip-path:url(#clip-path);}.cls-3{fill:#f0f7f6;}.cls-4{fill:#fcf6f1;}.cls-5{clip-path:url(#clip-path-2);}.cls-6{fill:#e2f2f0;}.cls-7{clip-path:url(#clip-path-3);}</style><clipPath id="clip-path"><rect class="cls-1" y="-1" width="1542" height="188"/></clipPath><clipPath id="clip-path-2"><rect class="cls-1" x="233.18" y="-50.97" width="1309.09" height="263.75" transform="translate(-0.25 2.77) rotate(-0.18)"/></clipPath><clipPath id="clip-path-3"><rect class="cls-1" x="-966.3" y="-50.97" width="1309.09" height="263.75" transform="translate(-0.25 -0.97) rotate(-0.18)"/></clipPath></defs><title>Artboard 1</title><g class="cls-2"><rect class="cls-3" x="234.26" y="109.27" width="1309.09" height="654.46" transform="translate(-1.31 2.68) rotate(-0.17)"/><polygon class="cls-4" points="233.42 133.24 1542.5 128.62 1541.3 -155.26 232.48 -150.64 233.42 133.24"/><g class="cls-5"><path class="cls-3" d="M1559.68,129.51s-99.91.43-89.92-42c10.49-44.59,60.61-18,58.59,2.24,0,0,17.68-49.62-37.61-73-74.3-31.47-150.34,57.69-94.2,122.13C1460.27,211.95,1559.68,129.51,1559.68,129.51Z"/><path class="cls-3" d="M1388.82,130.31s-99.91.43-89.92-42c10.49-44.59,60.61-18,58.59,2.24,0,0,17.68-49.62-37.61-73-74.3-31.47-150.34,57.69-94.2,122.13C1289.41,212.75,1388.82,130.31,1388.82,130.31Z"/><path class="cls-3" d="M1219.25,130.31s-99.91.43-89.92-42c10.49-44.59,60.61-18,58.59,2.24,0,0,17.68-49.62-37.61-73C1076-14,1000,75.16,1056.11,139.6,1119.84,212.75,1219.25,130.31,1219.25,130.31Z"/><path class="cls-3" d="M1048.8,130.31s-99.91.43-89.92-42c10.49-44.59,60.61-18,58.59,2.24,0,0,17.68-49.62-37.61-73C905.57-14,829.52,75.16,885.67,139.6,949.39,212.75,1048.8,130.31,1048.8,130.31Z"/><path class="cls-3" d="M879.23,130.31s-99.91.43-89.92-42c10.49-44.59,60.61-18,58.59,2.24,0,0,17.68-49.62-37.61-73C736-14,660,75.16,716.1,139.6,779.82,212.75,879.23,130.31,879.23,130.31Z"/><path class="cls-3" d="M710.54,130.31s-99.91.43-89.92-42c10.49-44.59,60.61-18,58.59,2.24,0,0,17.68-49.62-37.61-73C567.3-14,491.26,75.16,547.4,139.6,611.12,212.75,710.54,130.31,710.54,130.31Z"/><path class="cls-3" d="M541.84,131.91s-99.91.43-89.92-42c10.49-44.59,60.61-18,58.59,2.24,0,0,17.68-49.62-37.61-73C398.6-12.4,322.56,76.76,378.7,141.2,442.43,214.35,541.84,131.91,541.84,131.91Z"/></g><path class="cls-6" d="M1528.24,89.61a10.88,10.88,0,0,0,1.22-3.21l.35-1.71.26-1.73a56.19,56.19,0,0,0,.43-7,66.68,66.68,0,0,0-1.35-13.88,58.6,58.6,0,0,0-11.3-25,57.2,57.2,0,0,0-9.68-9.68c-.9-.7-1.86-1.33-2.79-2-.47-.32-.92-.67-1.41-1l-1.48-.87c-1-.57-1.95-1.2-3-1.71l-3.08-1.52c-1-.54-2.1-.92-3.16-1.36s-2.12-.88-3.2-1.25l-3.28-1-1.64-.52-1.68-.42c-2.24-.54-4.46-1.15-6.74-1.48l-3.4-.6c-1.14-.19-2.29-.28-3.44-.42l-3.44-.39c-1.15-.12-2.31-.14-3.46-.22l-3.46-.19-.87,0h-.85l-1.7,0a65.36,65.36,0,0,0-13.5,1.44,69.85,69.85,0,0,0-24.75,11,81.4,81.4,0,0,0-10.53,8.7c-1.57,1.65-3.23,3.23-4.68,5-.74.87-1.51,1.71-2.22,2.61l-2.08,2.72c-.72.89-1.35,1.85-2,2.79s-1.3,1.88-1.91,2.85c-1.15,2-2.41,3.88-3.42,5.93A91.08,91.08,0,0,0,1385.52,68c-.7,2.17-1.5,4.31-2,6.52-.27,1.1-.63,2.19-.84,3.31l-.68,3.34a71,71,0,0,0-1.16,13.53v1.7l.12,1.69c.1,1.12.13,2.26.27,3.37a60.16,60.16,0,0,0,1.2,6.64,61.56,61.56,0,0,0,1.9,6.46,57,57,0,0,0,2.79,6.11l.79,1.48.4.74c.14.24.31.47.46.7l1.85,2.8c1.3,1.86,2.74,3.66,4.19,5.41a49,49,0,0,0,9.86,9.06,32.63,32.63,0,0,0,12.1,5,59.22,59.22,0,0,0,13.53.88c4.61-.13,9.27-.56,13.94-1l14.06-1.3c4.71-.4,9.4-.76,14.14-1a85.87,85.87,0,0,1,14.33.46,79.94,79.94,0,0,1,14,3,90.07,90.07,0,0,1,13.2,5.39c4.25,2.1,8.31,4.51,12.45,6.67a33.55,33.55,0,0,0,6.4,2.72,11.35,11.35,0,0,0,6.8,0l.11.29a11.75,11.75,0,0,1-7,.18,34,34,0,0,1-6.59-2.57c-4.23-2.09-8.32-4.4-12.58-6.39a89,89,0,0,0-13.13-5,78.48,78.48,0,0,0-13.8-2.66c-9.36-1-18.76.07-28.11.92l-14,1.49c-4.68.49-9.36,1-14.07,1.18a61.74,61.74,0,0,1-14.11-.74,34.8,34.8,0,0,1-13.08-5.27,51.64,51.64,0,0,1-10.46-9.5,63.8,63.8,0,0,1-8.09-11.59,59.73,59.73,0,0,1-3-6.43,64.35,64.35,0,0,1-2-6.78,63,63,0,0,1-1.29-7c-.15-1.17-.2-2.35-.31-3.53l-.14-1.77V94.71a74,74,0,0,1,1.14-14.1l.69-3.47c.21-1.16.57-2.29.85-3.43.54-2.3,1.35-4.52,2.07-6.77A92.69,92.69,0,0,1,1388.39,54c1.06-2.11,2.36-4.08,3.57-6.11.63-1,1.33-2,2-2.93s1.32-2,2.07-2.87l2.17-2.8c.74-.92,1.54-1.79,2.3-2.68,1.5-1.82,3.22-3.44,4.86-5.14a84.23,84.23,0,0,1,10.95-8.95,72.58,72.58,0,0,1,25.78-11.28,66.93,66.93,0,0,1,14.06-1.42c2.36-.06,4.71.15,7.06.31,1.17.09,2.35.14,3.52.27l3.51.45c1.17.16,2.34.27,3.5.48l3.47.66c2.33.38,4.6,1,6.88,1.61l1.71.45,1.68.56,3.35,1.12c1.11.4,2.18.89,3.28,1.33s2.19.87,3.23,1.44l3.15,1.61c1,.54,2,1.21,3,1.81l1.51.92c.5.32,1,.68,1.44,1,.95.7,1.93,1.37,2.85,2.1a58.14,58.14,0,0,1,9.84,10.13,59.94,59.94,0,0,1,11,25.79A67.2,67.2,0,0,1,1531.21,76a56.82,56.82,0,0,1-.64,7l-.31,1.74-.41,1.73a11,11,0,0,1-1.38,3.3Z"/><path class="cls-6" d="M1514.89,52.55a32.44,32.44,0,0,0-5.4-6.13c-1-1-2.07-1.77-3.1-2.65s-2.2-1.6-3.33-2.35a53.93,53.93,0,0,0-14.78-6.56l-1-.3-1-.23-2-.47-2-.47c-.65-.16-1.33-.22-2-.34l-4-.61c-1.34-.13-2.7-.2-4-.31a80.3,80.3,0,0,0-8.1-.16,36.14,36.14,0,0,0-4,.21l-1,.08-1,.15-2,.31a63.4,63.4,0,0,0-28.28,13.9,75.26,75.26,0,0,0-19.66,24.9,59.45,59.45,0,0,0-3.05,7.28,45.43,45.43,0,0,0-1.82,7.58,36.07,36.07,0,0,0-.38,3.83c0,.64,0,1.27,0,1.91a12.91,12.91,0,0,0,.1,1.89l.21,1.88.39,1.83a11.92,11.92,0,0,0,.51,1.79,12.38,12.38,0,0,0,.64,1.74l.77,1.68c.3.54.64,1,1,1.58.17.26.31.53.5.78l.58.75c.4.49.74,1,1.19,1.49a29.23,29.23,0,0,0,5.72,5,36.57,36.57,0,0,0,6.87,3.58,51.87,51.87,0,0,0,7.55,2.44c10.43,2.57,21.53,3,32.53,4.19a143.54,143.54,0,0,1,16.45,2.73,71.63,71.63,0,0,1,8,2.35,57.82,57.82,0,0,1,7.58,3.46l-.14.27a63,63,0,0,0-15.65-5.09,142,142,0,0,0-16.39-2.11L1445,123.2a121.21,121.21,0,0,1-16.41-2.28,45.84,45.84,0,0,1-15.37-6.13,29.49,29.49,0,0,1-10.82-12.42,14.66,14.66,0,0,1-.74-2,14.1,14.1,0,0,1-.59-2l-.45-2-.25-2.07a14.93,14.93,0,0,1-.13-2.08c0-.69-.06-1.39,0-2.09a39,39,0,0,1,.37-4.15,48.32,48.32,0,0,1,1.87-8.1,62.44,62.44,0,0,1,3.15-7.69,78,78,0,0,1,20.64-25.72,72.41,72.41,0,0,1,13.92-9A55.49,55.49,0,0,1,1456,30.38a47.54,47.54,0,0,1,8.28-.6,82.31,82.31,0,0,1,8.28.35c1.38.14,2.76.25,4.13.41l4.09.72c.68.13,1.37.21,2,.39l2,.53,2,.53,1,.26,1,.34a55.25,55.25,0,0,1,14.86,7.27c1.13.8,2.22,1.66,3.3,2.52s2.11,1.8,3.05,2.81a32.85,32.85,0,0,1,5.17,6.49Z"/><path class="cls-6" d="M1528,89.59a10.6,10.6,0,0,0-.41-4.46,25.24,25.24,0,0,0-1.63-4.22,49.08,49.08,0,0,0-4.7-7.76,60.31,60.31,0,0,0-5.81-7,63.46,63.46,0,0,0-6.62-6.09,48,48,0,0,0-15.36-8.49,32.39,32.39,0,0,0-8.41-1.55,17.13,17.13,0,0,0-2.12,0,13.78,13.78,0,0,0-2.11.14l-2.1.27-2.06.48c-5.53,1.3-10.52,4.46-15,8.24a45.14,45.14,0,0,0-6.06,6.3,33.75,33.75,0,0,0-4.29,7.48,30.71,30.71,0,0,0-1.5,17.23,43.18,43.18,0,0,0,2.53,8.68c.56,1.42,1.19,2.81,1.9,4.18a38.54,38.54,0,0,0,2.28,4l-.24.2a44.19,44.19,0,0,1-4.88-7.94,42.8,42.8,0,0,1-3.17-8.76,31.73,31.73,0,0,1,.81-18.43,33.71,33.71,0,0,1,4.39-8.24,47.81,47.81,0,0,1,6.31-6.88c4.68-4.06,10.09-7.54,16.2-9.05l2.29-.52c.77-.11,1.55-.19,2.33-.29a16.06,16.06,0,0,1,2.34-.13,19.68,19.68,0,0,1,2.34,0l2.34.19,2.31.4a20.25,20.25,0,0,1,2.28.54,20.83,20.83,0,0,1,2.24.67,48.72,48.72,0,0,1,16,9.4,65.42,65.42,0,0,1,12.23,14,48,48,0,0,1,4.31,8.26,25.68,25.68,0,0,1,1.35,4.47,11,11,0,0,1,0,4.68Z"/><path class="cls-6" d="M1542.49,128.77c-1.87,0-3.74-.08-5.61-.14s-3.73-.22-5.59-.36q-5.59-.42-11.18-1.06a183.69,183.69,0,0,1-22.16-4.25c-1.83-.48-3.66-1-5.48-1.6s-3.61-1.28-5.39-2a40.84,40.84,0,0,1-10.29-5.94,21.33,21.33,0,0,1-2.28-2.18l-1.89-2.29-.47-.57-.43-.62-.85-1.24c-.28-.42-.58-.82-.83-1.26l-.73-1.34A25.73,25.73,0,0,1,1466,92a22.51,22.51,0,0,1,.17-3.14c.11-1,.37-2,.55-3.07s.56-2,.91-2.94.7-1.92,1.16-2.8a53.86,53.86,0,0,1,6.21-9.93c.28-.38.57-.76,1-1.18a14.24,14.24,0,0,1,1.12-1.2l1.21-1.09,1.3-.95a24.58,24.58,0,0,1,5.6-2.75,31,31,0,0,1,5.9-1.33,36.45,36.45,0,0,1,5.94-.18,38.08,38.08,0,0,1,21.72,7.85,27.53,27.53,0,0,1,7.18,9.08A22.54,22.54,0,0,1,1527,81c.15.46.32.9.45,1.36l.33,1.39a25.71,25.71,0,0,1,.42,2.81c.09.94.08,1.89.12,2.82l-.31,0a25.65,25.65,0,0,0-3-10.6,26.22,26.22,0,0,0-7.26-8.27A36.25,36.25,0,0,0,1497,63.81a31.38,31.38,0,0,0-10.9,1.66,21.91,21.91,0,0,0-4.9,2.5,15.75,15.75,0,0,0-3.88,3.86,53.37,53.37,0,0,0-5.81,9.45c-.43.82-.69,1.71-1,2.56s-.53,1.76-.8,2.64-.38,1.8-.47,2.71a19.49,19.49,0,0,0-.13,2.75,22.78,22.78,0,0,0,2.87,10.52l.66,1.22c.23.4.51.77.76,1.16l.77,1.15.39.57.44.54,1.75,2.15c.31.34.64.66,1,1a8.82,8.82,0,0,0,1,.93,38.32,38.32,0,0,0,9.49,5.67,91,91,0,0,0,10.47,3.79,185.31,185.31,0,0,0,21.75,4.94c7.34,1.24,14.72,2.22,22.13,2.87Z"/><path class="cls-6" d="M1357.21,89.61a10.88,10.88,0,0,0,1.22-3.21l.35-1.71L1359,83a56.21,56.21,0,0,0,.43-7,66.68,66.68,0,0,0-1.35-13.88,58.6,58.6,0,0,0-11.3-25,57.21,57.21,0,0,0-9.68-9.68c-.9-.7-1.86-1.33-2.79-2-.47-.32-.92-.67-1.41-1l-1.48-.87c-1-.57-1.95-1.2-3-1.71l-3.08-1.52c-1-.54-2.1-.92-3.16-1.36s-2.12-.88-3.2-1.25l-3.28-1-1.64-.52-1.68-.42c-2.24-.54-4.46-1.15-6.74-1.48l-3.4-.6c-1.14-.19-2.29-.28-3.44-.42l-3.44-.39c-1.15-.12-2.31-.14-3.46-.22l-3.46-.19-.87,0h-.85l-1.7,0a65.36,65.36,0,0,0-13.5,1.44,69.85,69.85,0,0,0-24.75,11,81.4,81.4,0,0,0-10.53,8.7c-1.57,1.65-3.23,3.23-4.68,5-.74.87-1.51,1.71-2.22,2.61l-2.08,2.72c-.72.89-1.35,1.85-2,2.79s-1.3,1.88-1.91,2.85c-1.15,2-2.41,3.88-3.42,5.93A91.08,91.08,0,0,0,1214.49,68c-.7,2.17-1.5,4.31-2,6.52-.27,1.1-.63,2.19-.84,3.31l-.68,3.34a71,71,0,0,0-1.16,13.53v1.7l.12,1.69c.1,1.12.13,2.26.27,3.37a60.16,60.16,0,0,0,1.2,6.64,61.56,61.56,0,0,0,1.9,6.46,56.92,56.92,0,0,0,2.79,6.11l.79,1.48.4.74c.14.24.31.47.46.7l1.85,2.8c1.3,1.86,2.74,3.66,4.19,5.41a49,49,0,0,0,9.86,9.06,32.63,32.63,0,0,0,12.1,5,59.22,59.22,0,0,0,13.53.88c4.61-.13,9.27-.56,13.94-1l14.06-1.3c4.71-.4,9.4-.76,14.14-1a85.87,85.87,0,0,1,14.33.46,79.94,79.94,0,0,1,14,3,90.06,90.06,0,0,1,13.2,5.39c4.25,2.1,8.31,4.51,12.45,6.67a33.55,33.55,0,0,0,6.4,2.72,11.35,11.35,0,0,0,6.8,0l.11.29a11.75,11.75,0,0,1-7,.18,34.05,34.05,0,0,1-6.59-2.57c-4.23-2.09-8.32-4.4-12.58-6.39a89,89,0,0,0-13.13-5,78.48,78.48,0,0,0-13.8-2.66c-9.36-1-18.76.07-28.11.92l-14,1.49c-4.68.49-9.36,1-14.07,1.18a61.74,61.74,0,0,1-14.11-.74,34.81,34.81,0,0,1-13.09-5.27,51.64,51.64,0,0,1-10.46-9.5,63.8,63.8,0,0,1-8.09-11.59,59.71,59.71,0,0,1-3-6.43,64.35,64.35,0,0,1-2-6.78,63,63,0,0,1-1.29-7c-.15-1.17-.2-2.35-.31-3.53l-.14-1.77V94.71a74,74,0,0,1,1.14-14.1l.69-3.47c.21-1.16.57-2.29.85-3.43.54-2.3,1.35-4.52,2.07-6.77A92.71,92.71,0,0,1,1217.36,54c1.06-2.11,2.36-4.08,3.57-6.11.63-1,1.33-2,2-2.93s1.32-2,2.07-2.87l2.17-2.8c.74-.92,1.54-1.79,2.3-2.68,1.5-1.82,3.22-3.44,4.86-5.14a84.21,84.21,0,0,1,10.95-8.95A72.58,72.58,0,0,1,1271,11.26a66.93,66.93,0,0,1,14.06-1.42c2.36-.06,4.71.15,7.06.31,1.17.09,2.35.14,3.52.27l3.51.45c1.17.16,2.34.27,3.5.48l3.47.66c2.33.38,4.6,1,6.88,1.61l1.71.45,1.68.56,3.35,1.12c1.11.4,2.18.89,3.28,1.33s2.19.87,3.23,1.44l3.15,1.61c1,.54,2,1.21,3,1.81l1.51.92c.5.32,1,.68,1.44,1,.95.7,1.93,1.37,2.85,2.1a58.14,58.14,0,0,1,9.84,10.13,60,60,0,0,1,11,25.79A67.19,67.19,0,0,1,1360.18,76a56.79,56.79,0,0,1-.64,7l-.31,1.74-.41,1.73a11,11,0,0,1-1.38,3.3Z"/><path class="cls-6" d="M1343.86,52.55a32.44,32.44,0,0,0-5.4-6.13c-1-1-2.07-1.77-3.1-2.65s-2.2-1.6-3.33-2.35a53.93,53.93,0,0,0-14.78-6.56l-1-.3-1-.23-2-.47-2-.47c-.65-.16-1.33-.22-2-.34l-4-.61c-1.34-.13-2.7-.2-4-.31a80.3,80.3,0,0,0-8.1-.16,36.15,36.15,0,0,0-4,.21l-1,.08-1,.15-2,.31A63.4,63.4,0,0,0,1257,46.64a75.26,75.26,0,0,0-19.66,24.9,59.45,59.45,0,0,0-3.05,7.28,45.4,45.4,0,0,0-1.82,7.58,36.07,36.07,0,0,0-.38,3.83c0,.64,0,1.27,0,1.91a12.89,12.89,0,0,0,.1,1.89l.21,1.88.39,1.83a11.89,11.89,0,0,0,.51,1.79,12.38,12.38,0,0,0,.64,1.74l.77,1.68c.3.54.64,1,1,1.58.17.26.31.53.5.78l.58.75c.4.49.75,1,1.19,1.49a29.23,29.23,0,0,0,5.72,5,36.57,36.57,0,0,0,6.87,3.58,51.87,51.87,0,0,0,7.55,2.44c10.43,2.57,21.53,3,32.53,4.19a143.54,143.54,0,0,1,16.45,2.73,71.63,71.63,0,0,1,8,2.35,57.83,57.83,0,0,1,7.58,3.46l-.14.27a63,63,0,0,0-15.65-5.09,142,142,0,0,0-16.39-2.11L1274,123.2a121.21,121.21,0,0,1-16.41-2.28,45.84,45.84,0,0,1-15.37-6.13,29.49,29.49,0,0,1-10.82-12.42,14.66,14.66,0,0,1-.74-2,14.09,14.09,0,0,1-.59-2l-.45-2-.25-2.07a14.93,14.93,0,0,1-.13-2.08c0-.69-.06-1.39,0-2.09a39,39,0,0,1,.37-4.15,48.34,48.34,0,0,1,1.87-8.1,62.44,62.44,0,0,1,3.15-7.69,78,78,0,0,1,20.64-25.72,72.41,72.41,0,0,1,13.92-9,55.49,55.49,0,0,1,15.75-5.11,47.55,47.55,0,0,1,8.28-.6,82.3,82.3,0,0,1,8.28.35c1.38.14,2.76.25,4.13.41l4.09.72c.68.13,1.37.21,2,.39l2,.53,2,.53,1,.26,1,.34a55.25,55.25,0,0,1,14.86,7.27c1.13.8,2.22,1.66,3.3,2.52s2.11,1.8,3.05,2.81a32.85,32.85,0,0,1,5.17,6.49Z"/><path class="cls-6" d="M1356.93,89.59a10.6,10.6,0,0,0-.41-4.46,25.24,25.24,0,0,0-1.63-4.22,49.07,49.07,0,0,0-4.7-7.76,60.31,60.31,0,0,0-5.81-7,63.48,63.48,0,0,0-6.62-6.09,48,48,0,0,0-15.36-8.49,32.4,32.4,0,0,0-8.41-1.55,17.13,17.13,0,0,0-2.12,0,13.78,13.78,0,0,0-2.11.14l-2.1.27-2.06.48c-5.53,1.3-10.52,4.46-15,8.24a45.14,45.14,0,0,0-6.06,6.3,33.75,33.75,0,0,0-4.29,7.48,30.71,30.71,0,0,0-1.5,17.23,43.17,43.17,0,0,0,2.53,8.68c.56,1.42,1.19,2.81,1.9,4.18a38.52,38.52,0,0,0,2.28,4l-.24.2a44.2,44.2,0,0,1-4.88-7.94,42.8,42.8,0,0,1-3.17-8.76,31.73,31.73,0,0,1,.81-18.43,33.7,33.7,0,0,1,4.39-8.24,47.8,47.8,0,0,1,6.31-6.88c4.68-4.06,10.09-7.54,16.2-9.05l2.29-.52c.77-.11,1.55-.19,2.33-.29a16.05,16.05,0,0,1,2.34-.13,19.68,19.68,0,0,1,2.34,0l2.34.19,2.31.4a20.26,20.26,0,0,1,2.28.54,20.82,20.82,0,0,1,2.24.67,48.72,48.72,0,0,1,16,9.4,65.41,65.41,0,0,1,12.23,14,48,48,0,0,1,4.31,8.26,25.67,25.67,0,0,1,1.35,4.47,11,11,0,0,1,0,4.68Z"/><path class="cls-6" d="M1371.46,128.77c-1.87,0-3.74-.08-5.61-.14s-3.73-.22-5.6-.36q-5.59-.42-11.18-1.06a183.69,183.69,0,0,1-22.16-4.25c-1.83-.48-3.66-1-5.48-1.6s-3.61-1.28-5.39-2a40.84,40.84,0,0,1-10.29-5.94,21.32,21.32,0,0,1-2.28-2.18l-1.89-2.29-.47-.57-.43-.62-.85-1.24c-.28-.42-.58-.82-.83-1.26l-.73-1.34A25.73,25.73,0,0,1,1295,92a22.55,22.55,0,0,1,.17-3.14c.11-1,.37-2,.55-3.07s.56-2,.91-2.94.7-1.92,1.16-2.8a53.86,53.86,0,0,1,6.21-9.93c.28-.38.57-.76,1-1.18a14.23,14.23,0,0,1,1.12-1.2l1.21-1.09,1.3-.95a24.58,24.58,0,0,1,5.6-2.75,31,31,0,0,1,5.9-1.33,36.45,36.45,0,0,1,5.94-.18,38.08,38.08,0,0,1,21.72,7.85,27.53,27.53,0,0,1,7.18,9.08A22.56,22.56,0,0,1,1356,81c.15.46.32.9.45,1.36l.33,1.39a25.68,25.68,0,0,1,.42,2.81c.09.94.08,1.89.12,2.82l-.31,0a25.65,25.65,0,0,0-3-10.6,26.22,26.22,0,0,0-7.26-8.27A36.25,36.25,0,0,0,1326,63.81a31.38,31.38,0,0,0-10.9,1.66,21.91,21.91,0,0,0-4.9,2.5,15.75,15.75,0,0,0-3.88,3.86,53.38,53.38,0,0,0-5.81,9.45c-.43.82-.69,1.71-1,2.56s-.53,1.76-.8,2.64-.38,1.8-.47,2.71a19.49,19.49,0,0,0-.13,2.75,22.78,22.78,0,0,0,2.87,10.52l.66,1.22c.23.4.51.77.76,1.16l.77,1.15.39.57.44.54,1.75,2.15c.31.34.64.66,1,1a8.82,8.82,0,0,0,1,.93,38.32,38.32,0,0,0,9.49,5.67,91,91,0,0,0,10.47,3.79,185.32,185.32,0,0,0,21.75,4.94c7.34,1.24,14.72,2.22,22.13,2.87Z"/><path class="cls-6" d="M1187.64,89.61a10.88,10.88,0,0,0,1.22-3.21l.35-1.71.26-1.73a56.21,56.21,0,0,0,.43-7,66.68,66.68,0,0,0-1.35-13.88,58.6,58.6,0,0,0-11.3-25,57.21,57.21,0,0,0-9.68-9.68c-.9-.7-1.86-1.33-2.79-2-.47-.32-.92-.67-1.41-1l-1.48-.87c-1-.57-1.95-1.2-3-1.71l-3.08-1.52c-1-.54-2.1-.92-3.16-1.36s-2.12-.88-3.2-1.25l-3.28-1-1.64-.52-1.68-.42c-2.24-.54-4.46-1.15-6.74-1.48l-3.4-.6c-1.14-.19-2.29-.28-3.44-.42l-3.44-.39c-1.15-.12-2.31-.14-3.46-.22l-3.46-.19-.87,0h-.85l-1.7,0a65.36,65.36,0,0,0-13.5,1.44,69.85,69.85,0,0,0-24.75,11,81.39,81.39,0,0,0-10.53,8.7c-1.57,1.65-3.23,3.23-4.68,5-.74.87-1.51,1.71-2.22,2.61l-2.08,2.72c-.72.89-1.35,1.85-2,2.79s-1.3,1.88-1.91,2.85c-1.15,2-2.41,3.88-3.42,5.93A91.08,91.08,0,0,0,1044.92,68c-.7,2.17-1.5,4.31-2,6.52-.27,1.1-.63,2.19-.84,3.31l-.68,3.34a71,71,0,0,0-1.16,13.53v1.7l.12,1.69c.1,1.12.13,2.26.27,3.37a60.15,60.15,0,0,0,1.2,6.64,61.55,61.55,0,0,0,1.9,6.46,56.93,56.93,0,0,0,2.79,6.11l.79,1.48.4.74c.14.24.31.47.46.7l1.85,2.8c1.3,1.86,2.74,3.66,4.19,5.41a49,49,0,0,0,9.86,9.06,32.63,32.63,0,0,0,12.1,5,59.22,59.22,0,0,0,13.53.88c4.61-.13,9.27-.56,13.94-1l14.06-1.3c4.71-.4,9.4-.76,14.14-1a85.87,85.87,0,0,1,14.33.46,79.94,79.94,0,0,1,14,3,90.06,90.06,0,0,1,13.2,5.39c4.25,2.1,8.31,4.51,12.45,6.67a33.55,33.55,0,0,0,6.4,2.72,11.35,11.35,0,0,0,6.8,0l.11.29a11.75,11.75,0,0,1-7,.18,34.05,34.05,0,0,1-6.59-2.57c-4.23-2.09-8.32-4.4-12.58-6.39a89,89,0,0,0-13.13-5,78.48,78.48,0,0,0-13.8-2.66c-9.36-1-18.76.07-28.11.92l-14,1.49c-4.68.49-9.36,1-14.07,1.18a61.74,61.74,0,0,1-14.11-.74,34.81,34.81,0,0,1-13.09-5.27,51.64,51.64,0,0,1-10.46-9.5,63.8,63.8,0,0,1-8.09-11.59,59.72,59.72,0,0,1-3-6.43,64.37,64.37,0,0,1-2-6.78,63,63,0,0,1-1.29-7c-.15-1.17-.2-2.35-.31-3.53l-.14-1.77V94.71a74,74,0,0,1,1.14-14.1l.69-3.47c.21-1.16.57-2.29.85-3.43.54-2.3,1.35-4.52,2.07-6.77A92.69,92.69,0,0,1,1047.79,54c1.06-2.11,2.36-4.08,3.57-6.11.63-1,1.33-2,2-2.93s1.32-2,2.07-2.87l2.17-2.8c.74-.92,1.54-1.79,2.3-2.68,1.5-1.82,3.22-3.44,4.86-5.14a84.22,84.22,0,0,1,10.95-8.95,72.58,72.58,0,0,1,25.78-11.28,66.93,66.93,0,0,1,14.06-1.42c2.36-.06,4.71.15,7.06.31,1.17.09,2.35.14,3.52.27l3.51.45c1.17.16,2.34.27,3.5.48l3.47.66c2.33.38,4.6,1,6.88,1.61l1.71.45,1.68.56,3.35,1.12c1.11.4,2.18.89,3.28,1.33s2.19.87,3.23,1.44l3.15,1.61c1,.54,2,1.21,3,1.81l1.51.92c.5.32,1,.68,1.44,1,.95.7,1.93,1.37,2.85,2.1a58.14,58.14,0,0,1,9.84,10.13,60,60,0,0,1,11,25.79A67.19,67.19,0,0,1,1190.61,76a56.79,56.79,0,0,1-.64,7l-.31,1.74-.41,1.73a11,11,0,0,1-1.38,3.3Z"/><path class="cls-6" d="M1174.29,52.55a32.44,32.44,0,0,0-5.4-6.13c-1-1-2.07-1.77-3.1-2.65s-2.2-1.6-3.33-2.35a53.93,53.93,0,0,0-14.78-6.56l-1-.3-1-.23-2-.47-2-.47c-.65-.16-1.33-.22-2-.34l-4-.61c-1.34-.13-2.7-.2-4-.31a80.3,80.3,0,0,0-8.1-.16,36.14,36.14,0,0,0-4,.21l-1,.08-1,.15-2,.31a63.39,63.39,0,0,0-28.28,13.9,75.26,75.26,0,0,0-19.66,24.9,59.44,59.44,0,0,0-3.05,7.28,45.4,45.4,0,0,0-1.82,7.58,36.07,36.07,0,0,0-.38,3.83c0,.64,0,1.27,0,1.91a12.91,12.91,0,0,0,.1,1.89l.21,1.88.39,1.83a11.91,11.91,0,0,0,.51,1.79,12.4,12.4,0,0,0,.64,1.74l.77,1.68c.3.54.64,1,1,1.58.17.26.31.53.5.78l.58.75c.4.49.75,1,1.19,1.49a29.23,29.23,0,0,0,5.72,5,36.58,36.58,0,0,0,6.87,3.58,51.87,51.87,0,0,0,7.55,2.44c10.43,2.57,21.53,3,32.53,4.19a143.54,143.54,0,0,1,16.45,2.73,71.63,71.63,0,0,1,8,2.35,57.83,57.83,0,0,1,7.58,3.46l-.14.27a63,63,0,0,0-15.65-5.09,142,142,0,0,0-16.39-2.11l-16.51-1.19a121.22,121.22,0,0,1-16.41-2.28,45.84,45.84,0,0,1-15.37-6.13,29.49,29.49,0,0,1-10.82-12.42,14.66,14.66,0,0,1-.74-2,14.1,14.1,0,0,1-.59-2l-.45-2-.25-2.07a14.92,14.92,0,0,1-.13-2.08c0-.69-.06-1.39,0-2.09A39,39,0,0,1,1060,86a48.34,48.34,0,0,1,1.87-8.1,62.44,62.44,0,0,1,3.15-7.69,78,78,0,0,1,20.64-25.72,72.41,72.41,0,0,1,13.92-9,55.49,55.49,0,0,1,15.75-5.11,47.55,47.55,0,0,1,8.28-.6,82.3,82.3,0,0,1,8.28.35c1.38.14,2.76.25,4.13.41l4.09.72c.68.13,1.37.21,2,.39l2,.53,2,.53,1,.26,1,.34A55.25,55.25,0,0,1,1163,40.59c1.13.8,2.22,1.66,3.3,2.52s2.11,1.8,3.05,2.81a32.85,32.85,0,0,1,5.17,6.49Z"/><path class="cls-6" d="M1187.36,89.59a10.6,10.6,0,0,0-.41-4.46,25.24,25.24,0,0,0-1.63-4.22,49.08,49.08,0,0,0-4.7-7.76,60.31,60.31,0,0,0-5.81-7,63.48,63.48,0,0,0-6.62-6.09,48,48,0,0,0-15.36-8.49,32.4,32.4,0,0,0-8.41-1.55,17.13,17.13,0,0,0-2.12,0,13.78,13.78,0,0,0-2.11.14l-2.1.27L1136,51c-5.53,1.3-10.52,4.46-15,8.24a45.14,45.14,0,0,0-6.06,6.3,33.75,33.75,0,0,0-4.29,7.48,30.71,30.71,0,0,0-1.5,17.23,43.18,43.18,0,0,0,2.53,8.68c.56,1.42,1.19,2.81,1.9,4.18a38.52,38.52,0,0,0,2.28,4l-.24.2a44.18,44.18,0,0,1-4.88-7.94,42.8,42.8,0,0,1-3.17-8.76,31.73,31.73,0,0,1,.81-18.43,33.71,33.71,0,0,1,4.39-8.24,47.81,47.81,0,0,1,6.31-6.88c4.68-4.06,10.09-7.54,16.2-9.05l2.29-.52c.77-.11,1.55-.19,2.33-.29a16.05,16.05,0,0,1,2.34-.13,19.68,19.68,0,0,1,2.34,0l2.34.19,2.31.4a20.26,20.26,0,0,1,2.28.54,20.82,20.82,0,0,1,2.24.67,48.72,48.72,0,0,1,16,9.4,65.41,65.41,0,0,1,12.23,14,48,48,0,0,1,4.31,8.26,25.67,25.67,0,0,1,1.35,4.47,11,11,0,0,1,0,4.68Z"/><path class="cls-6" d="M1201.89,128.77c-1.87,0-3.74-.08-5.61-.14s-3.73-.22-5.6-.36q-5.59-.42-11.18-1.06a183.69,183.69,0,0,1-22.16-4.25c-1.83-.48-3.66-1-5.48-1.6s-3.61-1.28-5.39-2a40.84,40.84,0,0,1-10.29-5.94,21.32,21.32,0,0,1-2.28-2.18l-1.89-2.29-.47-.57-.43-.62-.85-1.24c-.28-.42-.58-.82-.83-1.26l-.73-1.34a25.73,25.73,0,0,1-3.3-11.9,22.52,22.52,0,0,1,.17-3.14c.11-1,.37-2,.55-3.07s.56-2,.91-2.94.7-1.92,1.16-2.8a53.86,53.86,0,0,1,6.21-9.93c.28-.38.57-.76,1-1.18a14.24,14.24,0,0,1,1.12-1.2l1.21-1.09,1.3-.95a24.58,24.58,0,0,1,5.6-2.75,31,31,0,0,1,5.9-1.33,36.45,36.45,0,0,1,5.94-.18,38.08,38.08,0,0,1,21.72,7.85,27.53,27.53,0,0,1,7.18,9.08,22.56,22.56,0,0,1,1.09,2.67c.15.46.32.9.45,1.36l.33,1.39a25.71,25.71,0,0,1,.42,2.81c.09.94.08,1.89.12,2.82l-.31,0a25.65,25.65,0,0,0-3-10.6,26.22,26.22,0,0,0-7.26-8.27,36.25,36.25,0,0,0-20.79-6.76,31.38,31.38,0,0,0-10.9,1.66,21.91,21.91,0,0,0-4.9,2.5,15.75,15.75,0,0,0-3.88,3.86,53.38,53.38,0,0,0-5.8,9.45c-.43.82-.69,1.71-1,2.56s-.53,1.76-.8,2.64-.38,1.8-.47,2.71a19.49,19.49,0,0,0-.13,2.75,22.78,22.78,0,0,0,2.87,10.52l.66,1.22c.23.4.51.77.76,1.16l.77,1.15.39.57.44.54,1.75,2.15c.31.34.64.66,1,1a8.82,8.82,0,0,0,1,.93,38.32,38.32,0,0,0,9.49,5.67,91,91,0,0,0,10.47,3.79,185.32,185.32,0,0,0,21.75,4.94c7.34,1.24,14.72,2.22,22.13,2.87Z"/><path class="cls-6" d="M1016.58,89.61a10.88,10.88,0,0,0,1.22-3.21l.35-1.71.26-1.73a56.2,56.2,0,0,0,.43-7,66.68,66.68,0,0,0-1.35-13.88,58.6,58.6,0,0,0-11.3-25,57.2,57.2,0,0,0-9.68-9.68c-.9-.7-1.86-1.33-2.79-2-.47-.32-.92-.67-1.41-1l-1.48-.87c-1-.57-1.95-1.2-3-1.71l-3.08-1.52c-1-.54-2.1-.92-3.16-1.36s-2.12-.88-3.2-1.25l-3.28-1-1.64-.52-1.68-.42c-2.24-.54-4.46-1.15-6.74-1.48l-3.4-.6c-1.14-.19-2.29-.28-3.44-.42l-3.44-.39c-1.15-.12-2.31-.14-3.46-.22l-3.46-.19-.87,0h-.85l-1.7,0A65.36,65.36,0,0,0,931,13.87a69.85,69.85,0,0,0-24.75,11,81.4,81.4,0,0,0-10.53,8.7c-1.57,1.65-3.23,3.23-4.68,5-.74.87-1.51,1.71-2.22,2.61l-2.08,2.72c-.72.89-1.35,1.85-2,2.79s-1.3,1.88-1.91,2.85c-1.15,2-2.41,3.88-3.42,5.93A91.08,91.08,0,0,0,873.86,68c-.7,2.17-1.5,4.31-2,6.52-.27,1.1-.63,2.19-.84,3.31l-.68,3.34a71,71,0,0,0-1.16,13.53v1.7l.12,1.69c.1,1.12.13,2.26.27,3.37a60.15,60.15,0,0,0,1.2,6.64,61.55,61.55,0,0,0,1.9,6.46,57,57,0,0,0,2.79,6.11l.79,1.48.4.74c.14.24.31.47.46.7l1.85,2.8c1.3,1.86,2.74,3.66,4.19,5.41a49,49,0,0,0,9.86,9.06,32.63,32.63,0,0,0,12.1,5,59.22,59.22,0,0,0,13.53.88c4.61-.13,9.27-.56,13.94-1l14.06-1.3c4.71-.4,9.4-.76,14.14-1a85.87,85.87,0,0,1,14.33.46,79.94,79.94,0,0,1,14,3,90.06,90.06,0,0,1,13.2,5.39c4.25,2.1,8.31,4.51,12.45,6.67a33.55,33.55,0,0,0,6.4,2.72,11.35,11.35,0,0,0,6.8,0l.11.29a11.75,11.75,0,0,1-7,.18,34,34,0,0,1-6.59-2.57c-4.23-2.09-8.32-4.4-12.58-6.39a89,89,0,0,0-13.13-5,78.48,78.48,0,0,0-13.8-2.66c-9.36-1-18.76.07-28.11.92l-14,1.49c-4.68.49-9.36,1-14.07,1.18a61.74,61.74,0,0,1-14.11-.74,34.81,34.81,0,0,1-13.09-5.27,51.64,51.64,0,0,1-10.46-9.5A63.8,63.8,0,0,1,873,122a59.71,59.71,0,0,1-3-6.43,64.34,64.34,0,0,1-2-6.78,63,63,0,0,1-1.29-7c-.15-1.17-.2-2.35-.31-3.53l-.14-1.77V94.71a74,74,0,0,1,1.14-14.1l.69-3.47c.21-1.16.57-2.29.85-3.43.54-2.3,1.35-4.52,2.07-6.77A92.71,92.71,0,0,1,876.73,54c1.06-2.11,2.36-4.08,3.57-6.11.63-1,1.33-2,2-2.93s1.32-2,2.07-2.87l2.17-2.8c.74-.92,1.54-1.79,2.3-2.68,1.5-1.82,3.22-3.44,4.86-5.14a84.22,84.22,0,0,1,10.95-8.95A72.58,72.58,0,0,1,930.4,11.26a66.93,66.93,0,0,1,14.06-1.42c2.36-.06,4.71.15,7.06.31,1.17.09,2.35.14,3.52.27l3.51.45c1.17.16,2.34.27,3.5.48l3.47.66c2.33.38,4.6,1,6.88,1.61l1.71.45,1.68.56,3.35,1.12c1.11.4,2.18.89,3.28,1.33s2.19.87,3.23,1.44l3.15,1.61c1,.54,2,1.21,3,1.81l1.51.92c.5.32,1,.68,1.44,1,.95.7,1.93,1.37,2.85,2.1a58.15,58.15,0,0,1,9.84,10.13,60,60,0,0,1,11,25.79A67.19,67.19,0,0,1,1019.55,76a56.79,56.79,0,0,1-.64,7l-.31,1.74-.41,1.73a11,11,0,0,1-1.38,3.3Z"/><path class="cls-6" d="M1003.23,52.55a32.44,32.44,0,0,0-5.4-6.13c-1-1-2.07-1.77-3.1-2.65s-2.2-1.6-3.33-2.35a53.93,53.93,0,0,0-14.78-6.56l-1-.3-1-.23-2-.47-2-.47c-.65-.16-1.33-.22-2-.34l-4-.61c-1.34-.13-2.7-.2-4-.31a80.3,80.3,0,0,0-8.1-.16,36.14,36.14,0,0,0-4,.21l-1,.08-1,.15-2,.31a63.39,63.39,0,0,0-28.28,13.9,75.26,75.26,0,0,0-19.66,24.9,59.45,59.45,0,0,0-3.05,7.28,45.41,45.41,0,0,0-1.82,7.58,36.09,36.09,0,0,0-.38,3.83c0,.64,0,1.27,0,1.91a12.91,12.91,0,0,0,.1,1.89l.21,1.88.39,1.83a11.91,11.91,0,0,0,.51,1.79,12.39,12.39,0,0,0,.64,1.74l.77,1.68c.3.54.64,1,1,1.58.17.26.31.53.5.78l.58.75c.4.49.75,1,1.19,1.49a29.23,29.23,0,0,0,5.72,5,36.58,36.58,0,0,0,6.87,3.58,51.87,51.87,0,0,0,7.55,2.44c10.43,2.57,21.53,3,32.53,4.19a143.54,143.54,0,0,1,16.45,2.73,71.63,71.63,0,0,1,8,2.35,57.83,57.83,0,0,1,7.58,3.46l-.14.27a63,63,0,0,0-15.65-5.09,142,142,0,0,0-16.39-2.11l-16.51-1.19A121.21,121.21,0,0,1,917,120.92a45.84,45.84,0,0,1-15.37-6.13,29.49,29.49,0,0,1-10.82-12.42,14.66,14.66,0,0,1-.74-2,14.1,14.1,0,0,1-.59-2l-.45-2-.25-2.07a14.91,14.91,0,0,1-.13-2.08c0-.69-.06-1.39,0-2.09A39,39,0,0,1,889,86a48.33,48.33,0,0,1,1.87-8.1A62.44,62.44,0,0,1,894,70.19a78,78,0,0,1,20.64-25.72,72.41,72.41,0,0,1,13.92-9,55.49,55.49,0,0,1,15.75-5.11,47.55,47.55,0,0,1,8.28-.6,82.31,82.31,0,0,1,8.28.35c1.38.14,2.76.25,4.13.41l4.09.72c.68.13,1.37.21,2,.39l2,.53,2,.53,1,.26,1,.34A55.25,55.25,0,0,1,992,40.59c1.13.8,2.22,1.66,3.3,2.52s2.11,1.8,3.05,2.81a32.85,32.85,0,0,1,5.17,6.49Z"/><path class="cls-6" d="M1016.3,89.59a10.6,10.6,0,0,0-.41-4.46,25.25,25.25,0,0,0-1.63-4.22,49.08,49.08,0,0,0-4.7-7.76,60.31,60.31,0,0,0-5.81-7,63.47,63.47,0,0,0-6.62-6.09,48,48,0,0,0-15.36-8.49,32.4,32.4,0,0,0-8.41-1.55,17.13,17.13,0,0,0-2.12,0,13.78,13.78,0,0,0-2.11.14l-2.1.27L965,51c-5.53,1.3-10.52,4.46-15,8.24a45.14,45.14,0,0,0-6.06,6.3A33.75,33.75,0,0,0,939.59,73a30.71,30.71,0,0,0-1.5,17.23,43.18,43.18,0,0,0,2.53,8.68c.56,1.42,1.19,2.81,1.9,4.18a38.52,38.52,0,0,0,2.28,4l-.24.2a44.19,44.19,0,0,1-4.88-7.94,42.8,42.8,0,0,1-3.17-8.76,31.73,31.73,0,0,1,.81-18.43,33.71,33.71,0,0,1,4.39-8.24A47.81,47.81,0,0,1,948,57c4.68-4.06,10.09-7.54,16.2-9.05l2.29-.52c.77-.11,1.55-.19,2.33-.29a16.05,16.05,0,0,1,2.34-.13,19.68,19.68,0,0,1,2.34,0l2.34.19,2.31.4a20.26,20.26,0,0,1,2.28.54,20.82,20.82,0,0,1,2.24.67,48.72,48.72,0,0,1,16,9.4,65.42,65.42,0,0,1,12.23,14,48,48,0,0,1,4.31,8.26,25.67,25.67,0,0,1,1.35,4.47,11,11,0,0,1,0,4.68Z"/><path class="cls-6" d="M1030.83,128.77c-1.87,0-3.74-.08-5.61-.14s-3.73-.22-5.6-.36q-5.59-.42-11.18-1.06a183.69,183.69,0,0,1-22.16-4.25c-1.83-.48-3.66-1-5.48-1.6s-3.61-1.28-5.39-2a40.84,40.84,0,0,1-10.29-5.94,21.32,21.32,0,0,1-2.28-2.18L961,108.91l-.47-.57-.43-.62-.85-1.24c-.28-.42-.58-.82-.83-1.26l-.73-1.34a25.73,25.73,0,0,1-3.3-11.9,22.54,22.54,0,0,1,.17-3.14c.11-1,.37-2,.55-3.07s.56-2,.91-2.94.7-1.92,1.16-2.8a53.85,53.85,0,0,1,6.21-9.93c.28-.38.57-.76,1-1.18a14.24,14.24,0,0,1,1.12-1.2l1.21-1.09,1.3-.95a24.58,24.58,0,0,1,5.6-2.75,31,31,0,0,1,5.9-1.33,36.45,36.45,0,0,1,5.94-.18,38.08,38.08,0,0,1,21.72,7.85,27.53,27.53,0,0,1,7.18,9.08,22.54,22.54,0,0,1,1.09,2.67c.15.46.32.9.45,1.36l.33,1.39a25.69,25.69,0,0,1,.42,2.81c.09.94.08,1.89.12,2.82l-.31,0a25.65,25.65,0,0,0-3-10.6,26.22,26.22,0,0,0-7.26-8.27,36.25,36.25,0,0,0-20.79-6.76,31.38,31.38,0,0,0-10.9,1.66,21.91,21.91,0,0,0-4.9,2.5,15.75,15.75,0,0,0-3.88,3.86,53.38,53.38,0,0,0-5.8,9.45c-.43.82-.69,1.71-1,2.56s-.53,1.76-.8,2.64-.38,1.8-.47,2.71a19.49,19.49,0,0,0-.13,2.75,22.78,22.78,0,0,0,2.87,10.52l.66,1.22c.23.4.51.77.76,1.16l.77,1.15.39.57.44.54,1.75,2.15c.31.34.64.66,1,1a8.82,8.82,0,0,0,1,.93,38.32,38.32,0,0,0,9.49,5.67A91,91,0,0,0,987,120.65a185.31,185.31,0,0,0,21.75,4.94c7.34,1.24,14.72,2.22,22.13,2.87Z"/><path class="cls-6" d="M846.51,89.61a10.88,10.88,0,0,0,1.22-3.21l.35-1.71.26-1.73a56.2,56.2,0,0,0,.43-7,66.68,66.68,0,0,0-1.35-13.88,58.6,58.6,0,0,0-11.3-25,57.2,57.2,0,0,0-9.68-9.68c-.9-.7-1.86-1.33-2.79-2-.47-.32-.92-.67-1.41-1l-1.48-.87c-1-.57-1.95-1.2-3-1.71l-3.08-1.52c-1-.54-2.1-.92-3.16-1.36s-2.12-.88-3.2-1.25l-3.28-1-1.64-.52-1.68-.42c-2.24-.54-4.46-1.15-6.74-1.48l-3.4-.6c-1.14-.19-2.29-.28-3.44-.42l-3.44-.39c-1.15-.12-2.31-.14-3.46-.22l-3.46-.19-.87,0h-.85l-1.7,0a65.36,65.36,0,0,0-13.5,1.44,69.85,69.85,0,0,0-24.75,11,81.4,81.4,0,0,0-10.53,8.7c-1.57,1.65-3.23,3.23-4.68,5-.74.87-1.51,1.71-2.22,2.61l-2.08,2.72c-.72.89-1.35,1.85-2,2.79s-1.3,1.88-1.91,2.85c-1.15,2-2.41,3.88-3.42,5.93A91.08,91.08,0,0,0,703.79,68c-.7,2.17-1.5,4.31-2,6.52-.27,1.1-.63,2.19-.84,3.31l-.68,3.34a71,71,0,0,0-1.16,13.53v1.7l.12,1.69c.1,1.12.13,2.26.27,3.37a60.15,60.15,0,0,0,1.2,6.64,61.55,61.55,0,0,0,1.9,6.46,56.93,56.93,0,0,0,2.79,6.11l.79,1.48.4.74c.14.24.31.47.46.7l1.85,2.8c1.3,1.86,2.74,3.66,4.19,5.41a49,49,0,0,0,9.86,9.06,32.63,32.63,0,0,0,12.1,5,59.22,59.22,0,0,0,13.53.88c4.61-.13,9.27-.56,13.94-1l14.06-1.3c4.71-.4,9.4-.76,14.14-1a85.87,85.87,0,0,1,14.33.46,79.94,79.94,0,0,1,14,3,90.06,90.06,0,0,1,13.2,5.39c4.25,2.1,8.31,4.51,12.45,6.67a33.55,33.55,0,0,0,6.4,2.72,11.35,11.35,0,0,0,6.8,0l.11.29a11.75,11.75,0,0,1-7,.18,34,34,0,0,1-6.59-2.57c-4.23-2.09-8.32-4.4-12.58-6.39a89,89,0,0,0-13.13-5,78.48,78.48,0,0,0-13.8-2.66c-9.36-1-18.76.07-28.11.92l-14,1.49c-4.68.49-9.36,1-14.07,1.18a61.74,61.74,0,0,1-14.11-.74,34.81,34.81,0,0,1-13.09-5.27,51.65,51.65,0,0,1-10.46-9.5A63.8,63.8,0,0,1,702.92,122a59.72,59.72,0,0,1-3-6.43,64.35,64.35,0,0,1-2-6.78,63,63,0,0,1-1.29-7c-.15-1.17-.2-2.35-.31-3.53l-.14-1.77V94.71a74,74,0,0,1,1.14-14.1l.69-3.47c.21-1.16.57-2.29.85-3.43.54-2.3,1.35-4.52,2.07-6.77A92.69,92.69,0,0,1,706.66,54c1.06-2.11,2.36-4.08,3.57-6.11.63-1,1.33-2,2-2.93s1.32-2,2.07-2.87l2.17-2.8c.74-.92,1.54-1.79,2.3-2.68,1.5-1.82,3.22-3.44,4.86-5.14a84.21,84.21,0,0,1,10.95-8.95,72.58,72.58,0,0,1,25.78-11.28,66.93,66.93,0,0,1,14.06-1.42c2.36-.06,4.71.15,7.06.31,1.17.09,2.35.14,3.52.27l3.51.45c1.17.16,2.34.27,3.5.48l3.47.66c2.33.38,4.6,1,6.88,1.61l1.71.45,1.68.56,3.35,1.12c1.11.4,2.18.89,3.28,1.33s2.19.87,3.23,1.44l3.15,1.61c1,.54,2,1.21,3,1.81l1.51.92c.5.32,1,.68,1.44,1,.95.7,1.93,1.37,2.85,2.1a58.14,58.14,0,0,1,9.84,10.13,59.94,59.94,0,0,1,11,25.79A67.2,67.2,0,0,1,849.48,76a56.8,56.8,0,0,1-.64,7l-.31,1.74-.41,1.73a11,11,0,0,1-1.38,3.3Z"/><path class="cls-6" d="M833.16,52.55a32.44,32.44,0,0,0-5.4-6.13c-1-1-2.07-1.77-3.1-2.65s-2.2-1.6-3.33-2.35a53.93,53.93,0,0,0-14.78-6.56l-1-.3-1-.23-2-.47-2-.47c-.65-.16-1.33-.22-2-.34l-4-.61c-1.34-.13-2.7-.2-4-.31a80.3,80.3,0,0,0-8.1-.16,36.14,36.14,0,0,0-4,.21l-1,.08-1,.15-2,.31a63.4,63.4,0,0,0-28.28,13.9,75.26,75.26,0,0,0-19.66,24.9,59.45,59.45,0,0,0-3.05,7.28,45.41,45.41,0,0,0-1.82,7.58,36.07,36.07,0,0,0-.38,3.83c0,.64,0,1.27,0,1.91a12.91,12.91,0,0,0,.1,1.89l.21,1.88.39,1.83a11.91,11.91,0,0,0,.51,1.79,12.38,12.38,0,0,0,.64,1.74l.77,1.68c.3.54.64,1,1,1.58.17.26.31.53.5.78l.58.75c.4.49.75,1,1.19,1.49a29.23,29.23,0,0,0,5.72,5,36.57,36.57,0,0,0,6.87,3.58,51.87,51.87,0,0,0,7.55,2.44c10.43,2.57,21.53,3,32.53,4.19a143.54,143.54,0,0,1,16.45,2.73,71.63,71.63,0,0,1,8,2.35,57.82,57.82,0,0,1,7.58,3.46l-.14.27a63,63,0,0,0-15.65-5.09,142,142,0,0,0-16.39-2.11L763.3,123.2a121.21,121.21,0,0,1-16.41-2.28,45.84,45.84,0,0,1-15.37-6.13,29.49,29.49,0,0,1-10.82-12.42,14.67,14.67,0,0,1-.74-2,14.1,14.1,0,0,1-.59-2l-.45-2-.25-2.07a14.92,14.92,0,0,1-.13-2.08c0-.69-.06-1.39,0-2.09a39,39,0,0,1,.37-4.15,48.34,48.34,0,0,1,1.87-8.1,62.44,62.44,0,0,1,3.15-7.69,78,78,0,0,1,20.64-25.72,72.41,72.41,0,0,1,13.92-9,55.49,55.49,0,0,1,15.75-5.11,47.55,47.55,0,0,1,8.28-.6,82.3,82.3,0,0,1,8.28.35c1.38.14,2.76.25,4.13.41l4.09.72c.68.13,1.37.21,2,.39l2,.53,2,.53,1,.26,1,.34a55.25,55.25,0,0,1,14.86,7.27c1.13.8,2.22,1.66,3.3,2.52s2.11,1.8,3.05,2.81a32.86,32.86,0,0,1,5.17,6.49Z"/><path class="cls-6" d="M846.23,89.59a10.6,10.6,0,0,0-.41-4.46,25.24,25.24,0,0,0-1.63-4.22,49.07,49.07,0,0,0-4.7-7.76,60.31,60.31,0,0,0-5.81-7,63.47,63.47,0,0,0-6.62-6.09A48,48,0,0,0,811.7,51.6a32.4,32.4,0,0,0-8.41-1.55,17.13,17.13,0,0,0-2.12,0,13.78,13.78,0,0,0-2.11.14l-2.1.27L794.9,51c-5.53,1.3-10.52,4.46-15,8.24a45.14,45.14,0,0,0-6.06,6.3A33.75,33.75,0,0,0,769.52,73,30.71,30.71,0,0,0,768,90.2a43.18,43.18,0,0,0,2.53,8.68c.56,1.42,1.19,2.81,1.9,4.18a38.52,38.52,0,0,0,2.28,4l-.24.2a44.19,44.19,0,0,1-4.88-7.94,42.8,42.8,0,0,1-3.17-8.76,31.73,31.73,0,0,1,.81-18.43,33.7,33.7,0,0,1,4.39-8.24A47.8,47.8,0,0,1,777.95,57C782.63,53,788,49.49,794.14,48l2.29-.52c.77-.11,1.55-.19,2.33-.29A16.05,16.05,0,0,1,801.1,47a19.68,19.68,0,0,1,2.34,0l2.34.19,2.31.4a20.26,20.26,0,0,1,2.28.54,20.82,20.82,0,0,1,2.24.67,48.72,48.72,0,0,1,16,9.4,65.41,65.41,0,0,1,12.23,14,48,48,0,0,1,4.31,8.26A25.68,25.68,0,0,1,846.52,85a11,11,0,0,1,0,4.68Z"/><path class="cls-6" d="M860.76,128.77c-1.87,0-3.74-.08-5.61-.14s-3.73-.22-5.6-.36q-5.59-.42-11.18-1.06a183.69,183.69,0,0,1-22.16-4.25c-1.83-.48-3.66-1-5.48-1.6s-3.61-1.28-5.39-2a40.84,40.84,0,0,1-10.29-5.94,21.33,21.33,0,0,1-2.28-2.18l-1.89-2.29-.47-.57-.43-.62-.85-1.24c-.28-.42-.58-.82-.83-1.26l-.73-1.34a25.73,25.73,0,0,1-3.3-11.9,22.53,22.53,0,0,1,.17-3.14c.11-1,.37-2,.55-3.07s.56-2,.91-2.94.7-1.92,1.16-2.8a53.86,53.86,0,0,1,6.21-9.93c.28-.38.57-.76,1-1.18a14.23,14.23,0,0,1,1.12-1.2l1.21-1.09,1.3-.95a24.58,24.58,0,0,1,5.6-2.75,31,31,0,0,1,5.9-1.33,36.45,36.45,0,0,1,5.94-.18A38.08,38.08,0,0,1,837,69.28a27.53,27.53,0,0,1,7.18,9.08A22.54,22.54,0,0,1,845.29,81c.15.46.32.9.45,1.36l.33,1.39a25.68,25.68,0,0,1,.42,2.81c.09.94.08,1.89.12,2.82l-.31,0a25.65,25.65,0,0,0-3-10.6,26.22,26.22,0,0,0-7.26-8.27,36.25,36.25,0,0,0-20.79-6.76,31.38,31.38,0,0,0-10.9,1.66,21.91,21.91,0,0,0-4.9,2.5,15.75,15.75,0,0,0-3.88,3.86,53.38,53.38,0,0,0-5.81,9.45c-.43.82-.69,1.71-1,2.56s-.53,1.76-.8,2.64-.38,1.8-.47,2.71a19.49,19.49,0,0,0-.13,2.75,22.78,22.78,0,0,0,2.87,10.52l.66,1.22c.23.4.51.77.76,1.16l.77,1.15.39.57.44.54,1.75,2.15c.31.34.64.66,1,1a8.82,8.82,0,0,0,1,.93,38.32,38.32,0,0,0,9.49,5.67,91,91,0,0,0,10.47,3.79,185.31,185.31,0,0,0,21.75,4.94c7.34,1.24,14.72,2.22,22.13,2.87Z"/><path class="cls-6" d="M678.92,89.61a10.88,10.88,0,0,0,1.22-3.21l.35-1.71.26-1.73a56.2,56.2,0,0,0,.43-7,66.68,66.68,0,0,0-1.35-13.88,58.6,58.6,0,0,0-11.3-25,57.2,57.2,0,0,0-9.68-9.68c-.9-.7-1.86-1.33-2.79-2-.47-.32-.92-.67-1.41-1l-1.48-.87c-1-.57-1.95-1.2-3-1.71l-3.08-1.52c-1-.54-2.1-.92-3.16-1.36s-2.12-.88-3.2-1.25l-3.28-1-1.64-.52-1.68-.42c-2.24-.54-4.46-1.15-6.74-1.48l-3.4-.6c-1.14-.19-2.29-.28-3.44-.42l-3.44-.39c-1.15-.12-2.31-.14-3.46-.22l-3.46-.19-.87,0h-.85l-1.7,0a65.36,65.36,0,0,0-13.5,1.44,69.85,69.85,0,0,0-24.75,11A81.4,81.4,0,0,0,558,33.55c-1.57,1.65-3.23,3.23-4.68,5-.74.87-1.51,1.71-2.22,2.61L549,43.88c-.72.89-1.35,1.85-2,2.79s-1.3,1.88-1.91,2.85c-1.15,2-2.41,3.88-3.42,5.93A91.08,91.08,0,0,0,536.2,68c-.7,2.17-1.5,4.31-2,6.52-.27,1.1-.63,2.19-.84,3.31l-.68,3.34a71,71,0,0,0-1.16,13.53v1.7l.12,1.69c.1,1.12.13,2.26.27,3.37a60.15,60.15,0,0,0,1.2,6.64,61.56,61.56,0,0,0,1.9,6.46,56.94,56.94,0,0,0,2.79,6.11l.79,1.48.4.74c.14.24.31.47.46.7l1.85,2.8c1.3,1.86,2.74,3.66,4.19,5.41a49,49,0,0,0,9.86,9.06,32.63,32.63,0,0,0,12.1,5,59.22,59.22,0,0,0,13.53.88c4.61-.13,9.27-.56,13.94-1L609,144.4c4.71-.4,9.4-.76,14.14-1a85.87,85.87,0,0,1,14.33.46,79.94,79.94,0,0,1,14,3,90.06,90.06,0,0,1,13.2,5.39c4.25,2.1,8.31,4.51,12.45,6.67a33.55,33.55,0,0,0,6.4,2.72,11.35,11.35,0,0,0,6.8,0l.11.29a11.75,11.75,0,0,1-7,.18,34,34,0,0,1-6.59-2.57c-4.23-2.09-8.32-4.4-12.58-6.39a89,89,0,0,0-13.13-5,78.48,78.48,0,0,0-13.8-2.66c-9.36-1-18.76.07-28.11.92l-14,1.49c-4.68.49-9.36,1-14.07,1.18a61.74,61.74,0,0,1-14.11-.74,34.81,34.81,0,0,1-13.09-5.27,51.64,51.64,0,0,1-10.46-9.5A63.8,63.8,0,0,1,535.33,122a59.72,59.72,0,0,1-3-6.43,64.35,64.35,0,0,1-2-6.78,63,63,0,0,1-1.29-7c-.15-1.17-.2-2.35-.31-3.53l-.14-1.77V94.71a74,74,0,0,1,1.14-14.1l.69-3.47c.21-1.16.57-2.29.85-3.43.54-2.3,1.35-4.52,2.07-6.77A92.7,92.7,0,0,1,539.07,54c1.06-2.11,2.36-4.08,3.57-6.11.63-1,1.33-2,2-2.93s1.32-2,2.07-2.87l2.17-2.8c.74-.92,1.54-1.79,2.3-2.68,1.5-1.82,3.22-3.44,4.86-5.14A84.22,84.22,0,0,1,567,22.55a72.58,72.58,0,0,1,25.78-11.28A66.93,66.93,0,0,1,606.8,9.84c2.36-.06,4.71.15,7.06.31,1.17.09,2.35.14,3.52.27l3.51.45c1.17.16,2.34.27,3.5.48l3.47.66c2.33.38,4.6,1,6.88,1.61l1.71.45,1.68.56,3.35,1.12c1.11.4,2.18.89,3.28,1.33S647,18,648,18.53l3.15,1.61c1,.54,2,1.21,3,1.81l1.51.92c.5.32,1,.68,1.44,1,.95.7,1.93,1.37,2.85,2.1a58.14,58.14,0,0,1,9.84,10.13,59.94,59.94,0,0,1,11,25.79A67.2,67.2,0,0,1,681.89,76a56.8,56.8,0,0,1-.64,7l-.31,1.74-.41,1.73a11,11,0,0,1-1.38,3.3Z"/><path class="cls-6" d="M665.57,52.55a32.44,32.44,0,0,0-5.4-6.13c-1-1-2.07-1.77-3.1-2.65s-2.2-1.6-3.33-2.35A53.93,53.93,0,0,0,639,34.86l-1-.3-1-.23-2-.47-2-.47c-.65-.16-1.33-.22-2-.34l-4-.61c-1.34-.13-2.7-.2-4-.31a80.3,80.3,0,0,0-8.1-.16,36.14,36.14,0,0,0-4,.21l-1,.08-1,.15-2,.31a63.39,63.39,0,0,0-28.28,13.9,75.26,75.26,0,0,0-19.66,24.9A59.45,59.45,0,0,0,556,78.81a45.4,45.4,0,0,0-1.82,7.58,36.07,36.07,0,0,0-.38,3.83c0,.64,0,1.27,0,1.91a12.9,12.9,0,0,0,.1,1.89l.21,1.88.39,1.83a11.91,11.91,0,0,0,.51,1.79,12.39,12.39,0,0,0,.64,1.74l.77,1.68c.3.54.64,1,1,1.58.17.26.31.53.5.78l.58.75c.4.49.75,1,1.19,1.49a29.23,29.23,0,0,0,5.72,5,36.58,36.58,0,0,0,6.87,3.58,51.87,51.87,0,0,0,7.55,2.44c10.43,2.57,21.53,3,32.53,4.19a143.54,143.54,0,0,1,16.45,2.73,71.63,71.63,0,0,1,8,2.35,57.82,57.82,0,0,1,7.58,3.46l-.14.27a63,63,0,0,0-15.65-5.09,142,142,0,0,0-16.39-2.11l-16.51-1.19a121.22,121.22,0,0,1-16.41-2.28,45.84,45.84,0,0,1-15.37-6.13,29.49,29.49,0,0,1-10.82-12.42,14.66,14.66,0,0,1-.74-2,14.1,14.1,0,0,1-.59-2l-.45-2-.25-2.07a14.91,14.91,0,0,1-.13-2.08c0-.69-.06-1.39,0-2.09a39,39,0,0,1,.37-4.15,48.34,48.34,0,0,1,1.87-8.1,62.44,62.44,0,0,1,3.15-7.69A78,78,0,0,1,577,44.47a72.41,72.41,0,0,1,13.92-9,55.49,55.49,0,0,1,15.75-5.11,47.55,47.55,0,0,1,8.28-.6,82.31,82.31,0,0,1,8.28.35c1.38.14,2.76.25,4.13.41l4.09.72c.68.13,1.37.21,2,.39l2,.53,2,.53,1,.26,1,.34a55.25,55.25,0,0,1,14.86,7.27c1.13.8,2.22,1.66,3.3,2.52s2.11,1.8,3.05,2.81a32.86,32.86,0,0,1,5.17,6.49Z"/><path class="cls-6" d="M678.64,89.59a10.6,10.6,0,0,0-.41-4.46,25.24,25.24,0,0,0-1.63-4.22,49.07,49.07,0,0,0-4.7-7.76,60.31,60.31,0,0,0-5.81-7,63.47,63.47,0,0,0-6.62-6.09,48,48,0,0,0-15.36-8.49,32.4,32.4,0,0,0-8.41-1.55,17.13,17.13,0,0,0-2.12,0,13.78,13.78,0,0,0-2.11.14l-2.1.27-2.06.48c-5.53,1.3-10.52,4.46-15,8.24a45.14,45.14,0,0,0-6.06,6.3A33.75,33.75,0,0,0,601.93,73a30.71,30.71,0,0,0-1.5,17.23A43.18,43.18,0,0,0,603,98.88c.56,1.42,1.19,2.81,1.9,4.18a38.52,38.52,0,0,0,2.28,4l-.24.2A44.19,44.19,0,0,1,602,99.33a42.8,42.8,0,0,1-3.17-8.76,31.73,31.73,0,0,1,.81-18.43A33.7,33.7,0,0,1,604,63.91,47.81,47.81,0,0,1,610.36,57C615,53,620.45,49.49,626.56,48l2.29-.52c.77-.11,1.55-.19,2.33-.29a16.05,16.05,0,0,1,2.34-.13,19.68,19.68,0,0,1,2.34,0l2.34.19,2.31.4a20.26,20.26,0,0,1,2.28.54,20.82,20.82,0,0,1,2.24.67,48.72,48.72,0,0,1,16,9.4,65.41,65.41,0,0,1,12.23,14,48,48,0,0,1,4.31,8.26A25.68,25.68,0,0,1,678.94,85a11,11,0,0,1,0,4.68Z"/><path class="cls-6" d="M693.17,128.77c-1.87,0-3.74-.08-5.61-.14s-3.73-.22-5.6-.36q-5.59-.42-11.18-1.06a183.69,183.69,0,0,1-22.16-4.25c-1.83-.48-3.66-1-5.48-1.6s-3.61-1.28-5.39-2a40.84,40.84,0,0,1-10.29-5.94,21.33,21.33,0,0,1-2.28-2.18l-1.89-2.29-.47-.57-.43-.62-.85-1.24c-.28-.42-.58-.82-.83-1.26l-.73-1.34a25.73,25.73,0,0,1-3.3-11.9,22.52,22.52,0,0,1,.17-3.14c.11-1,.37-2,.55-3.07s.56-2,.91-2.94.7-1.92,1.16-2.8a53.86,53.86,0,0,1,6.21-9.93c.28-.38.57-.76,1-1.18a14.23,14.23,0,0,1,1.12-1.2L629,66.63l1.3-.95a24.58,24.58,0,0,1,5.6-2.75,31,31,0,0,1,5.9-1.33,36.45,36.45,0,0,1,5.94-.18,38.08,38.08,0,0,1,21.72,7.85,27.53,27.53,0,0,1,7.18,9.08A22.53,22.53,0,0,1,677.7,81c.15.46.32.9.45,1.36l.33,1.39a25.69,25.69,0,0,1,.42,2.81c.09.94.08,1.89.12,2.82l-.31,0a25.65,25.65,0,0,0-3-10.6,26.22,26.22,0,0,0-7.26-8.27,36.25,36.25,0,0,0-20.79-6.76,31.38,31.38,0,0,0-10.9,1.66,21.91,21.91,0,0,0-4.9,2.5A15.75,15.75,0,0,0,628,71.83a53.38,53.38,0,0,0-5.81,9.45c-.43.82-.69,1.71-1,2.56s-.53,1.76-.8,2.64-.38,1.8-.47,2.71a19.49,19.49,0,0,0-.13,2.75,22.78,22.78,0,0,0,2.87,10.52l.66,1.22c.23.4.51.77.76,1.16l.77,1.15.39.57.44.54,1.75,2.15c.31.34.64.66,1,1a8.82,8.82,0,0,0,1,.93,38.32,38.32,0,0,0,9.49,5.67,91,91,0,0,0,10.47,3.79,185.32,185.32,0,0,0,21.75,4.94c7.34,1.24,14.72,2.22,22.13,2.87Z"/><path class="cls-6" d="M509.8,89.61A10.88,10.88,0,0,0,511,86.4l.35-1.71.26-1.73a56.2,56.2,0,0,0,.43-7,66.68,66.68,0,0,0-1.35-13.88,58.6,58.6,0,0,0-11.3-25,57.21,57.21,0,0,0-9.68-9.68c-.9-.7-1.86-1.33-2.79-2-.47-.32-.92-.67-1.41-1l-1.48-.87c-1-.57-1.95-1.2-3-1.71L478,20.35c-1-.54-2.1-.92-3.16-1.36s-2.12-.88-3.2-1.25l-3.28-1-1.64-.52L465,15.75c-2.24-.54-4.46-1.15-6.74-1.48l-3.4-.6c-1.14-.19-2.29-.28-3.44-.42L448,12.85c-1.15-.12-2.31-.14-3.46-.22l-3.46-.19-.87,0h-.85l-1.7,0a65.36,65.36,0,0,0-13.5,1.44,69.85,69.85,0,0,0-24.75,11,81.4,81.4,0,0,0-10.53,8.7c-1.57,1.65-3.23,3.23-4.68,5-.74.87-1.51,1.71-2.22,2.61l-2.08,2.72c-.72.89-1.35,1.85-2,2.79s-1.3,1.88-1.91,2.85c-1.15,2-2.41,3.88-3.42,5.93A91.08,91.08,0,0,0,367.08,68c-.7,2.17-1.5,4.31-2,6.52-.27,1.1-.63,2.19-.84,3.31l-.68,3.34a71,71,0,0,0-1.16,13.53v1.7l.12,1.69c.1,1.12.13,2.26.27,3.37a60.15,60.15,0,0,0,1.2,6.64,61.56,61.56,0,0,0,1.9,6.46,56.94,56.94,0,0,0,2.79,6.11l.79,1.48.4.74c.14.24.31.47.46.7l1.85,2.8c1.3,1.86,2.74,3.66,4.19,5.41a49,49,0,0,0,9.86,9.06,32.63,32.63,0,0,0,12.1,5,59.22,59.22,0,0,0,13.53.88c4.61-.13,9.27-.56,13.94-1l14.06-1.3c4.71-.4,9.4-.76,14.14-1a85.87,85.87,0,0,1,14.33.46,79.94,79.94,0,0,1,14,3,90.06,90.06,0,0,1,13.2,5.39c4.25,2.1,8.31,4.51,12.45,6.67a33.55,33.55,0,0,0,6.4,2.72,11.35,11.35,0,0,0,6.8,0l.11.29a11.75,11.75,0,0,1-7,.18,34,34,0,0,1-6.59-2.57c-4.23-2.09-8.32-4.4-12.58-6.39a89,89,0,0,0-13.13-5,78.48,78.48,0,0,0-13.8-2.66c-9.36-1-18.76.07-28.11.92l-14,1.49c-4.68.49-9.36,1-14.07,1.18a61.74,61.74,0,0,1-14.11-.74,34.81,34.81,0,0,1-13.09-5.27,51.64,51.64,0,0,1-10.46-9.5A63.8,63.8,0,0,1,366.21,122a59.72,59.72,0,0,1-3-6.43,64.36,64.36,0,0,1-2-6.78,63,63,0,0,1-1.29-7c-.15-1.17-.2-2.35-.31-3.53l-.14-1.77V94.71a74,74,0,0,1,1.14-14.1l.69-3.47c.21-1.16.57-2.29.85-3.43.54-2.3,1.35-4.52,2.07-6.77A92.7,92.7,0,0,1,370,54c1.06-2.11,2.36-4.08,3.57-6.11.63-1,1.33-2,2-2.93s1.32-2,2.07-2.87l2.17-2.8c.74-.92,1.54-1.79,2.3-2.68,1.5-1.82,3.22-3.44,4.86-5.14a84.22,84.22,0,0,1,10.95-8.95,72.58,72.58,0,0,1,25.78-11.28,66.93,66.93,0,0,1,14.06-1.42c2.36-.06,4.71.15,7.06.31,1.17.09,2.35.14,3.52.27l3.51.45c1.17.16,2.34.27,3.5.48l3.47.66c2.33.38,4.6,1,6.88,1.61l1.71.45,1.68.56,3.35,1.12c1.11.4,2.18.89,3.28,1.33s2.19.87,3.23,1.44L482,20.14c1,.54,2,1.21,3,1.81l1.51.92c.5.32,1,.68,1.44,1,.95.7,1.93,1.37,2.85,2.1a58.15,58.15,0,0,1,9.84,10.13,60,60,0,0,1,11,25.79A67.2,67.2,0,0,1,512.77,76a56.8,56.8,0,0,1-.64,7l-.31,1.74-.41,1.73A11,11,0,0,1,510,89.8Z"/><path class="cls-6" d="M496.45,52.55a32.44,32.44,0,0,0-5.4-6.13c-1-1-2.07-1.77-3.1-2.65s-2.2-1.6-3.33-2.35a53.93,53.93,0,0,0-14.78-6.56l-1-.3-1-.23-2-.47-2-.47c-.65-.16-1.33-.22-2-.34l-4-.61c-1.34-.13-2.7-.2-4-.31a80.3,80.3,0,0,0-8.1-.16,36.14,36.14,0,0,0-4,.21l-1,.08-1,.15-2,.31a63.39,63.39,0,0,0-28.28,13.9A75.26,75.26,0,0,0,390,71.54a59.45,59.45,0,0,0-3.05,7.28,45.41,45.41,0,0,0-1.82,7.58,36.07,36.07,0,0,0-.38,3.83c0,.64,0,1.27,0,1.91a12.9,12.9,0,0,0,.1,1.89L385,95.9l.39,1.83a11.91,11.91,0,0,0,.51,1.79,12.39,12.39,0,0,0,.64,1.74l.77,1.68c.3.54.64,1,1,1.58.17.26.31.53.5.78l.58.75c.4.49.75,1,1.19,1.49a29.23,29.23,0,0,0,5.72,5,36.58,36.58,0,0,0,6.87,3.58,51.87,51.87,0,0,0,7.55,2.44c10.43,2.57,21.53,3,32.53,4.19a143.54,143.54,0,0,1,16.45,2.73,71.63,71.63,0,0,1,8,2.35,57.82,57.82,0,0,1,7.58,3.46l-.14.27a63,63,0,0,0-15.65-5.09,142,142,0,0,0-16.39-2.11l-16.51-1.19a121.21,121.21,0,0,1-16.41-2.28,45.84,45.84,0,0,1-15.37-6.13A29.49,29.49,0,0,1,384,102.37a14.66,14.66,0,0,1-.74-2,14.1,14.1,0,0,1-.59-2l-.45-2L382,94.3a14.92,14.92,0,0,1-.13-2.08c0-.69-.06-1.39,0-2.09a39,39,0,0,1,.37-4.15,48.33,48.33,0,0,1,1.87-8.1,62.44,62.44,0,0,1,3.15-7.69,78,78,0,0,1,20.64-25.72,72.41,72.41,0,0,1,13.92-9,55.49,55.49,0,0,1,15.75-5.11,47.55,47.55,0,0,1,8.28-.6,82.31,82.31,0,0,1,8.28.35c1.38.14,2.76.25,4.13.41l4.09.72c.68.13,1.37.21,2,.39l2,.53,2,.53,1,.26,1,.34a55.25,55.25,0,0,1,14.86,7.27c1.13.8,2.22,1.66,3.3,2.52s2.11,1.8,3.05,2.81a32.85,32.85,0,0,1,5.17,6.49Z"/><path class="cls-6" d="M509.52,89.59a10.6,10.6,0,0,0-.41-4.46,25.25,25.25,0,0,0-1.63-4.22,49.08,49.08,0,0,0-4.7-7.76,60.31,60.31,0,0,0-5.81-7,63.47,63.47,0,0,0-6.62-6.09A48,48,0,0,0,475,51.6a32.4,32.4,0,0,0-8.41-1.55,17.13,17.13,0,0,0-2.12,0,13.78,13.78,0,0,0-2.11.14l-2.1.27-2.06.48c-5.53,1.3-10.52,4.46-15,8.24a45.14,45.14,0,0,0-6.06,6.3A33.76,33.76,0,0,0,432.81,73a30.71,30.71,0,0,0-1.5,17.23,43.18,43.18,0,0,0,2.53,8.68c.56,1.42,1.19,2.81,1.9,4.18a38.52,38.52,0,0,0,2.28,4l-.24.2a44.19,44.19,0,0,1-4.88-7.94,42.8,42.8,0,0,1-3.17-8.76,31.73,31.73,0,0,1,.81-18.43,33.71,33.71,0,0,1,4.39-8.24A47.81,47.81,0,0,1,441.24,57c4.68-4.06,10.09-7.54,16.2-9.05l2.29-.52c.77-.11,1.55-.19,2.33-.29a16.05,16.05,0,0,1,2.34-.13,19.68,19.68,0,0,1,2.34,0l2.34.19,2.31.4a20.26,20.26,0,0,1,2.28.54,20.82,20.82,0,0,1,2.24.67,48.72,48.72,0,0,1,16,9.4,65.41,65.41,0,0,1,12.23,14,48,48,0,0,1,4.31,8.26A25.67,25.67,0,0,1,509.81,85a11,11,0,0,1,0,4.68Z"/><path class="cls-6" d="M524,128.77c-1.87,0-3.74-.08-5.61-.14s-3.73-.22-5.6-.36q-5.59-.42-11.18-1.06a183.69,183.69,0,0,1-22.16-4.25c-1.83-.48-3.66-1-5.48-1.6s-3.61-1.28-5.39-2a40.84,40.84,0,0,1-10.29-5.94,21.33,21.33,0,0,1-2.28-2.18l-1.89-2.29-.47-.57-.43-.62-.85-1.24c-.28-.42-.58-.82-.83-1.26l-.73-1.34a25.73,25.73,0,0,1-3.3-11.9,22.52,22.52,0,0,1,.17-3.14c.11-1,.37-2,.55-3.07s.56-2,.91-2.94.7-1.92,1.16-2.8a53.86,53.86,0,0,1,6.21-9.93c.28-.38.57-.76,1-1.18a14.23,14.23,0,0,1,1.12-1.2l1.21-1.09,1.3-.95a24.58,24.58,0,0,1,5.6-2.75,31,31,0,0,1,5.9-1.33,36.45,36.45,0,0,1,5.94-.18,38.08,38.08,0,0,1,21.72,7.85,27.53,27.53,0,0,1,7.18,9.08A22.54,22.54,0,0,1,508.58,81c.15.46.32.9.45,1.36l.33,1.39a25.7,25.7,0,0,1,.42,2.81c.09.94.08,1.89.12,2.82l-.31,0a25.65,25.65,0,0,0-3-10.6,26.22,26.22,0,0,0-7.26-8.27,36.25,36.25,0,0,0-20.79-6.76,31.38,31.38,0,0,0-10.9,1.66,21.91,21.91,0,0,0-4.9,2.5,15.75,15.75,0,0,0-3.88,3.86,53.38,53.38,0,0,0-5.81,9.45c-.43.82-.69,1.71-1,2.56s-.53,1.76-.8,2.64-.38,1.8-.47,2.71a19.49,19.49,0,0,0-.13,2.75,22.78,22.78,0,0,0,2.87,10.52l.66,1.22c.23.4.51.77.76,1.16l.77,1.15.39.57.44.54,1.75,2.15c.31.34.64.66,1,1a8.82,8.82,0,0,0,1,.93,38.32,38.32,0,0,0,9.49,5.67,91,91,0,0,0,10.47,3.79,185.31,185.31,0,0,0,21.75,4.94c7.34,1.24,14.72,2.22,22.13,2.87Z"/><rect class="cls-3" x="-965.22" y="109.27" width="1309.09" height="654.46" transform="translate(-1.31 -0.93) rotate(-0.17)"/><polygon class="cls-4" points="-966.06 133.24 343.02 128.62 341.81 -155.26 -967 -150.64 -966.06 133.24"/><g class="cls-7"><path class="cls-3" d="M360.2,129.51s-99.91.43-89.92-42c10.49-44.59,60.61-18,58.59,2.24,0,0,17.68-49.62-37.61-73C217-14.8,140.92,74.36,197.06,138.8,260.79,211.95,360.2,129.51,360.2,129.51Z"/><path class="cls-3" d="M189.34,130.31s-99.91.43-89.92-42C109.91,43.68,160,70.3,158,90.51c0,0,17.68-49.62-37.61-73C46.1-14-29.94,75.16,26.2,139.6,89.93,212.75,189.34,130.31,189.34,130.31Z"/><path class="cls-3" d="M19.77,130.31s-99.91.43-89.92-42c10.49-44.59,60.61-18,58.59,2.24,0,0,17.68-49.62-37.61-73C-123.47-14-199.51,75.16-143.37,139.6-79.65,212.75,19.77,130.31,19.77,130.31Z"/></g><path class="cls-6" d="M328.75,89.61A10.88,10.88,0,0,0,330,86.4l.35-1.71.26-1.73a56.21,56.21,0,0,0,.43-7,66.68,66.68,0,0,0-1.35-13.88,58.6,58.6,0,0,0-11.3-25,57.21,57.21,0,0,0-9.68-9.68c-.9-.7-1.86-1.33-2.79-2-.47-.32-.92-.67-1.41-1L303,23.58c-1-.57-1.95-1.2-3-1.71L297,20.35c-1-.54-2.1-.92-3.16-1.36s-2.12-.88-3.2-1.25l-3.28-1-1.64-.52L284,15.75c-2.24-.54-4.46-1.15-6.74-1.48l-3.4-.6c-1.14-.19-2.29-.28-3.44-.42L267,12.85c-1.15-.12-2.31-.14-3.46-.22l-3.46-.19-.87,0h-.85l-1.7,0a65.36,65.36,0,0,0-13.5,1.44,69.85,69.85,0,0,0-24.75,11,81.4,81.4,0,0,0-10.53,8.7c-1.57,1.65-3.23,3.23-4.68,5-.74.87-1.51,1.71-2.22,2.61l-2.08,2.72c-.72.89-1.35,1.85-2,2.79s-1.3,1.88-1.91,2.85c-1.15,2-2.41,3.88-3.42,5.93A91.08,91.08,0,0,0,186,68c-.7,2.17-1.5,4.31-2,6.52-.27,1.1-.63,2.19-.84,3.31l-.68,3.34a71,71,0,0,0-1.16,13.53v1.7l.12,1.69c.1,1.12.13,2.26.27,3.37a60.15,60.15,0,0,0,1.2,6.64,61.55,61.55,0,0,0,1.9,6.46,56.94,56.94,0,0,0,2.79,6.11l.79,1.48.4.74c.14.24.31.47.46.7l1.85,2.8c1.3,1.86,2.74,3.66,4.19,5.41a49,49,0,0,0,9.86,9.06,32.63,32.63,0,0,0,12.1,5,59.22,59.22,0,0,0,13.53.88c4.61-.13,9.27-.56,13.94-1l14.06-1.3c4.71-.4,9.4-.76,14.14-1a85.87,85.87,0,0,1,14.33.46,79.94,79.94,0,0,1,14,3,90.06,90.06,0,0,1,13.2,5.39c4.25,2.1,8.31,4.51,12.45,6.67a33.55,33.55,0,0,0,6.4,2.72,11.35,11.35,0,0,0,6.8,0l.11.29a11.75,11.75,0,0,1-7,.18,34,34,0,0,1-6.59-2.57c-4.23-2.09-8.32-4.4-12.58-6.39a89,89,0,0,0-13.13-5,78.48,78.48,0,0,0-13.8-2.66c-9.36-1-18.76.07-28.11.92l-14,1.49c-4.68.49-9.36,1-14.07,1.18a61.74,61.74,0,0,1-14.11-.74,34.81,34.81,0,0,1-13.09-5.27,51.64,51.64,0,0,1-10.46-9.5A63.8,63.8,0,0,1,185.16,122a59.71,59.71,0,0,1-3-6.43,64.35,64.35,0,0,1-2-6.78,63,63,0,0,1-1.29-7c-.15-1.17-.2-2.35-.31-3.53l-.14-1.77V94.71a74,74,0,0,1,1.14-14.1l.69-3.47c.21-1.16.57-2.29.85-3.43.54-2.3,1.35-4.52,2.07-6.77A92.69,92.69,0,0,1,188.91,54c1.06-2.11,2.36-4.08,3.57-6.11.63-1,1.33-2,2-2.93s1.32-2,2.07-2.87l2.17-2.8c.74-.92,1.54-1.79,2.3-2.68,1.5-1.82,3.22-3.44,4.86-5.14a84.22,84.22,0,0,1,10.95-8.95,72.58,72.58,0,0,1,25.78-11.28,66.93,66.93,0,0,1,14.06-1.42c2.36-.06,4.71.15,7.06.31,1.17.09,2.35.14,3.52.27l3.51.45c1.17.16,2.34.27,3.5.48l3.47.66c2.33.38,4.6,1,6.88,1.61l1.71.45,1.68.56,3.35,1.12c1.11.4,2.18.89,3.28,1.33s2.19.87,3.23,1.44L301,20.14c1,.54,2,1.21,3,1.81l1.51.92c.5.32,1,.68,1.44,1,.95.7,1.93,1.37,2.85,2.1a58.15,58.15,0,0,1,9.84,10.13,60,60,0,0,1,11,25.79A67.2,67.2,0,0,1,331.73,76a56.8,56.8,0,0,1-.64,7l-.31,1.74-.41,1.73A11,11,0,0,1,329,89.8Z"/><path class="cls-6" d="M315.4,52.55a32.44,32.44,0,0,0-5.4-6.13c-1-1-2.07-1.77-3.1-2.65s-2.2-1.6-3.33-2.35a53.93,53.93,0,0,0-14.78-6.56l-1-.3-1-.23-2-.47-2-.47c-.65-.16-1.33-.22-2-.34l-4-.61c-1.34-.13-2.7-.2-4-.31a80.3,80.3,0,0,0-8.1-.16,36.14,36.14,0,0,0-4,.21l-1,.08-1,.15-2,.31a63.39,63.39,0,0,0-28.28,13.9,75.26,75.26,0,0,0-19.66,24.9,59.45,59.45,0,0,0-3.05,7.28A45.41,45.41,0,0,0,204,86.39a36.08,36.08,0,0,0-.38,3.83c0,.64,0,1.27,0,1.91a12.9,12.9,0,0,0,.1,1.89L204,95.9l.39,1.83a11.91,11.91,0,0,0,.51,1.79,12.39,12.39,0,0,0,.64,1.74l.77,1.68c.3.54.64,1,1,1.58.17.26.31.53.5.78l.58.75c.4.49.75,1,1.19,1.49a29.23,29.23,0,0,0,5.72,5,36.57,36.57,0,0,0,6.87,3.58,51.87,51.87,0,0,0,7.55,2.44c10.43,2.57,21.53,3,32.53,4.19a143.54,143.54,0,0,1,16.45,2.73,71.63,71.63,0,0,1,8,2.35,57.83,57.83,0,0,1,7.58,3.46l-.14.27a63,63,0,0,0-15.65-5.09,142,142,0,0,0-16.39-2.11l-16.51-1.19a121.21,121.21,0,0,1-16.41-2.28,45.84,45.84,0,0,1-15.37-6.13A29.49,29.49,0,0,1,203,102.37a14.66,14.66,0,0,1-.74-2,14.1,14.1,0,0,1-.59-2l-.45-2-.25-2.07a14.91,14.91,0,0,1-.13-2.08c0-.69-.06-1.39,0-2.09a39,39,0,0,1,.37-4.15,48.33,48.33,0,0,1,1.87-8.1,62.44,62.44,0,0,1,3.15-7.69A78,78,0,0,1,226.8,44.47a72.41,72.41,0,0,1,13.92-9,55.49,55.49,0,0,1,15.75-5.11,47.55,47.55,0,0,1,8.28-.6,82.3,82.3,0,0,1,8.28.35c1.38.14,2.76.25,4.13.41l4.09.72c.68.13,1.37.21,2,.39l2,.53,2,.53,1,.26,1,.34a55.25,55.25,0,0,1,14.86,7.27c1.13.8,2.22,1.66,3.3,2.52s2.11,1.8,3.05,2.81a32.85,32.85,0,0,1,5.17,6.49Z"/><path class="cls-6" d="M328.48,89.59a10.6,10.6,0,0,0-.41-4.46,25.24,25.24,0,0,0-1.63-4.22,49.08,49.08,0,0,0-4.7-7.76,60.31,60.31,0,0,0-5.81-7,63.46,63.46,0,0,0-6.62-6.09,48,48,0,0,0-15.36-8.49,32.4,32.4,0,0,0-8.41-1.55,17.13,17.13,0,0,0-2.12,0,13.78,13.78,0,0,0-2.11.14l-2.1.27-2.06.48c-5.53,1.3-10.52,4.46-15,8.24a45.14,45.14,0,0,0-6.06,6.3A33.75,33.75,0,0,0,251.76,73a30.71,30.71,0,0,0-1.5,17.23,43.18,43.18,0,0,0,2.53,8.68c.56,1.42,1.19,2.81,1.9,4.18a38.51,38.51,0,0,0,2.28,4l-.24.2a44.19,44.19,0,0,1-4.88-7.94,42.8,42.8,0,0,1-3.17-8.76,31.73,31.73,0,0,1,.81-18.43,33.7,33.7,0,0,1,4.39-8.24A47.8,47.8,0,0,1,260.2,57c4.68-4.06,10.09-7.54,16.2-9.05l2.29-.52c.77-.11,1.55-.19,2.33-.29a16.05,16.05,0,0,1,2.34-.13,19.68,19.68,0,0,1,2.34,0l2.34.19,2.31.4a20.26,20.26,0,0,1,2.28.54,20.82,20.82,0,0,1,2.24.67,48.72,48.72,0,0,1,16,9.4,65.41,65.41,0,0,1,12.23,14,48,48,0,0,1,4.31,8.26A25.67,25.67,0,0,1,328.77,85a11,11,0,0,1,0,4.68Z"/><path class="cls-6" d="M343,128.77c-1.87,0-3.74-.08-5.61-.14s-3.73-.22-5.6-.36q-5.59-.42-11.18-1.06a183.69,183.69,0,0,1-22.16-4.25c-1.83-.48-3.66-1-5.48-1.6s-3.61-1.28-5.39-2a40.84,40.84,0,0,1-10.29-5.94A21.33,21.33,0,0,1,275,111.2l-1.89-2.29-.47-.57-.43-.62-.85-1.24c-.28-.42-.58-.82-.83-1.26l-.73-1.34a25.73,25.73,0,0,1-3.3-11.9,22.53,22.53,0,0,1,.17-3.14c.11-1,.37-2,.55-3.07s.56-2,.91-2.94.7-1.92,1.16-2.8a53.85,53.85,0,0,1,6.21-9.93c.28-.38.57-.76,1-1.18a14.23,14.23,0,0,1,1.12-1.2l1.21-1.09,1.3-.95a24.58,24.58,0,0,1,5.6-2.75,31,31,0,0,1,5.9-1.33,36.45,36.45,0,0,1,5.94-.18,38.08,38.08,0,0,1,21.72,7.85,27.53,27.53,0,0,1,7.18,9.08A22.54,22.54,0,0,1,327.53,81c.15.46.32.9.45,1.36l.33,1.39a25.69,25.69,0,0,1,.42,2.81c.09.94.08,1.89.12,2.82l-.31,0a25.65,25.65,0,0,0-3-10.6,26.22,26.22,0,0,0-7.26-8.27,36.25,36.25,0,0,0-20.79-6.76,31.38,31.38,0,0,0-10.9,1.66,21.91,21.91,0,0,0-4.9,2.5,15.75,15.75,0,0,0-3.88,3.86A53.38,53.38,0,0,0,272,81.28c-.43.82-.69,1.71-1,2.56s-.53,1.76-.8,2.64-.38,1.8-.47,2.71a19.49,19.49,0,0,0-.13,2.75,22.78,22.78,0,0,0,2.87,10.52l.66,1.22c.23.4.51.77.76,1.16l.77,1.15.39.57.44.54,1.75,2.15c.31.34.64.66,1,1a8.82,8.82,0,0,0,1,.93,38.32,38.32,0,0,0,9.49,5.67,91,91,0,0,0,10.47,3.79,185.31,185.31,0,0,0,21.75,4.94c7.34,1.24,14.72,2.22,22.13,2.87Z"/><path class="cls-6" d="M157.72,89.61a10.88,10.88,0,0,0,1.22-3.21l.35-1.71.26-1.73a56.21,56.21,0,0,0,.43-7,66.68,66.68,0,0,0-1.35-13.88,58.6,58.6,0,0,0-11.3-25,57.21,57.21,0,0,0-9.68-9.68c-.9-.7-1.86-1.33-2.79-2-.47-.32-.92-.67-1.41-1L132,23.58c-1-.57-1.95-1.2-3-1.71l-3.08-1.52c-1-.54-2.1-.92-3.16-1.36s-2.12-.88-3.2-1.25l-3.28-1-1.64-.52L113,15.75c-2.24-.54-4.46-1.15-6.74-1.48l-3.4-.6c-1.14-.19-2.29-.28-3.44-.42l-3.44-.39c-1.15-.12-2.31-.14-3.46-.22L89,12.44l-.87,0H87.3l-1.7,0a65.36,65.36,0,0,0-13.5,1.44,69.85,69.85,0,0,0-24.75,11,81.4,81.4,0,0,0-10.53,8.7c-1.57,1.65-3.23,3.23-4.68,5-.74.87-1.51,1.71-2.22,2.61l-2.08,2.72c-.72.89-1.35,1.85-2,2.79s-1.3,1.88-1.91,2.85c-1.15,2-2.41,3.88-3.42,5.93A91.08,91.08,0,0,0,15,68c-.7,2.17-1.5,4.31-2,6.52-.27,1.1-.63,2.19-.84,3.31l-.68,3.34A71,71,0,0,0,10.3,94.67v1.7l.12,1.69c.1,1.12.13,2.26.27,3.37a60.15,60.15,0,0,0,1.2,6.64,61.55,61.55,0,0,0,1.9,6.46,56.94,56.94,0,0,0,2.79,6.11l.79,1.48.4.74c.14.24.31.47.46.7l1.85,2.8c1.3,1.86,2.74,3.66,4.19,5.41a49,49,0,0,0,9.86,9.06,32.63,32.63,0,0,0,12.1,5,59.22,59.22,0,0,0,13.53.88c4.61-.13,9.27-.56,13.94-1l14.06-1.3c4.71-.4,9.4-.76,14.14-1a85.87,85.87,0,0,1,14.33.46,79.94,79.94,0,0,1,14,3,90.06,90.06,0,0,1,13.2,5.39c4.25,2.1,8.31,4.51,12.45,6.67a33.55,33.55,0,0,0,6.4,2.72,11.35,11.35,0,0,0,6.8,0l.11.29a11.75,11.75,0,0,1-7,.18,34,34,0,0,1-6.59-2.57c-4.23-2.09-8.32-4.4-12.58-6.39a89,89,0,0,0-13.13-5,78.48,78.48,0,0,0-13.8-2.66c-9.36-1-18.76.07-28.11.92l-14,1.49c-4.68.49-9.36,1-14.07,1.18a61.74,61.74,0,0,1-14.11-.74,34.81,34.81,0,0,1-13.09-5.27,51.64,51.64,0,0,1-10.46-9.5A63.8,63.8,0,0,1,14.13,122a59.72,59.72,0,0,1-3-6.43,64.35,64.35,0,0,1-2-6.78,63,63,0,0,1-1.29-7c-.15-1.17-.2-2.35-.31-3.53l-.14-1.77V94.71A74,74,0,0,1,8.5,80.62l.69-3.47c.21-1.16.57-2.29.85-3.43.54-2.3,1.35-4.52,2.07-6.77A92.7,92.7,0,0,1,17.87,54c1.06-2.11,2.36-4.08,3.57-6.11.63-1,1.33-2,2-2.93s1.32-2,2.07-2.87l2.17-2.8c.74-.92,1.54-1.79,2.3-2.68,1.5-1.82,3.22-3.44,4.86-5.14a84.22,84.22,0,0,1,10.95-8.95A72.58,72.58,0,0,1,71.54,11.26,66.93,66.93,0,0,1,85.6,9.84c2.36-.06,4.71.15,7.06.31,1.17.09,2.35.14,3.52.27l3.51.45c1.17.16,2.34.27,3.5.48l3.47.66c2.33.38,4.6,1,6.88,1.61l1.71.45,1.68.56,3.35,1.12c1.11.4,2.18.89,3.28,1.33s2.19.87,3.23,1.44L130,20.14c1,.54,2,1.21,3,1.81l1.51.92c.5.32,1,.68,1.44,1,.95.7,1.93,1.37,2.85,2.1a58.15,58.15,0,0,1,9.84,10.13,60,60,0,0,1,11,25.79A67.2,67.2,0,0,1,160.69,76a56.8,56.8,0,0,1-.64,7l-.31,1.74-.41,1.73A11,11,0,0,1,158,89.8Z"/><path class="cls-6" d="M144.37,52.55a32.44,32.44,0,0,0-5.4-6.13c-1-1-2.07-1.77-3.1-2.65s-2.2-1.6-3.33-2.35a53.93,53.93,0,0,0-14.78-6.56l-1-.3-1-.23-2-.47-2-.47c-.65-.16-1.33-.22-2-.34l-4-.61c-1.34-.13-2.7-.2-4-.31a80.3,80.3,0,0,0-8.1-.16,36.14,36.14,0,0,0-4,.21l-1,.08-1,.15-2,.31a63.39,63.39,0,0,0-28.28,13.9,75.26,75.26,0,0,0-19.66,24.9,59.45,59.45,0,0,0-3.05,7.28A45.41,45.41,0,0,0,33,86.39a36.08,36.08,0,0,0-.38,3.83c0,.64,0,1.27,0,1.91a12.9,12.9,0,0,0,.1,1.89l.21,1.88.39,1.83a11.91,11.91,0,0,0,.51,1.79,12.39,12.39,0,0,0,.64,1.74l.77,1.68c.3.54.64,1,1,1.58.17.26.31.53.5.78l.58.75c.4.49.75,1,1.19,1.49a29.23,29.23,0,0,0,5.72,5,36.57,36.57,0,0,0,6.87,3.58,51.87,51.87,0,0,0,7.55,2.44c10.43,2.57,21.53,3,32.53,4.19a143.54,143.54,0,0,1,16.45,2.73,71.63,71.63,0,0,1,8,2.35,57.83,57.83,0,0,1,7.58,3.46l-.14.27a63,63,0,0,0-15.65-5.09A142,142,0,0,0,91,124.4L74.52,123.2a121.21,121.21,0,0,1-16.41-2.28,45.84,45.84,0,0,1-15.37-6.13,29.49,29.49,0,0,1-10.82-12.42,14.66,14.66,0,0,1-.74-2,14.1,14.1,0,0,1-.59-2l-.45-2-.25-2.07a14.91,14.91,0,0,1-.13-2.08c0-.69-.06-1.39,0-2.09A39,39,0,0,1,30.11,86,48.33,48.33,0,0,1,32,77.88a62.44,62.44,0,0,1,3.15-7.69A78,78,0,0,1,55.77,44.47a72.41,72.41,0,0,1,13.92-9,55.49,55.49,0,0,1,15.75-5.11,47.55,47.55,0,0,1,8.28-.6,82.3,82.3,0,0,1,8.28.35c1.38.14,2.76.25,4.13.41l4.09.72c.68.13,1.37.21,2,.39l2,.53,2,.53,1,.26,1,.34a55.25,55.25,0,0,1,14.86,7.27c1.13.8,2.22,1.66,3.3,2.52s2.11,1.8,3.05,2.81a32.85,32.85,0,0,1,5.17,6.49Z"/><path class="cls-6" d="M157.45,89.59a10.6,10.6,0,0,0-.41-4.46,25.24,25.24,0,0,0-1.63-4.22,49.07,49.07,0,0,0-4.7-7.76,60.31,60.31,0,0,0-5.81-7,63.47,63.47,0,0,0-6.62-6.09,48,48,0,0,0-15.36-8.49,32.4,32.4,0,0,0-8.41-1.55,17.13,17.13,0,0,0-2.12,0,13.78,13.78,0,0,0-2.11.14l-2.1.27-2.06.48c-5.53,1.3-10.52,4.46-15,8.24A45.14,45.14,0,0,0,85,65.49,33.75,33.75,0,0,0,80.73,73a30.71,30.71,0,0,0-1.5,17.23,43.18,43.18,0,0,0,2.53,8.68c.56,1.42,1.19,2.81,1.9,4.18a38.52,38.52,0,0,0,2.28,4l-.24.2a44.19,44.19,0,0,1-4.88-7.94,42.8,42.8,0,0,1-3.17-8.76,31.73,31.73,0,0,1,.81-18.43,33.71,33.71,0,0,1,4.39-8.24A47.81,47.81,0,0,1,89.16,57C93.85,53,99.25,49.49,105.36,48l2.29-.52c.77-.11,1.55-.19,2.33-.29a16.05,16.05,0,0,1,2.34-.13,19.68,19.68,0,0,1,2.34,0l2.34.19,2.31.4a20.26,20.26,0,0,1,2.28.54,20.82,20.82,0,0,1,2.24.67,48.72,48.72,0,0,1,16,9.4,65.41,65.41,0,0,1,12.23,14,48,48,0,0,1,4.31,8.26A25.67,25.67,0,0,1,157.74,85a11,11,0,0,1,0,4.68Z"/><path class="cls-6" d="M172,128.77c-1.87,0-3.74-.08-5.61-.14s-3.73-.22-5.6-.36q-5.59-.42-11.18-1.06a183.69,183.69,0,0,1-22.16-4.25c-1.83-.48-3.66-1-5.48-1.6s-3.61-1.28-5.39-2a40.84,40.84,0,0,1-10.29-5.94A21.33,21.33,0,0,1,104,111.2l-1.89-2.29-.47-.57-.43-.62-.85-1.24c-.28-.42-.58-.82-.83-1.26l-.73-1.34A25.73,25.73,0,0,1,95.49,92a22.53,22.53,0,0,1,.17-3.14c.11-1,.37-2,.55-3.07s.56-2,.91-2.94.7-1.92,1.16-2.8a53.85,53.85,0,0,1,6.21-9.93c.28-.38.57-.76,1-1.18a14.23,14.23,0,0,1,1.12-1.2l1.21-1.09,1.3-.95a24.58,24.58,0,0,1,5.6-2.75,31,31,0,0,1,5.9-1.33,36.45,36.45,0,0,1,5.94-.18,38.08,38.08,0,0,1,21.72,7.85,27.53,27.53,0,0,1,7.18,9.08A22.54,22.54,0,0,1,156.5,81c.15.46.32.9.45,1.36l.33,1.39a25.7,25.7,0,0,1,.42,2.81c.09.94.08,1.89.12,2.82l-.31,0a25.65,25.65,0,0,0-3-10.6,26.22,26.22,0,0,0-7.26-8.27,36.25,36.25,0,0,0-20.79-6.76,31.38,31.38,0,0,0-10.9,1.66,21.91,21.91,0,0,0-4.9,2.5,15.75,15.75,0,0,0-3.88,3.86A53.38,53.38,0,0,0,101,81.28c-.43.82-.69,1.71-1,2.56s-.53,1.76-.8,2.64-.38,1.8-.47,2.71a19.49,19.49,0,0,0-.13,2.75,22.78,22.78,0,0,0,2.87,10.52l.66,1.22c.23.4.51.77.76,1.16l.77,1.15.39.57.44.54,1.75,2.15c.31.34.64.66,1,1a8.82,8.82,0,0,0,1,.93,38.32,38.32,0,0,0,9.49,5.67,91,91,0,0,0,10.47,3.79,185.31,185.31,0,0,0,21.75,4.94c7.34,1.24,14.72,2.22,22.13,2.87Z"/><path class="cls-6" d="M2.41,128.77c-1.87,0-3.74-.08-5.61-.14s-3.73-.22-5.6-.36q-5.59-.42-11.18-1.06a183.69,183.69,0,0,1-22.16-4.25c-1.83-.48-3.66-1-5.48-1.6s-3.61-1.28-5.39-2a40.84,40.84,0,0,1-10.29-5.94,21.33,21.33,0,0,1-2.28-2.18l-1.89-2.29-.47-.57-.43-.62-.85-1.24c-.28-.42-.58-.82-.83-1.26l-.73-1.34A25.73,25.73,0,0,1-74.08,92a22.53,22.53,0,0,1,.17-3.14c.11-1,.37-2,.55-3.07s.56-2,.91-2.94.7-1.92,1.16-2.8a53.85,53.85,0,0,1,6.21-9.93c.28-.38.57-.76,1-1.18A14.23,14.23,0,0,1-63,67.72l1.21-1.09,1.3-.95a24.58,24.58,0,0,1,5.6-2.75A31,31,0,0,1-49,61.61,36.45,36.45,0,0,1-43,61.43a38.08,38.08,0,0,1,21.72,7.85,27.53,27.53,0,0,1,7.18,9.08A22.54,22.54,0,0,1-13.06,81c.15.46.32.9.45,1.36l.33,1.39a25.7,25.7,0,0,1,.42,2.81c.09.94.08,1.89.12,2.82l-.31,0a25.65,25.65,0,0,0-3-10.6,26.22,26.22,0,0,0-7.26-8.27,36.25,36.25,0,0,0-20.79-6.76A31.38,31.38,0,0,0-54,65.47a21.91,21.91,0,0,0-4.9,2.5,15.75,15.75,0,0,0-3.88,3.86,53.38,53.38,0,0,0-5.81,9.45c-.43.82-.69,1.71-1,2.56s-.53,1.76-.8,2.64-.38,1.8-.47,2.71A19.49,19.49,0,0,0-71,91.95a22.78,22.78,0,0,0,2.87,10.52l.66,1.22c.23.4.51.77.76,1.16l.77,1.15.39.57.44.54,1.75,2.15c.31.34.64.66,1,1a8.82,8.82,0,0,0,1,.93,38.32,38.32,0,0,0,9.49,5.67,91,91,0,0,0,10.47,3.79,185.31,185.31,0,0,0,21.75,4.94c7.34,1.24,14.72,2.22,22.13,2.87Z"/></g></svg>