<?xml version="1.0" encoding="utf-8"?>
<!-- Generator: Adobe Illustrator 21.1.0, SVG Export Plug-In . SVG Version: 6.00 Build 0)  -->
<svg version="1.1" id="Layer_1" xmlns="http://www.w3.org/2000/svg" xmlns:xlink="http://www.w3.org/1999/xlink" x="0px" y="0px"
	 viewBox="0 0 1542 186" style="enable-background:new 0 0 1542 186;" xml:space="preserve">
<style type="text/css">
	.st0{clip-path:url(#SVGID_2_);fill:#F0F7F6;}
	.st1{clip-path:url(#SVGID_2_);fill:#E2F2F0;}
	.st2{clip-path:url(#SVGID_2_);}
	.st3{clip-path:url(#SVGID_4_);fill:#E2F2F0;}
	.st4{fill:#C3E6E6;}
	.st5{clip-path:url(#SVGID_6_);fill:#E2F2F0;}
</style>
<title>Artboard 1</title>
<g>
	<defs>
		<rect id="SVGID_1_" x="-2.9" y="-1.1" width="1543.6" height="187.7"/>
	</defs>
	<clipPath id="SVGID_2_">
		<use xlink:href="#SVGID_1_"  style="overflow:visible;"/>
	</clipPath>
	
		<rect x="-847" y="-442.9" transform="matrix(1 -3.009038e-03 3.009038e-03 1 0.349 -0.5831)" class="st0" width="1306.8" height="653.3"/>
	<polygon class="st1" points="-847,604.6 459.8,599.6 459.3,130.9 -847.5,134.9 	"/>
	<g class="st2">
		<defs>
			
				<rect id="SVGID_3_" x="-327" y="-570.2" transform="matrix(3.120645e-03 -1 1 3.120645e-03 -277.9579 -112.4115)" width="263.3" height="1306.8"/>
		</defs>
		<clipPath id="SVGID_4_">
			<use xlink:href="#SVGID_3_"  style="overflow:visible;"/>
		</clipPath>
		<path class="st3" d="M-866.1,131.7c0,0,99.7,0.4,89.8-42c-10.5-44.5-60.5-17.9-58.5,2.2c0,0-17.6-49.5,37.5-72.9
			c74.2-31.4,150.1,57.6,94,121.9C-766.9,214-866.1,131.7-866.1,131.7z"/>
		<path class="st3" d="M-695.6,132.5c0,0,99.7,0.4,89.8-42c-10.5-44.5-60.5-17.9-58.5,2.2c0,0-17.6-49.5,37.5-72.9
			c74.2-31.4,150.1,57.6,94,121.9C-596.3,214.8-695.6,132.5-695.6,132.5z"/>
		<path class="st3" d="M-526.3,132.5c0,0,99.7,0.4,89.8-42C-447,46-497,72.6-495,92.8c0,0-17.6-49.5,37.5-72.9
			c74.2-31.4,150.1,57.6,94,121.9C-427.1,214.8-526.3,132.5-526.3,132.5z"/>
		<path class="st3" d="M-356.2,132.5c0,0,99.7,0.4,89.8-42c-10.5-44.5-60.5-17.9-58.5,2.2c0,0-17.6-49.5,37.5-72.9
			c74.2-31.4,150.1,57.6,94,121.9C-256.9,214.8-356.2,132.5-356.2,132.5z"/>
		<path class="st3" d="M-186.9,132.5c0,0,99.7,0.4,89.8-42c-10.5-44.5-60.5-17.9-58.5,2.2c0,0-17.6-49.5,37.5-72.9
			C-43.9-11.5,32,77.5-24,141.8C-87.6,214.8-186.9,132.5-186.9,132.5z"/>
		<path class="st3" d="M-18.5,132.5c0,0,99.7,0.4,89.8-42C60.8,46,10.8,72.6,12.8,92.8c0,0-17.6-49.5,37.5-72.9
			c74.2-31.4,150.1,57.6,94,121.9C80.8,214.8-18.5,132.5-18.5,132.5z"/>
		<path class="st3" d="M149.9,134.1c0,0,99.7,0.4,89.8-42c-10.5-44.5-60.5-17.9-58.5,2.2c0,0-17.6-49.5,37.5-72.9
			c74.2-31.4,150.1,57.6,94,121.9C249.1,216.4,149.9,134.1,149.9,134.1z"/>
	</g>
	<g class="st2">
		<g>
			<g>
				<path class="st4" d="M-154.4,94.7c-0.8-1-1.1-2.1-1.5-3.3l-0.5-1.7l-0.4-1.7c-0.4-2.3-0.7-4.7-0.8-7c-0.3-4.7,0-9.5,0.8-14.2
					c1.5-9.4,4.9-18.6,10.7-26.4c2.9-3.9,6.2-7.4,9.9-10.5c0.9-0.8,1.9-1.5,2.9-2.2c0.5-0.4,1-0.7,1.5-1.1l1.5-1
					c1-0.6,2-1.3,3.1-1.9l3.2-1.7c1.1-0.6,2.2-1,3.3-1.5c1.1-0.5,2.2-1,3.3-1.4l3.4-1.2l1.7-0.6l1.7-0.5c2.3-0.6,4.6-1.3,7-1.7
					l3.5-0.7c1.2-0.2,2.4-0.3,3.5-0.5l3.6-0.5c1.2-0.1,2.4-0.2,3.6-0.3l3.6-0.3l0.9-0.1l0.9,0l1.8,0c4.9-0.2,9.7,0.5,14.5,1.4
					c9.5,2.1,18.6,6,26.6,11.5c4.1,2.7,7.7,5.8,11.3,9.1c1.7,1.7,3.4,3.4,5,5.2c0.8,0.9,1.6,1.8,2.4,2.7l2.2,2.9
					c0.8,0.9,1.4,1.9,2.1,2.9c0.7,1,1.4,2,2,3c1.2,2.1,2.6,4.1,3.7,6.2c2.4,4.2,4.3,8.7,5.9,13.2c0.7,2.3,1.5,4.6,2.1,7
					c0.3,1.2,0.7,2.3,0.9,3.5l0.7,3.6c0.8,4.8,1.3,9.6,1.1,14.5l0,1.8l-0.1,1.8c-0.1,1.2-0.2,2.4-0.3,3.6c-0.4,2.4-0.7,4.8-1.4,7.2
					c-0.5,2.4-1.4,4.7-2.1,7c-1,2.2-1.8,4.6-3.1,6.7l-0.9,1.6l-0.4,0.8c-0.2,0.3-0.3,0.5-0.5,0.8l-2.1,3.1c-1.4,2-2.9,3.8-4.5,5.7
					c-3.2,3.6-6.7,7.1-10.9,9.8c-2.1,1.4-4.3,2.6-6.7,3.5c-2.3,0.9-4.8,1.6-7.2,2c-4.9,0.9-9.8,0.9-14.6,0.6
					c-4.8-0.3-9.5-0.8-14.1-1.4l-14-1.7c-4.6-0.5-9.3-1-14-1.3c-4.6-0.3-9.2-0.3-13.8,0.1c-4.6,0.4-9.2,1.1-13.6,2.3
					c-4.5,1.2-8.8,2.8-13.1,4.7c-4.3,1.9-8.4,4.1-12.7,6.1c-2.1,1-4.4,1.9-6.7,2.4c-1.2,0.3-2.4,0.4-3.6,0.4c-1.2,0-2.4-0.3-3.5-0.7
					l0.1-0.3c2.2,0.8,4.6,0.8,6.8,0.2c2.3-0.6,4.4-1.5,6.5-2.6c4.2-2.1,8.3-4.4,12.5-6.4c4.2-2,8.6-3.7,13.2-5.1
					c4.5-1.3,9.2-2.2,13.8-2.7c9.4-1.1,18.8,0,28.1,0.9l14,1.5c4.7,0.5,9.3,1,14,1.2c4.7,0.2,9.4,0.1,14-0.7c4.6-0.9,9-2.6,12.9-5.2
					c3.9-2.6,7.3-5.9,10.3-9.4c3-3.6,5.8-7.3,8-11.5c1.2-2,2-4.2,2.9-6.4c0.7-2.2,1.6-4.4,2-6.7c0.6-2.3,0.9-4.6,1.3-6.9
					c0.1-1.2,0.2-2.3,0.3-3.5l0.1-1.7l0-1.8c0.1-4.7-0.4-9.3-1.1-14l-0.7-3.4c-0.2-1.2-0.6-2.3-0.9-3.4c-0.5-2.3-1.3-4.5-2.1-6.7
					c-1.6-4.4-3.4-8.7-5.7-12.8c-1-2.1-2.3-4.1-3.5-6.1c-0.6-1-1.3-1.9-2-2.9c-0.7-1-1.3-1.9-2-2.9l-2.1-2.8
					c-0.7-0.9-1.5-1.8-2.3-2.7c-1.5-1.8-3.2-3.4-4.8-5.1c-3.4-3.2-6.9-6.3-10.8-8.9c-7.7-5.4-16.4-9.2-25.5-11.2
					c-4.6-0.9-9.2-1.5-13.9-1.4c-2.3-0.1-4.7,0.1-7,0.3c-1.2,0.1-2.3,0.1-3.5,0.3l-3.5,0.4c-1.2,0.2-2.3,0.3-3.5,0.5l-3.5,0.7
					c-2.3,0.4-4.6,1-6.8,1.6l-1.7,0.4l-1.7,0.6l-3.3,1.1c-1.1,0.4-2.2,0.9-3.3,1.3c-1.1,0.5-2.2,0.9-3.2,1.4l-3.1,1.6
					c-1,0.5-2,1.2-3,1.8l-1.5,0.9c-0.5,0.3-1,0.7-1.4,1c-0.9,0.7-1.9,1.4-2.8,2.1c-3.7,2.9-6.9,6.3-9.8,10
					c-5.7,7.4-9.3,16.4-11,25.6c-0.8,4.6-1.2,9.3-1.1,14c0.1,2.3,0.3,4.7,0.6,7l0.3,1.7l0.4,1.7c0.4,1.1,0.6,2.3,1.3,3.2
					L-154.4,94.7z"/>
			</g>
			<g>
				<path class="st4" d="M-141.1,57.4c1.3-2.5,3-4.7,4.9-6.8c0.9-1.1,2-2,3-2.9c1.1-0.9,2.1-1.8,3.3-2.7c4.5-3.3,9.5-6,14.8-7.9
					l1-0.4l1-0.3l2-0.6l2-0.6c0.7-0.2,1.4-0.3,2.1-0.4l4.1-0.8c1.4-0.2,2.8-0.3,4.2-0.5c2.8-0.4,5.6-0.4,8.4-0.5
					c1.4-0.1,2.8,0,4.3,0l1.1,0l1.1,0.1l2.1,0.2c1.4,0.2,2.8,0.5,4.2,0.8c1.4,0.3,2.8,0.7,4.2,1.1c2.7,0.9,5.4,1.9,8,3.2
					c5.1,2.5,10,5.6,14.4,9.2c8.8,7.2,16.3,16.1,21.4,26.3c1.3,2.6,2.3,5.3,3.2,8c0.8,2.8,1.6,5.6,1.9,8.5c0.2,1.4,0.3,2.9,0.4,4.4
					c0,0.7,0,1.5,0,2.2c0,0.7,0,1.5-0.2,2.2l-0.3,2.2l-0.5,2.2c-0.1,0.7-0.4,1.5-0.7,2.2c-0.3,0.7-0.5,1.4-0.8,2.1
					c-2.5,5.6-6.7,10-11.7,13.3c-4.9,3.3-10.6,5.1-16.1,6.2c-5.6,1.1-11.1,1.6-16.7,2c-5.5,0.3-11,0.5-16.5,0.8
					c-10.9,0.5-21.9,1.6-32.1,6l-0.1-0.3c5-2.4,10.3-4.1,15.7-5.1c5.4-1.1,10.9-1.7,16.4-2.2l16.5-1.2c5.5-0.5,11-1.1,16.3-2.3
					c5.3-1.2,10.6-3.1,15.2-6.1c4.5-3,8.4-7.2,10.6-12.2c0.3-0.6,0.5-1.3,0.7-1.9c0.2-0.6,0.5-1.3,0.6-2l0.4-2l0.2-2
					c0.1-0.7,0.1-1.4,0.1-2c0-0.7,0.1-1.4,0-2c-0.1-1.4-0.1-2.7-0.4-4.1c-0.3-2.7-1.1-5.4-1.9-8c-0.9-2.6-1.9-5.1-3.1-7.6
					c-4.8-9.9-11.9-18.6-20.4-25.5c-4.2-3.5-8.9-6.5-13.8-8.9c-4.9-2.4-10.2-4.2-15.6-5.1c-2.7-0.4-5.4-0.7-8.2-0.6
					c-2.7,0.1-5.5,0-8.2,0.3c-1.4,0.1-2.7,0.2-4.1,0.4l-4.1,0.7c-0.7,0.1-1.4,0.2-2,0.4l-2,0.5l-2,0.5l-1,0.3l-1,0.3
					c-5.2,1.6-10.2,4.1-14.8,7.2c-1.1,0.8-2.2,1.6-3.3,2.5c-1,0.9-2.1,1.8-3,2.8c-1.9,1.9-3.7,4.1-5.1,6.4L-141.1,57.4z"/>
			</g>
			<g>
				<path class="st4" d="M-154.2,94.6c-0.5-1.5-0.5-3.2-0.4-4.7c0.2-1.6,0.6-3.1,1.1-4.7c1-3,2.4-5.9,3.9-8.7
					c3.2-5.5,7.2-10.5,12-14.8c2.4-2.2,4.9-4.2,7.7-5.8c2.8-1.7,5.7-3.2,8.8-4.3c0.8-0.3,1.6-0.5,2.4-0.7c0.8-0.2,1.6-0.5,2.4-0.6
					l2.5-0.4l2.5-0.2c0.8-0.1,1.7,0,2.5,0c0.8,0,1.7,0,2.5,0.1c0.8,0.1,1.7,0.2,2.5,0.3l2.5,0.5c6.6,1.7,12.3,5.4,17.1,9.7
					c2.4,2.2,4.6,4.7,6.5,7.3c1.9,2.7,3.4,5.7,4.5,8.8c1,3.2,1.6,6.5,1.6,9.7c0,3.3-0.5,6.5-1.4,9.6c-0.9,3.1-2.2,6-3.7,8.8
					c-1.6,2.7-3.4,5.3-5.5,7.6l-0.2-0.2c1.9-2.4,3.5-5.1,4.8-7.9c1.3-2.8,2.4-5.7,3.1-8.7c1.5-6,1.3-12.4-0.9-18.1
					c-1.1-2.9-2.5-5.6-4.4-8.1c-1.8-2.5-4-4.7-6.3-6.8c-4.6-4-10-7.4-16-8.8l-2.2-0.5c-0.8-0.1-1.5-0.2-2.3-0.3
					c-0.8-0.1-1.5-0.1-2.3-0.1c-0.8,0-1.5-0.1-2.3,0l-2.3,0.2l-2.3,0.4c-0.8,0.1-1.5,0.3-2.2,0.5c-0.7,0.2-1.5,0.4-2.2,0.6
					c-5.8,1.9-11.2,5.2-15.9,9.2c-2.4,2-4.5,4.2-6.6,6.5c-2,2.3-3.9,4.8-5.6,7.4c-1.7,2.6-3.2,5.3-4.3,8.2c-0.6,1.4-1,2.9-1.3,4.4
					c-0.3,1.5-0.4,3.1,0,4.5L-154.2,94.6z"/>
			</g>
			<g>
				<path class="st4" d="M-168.4,133.3c1.8-0.3,3.7-0.6,5.5-0.9c1.8-0.3,3.7-0.6,5.5-1c3.7-0.7,7.3-1.4,10.9-2.2
					c7.2-1.5,14.4-3.2,21.4-5.6c1.7-0.6,3.4-1.2,5.1-1.9c1.7-0.6,3.4-1.3,5-2.1c3.2-1.5,6.3-3.3,8.8-5.4c0.3-0.3,0.6-0.5,0.9-0.8
					c0.3-0.3,0.6-0.6,0.8-0.9l1.6-2l0.4-0.5l0.4-0.5l0.7-1.1c0.2-0.4,0.5-0.7,0.7-1.1l0.6-1.1c1.6-3,2.5-6.2,2.5-9.4
					c0.1-0.8-0.1-1.6-0.1-2.4c-0.1-0.8-0.3-1.6-0.4-2.4c-0.2-0.8-0.4-1.6-0.7-2.4c-0.3-0.8-0.6-1.6-1-2.4c-1.4-3.1-3.4-6.1-5.5-9
					c-0.3-0.4-0.5-0.7-0.8-1c-0.3-0.3-0.5-0.6-0.7-0.9l-0.8-0.8l-0.9-0.7c-1.3-0.9-2.8-1.7-4.3-2.3c-3.2-1.1-6.6-1.7-10.1-1.8
					c-7-0.1-14.2,1.8-20,5.8c-2.9,2-5.5,4.5-7.4,7.6c-0.4,0.8-0.9,1.5-1.3,2.4c-0.2,0.4-0.4,0.8-0.6,1.2l-0.5,1.3
					c-0.4,0.8-0.5,1.7-0.8,2.6c-0.2,0.9-0.3,1.8-0.5,2.7l-0.3,0c0.2-3.7,1.2-7.4,3-10.7c1.8-3.3,4.4-6.1,7.3-8.4
					c6-4.5,13.5-6.8,21-6.9c3.7-0.1,7.5,0.4,11.1,1.6c1.8,0.6,3.5,1.5,5,2.5c1.6,1,2.9,2.5,4,4c2.2,3,4.3,6.1,5.9,9.5
					c0.4,0.8,0.7,1.7,1.1,2.6c0.3,0.9,0.6,1.8,0.8,2.7c0.2,0.9,0.4,1.8,0.5,2.8c0.1,0.9,0.2,1.9,0.1,2.8c0,3.8-1.2,7.5-3,10.8
					l-0.7,1.2c-0.2,0.4-0.5,0.8-0.8,1.2l-0.8,1.2l-0.4,0.6l-0.4,0.5l-1.8,2.2c-0.3,0.3-0.7,0.7-1,1c-0.3,0.3-0.7,0.7-1,1
					c-2.9,2.4-6.2,4.2-9.6,5.7c-3.4,1.5-6.9,2.7-10.5,3.8c-7.1,2.1-14.4,3.6-21.8,4.9c-7.3,1.2-14.7,2.2-22.1,2.8L-168.4,133.3z"/>
			</g>
		</g>
	</g>
	<g class="st2">
		<g>
			<g>
				<path class="st4" d="M12.9,94.7c-0.8-1-1.1-2.1-1.5-3.3l-0.5-1.7L10.6,88c-0.4-2.3-0.7-4.7-0.8-7c-0.3-4.7,0-9.5,0.8-14.2
					c1.5-9.4,4.9-18.6,10.7-26.4c2.9-3.9,6.2-7.4,9.9-10.5c0.9-0.8,1.9-1.5,2.9-2.2c0.5-0.4,1-0.7,1.5-1.1l1.5-1
					c1-0.6,2-1.3,3.1-1.9l3.2-1.7c1.1-0.6,2.2-1,3.3-1.5c1.1-0.5,2.2-1,3.3-1.4l3.4-1.2l1.7-0.6l1.7-0.5c2.3-0.6,4.6-1.3,7-1.7
					l3.5-0.7c1.2-0.2,2.4-0.3,3.5-0.5l3.6-0.5c1.2-0.1,2.4-0.2,3.6-0.3l3.6-0.3l0.9-0.1l0.9,0l1.8,0c4.9-0.2,9.7,0.5,14.5,1.4
					c9.5,2.1,18.6,6,26.6,11.5c4.1,2.7,7.7,5.8,11.3,9.1c1.7,1.7,3.4,3.4,5,5.2c0.8,0.9,1.6,1.8,2.4,2.7l2.2,2.9
					c0.8,0.9,1.4,1.9,2.1,2.9c0.7,1,1.4,2,2,3c1.2,2.1,2.6,4.1,3.7,6.2c2.4,4.2,4.3,8.7,5.9,13.2c0.7,2.3,1.5,4.6,2.1,7
					c0.3,1.2,0.7,2.3,0.9,3.5l0.7,3.6c0.8,4.8,1.3,9.6,1.1,14.5l0,1.8l-0.1,1.8c-0.1,1.2-0.2,2.4-0.3,3.6c-0.4,2.4-0.7,4.8-1.4,7.2
					c-0.5,2.4-1.4,4.7-2.1,7c-1,2.2-1.8,4.6-3.1,6.7l-0.9,1.6l-0.4,0.8c-0.2,0.3-0.3,0.5-0.5,0.8l-2.1,3.1c-1.4,2-2.9,3.8-4.5,5.7
					c-3.2,3.6-6.7,7.1-10.9,9.8c-2.1,1.4-4.3,2.6-6.7,3.5c-2.3,0.9-4.8,1.6-7.2,2c-4.9,0.9-9.8,0.9-14.6,0.6
					c-4.8-0.3-9.5-0.8-14.1-1.4l-14-1.7c-4.6-0.5-9.3-1-14-1.3c-4.6-0.3-9.2-0.3-13.8,0.1c-4.6,0.4-9.2,1.1-13.6,2.3
					c-4.5,1.2-8.8,2.8-13.1,4.7c-4.3,1.9-8.4,4.1-12.7,6.1c-2.1,1-4.4,1.9-6.7,2.4c-1.2,0.3-2.4,0.4-3.6,0.4c-1.2,0-2.4-0.3-3.5-0.7
					l0.1-0.3c2.2,0.8,4.6,0.8,6.8,0.2c2.3-0.6,4.4-1.5,6.5-2.6c4.2-2.1,8.3-4.4,12.5-6.4c4.2-2,8.6-3.7,13.2-5.1
					c4.5-1.3,9.2-2.2,13.8-2.7c9.4-1.1,18.8,0,28.1,0.9l14,1.5c4.7,0.5,9.3,1,14,1.2c4.7,0.2,9.4,0.1,14-0.7c4.6-0.9,9-2.6,12.9-5.2
					c3.9-2.6,7.3-5.9,10.3-9.4c3-3.6,5.8-7.3,8-11.5c1.2-2,2-4.2,2.9-6.4c0.7-2.2,1.6-4.4,2-6.7c0.6-2.3,0.9-4.6,1.3-6.9
					c0.1-1.2,0.2-2.3,0.3-3.5l0.1-1.7l0-1.8c0.1-4.7-0.4-9.3-1.1-14l-0.7-3.4c-0.2-1.2-0.6-2.3-0.9-3.4c-0.5-2.3-1.3-4.5-2.1-6.7
					c-1.6-4.4-3.4-8.7-5.7-12.8c-1-2.1-2.3-4.1-3.5-6.1c-0.6-1-1.3-1.9-2-2.9c-0.7-1-1.3-1.9-2-2.9l-2.1-2.8
					c-0.7-0.9-1.5-1.8-2.3-2.7c-1.5-1.8-3.2-3.4-4.8-5.1c-3.4-3.2-6.9-6.3-10.8-8.9c-7.7-5.4-16.4-9.2-25.5-11.2
					c-4.6-0.9-9.2-1.5-13.9-1.4c-2.3-0.1-4.7,0.1-7,0.3c-1.2,0.1-2.3,0.1-3.5,0.3l-3.5,0.4c-1.2,0.2-2.3,0.3-3.5,0.5l-3.5,0.7
					c-2.3,0.4-4.6,1-6.8,1.6l-1.7,0.4l-1.7,0.6l-3.3,1.1c-1.1,0.4-2.2,0.9-3.3,1.3c-1.1,0.5-2.2,0.9-3.2,1.4L41,25.6
					c-1,0.5-2,1.2-3,1.8l-1.5,0.9c-0.5,0.3-1,0.7-1.4,1c-0.9,0.7-1.9,1.4-2.8,2.1c-3.7,2.9-6.9,6.3-9.8,10
					c-5.7,7.4-9.3,16.4-11,25.6c-0.8,4.6-1.2,9.3-1.1,14c0.1,2.3,0.3,4.7,0.6,7l0.3,1.7l0.4,1.7c0.4,1.1,0.6,2.3,1.3,3.2L12.9,94.7z
					"/>
			</g>
			<g>
				<path class="st4" d="M26.1,57.4c1.3-2.5,3-4.7,4.9-6.8c0.9-1.1,2-2,3-2.9c1.1-0.9,2.1-1.8,3.3-2.7c4.5-3.3,9.5-6,14.8-7.9l1-0.4
					l1-0.3l2-0.6l2-0.6c0.7-0.2,1.4-0.3,2.1-0.4l4.1-0.8c1.4-0.2,2.8-0.3,4.2-0.5c2.8-0.4,5.6-0.4,8.4-0.5c1.4-0.1,2.8,0,4.3,0
					l1.1,0l1.1,0.1l2.1,0.2c1.4,0.2,2.8,0.5,4.2,0.8c1.4,0.3,2.8,0.7,4.2,1.1c2.7,0.9,5.4,1.9,8,3.2c5.1,2.5,10,5.6,14.4,9.2
					c8.8,7.2,16.3,16.1,21.4,26.3c1.3,2.6,2.3,5.3,3.2,8c0.8,2.8,1.6,5.6,1.9,8.5c0.2,1.4,0.3,2.9,0.4,4.4c0,0.7,0,1.5,0,2.2
					c0,0.7,0,1.5-0.2,2.2l-0.3,2.2l-0.5,2.2c-0.1,0.7-0.4,1.5-0.7,2.2c-0.3,0.7-0.5,1.4-0.8,2.1c-2.5,5.6-6.7,10-11.7,13.3
					c-4.9,3.3-10.6,5.1-16.1,6.2c-5.6,1.1-11.1,1.6-16.7,2c-5.5,0.3-11,0.5-16.5,0.8c-10.9,0.5-21.9,1.6-32.1,6l-0.1-0.3
					c5-2.4,10.3-4.1,15.7-5.1c5.4-1.1,10.9-1.7,16.4-2.2l16.5-1.2c5.5-0.5,11-1.1,16.3-2.3c5.3-1.2,10.6-3.1,15.2-6.1
					c4.5-3,8.4-7.2,10.6-12.2c0.3-0.6,0.5-1.3,0.7-1.9c0.2-0.6,0.5-1.3,0.6-2l0.4-2l0.2-2c0.1-0.7,0.1-1.4,0.1-2c0-0.7,0.1-1.4,0-2
					c-0.1-1.4-0.1-2.7-0.4-4.1c-0.3-2.7-1.1-5.4-1.9-8c-0.9-2.6-1.9-5.1-3.1-7.6c-4.8-9.9-11.9-18.6-20.4-25.5
					c-4.2-3.5-8.9-6.5-13.8-8.9c-4.9-2.4-10.2-4.2-15.6-5.1c-2.7-0.4-5.4-0.7-8.2-0.6c-2.7,0.1-5.5,0-8.2,0.3
					c-1.4,0.1-2.7,0.2-4.1,0.4l-4.1,0.7c-0.7,0.1-1.4,0.2-2,0.4l-2,0.5l-2,0.5l-1,0.3l-1,0.3c-5.2,1.6-10.2,4.1-14.8,7.2
					c-1.1,0.8-2.2,1.6-3.3,2.5c-1,0.9-2.1,1.8-3,2.8c-1.9,1.9-3.7,4.1-5.1,6.4L26.1,57.4z"/>
			</g>
			<g>
				<path class="st4" d="M13.1,94.6c-0.5-1.5-0.5-3.2-0.4-4.7c0.2-1.6,0.6-3.1,1.1-4.7c1-3,2.4-5.9,3.9-8.7
					c3.2-5.5,7.2-10.5,12-14.8c2.4-2.2,4.9-4.2,7.7-5.8c2.8-1.7,5.7-3.2,8.8-4.3c0.8-0.3,1.6-0.5,2.4-0.7c0.8-0.2,1.6-0.5,2.4-0.6
					l2.5-0.4l2.5-0.2c0.8-0.1,1.7,0,2.5,0c0.8,0,1.7,0,2.5,0.1c0.8,0.1,1.7,0.2,2.5,0.3l2.5,0.5c6.6,1.7,12.3,5.4,17.1,9.7
					c2.4,2.2,4.6,4.7,6.5,7.3c1.9,2.7,3.4,5.7,4.5,8.8c1,3.2,1.6,6.5,1.6,9.7c0,3.3-0.5,6.5-1.4,9.6c-0.9,3.1-2.2,6-3.7,8.8
					c-1.6,2.7-3.4,5.3-5.5,7.6l-0.2-0.2c1.9-2.4,3.5-5.1,4.8-7.9c1.3-2.8,2.4-5.7,3.1-8.7c1.5-6,1.3-12.4-0.9-18.1
					c-1.1-2.9-2.5-5.6-4.4-8.1c-1.8-2.5-4-4.7-6.3-6.8c-4.6-4-10-7.4-16-8.8L63,53.1c-0.8-0.1-1.5-0.2-2.3-0.3
					c-0.8-0.1-1.5-0.1-2.3-0.1c-0.8,0-1.5-0.1-2.3,0l-2.3,0.2l-2.3,0.4c-0.8,0.1-1.5,0.3-2.2,0.5c-0.7,0.2-1.5,0.4-2.2,0.6
					c-5.8,1.9-11.2,5.2-15.9,9.2c-2.4,2-4.5,4.2-6.6,6.5c-2,2.3-3.9,4.8-5.6,7.4c-1.7,2.6-3.2,5.3-4.3,8.2c-0.6,1.4-1,2.9-1.3,4.4
					c-0.3,1.5-0.4,3.1,0,4.5L13.1,94.6z"/>
			</g>
			<g>
				<path class="st4" d="M-1.2,133.3c1.8-0.3,3.7-0.6,5.5-0.9c1.8-0.3,3.7-0.6,5.5-1c3.7-0.7,7.3-1.4,10.9-2.2
					c7.2-1.5,14.4-3.2,21.4-5.6c1.7-0.6,3.4-1.2,5.1-1.9c1.7-0.6,3.4-1.3,5-2.1c3.2-1.5,6.3-3.3,8.8-5.4c0.3-0.3,0.6-0.5,0.9-0.8
					c0.3-0.3,0.6-0.6,0.8-0.9l1.6-2l0.4-0.5l0.4-0.5l0.7-1.1c0.2-0.4,0.5-0.7,0.7-1.1l0.6-1.1c1.6-3,2.5-6.2,2.5-9.4
					c0.1-0.8-0.1-1.6-0.1-2.4c-0.1-0.8-0.3-1.6-0.4-2.4c-0.2-0.8-0.4-1.6-0.7-2.4c-0.3-0.8-0.6-1.6-1-2.4c-1.4-3.1-3.4-6.1-5.5-9
					c-0.3-0.4-0.5-0.7-0.8-1c-0.3-0.3-0.5-0.6-0.7-0.9l-0.8-0.8l-0.9-0.7c-1.3-0.9-2.8-1.7-4.3-2.3c-3.2-1.1-6.6-1.7-10.1-1.8
					c-7-0.1-14.2,1.8-20,5.8c-2.9,2-5.5,4.5-7.4,7.6c-0.4,0.8-0.9,1.5-1.3,2.4c-0.2,0.4-0.4,0.8-0.6,1.2L14.6,89
					c-0.4,0.8-0.5,1.7-0.8,2.6c-0.2,0.9-0.3,1.8-0.5,2.7l-0.3,0c0.2-3.7,1.2-7.4,3-10.7c1.8-3.3,4.4-6.1,7.3-8.4
					c6-4.5,13.5-6.8,21-6.9c3.7-0.1,7.5,0.4,11.1,1.6c1.8,0.6,3.5,1.5,5,2.5c1.6,1,2.9,2.5,4,4c2.2,3,4.3,6.1,5.9,9.5
					c0.4,0.8,0.7,1.7,1.1,2.6c0.3,0.9,0.6,1.8,0.8,2.7c0.2,0.9,0.4,1.8,0.5,2.8c0.1,0.9,0.2,1.9,0.1,2.8c0,3.8-1.2,7.5-3,10.8
					l-0.7,1.2c-0.2,0.4-0.5,0.8-0.8,1.2l-0.8,1.2l-0.4,0.6l-0.4,0.5l-1.8,2.2c-0.3,0.3-0.7,0.7-1,1c-0.3,0.3-0.7,0.7-1,1
					c-2.9,2.4-6.2,4.2-9.6,5.7c-3.4,1.5-6.9,2.7-10.5,3.8c-7.1,2.1-14.4,3.6-21.8,4.9c-7.3,1.2-14.7,2.2-22.1,2.8L-1.2,133.3z"/>
			</g>
		</g>
	</g>
	<g class="st2">
		<g>
			<g>
				<path class="st4" d="M181.7,94.7c-0.8-1-1.1-2.1-1.5-3.3l-0.5-1.7l-0.4-1.7c-0.4-2.3-0.7-4.7-0.8-7c-0.3-4.7,0-9.5,0.8-14.2
					c1.5-9.4,4.9-18.6,10.7-26.4c2.9-3.9,6.2-7.4,9.9-10.5c0.9-0.8,1.9-1.5,2.9-2.2c0.5-0.4,1-0.7,1.5-1.1l1.5-1
					c1-0.6,2-1.3,3.1-1.9l3.2-1.7c1.1-0.6,2.2-1,3.3-1.5c1.1-0.5,2.2-1,3.3-1.4l3.4-1.2l1.7-0.6l1.7-0.5c2.3-0.6,4.6-1.3,7-1.7
					l3.5-0.7c1.2-0.2,2.4-0.3,3.5-0.5l3.6-0.5c1.2-0.1,2.4-0.2,3.6-0.3l3.6-0.3l0.9-0.1l0.9,0l1.8,0c4.9-0.2,9.7,0.5,14.5,1.4
					c9.5,2.1,18.6,6,26.6,11.5c4.1,2.7,7.7,5.8,11.3,9.1c1.7,1.7,3.4,3.4,5,5.2c0.8,0.9,1.6,1.8,2.4,2.7l2.2,2.9
					c0.8,0.9,1.4,1.9,2.1,2.9c0.7,1,1.4,2,2,3c1.2,2.1,2.6,4.1,3.7,6.2c2.4,4.2,4.3,8.7,5.9,13.2c0.7,2.3,1.5,4.6,2.1,7
					c0.3,1.2,0.7,2.3,0.9,3.5l0.7,3.6c0.8,4.8,1.3,9.6,1.1,14.5l0,1.8l-0.1,1.8c-0.1,1.2-0.2,2.4-0.3,3.6c-0.4,2.4-0.7,4.8-1.4,7.2
					c-0.5,2.4-1.4,4.7-2.1,7c-1,2.2-1.8,4.6-3.1,6.7l-0.9,1.6l-0.4,0.8c-0.2,0.3-0.3,0.5-0.5,0.8l-2.1,3.1c-1.4,2-2.9,3.8-4.5,5.7
					c-3.2,3.6-6.7,7.1-10.9,9.8c-2.1,1.4-4.3,2.6-6.7,3.5c-2.3,0.9-4.8,1.6-7.2,2c-4.9,0.9-9.8,0.9-14.6,0.6
					c-4.8-0.3-9.5-0.8-14.1-1.4l-14-1.7c-4.6-0.5-9.3-1-14-1.3c-4.6-0.3-9.2-0.3-13.8,0.1c-4.6,0.4-9.2,1.1-13.6,2.3
					c-4.5,1.2-8.8,2.8-13.1,4.7c-4.3,1.9-8.4,4.1-12.7,6.1c-2.1,1-4.4,1.9-6.7,2.4c-1.2,0.3-2.4,0.4-3.6,0.4c-1.2,0-2.4-0.3-3.5-0.7
					l0.1-0.3c2.2,0.8,4.6,0.8,6.8,0.2c2.3-0.6,4.4-1.5,6.5-2.6c4.2-2.1,8.3-4.4,12.5-6.4c4.2-2,8.6-3.7,13.2-5.1
					c4.5-1.3,9.2-2.2,13.8-2.7c9.4-1.1,18.8,0,28.1,0.9l14,1.5c4.7,0.5,9.3,1,14,1.2c4.7,0.2,9.4,0.1,14-0.7c4.6-0.9,9-2.6,12.9-5.2
					c3.9-2.6,7.3-5.9,10.3-9.4c3-3.6,5.8-7.3,8-11.5c1.2-2,2-4.2,2.9-6.4c0.7-2.2,1.6-4.4,2-6.7c0.6-2.3,0.9-4.6,1.3-6.9
					c0.1-1.2,0.2-2.3,0.3-3.5l0.1-1.7l0-1.8c0.1-4.7-0.4-9.3-1.1-14l-0.7-3.4c-0.2-1.2-0.6-2.3-0.9-3.4c-0.5-2.3-1.3-4.5-2.1-6.7
					c-1.6-4.4-3.4-8.7-5.7-12.8c-1-2.1-2.3-4.1-3.5-6.1c-0.6-1-1.3-1.9-2-2.9c-0.7-1-1.3-1.9-2-2.9l-2.1-2.8
					c-0.7-0.9-1.5-1.8-2.3-2.7c-1.5-1.8-3.2-3.4-4.8-5.1c-3.4-3.2-6.9-6.3-10.8-8.9c-7.7-5.4-16.4-9.2-25.5-11.2
					c-4.6-0.9-9.2-1.5-13.9-1.4c-2.3-0.1-4.7,0.1-7,0.3c-1.2,0.1-2.3,0.1-3.5,0.3l-3.5,0.4c-1.2,0.2-2.3,0.3-3.5,0.5l-3.5,0.7
					c-2.3,0.4-4.6,1-6.8,1.6l-1.7,0.4l-1.7,0.6l-3.3,1.1c-1.1,0.4-2.2,0.9-3.3,1.3c-1.1,0.5-2.2,0.9-3.2,1.4l-3.1,1.6
					c-1,0.5-2,1.2-3,1.8l-1.5,0.9c-0.5,0.3-1,0.7-1.4,1c-0.9,0.7-1.9,1.4-2.8,2.1c-3.7,2.9-6.9,6.3-9.8,10
					c-5.7,7.4-9.3,16.4-11,25.6c-0.8,4.6-1.2,9.3-1.1,14c0.1,2.3,0.3,4.7,0.6,7l0.3,1.7l0.4,1.7c0.4,1.1,0.6,2.3,1.3,3.2L181.7,94.7
					z"/>
			</g>
			<g>
				<path class="st4" d="M195,57.4c1.3-2.5,3-4.7,4.9-6.8c0.9-1.1,2-2,3-2.9c1.1-0.9,2.1-1.8,3.3-2.7c4.5-3.3,9.5-6,14.8-7.9l1-0.4
					l1-0.3l2-0.6l2-0.6c0.7-0.2,1.4-0.3,2.1-0.4l4.1-0.8c1.4-0.2,2.8-0.3,4.2-0.5c2.8-0.4,5.6-0.4,8.4-0.5c1.4-0.1,2.8,0,4.3,0
					l1.1,0l1.1,0.1l2.1,0.2c1.4,0.2,2.8,0.5,4.2,0.8c1.4,0.3,2.8,0.7,4.2,1.1c2.7,0.9,5.4,1.9,8,3.2c5.1,2.5,10,5.6,14.4,9.2
					c8.8,7.2,16.3,16.1,21.4,26.3c1.3,2.6,2.3,5.3,3.2,8c0.8,2.8,1.6,5.6,1.9,8.5c0.2,1.4,0.3,2.9,0.4,4.4c0,0.7,0,1.5,0,2.2
					c0,0.7,0,1.5-0.2,2.2l-0.3,2.2l-0.5,2.2c-0.1,0.7-0.4,1.5-0.7,2.2c-0.3,0.7-0.5,1.4-0.8,2.1c-2.5,5.6-6.7,10-11.7,13.3
					c-4.9,3.3-10.6,5.1-16.1,6.2c-5.6,1.1-11.1,1.6-16.7,2c-5.5,0.3-11,0.5-16.5,0.8c-10.9,0.5-21.9,1.6-32.1,6l-0.1-0.3
					c5-2.4,10.3-4.1,15.7-5.1c5.4-1.1,10.9-1.7,16.4-2.2l16.5-1.2c5.5-0.5,11-1.1,16.3-2.3c5.3-1.2,10.6-3.1,15.2-6.1
					c4.5-3,8.4-7.2,10.6-12.2c0.3-0.6,0.5-1.3,0.7-1.9c0.2-0.6,0.5-1.3,0.6-2l0.4-2l0.2-2c0.1-0.7,0.1-1.4,0.1-2c0-0.7,0.1-1.4,0-2
					c-0.1-1.4-0.1-2.7-0.4-4.1c-0.3-2.7-1.1-5.4-1.9-8c-0.9-2.6-1.9-5.1-3.1-7.6c-4.8-9.9-11.9-18.6-20.4-25.5
					c-4.2-3.5-8.9-6.5-13.8-8.9c-4.9-2.4-10.2-4.2-15.6-5.1c-2.7-0.4-5.4-0.7-8.2-0.6c-2.7,0.1-5.5,0-8.2,0.3
					c-1.4,0.1-2.7,0.2-4.1,0.4l-4.1,0.7c-0.7,0.1-1.4,0.2-2,0.4l-2,0.5l-2,0.5l-1,0.3l-1,0.3c-5.2,1.6-10.2,4.1-14.8,7.2
					c-1.1,0.8-2.2,1.6-3.3,2.5c-1,0.9-2.1,1.8-3,2.8c-1.9,1.9-3.7,4.1-5.1,6.4L195,57.4z"/>
			</g>
			<g>
				<path class="st4" d="M181.9,94.6c-0.5-1.5-0.5-3.2-0.4-4.7c0.2-1.6,0.6-3.1,1.1-4.7c1-3,2.4-5.9,3.9-8.7
					c3.2-5.5,7.2-10.5,12-14.8c2.4-2.2,4.9-4.2,7.7-5.8c2.8-1.7,5.7-3.2,8.8-4.3c0.8-0.3,1.6-0.5,2.4-0.7c0.8-0.2,1.6-0.5,2.4-0.6
					l2.5-0.4l2.5-0.2c0.8-0.1,1.7,0,2.5,0c0.8,0,1.7,0,2.5,0.1c0.8,0.1,1.7,0.2,2.5,0.3l2.5,0.5c6.6,1.7,12.3,5.4,17.1,9.7
					c2.4,2.2,4.6,4.7,6.5,7.3c1.9,2.7,3.4,5.7,4.5,8.8c1,3.2,1.6,6.5,1.6,9.7c0,3.3-0.5,6.5-1.4,9.6c-0.9,3.1-2.2,6-3.7,8.8
					c-1.6,2.7-3.4,5.3-5.5,7.6l-0.2-0.2c1.9-2.4,3.5-5.1,4.8-7.9c1.3-2.8,2.4-5.7,3.1-8.7c1.5-6,1.3-12.4-0.9-18.1
					c-1.1-2.9-2.5-5.6-4.4-8.1c-1.8-2.5-4-4.7-6.3-6.8c-4.6-4-10-7.4-16-8.8l-2.2-0.5c-0.8-0.1-1.5-0.2-2.3-0.3
					c-0.8-0.1-1.5-0.1-2.3-0.1c-0.8,0-1.5-0.1-2.3,0l-2.3,0.2l-2.3,0.4c-0.8,0.1-1.5,0.3-2.2,0.5c-0.7,0.2-1.5,0.4-2.2,0.6
					c-5.8,1.9-11.2,5.2-15.9,9.2c-2.4,2-4.5,4.2-6.6,6.5c-2,2.3-3.9,4.8-5.6,7.4c-1.7,2.6-3.2,5.3-4.3,8.2c-0.6,1.4-1,2.9-1.3,4.4
					c-0.3,1.5-0.4,3.1,0,4.5L181.9,94.6z"/>
			</g>
			<g>
				<path class="st4" d="M167.7,133.3c1.8-0.3,3.7-0.6,5.5-0.9c1.8-0.3,3.7-0.6,5.5-1c3.7-0.7,7.3-1.4,10.9-2.2
					c7.2-1.5,14.4-3.2,21.4-5.6c1.7-0.6,3.4-1.2,5.1-1.9c1.7-0.6,3.4-1.3,5-2.1c3.2-1.5,6.3-3.3,8.8-5.4c0.3-0.3,0.6-0.5,0.9-0.8
					c0.3-0.3,0.6-0.6,0.8-0.9l1.6-2l0.4-0.5l0.4-0.5l0.7-1.1c0.2-0.4,0.5-0.7,0.7-1.1l0.6-1.1c1.6-3,2.5-6.2,2.5-9.4
					c0.1-0.8-0.1-1.6-0.1-2.4c-0.1-0.8-0.3-1.6-0.4-2.4c-0.2-0.8-0.4-1.6-0.7-2.4c-0.3-0.8-0.6-1.6-1-2.4c-1.4-3.1-3.4-6.1-5.5-9
					c-0.3-0.4-0.5-0.7-0.8-1c-0.3-0.3-0.5-0.6-0.7-0.9l-0.8-0.8l-0.9-0.7c-1.3-0.9-2.8-1.7-4.3-2.3c-3.2-1.1-6.6-1.7-10.1-1.8
					c-7-0.1-14.2,1.8-20,5.8c-2.9,2-5.5,4.5-7.4,7.6c-0.4,0.8-0.9,1.5-1.3,2.4c-0.2,0.4-0.4,0.8-0.6,1.2l-0.5,1.3
					c-0.4,0.8-0.5,1.7-0.8,2.6c-0.2,0.9-0.3,1.8-0.5,2.7l-0.3,0c0.2-3.7,1.2-7.4,3-10.7c1.8-3.3,4.4-6.1,7.3-8.4
					c6-4.5,13.5-6.8,21-6.9c3.7-0.1,7.5,0.4,11.1,1.6c1.8,0.6,3.5,1.5,5,2.5c1.6,1,2.9,2.5,4,4c2.2,3,4.3,6.1,5.9,9.5
					c0.4,0.8,0.7,1.7,1.1,2.6c0.3,0.9,0.6,1.8,0.8,2.7c0.2,0.9,0.4,1.8,0.5,2.8c0.1,0.9,0.2,1.9,0.1,2.8c0,3.8-1.2,7.5-3,10.8
					l-0.7,1.2c-0.2,0.4-0.5,0.8-0.8,1.2l-0.8,1.2l-0.4,0.6l-0.4,0.5l-1.8,2.2c-0.3,0.3-0.7,0.7-1,1c-0.3,0.3-0.7,0.7-1,1
					c-2.9,2.4-6.2,4.2-9.6,5.7c-3.4,1.5-6.9,2.7-10.5,3.8c-7.1,2.1-14.4,3.6-21.8,4.9c-7.3,1.2-14.7,2.2-22.1,2.8L167.7,133.3z"/>
			</g>
		</g>
	</g>
	
		<rect x="350.4" y="-442.9" transform="matrix(1 -3.009038e-03 3.009038e-03 1 0.3544 3.0199)" class="st0" width="1306.8" height="653.3"/>
	<polygon class="st1" points="350.4,604.6 1657.2,599.6 1656.7,130.9 349.9,134.9 	"/>
	<g class="st2">
		<defs>
			
				<rect id="SVGID_5_" x="870.4" y="-570.2" transform="matrix(3.120645e-03 -1 1 3.120645e-03 915.6891 1084.9664)" width="263.3" height="1306.8"/>
		</defs>
		<clipPath id="SVGID_6_">
			<use xlink:href="#SVGID_5_"  style="overflow:visible;"/>
		</clipPath>
		<path class="st5" d="M331.3,131.7c0,0,99.7,0.4,89.8-42c-10.5-44.5-60.5-17.9-58.5,2.2c0,0-17.6-49.5,37.5-72.9
			c74.2-31.4,150.1,57.6,94,121.9C430.5,214,331.3,131.7,331.3,131.7z"/>
		<path class="st5" d="M501.8,132.5c0,0,99.7,0.4,89.8-42c-10.5-44.5-60.5-17.9-58.5,2.2c0,0-17.6-49.5,37.5-72.9
			c74.2-31.4,150.1,57.6,94,121.9C601.1,214.8,501.8,132.5,501.8,132.5z"/>
		<path class="st5" d="M671.1,132.5c0,0,99.7,0.4,89.8-42c-10.5-44.5-60.5-17.9-58.5,2.2c0,0-17.6-49.5,37.5-72.9
			c74.2-31.4,150.1,57.6,94,121.9C770.3,214.8,671.1,132.5,671.1,132.5z"/>
		<path class="st5" d="M841.2,132.5c0,0,99.7,0.4,89.8-42c-10.5-44.5-60.5-17.9-58.5,2.2c0,0-17.6-49.5,37.5-72.9
			c74.2-31.4,150.1,57.6,94,121.9C940.5,214.8,841.2,132.5,841.2,132.5z"/>
		<path class="st5" d="M1010.5,132.5c0,0,99.7,0.4,89.8-42c-10.5-44.5-60.5-17.9-58.5,2.2c0,0-17.6-49.5,37.5-72.9
			c74.2-31.4,150.1,57.6,94,121.9C1109.7,214.8,1010.5,132.5,1010.5,132.5z"/>
		<path class="st5" d="M1178.9,132.5c0,0,99.7,0.4,89.8-42c-10.5-44.5-60.5-17.9-58.5,2.2c0,0-17.6-49.5,37.5-72.9
			c74.2-31.4,150.1,57.6,94,121.9C1278.1,214.8,1178.9,132.5,1178.9,132.5z"/>
		<path class="st5" d="M1347.3,134.1c0,0,99.7,0.4,89.8-42c-10.5-44.5-60.5-17.9-58.5,2.2c0,0-17.6-49.5,37.5-72.9
			c74.2-31.4,150.1,57.6,94,121.9C1446.5,216.4,1347.3,134.1,1347.3,134.1z"/>
	</g>
	<g class="st2">
		<g>
			<g>
				<path class="st4" d="M362.4,94.7c-0.8-1-1.1-2.1-1.5-3.3l-0.5-1.7l-0.4-1.7c-0.4-2.3-0.7-4.7-0.8-7c-0.3-4.7,0-9.5,0.8-14.2
					c1.5-9.4,4.9-18.6,10.7-26.4c2.9-3.9,6.2-7.4,9.9-10.5c0.9-0.8,1.9-1.5,2.9-2.2c0.5-0.4,1-0.7,1.5-1.1l1.5-1
					c1-0.6,2-1.3,3.1-1.9l3.2-1.7c1.1-0.6,2.2-1,3.3-1.5c1.1-0.5,2.2-1,3.3-1.4l3.4-1.2l1.7-0.6l1.7-0.5c2.3-0.6,4.6-1.3,7-1.7
					l3.5-0.7c1.2-0.2,2.4-0.3,3.5-0.5l3.6-0.5c1.2-0.1,2.4-0.2,3.6-0.3l3.6-0.3l0.9-0.1l0.9,0l1.8,0c4.9-0.2,9.7,0.5,14.5,1.4
					c9.5,2.1,18.6,6,26.6,11.5c4.1,2.7,7.7,5.8,11.3,9.1c1.7,1.7,3.4,3.4,5,5.2c0.8,0.9,1.6,1.8,2.4,2.7l2.2,2.9
					c0.8,0.9,1.4,1.9,2.1,2.9c0.7,1,1.4,2,2,3c1.2,2.1,2.6,4.1,3.7,6.2c2.4,4.2,4.3,8.7,5.9,13.2c0.7,2.3,1.5,4.6,2.1,7
					c0.3,1.2,0.7,2.3,0.9,3.5l0.7,3.6c0.8,4.8,1.3,9.6,1.1,14.5l0,1.8l-0.1,1.8c-0.1,1.2-0.2,2.4-0.3,3.6c-0.4,2.4-0.7,4.8-1.4,7.2
					c-0.5,2.4-1.4,4.7-2.1,7c-1,2.2-1.8,4.6-3.1,6.7l-0.9,1.6l-0.4,0.8c-0.2,0.3-0.3,0.5-0.5,0.8l-2.1,3.1c-1.4,2-2.9,3.8-4.5,5.7
					c-3.2,3.6-6.7,7.1-10.9,9.8c-2.1,1.4-4.3,2.6-6.7,3.5c-2.3,0.9-4.8,1.6-7.2,2c-4.9,0.9-9.8,0.9-14.6,0.6
					c-4.8-0.3-9.5-0.8-14.1-1.4l-14-1.7c-4.6-0.5-9.3-1-14-1.3c-4.6-0.3-9.2-0.3-13.8,0.1c-4.6,0.4-9.2,1.1-13.6,2.3
					c-4.5,1.2-8.8,2.8-13.1,4.7c-4.3,1.9-8.4,4.1-12.7,6.1c-2.1,1-4.4,1.9-6.7,2.4c-1.2,0.3-2.4,0.4-3.6,0.4c-1.2,0-2.4-0.3-3.5-0.7
					l0.1-0.3c2.2,0.8,4.6,0.8,6.8,0.2c2.3-0.6,4.4-1.5,6.5-2.6c4.2-2.1,8.3-4.4,12.5-6.4c4.2-2,8.6-3.7,13.2-5.1
					c4.5-1.3,9.2-2.2,13.8-2.7c9.4-1.1,18.8,0,28.1,0.9l14,1.5c4.7,0.5,9.3,1,14,1.2c4.7,0.2,9.4,0.1,14-0.7c4.6-0.9,9-2.6,12.9-5.2
					c3.9-2.6,7.3-5.9,10.3-9.4c3-3.6,5.8-7.3,8-11.5c1.2-2,2-4.2,2.9-6.4c0.7-2.2,1.6-4.4,2-6.7c0.6-2.3,0.9-4.6,1.3-6.9
					c0.1-1.2,0.2-2.3,0.3-3.5l0.1-1.7l0-1.8c0.1-4.7-0.4-9.3-1.1-14l-0.7-3.4c-0.2-1.2-0.6-2.3-0.9-3.4c-0.5-2.3-1.3-4.5-2.1-6.7
					c-1.6-4.4-3.4-8.7-5.7-12.8c-1-2.1-2.3-4.1-3.5-6.1c-0.6-1-1.3-1.9-2-2.9c-0.7-1-1.3-1.9-2-2.9l-2.1-2.8
					c-0.7-0.9-1.5-1.8-2.3-2.7c-1.5-1.8-3.2-3.4-4.8-5.1c-3.4-3.2-6.9-6.3-10.8-8.9c-7.7-5.4-16.4-9.2-25.5-11.2
					c-4.6-0.9-9.2-1.5-13.9-1.4c-2.3-0.1-4.7,0.1-7,0.3c-1.2,0.1-2.3,0.1-3.5,0.3l-3.5,0.4c-1.2,0.2-2.3,0.3-3.5,0.5l-3.5,0.7
					c-2.3,0.4-4.6,1-6.8,1.6l-1.7,0.4l-1.7,0.6l-3.3,1.1c-1.1,0.4-2.2,0.9-3.3,1.3c-1.1,0.5-2.2,0.9-3.2,1.4l-3.1,1.6
					c-1,0.5-2,1.2-3,1.8l-1.5,0.9c-0.5,0.3-1,0.7-1.4,1c-0.9,0.7-1.9,1.4-2.8,2.1c-3.7,2.9-6.9,6.3-9.8,10
					c-5.7,7.4-9.3,16.4-11,25.6c-0.8,4.6-1.2,9.3-1.1,14c0.1,2.3,0.3,4.7,0.6,7l0.3,1.7l0.4,1.7c0.4,1.1,0.6,2.3,1.3,3.2L362.4,94.7
					z"/>
			</g>
			<g>
				<path class="st4" d="M375.7,57.4c1.3-2.5,3-4.7,4.9-6.8c0.9-1.1,2-2,3-2.9c1.1-0.9,2.1-1.8,3.3-2.7c4.5-3.3,9.5-6,14.8-7.9
					l1-0.4l1-0.3l2-0.6l2-0.6c0.7-0.2,1.4-0.3,2.1-0.4l4.1-0.8c1.4-0.2,2.8-0.3,4.2-0.5c2.8-0.4,5.6-0.4,8.4-0.5
					c1.4-0.1,2.8,0,4.3,0l1.1,0l1.1,0.1l2.1,0.2c1.4,0.2,2.8,0.5,4.2,0.8c1.4,0.3,2.8,0.7,4.2,1.1c2.7,0.9,5.4,1.9,8,3.2
					c5.1,2.5,10,5.6,14.4,9.2c8.8,7.2,16.3,16.1,21.4,26.3c1.3,2.6,2.3,5.3,3.2,8c0.8,2.8,1.6,5.6,1.9,8.5c0.2,1.4,0.3,2.9,0.4,4.4
					c0,0.7,0,1.5,0,2.2c0,0.7,0,1.5-0.2,2.2l-0.3,2.2l-0.5,2.2c-0.1,0.7-0.4,1.5-0.7,2.2c-0.3,0.7-0.5,1.4-0.8,2.1
					c-2.5,5.6-6.7,10-11.7,13.3c-4.9,3.3-10.6,5.1-16.1,6.2c-5.6,1.1-11.1,1.6-16.7,2c-5.5,0.3-11,0.5-16.5,0.8
					c-10.9,0.5-21.9,1.6-32.1,6l-0.1-0.3c5-2.4,10.3-4.1,15.7-5.1c5.4-1.1,10.9-1.7,16.4-2.2l16.5-1.2c5.5-0.5,11-1.1,16.3-2.3
					c5.3-1.2,10.6-3.1,15.2-6.1c4.5-3,8.4-7.2,10.6-12.2c0.3-0.6,0.5-1.3,0.7-1.9c0.2-0.6,0.5-1.3,0.6-2l0.4-2l0.2-2
					c0.1-0.7,0.1-1.4,0.1-2c0-0.7,0.1-1.4,0-2c-0.1-1.4-0.1-2.7-0.4-4.1c-0.3-2.7-1.1-5.4-1.9-8c-0.9-2.6-1.9-5.1-3.1-7.6
					c-4.8-9.9-11.9-18.6-20.4-25.5c-4.2-3.5-8.9-6.5-13.8-8.9c-4.9-2.4-10.2-4.2-15.6-5.1c-2.7-0.4-5.4-0.7-8.2-0.6
					c-2.7,0.1-5.5,0-8.2,0.3c-1.4,0.1-2.7,0.2-4.1,0.4l-4.1,0.7c-0.7,0.1-1.4,0.2-2,0.4l-2,0.5l-2,0.5l-1,0.3l-1,0.3
					c-5.2,1.6-10.2,4.1-14.8,7.2c-1.1,0.8-2.2,1.6-3.3,2.5c-1,0.9-2.1,1.8-3,2.8c-1.9,1.9-3.7,4.1-5.1,6.4L375.7,57.4z"/>
			</g>
			<g>
				<path class="st4" d="M362.6,94.6c-0.5-1.5-0.5-3.2-0.4-4.7c0.2-1.6,0.6-3.1,1.1-4.7c1-3,2.4-5.9,3.9-8.7
					c3.2-5.5,7.2-10.5,12-14.8c2.4-2.2,4.9-4.2,7.7-5.8c2.8-1.7,5.7-3.2,8.8-4.3c0.8-0.3,1.6-0.5,2.4-0.7c0.8-0.2,1.6-0.5,2.4-0.6
					l2.5-0.4l2.5-0.2c0.8-0.1,1.7,0,2.5,0c0.8,0,1.7,0,2.5,0.1c0.8,0.1,1.7,0.2,2.5,0.3l2.5,0.5c6.6,1.7,12.3,5.4,17.1,9.7
					c2.4,2.2,4.6,4.7,6.5,7.3c1.9,2.7,3.4,5.7,4.5,8.8c1,3.2,1.6,6.5,1.6,9.7c0,3.3-0.5,6.5-1.4,9.6c-0.9,3.1-2.2,6-3.7,8.8
					c-1.6,2.7-3.4,5.3-5.5,7.6l-0.2-0.2c1.9-2.4,3.5-5.1,4.8-7.9c1.3-2.8,2.4-5.7,3.1-8.7c1.5-6,1.3-12.4-0.9-18.1
					c-1.1-2.9-2.5-5.6-4.4-8.1c-1.8-2.5-4-4.7-6.3-6.8c-4.6-4-10-7.4-16-8.8l-2.2-0.5c-0.8-0.1-1.5-0.2-2.3-0.3
					c-0.8-0.1-1.5-0.1-2.3-0.1c-0.8,0-1.5-0.1-2.3,0l-2.3,0.2l-2.3,0.4c-0.8,0.1-1.5,0.3-2.2,0.5c-0.7,0.2-1.5,0.4-2.2,0.6
					c-5.8,1.9-11.2,5.2-15.9,9.2c-2.4,2-4.5,4.2-6.6,6.5c-2,2.3-3.9,4.8-5.6,7.4c-1.7,2.6-3.2,5.3-4.3,8.2c-0.6,1.4-1,2.9-1.3,4.4
					c-0.3,1.5-0.4,3.1,0,4.5L362.6,94.6z"/>
			</g>
			<g>
				<path class="st4" d="M348.4,133.3c1.8-0.3,3.7-0.6,5.5-0.9c1.8-0.3,3.7-0.6,5.5-1c3.7-0.7,7.3-1.4,10.9-2.2
					c7.2-1.5,14.4-3.2,21.4-5.6c1.7-0.6,3.4-1.2,5.1-1.9c1.7-0.6,3.4-1.3,5-2.1c3.2-1.5,6.3-3.3,8.8-5.4c0.3-0.3,0.6-0.5,0.9-0.8
					c0.3-0.3,0.6-0.6,0.8-0.9l1.6-2l0.4-0.5l0.4-0.5l0.7-1.1c0.2-0.4,0.5-0.7,0.7-1.1l0.6-1.1c1.6-3,2.5-6.2,2.5-9.4
					c0.1-0.8-0.1-1.6-0.1-2.4c-0.1-0.8-0.3-1.6-0.4-2.4c-0.2-0.8-0.4-1.6-0.7-2.4c-0.3-0.8-0.6-1.6-1-2.4c-1.4-3.1-3.4-6.1-5.5-9
					c-0.3-0.4-0.5-0.7-0.8-1c-0.3-0.3-0.5-0.6-0.7-0.9l-0.8-0.8l-0.9-0.7c-1.3-0.9-2.8-1.7-4.3-2.3c-3.2-1.1-6.6-1.7-10.1-1.8
					c-7-0.1-14.2,1.8-20,5.8c-2.9,2-5.5,4.5-7.4,7.6c-0.4,0.8-0.9,1.5-1.3,2.4c-0.2,0.4-0.4,0.8-0.6,1.2l-0.5,1.3
					c-0.4,0.8-0.5,1.7-0.8,2.6c-0.2,0.9-0.3,1.8-0.5,2.7l-0.3,0c0.2-3.7,1.2-7.4,3-10.7c1.8-3.3,4.4-6.1,7.3-8.4
					c6-4.5,13.5-6.8,21-6.9c3.7-0.1,7.5,0.4,11.1,1.6c1.8,0.6,3.5,1.5,5,2.5c1.6,1,2.9,2.5,4,4c2.2,3,4.3,6.1,5.9,9.5
					c0.4,0.8,0.7,1.7,1.1,2.6c0.3,0.9,0.6,1.8,0.8,2.7c0.2,0.9,0.4,1.8,0.5,2.8c0.1,0.9,0.2,1.9,0.1,2.8c0,3.8-1.2,7.5-3,10.8
					l-0.7,1.2c-0.2,0.4-0.5,0.8-0.8,1.2l-0.8,1.2l-0.4,0.6l-0.4,0.5l-1.8,2.2c-0.3,0.3-0.7,0.7-1,1c-0.3,0.3-0.7,0.7-1,1
					c-2.9,2.4-6.2,4.2-9.6,5.7c-3.4,1.5-6.9,2.7-10.5,3.8c-7.1,2.1-14.4,3.6-21.8,4.9c-7.3,1.2-14.7,2.2-22.1,2.8L348.4,133.3z"/>
			</g>
		</g>
	</g>
	<g class="st2">
		<g>
			<g>
				<path class="st4" d="M533.2,94.7c-0.8-1-1.1-2.1-1.5-3.3l-0.5-1.7l-0.4-1.7c-0.4-2.3-0.7-4.7-0.8-7c-0.3-4.7,0-9.5,0.8-14.2
					c1.5-9.4,4.9-18.6,10.7-26.4c2.9-3.9,6.2-7.4,9.9-10.5c0.9-0.8,1.9-1.5,2.9-2.2c0.5-0.4,1-0.7,1.5-1.1l1.5-1
					c1-0.6,2-1.3,3.1-1.9l3.2-1.7c1.1-0.6,2.2-1,3.3-1.5c1.1-0.5,2.2-1,3.3-1.4l3.4-1.2l1.7-0.6L577,17c2.3-0.6,4.6-1.3,7-1.7
					l3.5-0.7c1.2-0.2,2.4-0.3,3.5-0.5l3.6-0.5c1.2-0.1,2.4-0.2,3.6-0.3l3.6-0.3l0.9-0.1l0.9,0l1.8,0c4.9-0.2,9.7,0.5,14.5,1.4
					c9.5,2.1,18.6,6,26.6,11.5c4.1,2.7,7.7,5.8,11.3,9.1c1.7,1.7,3.4,3.4,5,5.2c0.8,0.9,1.6,1.8,2.4,2.7l2.2,2.9
					c0.8,0.9,1.4,1.9,2.1,2.9c0.7,1,1.4,2,2,3c1.2,2.1,2.6,4.1,3.7,6.2c2.4,4.2,4.3,8.7,5.9,13.2c0.7,2.3,1.5,4.6,2.1,7
					c0.3,1.2,0.7,2.3,0.9,3.5l0.7,3.6c0.8,4.8,1.3,9.6,1.1,14.5l0,1.8l-0.1,1.8c-0.1,1.2-0.2,2.4-0.3,3.6c-0.4,2.4-0.7,4.8-1.4,7.2
					c-0.5,2.4-1.4,4.7-2.1,7c-1,2.2-1.8,4.6-3.1,6.7l-0.9,1.6l-0.4,0.8c-0.2,0.3-0.3,0.5-0.5,0.8l-2.1,3.1c-1.4,2-2.9,3.8-4.5,5.7
					c-3.2,3.6-6.7,7.1-10.9,9.8c-2.1,1.4-4.3,2.6-6.7,3.5c-2.3,0.9-4.8,1.6-7.2,2c-4.9,0.9-9.8,0.9-14.6,0.6
					c-4.8-0.3-9.5-0.8-14.1-1.4l-14-1.7c-4.6-0.5-9.3-1-14-1.3c-4.6-0.3-9.2-0.3-13.8,0.1c-4.6,0.4-9.2,1.1-13.6,2.3
					c-4.5,1.2-8.8,2.8-13.1,4.7c-4.3,1.9-8.4,4.1-12.7,6.1c-2.1,1-4.4,1.9-6.7,2.4c-1.2,0.3-2.4,0.4-3.6,0.4c-1.2,0-2.4-0.3-3.5-0.7
					l0.1-0.3c2.2,0.8,4.6,0.8,6.8,0.2c2.3-0.6,4.4-1.5,6.5-2.6c4.2-2.1,8.3-4.4,12.5-6.4c4.2-2,8.6-3.7,13.2-5.1
					c4.5-1.3,9.2-2.2,13.8-2.7c9.4-1.1,18.8,0,28.1,0.9l14,1.5c4.7,0.5,9.3,1,14,1.2c4.7,0.2,9.4,0.1,14-0.7c4.6-0.9,9-2.6,12.9-5.2
					c3.9-2.6,7.3-5.9,10.3-9.4c3-3.6,5.8-7.3,8-11.5c1.2-2,2-4.2,2.9-6.4c0.7-2.2,1.6-4.4,2-6.7c0.6-2.3,0.9-4.6,1.3-6.9
					c0.1-1.2,0.2-2.3,0.3-3.5l0.1-1.7l0-1.8c0.1-4.7-0.4-9.3-1.1-14l-0.7-3.4c-0.2-1.2-0.6-2.3-0.9-3.4c-0.5-2.3-1.3-4.5-2.1-6.7
					c-1.6-4.4-3.4-8.7-5.7-12.8c-1-2.1-2.3-4.1-3.5-6.1c-0.6-1-1.3-1.9-2-2.9c-0.7-1-1.3-1.9-2-2.9l-2.1-2.8
					c-0.7-0.9-1.5-1.8-2.3-2.7c-1.5-1.8-3.2-3.4-4.8-5.1c-3.4-3.2-6.9-6.3-10.8-8.9c-7.7-5.4-16.4-9.2-25.5-11.2
					c-4.6-0.9-9.2-1.5-13.9-1.4c-2.3-0.1-4.7,0.1-7,0.3c-1.2,0.1-2.3,0.1-3.5,0.3l-3.5,0.4c-1.2,0.2-2.3,0.3-3.5,0.5l-3.5,0.7
					c-2.3,0.4-4.6,1-6.8,1.6l-1.7,0.4l-1.7,0.6l-3.3,1.1c-1.1,0.4-2.2,0.9-3.3,1.3c-1.1,0.5-2.2,0.9-3.2,1.4l-3.1,1.6
					c-1,0.5-2,1.2-3,1.8l-1.5,0.9c-0.5,0.3-1,0.7-1.4,1c-0.9,0.7-1.9,1.4-2.8,2.1c-3.7,2.9-6.9,6.3-9.8,10
					c-5.7,7.4-9.3,16.4-11,25.6c-0.8,4.6-1.2,9.3-1.1,14c0.1,2.3,0.3,4.7,0.6,7l0.3,1.7l0.4,1.7c0.4,1.1,0.6,2.3,1.3,3.2L533.2,94.7
					z"/>
			</g>
			<g>
				<path class="st4" d="M546.4,57.4c1.3-2.5,3-4.7,4.9-6.8c0.9-1.1,2-2,3-2.9c1.1-0.9,2.1-1.8,3.3-2.7c4.5-3.3,9.5-6,14.8-7.9
					l1-0.4l1-0.3l2-0.6l2-0.6c0.7-0.2,1.4-0.3,2.1-0.4l4.1-0.8c1.4-0.2,2.8-0.3,4.2-0.5c2.8-0.4,5.6-0.4,8.4-0.5
					c1.4-0.1,2.8,0,4.3,0l1.1,0l1.1,0.1l2.1,0.2c1.4,0.2,2.8,0.5,4.2,0.8c1.4,0.3,2.8,0.7,4.2,1.1c2.7,0.9,5.4,1.9,8,3.2
					c5.1,2.5,10,5.6,14.4,9.2c8.8,7.2,16.3,16.1,21.4,26.3c1.3,2.6,2.3,5.3,3.2,8c0.8,2.8,1.6,5.6,1.9,8.5c0.2,1.4,0.3,2.9,0.4,4.4
					c0,0.7,0,1.5,0,2.2c0,0.7,0,1.5-0.2,2.2l-0.3,2.2l-0.5,2.2c-0.1,0.7-0.4,1.5-0.7,2.2c-0.3,0.7-0.5,1.4-0.8,2.1
					c-2.5,5.6-6.7,10-11.7,13.3c-4.9,3.3-10.6,5.1-16.1,6.2c-5.6,1.1-11.1,1.6-16.7,2c-5.5,0.3-11,0.5-16.5,0.8
					c-10.9,0.5-21.9,1.6-32.1,6l-0.1-0.3c5-2.4,10.3-4.1,15.7-5.1c5.4-1.1,10.9-1.7,16.4-2.2l16.5-1.2c5.5-0.5,11-1.1,16.3-2.3
					c5.3-1.2,10.6-3.1,15.2-6.1c4.5-3,8.4-7.2,10.6-12.2c0.3-0.6,0.5-1.3,0.7-1.9c0.2-0.6,0.5-1.3,0.6-2l0.4-2l0.2-2
					c0.1-0.7,0.1-1.4,0.1-2c0-0.7,0.1-1.4,0-2c-0.1-1.4-0.1-2.7-0.4-4.1c-0.3-2.7-1.1-5.4-1.9-8c-0.9-2.6-1.9-5.1-3.1-7.6
					c-4.8-9.9-11.9-18.6-20.4-25.5c-4.2-3.5-8.9-6.5-13.8-8.9c-4.9-2.4-10.2-4.2-15.6-5.1c-2.7-0.4-5.4-0.7-8.2-0.6
					c-2.7,0.1-5.5,0-8.2,0.3c-1.4,0.1-2.7,0.2-4.1,0.4l-4.1,0.7c-0.7,0.1-1.4,0.2-2,0.4l-2,0.5l-2,0.5l-1,0.3l-1,0.3
					c-5.2,1.6-10.2,4.1-14.8,7.2c-1.1,0.8-2.2,1.6-3.3,2.5c-1,0.9-2.1,1.8-3,2.8c-1.9,1.9-3.7,4.1-5.1,6.4L546.4,57.4z"/>
			</g>
			<g>
				<path class="st4" d="M533.4,94.6c-0.5-1.5-0.5-3.2-0.4-4.7c0.2-1.6,0.6-3.1,1.1-4.7c1-3,2.4-5.9,3.9-8.7
					c3.2-5.5,7.2-10.5,12-14.8c2.4-2.2,4.9-4.2,7.7-5.8c2.8-1.7,5.7-3.2,8.8-4.3c0.8-0.3,1.6-0.5,2.4-0.7c0.8-0.2,1.6-0.5,2.4-0.6
					l2.5-0.4l2.5-0.2c0.8-0.1,1.7,0,2.5,0c0.8,0,1.7,0,2.5,0.1c0.8,0.1,1.7,0.2,2.5,0.3l2.5,0.5c6.6,1.7,12.3,5.4,17.1,9.7
					c2.4,2.2,4.6,4.7,6.5,7.3c1.9,2.7,3.4,5.7,4.5,8.8c1,3.2,1.6,6.5,1.6,9.7c0,3.3-0.5,6.5-1.4,9.6c-0.9,3.1-2.2,6-3.7,8.8
					c-1.6,2.7-3.4,5.3-5.5,7.6L605,112c1.9-2.4,3.5-5.1,4.8-7.9c1.3-2.8,2.4-5.7,3.1-8.7c1.5-6,1.3-12.4-0.9-18.1
					c-1.1-2.9-2.5-5.6-4.4-8.1c-1.8-2.5-4-4.7-6.3-6.8c-4.6-4-10-7.4-16-8.8l-2.2-0.5c-0.8-0.1-1.5-0.2-2.3-0.3
					c-0.8-0.1-1.5-0.1-2.3-0.1c-0.8,0-1.5-0.1-2.3,0l-2.3,0.2l-2.3,0.4c-0.8,0.1-1.5,0.3-2.2,0.5c-0.7,0.2-1.5,0.4-2.2,0.6
					c-5.8,1.9-11.2,5.2-15.9,9.2c-2.4,2-4.5,4.2-6.6,6.5c-2,2.3-3.9,4.8-5.6,7.4c-1.7,2.6-3.2,5.3-4.3,8.2c-0.6,1.4-1,2.9-1.3,4.4
					c-0.3,1.5-0.4,3.1,0,4.5L533.4,94.6z"/>
			</g>
			<g>
				<path class="st4" d="M519.1,133.3c1.8-0.3,3.7-0.6,5.5-0.9c1.8-0.3,3.7-0.6,5.5-1c3.7-0.7,7.3-1.4,10.9-2.2
					c7.2-1.5,14.4-3.2,21.4-5.6c1.7-0.6,3.4-1.2,5.1-1.9c1.7-0.6,3.4-1.3,5-2.1c3.2-1.5,6.3-3.3,8.8-5.4c0.3-0.3,0.6-0.5,0.9-0.8
					c0.3-0.3,0.6-0.6,0.8-0.9l1.6-2l0.4-0.5l0.4-0.5l0.7-1.1c0.2-0.4,0.5-0.7,0.7-1.1l0.6-1.1c1.6-3,2.5-6.2,2.5-9.4
					c0.1-0.8-0.1-1.6-0.1-2.4c-0.1-0.8-0.3-1.6-0.4-2.4c-0.2-0.8-0.4-1.6-0.7-2.4c-0.3-0.8-0.6-1.6-1-2.4c-1.4-3.1-3.4-6.1-5.5-9
					c-0.3-0.4-0.5-0.7-0.8-1c-0.3-0.3-0.5-0.6-0.7-0.9l-0.8-0.8l-0.9-0.7c-1.3-0.9-2.8-1.7-4.3-2.3c-3.2-1.1-6.6-1.7-10.1-1.8
					c-7-0.1-14.2,1.8-20,5.8c-2.9,2-5.5,4.5-7.4,7.6c-0.4,0.8-0.9,1.5-1.3,2.4c-0.2,0.4-0.4,0.8-0.6,1.2l-0.5,1.3
					c-0.4,0.8-0.5,1.7-0.8,2.6c-0.2,0.9-0.3,1.8-0.5,2.7l-0.3,0c0.2-3.7,1.2-7.4,3-10.7c1.8-3.3,4.4-6.1,7.3-8.4
					c6-4.5,13.5-6.8,21-6.9c3.7-0.1,7.5,0.4,11.1,1.6c1.8,0.6,3.5,1.5,5,2.5c1.6,1,2.9,2.5,4,4c2.2,3,4.3,6.1,5.9,9.5
					c0.4,0.8,0.7,1.7,1.1,2.6c0.3,0.9,0.6,1.8,0.8,2.7c0.2,0.9,0.4,1.8,0.5,2.8c0.1,0.9,0.2,1.9,0.1,2.8c0,3.8-1.2,7.5-3,10.8
					l-0.7,1.2c-0.2,0.4-0.5,0.8-0.8,1.2l-0.8,1.2l-0.4,0.6l-0.4,0.5l-1.8,2.2c-0.3,0.3-0.7,0.7-1,1c-0.3,0.3-0.7,0.7-1,1
					c-2.9,2.4-6.2,4.2-9.6,5.7c-3.4,1.5-6.9,2.7-10.5,3.8c-7.1,2.1-14.4,3.6-21.8,4.9c-7.3,1.2-14.7,2.2-22.1,2.8L519.1,133.3z"/>
			</g>
		</g>
	</g>
	<g class="st2">
		<g>
			<g>
				<path class="st4" d="M702.4,94.7c-0.8-1-1.1-2.1-1.5-3.3l-0.5-1.7l-0.4-1.7c-0.4-2.3-0.7-4.7-0.8-7c-0.3-4.7,0-9.5,0.8-14.2
					c1.5-9.4,4.9-18.6,10.7-26.4c2.9-3.9,6.2-7.4,9.9-10.5c0.9-0.8,1.9-1.5,2.9-2.2c0.5-0.4,1-0.7,1.5-1.1l1.5-1
					c1-0.6,2-1.3,3.1-1.9l3.2-1.7c1.1-0.6,2.2-1,3.3-1.5c1.1-0.5,2.2-1,3.3-1.4l3.4-1.2l1.7-0.6l1.7-0.5c2.3-0.6,4.6-1.3,7-1.7
					l3.5-0.7c1.2-0.2,2.4-0.3,3.5-0.5l3.6-0.5c1.2-0.1,2.4-0.2,3.6-0.3l3.6-0.3l0.9-0.1l0.9,0l1.8,0c4.9-0.2,9.7,0.5,14.5,1.4
					c9.5,2.1,18.6,6,26.6,11.5c4.1,2.7,7.7,5.8,11.3,9.1c1.7,1.7,3.4,3.4,5,5.2c0.8,0.9,1.6,1.8,2.4,2.7l2.2,2.9
					c0.8,0.9,1.4,1.9,2.1,2.9c0.7,1,1.4,2,2,3c1.2,2.1,2.6,4.1,3.7,6.2c2.4,4.2,4.3,8.7,5.9,13.2c0.7,2.3,1.5,4.6,2.1,7
					c0.3,1.2,0.7,2.3,0.9,3.5l0.7,3.6c0.8,4.8,1.3,9.6,1.1,14.5l0,1.8l-0.1,1.8c-0.1,1.2-0.2,2.4-0.3,3.6c-0.4,2.4-0.7,4.8-1.4,7.2
					c-0.5,2.4-1.4,4.7-2.1,7c-1,2.2-1.8,4.6-3.1,6.7l-0.9,1.6l-0.4,0.8c-0.2,0.3-0.3,0.5-0.5,0.8l-2.1,3.1c-1.4,2-2.9,3.8-4.5,5.7
					c-3.2,3.6-6.7,7.1-10.9,9.8c-2.1,1.4-4.3,2.6-6.7,3.5c-2.3,0.9-4.8,1.6-7.2,2c-4.9,0.9-9.8,0.9-14.6,0.6
					c-4.8-0.3-9.5-0.8-14.1-1.4l-14-1.7c-4.6-0.5-9.3-1-14-1.3c-4.6-0.3-9.2-0.3-13.8,0.1c-4.6,0.4-9.2,1.1-13.6,2.3
					c-4.5,1.2-8.8,2.8-13.1,4.7c-4.3,1.9-8.4,4.1-12.7,6.1c-2.1,1-4.4,1.9-6.7,2.4c-1.2,0.3-2.4,0.4-3.6,0.4c-1.2,0-2.4-0.3-3.5-0.7
					l0.1-0.3c2.2,0.8,4.6,0.8,6.8,0.2c2.3-0.6,4.4-1.5,6.5-2.6c4.2-2.1,8.3-4.4,12.5-6.4c4.2-2,8.6-3.7,13.2-5.1
					c4.5-1.3,9.2-2.2,13.8-2.7c9.4-1.1,18.8,0,28.1,0.9l14,1.5c4.7,0.5,9.3,1,14,1.2c4.7,0.2,9.4,0.1,14-0.7c4.6-0.9,9-2.6,12.9-5.2
					c3.9-2.6,7.3-5.9,10.3-9.4c3-3.6,5.8-7.3,8-11.5c1.2-2,2-4.2,2.9-6.4c0.7-2.2,1.6-4.4,2-6.7c0.6-2.3,0.9-4.6,1.3-6.9
					c0.1-1.2,0.2-2.3,0.3-3.5l0.1-1.7l0-1.8c0.1-4.7-0.4-9.3-1.1-14l-0.7-3.4c-0.2-1.2-0.6-2.3-0.9-3.4c-0.5-2.3-1.3-4.5-2.1-6.7
					c-1.6-4.4-3.4-8.7-5.7-12.8c-1-2.1-2.3-4.1-3.5-6.1c-0.6-1-1.3-1.9-2-2.9c-0.7-1-1.3-1.9-2-2.9l-2.1-2.8
					c-0.7-0.9-1.5-1.8-2.3-2.7c-1.5-1.8-3.2-3.4-4.8-5.1c-3.4-3.2-6.9-6.3-10.8-8.9c-7.7-5.4-16.4-9.2-25.5-11.2
					c-4.6-0.9-9.2-1.5-13.9-1.4c-2.3-0.1-4.7,0.1-7,0.3c-1.2,0.1-2.3,0.1-3.5,0.3l-3.5,0.4c-1.2,0.2-2.3,0.3-3.5,0.5l-3.5,0.7
					c-2.3,0.4-4.6,1-6.8,1.6l-1.7,0.4l-1.7,0.6l-3.3,1.1c-1.1,0.4-2.2,0.9-3.3,1.3c-1.1,0.5-2.2,0.9-3.2,1.4l-3.1,1.6
					c-1,0.5-2,1.2-3,1.8l-1.5,0.9c-0.5,0.3-1,0.7-1.4,1c-0.9,0.7-1.9,1.4-2.8,2.1c-3.7,2.9-6.9,6.3-9.8,10
					c-5.7,7.4-9.3,16.4-11,25.6c-0.8,4.6-1.2,9.3-1.1,14c0.1,2.3,0.3,4.7,0.6,7l0.3,1.7l0.4,1.7c0.4,1.1,0.6,2.3,1.3,3.2L702.4,94.7
					z"/>
			</g>
			<g>
				<path class="st4" d="M715.7,57.4c1.3-2.5,3-4.7,4.9-6.8c0.9-1.1,2-2,3-2.9c1.1-0.9,2.1-1.8,3.3-2.7c4.5-3.3,9.5-6,14.8-7.9
					l1-0.4l1-0.3l2-0.6l2-0.6c0.7-0.2,1.4-0.3,2.1-0.4l4.1-0.8c1.4-0.2,2.8-0.3,4.2-0.5c2.8-0.4,5.6-0.4,8.4-0.5
					c1.4-0.1,2.8,0,4.3,0l1.1,0l1.1,0.1l2.1,0.2c1.4,0.2,2.8,0.5,4.2,0.8c1.4,0.3,2.8,0.7,4.2,1.1c2.7,0.9,5.4,1.9,8,3.2
					c5.1,2.5,10,5.6,14.4,9.2c8.8,7.2,16.3,16.1,21.4,26.3c1.3,2.6,2.3,5.3,3.2,8c0.8,2.8,1.6,5.6,1.9,8.5c0.2,1.4,0.3,2.9,0.4,4.4
					c0,0.7,0,1.5,0,2.2c0,0.7,0,1.5-0.2,2.2l-0.3,2.2l-0.5,2.2c-0.1,0.7-0.4,1.5-0.7,2.2c-0.3,0.7-0.5,1.4-0.8,2.1
					c-2.5,5.6-6.7,10-11.7,13.3c-4.9,3.3-10.6,5.1-16.1,6.2c-5.6,1.1-11.1,1.6-16.7,2c-5.5,0.3-11,0.5-16.5,0.8
					c-10.9,0.5-21.9,1.6-32.1,6l-0.1-0.3c5-2.4,10.3-4.1,15.7-5.1c5.4-1.1,10.9-1.7,16.4-2.2l16.5-1.2c5.5-0.5,11-1.1,16.3-2.3
					c5.3-1.2,10.6-3.1,15.2-6.1c4.5-3,8.4-7.2,10.6-12.2c0.3-0.6,0.5-1.3,0.7-1.9c0.2-0.6,0.5-1.3,0.6-2l0.4-2l0.2-2
					c0.1-0.7,0.1-1.4,0.1-2c0-0.7,0.1-1.4,0-2c-0.1-1.4-0.1-2.7-0.4-4.1c-0.3-2.7-1.1-5.4-1.9-8c-0.9-2.6-1.9-5.1-3.1-7.6
					c-4.8-9.9-11.9-18.6-20.4-25.5c-4.2-3.5-8.9-6.5-13.8-8.9c-4.9-2.4-10.2-4.2-15.6-5.1c-2.7-0.4-5.4-0.7-8.2-0.6
					c-2.7,0.1-5.5,0-8.2,0.3c-1.4,0.1-2.7,0.2-4.1,0.4l-4.1,0.7c-0.7,0.1-1.4,0.2-2,0.4l-2,0.5l-2,0.5l-1,0.3l-1,0.3
					c-5.2,1.6-10.2,4.1-14.8,7.2c-1.1,0.8-2.2,1.6-3.3,2.5c-1,0.9-2.1,1.8-3,2.8c-1.9,1.9-3.7,4.1-5.1,6.4L715.7,57.4z"/>
			</g>
			<g>
				<path class="st4" d="M702.6,94.6c-0.5-1.5-0.5-3.2-0.4-4.7c0.2-1.6,0.6-3.1,1.1-4.7c1-3,2.4-5.9,3.9-8.7
					c3.2-5.5,7.2-10.5,12-14.8c2.4-2.2,4.9-4.2,7.7-5.8c2.8-1.7,5.7-3.2,8.8-4.3c0.8-0.3,1.6-0.5,2.4-0.7c0.8-0.2,1.6-0.5,2.4-0.6
					l2.5-0.4l2.5-0.2c0.8-0.1,1.7,0,2.5,0c0.8,0,1.7,0,2.5,0.1c0.8,0.1,1.7,0.2,2.5,0.3l2.5,0.5c6.6,1.7,12.3,5.4,17.1,9.7
					c2.4,2.2,4.6,4.7,6.5,7.3c1.9,2.7,3.4,5.7,4.5,8.8c1,3.2,1.6,6.5,1.6,9.7c0,3.3-0.5,6.5-1.4,9.6c-0.9,3.1-2.2,6-3.7,8.8
					c-1.6,2.7-3.4,5.3-5.5,7.6l-0.2-0.2c1.9-2.4,3.5-5.1,4.8-7.9c1.3-2.8,2.4-5.7,3.1-8.7c1.5-6,1.3-12.4-0.9-18.1
					c-1.1-2.9-2.5-5.6-4.4-8.1c-1.8-2.5-4-4.7-6.3-6.8c-4.6-4-10-7.4-16-8.8l-2.2-0.5c-0.8-0.1-1.5-0.2-2.3-0.3
					c-0.8-0.1-1.5-0.1-2.3-0.1c-0.8,0-1.5-0.1-2.3,0l-2.3,0.2l-2.3,0.4c-0.8,0.1-1.5,0.3-2.2,0.5c-0.7,0.2-1.5,0.4-2.2,0.6
					c-5.8,1.9-11.2,5.2-15.9,9.2c-2.4,2-4.5,4.2-6.6,6.5c-2,2.3-3.9,4.8-5.6,7.4c-1.7,2.6-3.2,5.3-4.3,8.2c-0.6,1.4-1,2.9-1.3,4.4
					c-0.3,1.5-0.4,3.1,0,4.5L702.6,94.6z"/>
			</g>
			<g>
				<path class="st4" d="M688.4,133.3c1.8-0.3,3.7-0.6,5.5-0.9c1.8-0.3,3.7-0.6,5.5-1c3.7-0.7,7.3-1.4,10.9-2.2
					c7.2-1.5,14.4-3.2,21.4-5.6c1.7-0.6,3.4-1.2,5.1-1.9c1.7-0.6,3.4-1.3,5-2.1c3.2-1.5,6.3-3.3,8.8-5.4c0.3-0.3,0.6-0.5,0.9-0.8
					c0.3-0.3,0.6-0.6,0.8-0.9l1.6-2l0.4-0.5l0.4-0.5l0.7-1.1c0.2-0.4,0.5-0.7,0.7-1.1l0.6-1.1c1.6-3,2.5-6.2,2.5-9.4
					c0.1-0.8-0.1-1.6-0.1-2.4c-0.1-0.8-0.3-1.6-0.4-2.4c-0.2-0.8-0.4-1.6-0.7-2.4c-0.3-0.8-0.6-1.6-1-2.4c-1.4-3.1-3.4-6.1-5.5-9
					c-0.3-0.4-0.5-0.7-0.8-1c-0.3-0.3-0.5-0.6-0.7-0.9l-0.8-0.8l-0.9-0.7c-1.3-0.9-2.8-1.7-4.3-2.3c-3.2-1.1-6.6-1.7-10.1-1.8
					c-7-0.1-14.2,1.8-20,5.8c-2.9,2-5.5,4.5-7.4,7.6c-0.4,0.8-0.9,1.5-1.3,2.4c-0.2,0.4-0.4,0.8-0.6,1.2l-0.5,1.3
					c-0.4,0.8-0.5,1.7-0.8,2.6c-0.2,0.9-0.3,1.8-0.5,2.7l-0.3,0c0.2-3.7,1.2-7.4,3-10.7c1.8-3.3,4.4-6.1,7.3-8.4
					c6-4.5,13.5-6.8,21-6.9c3.7-0.1,7.5,0.4,11.1,1.6c1.8,0.6,3.5,1.5,5,2.5c1.6,1,2.9,2.5,4,4c2.2,3,4.3,6.1,5.9,9.5
					c0.4,0.8,0.7,1.7,1.1,2.6c0.3,0.9,0.6,1.8,0.8,2.7c0.2,0.9,0.4,1.8,0.5,2.8c0.1,0.9,0.2,1.9,0.1,2.8c0,3.8-1.2,7.5-3,10.8
					l-0.7,1.2c-0.2,0.4-0.5,0.8-0.8,1.2l-0.8,1.2l-0.4,0.6l-0.4,0.5l-1.8,2.2c-0.3,0.3-0.7,0.7-1,1c-0.3,0.3-0.7,0.7-1,1
					c-2.9,2.4-6.2,4.2-9.6,5.7c-3.4,1.5-6.9,2.7-10.5,3.8c-7.1,2.1-14.4,3.6-21.8,4.9c-7.3,1.2-14.7,2.2-22.1,2.8L688.4,133.3z"/>
			</g>
		</g>
	</g>
	<g class="st2">
		<g>
			<g>
				<path class="st4" d="M873.2,94.7c-0.8-1-1.1-2.1-1.5-3.3l-0.5-1.7l-0.4-1.7c-0.4-2.3-0.7-4.7-0.8-7c-0.3-4.7,0-9.5,0.8-14.2
					c1.5-9.4,4.9-18.6,10.7-26.4c2.9-3.9,6.2-7.4,9.9-10.5c0.9-0.8,1.9-1.5,2.9-2.2c0.5-0.4,1-0.7,1.5-1.1l1.5-1
					c1-0.6,2-1.3,3.1-1.9l3.2-1.7c1.1-0.6,2.2-1,3.3-1.5c1.1-0.5,2.2-1,3.3-1.4l3.4-1.2l1.7-0.6L917,17c2.3-0.6,4.6-1.3,7-1.7
					l3.5-0.7c1.2-0.2,2.4-0.3,3.5-0.5l3.6-0.5c1.2-0.1,2.4-0.2,3.6-0.3l3.6-0.3l0.9-0.1l0.9,0l1.8,0c4.9-0.2,9.7,0.5,14.5,1.4
					c9.5,2.1,18.6,6,26.6,11.5c4.1,2.7,7.7,5.8,11.3,9.1c1.7,1.7,3.4,3.4,5,5.2c0.8,0.9,1.6,1.8,2.4,2.7l2.2,2.9
					c0.8,0.9,1.4,1.9,2.1,2.9c0.7,1,1.4,2,2,3c1.2,2.1,2.6,4.1,3.7,6.2c2.4,4.2,4.3,8.7,5.9,13.2c0.7,2.3,1.5,4.6,2.1,7
					c0.3,1.2,0.7,2.3,0.9,3.5l0.7,3.6c0.8,4.8,1.3,9.6,1.1,14.5l0,1.8l-0.1,1.8c-0.1,1.2-0.2,2.4-0.3,3.6c-0.4,2.4-0.7,4.8-1.4,7.2
					c-0.5,2.4-1.4,4.7-2.1,7c-1,2.2-1.8,4.6-3.1,6.7l-0.9,1.6l-0.4,0.8c-0.2,0.3-0.3,0.5-0.5,0.8l-2.1,3.1c-1.4,2-2.9,3.8-4.5,5.7
					c-3.2,3.6-6.7,7.1-10.9,9.8c-2.1,1.4-4.3,2.6-6.7,3.5c-2.3,0.9-4.8,1.6-7.2,2c-4.9,0.9-9.8,0.9-14.6,0.6
					c-4.8-0.3-9.5-0.8-14.1-1.4l-14-1.7c-4.6-0.5-9.3-1-14-1.3c-4.6-0.3-9.2-0.3-13.8,0.1c-4.6,0.4-9.2,1.1-13.6,2.3
					c-4.5,1.2-8.8,2.8-13.1,4.7c-4.3,1.9-8.4,4.1-12.7,6.1c-2.1,1-4.4,1.9-6.7,2.4c-1.2,0.3-2.4,0.4-3.6,0.4c-1.2,0-2.4-0.3-3.5-0.7
					l0.1-0.3c2.2,0.8,4.6,0.8,6.8,0.2c2.3-0.6,4.4-1.5,6.5-2.6c4.2-2.1,8.3-4.4,12.5-6.4c4.2-2,8.6-3.7,13.2-5.1
					c4.5-1.3,9.2-2.2,13.8-2.7c9.4-1.1,18.8,0,28.1,0.9l14,1.5c4.7,0.5,9.3,1,14,1.2c4.7,0.2,9.4,0.1,14-0.7c4.6-0.9,9-2.6,12.9-5.2
					c3.9-2.6,7.3-5.9,10.3-9.4c3-3.6,5.8-7.3,8-11.5c1.2-2,2-4.2,2.9-6.4c0.7-2.2,1.6-4.4,2-6.7c0.6-2.3,0.9-4.6,1.3-6.9
					c0.1-1.2,0.2-2.3,0.3-3.5l0.1-1.7l0-1.8c0.1-4.7-0.4-9.3-1.1-14l-0.7-3.4c-0.2-1.2-0.6-2.3-0.9-3.4c-0.5-2.3-1.3-4.5-2.1-6.7
					c-1.6-4.4-3.4-8.7-5.7-12.8c-1-2.1-2.3-4.1-3.5-6.1c-0.6-1-1.3-1.9-2-2.9c-0.7-1-1.3-1.9-2-2.9l-2.1-2.8
					c-0.7-0.9-1.5-1.8-2.3-2.7c-1.5-1.8-3.2-3.4-4.8-5.1c-3.4-3.2-6.9-6.3-10.8-8.9c-7.7-5.4-16.4-9.2-25.5-11.2
					c-4.6-0.9-9.2-1.5-13.9-1.4c-2.3-0.1-4.7,0.1-7,0.3c-1.2,0.1-2.3,0.1-3.5,0.3l-3.5,0.4c-1.2,0.2-2.3,0.3-3.5,0.5l-3.5,0.7
					c-2.3,0.4-4.6,1-6.8,1.6l-1.7,0.4l-1.7,0.6l-3.3,1.1c-1.1,0.4-2.2,0.9-3.3,1.3c-1.1,0.5-2.2,0.9-3.2,1.4l-3.1,1.6
					c-1,0.5-2,1.2-3,1.8l-1.5,0.9c-0.5,0.3-1,0.7-1.4,1c-0.9,0.7-1.9,1.4-2.8,2.1c-3.7,2.9-6.9,6.3-9.8,10
					c-5.7,7.4-9.3,16.4-11,25.6c-0.8,4.6-1.2,9.3-1.1,14c0.1,2.3,0.3,4.7,0.6,7l0.3,1.7l0.4,1.7c0.4,1.1,0.6,2.3,1.3,3.2L873.2,94.7
					z"/>
			</g>
			<g>
				<path class="st4" d="M886.5,57.4c1.3-2.5,3-4.7,4.9-6.8c0.9-1.1,2-2,3-2.9c1.1-0.9,2.1-1.8,3.3-2.7c4.5-3.3,9.5-6,14.8-7.9
					l1-0.4l1-0.3l2-0.6l2-0.6c0.7-0.2,1.4-0.3,2.1-0.4l4.1-0.8c1.4-0.2,2.8-0.3,4.2-0.5c2.8-0.4,5.6-0.4,8.4-0.5
					c1.4-0.1,2.8,0,4.3,0l1.1,0l1.1,0.1l2.1,0.2c1.4,0.2,2.8,0.5,4.2,0.8c1.4,0.3,2.8,0.7,4.2,1.1c2.7,0.9,5.4,1.9,8,3.2
					c5.1,2.5,10,5.6,14.4,9.2c8.8,7.2,16.3,16.1,21.4,26.3c1.3,2.6,2.3,5.3,3.2,8c0.8,2.8,1.6,5.6,1.9,8.5c0.2,1.4,0.3,2.9,0.4,4.4
					c0,0.7,0,1.5,0,2.2c0,0.7,0,1.5-0.2,2.2l-0.3,2.2l-0.5,2.2c-0.1,0.7-0.4,1.5-0.7,2.2c-0.3,0.7-0.5,1.4-0.8,2.1
					c-2.5,5.6-6.7,10-11.7,13.3c-4.9,3.3-10.6,5.1-16.1,6.2c-5.6,1.1-11.1,1.6-16.7,2c-5.5,0.3-11,0.5-16.5,0.8
					c-10.9,0.5-21.9,1.6-32.1,6l-0.1-0.3c5-2.4,10.3-4.1,15.7-5.1c5.4-1.1,10.9-1.7,16.4-2.2l16.5-1.2c5.5-0.5,11-1.1,16.3-2.3
					c5.3-1.2,10.6-3.1,15.2-6.1c4.5-3,8.4-7.2,10.6-12.2c0.3-0.6,0.5-1.3,0.7-1.9c0.2-0.6,0.5-1.3,0.6-2l0.4-2l0.2-2
					c0.1-0.7,0.1-1.4,0.1-2c0-0.7,0.1-1.4,0-2c-0.1-1.4-0.1-2.7-0.4-4.1c-0.3-2.7-1.1-5.4-1.9-8c-0.9-2.6-1.9-5.1-3.1-7.6
					c-4.8-9.9-11.9-18.6-20.4-25.5c-4.2-3.5-8.9-6.5-13.8-8.9c-4.9-2.4-10.2-4.2-15.6-5.1c-2.7-0.4-5.4-0.7-8.2-0.6
					c-2.7,0.1-5.5,0-8.2,0.3c-1.4,0.1-2.7,0.2-4.1,0.4l-4.1,0.7c-0.7,0.1-1.4,0.2-2,0.4l-2,0.5l-2,0.5l-1,0.3l-1,0.3
					c-5.2,1.6-10.2,4.1-14.8,7.2c-1.1,0.8-2.2,1.6-3.3,2.5c-1,0.9-2.1,1.8-3,2.8c-1.9,1.9-3.7,4.1-5.1,6.4L886.5,57.4z"/>
			</g>
			<g>
				<path class="st4" d="M873.4,94.6c-0.5-1.5-0.5-3.2-0.4-4.7c0.2-1.6,0.6-3.1,1.1-4.7c1-3,2.4-5.9,3.9-8.7
					c3.2-5.5,7.2-10.5,12-14.8c2.4-2.2,4.9-4.2,7.7-5.8c2.8-1.7,5.7-3.2,8.8-4.3c0.8-0.3,1.6-0.5,2.4-0.7c0.8-0.2,1.6-0.5,2.4-0.6
					l2.5-0.4l2.5-0.2c0.8-0.1,1.7,0,2.5,0c0.8,0,1.7,0,2.5,0.1c0.8,0.1,1.7,0.2,2.5,0.3l2.5,0.5c6.6,1.7,12.3,5.4,17.1,9.7
					c2.4,2.2,4.6,4.7,6.5,7.3c1.9,2.7,3.4,5.7,4.5,8.8c1,3.2,1.6,6.5,1.6,9.7c0,3.3-0.5,6.5-1.4,9.6c-0.9,3.1-2.2,6-3.7,8.8
					c-1.6,2.7-3.4,5.3-5.5,7.6l-0.2-0.2c1.9-2.4,3.5-5.1,4.8-7.9c1.3-2.8,2.4-5.7,3.1-8.7c1.5-6,1.3-12.4-0.9-18.1
					c-1.1-2.9-2.5-5.6-4.4-8.1c-1.8-2.5-4-4.7-6.3-6.8c-4.6-4-10-7.4-16-8.8l-2.2-0.5c-0.8-0.1-1.5-0.2-2.3-0.3
					c-0.8-0.1-1.5-0.1-2.3-0.1c-0.8,0-1.5-0.1-2.3,0l-2.3,0.2l-2.3,0.4c-0.8,0.1-1.5,0.3-2.2,0.5c-0.7,0.2-1.5,0.4-2.2,0.6
					c-5.8,1.9-11.2,5.2-15.9,9.2c-2.4,2-4.5,4.2-6.6,6.5c-2,2.3-3.9,4.8-5.6,7.4c-1.7,2.6-3.2,5.3-4.3,8.2c-0.6,1.4-1,2.9-1.3,4.4
					c-0.3,1.5-0.4,3.1,0,4.5L873.4,94.6z"/>
			</g>
			<g>
				<path class="st4" d="M859.2,133.3c1.8-0.3,3.7-0.6,5.5-0.9c1.8-0.3,3.7-0.6,5.5-1c3.7-0.7,7.3-1.4,10.9-2.2
					c7.2-1.5,14.4-3.2,21.4-5.6c1.7-0.6,3.4-1.2,5.1-1.9c1.7-0.6,3.4-1.3,5-2.1c3.2-1.5,6.3-3.3,8.8-5.4c0.3-0.3,0.6-0.5,0.9-0.8
					c0.3-0.3,0.6-0.6,0.8-0.9l1.6-2l0.4-0.5l0.4-0.5l0.7-1.1c0.2-0.4,0.5-0.7,0.7-1.1l0.6-1.1c1.6-3,2.5-6.2,2.5-9.4
					c0.1-0.8-0.1-1.6-0.1-2.4c-0.1-0.8-0.3-1.6-0.4-2.4c-0.2-0.8-0.4-1.6-0.7-2.4c-0.3-0.8-0.6-1.6-1-2.4c-1.4-3.1-3.4-6.1-5.5-9
					c-0.3-0.4-0.5-0.7-0.8-1c-0.3-0.3-0.5-0.6-0.7-0.9l-0.8-0.8l-0.9-0.7c-1.3-0.9-2.8-1.7-4.3-2.3c-3.2-1.1-6.6-1.7-10.1-1.8
					c-7-0.1-14.2,1.8-20,5.8c-2.9,2-5.5,4.5-7.4,7.6c-0.4,0.8-0.9,1.5-1.3,2.4c-0.2,0.4-0.4,0.8-0.6,1.2l-0.5,1.3
					c-0.4,0.8-0.5,1.7-0.8,2.6c-0.2,0.9-0.3,1.8-0.5,2.7l-0.3,0c0.2-3.7,1.2-7.4,3-10.7c1.8-3.3,4.4-6.1,7.3-8.4
					c6-4.5,13.5-6.8,21-6.9c3.7-0.1,7.5,0.4,11.1,1.6c1.8,0.6,3.5,1.5,5,2.5c1.6,1,2.9,2.5,4,4c2.2,3,4.3,6.1,5.9,9.5
					c0.4,0.8,0.7,1.7,1.1,2.6c0.3,0.9,0.6,1.8,0.8,2.7c0.2,0.9,0.4,1.8,0.5,2.8c0.1,0.9,0.2,1.9,0.1,2.8c0,3.8-1.2,7.5-3,10.8
					l-0.7,1.2c-0.2,0.4-0.5,0.8-0.8,1.2l-0.8,1.2l-0.4,0.6l-0.4,0.5l-1.8,2.2c-0.3,0.3-0.7,0.7-1,1c-0.3,0.3-0.7,0.7-1,1
					c-2.9,2.4-6.2,4.2-9.6,5.7c-3.4,1.5-6.9,2.7-10.5,3.8c-7.1,2.1-14.4,3.6-21.8,4.9c-7.3,1.2-14.7,2.2-22.1,2.8L859.2,133.3z"/>
			</g>
		</g>
	</g>
	<g class="st2">
		<g>
			<g>
				<path class="st4" d="M1042.9,94.7c-0.8-1-1.1-2.1-1.5-3.3l-0.5-1.7l-0.4-1.7c-0.4-2.3-0.7-4.7-0.8-7c-0.3-4.7,0-9.5,0.8-14.2
					c1.5-9.4,4.9-18.6,10.7-26.4c2.9-3.9,6.2-7.4,9.9-10.5c0.9-0.8,1.9-1.5,2.9-2.2c0.5-0.4,1-0.7,1.5-1.1l1.5-1
					c1-0.6,2-1.3,3.1-1.9l3.2-1.7c1.1-0.6,2.2-1,3.3-1.5c1.1-0.5,2.2-1,3.3-1.4l3.4-1.2l1.7-0.6l1.7-0.5c2.3-0.6,4.6-1.3,7-1.7
					l3.5-0.7c1.2-0.2,2.4-0.3,3.5-0.5l3.6-0.5c1.2-0.1,2.4-0.2,3.6-0.3l3.6-0.3l0.9-0.1l0.9,0l1.8,0c4.9-0.2,9.7,0.5,14.5,1.4
					c9.5,2.1,18.6,6,26.6,11.5c4.1,2.7,7.7,5.8,11.3,9.1c1.7,1.7,3.4,3.4,5,5.2c0.8,0.9,1.6,1.8,2.4,2.7l2.2,2.9
					c0.8,0.9,1.4,1.9,2.1,2.9c0.7,1,1.4,2,2,3c1.2,2.1,2.6,4.1,3.7,6.2c2.4,4.2,4.3,8.7,5.9,13.2c0.7,2.3,1.5,4.6,2.1,7
					c0.3,1.2,0.7,2.3,0.9,3.5l0.7,3.6c0.8,4.8,1.3,9.6,1.1,14.5l0,1.8l-0.1,1.8c-0.1,1.2-0.2,2.4-0.3,3.6c-0.4,2.4-0.7,4.8-1.4,7.2
					c-0.5,2.4-1.4,4.7-2.1,7c-1,2.2-1.8,4.6-3.1,6.7l-0.9,1.6l-0.4,0.8c-0.2,0.3-0.3,0.5-0.5,0.8l-2.1,3.1c-1.4,2-2.9,3.8-4.5,5.7
					c-3.2,3.6-6.7,7.1-10.9,9.8c-2.1,1.4-4.3,2.6-6.7,3.5c-2.3,0.9-4.8,1.6-7.2,2c-4.9,0.9-9.8,0.9-14.6,0.6
					c-4.8-0.3-9.5-0.8-14.1-1.4l-14-1.7c-4.6-0.5-9.3-1-14-1.3c-4.6-0.3-9.2-0.3-13.8,0.1c-4.6,0.4-9.2,1.1-13.6,2.3
					c-4.5,1.2-8.8,2.8-13.1,4.7c-4.3,1.9-8.4,4.1-12.7,6.1c-2.1,1-4.4,1.9-6.7,2.4c-1.2,0.3-2.4,0.4-3.6,0.4c-1.2,0-2.4-0.3-3.5-0.7
					l0.1-0.3c2.2,0.8,4.6,0.8,6.8,0.2c2.3-0.6,4.4-1.5,6.5-2.6c4.2-2.1,8.3-4.4,12.5-6.4c4.2-2,8.6-3.7,13.2-5.1
					c4.5-1.3,9.2-2.2,13.8-2.7c9.4-1.1,18.8,0,28.1,0.9l14,1.5c4.7,0.5,9.3,1,14,1.2c4.7,0.2,9.4,0.1,14-0.7c4.6-0.9,9-2.6,12.9-5.2
					c3.9-2.6,7.3-5.9,10.3-9.4c3-3.6,5.8-7.3,8-11.5c1.2-2,2-4.2,2.9-6.4c0.7-2.2,1.6-4.4,2-6.7c0.6-2.3,0.9-4.6,1.3-6.9
					c0.1-1.2,0.2-2.3,0.3-3.5l0.1-1.7l0-1.8c0.1-4.7-0.4-9.3-1.1-14l-0.7-3.4c-0.2-1.2-0.6-2.3-0.9-3.4c-0.5-2.3-1.3-4.5-2.1-6.7
					c-1.6-4.4-3.4-8.7-5.7-12.8c-1-2.1-2.3-4.1-3.5-6.1c-0.6-1-1.3-1.9-2-2.9c-0.7-1-1.3-1.9-2-2.9l-2.1-2.8
					c-0.7-0.9-1.5-1.8-2.3-2.7c-1.5-1.8-3.2-3.4-4.8-5.1c-3.4-3.2-6.9-6.3-10.8-8.9c-7.7-5.4-16.4-9.2-25.5-11.2
					c-4.6-0.9-9.2-1.5-13.9-1.4c-2.3-0.1-4.7,0.1-7,0.3c-1.2,0.1-2.3,0.1-3.5,0.3l-3.5,0.4c-1.2,0.2-2.3,0.3-3.5,0.5l-3.5,0.7
					c-2.3,0.4-4.6,1-6.8,1.6l-1.7,0.4l-1.7,0.6l-3.3,1.1c-1.1,0.4-2.2,0.9-3.3,1.3c-1.1,0.5-2.2,0.9-3.2,1.4l-3.1,1.6
					c-1,0.5-2,1.2-3,1.8l-1.5,0.9c-0.5,0.3-1,0.7-1.4,1c-0.9,0.7-1.9,1.4-2.8,2.1c-3.7,2.9-6.9,6.3-9.8,10
					c-5.7,7.4-9.3,16.4-11,25.6c-0.8,4.6-1.2,9.3-1.1,14c0.1,2.3,0.3,4.7,0.6,7l0.3,1.7l0.4,1.7c0.4,1.1,0.6,2.3,1.3,3.2
					L1042.9,94.7z"/>
			</g>
			<g>
				<path class="st4" d="M1056.2,57.4c1.3-2.5,3-4.7,4.9-6.8c0.9-1.1,2-2,3-2.9c1.1-0.9,2.1-1.8,3.3-2.7c4.5-3.3,9.5-6,14.8-7.9
					l1-0.4l1-0.3l2-0.6l2-0.6c0.7-0.2,1.4-0.3,2.1-0.4l4.1-0.8c1.4-0.2,2.8-0.3,4.2-0.5c2.8-0.4,5.6-0.4,8.4-0.5
					c1.4-0.1,2.8,0,4.3,0l1.1,0l1.1,0.1l2.1,0.2c1.4,0.2,2.8,0.5,4.2,0.8c1.4,0.3,2.8,0.7,4.2,1.1c2.7,0.9,5.4,1.9,8,3.2
					c5.1,2.5,10,5.6,14.4,9.2c8.8,7.2,16.3,16.1,21.4,26.3c1.3,2.6,2.3,5.3,3.2,8c0.8,2.8,1.6,5.6,1.9,8.5c0.2,1.4,0.3,2.9,0.4,4.4
					c0,0.7,0,1.5,0,2.2c0,0.7,0,1.5-0.2,2.2l-0.3,2.2l-0.5,2.2c-0.1,0.7-0.4,1.5-0.7,2.2c-0.3,0.7-0.5,1.4-0.8,2.1
					c-2.5,5.6-6.7,10-11.7,13.3c-4.9,3.3-10.6,5.1-16.1,6.2c-5.6,1.1-11.1,1.6-16.7,2c-5.5,0.3-11,0.5-16.5,0.8
					c-10.9,0.5-21.9,1.6-32.1,6l-0.1-0.3c5-2.4,10.3-4.1,15.7-5.1c5.4-1.1,10.9-1.7,16.4-2.2l16.5-1.2c5.5-0.5,11-1.1,16.3-2.3
					c5.3-1.2,10.6-3.1,15.2-6.1c4.5-3,8.4-7.2,10.6-12.2c0.3-0.6,0.5-1.3,0.7-1.9c0.2-0.6,0.5-1.3,0.6-2l0.4-2l0.2-2
					c0.1-0.7,0.1-1.4,0.1-2c0-0.7,0.1-1.4,0-2c-0.1-1.4-0.1-2.7-0.4-4.1c-0.3-2.7-1.1-5.4-1.9-8c-0.9-2.6-1.9-5.1-3.1-7.6
					c-4.8-9.9-11.9-18.6-20.4-25.5c-4.2-3.5-8.9-6.5-13.8-8.9c-4.9-2.4-10.2-4.2-15.6-5.1c-2.7-0.4-5.4-0.7-8.2-0.6
					c-2.7,0.1-5.5,0-8.2,0.3c-1.4,0.1-2.7,0.2-4.1,0.4l-4.1,0.7c-0.7,0.1-1.4,0.2-2,0.4l-2,0.5l-2,0.5l-1,0.3l-1,0.3
					c-5.2,1.6-10.2,4.1-14.8,7.2c-1.1,0.8-2.2,1.6-3.3,2.5c-1,0.9-2.1,1.8-3,2.8c-1.9,1.9-3.7,4.1-5.1,6.4L1056.2,57.4z"/>
			</g>
			<g>
				<path class="st4" d="M1043.2,94.6c-0.5-1.5-0.5-3.2-0.4-4.7c0.2-1.6,0.6-3.1,1.1-4.7c1-3,2.4-5.9,3.9-8.7
					c3.2-5.5,7.2-10.5,12-14.8c2.4-2.2,4.9-4.2,7.7-5.8c2.8-1.7,5.7-3.2,8.8-4.3c0.8-0.3,1.6-0.5,2.4-0.7c0.8-0.2,1.6-0.5,2.4-0.6
					l2.5-0.4l2.5-0.2c0.8-0.1,1.7,0,2.5,0c0.8,0,1.7,0,2.5,0.1c0.8,0.1,1.7,0.2,2.5,0.3l2.5,0.5c6.6,1.7,12.3,5.4,17.1,9.7
					c2.4,2.2,4.6,4.7,6.5,7.3c1.9,2.7,3.4,5.7,4.5,8.8c1,3.2,1.6,6.5,1.6,9.7c0,3.3-0.5,6.5-1.4,9.6c-0.9,3.1-2.2,6-3.7,8.8
					c-1.6,2.7-3.4,5.3-5.5,7.6l-0.2-0.2c1.9-2.4,3.5-5.1,4.8-7.9c1.3-2.8,2.4-5.7,3.1-8.7c1.5-6,1.3-12.4-0.9-18.1
					c-1.1-2.9-2.5-5.6-4.4-8.1c-1.8-2.5-4-4.7-6.3-6.8c-4.6-4-10-7.4-16-8.8l-2.2-0.5c-0.8-0.1-1.5-0.2-2.3-0.3
					c-0.8-0.1-1.5-0.1-2.3-0.1c-0.8,0-1.5-0.1-2.3,0l-2.3,0.2l-2.3,0.4c-0.8,0.1-1.5,0.3-2.2,0.5c-0.7,0.2-1.5,0.4-2.2,0.6
					c-5.8,1.9-11.2,5.2-15.9,9.2c-2.4,2-4.5,4.2-6.6,6.5c-2,2.3-3.9,4.8-5.6,7.4c-1.7,2.6-3.2,5.3-4.3,8.2c-0.6,1.4-1,2.9-1.3,4.4
					c-0.3,1.5-0.4,3.1,0,4.5L1043.2,94.6z"/>
			</g>
			<g>
				<path class="st4" d="M1028.9,133.3c1.8-0.3,3.7-0.6,5.5-0.9c1.8-0.3,3.7-0.6,5.5-1c3.7-0.7,7.3-1.4,10.9-2.2
					c7.2-1.5,14.4-3.2,21.4-5.6c1.7-0.6,3.4-1.2,5.1-1.9c1.7-0.6,3.4-1.3,5-2.1c3.2-1.5,6.3-3.3,8.8-5.4c0.3-0.3,0.6-0.5,0.9-0.8
					c0.3-0.3,0.6-0.6,0.8-0.9l1.6-2l0.4-0.5l0.4-0.5l0.7-1.1c0.2-0.4,0.5-0.7,0.7-1.1l0.6-1.1c1.6-3,2.5-6.2,2.5-9.4
					c0.1-0.8-0.1-1.6-0.1-2.4c-0.1-0.8-0.3-1.6-0.4-2.4c-0.2-0.8-0.4-1.6-0.7-2.4c-0.3-0.8-0.6-1.6-1-2.4c-1.4-3.1-3.4-6.1-5.5-9
					c-0.3-0.4-0.5-0.7-0.8-1c-0.3-0.3-0.5-0.6-0.7-0.9l-0.8-0.8l-0.9-0.7c-1.3-0.9-2.8-1.7-4.3-2.3c-3.2-1.1-6.6-1.7-10.1-1.8
					c-7-0.1-14.2,1.8-20,5.8c-2.9,2-5.5,4.5-7.4,7.6c-0.4,0.8-0.9,1.5-1.3,2.4c-0.2,0.4-0.4,0.8-0.6,1.2l-0.5,1.3
					c-0.4,0.8-0.5,1.7-0.8,2.6c-0.2,0.9-0.3,1.8-0.5,2.7l-0.3,0c0.2-3.7,1.2-7.4,3-10.7c1.8-3.3,4.4-6.1,7.3-8.4
					c6-4.5,13.5-6.8,21-6.9c3.7-0.1,7.5,0.4,11.1,1.6c1.8,0.6,3.5,1.5,5,2.5c1.6,1,2.9,2.5,4,4c2.2,3,4.3,6.1,5.9,9.5
					c0.4,0.8,0.7,1.7,1.1,2.6c0.3,0.9,0.6,1.8,0.8,2.7c0.2,0.9,0.4,1.8,0.5,2.8c0.1,0.9,0.2,1.9,0.1,2.8c0,3.8-1.2,7.5-3,10.8
					l-0.7,1.2c-0.2,0.4-0.5,0.8-0.8,1.2l-0.8,1.2l-0.4,0.6l-0.4,0.5l-1.8,2.2c-0.3,0.3-0.7,0.7-1,1c-0.3,0.3-0.7,0.7-1,1
					c-2.9,2.4-6.2,4.2-9.6,5.7c-3.4,1.5-6.9,2.7-10.5,3.8c-7.1,2.1-14.4,3.6-21.8,4.9c-7.3,1.2-14.7,2.2-22.1,2.8L1028.9,133.3z"/>
			</g>
		</g>
	</g>
	<g class="st2">
		<g>
			<g>
				<path class="st4" d="M1210.2,94.7c-0.8-1-1.1-2.1-1.5-3.3l-0.5-1.7L1208,88c-0.4-2.3-0.7-4.7-0.8-7c-0.3-4.7,0-9.5,0.8-14.2
					c1.5-9.4,4.9-18.6,10.7-26.4c2.9-3.9,6.2-7.4,9.9-10.5c0.9-0.8,1.9-1.5,2.9-2.2c0.5-0.4,1-0.7,1.5-1.1l1.5-1
					c1-0.6,2-1.3,3.1-1.9l3.2-1.7c1.1-0.6,2.2-1,3.3-1.5c1.1-0.5,2.2-1,3.3-1.4l3.4-1.2l1.7-0.6l1.7-0.5c2.3-0.6,4.6-1.3,7-1.7
					l3.5-0.7c1.2-0.2,2.4-0.3,3.5-0.5l3.6-0.5c1.2-0.1,2.4-0.2,3.6-0.3l3.6-0.3l0.9-0.1l0.9,0l1.8,0c4.9-0.2,9.7,0.5,14.5,1.4
					c9.5,2.1,18.6,6,26.6,11.5c4.1,2.7,7.7,5.8,11.3,9.1c1.7,1.7,3.4,3.4,5,5.2c0.8,0.9,1.6,1.8,2.4,2.7l2.2,2.9
					c0.8,0.9,1.4,1.9,2.1,2.9c0.7,1,1.4,2,2,3c1.2,2.1,2.6,4.1,3.7,6.2c2.4,4.2,4.3,8.7,5.9,13.2c0.7,2.3,1.5,4.6,2.1,7
					c0.3,1.2,0.7,2.3,0.9,3.5l0.7,3.6c0.8,4.8,1.3,9.6,1.1,14.5l0,1.8l-0.1,1.8c-0.1,1.2-0.2,2.4-0.3,3.6c-0.4,2.4-0.7,4.8-1.4,7.2
					c-0.5,2.4-1.4,4.7-2.1,7c-1,2.2-1.8,4.6-3.1,6.7l-0.9,1.6l-0.4,0.8c-0.2,0.3-0.3,0.5-0.5,0.8l-2.1,3.1c-1.4,2-2.9,3.8-4.5,5.7
					c-3.2,3.6-6.7,7.1-10.9,9.8c-2.1,1.4-4.3,2.6-6.7,3.5c-2.3,0.9-4.8,1.6-7.2,2c-4.9,0.9-9.8,0.9-14.6,0.6
					c-4.8-0.3-9.5-0.8-14.1-1.4l-14-1.7c-4.6-0.5-9.3-1-14-1.3c-4.6-0.3-9.2-0.3-13.8,0.1c-4.6,0.4-9.2,1.1-13.6,2.3
					c-4.5,1.2-8.8,2.8-13.1,4.7c-4.3,1.9-8.4,4.1-12.7,6.1c-2.1,1-4.4,1.9-6.7,2.4c-1.2,0.3-2.4,0.4-3.6,0.4c-1.2,0-2.4-0.3-3.5-0.7
					l0.1-0.3c2.2,0.8,4.6,0.8,6.8,0.2c2.3-0.6,4.4-1.5,6.5-2.6c4.2-2.1,8.3-4.4,12.5-6.4c4.2-2,8.6-3.7,13.2-5.1
					c4.5-1.3,9.2-2.2,13.8-2.7c9.4-1.1,18.8,0,28.1,0.9l14,1.5c4.7,0.5,9.3,1,14,1.2c4.7,0.2,9.4,0.1,14-0.7c4.6-0.9,9-2.6,12.9-5.2
					c3.9-2.6,7.3-5.9,10.3-9.4c3-3.6,5.8-7.3,8-11.5c1.2-2,2-4.2,2.9-6.4c0.7-2.2,1.6-4.4,2-6.7c0.6-2.3,0.9-4.6,1.3-6.9
					c0.1-1.2,0.2-2.3,0.3-3.5l0.1-1.7l0-1.8c0.1-4.7-0.4-9.3-1.1-14l-0.7-3.4c-0.2-1.2-0.6-2.3-0.9-3.4c-0.5-2.3-1.3-4.5-2.1-6.7
					c-1.6-4.4-3.4-8.7-5.7-12.8c-1-2.1-2.3-4.1-3.5-6.1c-0.6-1-1.3-1.9-2-2.9c-0.7-1-1.3-1.9-2-2.9l-2.1-2.8
					c-0.7-0.9-1.5-1.8-2.3-2.7c-1.5-1.8-3.2-3.4-4.8-5.1c-3.4-3.2-6.9-6.3-10.8-8.9c-7.7-5.4-16.4-9.2-25.5-11.2
					c-4.6-0.9-9.2-1.5-13.9-1.4c-2.3-0.1-4.7,0.1-7,0.3c-1.2,0.1-2.3,0.1-3.5,0.3l-3.5,0.4c-1.2,0.2-2.3,0.3-3.5,0.5l-3.5,0.7
					c-2.3,0.4-4.6,1-6.8,1.6l-1.7,0.4l-1.7,0.6l-3.3,1.1c-1.1,0.4-2.2,0.9-3.3,1.3c-1.1,0.5-2.2,0.9-3.2,1.4l-3.1,1.6
					c-1,0.5-2,1.2-3,1.8l-1.5,0.9c-0.5,0.3-1,0.7-1.4,1c-0.9,0.7-1.9,1.4-2.8,2.1c-3.7,2.9-6.9,6.3-9.8,10
					c-5.7,7.4-9.3,16.4-11,25.6c-0.8,4.6-1.2,9.3-1.1,14c0.1,2.3,0.3,4.7,0.6,7l0.3,1.7l0.4,1.7c0.4,1.1,0.6,2.3,1.3,3.2
					L1210.2,94.7z"/>
			</g>
			<g>
				<path class="st4" d="M1223.5,57.4c1.3-2.5,3-4.7,4.9-6.8c0.9-1.1,2-2,3-2.9c1.1-0.9,2.1-1.8,3.3-2.7c4.5-3.3,9.5-6,14.8-7.9
					l1-0.4l1-0.3l2-0.6l2-0.6c0.7-0.2,1.4-0.3,2.1-0.4l4.1-0.8c1.4-0.2,2.8-0.3,4.2-0.5c2.8-0.4,5.6-0.4,8.4-0.5
					c1.4-0.1,2.8,0,4.3,0l1.1,0l1.1,0.1l2.1,0.2c1.4,0.2,2.8,0.5,4.2,0.8c1.4,0.3,2.8,0.7,4.2,1.1c2.7,0.9,5.4,1.9,8,3.2
					c5.1,2.5,10,5.6,14.4,9.2c8.8,7.2,16.3,16.1,21.4,26.3c1.3,2.6,2.3,5.3,3.2,8c0.8,2.8,1.6,5.6,1.9,8.5c0.2,1.4,0.3,2.9,0.4,4.4
					c0,0.7,0,1.5,0,2.2c0,0.7,0,1.5-0.2,2.2l-0.3,2.2l-0.5,2.2c-0.1,0.7-0.4,1.5-0.7,2.2c-0.3,0.7-0.5,1.4-0.8,2.1
					c-2.5,5.6-6.7,10-11.7,13.3c-4.9,3.3-10.6,5.1-16.1,6.2c-5.6,1.1-11.1,1.6-16.7,2c-5.5,0.3-11,0.5-16.5,0.8
					c-10.9,0.5-21.9,1.6-32.1,6l-0.1-0.3c5-2.4,10.3-4.1,15.7-5.1c5.4-1.1,10.9-1.7,16.4-2.2l16.5-1.2c5.5-0.5,11-1.1,16.3-2.3
					c5.3-1.2,10.6-3.1,15.2-6.1c4.5-3,8.4-7.2,10.6-12.2c0.3-0.6,0.5-1.3,0.7-1.9c0.2-0.6,0.5-1.3,0.6-2l0.4-2l0.2-2
					c0.1-0.7,0.1-1.4,0.1-2c0-0.7,0.1-1.4,0-2c-0.1-1.4-0.1-2.7-0.4-4.1c-0.3-2.7-1.1-5.4-1.9-8c-0.9-2.6-1.9-5.1-3.1-7.6
					c-4.8-9.9-11.9-18.6-20.4-25.5c-4.2-3.5-8.9-6.5-13.8-8.9c-4.9-2.4-10.2-4.2-15.6-5.1c-2.7-0.4-5.4-0.7-8.2-0.6
					c-2.7,0.1-5.5,0-8.2,0.3c-1.4,0.1-2.7,0.2-4.1,0.4l-4.1,0.7c-0.7,0.1-1.4,0.2-2,0.4l-2,0.5l-2,0.5l-1,0.3l-1,0.3
					c-5.2,1.6-10.2,4.1-14.8,7.2c-1.1,0.8-2.2,1.6-3.3,2.5c-1,0.9-2.1,1.8-3,2.8c-1.9,1.9-3.7,4.1-5.1,6.4L1223.5,57.4z"/>
			</g>
			<g>
				<path class="st4" d="M1210.5,94.6c-0.5-1.5-0.5-3.2-0.4-4.7c0.2-1.6,0.6-3.1,1.1-4.7c1-3,2.4-5.9,3.9-8.7
					c3.2-5.5,7.2-10.5,12-14.8c2.4-2.2,4.9-4.2,7.7-5.8c2.8-1.7,5.7-3.2,8.8-4.3c0.8-0.3,1.6-0.5,2.4-0.7c0.8-0.2,1.6-0.5,2.4-0.6
					l2.5-0.4l2.5-0.2c0.8-0.1,1.7,0,2.5,0c0.8,0,1.7,0,2.5,0.1c0.8,0.1,1.7,0.2,2.5,0.3l2.5,0.5c6.6,1.7,12.3,5.4,17.1,9.7
					c2.4,2.2,4.6,4.7,6.5,7.3c1.9,2.7,3.4,5.7,4.5,8.8c1,3.2,1.6,6.5,1.6,9.7c0,3.3-0.5,6.5-1.4,9.6c-0.9,3.1-2.2,6-3.7,8.8
					c-1.6,2.7-3.4,5.3-5.5,7.6l-0.2-0.2c1.9-2.4,3.5-5.1,4.8-7.9c1.3-2.8,2.4-5.7,3.1-8.7c1.5-6,1.3-12.4-0.9-18.1
					c-1.1-2.9-2.5-5.6-4.4-8.1c-1.8-2.5-4-4.7-6.3-6.8c-4.6-4-10-7.4-16-8.8l-2.2-0.5c-0.8-0.1-1.5-0.2-2.3-0.3
					c-0.8-0.1-1.5-0.1-2.3-0.1c-0.8,0-1.5-0.1-2.3,0l-2.3,0.2l-2.3,0.4c-0.8,0.1-1.5,0.3-2.2,0.5c-0.7,0.2-1.5,0.4-2.2,0.6
					c-5.8,1.9-11.2,5.2-15.9,9.2c-2.4,2-4.5,4.2-6.6,6.5c-2,2.3-3.9,4.8-5.6,7.4c-1.7,2.6-3.2,5.3-4.3,8.2c-0.6,1.4-1,2.9-1.3,4.4
					c-0.3,1.5-0.4,3.1,0,4.5L1210.5,94.6z"/>
			</g>
			<g>
				<path class="st4" d="M1196.2,133.3c1.8-0.3,3.7-0.6,5.5-0.9c1.8-0.3,3.7-0.6,5.5-1c3.7-0.7,7.3-1.4,10.9-2.2
					c7.2-1.5,14.4-3.2,21.4-5.6c1.7-0.6,3.4-1.2,5.1-1.9c1.7-0.6,3.4-1.3,5-2.1c3.2-1.5,6.3-3.3,8.8-5.4c0.3-0.3,0.6-0.5,0.9-0.8
					c0.3-0.3,0.6-0.6,0.8-0.9l1.6-2l0.4-0.5l0.4-0.5l0.7-1.1c0.2-0.4,0.5-0.7,0.7-1.1l0.6-1.1c1.6-3,2.5-6.2,2.5-9.4
					c0.1-0.8-0.1-1.6-0.1-2.4c-0.1-0.8-0.3-1.6-0.4-2.4c-0.2-0.8-0.4-1.6-0.7-2.4c-0.3-0.8-0.6-1.6-1-2.4c-1.4-3.1-3.4-6.1-5.5-9
					c-0.3-0.4-0.5-0.7-0.8-1c-0.3-0.3-0.5-0.6-0.7-0.9l-0.8-0.8l-0.9-0.7c-1.3-0.9-2.8-1.7-4.3-2.3c-3.2-1.1-6.6-1.7-10.1-1.8
					c-7-0.1-14.2,1.8-20,5.8c-2.9,2-5.5,4.5-7.4,7.6c-0.4,0.8-0.9,1.5-1.3,2.4c-0.2,0.4-0.4,0.8-0.6,1.2L1212,89
					c-0.4,0.8-0.5,1.7-0.8,2.6c-0.2,0.9-0.3,1.8-0.5,2.7l-0.3,0c0.2-3.7,1.2-7.4,3-10.7c1.8-3.3,4.4-6.1,7.3-8.4
					c6-4.5,13.5-6.8,21-6.9c3.7-0.1,7.5,0.4,11.1,1.6c1.8,0.6,3.5,1.5,5,2.5c1.6,1,2.9,2.5,4,4c2.2,3,4.3,6.1,5.9,9.5
					c0.4,0.8,0.7,1.7,1.1,2.6c0.3,0.9,0.6,1.8,0.8,2.7c0.2,0.9,0.4,1.8,0.5,2.8c0.1,0.9,0.2,1.9,0.1,2.8c0,3.8-1.2,7.5-3,10.8
					l-0.7,1.2c-0.2,0.4-0.5,0.8-0.8,1.2l-0.8,1.2l-0.4,0.6l-0.4,0.5l-1.8,2.2c-0.3,0.3-0.7,0.7-1,1c-0.3,0.3-0.7,0.7-1,1
					c-2.9,2.4-6.2,4.2-9.6,5.7c-3.4,1.5-6.9,2.7-10.5,3.8c-7.1,2.1-14.4,3.6-21.8,4.9c-7.3,1.2-14.7,2.2-22.1,2.8L1196.2,133.3z"/>
			</g>
		</g>
	</g>
	<g class="st2">
		<g>
			<g>
				<path class="st4" d="M1379.1,94.7c-0.8-1-1.1-2.1-1.5-3.3l-0.5-1.7l-0.4-1.7c-0.4-2.3-0.7-4.7-0.8-7c-0.3-4.7,0-9.5,0.8-14.2
					c1.5-9.4,4.9-18.6,10.7-26.4c2.9-3.9,6.2-7.4,9.9-10.5c0.9-0.8,1.9-1.5,2.9-2.2c0.5-0.4,1-0.7,1.5-1.1l1.5-1
					c1-0.6,2-1.3,3.1-1.9l3.2-1.7c1.1-0.6,2.2-1,3.3-1.5c1.1-0.5,2.2-1,3.3-1.4l3.4-1.2l1.7-0.6l1.7-0.5c2.3-0.6,4.6-1.3,7-1.7
					l3.5-0.7c1.2-0.2,2.4-0.3,3.5-0.5l3.6-0.5c1.2-0.1,2.4-0.2,3.6-0.3l3.6-0.3l0.9-0.1l0.9,0l1.8,0c4.9-0.2,9.7,0.5,14.5,1.4
					c9.5,2.1,18.6,6,26.6,11.5c4.1,2.7,7.7,5.8,11.3,9.1c1.7,1.7,3.4,3.4,5,5.2c0.8,0.9,1.6,1.8,2.4,2.7l2.2,2.9
					c0.8,0.9,1.4,1.9,2.1,2.9c0.7,1,1.4,2,2,3c1.2,2.1,2.6,4.1,3.7,6.2c2.4,4.2,4.3,8.7,5.9,13.2c0.7,2.3,1.5,4.6,2.1,7
					c0.3,1.2,0.7,2.3,0.9,3.5l0.7,3.6c0.8,4.8,1.3,9.6,1.1,14.5l0,1.8l-0.1,1.8c-0.1,1.2-0.2,2.4-0.3,3.6c-0.4,2.4-0.7,4.8-1.4,7.2
					c-0.5,2.4-1.4,4.7-2.1,7c-1,2.2-1.8,4.6-3.1,6.7l-0.9,1.6l-0.4,0.8c-0.2,0.3-0.3,0.5-0.5,0.8l-2.1,3.1c-1.4,2-2.9,3.8-4.5,5.7
					c-3.2,3.6-6.7,7.1-10.9,9.8c-2.1,1.4-4.3,2.6-6.7,3.5c-2.3,0.9-4.8,1.6-7.2,2c-4.9,0.9-9.8,0.9-14.6,0.6
					c-4.8-0.3-9.5-0.8-14.1-1.4l-14-1.7c-4.6-0.5-9.3-1-14-1.3c-4.6-0.3-9.2-0.3-13.8,0.1c-4.6,0.4-9.2,1.1-13.6,2.3
					c-4.5,1.2-8.8,2.8-13.1,4.7c-4.3,1.9-8.4,4.1-12.7,6.1c-2.1,1-4.4,1.9-6.7,2.4c-1.2,0.3-2.4,0.4-3.6,0.4c-1.2,0-2.4-0.3-3.5-0.7
					l0.1-0.3c2.2,0.8,4.6,0.8,6.8,0.2c2.3-0.6,4.4-1.5,6.5-2.6c4.2-2.1,8.3-4.4,12.5-6.4c4.2-2,8.6-3.7,13.2-5.1
					c4.5-1.3,9.2-2.2,13.8-2.7c9.4-1.1,18.8,0,28.1,0.9l14,1.5c4.7,0.5,9.3,1,14,1.2c4.7,0.2,9.4,0.1,14-0.7c4.6-0.9,9-2.6,12.9-5.2
					c3.9-2.6,7.3-5.9,10.3-9.4c3-3.6,5.8-7.3,8-11.5c1.2-2,2-4.2,2.9-6.4c0.7-2.2,1.6-4.4,2-6.7c0.6-2.3,0.9-4.6,1.3-6.9
					c0.1-1.2,0.2-2.3,0.3-3.5l0.1-1.7l0-1.8c0.1-4.7-0.4-9.3-1.1-14l-0.7-3.4c-0.2-1.2-0.6-2.3-0.9-3.4c-0.5-2.3-1.3-4.5-2.1-6.7
					c-1.6-4.4-3.4-8.7-5.7-12.8c-1-2.1-2.3-4.1-3.5-6.1c-0.6-1-1.3-1.9-2-2.9c-0.7-1-1.3-1.9-2-2.9l-2.1-2.8
					c-0.7-0.9-1.5-1.8-2.3-2.7c-1.5-1.8-3.2-3.4-4.8-5.1c-3.4-3.2-6.9-6.3-10.8-8.9c-7.7-5.4-16.4-9.2-25.5-11.2
					c-4.6-0.9-9.2-1.5-13.9-1.4c-2.3-0.1-4.7,0.1-7,0.3c-1.2,0.1-2.3,0.1-3.5,0.3l-3.5,0.4c-1.2,0.2-2.3,0.3-3.5,0.5l-3.5,0.7
					c-2.3,0.4-4.6,1-6.8,1.6l-1.7,0.4l-1.7,0.6l-3.3,1.1c-1.1,0.4-2.2,0.9-3.3,1.3c-1.1,0.5-2.2,0.9-3.2,1.4l-3.1,1.6
					c-1,0.5-2,1.2-3,1.8l-1.5,0.9c-0.5,0.3-1,0.7-1.4,1c-0.9,0.7-1.9,1.4-2.8,2.1c-3.7,2.9-6.9,6.3-9.8,10
					c-5.7,7.4-9.3,16.4-11,25.6c-0.8,4.6-1.2,9.3-1.1,14c0.1,2.3,0.3,4.7,0.6,7l0.3,1.7l0.4,1.7c0.4,1.1,0.6,2.3,1.3,3.2
					L1379.1,94.7z"/>
			</g>
			<g>
				<path class="st4" d="M1392.4,57.4c1.3-2.5,3-4.7,4.9-6.8c0.9-1.1,2-2,3-2.9c1.1-0.9,2.1-1.8,3.3-2.7c4.5-3.3,9.5-6,14.8-7.9
					l1-0.4l1-0.3l2-0.6l2-0.6c0.7-0.2,1.4-0.3,2.1-0.4l4.1-0.8c1.4-0.2,2.8-0.3,4.2-0.5c2.8-0.4,5.6-0.4,8.4-0.5
					c1.4-0.1,2.8,0,4.3,0l1.1,0l1.1,0.1l2.1,0.2c1.4,0.2,2.8,0.5,4.2,0.8c1.4,0.3,2.8,0.7,4.2,1.1c2.7,0.9,5.4,1.9,8,3.2
					c5.1,2.5,10,5.6,14.4,9.2c8.8,7.2,16.3,16.1,21.4,26.3c1.3,2.6,2.3,5.3,3.2,8c0.8,2.8,1.6,5.6,1.9,8.5c0.2,1.4,0.3,2.9,0.4,4.4
					c0,0.7,0,1.5,0,2.2c0,0.7,0,1.5-0.2,2.2l-0.3,2.2l-0.5,2.2c-0.1,0.7-0.4,1.5-0.7,2.2c-0.3,0.7-0.5,1.4-0.8,2.1
					c-2.5,5.6-6.7,10-11.7,13.3c-4.9,3.3-10.6,5.1-16.1,6.2c-5.6,1.1-11.1,1.6-16.7,2c-5.5,0.3-11,0.5-16.5,0.8
					c-10.9,0.5-21.9,1.6-32.1,6l-0.1-0.3c5-2.4,10.3-4.1,15.7-5.1c5.4-1.1,10.9-1.7,16.4-2.2l16.5-1.2c5.5-0.5,11-1.1,16.3-2.3
					c5.3-1.2,10.6-3.1,15.2-6.1c4.5-3,8.4-7.2,10.6-12.2c0.3-0.6,0.5-1.3,0.7-1.9c0.2-0.6,0.5-1.3,0.6-2l0.4-2l0.2-2
					c0.1-0.7,0.1-1.4,0.1-2c0-0.7,0.1-1.4,0-2c-0.1-1.4-0.1-2.7-0.4-4.1c-0.3-2.7-1.1-5.4-1.9-8c-0.9-2.6-1.9-5.1-3.1-7.6
					c-4.8-9.9-11.9-18.6-20.4-25.5c-4.2-3.5-8.9-6.5-13.8-8.9c-4.9-2.4-10.2-4.2-15.6-5.1c-2.7-0.4-5.4-0.7-8.2-0.6
					c-2.7,0.1-5.5,0-8.2,0.3c-1.4,0.1-2.7,0.2-4.1,0.4l-4.1,0.7c-0.7,0.1-1.4,0.2-2,0.4l-2,0.5l-2,0.5l-1,0.3l-1,0.3
					c-5.2,1.6-10.2,4.1-14.8,7.2c-1.1,0.8-2.2,1.6-3.3,2.5c-1,0.9-2.1,1.8-3,2.8c-1.9,1.9-3.7,4.1-5.1,6.4L1392.4,57.4z"/>
			</g>
			<g>
				<path class="st4" d="M1379.3,94.6c-0.5-1.5-0.5-3.2-0.4-4.7c0.2-1.6,0.6-3.1,1.1-4.7c1-3,2.4-5.9,3.9-8.7
					c3.2-5.5,7.2-10.5,12-14.8c2.4-2.2,4.9-4.2,7.7-5.8c2.8-1.7,5.7-3.2,8.8-4.3c0.8-0.3,1.6-0.5,2.4-0.7c0.8-0.2,1.6-0.5,2.4-0.6
					l2.5-0.4l2.5-0.2c0.8-0.1,1.7,0,2.5,0c0.8,0,1.7,0,2.5,0.1c0.8,0.1,1.7,0.2,2.5,0.3l2.5,0.5c6.6,1.7,12.3,5.4,17.1,9.7
					c2.4,2.2,4.6,4.7,6.5,7.3c1.9,2.7,3.4,5.7,4.5,8.8c1,3.2,1.6,6.5,1.6,9.7c0,3.3-0.5,6.5-1.4,9.6c-0.9,3.1-2.2,6-3.7,8.8
					c-1.6,2.7-3.4,5.3-5.5,7.6l-0.2-0.2c1.9-2.4,3.5-5.1,4.8-7.9c1.3-2.8,2.4-5.7,3.1-8.7c1.5-6,1.3-12.4-0.9-18.1
					c-1.1-2.9-2.5-5.6-4.4-8.1c-1.8-2.5-4-4.7-6.3-6.8c-4.6-4-10-7.4-16-8.8l-2.2-0.5c-0.8-0.1-1.5-0.2-2.3-0.3
					c-0.8-0.1-1.5-0.1-2.3-0.1c-0.8,0-1.5-0.1-2.3,0l-2.3,0.2l-2.3,0.4c-0.8,0.1-1.5,0.3-2.2,0.5c-0.7,0.2-1.5,0.4-2.2,0.6
					c-5.8,1.9-11.2,5.2-15.9,9.2c-2.4,2-4.5,4.2-6.6,6.5c-2,2.3-3.9,4.8-5.6,7.4c-1.7,2.6-3.2,5.3-4.3,8.2c-0.6,1.4-1,2.9-1.3,4.4
					c-0.3,1.5-0.4,3.1,0,4.5L1379.3,94.6z"/>
			</g>
			<g>
				<path class="st4" d="M1365.1,133.3c1.8-0.3,3.7-0.6,5.5-0.9c1.8-0.3,3.7-0.6,5.5-1c3.7-0.7,7.3-1.4,10.9-2.2
					c7.2-1.5,14.4-3.2,21.4-5.6c1.7-0.6,3.4-1.2,5.1-1.9c1.7-0.6,3.4-1.3,5-2.1c3.2-1.5,6.3-3.3,8.8-5.4c0.3-0.3,0.6-0.5,0.9-0.8
					c0.3-0.3,0.6-0.6,0.8-0.9l1.6-2l0.4-0.5l0.4-0.5l0.7-1.1c0.2-0.4,0.5-0.7,0.7-1.1l0.6-1.1c1.6-3,2.5-6.2,2.5-9.4
					c0.1-0.8-0.1-1.6-0.1-2.4c-0.1-0.8-0.3-1.6-0.4-2.4c-0.2-0.8-0.4-1.6-0.7-2.4c-0.3-0.8-0.6-1.6-1-2.4c-1.4-3.1-3.4-6.1-5.5-9
					c-0.3-0.4-0.5-0.7-0.8-1c-0.3-0.3-0.5-0.6-0.7-0.9l-0.8-0.8l-0.9-0.7c-1.3-0.9-2.8-1.7-4.3-2.3c-3.2-1.1-6.6-1.7-10.1-1.8
					c-7-0.1-14.2,1.8-20,5.8c-2.9,2-5.5,4.5-7.4,7.6c-0.4,0.8-0.9,1.5-1.3,2.4c-0.2,0.4-0.4,0.8-0.6,1.2l-0.5,1.3
					c-0.4,0.8-0.5,1.7-0.8,2.6c-0.2,0.9-0.3,1.8-0.5,2.7l-0.3,0c0.2-3.7,1.2-7.4,3-10.7c1.8-3.3,4.4-6.1,7.3-8.4
					c6-4.5,13.5-6.8,21-6.9c3.7-0.1,7.5,0.4,11.1,1.6c1.8,0.6,3.5,1.5,5,2.5c1.6,1,2.9,2.5,4,4c2.2,3,4.3,6.1,5.9,9.5
					c0.4,0.8,0.7,1.7,1.1,2.6c0.3,0.9,0.6,1.8,0.8,2.7c0.2,0.9,0.4,1.8,0.5,2.8c0.1,0.9,0.2,1.9,0.1,2.8c0,3.8-1.2,7.5-3,10.8
					l-0.7,1.2c-0.2,0.4-0.5,0.8-0.8,1.2l-0.8,1.2l-0.4,0.6l-0.4,0.5l-1.8,2.2c-0.3,0.3-0.7,0.7-1,1c-0.3,0.3-0.7,0.7-1,1
					c-2.9,2.4-6.2,4.2-9.6,5.7c-3.4,1.5-6.9,2.7-10.5,3.8c-7.1,2.1-14.4,3.6-21.8,4.9c-7.3,1.2-14.7,2.2-22.1,2.8L1365.1,133.3z"/>
			</g>
		</g>
	</g>
</g>
</svg>
