<?xml version="1.0" encoding="utf-8"?>
<!-- Generator: Adobe Illustrator 21.1.0, SVG Export Plug-In . SVG Version: 6.00 Build 0)  -->
<svg version="1.1" id="Layer_1" xmlns="http://www.w3.org/2000/svg" xmlns:xlink="http://www.w3.org/1999/xlink" x="0px" y="0px"
	 viewBox="0 0 1542 186" style="enable-background:new 0 0 1542 186;" xml:space="preserve">
<style type="text/css">
	.st0{clip-path:url(#SVGID_2_);fill:#3D7F7A;}
	.st1{clip-path:url(#SVGID_2_);fill:#276A75;}
	.st2{clip-path:url(#SVGID_2_);}
	.st3{clip-path:url(#SVGID_4_);fill:#276A75;}
	.st4{fill:#6EB7B4;}
	.st5{clip-path:url(#SVGID_2_);fill:none;}
</style>
<title>Artboard 1</title>
<g>
	<defs>
		<rect id="SVGID_1_" x="-21" y="-7.6" width="1567.9" height="207"/>
	</defs>
	<clipPath id="SVGID_2_">
		<use xlink:href="#SVGID_1_"  style="overflow:visible;"/>
	</clipPath>
	
		<rect x="-88.4" y="-185.9" transform="matrix(1 -3.649514e-03 3.649514e-03 1 8.824593e-02 2.6696)" class="st0" width="1639.8" height="326.2"/>
	<polygon class="st1" points="-98.7,752.1 1552.6,745.6 1552,136.4 -99.4,141.6 	"/>
	<g class="st2">
		<defs>
			
				<rect id="SVGID_3_" x="212.1" y="-50.7" transform="matrix(1 -3.209909e-03 3.209909e-03 1 -0.2758 2.8186)" width="1331.7" height="276"/>
		</defs>
		<clipPath id="SVGID_4_">
			<use xlink:href="#SVGID_3_"  style="overflow:visible;"/>
		</clipPath>
		<path class="st3" d="M1561.5,138.2c0,0-101.6,0.4-91.5-44c10.7-46.7,61.7-18.8,59.6,2.3c0,0,18-51.9-38.3-76.4
			c-75.6-32.9-152.9,60.4-95.8,127.8C1460.4,224.4,1561.5,138.2,1561.5,138.2z"/>
		<path class="st3" d="M1387.7,139c0,0-101.6,0.4-91.5-44c10.7-46.7,61.7-18.8,59.6,2.3c0,0,18-51.9-38.3-76.4
			c-75.6-32.9-152.9,60.4-95.8,127.8C1286.6,225.3,1387.7,139,1387.7,139z"/>
		<path class="st3" d="M1215.2,139c0,0-101.6,0.4-91.5-44c10.7-46.7,61.7-18.8,59.6,2.3c0,0,18-51.9-38.3-76.4
			c-75.6-32.9-152.9,60.4-95.8,127.8C1114.1,225.3,1215.2,139,1215.2,139z"/>
		<path class="st3" d="M1041.8,139c0,0-101.6,0.4-91.5-44c10.7-46.7,61.7-18.8,59.6,2.3c0,0,18-51.9-38.3-76.4
			C896.1-12,818.7,81.3,875.8,148.7C940.7,225.3,1041.8,139,1041.8,139z"/>
		<path class="st3" d="M869.3,139c0,0-101.6,0.4-91.5-44c10.7-46.7,61.7-18.8,59.6,2.3c0,0,18-51.9-38.3-76.4
			C723.6-12,646.2,81.3,703.3,148.7C768.2,225.3,869.3,139,869.3,139z"/>
		<path class="st3" d="M697.7,139c0,0-101.6,0.4-91.5-44c10.7-46.7,61.7-18.8,59.6,2.3c0,0,18-51.9-38.3-76.4
			C552-12,474.6,81.3,531.7,148.7C596.6,225.3,697.7,139,697.7,139z"/>
		<path class="st3" d="M526.1,140.7c0,0-101.6,0.4-91.5-44c10.7-46.7,61.7-18.8,59.6,2.3c0,0,18-51.9-38.3-76.4
			C380.4-10.3,303,83,360.1,150.4C424.9,227,526.1,140.7,526.1,140.7z"/>
	</g>
	<g class="st2">
		<g>
			<path class="st4" d="M1528,98.4c0.7-1,0.9-2.2,1.3-3.3l0.4-1.8l0.3-1.8c0.3-2.4,0.5-4.8,0.5-7.2c0.1-4.8-0.3-9.7-1.2-14.4
				c-1.7-9.5-5.4-18.6-11-26.3c-2.8-3.9-6-7.5-9.7-10.5c-3.7-3-7.6-5.7-11.9-7.8c-8.5-4.4-17.9-6.8-27.3-8c-2.4-0.3-4.7-0.6-7.2-0.7
				c-2.4-0.1-4.8-0.4-7.2-0.3c-1.2,0-2.4,0-3.5,0l-3.5,0.3c-0.6,0.1-1.2,0.1-1.8,0.2l-1.7,0.3l-3.5,0.6c-9.2,2.2-18,6.1-25.6,11.7
				c-3.9,2.7-7.4,5.9-10.8,9.2c-1.6,1.8-3.3,3.4-4.8,5.3c-0.8,0.9-1.5,1.8-2.3,2.8l-2.1,2.9c-0.7,0.9-1.4,1.9-2,2.9
				c-0.6,1-1.3,2-1.9,3l-1.8,3.1c-0.3,0.5-0.6,1-0.9,1.5l-0.8,1.6l-1.6,3.2l-1.4,3.3l-0.7,1.6l-0.6,1.7l-1.3,3.3l-1.1,3.4l-0.5,1.7
				l-0.4,1.7l-0.9,3.5l-0.7,3.5l-0.3,1.7L1378,92c-0.1,1.2-0.3,2.3-0.4,3.5c-0.1,2.4-0.4,4.7-0.3,7.1c-0.1,9.5,1.8,18.9,5.7,27.4
				l1.6,3.1l0.4,0.8l0.5,0.7l0.9,1.5c1.2,2,2.6,3.9,4.1,5.8c2.9,3.7,6.1,7.2,9.8,10.1c3.7,2.9,7.8,4.9,12.3,6
				c2.2,0.6,4.6,0.9,6.9,1.1c2.3,0.2,4.7,0.2,7.1,0.2c9.6-0.3,19.2-1.6,29-2.5c4.9-0.5,9.7-0.9,14.6-1.2c4.9-0.3,9.9-0.3,14.8,0.3
				c4.9,0.6,9.7,1.6,14.4,3.1c4.7,1.5,9.2,3.4,13.6,5.6c4.4,2.2,8.5,4.8,12.8,7c2.1,1.1,4.3,2.2,6.6,2.9c1.1,0.4,2.3,0.5,3.5,0.6
				c1.2,0,2.4-0.2,3.5-0.6l0.1,0.2c-1.2,0.4-2.4,0.7-3.6,0.7c-1.2,0-2.5-0.2-3.6-0.5c-2.4-0.6-4.6-1.7-6.8-2.8
				c-4.3-2.2-8.5-4.7-12.9-6.8c-4.4-2.1-8.9-4-13.5-5.3c-4.7-1.4-9.4-2.3-14.3-2.8c-9.7-1-19.4,0.2-29.1,1.2l-14.5,1.6
				c-4.8,0.5-9.7,1-14.6,1.2c-2.4,0.1-4.9,0.1-7.3-0.1c-2.4-0.2-4.9-0.5-7.2-1.1c-4.7-1.2-9.3-3.3-13.1-6.3
				c-3.9-2.9-7.2-6.6-10.3-10.4c-1.5-1.9-3-3.9-4.3-5.9l-1-1.5l-0.5-0.8l-0.4-0.8l-1.7-3.2c-4.2-8.8-6.1-18.6-6.1-28.4
				c-0.1-2.4,0.2-4.9,0.3-7.3c0.1-1.2,0.3-2.4,0.4-3.6l0.2-1.8l0.3-1.8l0.7-3.6l0.9-3.5l0.4-1.8l0.5-1.7l1.1-3.5l1.3-3.4l0.6-1.7
				l0.7-1.7l1.5-3.3l1.7-3.3l0.8-1.6c0.3-0.5,0.6-1.1,0.9-1.6l1.8-3.2c0.7-1,1.3-2,2-3.1c0.7-1,1.3-2,2.1-3l2.2-2.9
				c0.8-1,1.6-1.9,2.3-2.8c1.5-1.9,3.3-3.6,4.9-5.4c3.5-3.4,7.1-6.7,11.1-9.5c7.9-5.8,17-9.8,26.5-12l3.6-0.6l1.8-0.3
				c0.6-0.1,1.2-0.1,1.8-0.2l3.6-0.3c1.2,0,2.4,0,3.7,0c2.4-0.1,4.9,0.2,7.3,0.4c2.4,0.1,4.8,0.5,7.3,0.8c9.6,1.4,19.2,3.9,27.8,8.5
				c4.4,2.2,8.4,5,12.1,8.1c3.7,3.1,7,6.8,9.8,10.8c5.6,8,9.1,17.4,10.7,27c0.8,4.8,1.1,9.7,0.9,14.6c-0.1,2.4-0.3,4.9-0.7,7.3
				l-0.3,1.8l-0.4,1.8c-0.4,1.2-0.6,2.4-1.4,3.4L1528,98.4z"/>
		</g>
		<g>
			<path class="st4" d="M1514.4,59.2c-1.5-2.4-3.4-4.5-5.4-6.5c-1-1-2.1-1.9-3.1-2.8c-1.1-0.9-2.2-1.7-3.4-2.5
				c-4.6-3.1-9.8-5.6-15.1-7.2l-1-0.3l-1-0.3l-2-0.5l-2-0.5c-0.7-0.2-1.4-0.2-2.1-0.4l-4.1-0.7l-4.2-0.3l-2.1-0.2
				c-0.7-0.1-1.4,0-2.1,0l-4.2,0c-2.8,0-5.5,0.3-8.2,0.8c-10.8,2.2-20.8,7.7-29.1,15C1416.9,60,1410,69,1405.4,79
				c-2.4,5-4.2,10.2-4.9,15.6c-0.4,2.7-0.5,5.4-0.4,8c0.2,2.7,0.8,5.3,1.6,7.7c1,2.4,2.3,4.7,4,6.8c1.7,2.1,3.6,3.9,5.8,5.5
				c2.2,1.6,4.5,2.9,7,4c2.5,1.1,5.1,2,7.8,2.7c5.4,1.4,10.9,2.2,16.6,2.8c5.6,0.6,11.3,1,17,1.6c5.7,0.7,11.4,1.4,16.9,2.7
				c2.8,0.6,5.5,1.5,8.2,2.4c2.7,1,5.3,2.2,7.8,3.6l-0.1,0.2c-5.1-2.6-10.5-4.3-16.1-5.4c-5.6-1.2-11.2-1.8-16.9-2.2
				c-5.7-0.5-11.3-0.8-17-1.3c-5.7-0.5-11.3-1.2-16.9-2.5c-2.8-0.7-5.5-1.5-8.1-2.6c-2.6-1.1-5.1-2.5-7.5-4.2
				c-2.3-1.7-4.4-3.7-6.2-5.9c-1.8-2.2-3.3-4.7-4.4-7.4c-1-2.7-1.6-5.5-1.8-8.4c-0.2-2.9-0.1-5.7,0.3-8.6c0.8-5.7,2.6-11.1,5-16.3
				c4.9-10.3,12-19.5,20.7-27c4.3-3.7,9-7,14.1-9.6c5.1-2.6,10.5-4.6,16.1-5.6c2.8-0.4,5.7-0.7,8.5-0.7l4.3,0.1c0.7,0,1.4,0,2.1,0.1
				l2.1,0.2l4.3,0.4l4.2,0.8c0.7,0.1,1.4,0.2,2.1,0.4l2.1,0.6l2.1,0.6l1,0.3l1,0.4c5.4,1.8,10.6,4.4,15.2,7.7
				c1.1,0.9,2.3,1.7,3.3,2.7c1,1,2.1,1.9,3.1,3c2,2.1,3.8,4.3,5.2,6.8L1514.4,59.2z"/>
		</g>
		<g>
			<path class="st4" d="M1527.7,98.4c0.3-1.6,0-3.2-0.3-4.7c-0.4-1.5-0.9-3-1.5-4.5c-1.3-2.9-2.9-5.7-4.7-8.3
				c-1.7-2.6-3.7-5.1-5.8-7.5c-2.1-2.4-4.3-4.6-6.8-6.6c-4.8-4-10.1-7.5-15.9-9.4c-2.9-0.9-5.9-1.6-8.9-1.7c-3-0.1-6,0.2-8.9,1.1
				c-5.8,1.6-11.1,4.9-15.7,9.1c-4.6,4.2-8.2,9.3-10.4,15c-1.1,2.9-1.7,5.9-1.9,9c-0.2,3.1,0.1,6.2,0.7,9.3
				c1.1,6.2,3.7,12.2,7.1,17.6l-0.2,0.2c-2-2.6-3.6-5.4-4.9-8.3c-1.4-2.9-2.5-6-3.2-9.1c-1.5-6.3-1.4-13,0.6-19.2
				c2-6.2,6-11.6,10.6-16c4.7-4.4,10.3-8.1,16.5-9.9c3.1-0.9,6.4-1.2,9.6-1.1c3.3,0.1,6.4,0.9,9.5,1.9c3.1,1,6,2.5,8.7,4.2
				c2.8,1.7,5.3,3.7,7.7,5.8c2.4,2.1,4.7,4.5,6.7,7c2.1,2.5,4,5.1,5.7,7.9c1.7,2.8,3.2,5.6,4.3,8.7c1.1,3,2,6.3,1.3,9.5L1527.7,98.4
				z"/>
		</g>
		<g>
			<path class="st4" d="M1542.4,139.8c-3.9-0.1-7.7-0.4-11.5-0.7c-3.8-0.4-7.7-0.8-11.5-1.3c-7.6-1.2-15.3-2.6-22.8-4.8
				c-3.8-1.1-7.5-2.3-11.1-4c-3.6-1.7-7.1-3.7-10.2-6.5c-1.6-1.5-2.7-3.1-4-4.7l-1.7-2.5c-0.6-0.8-1-1.8-1.5-2.7
				c-1.8-3.7-3-7.8-3-12.1c0-4.2,1.2-8.3,2.9-12c1.7-3.7,3.9-7,6.2-10.2c0.5-0.8,1.3-1.7,2-2.4l1.2-1.1l1.3-1
				c1.7-1.2,3.6-2.2,5.6-2.9c2-0.7,4-1.2,6-1.4c2-0.2,4.1-0.3,6.1-0.2c8,0.4,15.9,3.2,22.1,8.3c3,2.6,5.6,5.8,7.2,9.4l0.6,1.4
				c0.2,0.5,0.3,0.9,0.5,1.4c0.3,0.9,0.6,1.9,0.8,2.8c0.2,0.9,0.3,1.9,0.4,2.9c0.1,1,0.1,1.9,0.2,2.9l-0.2,0
				c-0.2-3.8-1.2-7.6-2.9-11c-1.7-3.4-4.3-6.4-7.3-8.8c-6-4.7-13.7-7.2-21.3-7.4c-3.8-0.1-7.7,0.5-11.3,1.8c-1.8,0.7-3.5,1.6-5,2.7
				c-1.6,1.1-2.8,2.5-3.9,4.1c-2.2,3.1-4.3,6.4-5.8,9.9c-1.5,3.5-2.6,7.2-2.6,11.1c0,3.8,1,7.6,2.7,11c0.5,0.8,0.8,1.7,1.4,2.5
				l1.6,2.4c1.2,1.5,2.3,3.1,3.7,4.4c2.8,2.6,6.1,4.5,9.6,6.2c3.5,1.6,7.1,3,10.7,4.1c7.3,2.3,14.8,4,22.4,5.3
				c7.6,1.3,15.2,2.4,22.8,3.1L1542.4,139.8z"/>
		</g>
	</g>
	<g class="st2">
		<g>
			<path class="st4" d="M1354.8,98.4c0.7-1,0.9-2.2,1.3-3.3l0.4-1.8l0.3-1.8c0.3-2.4,0.5-4.8,0.5-7.2c0.1-4.8-0.3-9.7-1.2-14.4
				c-1.7-9.5-5.4-18.6-11-26.3c-2.8-3.9-6-7.5-9.7-10.5c-3.7-3-7.6-5.7-11.9-7.8c-8.5-4.4-17.9-6.8-27.3-8c-2.4-0.3-4.7-0.6-7.2-0.7
				c-2.4-0.1-4.8-0.4-7.2-0.3c-1.2,0-2.4,0-3.5,0l-3.5,0.3c-0.6,0.1-1.2,0.1-1.8,0.2l-1.7,0.3l-3.5,0.6c-9.2,2.2-18,6.1-25.6,11.7
				c-3.9,2.7-7.4,5.9-10.8,9.2c-1.6,1.8-3.3,3.4-4.8,5.3c-0.8,0.9-1.5,1.8-2.3,2.8l-2.1,2.9c-0.7,0.9-1.4,1.9-2,2.9
				c-0.6,1-1.3,2-1.9,3l-1.8,3.1c-0.3,0.5-0.6,1-0.9,1.5l-0.8,1.6l-1.6,3.2l-1.4,3.3l-0.7,1.6l-0.6,1.7l-1.3,3.3l-1.1,3.4l-0.5,1.7
				l-0.4,1.7l-0.9,3.5l-0.7,3.5l-0.3,1.7l-0.2,1.8c-0.1,1.2-0.3,2.3-0.4,3.5c-0.1,2.4-0.4,4.7-0.3,7.1c-0.1,9.5,1.8,18.9,5.7,27.4
				l1.6,3.1l0.4,0.8l0.5,0.7l0.9,1.5c1.2,2,2.6,3.9,4.1,5.8c2.9,3.7,6.1,7.2,9.8,10.1c3.7,2.9,7.8,4.9,12.3,6
				c2.2,0.6,4.6,0.9,6.9,1.1c2.3,0.2,4.7,0.2,7.1,0.2c9.6-0.3,19.2-1.6,29-2.5c4.9-0.5,9.7-0.9,14.6-1.2c4.9-0.3,9.9-0.3,14.8,0.3
				c4.9,0.6,9.7,1.6,14.4,3.1c4.7,1.5,9.2,3.4,13.6,5.6c4.4,2.2,8.5,4.8,12.8,7c2.1,1.1,4.3,2.2,6.6,2.9c1.1,0.4,2.3,0.5,3.5,0.6
				c1.2,0,2.4-0.2,3.5-0.6l0.1,0.2c-1.2,0.4-2.4,0.7-3.6,0.7c-1.2,0-2.5-0.2-3.6-0.5c-2.4-0.6-4.6-1.7-6.8-2.8
				c-4.3-2.2-8.5-4.7-12.9-6.8c-4.4-2.1-8.9-4-13.5-5.3c-4.7-1.4-9.4-2.3-14.3-2.8c-9.7-1-19.4,0.2-29.1,1.2l-14.5,1.6
				c-4.8,0.5-9.7,1-14.6,1.2c-2.4,0.1-4.9,0.1-7.3-0.1c-2.4-0.2-4.9-0.5-7.2-1.1c-4.7-1.2-9.3-3.3-13.1-6.3
				c-3.9-2.9-7.2-6.6-10.3-10.4c-1.5-1.9-3-3.9-4.3-5.9l-1-1.5l-0.5-0.8l-0.4-0.8l-1.7-3.2c-4.2-8.8-6.1-18.6-6.1-28.4
				c-0.1-2.4,0.2-4.9,0.3-7.3c0.1-1.2,0.3-2.4,0.4-3.6l0.2-1.8l0.3-1.8l0.7-3.6l0.9-3.5l0.4-1.8l0.5-1.7l1.1-3.5l1.3-3.4l0.6-1.7
				l0.7-1.7l1.5-3.3l1.7-3.3l0.8-1.6c0.3-0.5,0.6-1.1,0.9-1.6l1.8-3.2c0.7-1,1.3-2,2-3.1c0.7-1,1.3-2,2.1-3l2.2-2.9
				c0.8-1,1.6-1.9,2.3-2.8c1.5-1.9,3.3-3.6,4.9-5.4c3.5-3.4,7.1-6.7,11.1-9.5c7.9-5.8,17-9.8,26.5-12l3.6-0.6l1.8-0.3
				c0.6-0.1,1.2-0.1,1.8-0.2l3.6-0.3c1.2,0,2.4,0,3.7,0c2.4-0.1,4.9,0.2,7.3,0.4c2.4,0.1,4.8,0.5,7.3,0.8c9.6,1.4,19.2,3.9,27.8,8.5
				c4.4,2.2,8.4,5,12.1,8.1c3.7,3.1,7,6.8,9.8,10.8c5.6,8,9.1,17.4,10.7,27c0.8,4.8,1.1,9.7,0.9,14.6c-0.1,2.4-0.3,4.9-0.7,7.3
				l-0.3,1.8l-0.4,1.8c-0.4,1.2-0.6,2.4-1.4,3.4L1354.8,98.4z"/>
		</g>
		<g>
			<path class="st4" d="M1341.2,59.2c-1.5-2.4-3.4-4.5-5.4-6.5c-1-1-2.1-1.9-3.1-2.8c-1.1-0.9-2.2-1.7-3.4-2.5
				c-4.6-3.1-9.8-5.6-15.1-7.2l-1-0.3l-1-0.3l-2-0.5l-2-0.5c-0.7-0.2-1.4-0.2-2.1-0.4l-4.1-0.7l-4.2-0.3l-2.1-0.2
				c-0.7-0.1-1.4,0-2.1,0l-4.2,0c-2.8,0-5.5,0.3-8.2,0.8c-10.8,2.2-20.8,7.7-29.1,15c-8.4,7.3-15.2,16.3-19.9,26.3
				c-2.4,5-4.2,10.2-4.9,15.6c-0.4,2.7-0.5,5.4-0.4,8c0.2,2.7,0.8,5.3,1.6,7.7c1,2.4,2.3,4.7,4,6.8c1.7,2.1,3.6,3.9,5.8,5.5
				c2.2,1.6,4.5,2.9,7,4c2.5,1.1,5.1,2,7.8,2.7c5.4,1.4,10.9,2.2,16.6,2.8c5.6,0.6,11.3,1,17,1.6c5.7,0.7,11.4,1.4,16.9,2.7
				c2.8,0.6,5.5,1.5,8.2,2.4c2.7,1,5.3,2.2,7.8,3.6l-0.1,0.2c-5.1-2.6-10.5-4.3-16.1-5.4c-5.6-1.2-11.2-1.8-16.9-2.2
				c-5.7-0.5-11.3-0.8-17-1.3c-5.7-0.5-11.3-1.2-16.9-2.5c-2.8-0.7-5.5-1.5-8.1-2.6c-2.6-1.1-5.1-2.5-7.5-4.2
				c-2.3-1.7-4.4-3.7-6.2-5.9c-1.8-2.2-3.3-4.7-4.4-7.4c-1-2.7-1.6-5.5-1.8-8.4c-0.2-2.9-0.1-5.7,0.3-8.6c0.8-5.7,2.6-11.1,5-16.3
				c4.9-10.3,12-19.5,20.7-27c4.3-3.7,9-7,14.1-9.6c5.1-2.6,10.5-4.6,16.1-5.6c2.8-0.4,5.7-0.7,8.5-0.7l4.3,0.1c0.7,0,1.4,0,2.1,0.1
				l2.1,0.2l4.3,0.4l4.2,0.8c0.7,0.1,1.4,0.2,2.1,0.4l2.1,0.6l2.1,0.6l1,0.3l1,0.4c5.4,1.8,10.6,4.4,15.2,7.7
				c1.1,0.9,2.3,1.7,3.3,2.7c1,1,2.1,1.9,3.1,3c2,2.1,3.8,4.3,5.2,6.8L1341.2,59.2z"/>
		</g>
		<g>
			<path class="st4" d="M1354.6,98.4c0.3-1.6,0-3.2-0.3-4.7c-0.4-1.5-0.9-3-1.5-4.5c-1.3-2.9-2.9-5.7-4.7-8.3
				c-1.7-2.6-3.7-5.1-5.8-7.5c-2.1-2.4-4.3-4.6-6.8-6.6c-4.8-4-10.1-7.5-15.9-9.4c-2.9-0.9-5.9-1.6-8.9-1.7c-3-0.1-6,0.2-8.9,1.1
				c-5.8,1.6-11.1,4.9-15.7,9.1c-4.6,4.2-8.2,9.3-10.4,15c-1.1,2.9-1.7,5.9-1.9,9c-0.2,3.1,0.1,6.2,0.7,9.3
				c1.1,6.2,3.7,12.2,7.1,17.6l-0.2,0.2c-2-2.6-3.6-5.4-4.9-8.3c-1.4-2.9-2.5-6-3.2-9.1c-1.5-6.3-1.4-13,0.6-19.2
				c2-6.2,6-11.6,10.6-16c4.7-4.4,10.3-8.1,16.5-9.9c3.1-0.9,6.4-1.2,9.6-1.1c3.3,0.1,6.4,0.9,9.5,1.9c3.1,1,6,2.5,8.7,4.2
				c2.8,1.7,5.3,3.7,7.7,5.8c2.4,2.1,4.7,4.5,6.7,7c2.1,2.5,4,5.1,5.7,7.9c1.7,2.8,3.2,5.6,4.3,8.7c1.1,3,2,6.3,1.3,9.5L1354.6,98.4
				z"/>
		</g>
		<g>
			<path class="st4" d="M1369.3,139.8c-3.9-0.1-7.7-0.4-11.5-0.7c-3.8-0.4-7.7-0.8-11.5-1.3c-7.6-1.2-15.3-2.6-22.8-4.8
				c-3.8-1.1-7.5-2.3-11.1-4c-3.6-1.7-7.1-3.7-10.2-6.5c-1.6-1.5-2.7-3.1-4-4.7l-1.7-2.5c-0.6-0.8-1-1.8-1.5-2.7
				c-1.8-3.7-3-7.8-3-12.1c0-4.2,1.2-8.3,2.9-12c1.7-3.7,3.9-7,6.2-10.2c0.5-0.8,1.3-1.7,2-2.4l1.2-1.1l1.3-1
				c1.7-1.2,3.6-2.2,5.6-2.9c2-0.7,4-1.2,6-1.4c2-0.2,4.1-0.3,6.1-0.2c8,0.4,15.9,3.2,22.1,8.3c3,2.6,5.6,5.8,7.2,9.4l0.6,1.4
				c0.2,0.5,0.3,0.9,0.5,1.4c0.3,0.9,0.6,1.9,0.8,2.8c0.2,0.9,0.3,1.9,0.4,2.9c0.1,1,0.1,1.9,0.2,2.9l-0.2,0
				c-0.2-3.8-1.2-7.6-2.9-11c-1.7-3.4-4.3-6.4-7.3-8.8c-6-4.7-13.7-7.2-21.3-7.4c-3.8-0.1-7.7,0.5-11.3,1.8c-1.8,0.7-3.5,1.6-5,2.7
				c-1.6,1.1-2.8,2.5-3.9,4.1c-2.2,3.1-4.3,6.4-5.8,9.9c-1.5,3.5-2.6,7.2-2.6,11.1c0,3.8,1,7.6,2.7,11c0.5,0.8,0.8,1.7,1.4,2.5
				l1.6,2.4c1.2,1.5,2.3,3.1,3.7,4.4c2.8,2.6,6.1,4.5,9.6,6.2c3.5,1.6,7.1,3,10.7,4.1c7.3,2.3,14.8,4,22.4,5.3
				c7.6,1.3,15.2,2.4,22.8,3.1L1369.3,139.8z"/>
		</g>
	</g>
	<g class="st2">
		<g>
			<path class="st4" d="M1182.2,98.4c0.7-1,0.9-2.2,1.3-3.3l0.4-1.8l0.3-1.8c0.3-2.4,0.5-4.8,0.5-7.2c0.1-4.8-0.3-9.7-1.2-14.4
				c-1.7-9.5-5.4-18.6-11-26.3c-2.8-3.9-6-7.5-9.7-10.5c-3.7-3-7.6-5.7-11.9-7.8c-8.5-4.4-17.9-6.8-27.3-8c-2.4-0.3-4.7-0.6-7.2-0.7
				c-2.4-0.1-4.8-0.4-7.2-0.3c-1.2,0-2.4,0-3.5,0l-3.5,0.3c-0.6,0.1-1.2,0.1-1.8,0.2l-1.7,0.3l-3.5,0.6c-9.2,2.2-18,6.1-25.6,11.7
				c-3.9,2.7-7.4,5.9-10.8,9.2c-1.6,1.8-3.3,3.4-4.8,5.3c-0.8,0.9-1.5,1.8-2.3,2.8l-2.1,2.9c-0.7,0.9-1.4,1.9-2,2.9
				c-0.6,1-1.3,2-1.9,3l-1.8,3.1c-0.3,0.5-0.6,1-0.9,1.5l-0.8,1.6l-1.6,3.2l-1.4,3.3l-0.7,1.6l-0.6,1.7l-1.3,3.3l-1.1,3.4l-0.5,1.7
				l-0.4,1.7l-0.9,3.5l-0.7,3.5l-0.3,1.7l-0.2,1.8c-0.1,1.2-0.3,2.3-0.4,3.5c-0.1,2.4-0.4,4.7-0.3,7.1c-0.1,9.5,1.8,18.9,5.7,27.4
				l1.6,3.1l0.4,0.8l0.5,0.7l0.9,1.5c1.2,2,2.6,3.9,4.1,5.8c2.9,3.7,6.1,7.2,9.8,10.1c3.7,2.9,7.8,4.9,12.3,6
				c2.2,0.6,4.6,0.9,6.9,1.1c2.3,0.2,4.7,0.2,7.1,0.2c9.6-0.3,19.2-1.6,29-2.5c4.9-0.5,9.7-0.9,14.6-1.2c4.9-0.3,9.9-0.3,14.8,0.3
				c4.9,0.6,9.7,1.6,14.4,3.1c4.7,1.5,9.2,3.4,13.6,5.6c4.4,2.2,8.5,4.8,12.8,7c2.1,1.1,4.3,2.2,6.6,2.9c1.1,0.4,2.3,0.5,3.5,0.6
				c1.2,0,2.4-0.2,3.5-0.6l0.1,0.2c-1.2,0.4-2.4,0.7-3.6,0.7c-1.2,0-2.5-0.2-3.6-0.5c-2.4-0.6-4.6-1.7-6.8-2.8
				c-4.3-2.2-8.5-4.7-12.9-6.8c-4.4-2.1-8.9-4-13.5-5.3c-4.7-1.4-9.4-2.3-14.3-2.8c-9.7-1-19.4,0.2-29.1,1.2l-14.5,1.6
				c-4.8,0.5-9.7,1-14.6,1.2c-2.4,0.1-4.9,0.1-7.3-0.1c-2.4-0.2-4.9-0.5-7.2-1.1c-4.7-1.2-9.3-3.3-13.1-6.3
				c-3.9-2.9-7.2-6.6-10.3-10.4c-1.5-1.9-3-3.9-4.3-5.9l-1-1.5l-0.5-0.8l-0.4-0.8l-1.7-3.2c-4.2-8.8-6.1-18.6-6.1-28.4
				c-0.1-2.4,0.2-4.9,0.3-7.3c0.1-1.2,0.3-2.4,0.4-3.6l0.2-1.8l0.3-1.8l0.7-3.6l0.9-3.5l0.4-1.8l0.5-1.7l1.1-3.5l1.3-3.4l0.6-1.7
				l0.7-1.7l1.5-3.3l1.7-3.3l0.8-1.6c0.3-0.5,0.6-1.1,0.9-1.6l1.8-3.2c0.7-1,1.3-2,2-3.1c0.7-1,1.3-2,2.1-3l2.2-2.9
				c0.8-1,1.6-1.9,2.3-2.8c1.5-1.9,3.3-3.6,4.9-5.4c3.5-3.4,7.1-6.7,11.1-9.5c7.9-5.8,17-9.8,26.5-12l3.6-0.6l1.8-0.3
				c0.6-0.1,1.2-0.1,1.8-0.2l3.6-0.3c1.2,0,2.4,0,3.7,0c2.4-0.1,4.9,0.2,7.3,0.4c2.4,0.1,4.8,0.5,7.3,0.8c9.6,1.4,19.2,3.9,27.8,8.5
				c4.4,2.2,8.4,5,12.1,8.1c3.7,3.1,7,6.8,9.8,10.8c5.6,8,9.1,17.4,10.7,27c0.8,4.8,1.1,9.7,0.9,14.6c-0.1,2.4-0.3,4.9-0.7,7.3
				l-0.3,1.8l-0.4,1.8c-0.4,1.2-0.6,2.4-1.4,3.4L1182.2,98.4z"/>
		</g>
		<g>
			<path class="st4" d="M1168.6,59.2c-1.5-2.4-3.4-4.5-5.4-6.5c-1-1-2.1-1.9-3.1-2.8c-1.1-0.9-2.2-1.7-3.4-2.5
				c-4.6-3.1-9.8-5.6-15.1-7.2l-1-0.3l-1-0.3l-2-0.5l-2-0.5c-0.7-0.2-1.4-0.2-2.1-0.4l-4.1-0.7l-4.2-0.3l-2.1-0.2
				c-0.7-0.1-1.4,0-2.1,0l-4.2,0c-2.8,0-5.5,0.3-8.2,0.8c-10.8,2.2-20.8,7.7-29.1,15c-8.4,7.3-15.2,16.3-19.9,26.3
				c-2.4,5-4.2,10.2-4.9,15.6c-0.4,2.7-0.5,5.4-0.4,8c0.2,2.7,0.8,5.3,1.6,7.7c1,2.4,2.3,4.7,4,6.8c1.7,2.1,3.6,3.9,5.8,5.5
				c2.2,1.6,4.5,2.9,7,4c2.5,1.1,5.1,2,7.8,2.7c5.4,1.4,10.9,2.2,16.6,2.8c5.6,0.6,11.3,1,17,1.6c5.7,0.7,11.4,1.4,16.9,2.7
				c2.8,0.6,5.5,1.5,8.2,2.4c2.7,1,5.3,2.2,7.8,3.6l-0.1,0.2c-5.1-2.6-10.5-4.3-16.1-5.4c-5.6-1.2-11.2-1.8-16.9-2.2
				c-5.7-0.5-11.3-0.8-17-1.3c-5.7-0.5-11.3-1.2-16.9-2.5c-2.8-0.7-5.5-1.5-8.1-2.6c-2.6-1.1-5.1-2.5-7.5-4.2
				c-2.3-1.7-4.4-3.7-6.2-5.9c-1.8-2.2-3.3-4.7-4.4-7.4c-1-2.7-1.6-5.5-1.8-8.4c-0.2-2.9-0.1-5.7,0.3-8.6c0.8-5.7,2.6-11.1,5-16.3
				c4.9-10.3,12-19.5,20.7-27c4.3-3.7,9-7,14.1-9.6c5.1-2.6,10.5-4.6,16.1-5.6c2.8-0.4,5.7-0.7,8.5-0.7l4.3,0.1c0.7,0,1.4,0,2.1,0.1
				l2.1,0.2l4.3,0.4l4.2,0.8c0.7,0.1,1.4,0.2,2.1,0.4l2.1,0.6l2.1,0.6l1,0.3l1,0.4c5.4,1.8,10.6,4.4,15.2,7.7
				c1.1,0.9,2.3,1.7,3.3,2.7c1,1,2.1,1.9,3.1,3c2,2.1,3.8,4.3,5.2,6.8L1168.6,59.2z"/>
		</g>
		<g>
			<path class="st4" d="M1181.9,98.4c0.3-1.6,0-3.2-0.3-4.7c-0.4-1.5-0.9-3-1.5-4.5c-1.3-2.9-2.9-5.7-4.7-8.3
				c-1.7-2.6-3.7-5.1-5.8-7.5c-2.1-2.4-4.3-4.6-6.8-6.6c-4.8-4-10.1-7.5-15.9-9.4c-2.9-0.9-5.9-1.6-8.9-1.7c-3-0.1-6,0.2-8.9,1.1
				c-5.8,1.6-11.1,4.9-15.7,9.1c-4.6,4.2-8.2,9.3-10.4,15c-1.1,2.9-1.7,5.9-1.9,9c-0.2,3.1,0.1,6.2,0.7,9.3
				c1.1,6.2,3.7,12.2,7.1,17.6l-0.2,0.2c-2-2.6-3.6-5.4-4.9-8.3c-1.4-2.9-2.5-6-3.2-9.1c-1.5-6.3-1.4-13,0.6-19.2
				c2-6.2,6-11.6,10.6-16c4.7-4.4,10.3-8.1,16.5-9.9c3.1-0.9,6.4-1.2,9.6-1.1c3.3,0.1,6.4,0.9,9.5,1.9c3.1,1,6,2.5,8.7,4.2
				c2.8,1.7,5.3,3.7,7.7,5.8c2.4,2.1,4.7,4.5,6.7,7c2.1,2.5,4,5.1,5.7,7.9c1.7,2.8,3.2,5.6,4.3,8.7c1.1,3,2,6.3,1.3,9.5L1181.9,98.4
				z"/>
		</g>
		<g>
			<path class="st4" d="M1196.7,139.8c-3.9-0.1-7.7-0.4-11.5-0.7c-3.8-0.4-7.7-0.8-11.5-1.3c-7.6-1.2-15.3-2.6-22.8-4.8
				c-3.8-1.1-7.5-2.3-11.1-4c-3.6-1.7-7.1-3.7-10.2-6.5c-1.6-1.5-2.7-3.1-4-4.7l-1.7-2.5c-0.6-0.8-1-1.8-1.5-2.7
				c-1.8-3.7-3-7.8-3-12.1c0-4.2,1.2-8.3,2.9-12c1.7-3.7,3.9-7,6.2-10.2c0.5-0.8,1.3-1.7,2-2.4l1.2-1.1l1.3-1
				c1.7-1.2,3.6-2.2,5.6-2.9c2-0.7,4-1.2,6-1.4c2-0.2,4.1-0.3,6.1-0.2c8,0.4,15.9,3.2,22.1,8.3c3,2.6,5.6,5.8,7.2,9.4l0.6,1.4
				c0.2,0.5,0.3,0.9,0.5,1.4c0.3,0.9,0.6,1.9,0.8,2.8c0.2,0.9,0.3,1.9,0.4,2.9c0.1,1,0.1,1.9,0.2,2.9l-0.2,0
				c-0.2-3.8-1.2-7.6-2.9-11c-1.7-3.4-4.3-6.4-7.3-8.8c-6-4.7-13.7-7.2-21.3-7.4c-3.8-0.1-7.7,0.5-11.3,1.8c-1.8,0.7-3.5,1.6-5,2.7
				c-1.6,1.1-2.8,2.5-3.9,4.1c-2.2,3.1-4.3,6.4-5.8,9.9c-1.6,3.5-2.6,7.2-2.6,11.1c0,3.8,1,7.6,2.7,11c0.5,0.8,0.8,1.7,1.4,2.5
				l1.6,2.4c1.2,1.5,2.3,3.1,3.7,4.4c2.8,2.6,6.1,4.5,9.6,6.2c3.5,1.6,7.1,3,10.7,4.1c7.3,2.3,14.8,4,22.4,5.3
				c7.6,1.3,15.2,2.4,22.8,3.1L1196.7,139.8z"/>
		</g>
	</g>
	<g class="st2">
		<g>
			<path class="st4" d="M1009,98.4c0.7-1,0.9-2.2,1.3-3.3l0.4-1.8l0.3-1.8c0.3-2.4,0.5-4.8,0.5-7.2c0.1-4.8-0.3-9.7-1.2-14.4
				c-1.7-9.5-5.4-18.6-11-26.3c-2.8-3.9-6-7.5-9.7-10.5c-3.7-3-7.6-5.7-11.9-7.8c-8.5-4.4-17.9-6.8-27.3-8c-2.4-0.3-4.7-0.6-7.2-0.7
				c-2.4-0.1-4.8-0.4-7.2-0.3c-1.2,0-2.4,0-3.5,0l-3.5,0.3c-0.6,0.1-1.2,0.1-1.8,0.2l-1.7,0.3l-3.5,0.6c-9.2,2.2-18,6.1-25.6,11.7
				c-3.9,2.7-7.4,5.9-10.8,9.2c-1.6,1.8-3.3,3.4-4.8,5.3c-0.8,0.9-1.5,1.8-2.3,2.8l-2.1,2.9c-0.7,0.9-1.4,1.9-2,2.9
				c-0.6,1-1.3,2-1.9,3l-1.8,3.1c-0.3,0.5-0.6,1-0.9,1.5l-0.8,1.6l-1.6,3.2l-1.4,3.3l-0.7,1.6l-0.6,1.7l-1.3,3.3l-1.1,3.4l-0.5,1.7
				l-0.4,1.7l-0.9,3.5l-0.7,3.5l-0.3,1.7l-0.2,1.8c-0.1,1.2-0.3,2.3-0.4,3.5c-0.1,2.4-0.4,4.7-0.3,7.1c-0.1,9.5,1.8,18.9,5.7,27.4
				l1.6,3.1l0.4,0.8l0.5,0.7l0.9,1.5c1.2,2,2.6,3.9,4.1,5.8c2.9,3.7,6.1,7.2,9.8,10.1c3.7,2.9,7.8,4.9,12.3,6
				c2.2,0.6,4.6,0.9,6.9,1.1c2.3,0.2,4.7,0.2,7.1,0.2c9.6-0.3,19.2-1.6,29-2.5c4.9-0.5,9.7-0.9,14.6-1.2c4.9-0.3,9.9-0.3,14.8,0.3
				c4.9,0.6,9.7,1.6,14.4,3.1c4.7,1.5,9.2,3.4,13.6,5.6c4.4,2.2,8.5,4.8,12.8,7c2.1,1.1,4.3,2.2,6.6,2.9c1.1,0.4,2.3,0.5,3.5,0.6
				c1.2,0,2.4-0.2,3.5-0.6l0.1,0.2c-1.2,0.4-2.4,0.7-3.6,0.7c-1.2,0-2.5-0.2-3.6-0.5c-2.4-0.6-4.6-1.7-6.8-2.8
				c-4.3-2.2-8.5-4.7-12.9-6.8c-4.4-2.1-8.9-4-13.5-5.3c-4.7-1.4-9.4-2.3-14.3-2.8c-9.7-1-19.4,0.2-29.1,1.2l-14.5,1.6
				c-4.8,0.5-9.7,1-14.6,1.2c-2.4,0.1-4.9,0.1-7.3-0.1c-2.4-0.2-4.9-0.5-7.2-1.1c-4.7-1.2-9.3-3.3-13.1-6.3
				c-3.9-2.9-7.2-6.6-10.3-10.4c-1.5-1.9-3-3.9-4.3-5.9l-1-1.5l-0.5-0.8l-0.4-0.8L862,131c-4.2-8.8-6.1-18.6-6.1-28.4
				c-0.1-2.4,0.2-4.9,0.3-7.3c0.1-1.2,0.3-2.4,0.4-3.6l0.2-1.8l0.3-1.8l0.7-3.6l0.9-3.5l0.4-1.8l0.5-1.7l1.1-3.5l1.3-3.4l0.6-1.7
				l0.7-1.7l1.5-3.3l1.7-3.3l0.8-1.6c0.3-0.5,0.6-1.1,0.9-1.6l1.8-3.2c0.7-1,1.3-2,2-3.1c0.7-1,1.3-2,2.1-3l2.2-2.9
				c0.8-1,1.6-1.9,2.3-2.8c1.5-1.9,3.3-3.6,4.9-5.4c3.5-3.4,7.1-6.7,11.1-9.5c7.9-5.8,17-9.8,26.5-12l3.6-0.6l1.8-0.3
				c0.6-0.1,1.2-0.1,1.8-0.2l3.6-0.3c1.2,0,2.4,0,3.7,0c2.4-0.1,4.9,0.2,7.3,0.4c2.4,0.1,4.8,0.5,7.3,0.8c9.6,1.4,19.2,3.9,27.8,8.5
				c4.4,2.2,8.4,5,12.1,8.1c3.7,3.1,7,6.8,9.8,10.8c5.6,8,9.1,17.4,10.7,27c0.8,4.8,1.1,9.7,0.9,14.6c-0.1,2.4-0.3,4.9-0.7,7.3
				l-0.3,1.8l-0.4,1.8c-0.4,1.2-0.6,2.4-1.4,3.4L1009,98.4z"/>
		</g>
		<g>
			<path class="st4" d="M995.4,59.2c-1.5-2.4-3.4-4.5-5.4-6.5c-1-1-2.1-1.9-3.1-2.8c-1.1-0.9-2.2-1.7-3.4-2.5
				c-4.6-3.1-9.8-5.6-15.1-7.2l-1-0.3l-1-0.3l-2-0.5l-2-0.5c-0.7-0.2-1.4-0.2-2.1-0.4l-4.1-0.7l-4.2-0.3l-2.1-0.2
				c-0.7-0.1-1.4,0-2.1,0l-4.2,0c-2.8,0-5.5,0.3-8.2,0.8c-10.8,2.2-20.8,7.7-29.1,15C898,60,891.1,69,886.4,79
				c-2.4,5-4.2,10.2-4.9,15.6c-0.4,2.7-0.5,5.4-0.4,8c0.2,2.7,0.8,5.3,1.6,7.7c1,2.4,2.3,4.7,4,6.8c1.7,2.1,3.6,3.9,5.8,5.5
				c2.2,1.6,4.5,2.9,7,4c2.5,1.1,5.1,2,7.8,2.7c5.4,1.4,10.9,2.2,16.6,2.8c5.6,0.6,11.3,1,17,1.6c5.7,0.7,11.4,1.4,16.9,2.7
				c2.8,0.6,5.5,1.5,8.2,2.4c2.7,1,5.3,2.2,7.8,3.6l-0.1,0.2c-5.1-2.6-10.5-4.3-16.1-5.4c-5.6-1.2-11.2-1.8-16.9-2.2
				c-5.7-0.5-11.3-0.8-17-1.3c-5.7-0.5-11.3-1.2-16.9-2.5c-2.8-0.7-5.5-1.5-8.1-2.6c-2.6-1.1-5.1-2.5-7.5-4.2
				c-2.3-1.7-4.4-3.7-6.2-5.9c-1.8-2.2-3.3-4.7-4.4-7.4c-1-2.7-1.6-5.5-1.8-8.4c-0.2-2.9-0.1-5.7,0.3-8.6c0.8-5.7,2.6-11.1,5-16.3
				c4.9-10.3,12-19.5,20.7-27c4.3-3.7,9-7,14.1-9.6c5.1-2.6,10.5-4.6,16.1-5.6c2.8-0.4,5.7-0.7,8.5-0.7l4.3,0.1c0.7,0,1.4,0,2.1,0.1
				l2.1,0.2l4.3,0.4l4.2,0.8c0.7,0.1,1.4,0.2,2.1,0.4l2.1,0.6l2.1,0.6l1,0.3l1,0.4c5.4,1.8,10.6,4.4,15.2,7.7
				c1.1,0.9,2.3,1.7,3.3,2.7c1,1,2.1,1.9,3.1,3c2,2.1,3.8,4.3,5.2,6.8L995.4,59.2z"/>
		</g>
		<g>
			<path class="st4" d="M1008.7,98.4c0.3-1.6,0-3.2-0.3-4.7c-0.4-1.5-0.9-3-1.5-4.5c-1.3-2.9-2.9-5.7-4.7-8.3
				c-1.7-2.6-3.7-5.1-5.8-7.5c-2.1-2.4-4.3-4.6-6.8-6.6c-4.8-4-10.1-7.5-15.9-9.4c-2.9-0.9-5.9-1.6-8.9-1.7c-3-0.1-6,0.2-8.9,1.1
				c-5.8,1.6-11.1,4.9-15.7,9.1c-4.6,4.2-8.2,9.3-10.4,15c-1.1,2.9-1.7,5.9-1.9,9c-0.2,3.1,0.1,6.2,0.7,9.3
				c1.1,6.2,3.7,12.2,7.1,17.6l-0.2,0.2c-2-2.6-3.6-5.4-4.9-8.3c-1.4-2.9-2.5-6-3.2-9.1c-1.5-6.3-1.4-13,0.6-19.2
				c2-6.2,6-11.6,10.6-16c4.7-4.4,10.3-8.1,16.5-9.9c3.1-0.9,6.4-1.2,9.6-1.1c3.3,0.1,6.4,0.9,9.5,1.9c3.1,1,6,2.5,8.7,4.2
				c2.8,1.7,5.3,3.7,7.7,5.8c2.4,2.1,4.7,4.5,6.7,7c2.1,2.5,4,5.1,5.7,7.9c1.7,2.8,3.2,5.6,4.3,8.7c1.1,3,2,6.3,1.3,9.5L1008.7,98.4
				z"/>
		</g>
		<g>
			<path class="st4" d="M1023.5,139.8c-3.9-0.1-7.7-0.4-11.5-0.7c-3.8-0.4-7.7-0.8-11.5-1.3c-7.6-1.2-15.3-2.6-22.8-4.8
				c-3.8-1.1-7.5-2.3-11.1-4c-3.6-1.7-7.1-3.7-10.2-6.5c-1.6-1.5-2.7-3.1-4-4.7l-1.7-2.5c-0.6-0.8-1-1.8-1.5-2.7
				c-1.8-3.7-3-7.8-3-12.1c0-4.2,1.2-8.3,2.9-12c1.7-3.7,3.9-7,6.2-10.2c0.5-0.8,1.3-1.7,2-2.4l1.2-1.1l1.3-1
				c1.7-1.2,3.6-2.2,5.6-2.9c2-0.7,4-1.2,6-1.4c2-0.2,4.1-0.3,6.1-0.2c8,0.4,15.9,3.2,22.1,8.3c3,2.6,5.6,5.8,7.2,9.4l0.6,1.4
				c0.2,0.5,0.3,0.9,0.5,1.4c0.3,0.9,0.6,1.9,0.8,2.8c0.2,0.9,0.3,1.9,0.4,2.9c0.1,1,0.1,1.9,0.2,2.9l-0.2,0
				c-0.2-3.8-1.2-7.6-2.9-11c-1.7-3.4-4.3-6.4-7.3-8.8c-6-4.7-13.7-7.2-21.3-7.4c-3.8-0.1-7.7,0.5-11.3,1.8c-1.8,0.7-3.5,1.6-5,2.7
				c-1.6,1.1-2.8,2.5-3.9,4.1c-2.2,3.1-4.3,6.4-5.8,9.9c-1.5,3.5-2.6,7.2-2.6,11.1c0,3.8,1,7.6,2.7,11c0.5,0.8,0.8,1.7,1.4,2.5
				l1.6,2.4c1.2,1.5,2.3,3.1,3.7,4.4c2.8,2.6,6.1,4.5,9.6,6.2c3.5,1.6,7.1,3,10.7,4.1c7.3,2.3,14.8,4,22.4,5.3
				c7.6,1.3,15.2,2.4,22.8,3.1L1023.5,139.8z"/>
		</g>
	</g>
	<g class="st2">
		<g>
			<path class="st4" d="M836.9,98.4c0.7-1,0.9-2.2,1.3-3.3l0.4-1.8l0.3-1.8c0.3-2.4,0.5-4.8,0.5-7.2c0.1-4.8-0.3-9.7-1.2-14.4
				c-1.7-9.5-5.4-18.6-11-26.3c-2.8-3.9-6-7.5-9.7-10.5c-3.7-3-7.6-5.7-11.9-7.8c-8.5-4.4-17.9-6.8-27.3-8c-2.4-0.3-4.7-0.6-7.2-0.7
				c-2.4-0.1-4.8-0.4-7.2-0.3c-1.2,0-2.4,0-3.5,0l-3.5,0.3c-0.6,0.1-1.2,0.1-1.8,0.2l-1.7,0.3l-3.5,0.6c-9.2,2.2-18,6.1-25.6,11.7
				c-3.9,2.7-7.4,5.9-10.8,9.2c-1.6,1.8-3.3,3.4-4.8,5.3c-0.8,0.9-1.5,1.8-2.3,2.8l-2.1,2.9c-0.7,0.9-1.4,1.9-2,2.9
				c-0.6,1-1.3,2-1.9,3l-1.8,3.1c-0.3,0.5-0.6,1-0.9,1.5l-0.8,1.6l-1.6,3.2l-1.4,3.3l-0.7,1.6l-0.6,1.7l-1.3,3.3l-1.1,3.4l-0.5,1.7
				l-0.4,1.7l-0.9,3.5l-0.7,3.5l-0.3,1.7l-0.2,1.8c-0.1,1.2-0.3,2.3-0.4,3.5c-0.1,2.4-0.4,4.7-0.3,7.1c-0.1,9.5,1.8,18.9,5.7,27.4
				l1.6,3.1l0.4,0.8l0.5,0.7l0.9,1.5c1.2,2,2.6,3.9,4.1,5.8c2.9,3.7,6.1,7.2,9.8,10.1c3.7,2.9,7.8,4.9,12.3,6
				c2.2,0.6,4.6,0.9,6.9,1.1c2.3,0.2,4.7,0.2,7.1,0.2c9.6-0.3,19.2-1.6,29-2.5c4.9-0.5,9.7-0.9,14.6-1.2c4.9-0.3,9.9-0.3,14.8,0.3
				c4.9,0.6,9.7,1.6,14.4,3.1c4.7,1.5,9.2,3.4,13.6,5.6c4.4,2.2,8.5,4.8,12.8,7c2.1,1.1,4.3,2.2,6.6,2.9c1.1,0.4,2.3,0.5,3.5,0.6
				c1.2,0,2.4-0.2,3.5-0.6l0.1,0.2c-1.2,0.4-2.4,0.7-3.6,0.7c-1.2,0-2.5-0.2-3.6-0.5c-2.4-0.6-4.6-1.7-6.8-2.8
				c-4.3-2.2-8.5-4.7-12.9-6.8c-4.4-2.1-8.9-4-13.5-5.3c-4.7-1.4-9.4-2.3-14.3-2.8c-9.7-1-19.4,0.2-29.1,1.2l-14.5,1.6
				c-4.8,0.5-9.7,1-14.6,1.2c-2.4,0.1-4.9,0.1-7.3-0.1c-2.4-0.2-4.9-0.5-7.2-1.1c-4.7-1.2-9.3-3.3-13.1-6.3
				c-3.9-2.9-7.2-6.6-10.3-10.4c-1.5-1.9-3-3.9-4.3-5.9l-1-1.5l-0.5-0.8l-0.4-0.8l-1.7-3.2c-4.2-8.8-6.1-18.6-6.1-28.4
				c-0.1-2.4,0.2-4.9,0.3-7.3c0.1-1.2,0.3-2.4,0.4-3.6l0.2-1.8l0.3-1.8l0.7-3.6l0.9-3.5l0.4-1.8l0.5-1.7l1.1-3.5l1.3-3.4l0.6-1.7
				l0.7-1.7l1.5-3.3l1.7-3.3l0.8-1.6c0.3-0.5,0.6-1.1,0.9-1.6l1.8-3.2c0.7-1,1.3-2,2-3.1c0.7-1,1.3-2,2.1-3l2.2-2.9
				c0.8-1,1.6-1.9,2.3-2.8c1.5-1.9,3.3-3.6,4.9-5.4c3.5-3.4,7.1-6.7,11.1-9.5c7.9-5.8,17-9.8,26.5-12l3.6-0.6l1.8-0.3
				c0.6-0.1,1.2-0.1,1.8-0.2l3.6-0.3c1.2,0,2.4,0,3.7,0c2.4-0.1,4.9,0.2,7.3,0.4c2.4,0.1,4.8,0.5,7.3,0.8c9.6,1.4,19.2,3.9,27.8,8.5
				c4.4,2.2,8.4,5,12.1,8.1c3.7,3.1,7,6.8,9.8,10.8c5.6,8,9.1,17.4,10.7,27c0.8,4.8,1.1,9.7,0.9,14.6c-0.1,2.4-0.3,4.9-0.7,7.3
				l-0.3,1.8l-0.4,1.8c-0.4,1.2-0.6,2.4-1.4,3.4L836.9,98.4z"/>
		</g>
		<g>
			<path class="st4" d="M823.3,59.2c-1.5-2.4-3.4-4.5-5.4-6.5c-1-1-2.1-1.9-3.1-2.8c-1.1-0.9-2.2-1.7-3.4-2.5
				c-4.6-3.1-9.8-5.6-15.1-7.2l-1-0.3l-1-0.3l-2-0.5l-2-0.5c-0.7-0.2-1.4-0.2-2.1-0.4l-4.1-0.7l-4.2-0.3l-2.1-0.2
				c-0.7-0.1-1.4,0-2.1,0l-4.2,0c-2.8,0-5.5,0.3-8.2,0.8c-10.8,2.2-20.8,7.7-29.1,15C725.8,60,718.9,69,714.3,79
				c-2.4,5-4.2,10.2-4.9,15.6c-0.4,2.7-0.5,5.4-0.4,8c0.2,2.7,0.8,5.3,1.6,7.7c1,2.4,2.3,4.7,4,6.8c1.7,2.1,3.6,3.9,5.8,5.5
				c2.2,1.6,4.5,2.9,7,4c2.5,1.1,5.1,2,7.8,2.7c5.4,1.4,10.9,2.2,16.6,2.8c5.6,0.6,11.3,1,17,1.6c5.7,0.7,11.4,1.4,16.9,2.7
				c2.8,0.6,5.5,1.5,8.2,2.4c2.7,1,5.3,2.2,7.8,3.6l-0.1,0.2c-5.1-2.6-10.5-4.3-16.1-5.4c-5.6-1.2-11.2-1.8-16.9-2.2
				c-5.7-0.5-11.3-0.8-17-1.3c-5.7-0.5-11.3-1.2-16.9-2.5c-2.8-0.7-5.5-1.5-8.1-2.6c-2.6-1.1-5.1-2.5-7.5-4.2
				c-2.3-1.7-4.4-3.7-6.2-5.9c-1.8-2.2-3.3-4.7-4.4-7.4c-1-2.7-1.6-5.5-1.8-8.4c-0.2-2.9-0.1-5.7,0.3-8.6c0.8-5.7,2.6-11.1,5-16.3
				c4.9-10.3,12-19.5,20.7-27c4.3-3.7,9-7,14.1-9.6c5.1-2.6,10.5-4.6,16.1-5.6c2.8-0.4,5.7-0.7,8.5-0.7l4.3,0.1c0.7,0,1.4,0,2.1,0.1
				l2.1,0.2l4.3,0.4l4.2,0.8c0.7,0.1,1.4,0.2,2.1,0.4l2.1,0.6l2.1,0.6l1,0.3l1,0.4c5.4,1.8,10.6,4.4,15.2,7.7
				c1.1,0.9,2.3,1.7,3.3,2.7c1,1,2.1,1.9,3.1,3c2,2.1,3.8,4.3,5.2,6.8L823.3,59.2z"/>
		</g>
		<g>
			<path class="st4" d="M836.6,98.4c0.3-1.6,0-3.2-0.3-4.7c-0.4-1.5-0.9-3-1.5-4.5c-1.3-2.9-2.9-5.7-4.7-8.3
				c-1.7-2.6-3.7-5.1-5.8-7.5c-2.1-2.4-4.3-4.6-6.8-6.6c-4.8-4-10.1-7.5-15.9-9.4c-2.9-0.9-5.9-1.6-8.9-1.7c-3-0.1-6,0.2-8.9,1.1
				c-5.8,1.6-11.1,4.9-15.7,9.1c-4.6,4.2-8.2,9.3-10.4,15c-1.1,2.9-1.7,5.9-1.9,9c-0.2,3.1,0.1,6.2,0.7,9.3
				c1.1,6.2,3.7,12.2,7.1,17.6l-0.2,0.2c-2-2.6-3.6-5.4-4.9-8.3c-1.4-2.9-2.5-6-3.2-9.1c-1.5-6.3-1.4-13,0.6-19.2
				c2-6.2,6-11.6,10.6-16c4.7-4.4,10.3-8.1,16.5-9.9c3.1-0.9,6.4-1.2,9.6-1.1c3.3,0.1,6.4,0.9,9.5,1.9c3.1,1,6,2.5,8.7,4.2
				c2.8,1.7,5.3,3.7,7.7,5.8c2.4,2.1,4.7,4.5,6.7,7c2.1,2.5,4,5.1,5.7,7.9c1.7,2.8,3.2,5.6,4.3,8.7c1.1,3,2,6.3,1.3,9.5L836.6,98.4z
				"/>
		</g>
		<g>
			<path class="st4" d="M851.3,139.8c-3.9-0.1-7.7-0.4-11.5-0.7c-3.8-0.4-7.7-0.8-11.5-1.3c-7.6-1.2-15.3-2.6-22.8-4.8
				c-3.8-1.1-7.5-2.3-11.1-4c-3.6-1.7-7.1-3.7-10.2-6.5c-1.6-1.5-2.7-3.1-4-4.7l-1.7-2.5c-0.6-0.8-1-1.8-1.5-2.7
				c-1.8-3.7-3-7.8-3-12.1c0-4.2,1.2-8.3,2.9-12c1.7-3.7,3.9-7,6.2-10.2c0.5-0.8,1.3-1.7,2-2.4l1.2-1.1l1.3-1
				c1.7-1.2,3.6-2.2,5.6-2.9c2-0.7,4-1.2,6-1.4c2-0.2,4.1-0.3,6.1-0.2c8,0.4,15.9,3.2,22.1,8.3c3,2.6,5.6,5.8,7.2,9.4l0.6,1.4
				c0.2,0.5,0.3,0.9,0.5,1.4c0.3,0.9,0.6,1.9,0.8,2.8c0.2,0.9,0.3,1.9,0.4,2.9c0.1,1,0.1,1.9,0.2,2.9l-0.2,0
				c-0.2-3.8-1.2-7.6-2.9-11c-1.7-3.4-4.3-6.4-7.3-8.8c-6-4.7-13.7-7.2-21.3-7.4c-3.8-0.1-7.7,0.5-11.3,1.8c-1.8,0.7-3.5,1.6-5,2.7
				c-1.6,1.1-2.8,2.5-3.9,4.1c-2.2,3.1-4.3,6.4-5.8,9.9c-1.5,3.5-2.6,7.2-2.6,11.1c0,3.8,1,7.6,2.7,11c0.5,0.8,0.8,1.7,1.4,2.5
				l1.6,2.4c1.2,1.5,2.3,3.1,3.7,4.4c2.8,2.6,6.1,4.5,9.6,6.2c3.5,1.6,7.1,3,10.7,4.1c7.3,2.3,14.8,4,22.4,5.3
				c7.6,1.3,15.2,2.4,22.8,3.1L851.3,139.8z"/>
		</g>
	</g>
	<g class="st2">
		<g>
			<path class="st4" d="M665.2,98.4c0.7-1,0.9-2.2,1.3-3.3l0.4-1.8l0.3-1.8c0.3-2.4,0.5-4.8,0.5-7.2c0.1-4.8-0.3-9.7-1.2-14.4
				c-1.7-9.5-5.4-18.6-11-26.3c-2.8-3.9-6-7.5-9.7-10.5c-3.7-3-7.6-5.7-11.9-7.8c-8.5-4.4-17.9-6.8-27.3-8c-2.4-0.3-4.7-0.6-7.2-0.7
				c-2.4-0.1-4.8-0.4-7.2-0.3c-1.2,0-2.4,0-3.5,0l-3.5,0.3c-0.6,0.1-1.2,0.1-1.8,0.2l-1.7,0.3l-3.5,0.6c-9.2,2.2-18,6.1-25.6,11.7
				c-3.9,2.7-7.4,5.9-10.8,9.2c-1.6,1.8-3.3,3.4-4.8,5.3c-0.8,0.9-1.5,1.8-2.3,2.8l-2.1,2.9c-0.7,0.9-1.4,1.9-2,2.9
				c-0.6,1-1.3,2-1.9,3l-1.8,3.1c-0.3,0.5-0.6,1-0.9,1.5l-0.8,1.6l-1.6,3.2l-1.4,3.3l-0.7,1.6l-0.6,1.7l-1.3,3.3l-1.1,3.4l-0.5,1.7
				l-0.4,1.7l-0.9,3.5l-0.7,3.5l-0.3,1.7l-0.2,1.8c-0.1,1.2-0.3,2.3-0.4,3.5c-0.1,2.4-0.4,4.7-0.3,7.1c-0.1,9.5,1.8,18.9,5.7,27.4
				l1.6,3.1l0.4,0.8l0.5,0.7l0.9,1.5c1.2,2,2.6,3.9,4.1,5.8c2.9,3.7,6.1,7.2,9.8,10.1c3.7,2.9,7.8,4.9,12.3,6
				c2.2,0.6,4.6,0.9,6.9,1.1c2.3,0.2,4.7,0.2,7.1,0.2c9.6-0.3,19.2-1.6,29-2.5c4.9-0.5,9.7-0.9,14.6-1.2c4.9-0.3,9.9-0.3,14.8,0.3
				c4.9,0.6,9.7,1.6,14.4,3.1c4.7,1.5,9.2,3.4,13.6,5.6c4.4,2.2,8.5,4.8,12.8,7c2.1,1.1,4.3,2.2,6.6,2.9c1.1,0.4,2.3,0.5,3.5,0.6
				c1.2,0,2.4-0.2,3.5-0.6l0.1,0.2c-1.2,0.4-2.4,0.7-3.6,0.7c-1.2,0-2.5-0.2-3.6-0.5c-2.4-0.6-4.6-1.7-6.8-2.8
				c-4.3-2.2-8.5-4.7-12.9-6.8c-4.4-2.1-8.9-4-13.5-5.3c-4.7-1.4-9.4-2.3-14.3-2.8c-9.7-1-19.4,0.2-29.1,1.2l-14.5,1.6
				c-4.8,0.5-9.7,1-14.6,1.2c-2.4,0.1-4.9,0.1-7.3-0.1c-2.4-0.2-4.9-0.5-7.2-1.1c-4.7-1.2-9.3-3.3-13.1-6.3
				c-3.9-2.9-7.2-6.6-10.3-10.4c-1.5-1.9-3-3.9-4.3-5.9l-1-1.5l-0.5-0.8l-0.4-0.8l-1.7-3.2c-4.2-8.8-6.1-18.6-6.1-28.4
				c-0.1-2.4,0.2-4.9,0.3-7.3c0.1-1.2,0.3-2.4,0.4-3.6l0.2-1.8l0.3-1.8l0.7-3.6l0.9-3.5l0.4-1.8l0.5-1.7l1.1-3.5l1.3-3.4l0.6-1.7
				l0.7-1.7l1.5-3.3l1.7-3.3l0.8-1.6c0.3-0.5,0.6-1.1,0.9-1.6l1.8-3.2c0.7-1,1.3-2,2-3.1c0.7-1,1.3-2,2.1-3l2.2-2.9
				c0.8-1,1.6-1.9,2.3-2.8c1.5-1.9,3.3-3.6,4.9-5.4c3.5-3.4,7.1-6.7,11.1-9.5c7.9-5.8,17-9.8,26.5-12l3.6-0.6l1.8-0.3
				c0.6-0.1,1.2-0.1,1.8-0.2l3.6-0.3c1.2,0,2.4,0,3.7,0c2.4-0.1,4.9,0.2,7.3,0.4c2.4,0.1,4.8,0.5,7.3,0.8c9.6,1.4,19.2,3.9,27.8,8.5
				c4.4,2.2,8.4,5,12.1,8.1c3.7,3.1,7,6.8,9.8,10.8c5.6,8,9.1,17.4,10.7,27c0.8,4.8,1.1,9.7,0.9,14.6c-0.1,2.4-0.3,4.9-0.7,7.3
				l-0.3,1.8l-0.4,1.8c-0.4,1.2-0.6,2.4-1.4,3.4L665.2,98.4z"/>
		</g>
		<g>
			<path class="st4" d="M651.6,59.2c-1.5-2.4-3.4-4.5-5.4-6.5c-1-1-2.1-1.9-3.1-2.8c-1.1-0.9-2.2-1.7-3.4-2.5
				c-4.6-3.1-9.8-5.6-15.1-7.2l-1-0.3l-1-0.3l-2-0.5l-2-0.5c-0.7-0.2-1.4-0.2-2.1-0.4l-4.1-0.7l-4.2-0.3l-2.1-0.2
				c-0.7-0.1-1.4,0-2.1,0l-4.2,0c-2.8,0-5.5,0.3-8.2,0.8c-10.8,2.2-20.8,7.7-29.1,15C554.2,60,547.3,69,542.6,79
				c-2.4,5-4.2,10.2-4.9,15.6c-0.4,2.7-0.5,5.4-0.4,8c0.2,2.7,0.8,5.3,1.6,7.7c1,2.4,2.3,4.7,4,6.8c1.7,2.1,3.6,3.9,5.8,5.5
				c2.2,1.6,4.5,2.9,7,4c2.5,1.1,5.1,2,7.8,2.7c5.4,1.4,10.9,2.2,16.6,2.8c5.6,0.6,11.3,1,17,1.6c5.7,0.7,11.4,1.4,16.9,2.7
				c2.8,0.6,5.5,1.5,8.2,2.4c2.7,1,5.3,2.2,7.8,3.6l-0.1,0.2c-5.1-2.6-10.5-4.3-16.1-5.4c-5.6-1.2-11.2-1.8-16.9-2.2
				c-5.7-0.5-11.3-0.8-17-1.3c-5.7-0.5-11.3-1.2-16.9-2.5c-2.8-0.7-5.5-1.5-8.1-2.6c-2.6-1.1-5.1-2.5-7.5-4.2
				c-2.3-1.7-4.4-3.7-6.2-5.9c-1.8-2.2-3.3-4.7-4.4-7.4c-1-2.7-1.6-5.5-1.8-8.4c-0.2-2.9-0.1-5.7,0.3-8.6c0.8-5.7,2.6-11.1,5-16.3
				c4.9-10.3,12-19.5,20.7-27c4.3-3.7,9-7,14.1-9.6c5.1-2.6,10.5-4.6,16.1-5.6c2.8-0.4,5.7-0.7,8.5-0.7l4.3,0.1c0.7,0,1.4,0,2.1,0.1
				l2.1,0.2l4.3,0.4l4.2,0.8c0.7,0.1,1.4,0.2,2.1,0.4l2.1,0.6l2.1,0.6l1,0.3l1,0.4c5.4,1.8,10.6,4.4,15.2,7.7
				c1.1,0.9,2.3,1.7,3.3,2.7c1,1,2.1,1.9,3.1,3c2,2.1,3.8,4.3,5.2,6.8L651.6,59.2z"/>
		</g>
		<g>
			<path class="st4" d="M665,98.4c0.3-1.6,0-3.2-0.3-4.7c-0.4-1.5-0.9-3-1.5-4.5c-1.3-2.9-2.9-5.7-4.7-8.3c-1.7-2.6-3.7-5.1-5.8-7.5
				c-2.1-2.4-4.3-4.6-6.8-6.6c-4.8-4-10.1-7.5-15.9-9.4c-2.9-0.9-5.9-1.6-8.9-1.7c-3-0.1-6,0.2-8.9,1.1c-5.8,1.6-11.1,4.9-15.7,9.1
				c-4.6,4.2-8.2,9.3-10.4,15c-1.1,2.9-1.7,5.9-1.9,9c-0.2,3.1,0.1,6.2,0.7,9.3c1.1,6.2,3.7,12.2,7.1,17.6l-0.2,0.2
				c-2-2.6-3.6-5.4-4.9-8.3c-1.4-2.9-2.5-6-3.2-9.1c-1.5-6.3-1.4-13,0.6-19.2c2-6.2,6-11.6,10.6-16c4.7-4.4,10.3-8.1,16.5-9.9
				c3.1-0.9,6.4-1.2,9.6-1.1c3.3,0.1,6.4,0.9,9.5,1.9c3.1,1,6,2.5,8.7,4.2c2.8,1.7,5.3,3.7,7.7,5.8c2.4,2.1,4.7,4.5,6.7,7
				c2.1,2.5,4,5.1,5.7,7.9c1.7,2.8,3.2,5.6,4.3,8.7c1.1,3,2,6.3,1.3,9.5L665,98.4z"/>
		</g>
		<g>
			<path class="st4" d="M679.7,139.8c-3.9-0.1-7.7-0.4-11.5-0.7c-3.8-0.4-7.7-0.8-11.5-1.3c-7.6-1.2-15.3-2.6-22.8-4.8
				c-3.8-1.1-7.5-2.3-11.1-4c-3.6-1.7-7.1-3.7-10.2-6.5c-1.6-1.5-2.7-3.1-4-4.7l-1.7-2.5c-0.6-0.8-1-1.8-1.5-2.7
				c-1.8-3.7-3-7.8-3-12.1c0-4.2,1.2-8.3,2.9-12c1.7-3.7,3.9-7,6.2-10.2c0.5-0.8,1.3-1.7,2-2.4l1.2-1.1l1.3-1
				c1.7-1.2,3.6-2.2,5.6-2.9c2-0.7,4-1.2,6-1.4c2-0.2,4.1-0.3,6.1-0.2c8,0.4,15.9,3.2,22.1,8.3c3,2.6,5.6,5.8,7.2,9.4l0.6,1.4
				c0.2,0.5,0.3,0.9,0.5,1.4c0.3,0.9,0.6,1.9,0.8,2.8c0.2,0.9,0.3,1.9,0.4,2.9c0.1,1,0.1,1.9,0.2,2.9l-0.2,0
				c-0.2-3.8-1.2-7.6-2.9-11c-1.7-3.4-4.3-6.4-7.3-8.8c-6-4.7-13.7-7.2-21.3-7.4c-3.8-0.1-7.7,0.5-11.3,1.8c-1.8,0.7-3.5,1.6-5,2.7
				c-1.6,1.1-2.8,2.5-3.9,4.1c-2.2,3.1-4.3,6.4-5.8,9.9c-1.5,3.5-2.6,7.2-2.6,11.1c0,3.8,1,7.6,2.7,11c0.5,0.8,0.8,1.7,1.4,2.5
				l1.6,2.4c1.2,1.5,2.3,3.1,3.7,4.4c2.8,2.6,6.1,4.5,9.6,6.2c3.5,1.6,7.1,3,10.7,4.1c7.3,2.3,14.8,4,22.4,5.3
				c7.6,1.3,15.2,2.4,22.8,3.1L679.7,139.8z"/>
		</g>
	</g>
	<g class="st2">
		<g>
			<path class="st4" d="M495,98.4c0.7-1,0.9-2.2,1.3-3.3l0.4-1.8l0.3-1.8c0.3-2.4,0.5-4.8,0.5-7.2c0.1-4.8-0.3-9.7-1.2-14.4
				c-1.7-9.5-5.4-18.6-11-26.3c-2.8-3.9-6-7.5-9.7-10.5c-3.7-3-7.6-5.7-11.9-7.8c-8.5-4.4-17.9-6.8-27.3-8c-2.4-0.3-4.7-0.6-7.2-0.7
				c-2.4-0.1-4.8-0.4-7.2-0.3c-1.2,0-2.4,0-3.5,0l-3.5,0.3c-0.6,0.1-1.2,0.1-1.8,0.2l-1.7,0.3l-3.5,0.6c-9.2,2.2-18,6.1-25.6,11.7
				c-3.9,2.7-7.4,5.9-10.8,9.2c-1.6,1.8-3.3,3.4-4.8,5.3c-0.8,0.9-1.5,1.8-2.3,2.8l-2.1,2.9c-0.7,0.9-1.4,1.9-2,2.9
				c-0.6,1-1.3,2-1.9,3l-1.8,3.1c-0.3,0.5-0.6,1-0.9,1.5l-0.8,1.6l-1.6,3.2l-1.4,3.3l-0.7,1.6l-0.6,1.7l-1.3,3.3l-1.1,3.4l-0.5,1.7
				l-0.4,1.7l-0.9,3.5l-0.7,3.5l-0.3,1.7l-0.2,1.8c-0.1,1.2-0.3,2.3-0.4,3.5c-0.1,2.4-0.4,4.7-0.3,7.1c-0.1,9.5,1.8,18.9,5.7,27.4
				l1.6,3.1l0.4,0.8l0.5,0.7l0.9,1.5c1.2,2,2.6,3.9,4.1,5.8c2.9,3.7,6.1,7.2,9.8,10.1c3.7,2.9,7.8,4.9,12.3,6
				c2.2,0.6,4.6,0.9,6.9,1.1c2.3,0.2,4.7,0.2,7.1,0.2c9.6-0.3,19.2-1.6,29-2.5c4.9-0.5,9.7-0.9,14.6-1.2c4.9-0.3,9.9-0.3,14.8,0.3
				c4.9,0.6,9.7,1.6,14.4,3.1c4.7,1.5,9.2,3.4,13.6,5.6c4.4,2.2,8.5,4.8,12.8,7c2.1,1.1,4.3,2.2,6.6,2.9c1.1,0.4,2.3,0.5,3.5,0.6
				c1.2,0,2.4-0.2,3.5-0.6l0.1,0.2c-1.2,0.4-2.4,0.7-3.6,0.7c-1.2,0-2.5-0.2-3.6-0.5c-2.4-0.6-4.6-1.7-6.8-2.8
				c-4.3-2.2-8.5-4.7-12.9-6.8c-4.4-2.1-8.9-4-13.5-5.3c-4.7-1.4-9.4-2.3-14.3-2.8c-9.7-1-19.4,0.2-29.1,1.2l-14.5,1.6
				c-4.8,0.5-9.7,1-14.6,1.2c-2.4,0.1-4.9,0.1-7.3-0.1c-2.4-0.2-4.9-0.5-7.2-1.1c-4.7-1.2-9.3-3.3-13.1-6.3
				c-3.9-2.9-7.2-6.6-10.3-10.4c-1.5-1.9-3-3.9-4.3-5.9l-1-1.5l-0.5-0.8l-0.4-0.8l-1.7-3.2c-4.2-8.8-6.1-18.6-6.1-28.4
				c-0.1-2.4,0.2-4.9,0.3-7.3c0.1-1.2,0.3-2.4,0.4-3.6l0.2-1.8l0.3-1.8l0.7-3.6l0.9-3.5l0.4-1.8l0.5-1.7l1.1-3.5l1.3-3.4l0.6-1.7
				l0.7-1.7l1.5-3.3l1.7-3.3l0.8-1.6c0.3-0.5,0.6-1.1,0.9-1.6l1.8-3.2c0.7-1,1.3-2,2-3.1c0.7-1,1.3-2,2.1-3l2.2-2.9
				c0.8-1,1.6-1.9,2.3-2.8c1.5-1.9,3.3-3.6,4.9-5.4c3.5-3.4,7.1-6.7,11.1-9.5c7.9-5.8,17-9.8,26.5-12l3.6-0.6l1.8-0.3
				c0.6-0.1,1.2-0.1,1.8-0.2l3.6-0.3c1.2,0,2.4,0,3.7,0c2.4-0.1,4.9,0.2,7.3,0.4c2.4,0.1,4.8,0.5,7.3,0.8c9.6,1.4,19.2,3.9,27.8,8.5
				c4.4,2.2,8.4,5,12.1,8.1c3.7,3.1,7,6.8,9.8,10.8c5.6,8,9.1,17.4,10.7,27c0.8,4.8,1.1,9.7,0.9,14.6c-0.1,2.4-0.3,4.9-0.7,7.3
				l-0.3,1.8l-0.4,1.8c-0.4,1.2-0.6,2.4-1.4,3.4L495,98.4z"/>
		</g>
		<g>
			<path class="st4" d="M481.5,59.2c-1.5-2.4-3.4-4.5-5.4-6.5c-1-1-2.1-1.9-3.1-2.8c-1.1-0.9-2.2-1.7-3.4-2.5
				c-4.6-3.1-9.8-5.6-15.1-7.2l-1-0.3l-1-0.3l-2-0.5l-2-0.5c-0.7-0.2-1.4-0.2-2.1-0.4l-4.1-0.7l-4.2-0.3l-2.1-0.2
				c-0.7-0.1-1.4,0-2.1,0l-4.2,0c-2.8,0-5.5,0.3-8.2,0.8c-10.8,2.2-20.8,7.7-29.1,15C384,60,377.1,69,372.5,79
				c-2.4,5-4.2,10.2-4.9,15.6c-0.4,2.7-0.5,5.4-0.4,8c0.2,2.7,0.8,5.3,1.6,7.7c1,2.4,2.3,4.7,4,6.8c1.7,2.1,3.6,3.9,5.8,5.5
				c2.2,1.6,4.5,2.9,7,4c2.5,1.1,5.1,2,7.8,2.7c5.4,1.4,10.9,2.2,16.6,2.8c5.6,0.6,11.3,1,17,1.6c5.7,0.7,11.4,1.4,16.9,2.7
				c2.8,0.6,5.5,1.5,8.2,2.4c2.7,1,5.3,2.2,7.8,3.6l-0.1,0.2c-5.1-2.6-10.5-4.3-16.1-5.4c-5.6-1.2-11.2-1.8-16.9-2.2
				c-5.7-0.5-11.3-0.8-17-1.3c-5.7-0.5-11.3-1.2-16.9-2.5c-2.8-0.7-5.5-1.5-8.1-2.6c-2.6-1.1-5.1-2.5-7.5-4.2
				c-2.3-1.7-4.4-3.7-6.2-5.9c-1.8-2.2-3.3-4.7-4.4-7.4c-1-2.7-1.6-5.5-1.8-8.4c-0.2-2.9-0.1-5.7,0.3-8.6c0.8-5.7,2.6-11.1,5-16.3
				c4.9-10.3,12-19.5,20.7-27c4.3-3.7,9-7,14.1-9.6c5.1-2.6,10.5-4.6,16.1-5.6c2.8-0.4,5.7-0.7,8.5-0.7l4.3,0.1c0.7,0,1.4,0,2.1,0.1
				l2.1,0.2l4.3,0.4l4.2,0.8c0.7,0.1,1.4,0.2,2.1,0.4l2.1,0.6l2.1,0.6l1,0.3l1,0.4c5.4,1.8,10.6,4.4,15.2,7.7
				c1.1,0.9,2.3,1.7,3.3,2.7c1,1,2.1,1.9,3.1,3c2,2.1,3.8,4.3,5.2,6.8L481.5,59.2z"/>
		</g>
		<g>
			<path class="st4" d="M494.8,98.4c0.3-1.6,0-3.2-0.3-4.7c-0.4-1.5-0.9-3-1.5-4.5c-1.3-2.9-2.9-5.7-4.7-8.3
				c-1.7-2.6-3.7-5.1-5.8-7.5c-2.1-2.4-4.3-4.6-6.8-6.6c-4.8-4-10.1-7.5-15.9-9.4c-2.9-0.9-5.9-1.6-8.9-1.7c-3-0.1-6,0.2-8.9,1.1
				c-5.8,1.6-11.1,4.9-15.7,9.1c-4.6,4.2-8.2,9.3-10.4,15c-1.1,2.9-1.7,5.9-1.9,9c-0.2,3.1,0.1,6.2,0.7,9.3
				c1.1,6.2,3.7,12.2,7.1,17.6l-0.2,0.2c-2-2.6-3.6-5.4-4.9-8.3c-1.4-2.9-2.5-6-3.2-9.1c-1.5-6.3-1.4-13,0.6-19.2
				c2-6.2,6-11.6,10.6-16c4.7-4.4,10.3-8.1,16.5-9.9c3.1-0.9,6.4-1.2,9.6-1.1c3.3,0.1,6.4,0.9,9.5,1.9c3.1,1,6,2.5,8.7,4.2
				c2.8,1.7,5.3,3.7,7.7,5.8c2.4,2.1,4.7,4.5,6.7,7c2.1,2.5,4,5.1,5.7,7.9c1.7,2.8,3.2,5.6,4.3,8.7c1.1,3,2,6.3,1.3,9.5L494.8,98.4z
				"/>
		</g>
		<g>
			<path class="st4" d="M509.5,139.8c-3.9-0.1-7.7-0.4-11.5-0.7c-3.8-0.4-7.7-0.8-11.5-1.3c-7.6-1.2-15.3-2.6-22.8-4.8
				c-3.8-1.1-7.5-2.3-11.1-4c-3.6-1.7-7.1-3.7-10.2-6.5c-1.6-1.5-2.7-3.1-4-4.7l-1.7-2.5c-0.6-0.8-1-1.8-1.5-2.7
				c-1.8-3.7-3-7.8-3-12.1c0-4.2,1.2-8.3,2.9-12c1.7-3.7,3.9-7,6.2-10.2c0.5-0.8,1.3-1.7,2-2.4l1.2-1.1l1.3-1
				c1.7-1.2,3.6-2.2,5.6-2.9c2-0.7,4-1.2,6-1.4c2-0.2,4.1-0.3,6.1-0.2c8,0.4,15.9,3.2,22.1,8.3c3,2.6,5.6,5.8,7.2,9.4l0.6,1.4
				c0.2,0.5,0.3,0.9,0.5,1.4c0.3,0.9,0.6,1.9,0.8,2.8c0.2,0.9,0.3,1.9,0.4,2.9c0.1,1,0.1,1.9,0.2,2.9l-0.2,0
				c-0.2-3.8-1.2-7.6-2.9-11c-1.7-3.4-4.3-6.4-7.3-8.8c-6-4.7-13.7-7.2-21.3-7.4c-3.8-0.1-7.7,0.5-11.3,1.8c-1.8,0.7-3.5,1.6-5,2.7
				c-1.6,1.1-2.8,2.5-3.9,4.1c-2.2,3.1-4.3,6.4-5.8,9.9c-1.5,3.5-2.6,7.2-2.6,11.1c0,3.8,1,7.6,2.7,11c0.5,0.8,0.8,1.7,1.4,2.5
				l1.6,2.4c1.2,1.5,2.3,3.1,3.7,4.4c2.8,2.6,6.1,4.5,9.6,6.2c3.5,1.6,7.1,3,10.7,4.1c7.3,2.3,14.8,4,22.4,5.3
				c7.6,1.3,15.2,2.4,22.8,3.1L509.5,139.8z"/>
		</g>
	</g>
	<path class="st1" d="M349.6,139c0,0-101.6,0.4-91.5-44c10.7-46.7,61.7-18.8,59.6,2.3c0,0,18-51.9-38.3-76.4
		C203.9-12,126.5,81.3,183.6,148.7C248.4,225.3,349.6,139,349.6,139z"/>
	<path class="st1" d="M178,140.7c0,0-101.6,0.4-91.5-44C97.2,50,148.2,77.9,146.1,99c0,0,18-51.9-38.3-76.4
		C32.3-10.3-45.1,83,12,150.4C76.8,227,178,140.7,178,140.7z"/>
	
		<rect x="-136" y="-50.7" transform="matrix(1 -3.209909e-03 3.209909e-03 1 -0.2776 1.7012)" class="st5" width="1331.7" height="276"/>
	<g class="st2">
		<g>
			<path class="st4" d="M317.1,98.4c0.7-1,0.9-2.2,1.3-3.3l0.4-1.8l0.3-1.8c0.3-2.4,0.5-4.8,0.5-7.2c0.1-4.8-0.3-9.7-1.2-14.4
				c-1.7-9.5-5.4-18.6-11-26.3c-2.8-3.9-6-7.5-9.7-10.5c-3.7-3-7.6-5.7-11.9-7.8c-8.5-4.4-17.9-6.8-27.3-8c-2.4-0.3-4.7-0.6-7.2-0.7
				c-2.4-0.1-4.8-0.4-7.2-0.3c-1.2,0-2.4,0-3.5,0l-3.5,0.3c-0.6,0.1-1.2,0.1-1.8,0.2l-1.7,0.3l-3.5,0.6c-9.2,2.2-18,6.1-25.6,11.7
				c-3.9,2.7-7.4,5.9-10.8,9.2c-1.6,1.8-3.3,3.4-4.8,5.3c-0.8,0.9-1.5,1.8-2.3,2.8l-2.1,2.9c-0.7,0.9-1.4,1.9-2,2.9
				c-0.6,1-1.3,2-1.9,3l-1.8,3.1c-0.3,0.5-0.6,1-0.9,1.5l-0.8,1.6l-1.6,3.2l-1.4,3.3l-0.7,1.6l-0.6,1.7l-1.3,3.3l-1.1,3.4l-0.5,1.7
				l-0.4,1.7l-0.9,3.5l-0.7,3.5l-0.3,1.7l-0.2,1.8c-0.1,1.2-0.3,2.3-0.4,3.5c-0.1,2.4-0.4,4.7-0.3,7.1c-0.1,9.5,1.8,18.9,5.7,27.4
				l1.6,3.1l0.4,0.8l0.5,0.7l0.9,1.5c1.2,2,2.6,3.9,4.1,5.8c2.9,3.7,6.1,7.2,9.8,10.1c3.7,2.9,7.8,4.9,12.3,6
				c2.2,0.6,4.6,0.9,6.9,1.1c2.3,0.2,4.7,0.2,7.1,0.2c9.6-0.3,19.2-1.6,29-2.5c4.9-0.5,9.7-0.9,14.6-1.2c4.9-0.3,9.9-0.3,14.8,0.3
				c4.9,0.6,9.7,1.6,14.4,3.1c4.7,1.5,9.2,3.4,13.6,5.6c4.4,2.2,8.5,4.8,12.8,7c2.1,1.1,4.3,2.2,6.6,2.9c1.1,0.4,2.3,0.5,3.5,0.6
				c1.2,0,2.4-0.2,3.5-0.6l0.1,0.2c-1.2,0.4-2.4,0.7-3.6,0.7c-1.2,0-2.5-0.2-3.6-0.5c-2.4-0.6-4.6-1.7-6.8-2.8
				c-4.3-2.2-8.5-4.7-12.9-6.8c-4.4-2.1-8.9-4-13.5-5.3c-4.7-1.4-9.4-2.3-14.3-2.8c-9.7-1-19.4,0.2-29.1,1.2l-14.5,1.6
				c-4.8,0.5-9.7,1-14.6,1.2c-2.4,0.1-4.9,0.1-7.3-0.1c-2.4-0.2-4.9-0.5-7.2-1.1c-4.7-1.2-9.3-3.3-13.1-6.3
				c-3.9-2.9-7.2-6.6-10.3-10.4c-1.5-1.9-3-3.9-4.3-5.9l-1-1.5l-0.5-0.8l-0.4-0.8l-1.7-3.2c-4.2-8.8-6.1-18.6-6.1-28.4
				c-0.1-2.4,0.2-4.9,0.3-7.3c0.1-1.2,0.3-2.4,0.4-3.6l0.2-1.8l0.3-1.8l0.7-3.6l0.9-3.5l0.4-1.8l0.5-1.7l1.1-3.5l1.3-3.4l0.6-1.7
				l0.7-1.7l1.5-3.3l1.7-3.3l0.8-1.6c0.3-0.5,0.6-1.1,0.9-1.6l1.8-3.2c0.7-1,1.3-2,2-3.1c0.7-1,1.3-2,2.1-3l2.2-2.9
				c0.8-1,1.6-1.9,2.3-2.8c1.5-1.9,3.3-3.6,4.9-5.4c3.5-3.4,7.1-6.7,11.1-9.5c7.9-5.8,17-9.8,26.5-12l3.6-0.6l1.8-0.3
				c0.6-0.1,1.2-0.1,1.8-0.2l3.6-0.3c1.2,0,2.4,0,3.7,0c2.4-0.1,4.9,0.2,7.3,0.4c2.4,0.1,4.8,0.5,7.3,0.8c9.6,1.4,19.2,3.9,27.8,8.5
				c4.4,2.2,8.4,5,12.1,8.1c3.7,3.1,7,6.8,9.8,10.8c5.6,8,9.1,17.4,10.7,27c0.8,4.8,1.1,9.7,0.9,14.6c-0.1,2.4-0.3,4.9-0.7,7.3
				l-0.3,1.8l-0.4,1.8c-0.4,1.2-0.6,2.4-1.4,3.4L317.1,98.4z"/>
		</g>
		<g>
			<path class="st4" d="M303.5,59.2c-1.5-2.4-3.4-4.5-5.4-6.5c-1-1-2.1-1.9-3.1-2.8c-1.1-0.9-2.2-1.7-3.4-2.5
				c-4.6-3.1-9.8-5.6-15.1-7.2l-1-0.3l-1-0.3l-2-0.5l-2-0.5c-0.7-0.2-1.4-0.2-2.1-0.4l-4.1-0.7l-4.2-0.3l-2.1-0.2
				c-0.7-0.1-1.4,0-2.1,0l-4.2,0c-2.8,0-5.5,0.3-8.2,0.8c-10.8,2.2-20.8,7.7-29.1,15C206.1,60,199.2,69,194.5,79
				c-2.4,5-4.2,10.2-4.9,15.6c-0.4,2.7-0.5,5.4-0.4,8c0.2,2.7,0.8,5.3,1.6,7.7c1,2.4,2.3,4.7,4,6.8c1.7,2.1,3.6,3.9,5.8,5.5
				c2.2,1.6,4.5,2.9,7,4c2.5,1.1,5.1,2,7.8,2.7c5.4,1.4,10.9,2.2,16.6,2.8c5.6,0.6,11.3,1,17,1.6c5.7,0.7,11.4,1.4,16.9,2.7
				c2.8,0.6,5.5,1.5,8.2,2.4c2.7,1,5.3,2.2,7.8,3.6l-0.1,0.2c-5.1-2.6-10.5-4.3-16.1-5.4c-5.6-1.2-11.2-1.8-16.9-2.2
				c-5.7-0.5-11.3-0.8-17-1.3c-5.7-0.5-11.3-1.2-16.9-2.5c-2.8-0.7-5.5-1.5-8.1-2.6c-2.6-1.1-5.1-2.5-7.5-4.2
				c-2.3-1.7-4.4-3.7-6.2-5.9c-1.8-2.2-3.3-4.7-4.4-7.4c-1-2.7-1.6-5.5-1.8-8.4c-0.2-2.9-0.1-5.7,0.3-8.6c0.8-5.7,2.6-11.1,5-16.3
				c4.9-10.3,12-19.5,20.7-27c4.3-3.7,9-7,14.1-9.6c5.1-2.6,10.5-4.6,16.1-5.6c2.8-0.4,5.7-0.7,8.5-0.7l4.3,0.1c0.7,0,1.4,0,2.1,0.1
				l2.1,0.2l4.3,0.4l4.2,0.8c0.7,0.1,1.4,0.2,2.1,0.4l2.1,0.6l2.1,0.6l1,0.3l1,0.4c5.4,1.8,10.6,4.4,15.2,7.7
				c1.1,0.9,2.3,1.7,3.3,2.7c1,1,2.1,1.9,3.1,3c2,2.1,3.8,4.3,5.2,6.8L303.5,59.2z"/>
		</g>
		<g>
			<path class="st4" d="M316.8,98.4c0.3-1.6,0-3.2-0.3-4.7c-0.4-1.5-0.9-3-1.5-4.5c-1.3-2.9-2.9-5.7-4.7-8.3
				c-1.7-2.6-3.7-5.1-5.8-7.5c-2.1-2.4-4.3-4.6-6.8-6.6c-4.8-4-10.1-7.5-15.9-9.4c-2.9-0.9-5.9-1.6-8.9-1.7c-3-0.1-6,0.2-8.9,1.1
				c-5.8,1.6-11.1,4.9-15.7,9.1c-4.6,4.2-8.2,9.3-10.4,15c-1.1,2.9-1.7,5.9-1.9,9c-0.2,3.1,0.1,6.2,0.7,9.3
				c1.1,6.2,3.7,12.2,7.1,17.6l-0.2,0.2c-2-2.6-3.6-5.4-4.9-8.3c-1.4-2.9-2.5-6-3.2-9.1c-1.5-6.3-1.4-13,0.6-19.2
				c2-6.2,6-11.6,10.6-16c4.7-4.4,10.3-8.1,16.5-9.9c3.1-0.9,6.4-1.2,9.6-1.1c3.3,0.1,6.4,0.9,9.5,1.9c3.1,1,6,2.5,8.7,4.2
				c2.8,1.7,5.3,3.7,7.7,5.8c2.4,2.1,4.7,4.5,6.7,7c2.1,2.5,4,5.1,5.7,7.9c1.7,2.8,3.2,5.6,4.3,8.7c1.1,3,2,6.3,1.3,9.5L316.8,98.4z
				"/>
		</g>
		<g>
			<path class="st4" d="M331.6,139.8c-3.9-0.1-7.7-0.4-11.5-0.7c-3.8-0.4-7.7-0.8-11.5-1.3c-7.6-1.2-15.3-2.6-22.8-4.8
				c-3.8-1.1-7.5-2.3-11.1-4c-3.6-1.7-7.1-3.7-10.2-6.5c-1.6-1.5-2.7-3.1-4-4.7l-1.7-2.5c-0.6-0.8-1-1.8-1.5-2.7
				c-1.8-3.7-3-7.8-3-12.1c0-4.2,1.2-8.3,2.9-12c1.7-3.7,3.9-7,6.2-10.2c0.5-0.8,1.3-1.7,2-2.4l1.2-1.1l1.3-1
				c1.7-1.2,3.6-2.2,5.6-2.9c2-0.7,4-1.2,6-1.4c2-0.2,4.1-0.3,6.1-0.2c8,0.4,15.9,3.2,22.1,8.3c3,2.6,5.6,5.8,7.2,9.4l0.6,1.4
				c0.2,0.5,0.3,0.9,0.5,1.4c0.3,0.9,0.6,1.9,0.8,2.8c0.2,0.9,0.3,1.9,0.4,2.9c0.1,1,0.1,1.9,0.2,2.9l-0.2,0
				c-0.2-3.8-1.2-7.6-2.9-11c-1.7-3.4-4.3-6.4-7.3-8.8c-6-4.7-13.7-7.2-21.3-7.4c-3.8-0.1-7.7,0.5-11.3,1.8c-1.8,0.7-3.5,1.6-5,2.7
				c-1.6,1.1-2.8,2.5-3.9,4.1c-2.2,3.1-4.3,6.4-5.8,9.9c-1.5,3.5-2.6,7.2-2.6,11.1c0,3.8,1,7.6,2.7,11c0.5,0.8,0.8,1.7,1.4,2.5
				l1.6,2.4c1.2,1.5,2.3,3.1,3.7,4.4c2.8,2.6,6.1,4.5,9.6,6.2c3.5,1.6,7.1,3,10.7,4.1c7.3,2.3,14.8,4,22.4,5.3
				c7.6,1.3,15.2,2.4,22.8,3.1L331.6,139.8z"/>
		</g>
	</g>
	<g class="st2">
		<g>
			<path class="st4" d="M146.9,98.4c0.7-1,0.9-2.2,1.3-3.3l0.4-1.8l0.3-1.8c0.3-2.4,0.5-4.8,0.5-7.2c0.1-4.8-0.3-9.7-1.2-14.4
				c-1.7-9.5-5.4-18.6-11-26.3c-2.8-3.9-6-7.5-9.7-10.5c-3.7-3-7.6-5.7-11.9-7.8c-8.5-4.4-17.9-6.8-27.3-8c-2.4-0.3-4.7-0.6-7.2-0.7
				c-2.4-0.1-4.8-0.4-7.2-0.3c-1.2,0-2.4,0-3.5,0l-3.5,0.3c-0.6,0.1-1.2,0.1-1.8,0.2L63.4,17l-3.5,0.6c-9.2,2.2-18,6.1-25.6,11.7
				c-3.9,2.7-7.4,5.9-10.8,9.2c-1.6,1.8-3.3,3.4-4.8,5.3c-0.8,0.9-1.5,1.8-2.3,2.8l-2.1,2.9c-0.7,0.9-1.4,1.9-2,2.9
				c-0.6,1-1.3,2-1.9,3l-1.8,3.1C8.3,59,8,59.5,7.7,60l-0.8,1.6l-1.6,3.2l-1.4,3.3l-0.7,1.6l-0.6,1.7l-1.3,3.3l-1.1,3.4l-0.5,1.7
				l-0.4,1.7L-1.7,85l-0.7,3.5l-0.3,1.7L-3,92c-0.1,1.2-0.3,2.3-0.4,3.5c-0.1,2.4-0.4,4.7-0.3,7.1C-3.9,112.1-2,121.5,2,130l1.6,3.1
				L4,134l0.5,0.7l0.9,1.5c1.2,2,2.6,3.9,4.1,5.8c2.9,3.7,6.1,7.2,9.8,10.1c3.7,2.9,7.8,4.9,12.3,6c2.2,0.6,4.6,0.9,6.9,1.1
				c2.3,0.2,4.7,0.2,7.1,0.2c9.6-0.3,19.2-1.6,29-2.5c4.9-0.5,9.7-0.9,14.6-1.2c4.9-0.3,9.9-0.3,14.8,0.3c4.9,0.6,9.7,1.6,14.4,3.1
				c4.7,1.5,9.2,3.4,13.6,5.6c4.4,2.2,8.5,4.8,12.8,7c2.1,1.1,4.3,2.2,6.6,2.9c1.1,0.4,2.3,0.5,3.5,0.6c1.2,0,2.4-0.2,3.5-0.6
				l0.1,0.2c-1.2,0.4-2.4,0.7-3.6,0.7c-1.2,0-2.5-0.2-3.6-0.5c-2.4-0.6-4.6-1.7-6.8-2.8c-4.3-2.2-8.5-4.7-12.9-6.8
				c-4.4-2.1-8.9-4-13.5-5.3c-4.7-1.4-9.4-2.3-14.3-2.8c-9.7-1-19.4,0.2-29.1,1.2l-14.5,1.6c-4.8,0.5-9.7,1-14.6,1.2
				c-2.4,0.1-4.9,0.1-7.3-0.1c-2.4-0.2-4.9-0.5-7.2-1.1c-4.7-1.2-9.3-3.3-13.1-6.3c-3.9-2.9-7.2-6.6-10.3-10.4
				c-1.5-1.9-3-3.9-4.3-5.9l-1-1.5l-0.5-0.8l-0.4-0.8L0,131c-4.2-8.8-6.1-18.6-6.1-28.4c-0.1-2.4,0.2-4.9,0.3-7.3
				c0.1-1.2,0.3-2.4,0.4-3.6l0.2-1.8l0.3-1.8l0.7-3.6l0.9-3.5l0.4-1.8l0.5-1.7l1.1-3.5l1.3-3.4l0.6-1.7l0.7-1.7L3,63.8l1.7-3.3
				l0.8-1.6c0.3-0.5,0.6-1.1,0.9-1.6l1.8-3.2c0.7-1,1.3-2,2-3.1c0.7-1,1.3-2,2.1-3l2.2-2.9c0.8-1,1.6-1.9,2.3-2.8
				c1.5-1.9,3.3-3.6,4.9-5.4c3.5-3.4,7.1-6.7,11.1-9.5c7.9-5.8,17-9.8,26.5-12l3.6-0.6l1.8-0.3c0.6-0.1,1.2-0.1,1.8-0.2l3.6-0.3
				c1.2,0,2.4,0,3.7,0c2.4-0.1,4.9,0.2,7.3,0.4c2.4,0.1,4.8,0.5,7.3,0.8c9.6,1.4,19.2,3.9,27.8,8.5c4.4,2.2,8.4,5,12.1,8.1
				c3.7,3.1,7,6.8,9.8,10.8c5.6,8,9.1,17.4,10.7,27c0.8,4.8,1.1,9.7,0.9,14.6c-0.1,2.4-0.3,4.9-0.7,7.3l-0.3,1.8l-0.4,1.8
				c-0.4,1.2-0.6,2.4-1.4,3.4L146.9,98.4z"/>
		</g>
		<g>
			<path class="st4" d="M133.3,59.2c-1.5-2.4-3.4-4.5-5.4-6.5c-1-1-2.1-1.9-3.1-2.8c-1.1-0.9-2.2-1.7-3.4-2.5
				c-4.6-3.1-9.8-5.6-15.1-7.2l-1-0.3l-1-0.3l-2-0.5l-2-0.5c-0.7-0.2-1.4-0.2-2.1-0.4l-4.1-0.7l-4.2-0.3l-2.1-0.2
				c-0.7-0.1-1.4,0-2.1,0l-4.2,0c-2.8,0-5.5,0.3-8.2,0.8c-10.8,2.2-20.8,7.7-29.1,15C35.9,60,29,69,24.3,79
				c-2.4,5-4.2,10.2-4.9,15.6c-0.4,2.7-0.5,5.4-0.4,8c0.2,2.7,0.8,5.3,1.6,7.7c1,2.4,2.3,4.7,4,6.8c1.7,2.1,3.6,3.9,5.8,5.5
				c2.2,1.6,4.5,2.9,7,4c2.5,1.1,5.1,2,7.8,2.7c5.4,1.4,10.9,2.2,16.6,2.8c5.6,0.6,11.3,1,17,1.6c5.7,0.7,11.4,1.4,16.9,2.7
				c2.8,0.6,5.5,1.5,8.2,2.4c2.7,1,5.3,2.2,7.8,3.6l-0.1,0.2c-5.1-2.6-10.5-4.3-16.1-5.4c-5.6-1.2-11.2-1.8-16.9-2.2
				c-5.7-0.5-11.3-0.8-17-1.3c-5.7-0.5-11.3-1.2-16.9-2.5c-2.8-0.7-5.5-1.5-8.1-2.6c-2.6-1.1-5.1-2.5-7.5-4.2
				c-2.3-1.7-4.4-3.7-6.2-5.9c-1.8-2.2-3.3-4.7-4.4-7.4c-1-2.7-1.6-5.5-1.8-8.4c-0.2-2.9-0.1-5.7,0.3-8.6c0.8-5.7,2.6-11.1,5-16.3
				c4.9-10.3,12-19.5,20.7-27c4.3-3.7,9-7,14.1-9.6c5.1-2.6,10.5-4.6,16.1-5.6c2.8-0.4,5.7-0.7,8.5-0.7l4.3,0.1c0.7,0,1.4,0,2.1,0.1
				l2.1,0.2l4.3,0.4l4.2,0.8c0.7,0.1,1.4,0.2,2.1,0.4l2.1,0.6l2.1,0.6l1,0.3l1,0.4c5.4,1.8,10.6,4.4,15.2,7.7
				c1.1,0.9,2.3,1.7,3.3,2.7c1,1,2.1,1.9,3.1,3c2,2.1,3.8,4.3,5.2,6.8L133.3,59.2z"/>
		</g>
		<g>
			<path class="st4" d="M146.7,98.4c0.3-1.6,0-3.2-0.3-4.7c-0.4-1.5-0.9-3-1.5-4.5c-1.3-2.9-2.9-5.7-4.7-8.3
				c-1.7-2.6-3.7-5.1-5.8-7.5c-2.1-2.4-4.3-4.6-6.8-6.6c-4.8-4-10.1-7.5-15.9-9.4c-2.9-0.9-5.9-1.6-8.9-1.7c-3-0.1-6,0.2-8.9,1.1
				c-5.8,1.6-11.1,4.9-15.7,9.1c-4.6,4.2-8.2,9.3-10.4,15c-1.1,2.9-1.7,5.9-1.9,9c-0.2,3.1,0.1,6.2,0.7,9.3
				c1.1,6.2,3.7,12.2,7.1,17.6l-0.2,0.2c-2-2.6-3.6-5.4-4.9-8.3c-1.4-2.9-2.5-6-3.2-9.1c-1.5-6.3-1.4-13,0.6-19.2
				c2-6.2,6-11.6,10.6-16c4.7-4.4,10.3-8.1,16.5-9.9c3.1-0.9,6.4-1.2,9.6-1.1c3.3,0.1,6.4,0.9,9.5,1.9c3.1,1,6,2.5,8.7,4.2
				c2.8,1.7,5.3,3.7,7.7,5.8c2.4,2.1,4.7,4.5,6.7,7c2.1,2.5,4,5.1,5.7,7.9c1.7,2.8,3.2,5.6,4.3,8.7c1.1,3,2,6.3,1.3,9.5L146.7,98.4z
				"/>
		</g>
		<g>
			<path class="st4" d="M161.4,139.8c-3.9-0.1-7.7-0.4-11.5-0.7c-3.8-0.4-7.7-0.8-11.5-1.3c-7.6-1.2-15.3-2.6-22.8-4.8
				c-3.8-1.1-7.5-2.3-11.1-4c-3.6-1.7-7.1-3.7-10.2-6.5c-1.6-1.5-2.7-3.1-4-4.7l-1.7-2.5c-0.6-0.8-1-1.8-1.5-2.7
				c-1.8-3.7-3-7.8-3-12.1c0-4.2,1.2-8.3,2.9-12c1.7-3.7,3.9-7,6.2-10.2c0.5-0.8,1.3-1.7,2-2.4l1.2-1.1l1.3-1
				c1.7-1.2,3.6-2.2,5.6-2.9c2-0.7,4-1.2,6-1.4c2-0.2,4.1-0.3,6.1-0.2c8,0.4,15.9,3.2,22.1,8.3c3,2.6,5.6,5.8,7.2,9.4l0.6,1.4
				c0.2,0.5,0.3,0.9,0.5,1.4c0.3,0.9,0.6,1.9,0.8,2.8c0.2,0.9,0.3,1.9,0.4,2.9c0.1,1,0.1,1.9,0.2,2.9l-0.2,0
				c-0.2-3.8-1.2-7.6-2.9-11c-1.7-3.4-4.3-6.4-7.3-8.8c-6-4.7-13.7-7.2-21.3-7.4c-3.8-0.1-7.7,0.5-11.3,1.8c-1.8,0.7-3.5,1.6-5,2.7
				c-1.6,1.1-2.8,2.5-3.9,4.1c-2.2,3.1-4.3,6.4-5.8,9.9c-1.5,3.5-2.6,7.2-2.6,11.1c0,3.8,1,7.6,2.7,11c0.5,0.8,0.8,1.7,1.4,2.5
				l1.6,2.4c1.2,1.5,2.3,3.1,3.7,4.4c2.8,2.6,6.1,4.5,9.6,6.2c3.5,1.6,7.1,3,10.7,4.1c7.3,2.3,14.8,4,22.4,5.3
				c7.6,1.3,15.2,2.4,22.8,3.1L161.4,139.8z"/>
		</g>
	</g>
</g>
</svg>
