<?xml version="1.0" encoding="utf-8"?>
<!-- Generator: Adobe Illustrator 21.1.0, SVG Export Plug-In . SVG Version: 6.00 Build 0)  -->
<svg version="1.1" id="Layer_1" xmlns="http://www.w3.org/2000/svg" xmlns:xlink="http://www.w3.org/1999/xlink" x="0px" y="0px"
	 viewBox="0 0 1542 194.1" style="enable-background:new 0 0 1542 194.1;" xml:space="preserve">
<style type="text/css">
	.st0{fill:#6EB7B4;}
	.st1{clip-path:url(#SVGID_2_);fill:#C3E6E6;}
	.st2{clip-path:url(#SVGID_2_);fill:#98D4D4;}
	.st3{clip-path:url(#SVGID_2_);}
	.st4{clip-path:url(#SVGID_4_);fill:#98D4D4;}
	.st5{clip-path:url(#SVGID_6_);fill:#98D4D4;}
	.st6{clip-path:url(#SVGID_2_);fill:none;}
</style>
<title>Artboard 1</title>
<g>
	<g>
		<path class="st0" d="M2104.8,88.2c-0.7-1-1-2.1-1.4-3.2l-0.4-1.7l-0.4-1.7c-0.4-2.3-0.7-4.6-0.8-6.9c-0.3-4.6,0-9.3,0.8-13.9
			c1.5-9.2,4.8-18.2,10.4-25.8c2.8-3.8,6.1-7.2,9.7-10.2c0.9-0.7,1.9-1.4,2.8-2.1c0.5-0.3,0.9-0.7,1.4-1l1.5-0.9c1-0.6,2-1.3,3-1.8
			l3.1-1.6c1-0.6,2.1-1,3.2-1.5c1.1-0.5,2.2-1,3.3-1.4l3.3-1.2l1.7-0.6l1.7-0.5c2.3-0.6,4.5-1.3,6.8-1.7l3.4-0.7
			c1.1-0.2,2.3-0.3,3.5-0.5l3.5-0.5c1.2-0.1,2.3-0.2,3.5-0.3c2.3-0.2,4.6-0.4,7-0.4c4.8-0.1,9.5,0.5,14.2,1.4
			c9.3,2,18.2,5.9,26,11.3c4,2.6,7.5,5.7,11,8.9c1.6,1.7,3.4,3.3,4.9,5.1c0.8,0.9,1.6,1.8,2.3,2.7l2.2,2.8c0.7,0.9,1.4,1.9,2.1,2.9
			c0.7,1,1.4,1.9,2,2.9c1.2,2,2.5,4,3.6,6.1c2.3,4.1,4.2,8.5,5.8,12.9c0.7,2.3,1.5,4.5,2,6.8c0.3,1.2,0.6,2.3,0.8,3.5l0.7,3.5
			c0.7,4.7,1.3,9.4,1.1,14.2l0,1.8l-0.1,1.8c-0.1,1.2-0.2,2.4-0.3,3.6c-0.4,2.4-0.7,4.7-1.3,7.1c-0.5,2.4-1.4,4.6-2.1,6.9
			c-1,2.2-1.8,4.5-3,6.5l-0.9,1.6l-0.4,0.8c-0.2,0.3-0.3,0.5-0.5,0.8l-2,3c-1.4,1.9-2.9,3.7-4.4,5.6c-3.1,3.6-6.6,7-10.7,9.6
			c-2,1.4-4.2,2.5-6.5,3.4c-2.3,0.9-4.7,1.6-7,2c-4.8,0.8-9.6,0.8-14.2,0.6c-4.7-0.3-9.3-0.8-13.8-1.3l-13.7-1.6
			c-4.5-0.5-9.1-1-13.6-1.3c-4.5-0.3-9-0.3-13.5,0.1c-4.5,0.4-9,1.1-13.3,2.3c-4.4,1.2-8.6,2.7-12.8,4.6c-4.2,1.8-8.2,4-12.4,6
			c-2.1,1-4.3,1.8-6.6,2.4c-2.3,0.5-4.7,0.5-6.9-0.4l0.1-0.3c2.1,0.8,4.5,0.8,6.7,0.2c2.2-0.6,4.3-1.5,6.4-2.5
			c4.1-2,8.1-4.3,12.3-6.3c4.2-2,8.4-3.7,12.9-5c4.4-1.3,9-2.2,13.5-2.6c9.2-1,18.4,0.1,27.5,0.9l13.7,1.4c4.6,0.5,9.1,0.9,13.7,1.1
			c4.6,0.2,9.2,0.1,13.7-0.7c4.5-0.8,8.8-2.5,12.6-5.1c3.8-2.5,7.1-5.8,10.1-9.2c2.9-3.5,5.7-7.2,7.8-11.2c1.2-2,1.9-4.1,2.9-6.2
			c0.7-2.2,1.5-4.3,2-6.6c0.6-2.2,0.9-4.5,1.2-6.7c0.1-1.1,0.2-2.3,0.3-3.4l0.1-1.7l0-1.7c0.1-4.6-0.4-9.1-1.1-13.7l-0.7-3.4
			c-0.2-1.1-0.6-2.2-0.8-3.3c-0.5-2.2-1.3-4.4-2-6.6c-1.6-4.3-3.3-8.5-5.6-12.5c-1-2.1-2.3-4-3.4-5.9c-0.6-1-1.3-1.9-1.9-2.8
			c-0.6-0.9-1.3-1.9-2-2.8l-2.1-2.7c-0.7-0.9-1.5-1.7-2.2-2.6c-1.5-1.8-3.1-3.3-4.7-5c-3.3-3.1-6.8-6.2-10.6-8.7
			c-7.5-5.3-16-9-25-11c-4.5-0.9-9-1.5-13.6-1.4c-2.3-0.1-4.6,0.1-6.9,0.3c-1.1,0.1-2.3,0.1-3.4,0.3l-3.4,0.4
			c-1.1,0.2-2.3,0.3-3.4,0.5l-3.4,0.6c-2.3,0.4-4.5,1-6.7,1.6l-1.7,0.4l-1.6,0.5l-3.3,1.1c-1.1,0.4-2.1,0.9-3.2,1.3
			c-1.1,0.5-2.1,0.8-3.1,1.4l-3.1,1.6c-1,0.5-2,1.2-3,1.7l-1.5,0.9c-0.5,0.3-0.9,0.7-1.4,1c-0.9,0.7-1.9,1.3-2.8,2
			c-3.6,2.9-6.8,6.2-9.6,9.8c-5.6,7.3-9.1,16-10.7,25c-0.8,4.5-1.2,9.1-1.1,13.7c0.1,2.3,0.3,4.6,0.6,6.8l0.3,1.7l0.4,1.7
			c0.3,1.1,0.6,2.2,1.3,3.1L2104.8,88.2z"/>
	</g>
	<g>
		<path class="st0" d="M2117.8,51.7c1.3-2.4,2.9-4.6,4.8-6.6c0.9-1,1.9-1.9,2.9-2.9c1-0.9,2.1-1.8,3.2-2.6c4.4-3.3,9.3-5.9,14.5-7.7
			l1-0.4l1-0.3l2-0.6l2-0.6c0.7-0.2,1.3-0.3,2-0.4l4.1-0.8c1.4-0.2,2.7-0.3,4.1-0.5c2.7-0.4,5.5-0.4,8.2-0.5c1.4-0.1,2.8,0,4.2,0
			l1.1,0l1,0.1l2.1,0.2c1.4,0.2,2.8,0.5,4.1,0.7c1.4,0.3,2.7,0.7,4.1,1.1c2.7,0.9,5.3,1.9,7.8,3.1c5,2.4,9.7,5.5,14.1,9
			c8.6,7,15.9,15.7,20.9,25.8c1.2,2.5,2.2,5.2,3.1,7.8c0.8,2.7,1.5,5.5,1.9,8.3c0.2,1.4,0.3,2.9,0.4,4.3c0,0.7,0,1.5,0,2.2
			c0,0.7,0,1.5-0.2,2.2l-0.3,2.2l-0.5,2.2c-0.1,0.7-0.4,1.4-0.6,2.1c-0.3,0.7-0.4,1.4-0.8,2.1c-2.5,5.5-6.6,9.8-11.4,13
			c-4.8,3.2-10.3,5-15.8,6.1c-5.4,1.1-10.9,1.6-16.3,1.9c-5.4,0.3-10.8,0.5-16.1,0.8c-10.7,0.5-21.4,1.6-31.4,5.8l-0.1-0.3
			c4.9-2.4,10.1-4,15.4-5c5.3-1.1,10.7-1.6,16-2.1l16.1-1.2c5.4-0.5,10.7-1.1,16-2.2c5.2-1.2,10.4-3,14.8-5.9c4.4-3,8.2-7,10.4-11.9
			c0.3-0.6,0.5-1.2,0.7-1.9c0.2-0.6,0.5-1.3,0.6-1.9l0.4-2l0.2-2c0.1-0.7,0.1-1.3,0.1-2c0-0.7,0.1-1.3,0-2c-0.1-1.3-0.1-2.7-0.4-4
			c-0.3-2.7-1-5.2-1.8-7.8c-0.9-2.5-1.8-5-3.1-7.4c-4.7-9.6-11.7-18.2-19.9-25c-4.1-3.4-8.7-6.4-13.5-8.8c-4.8-2.4-9.9-4.1-15.2-5
			c-2.6-0.4-5.3-0.7-8-0.6c-2.7,0.1-5.4,0-8,0.3c-1.3,0.1-2.7,0.2-4,0.4l-4,0.7c-0.7,0.1-1.3,0.2-2,0.4l-1.9,0.5l-1.9,0.5l-1,0.3
			l-1,0.3c-5.1,1.6-10,4-14.4,7c-1.1,0.8-2.2,1.6-3.2,2.4c-1,0.9-2.1,1.7-3,2.7c-1.9,1.9-3.7,4-5,6.3L2117.8,51.7z"/>
	</g>
	<g>
		<path class="st0" d="M2105,88.1c-0.5-1.5-0.5-3.1-0.3-4.6c0.2-1.5,0.6-3,1.1-4.5c1-2.9,2.3-5.7,3.9-8.4
			c3.1-5.3,7.1-10.2,11.7-14.4c4.6-4.2,10-7.7,16-9.9c6-2.2,12.8-2.7,19.2-1.1c3.2,0.7,6.2,2,9.1,3.6c2.8,1.6,5.4,3.5,7.8,5.6
			c2.4,2.1,4.6,4.5,6.5,7.1c1.9,2.6,3.5,5.6,4.5,8.7c2.1,6.2,2,13.1,0.2,19.1c-0.9,3-2.2,5.9-3.8,8.6c-1.6,2.7-3.4,5.2-5.6,7.3
			l-0.2-0.2c3.6-4.8,6.3-10.4,7.7-16.2c1.4-5.8,1.2-12.1-0.8-17.7c-1-2.8-2.5-5.5-4.3-7.9c-1.8-2.4-3.9-4.6-6.1-6.6
			c-2.3-2-4.7-3.8-7.3-5.3c-2.6-1.5-5.4-2.7-8.3-3.4c-5.8-1.5-12.1-1.1-17.7,0.8c-5.7,1.9-10.9,5.1-15.5,9
			c-4.6,3.9-8.6,8.5-11.9,13.5c-1.6,2.5-3.1,5.2-4.2,8c-0.6,1.4-1,2.8-1.3,4.3c-0.3,1.5-0.4,3,0,4.4L2105,88.1z"/>
	</g>
	<g>
		<path class="st0" d="M2091.1,126c1.8-0.3,3.6-0.6,5.4-0.9c1.8-0.3,3.6-0.6,5.4-0.9c3.6-0.7,7.1-1.4,10.7-2.2
			c7.1-1.4,14.1-3.2,20.9-5.4c3.4-1.2,6.7-2.4,9.9-3.8c3.2-1.5,6.2-3.2,8.6-5.3c0.6-0.5,1.1-1.1,1.7-1.7c0.6-0.7,1.1-1.3,1.6-2
			c1-1.3,2-2.8,2.7-4.2c1.6-2.9,2.4-6,2.5-9.2c0.1-3.2-0.7-6.4-2.1-9.4c-1.4-3.1-3.3-6-5.3-8.9c-0.5-0.8-0.9-1.3-1.5-1.8
			c-0.5-0.5-1.1-1.1-1.7-1.5c-1.3-0.9-2.7-1.7-4.2-2.2c-3.1-1.2-6.5-1.8-9.9-1.8c-6.9-0.1-13.9,1.8-19.6,5.7
			c-2.9,1.9-5.4,4.4-7.2,7.5c-0.9,1.5-1.7,3.1-2.2,4.8c-0.6,1.7-1,3.4-1.2,5.2l-0.3,0c0.2-3.6,1.1-7.3,2.9-10.5
			c1.7-3.2,4.3-6,7.2-8.2c5.9-4.4,13.2-6.6,20.5-6.8c3.7-0.1,7.3,0.4,10.8,1.6c3.4,1.2,6.7,3.3,8.8,6.4c2.2,2.9,4.2,6,5.8,9.3
			c1.5,3.3,2.5,7,2.5,10.7c0,3.7-1.1,7.3-2.9,10.5c-0.9,1.6-1.9,3.1-3,4.6c-1.1,1.4-2.3,2.9-3.7,4c-2.8,2.4-6.1,4.1-9.4,5.6
			c-3.3,1.5-6.8,2.6-10.3,3.7c-7,2.1-14.1,3.5-21.3,4.7c-7.2,1.2-14.4,2.1-21.7,2.7L2091.1,126z"/>
	</g>
</g>
<g>
	<g>
		<path class="st0" d="M2268.4,87.3c-0.7-1-1-2.1-1.4-3.2l-0.4-1.7l-0.4-1.7c-0.4-2.3-0.7-4.6-0.8-6.9c-0.3-4.6,0-9.3,0.8-13.9
			c1.5-9.2,4.8-18.2,10.4-25.8c2.8-3.8,6.1-7.2,9.7-10.2c0.9-0.7,1.9-1.4,2.8-2.1c0.5-0.3,0.9-0.7,1.4-1l1.5-0.9c1-0.6,2-1.3,3-1.8
			l3.1-1.6c1-0.6,2.1-1,3.2-1.5c1.1-0.5,2.2-1,3.3-1.4l3.3-1.2l1.7-0.6l1.7-0.5c2.3-0.6,4.5-1.3,6.8-1.7l3.4-0.7
			c1.2-0.2,2.3-0.3,3.5-0.5l3.5-0.5c1.2-0.1,2.3-0.2,3.5-0.3c2.3-0.2,4.6-0.4,7-0.4c4.8-0.1,9.5,0.5,14.2,1.4
			c9.3,2,18.2,5.9,26,11.3c4,2.6,7.5,5.7,11,8.9c1.6,1.7,3.4,3.3,4.9,5.1c0.8,0.9,1.6,1.8,2.3,2.7l2.2,2.8c0.7,0.9,1.4,1.9,2.1,2.9
			c0.7,1,1.4,1.9,2,2.9c1.2,2,2.5,4,3.6,6.1c2.3,4.1,4.2,8.5,5.8,12.9c0.7,2.3,1.5,4.5,2,6.8c0.3,1.2,0.6,2.3,0.8,3.5l0.7,3.5
			c0.7,4.7,1.3,9.4,1.1,14.2l0,1.8l-0.1,1.8c-0.1,1.2-0.2,2.4-0.3,3.6c-0.4,2.4-0.7,4.7-1.3,7.1c-0.5,2.4-1.4,4.6-2.1,6.9
			c-1,2.2-1.8,4.5-3,6.5l-0.9,1.6l-0.4,0.8c-0.2,0.3-0.3,0.5-0.5,0.8l-2,3c-1.4,1.9-2.9,3.7-4.4,5.6c-3.1,3.6-6.6,7-10.7,9.6
			c-2,1.4-4.2,2.5-6.5,3.4c-2.3,0.9-4.7,1.6-7,2c-4.8,0.8-9.6,0.8-14.2,0.6c-4.7-0.3-9.3-0.8-13.8-1.3l-13.7-1.6
			c-4.5-0.5-9.1-1-13.6-1.3c-4.5-0.3-9-0.3-13.5,0.1c-4.5,0.4-9,1.1-13.3,2.3c-4.4,1.2-8.6,2.7-12.8,4.6c-4.2,1.8-8.2,4-12.4,6
			c-2.1,1-4.3,1.8-6.6,2.4c-2.3,0.5-4.7,0.5-6.9-0.4l0.1-0.3c2.1,0.8,4.5,0.8,6.7,0.2c2.2-0.6,4.3-1.5,6.4-2.5
			c4.1-2,8.1-4.3,12.3-6.3c4.2-2,8.4-3.7,12.9-5c4.4-1.3,9-2.2,13.5-2.6c9.2-1,18.4,0.1,27.5,0.9l13.7,1.4c4.6,0.5,9.1,0.9,13.7,1.1
			c4.6,0.2,9.2,0.1,13.7-0.7c4.5-0.8,8.8-2.5,12.6-5.1c3.8-2.5,7.1-5.8,10.1-9.2c2.9-3.5,5.7-7.2,7.8-11.2c1.2-2,1.9-4.1,2.9-6.2
			c0.7-2.2,1.5-4.3,2-6.6c0.6-2.2,0.9-4.5,1.2-6.7c0.1-1.1,0.2-2.3,0.3-3.4l0.1-1.7l0-1.7c0.1-4.6-0.4-9.1-1.1-13.7l-0.7-3.4
			c-0.2-1.1-0.6-2.2-0.8-3.3c-0.5-2.2-1.3-4.4-2-6.6c-1.6-4.3-3.3-8.5-5.6-12.5c-1-2.1-2.3-4-3.4-5.9c-0.6-1-1.3-1.9-1.9-2.8
			c-0.6-0.9-1.3-1.9-2-2.8l-2.1-2.7c-0.7-0.9-1.5-1.7-2.2-2.6c-1.5-1.8-3.1-3.3-4.7-5c-3.3-3.1-6.8-6.2-10.6-8.7
			c-7.5-5.3-16-9-25-11c-4.5-0.9-9-1.5-13.6-1.4c-2.3-0.1-4.6,0.1-6.9,0.3c-1.1,0.1-2.3,0.1-3.4,0.3l-3.4,0.4
			c-1.1,0.2-2.3,0.3-3.4,0.5l-3.4,0.6c-2.3,0.4-4.5,1-6.7,1.6l-1.7,0.4l-1.6,0.5l-3.3,1.1c-1.1,0.4-2.1,0.9-3.2,1.3
			c-1.1,0.5-2.1,0.8-3.1,1.4l-3.1,1.6c-1,0.5-2,1.2-3,1.7l-1.5,0.9c-0.5,0.3-0.9,0.7-1.4,1c-0.9,0.7-1.9,1.3-2.8,2
			c-3.6,2.9-6.8,6.2-9.6,9.8c-5.6,7.3-9.1,16-10.7,25c-0.8,4.5-1.2,9.1-1,13.7c0.1,2.3,0.3,4.6,0.6,6.8l0.3,1.7l0.4,1.7
			c0.3,1.1,0.6,2.2,1.3,3.1L2268.4,87.3z"/>
	</g>
	<g>
		<path class="st0" d="M2281.4,50.8c1.3-2.4,2.9-4.6,4.8-6.6c0.9-1,1.9-1.9,2.9-2.9c1-0.9,2.1-1.8,3.2-2.6c4.4-3.3,9.3-5.9,14.5-7.7
			l1-0.4l1-0.3l2-0.6l2-0.6c0.7-0.2,1.3-0.3,2-0.4l4.1-0.8c1.4-0.2,2.7-0.3,4.1-0.5c2.7-0.4,5.5-0.4,8.2-0.5c1.4-0.1,2.8,0,4.2,0
			l1.1,0l1,0.1l2.1,0.2c1.4,0.2,2.8,0.5,4.1,0.7c1.4,0.3,2.7,0.7,4.1,1.1c2.7,0.9,5.3,1.9,7.8,3.1c5,2.4,9.7,5.5,14.1,9
			c8.6,7,15.9,15.7,20.9,25.8c1.2,2.5,2.2,5.2,3.1,7.8c0.8,2.7,1.5,5.5,1.9,8.3c0.2,1.4,0.3,2.9,0.4,4.3c0,0.7,0,1.5,0,2.2
			c0,0.7,0,1.5-0.2,2.2l-0.3,2.2l-0.5,2.2c-0.1,0.7-0.4,1.4-0.6,2.1c-0.3,0.7-0.4,1.4-0.8,2.1c-2.5,5.5-6.6,9.8-11.4,13
			c-4.8,3.2-10.3,5-15.8,6.1c-5.4,1.1-10.9,1.6-16.3,1.9c-5.4,0.3-10.8,0.5-16.1,0.8c-10.7,0.5-21.4,1.6-31.4,5.8l-0.1-0.3
			c4.9-2.4,10.1-4,15.4-5c5.3-1.1,10.7-1.6,16-2.1l16.1-1.2c5.4-0.5,10.7-1.1,16-2.2c5.2-1.2,10.4-3,14.8-5.9c4.4-3,8.2-7,10.4-11.9
			c0.3-0.6,0.5-1.2,0.7-1.9c0.2-0.6,0.5-1.3,0.6-1.9l0.4-2l0.2-2c0.1-0.7,0.1-1.3,0.1-2c0-0.7,0.1-1.3,0-2c-0.1-1.3-0.1-2.7-0.4-4
			c-0.3-2.7-1-5.2-1.8-7.8c-0.9-2.5-1.8-5-3.1-7.4c-4.7-9.6-11.7-18.2-19.9-25c-4.1-3.4-8.7-6.4-13.5-8.8c-4.8-2.4-9.9-4.1-15.2-5
			c-2.6-0.4-5.3-0.7-8-0.6c-2.7,0.1-5.4,0-8,0.3c-1.3,0.1-2.7,0.2-4,0.4l-4,0.7c-0.7,0.1-1.3,0.2-2,0.4l-1.9,0.5l-1.9,0.5l-1,0.3
			l-1,0.3c-5.1,1.6-10,4-14.4,7c-1.1,0.8-2.2,1.6-3.2,2.4c-1,0.9-2.1,1.7-3,2.7c-1.9,1.9-3.7,4-5,6.3L2281.4,50.8z"/>
	</g>
	<g>
		<path class="st0" d="M2268.6,87.2c-0.5-1.5-0.5-3.1-0.3-4.6c0.2-1.5,0.6-3,1.1-4.5c1-2.9,2.3-5.7,3.9-8.4
			c3.1-5.3,7.1-10.2,11.7-14.4c4.6-4.2,10-7.7,16-9.9c6-2.2,12.8-2.7,19.2-1.1c3.2,0.7,6.2,2,9.1,3.6c2.8,1.6,5.4,3.5,7.8,5.6
			c2.4,2.1,4.6,4.5,6.5,7.1c1.9,2.6,3.5,5.6,4.5,8.7c2.1,6.2,2,13.1,0.2,19.1c-0.9,3-2.2,5.9-3.8,8.6c-1.6,2.7-3.4,5.2-5.6,7.3
			l-0.2-0.2c3.6-4.8,6.3-10.4,7.7-16.2c1.4-5.8,1.2-12.1-0.8-17.7c-1-2.8-2.5-5.5-4.3-7.9c-1.8-2.4-3.9-4.6-6.1-6.6
			c-2.3-2-4.7-3.8-7.3-5.3c-2.6-1.5-5.4-2.7-8.3-3.4c-5.8-1.5-12.1-1.1-17.7,0.8c-5.7,1.9-10.9,5.1-15.5,9
			c-4.6,3.9-8.6,8.5-11.9,13.5c-1.6,2.5-3.1,5.2-4.2,8c-0.6,1.4-1,2.8-1.3,4.3c-0.3,1.5-0.4,3,0,4.4L2268.6,87.2z"/>
	</g>
	<g>
		<path class="st0" d="M2254.7,125c1.8-0.3,3.6-0.6,5.4-0.9c1.8-0.3,3.6-0.6,5.4-0.9c3.6-0.7,7.1-1.4,10.7-2.2
			c7.1-1.4,14.1-3.2,20.9-5.4c3.4-1.2,6.7-2.4,9.9-3.8c3.2-1.5,6.2-3.2,8.6-5.3c0.6-0.5,1.1-1.1,1.7-1.7c0.6-0.7,1.1-1.3,1.6-2
			c1-1.3,2-2.8,2.7-4.2c1.6-2.9,2.4-6,2.5-9.2c0.1-3.2-0.7-6.4-2.1-9.4c-1.4-3.1-3.3-6-5.3-8.9c-0.5-0.8-0.9-1.3-1.5-1.8
			c-0.5-0.5-1.1-1.1-1.7-1.5c-1.3-0.9-2.7-1.7-4.2-2.2c-3.1-1.2-6.5-1.8-9.9-1.8c-6.9-0.1-13.9,1.8-19.6,5.7
			c-2.9,1.9-5.4,4.4-7.2,7.5c-0.9,1.5-1.7,3.1-2.2,4.8c-0.6,1.7-1,3.4-1.2,5.2l-0.3,0c0.2-3.6,1.1-7.3,2.9-10.5
			c1.7-3.2,4.3-6,7.2-8.2c5.9-4.4,13.2-6.6,20.5-6.8c3.7-0.1,7.3,0.4,10.8,1.6c3.4,1.2,6.7,3.3,8.8,6.4c2.2,2.9,4.2,6,5.8,9.3
			c1.5,3.3,2.5,7,2.5,10.7c0,3.7-1.1,7.3-2.9,10.5c-0.9,1.6-1.9,3.1-3,4.6c-1.1,1.4-2.3,2.9-3.7,4c-2.8,2.4-6.1,4.1-9.4,5.6
			c-3.3,1.5-6.8,2.6-10.3,3.7c-7,2.1-14.1,3.5-21.3,4.7c-7.2,1.2-14.4,2.1-21.7,2.7L2254.7,125z"/>
	</g>
</g>
<g>
	<defs>
		<rect id="SVGID_1_" x="1.3" y="-0.3" width="1543.9" height="194.6"/>
	</defs>
	<clipPath id="SVGID_2_">
		<use xlink:href="#SVGID_1_"  style="overflow:visible;"/>
	</clipPath>
	<polygon class="st1" points="1640.5,140.2 0.7,134.3 1.7,-84.1 1641.2,-78.1 	"/>
	<rect x="-2.4" y="133.6" class="st2" width="1600.3" height="64.9"/>
	<g class="st3">
		<defs>
			
				<rect id="SVGID_3_" x="528.8" y="-581.6" transform="matrix(3.607361e-03 -1 1 3.607361e-03 580.3089 743.3348)" width="268.7" height="1324.1"/>
		</defs>
		<clipPath id="SVGID_4_">
			<use xlink:href="#SVGID_3_"  style="overflow:visible;"/>
		</clipPath>
		<path class="st4" d="M-16.5,129.7c0,0,101.1,0.5,91-42.8c-10.6-45.4-61.3-18.3-59.3,2.3c0,0-17.9-50.6,38.1-74.4
			c75.2-32,152,58.8,95.2,124.5C84,213.7-16.5,129.7-16.5,129.7z"/>
		<path class="st4" d="M156.3,130.6c0,0,101.1,0.5,91-42.8C236.7,42.3,186,69.4,188,90c0,0-17.9-50.6,38.1-74.4
			c75.2-32,152,58.8,95.2,124.5C256.8,214.6,156.3,130.6,156.3,130.6z"/>
		<path class="st4" d="M327.8,130.6c0,0,101.1,0.5,91-42.8c-10.6-45.4-61.3-18.3-59.3,2.3c0,0-17.9-50.6,38.1-74.4
			c75.2-32,152,58.8,95.2,124.5C428.3,214.7,327.8,130.6,327.8,130.6z"/>
		<path class="st4" d="M500.2,130.7c0,0,101.1,0.5,91-42.8c-10.6-45.4-61.3-18.3-59.3,2.3c0,0-17.9-50.6,38.1-74.4
			c75.2-32,152,58.8,95.2,124.5C600.7,214.8,500.2,130.7,500.2,130.7z"/>
		<path class="st4" d="M671.7,130.8c0,0,101.1,0.5,91-42.8c-10.6-45.4-61.3-18.3-59.3,2.3c0,0-17.9-50.6,38.1-74.4
			c75.2-32,152,58.8,95.2,124.5C772.2,214.8,671.7,130.8,671.7,130.8z"/>
		<path class="st4" d="M842.4,130.9c0,0,101.1,0.5,91-42.8c-10.6-45.4-61.3-18.3-59.3,2.3c0,0-17.9-50.6,38.1-74.4
			c75.2-32,152,58.8,95.2,124.5C942.9,214.9,842.4,130.9,842.4,130.9z"/>
		<path class="st4" d="M1013,132.6c0,0,101.1,0.5,91-42.8c-10.6-45.4-61.3-18.3-59.3,2.3c0,0-17.9-50.6,38.1-74.4
			c75.2-32,152,58.8,95.2,124.5C1113.5,216.6,1013,132.6,1013,132.6z"/>
	</g>
	<g class="st3">
		<defs>
			
				<rect id="SVGID_5_" x="1556.4" y="-577.1" transform="matrix(3.607361e-03 -1 1 3.607361e-03 1599.6703 1775.3385)" width="268.7" height="1324.1"/>
		</defs>
		<clipPath id="SVGID_6_">
			<use xlink:href="#SVGID_5_"  style="overflow:visible;"/>
		</clipPath>
		<path class="st5" d="M1183.8,135c0,0,101.1,0.5,91-42.8c-10.6-45.4-61.3-18.3-59.3,2.3c0,0-17.9-50.6,38.1-74.4
			c75.2-32,152,58.8,95.2,124.5C1284.4,219.1,1183.8,135,1183.8,135z"/>
		<path class="st5" d="M1355.4,135.1c0,0,101.1,0.5,91-42.8c-10.6-45.4-61.3-18.3-59.3,2.3c0,0-17.9-50.6,38.1-74.4
			c75.2-32,152,58.8,95.2,124.5C1455.9,219.2,1355.4,135.1,1355.4,135.1z"/>
		<path class="st5" d="M1527.8,135.2c0,0,101.1,0.5,91-42.8c-10.6-45.4-61.3-18.3-59.3,2.3c0,0-17.9-50.6,38.1-74.4
			c75.2-32,152,58.8,95.2,124.5C1628.3,219.2,1527.8,135.2,1527.8,135.2z"/>
		<path class="st5" d="M1699.3,135.3c0,0,101.1,0.5,91-42.8c-10.6-45.4-61.3-18.3-59.3,2.3c0,0-17.9-50.6,38.1-74.4
			c75.2-32,152,58.8,95.2,124.5C1799.8,219.3,1699.3,135.3,1699.3,135.3z"/>
		<path class="st5" d="M1869.9,135.4c0,0,101.1,0.5,91-42.8c-10.6-45.4-61.3-18.3-59.3,2.3c0,0-17.9-50.6,38.1-74.4
			c75.2-32,152,58.8,95.2,124.5C1970.4,219.4,1869.9,135.4,1869.9,135.4z"/>
		<path class="st5" d="M2040.6,137.1c0,0,101.1,0.5,91-42.8c-10.6-45.4-61.3-18.3-59.3,2.3c0,0-17.9-50.6,38.1-74.4
			c75.2-32,152,58.8,95.2,124.5C2141.1,221.1,2040.6,137.1,2040.6,137.1z"/>
		<path class="st5" d="M2211,136.4c0,0,101.1,0.5,91-42.8c-10.6-45.4-61.3-18.3-59.3,2.3c0,0-17.9-50.6,38.1-74.4
			c75.2-32,152,58.8,95.2,124.5C2311.5,220.4,2211,136.4,2211,136.4z"/>
	</g>
	<g class="st3">
		<path class="st0" d="M1215.6,93.8c-0.8-1-1.1-2.2-1.5-3.3l-0.5-1.7l-0.4-1.8c-0.4-2.4-0.7-4.8-0.8-7.2c-0.3-4.8,0-9.6,0.8-14.4
			c1.5-9.5,5-18.9,10.7-26.9c2.9-4,6.2-7.6,10-10.7c0.9-0.8,1.9-1.5,2.9-2.2l1.5-1.1l1.6-1c1-0.6,2.1-1.3,3.1-1.9l3.2-1.7
			c1.1-0.6,2.2-1.1,3.3-1.6c1.1-0.5,2.2-1,3.4-1.4l3.5-1.2l1.7-0.6c0.6-0.2,1.2-0.3,1.8-0.5c2.4-0.6,4.7-1.4,7.1-1.8l3.6-0.7
			c1.2-0.2,2.4-0.4,3.6-0.5l3.6-0.5c1.2-0.2,2.4-0.2,3.6-0.3c2.4-0.2,4.8-0.5,7.3-0.4c4.9-0.2,9.9,0.5,14.7,1.4
			c9.7,2.1,18.9,6.1,27,11.8c4.1,2.7,7.8,6,11.4,9.3c1.7,1.8,3.5,3.5,5.1,5.4c0.8,0.9,1.6,1.8,2.4,2.8l2.3,2.9c0.8,1,1.5,2,2.1,3
			c0.7,1,1.4,2,2.1,3c1.2,2.1,2.6,4.2,3.7,6.4c2.4,4.3,4.3,8.8,6,13.4c3.2,9.3,5.1,19.1,4.9,29l0,1.9c0,0.6-0.1,1.2-0.1,1.9
			c-0.1,1.2-0.2,2.5-0.3,3.7c-0.4,2.5-0.7,4.9-1.4,7.3c-0.5,2.4-1.4,4.8-2.1,7.2c-0.4,1.2-1,2.3-1.5,3.5c-0.3,0.6-0.5,1.1-0.8,1.7
			l-0.9,1.6c-0.6,1.1-1.2,2.2-1.8,3.3l-2.1,3.1c-1.4,2-2.9,3.9-4.5,5.8c-3.2,3.7-6.8,7.3-11,10.1c-4.2,2.8-9.1,4.9-14,5.8
			c-5,0.9-10,0.9-14.8,0.7c-4.9-0.3-9.6-0.8-14.4-1.4l-14.2-1.7c-4.7-0.5-9.5-1-14.2-1.4c-4.7-0.4-9.4-0.3-14,0
			c-4.7,0.4-9.3,1.2-13.9,2.4c-4.5,1.2-9,2.9-13.3,4.8c-4.3,1.9-8.5,4.2-12.9,6.2c-2.2,1-4.4,1.9-6.8,2.5c-1.2,0.3-2.4,0.4-3.6,0.4
			c-1.2,0-2.4-0.3-3.6-0.7l0.1-0.3c1.1,0.4,2.3,0.6,3.5,0.6c1.2,0,2.4-0.1,3.5-0.5c2.3-0.6,4.5-1.6,6.6-2.6
			c4.3-2.1,8.4-4.5,12.7-6.5c4.3-2.1,8.8-3.8,13.4-5.2c4.6-1.3,9.3-2.2,14.1-2.7c9.5-1.1,19.1,0.1,28.6,0.9l14.2,1.5
			c4.7,0.5,9.5,1,14.2,1.2c4.8,0.2,9.5,0.1,14.2-0.8c4.7-0.9,9.1-2.8,13-5.4c3.9-2.7,7.3-6,10.4-9.7c1.5-1.8,3-3.7,4.3-5.7l2-3
			c0.6-1,1.1-2.1,1.7-3.1l0.8-1.6c0.2-0.5,0.5-1.1,0.7-1.6c0.5-1.1,1-2.2,1.4-3.3c0.7-2.3,1.5-4.5,2-6.8c0.6-2.3,0.9-4.7,1.3-7
			c0.1-1.2,0.2-2.4,0.3-3.6c0-0.6,0.1-1.2,0.1-1.8l0-1.8c0.2-9.5-1.7-19-4.8-28c-1.7-4.5-3.5-8.9-5.8-13c-1.1-2.1-2.4-4.1-3.6-6.2
			c-0.6-1-1.3-2-2-3c-0.7-1-1.3-2-2.1-2.9l-2.2-2.8c-0.7-0.9-1.5-1.8-2.3-2.7c-1.5-1.8-3.2-3.5-4.9-5.2c-3.5-3.3-7-6.4-11-9.1
			c-7.8-5.5-16.6-9.4-25.9-11.5c-4.7-0.9-9.4-1.6-14.2-1.4c-2.4-0.1-4.8,0.2-7.1,0.3c-1.2,0.1-2.4,0.1-3.6,0.3l-3.5,0.4
			c-1.2,0.2-2.4,0.3-3.5,0.5l-3.5,0.7c-2.4,0.4-4.6,1.1-6.9,1.6c-0.6,0.2-1.2,0.3-1.7,0.5l-1.7,0.6l-3.4,1.1
			c-1.1,0.4-2.2,0.9-3.3,1.4c-1.1,0.5-2.2,0.9-3.2,1.5l-3.2,1.6c-1,0.6-2,1.2-3.1,1.8l-1.5,0.9l-1.4,1c-0.9,0.7-1.9,1.4-2.9,2.1
			c-3.7,3-7,6.5-9.9,10.3c-5.7,7.6-9.3,16.7-11,26c-0.8,4.7-1.2,9.5-1.1,14.2c0.1,2.4,0.3,4.8,0.6,7.1l0.3,1.8l0.4,1.7
			c0.4,1.1,0.6,2.3,1.3,3.2L1215.6,93.8z"/>
	</g>
	<g class="st3">
		<path class="st0" d="M1229.1,55.7c2.7-5,6.7-9.2,11.3-12.6c4.6-3.4,9.6-6.2,15-8l1-0.4l1-0.3l2.1-0.6l2.1-0.6
			c0.7-0.2,1.4-0.3,2.1-0.4l4.2-0.8c1.4-0.2,2.8-0.3,4.3-0.5c2.8-0.4,5.7-0.4,8.5-0.5c2.8-0.1,5.8,0.1,8.7,0.5
			c1.4,0.2,2.9,0.5,4.3,0.8c1.4,0.4,2.8,0.7,4.2,1.1c2.8,0.9,5.5,2,8.1,3.3c5.2,2.5,10.1,5.7,14.6,9.4c8.9,7.3,16.4,16.4,21.6,26.9
			c1.3,2.6,2.3,5.4,3.2,8.1c0.8,2.8,1.6,5.7,1.9,8.6c0.8,5.9,0.4,12.1-2,17.8c-2.5,5.7-6.8,10.3-11.8,13.6c-2.5,1.7-5.2,3-7.9,4
			c-2.8,1.1-5.6,1.8-8.4,2.4c-5.7,1.2-11.3,1.7-16.9,2c-5.6,0.3-11.2,0.5-16.8,0.9c-5.6,0.3-11.1,0.6-16.6,1.6
			c-2.7,0.4-5.4,1-8.1,1.8c-2.7,0.7-5.3,1.7-7.9,2.7l-0.1-0.3c5-2.5,10.4-4.2,15.9-5.3c5.5-1.1,11.1-1.7,16.6-2.2
			c5.6-0.5,11.2-0.8,16.7-1.3c5.6-0.5,11.1-1.1,16.6-2.4c5.4-1.2,10.7-3.2,15.4-6.3c2.3-1.6,4.4-3.4,6.2-5.5
			c0.5-0.5,0.9-1.1,1.3-1.6l0.6-0.8l0.5-0.9c0.4-0.6,0.8-1.2,1.1-1.8l0.9-1.9c2.1-5.1,2.5-10.9,1.7-16.3c-0.3-2.8-1.1-5.5-1.9-8.1
			c-0.9-2.6-1.9-5.2-3.2-7.7c-4.9-10-12-18.9-20.6-26c-4.3-3.6-9-6.7-13.9-9.2c-5-2.5-10.3-4.4-15.8-5.2c-2.8-0.4-5.5-0.7-8.3-0.6
			c-2.8,0.1-5.6,0-8.4,0.3c-1.4,0.1-2.8,0.2-4.2,0.4l-4.1,0.7c-0.7,0.1-1.4,0.2-2.1,0.4l-2,0.5l-2,0.5l-1,0.3l-1,0.3
			c-5.3,1.7-10.4,4.2-15,7.3c-1.1,0.8-2.2,1.7-3.3,2.5c-1,0.9-2.1,1.8-3.1,2.8c-2,2-3.8,4.1-5.2,6.5L1229.1,55.7z"/>
	</g>
	<g class="st3">
		<path class="st0" d="M1215.8,93.7c-0.5-1.5-0.5-3.2-0.3-4.8c0.2-1.6,0.6-3.2,1.1-4.7c1-3,2.4-5.9,4.1-8.7
			c3.2-5.6,7.3-10.6,12.1-15c4.8-4.3,10.3-8.1,16.6-10.4c6.3-2.3,13.4-2.8,20-1.2c3.3,0.8,6.5,2.2,9.4,3.8c2.9,1.7,5.6,3.7,8.1,5.9
			c2.5,2.2,4.8,4.7,6.7,7.4c2,2.8,3.6,5.8,4.6,9.1c1,3.2,1.7,6.6,1.6,10c0,3.4-0.6,6.7-1.5,9.9c-0.5,1.6-1,3.1-1.6,4.6
			c-0.7,1.5-1.4,2.9-2.3,4.3c-1.7,2.8-3.5,5.4-5.8,7.7l-0.2-0.2c3.8-5,6.5-10.8,8-16.9c1.5-6.1,1.3-12.6-0.8-18.5
			c-2.1-5.9-6.1-11-10.7-15.2c-2.3-2.1-4.8-4-7.5-5.6c-2.7-1.6-5.6-2.8-8.6-3.6c-6-1.6-12.5-1.2-18.5,0.8c-5.9,2-11.4,5.4-16.1,9.5
			c-4.8,4.1-8.9,8.9-12.3,14.1c-1.7,2.6-3.2,5.4-4.4,8.3c-0.6,1.5-1,3-1.3,4.5c-0.3,1.5-0.4,3.1,0,4.6L1215.8,93.7z"/>
	</g>
	<g class="st3">
		<path class="st0" d="M1201.4,133.2c1.9-0.3,3.7-0.6,5.6-1c1.9-0.3,3.7-0.6,5.6-1c3.7-0.7,7.4-1.4,11.1-2.3
			c7.4-1.5,14.7-3.3,21.7-5.7c3.5-1.2,7-2.5,10.3-4c3.3-1.5,6.4-3.3,8.9-5.6c0.6-0.6,1.2-1.1,1.7-1.8c0.6-0.7,1.1-1.4,1.7-2.1
			c1.1-1.4,2-2.9,2.8-4.4c1.6-3,2.5-6.3,2.5-9.6c0.1-3.3-0.8-6.6-2.2-9.8c-1.4-3.2-3.4-6.2-5.5-9.2c-0.6-0.8-1-1.3-1.5-1.9
			c-0.5-0.6-1.1-1.1-1.8-1.6c-1.3-1-2.8-1.7-4.4-2.3c-3.2-1.2-6.7-1.8-10.3-1.9c-7.1-0.1-14.4,1.9-20.4,6c-3,2-5.6,4.6-7.5,7.8
			c-1,1.6-1.7,3.2-2.3,5c-0.6,1.8-1,3.6-1.3,5.5l-0.3,0c0.2-3.8,1.2-7.6,3-10.9c1.8-3.4,4.4-6.3,7.4-8.6c6.1-4.6,13.7-6.9,21.3-7.1
			c3.8-0.1,7.6,0.4,11.2,1.7c3.6,1.3,7,3.5,9.1,6.6c2.3,3,4.4,6.2,6,9.7c1.6,3.4,2.6,7.2,2.6,11.1c0,3.8-1.1,7.6-2.9,11
			c-0.9,1.7-2,3.3-3.1,4.8c-1.2,1.5-2.4,3-3.8,4.2c-2.9,2.5-6.3,4.3-9.7,5.9c-3.5,1.5-7.1,2.8-10.7,3.9c-7.3,2.2-14.7,3.7-22.1,5
			c-7.5,1.2-15,2.2-22.5,2.8L1201.4,133.2z"/>
	</g>
	<g class="st3">
		<path class="st0" d="M1387.1,93.9c-0.8-1-1.1-2.2-1.5-3.3l-0.5-1.7l-0.4-1.8c-0.4-2.4-0.7-4.8-0.8-7.2c-0.3-4.8,0-9.6,0.8-14.4
			c1.5-9.5,5-18.9,10.7-26.9c2.9-4,6.2-7.6,10-10.7c0.9-0.8,1.9-1.5,2.9-2.2l1.5-1.1l1.6-1c1-0.6,2.1-1.3,3.1-1.9l3.2-1.7
			c1.1-0.6,2.2-1.1,3.3-1.6c1.1-0.5,2.2-1,3.4-1.4l3.5-1.2l1.7-0.6c0.6-0.2,1.2-0.3,1.8-0.5c2.4-0.6,4.7-1.4,7.1-1.8l3.6-0.7
			c1.2-0.2,2.4-0.4,3.6-0.5l3.6-0.5c1.2-0.2,2.4-0.2,3.6-0.3c2.4-0.2,4.8-0.5,7.3-0.4c4.9-0.2,9.9,0.5,14.7,1.4
			c9.7,2.1,18.9,6.1,27,11.8c4.1,2.7,7.8,6,11.4,9.3c1.7,1.8,3.5,3.5,5.1,5.4c0.8,0.9,1.6,1.8,2.4,2.8l2.3,2.9c0.8,1,1.5,2,2.1,3
			c0.7,1,1.4,2,2.1,3c1.2,2.1,2.6,4.2,3.7,6.4c2.4,4.3,4.3,8.8,6,13.4c3.2,9.3,5.1,19.1,4.9,29l0,1.9c0,0.6-0.1,1.2-0.1,1.9
			c-0.1,1.2-0.2,2.5-0.3,3.7c-0.4,2.5-0.7,4.9-1.4,7.3c-0.5,2.4-1.4,4.8-2.1,7.2c-0.4,1.2-1,2.3-1.5,3.5c-0.3,0.6-0.5,1.1-0.8,1.7
			l-0.9,1.6c-0.6,1.1-1.2,2.2-1.8,3.3l-2.1,3.1c-1.4,2-2.9,3.9-4.5,5.8c-3.2,3.7-6.8,7.3-11,10.1c-4.2,2.8-9.1,4.9-14,5.8
			c-5,0.9-10,0.9-14.8,0.7c-4.9-0.3-9.6-0.8-14.4-1.4l-14.2-1.7c-4.7-0.5-9.5-1-14.2-1.4c-4.7-0.4-9.4-0.3-14,0
			c-4.7,0.4-9.3,1.2-13.9,2.4c-4.5,1.2-9,2.9-13.3,4.8c-4.3,1.9-8.5,4.2-12.9,6.2c-2.2,1-4.4,1.9-6.8,2.5c-1.2,0.3-2.4,0.4-3.6,0.4
			c-1.2,0-2.4-0.3-3.6-0.7l0.1-0.3c1.1,0.4,2.3,0.6,3.5,0.6c1.2,0,2.4-0.1,3.5-0.5c2.3-0.6,4.5-1.6,6.6-2.6
			c4.3-2.1,8.4-4.5,12.7-6.5c4.3-2.1,8.8-3.8,13.4-5.2c4.6-1.3,9.3-2.2,14.1-2.7c9.5-1.1,19.1,0.1,28.6,0.9l14.2,1.5
			c4.7,0.5,9.5,1,14.2,1.2c4.8,0.2,9.5,0.1,14.2-0.8c4.7-0.9,9.1-2.8,13-5.4c3.9-2.7,7.3-6,10.4-9.7c1.5-1.8,3-3.7,4.3-5.7l2-3
			c0.6-1,1.1-2.1,1.7-3.1l0.8-1.6c0.2-0.5,0.5-1.1,0.7-1.6c0.5-1.1,1-2.2,1.4-3.3c0.7-2.3,1.5-4.5,2-6.8c0.6-2.3,0.9-4.7,1.3-7
			c0.1-1.2,0.2-2.4,0.3-3.6c0-0.6,0.1-1.2,0.1-1.8l0-1.8c0.2-9.5-1.7-19-4.8-28c-1.7-4.5-3.5-8.9-5.8-13c-1.1-2.1-2.4-4.1-3.6-6.2
			c-0.6-1-1.3-2-2-3c-0.7-1-1.3-2-2.1-2.9l-2.2-2.8c-0.7-0.9-1.5-1.8-2.3-2.7c-1.5-1.8-3.2-3.5-4.9-5.2c-3.5-3.3-7-6.4-11-9.1
			c-7.8-5.5-16.6-9.4-25.9-11.5c-4.7-0.9-9.4-1.6-14.2-1.4c-2.4-0.1-4.8,0.2-7.1,0.3c-1.2,0.1-2.4,0.1-3.6,0.3L1446,14
			c-1.2,0.2-2.4,0.3-3.5,0.5l-3.5,0.7c-2.4,0.4-4.6,1.1-6.9,1.6c-0.6,0.2-1.2,0.3-1.7,0.5l-1.7,0.6l-3.4,1.1
			c-1.1,0.4-2.2,0.9-3.3,1.4c-1.1,0.5-2.2,0.9-3.2,1.5l-3.2,1.6c-1,0.6-2,1.2-3.1,1.8l-1.5,0.9l-1.4,1c-0.9,0.7-1.9,1.4-2.9,2.1
			c-3.7,3-7,6.5-9.9,10.3c-5.7,7.6-9.3,16.7-11,26c-0.8,4.7-1.2,9.5-1.1,14.2c0.1,2.4,0.3,4.8,0.6,7.1l0.3,1.8l0.4,1.7
			c0.4,1.1,0.6,2.3,1.3,3.2L1387.1,93.9z"/>
	</g>
	<g class="st3">
		<path class="st0" d="M1400.6,55.8c2.7-5,6.7-9.2,11.3-12.6c4.6-3.4,9.6-6.2,15-8l1-0.4l1-0.3l2.1-0.6l2.1-0.6
			c0.7-0.2,1.4-0.3,2.1-0.4l4.2-0.8c1.4-0.2,2.8-0.3,4.3-0.5c2.8-0.4,5.7-0.4,8.5-0.5c2.8-0.1,5.8,0.1,8.7,0.5
			c1.4,0.2,2.9,0.5,4.3,0.8c1.4,0.4,2.8,0.7,4.2,1.1c2.8,0.9,5.5,2,8.1,3.3c5.2,2.5,10.1,5.7,14.6,9.4c8.9,7.3,16.4,16.4,21.6,26.9
			c1.3,2.6,2.3,5.4,3.2,8.1c0.8,2.8,1.6,5.7,1.9,8.6c0.8,5.9,0.4,12.1-2,17.8c-2.5,5.7-6.8,10.3-11.8,13.6c-2.5,1.7-5.2,3-7.9,4
			c-2.8,1.1-5.6,1.8-8.4,2.4c-5.7,1.2-11.3,1.7-16.9,2c-5.6,0.3-11.2,0.5-16.8,0.9c-5.6,0.3-11.1,0.6-16.6,1.6
			c-2.7,0.4-5.4,1-8.1,1.8c-2.7,0.7-5.3,1.7-7.9,2.7l-0.1-0.3c5-2.5,10.4-4.2,15.9-5.3c5.5-1.1,11.1-1.7,16.6-2.2
			c5.6-0.5,11.2-0.8,16.7-1.3c5.6-0.5,11.1-1.1,16.6-2.4c5.4-1.2,10.7-3.2,15.4-6.3c2.3-1.6,4.4-3.4,6.2-5.5
			c0.5-0.5,0.9-1.1,1.3-1.6l0.6-0.8l0.5-0.9c0.4-0.6,0.8-1.2,1.1-1.8l0.9-1.9c2.1-5.1,2.5-10.9,1.7-16.3c-0.3-2.8-1.1-5.5-1.9-8.1
			c-0.9-2.6-1.9-5.2-3.2-7.7c-4.9-10-12-18.9-20.6-26c-4.3-3.6-9-6.7-13.9-9.2c-5-2.5-10.3-4.4-15.8-5.2c-2.8-0.4-5.5-0.7-8.3-0.6
			c-2.8,0.1-5.6,0-8.4,0.3c-1.4,0.1-2.8,0.2-4.2,0.4l-4.1,0.7c-0.7,0.1-1.4,0.2-2.1,0.4l-2,0.5l-2,0.5l-1,0.3l-1,0.3
			c-5.3,1.7-10.4,4.2-15,7.3c-1.1,0.8-2.2,1.7-3.3,2.5c-1,0.9-2.1,1.8-3.1,2.8c-2,2-3.8,4.1-5.2,6.5L1400.6,55.8z"/>
	</g>
	<g class="st3">
		<path class="st0" d="M1387.3,93.7c-0.5-1.5-0.5-3.2-0.3-4.8c0.2-1.6,0.6-3.2,1.1-4.7c1-3,2.4-5.9,4.1-8.7
			c3.2-5.6,7.3-10.6,12.1-15c4.8-4.3,10.3-8.1,16.6-10.4c6.3-2.3,13.4-2.8,20-1.2c3.3,0.8,6.5,2.2,9.4,3.8c2.9,1.7,5.6,3.7,8.1,5.9
			c2.5,2.2,4.8,4.7,6.7,7.4c2,2.8,3.6,5.8,4.6,9.1c1,3.2,1.7,6.6,1.6,10c0,3.4-0.6,6.7-1.5,9.9c-0.5,1.6-1,3.1-1.6,4.6
			c-0.7,1.5-1.4,2.9-2.3,4.3c-1.7,2.8-3.5,5.4-5.8,7.7l-0.2-0.2c3.8-5,6.5-10.8,8-16.9c1.5-6.1,1.3-12.6-0.8-18.5
			c-2.1-5.9-6.1-11-10.7-15.2c-2.3-2.1-4.8-4-7.5-5.6c-2.7-1.6-5.6-2.8-8.6-3.6c-6-1.6-12.5-1.2-18.5,0.8c-5.9,2-11.4,5.4-16.1,9.5
			c-4.8,4.1-8.9,8.9-12.3,14.1c-1.7,2.6-3.2,5.4-4.4,8.3c-0.6,1.5-1,3-1.3,4.5c-0.3,1.5-0.4,3.1,0,4.6L1387.3,93.7z"/>
	</g>
	<g class="st3">
		<path class="st0" d="M1372.9,133.2c1.9-0.3,3.7-0.6,5.6-1c1.9-0.3,3.7-0.6,5.6-1c3.7-0.7,7.4-1.4,11.1-2.3
			c7.4-1.5,14.7-3.3,21.7-5.7c3.5-1.2,7-2.5,10.3-4c3.3-1.5,6.4-3.3,8.9-5.6c0.6-0.6,1.2-1.1,1.7-1.8c0.6-0.7,1.1-1.4,1.7-2.1
			c1.1-1.4,2-2.9,2.8-4.4c1.6-3,2.5-6.3,2.5-9.6c0.1-3.3-0.8-6.6-2.2-9.8c-1.4-3.2-3.4-6.2-5.5-9.2c-0.6-0.8-1-1.3-1.5-1.9
			c-0.5-0.6-1.1-1.1-1.8-1.6c-1.3-1-2.8-1.7-4.4-2.3c-3.2-1.2-6.7-1.8-10.3-1.9c-7.1-0.1-14.4,1.9-20.4,6c-3,2-5.6,4.6-7.5,7.8
			c-1,1.6-1.7,3.2-2.3,5c-0.6,1.8-1,3.6-1.3,5.5l-0.3,0c0.2-3.8,1.2-7.6,3-10.9c1.8-3.4,4.4-6.3,7.4-8.6c6.1-4.6,13.7-6.9,21.3-7.1
			c3.8-0.1,7.6,0.4,11.2,1.7c3.6,1.3,7,3.5,9.1,6.6c2.3,3,4.4,6.2,6,9.7c1.6,3.4,2.6,7.2,2.6,11.1c0,3.8-1.1,7.6-2.9,11
			c-0.9,1.7-2,3.3-3.1,4.8c-1.2,1.5-2.4,3-3.8,4.2c-2.9,2.5-6.3,4.3-9.7,5.9c-3.5,1.5-7.1,2.8-10.7,3.9c-7.3,2.2-14.7,3.7-22.1,5
			c-7.5,1.2-15,2.2-22.5,2.8L1372.9,133.2z"/>
	</g>
	<g class="st3">
		<g>
			<path class="st0" d="M15,89.2c-0.8-1-1.1-2.2-1.5-3.3l-0.5-1.7l-0.4-1.8c-0.4-2.4-0.7-4.8-0.8-7.2c-0.3-4.8,0-9.6,0.8-14.4
				c1.5-9.5,5-18.9,10.7-26.9c2.9-4,6.2-7.6,10-10.7c0.9-0.8,1.9-1.5,2.9-2.2l1.5-1.1l1.6-1c1-0.6,2.1-1.3,3.1-1.9l3.2-1.7
				c1.1-0.6,2.2-1.1,3.3-1.6c1.1-0.5,2.2-1,3.4-1.4l3.5-1.2l1.7-0.6c0.6-0.2,1.2-0.3,1.8-0.5c2.4-0.6,4.7-1.4,7.1-1.8L70,7.5
				c1.2-0.2,2.4-0.4,3.6-0.5l3.6-0.5c1.2-0.2,2.4-0.2,3.6-0.3c2.4-0.2,4.8-0.5,7.3-0.4c4.9-0.2,9.9,0.5,14.7,1.4
				c9.7,2.1,18.9,6.1,27,11.8c4.1,2.7,7.8,6,11.4,9.3c1.7,1.8,3.5,3.5,5.1,5.4c0.8,0.9,1.6,1.8,2.4,2.8l2.3,2.9c0.8,1,1.5,2,2.1,3
				c0.7,1,1.4,2,2.1,3c1.2,2.1,2.6,4.2,3.7,6.4c2.4,4.3,4.3,8.8,6,13.4c3.2,9.3,5.1,19.1,4.9,29l0,1.9c0,0.6-0.1,1.2-0.1,1.9
				c-0.1,1.2-0.2,2.5-0.3,3.7c-0.4,2.5-0.7,4.9-1.4,7.3c-0.5,2.4-1.4,4.8-2.1,7.2c-0.4,1.2-1,2.3-1.5,3.5c-0.3,0.6-0.5,1.1-0.8,1.7
				l-0.9,1.6c-0.6,1.1-1.2,2.2-1.8,3.3l-2.1,3.1c-1.4,2-2.9,3.9-4.5,5.8c-3.2,3.7-6.8,7.3-11,10.1c-4.2,2.8-9.1,4.9-14,5.8
				c-5,0.9-10,0.9-14.8,0.7c-4.9-0.3-9.6-0.8-14.4-1.4l-14.2-1.7c-4.7-0.5-9.5-1-14.2-1.4c-4.7-0.4-9.4-0.3-14,0
				c-4.7,0.4-9.3,1.2-13.9,2.4c-4.5,1.2-9,2.9-13.3,4.8c-4.3,1.9-8.5,4.2-12.9,6.2c-2.2,1-4.4,1.9-6.8,2.5c-1.2,0.3-2.4,0.4-3.6,0.4
				c-1.2,0-2.4-0.3-3.6-0.7l0.1-0.3c1.1,0.4,2.3,0.6,3.5,0.6c1.2,0,2.4-0.1,3.5-0.5c2.3-0.6,4.5-1.6,6.6-2.6
				c4.3-2.1,8.4-4.5,12.7-6.5c4.3-2.1,8.8-3.8,13.4-5.2c4.6-1.3,9.3-2.2,14.1-2.7c9.5-1.1,19.1,0.1,28.6,0.9l14.2,1.5
				c4.7,0.5,9.5,1,14.2,1.2c4.8,0.2,9.5,0.1,14.2-0.8c4.7-0.9,9.1-2.8,13-5.4c3.9-2.7,7.3-6,10.4-9.7c1.5-1.8,3-3.7,4.3-5.7l2-3
				c0.6-1,1.1-2.1,1.7-3.1l0.8-1.6c0.2-0.5,0.5-1.1,0.7-1.6c0.5-1.1,1-2.2,1.4-3.3c0.7-2.3,1.5-4.5,2-6.8c0.6-2.3,0.9-4.7,1.3-7
				c0.1-1.2,0.2-2.4,0.3-3.6c0-0.6,0.1-1.2,0.1-1.8l0-1.8c0.2-9.5-1.7-19-4.8-28c-1.7-4.5-3.5-8.9-5.8-13c-1.1-2.1-2.4-4.1-3.6-6.2
				c-0.6-1-1.3-2-2-3c-0.7-1-1.3-2-2.1-2.9l-2.2-2.8c-0.7-0.9-1.5-1.8-2.3-2.7c-1.5-1.8-3.2-3.5-4.9-5.2c-3.5-3.3-7-6.4-11-9.1
				c-7.8-5.5-16.6-9.4-25.9-11.5c-4.7-0.9-9.4-1.6-14.2-1.4c-2.4-0.1-4.8,0.2-7.1,0.3c-1.2,0.1-2.4,0.1-3.6,0.3l-3.5,0.4
				c-1.2,0.2-2.4,0.3-3.5,0.5l-3.5,0.7c-2.4,0.4-4.6,1.1-6.9,1.6c-0.6,0.2-1.2,0.3-1.7,0.5l-1.7,0.6l-3.4,1.1
				c-1.1,0.4-2.2,0.9-3.3,1.4c-1.1,0.5-2.2,0.9-3.2,1.5l-3.2,1.6c-1,0.6-2,1.2-3.1,1.8l-1.5,0.9l-1.4,1c-0.9,0.7-1.9,1.4-2.9,2.1
				c-3.7,3-7,6.5-9.9,10.3c-5.7,7.6-9.3,16.7-11,26c-0.8,4.7-1.2,9.5-1.1,14.2c0.1,2.4,0.3,4.8,0.6,7.1l0.3,1.8l0.4,1.7
				c0.4,1.1,0.6,2.3,1.3,3.2L15,89.2z"/>
		</g>
		<g>
			<path class="st0" d="M28.5,51.1c2.7-5,6.7-9.2,11.3-12.6c4.6-3.4,9.6-6.2,15-8l1-0.4l1-0.3l2.1-0.6l2.1-0.6
				c0.7-0.2,1.4-0.3,2.1-0.4l4.2-0.8c1.4-0.2,2.8-0.3,4.3-0.5c2.8-0.4,5.7-0.4,8.5-0.5c2.8-0.1,5.8,0.1,8.7,0.5
				c1.4,0.2,2.9,0.5,4.3,0.8c1.4,0.4,2.8,0.7,4.2,1.1c2.8,0.9,5.5,2,8.1,3.3c5.2,2.5,10.1,5.7,14.6,9.4c8.9,7.3,16.4,16.4,21.6,26.9
				c1.3,2.6,2.3,5.4,3.2,8.1c0.8,2.8,1.6,5.7,1.9,8.6c0.8,5.9,0.4,12.1-2,17.8c-2.5,5.7-6.8,10.3-11.8,13.6c-2.5,1.7-5.2,3-7.9,4
				c-2.8,1.1-5.6,1.8-8.4,2.4c-5.7,1.2-11.3,1.7-16.9,2c-5.6,0.3-11.2,0.5-16.8,0.9c-5.6,0.3-11.1,0.6-16.6,1.6
				c-2.7,0.4-5.4,1-8.1,1.8c-2.7,0.7-5.3,1.7-7.9,2.7l-0.1-0.3c5-2.5,10.4-4.2,15.9-5.3c5.5-1.1,11.1-1.7,16.6-2.2
				c5.6-0.5,11.2-0.8,16.7-1.3c5.6-0.5,11.1-1.1,16.6-2.4c5.4-1.2,10.7-3.2,15.4-6.3c2.3-1.6,4.4-3.4,6.2-5.5
				c0.5-0.5,0.9-1.1,1.3-1.6l0.6-0.8l0.5-0.9c0.4-0.6,0.8-1.2,1.1-1.8l0.9-1.9c2.1-5.1,2.5-10.9,1.7-16.3c-0.3-2.8-1.1-5.5-1.9-8.1
				c-0.9-2.6-1.9-5.2-3.2-7.7c-4.9-10-12-18.9-20.6-26c-4.3-3.6-9-6.7-13.9-9.2c-5-2.5-10.3-4.4-15.8-5.2c-2.8-0.4-5.5-0.7-8.3-0.6
				c-2.8,0.1-5.6,0-8.4,0.3c-1.4,0.1-2.8,0.2-4.2,0.4L63.4,30c-0.7,0.1-1.4,0.2-2.1,0.4l-2,0.5l-2,0.5l-1,0.3l-1,0.3
				c-5.3,1.7-10.4,4.2-15,7.3c-1.1,0.8-2.2,1.7-3.3,2.5c-1,0.9-2.1,1.8-3.1,2.8c-2,2-3.8,4.1-5.2,6.5L28.5,51.1z"/>
		</g>
		<g>
			<path class="st0" d="M15.3,89.1c-0.5-1.5-0.5-3.2-0.3-4.8c0.2-1.6,0.6-3.2,1.1-4.7c1-3,2.4-5.9,4.1-8.7c3.2-5.6,7.3-10.6,12.1-15
				c4.8-4.3,10.3-8.1,16.6-10.4c6.3-2.3,13.4-2.8,20-1.2c3.3,0.8,6.5,2.2,9.4,3.8c2.9,1.7,5.6,3.7,8.1,5.9c2.5,2.2,4.8,4.7,6.7,7.4
				c2,2.8,3.6,5.8,4.6,9.1c1,3.2,1.7,6.6,1.6,10c0,3.4-0.6,6.7-1.5,9.9c-0.5,1.6-1,3.1-1.6,4.6c-0.7,1.5-1.4,2.9-2.3,4.3
				c-1.7,2.8-3.5,5.4-5.8,7.7l-0.2-0.2c3.8-5,6.5-10.8,8-16.9c1.5-6.1,1.3-12.6-0.8-18.5c-2.1-5.9-6.1-11-10.7-15.2
				c-2.3-2.1-4.8-4-7.5-5.6c-2.7-1.6-5.6-2.8-8.6-3.6c-6-1.6-12.5-1.2-18.5,0.8c-5.9,2-11.4,5.4-16.1,9.5
				c-4.8,4.1-8.9,8.9-12.3,14.1c-1.7,2.6-3.2,5.4-4.4,8.3c-0.6,1.5-1,3-1.3,4.5c-0.3,1.5-0.4,3.1,0,4.6L15.3,89.1z"/>
		</g>
		<g>
			<path class="st0" d="M0.8,128.6c1.9-0.3,3.7-0.6,5.6-1c1.9-0.3,3.7-0.6,5.6-1c3.7-0.7,7.4-1.4,11.1-2.3
				c7.4-1.5,14.7-3.3,21.7-5.7c3.5-1.2,7-2.5,10.3-4c3.3-1.5,6.4-3.3,8.9-5.6c0.6-0.6,1.2-1.1,1.7-1.8c0.6-0.7,1.1-1.4,1.7-2.1
				c1.1-1.4,2-2.9,2.8-4.4c1.6-3,2.5-6.3,2.5-9.6c0.1-3.3-0.8-6.6-2.2-9.8c-1.4-3.2-3.4-6.2-5.5-9.2c-0.6-0.8-1-1.3-1.5-1.9
				c-0.5-0.6-1.1-1.1-1.8-1.6c-1.3-1-2.8-1.7-4.4-2.3c-3.2-1.2-6.7-1.8-10.3-1.9c-7.1-0.1-14.4,1.9-20.4,6c-3,2-5.6,4.6-7.5,7.8
				c-1,1.6-1.7,3.2-2.3,5c-0.6,1.8-1,3.6-1.3,5.5l-0.3,0c0.2-3.8,1.2-7.6,3-10.9c1.8-3.4,4.4-6.3,7.4-8.6c6.1-4.6,13.7-6.9,21.3-7.1
				c3.8-0.1,7.6,0.4,11.2,1.7c3.6,1.3,7,3.5,9.1,6.6c2.3,3,4.4,6.2,6,9.7c1.6,3.4,2.6,7.2,2.6,11.1c0,3.8-1.1,7.6-2.9,11
				c-0.9,1.7-2,3.3-3.1,4.8c-1.2,1.5-2.4,3-3.8,4.2c-2.9,2.5-6.3,4.3-9.7,5.9c-3.5,1.5-7.1,2.8-10.7,3.9c-7.3,2.2-14.7,3.7-22.1,5
				c-7.5,1.2-15,2.2-22.5,2.8L0.8,128.6z"/>
		</g>
	</g>
	<g class="st3">
		<g>
			<path class="st0" d="M188,89.3c-0.8-1-1.1-2.2-1.5-3.3l-0.5-1.7l-0.4-1.8c-0.4-2.4-0.7-4.8-0.8-7.2c-0.3-4.8,0-9.6,0.8-14.4
				c1.5-9.5,5-18.9,10.7-26.9c2.9-4,6.2-7.6,10-10.7c0.9-0.8,1.9-1.5,2.9-2.2l1.5-1.1l1.6-1c1-0.6,2.1-1.3,3.1-1.9l3.2-1.7
				c1.1-0.6,2.2-1.1,3.3-1.6c1.1-0.5,2.2-1,3.4-1.4l3.5-1.2l1.7-0.6c0.6-0.2,1.2-0.3,1.8-0.5c2.4-0.6,4.7-1.4,7.1-1.8l3.6-0.7
				c1.2-0.2,2.4-0.4,3.6-0.5l3.6-0.5c1.2-0.2,2.4-0.2,3.6-0.3c2.4-0.2,4.8-0.5,7.3-0.4c4.9-0.2,9.9,0.5,14.7,1.4
				c9.7,2.1,18.9,6.1,27,11.8c4.1,2.7,7.8,6,11.4,9.3c1.7,1.8,3.5,3.5,5.1,5.4c0.8,0.9,1.6,1.8,2.4,2.8l2.3,2.9c0.8,1,1.5,2,2.1,3
				c0.7,1,1.4,2,2.1,3c1.2,2.1,2.6,4.2,3.7,6.4c2.4,4.3,4.3,8.8,6,13.4c3.2,9.3,5.1,19.1,4.9,29l0,1.9c0,0.6-0.1,1.2-0.1,1.9
				c-0.1,1.2-0.2,2.5-0.3,3.7c-0.4,2.5-0.7,4.9-1.4,7.3c-0.5,2.4-1.4,4.8-2.1,7.2c-0.4,1.2-1,2.3-1.5,3.5c-0.3,0.6-0.5,1.1-0.8,1.7
				l-0.9,1.6c-0.6,1.1-1.2,2.2-1.8,3.3l-2.1,3.1c-1.4,2-2.9,3.9-4.5,5.8c-3.2,3.7-6.8,7.3-11,10.1c-4.2,2.8-9.1,4.9-14,5.8
				c-5,0.9-10,0.9-14.8,0.7c-4.9-0.3-9.6-0.8-14.4-1.4l-14.2-1.7c-4.7-0.5-9.5-1-14.2-1.4c-4.7-0.4-9.4-0.3-14,0
				c-4.7,0.4-9.3,1.2-13.9,2.4c-4.5,1.2-9,2.9-13.3,4.8c-4.3,1.9-8.5,4.2-12.9,6.2c-2.2,1-4.4,1.9-6.8,2.5c-1.2,0.3-2.4,0.4-3.6,0.4
				c-1.2,0-2.4-0.3-3.6-0.7l0.1-0.3c1.1,0.4,2.3,0.6,3.5,0.6c1.2,0,2.4-0.1,3.5-0.5c2.3-0.6,4.5-1.6,6.6-2.6
				c4.3-2.1,8.4-4.5,12.7-6.5c4.3-2.1,8.8-3.8,13.4-5.2c4.6-1.3,9.3-2.2,14.1-2.7c9.5-1.1,19.1,0.1,28.6,0.9l14.2,1.5
				c4.7,0.5,9.5,1,14.2,1.2c4.8,0.2,9.5,0.1,14.2-0.8c4.7-0.9,9.1-2.8,13-5.4c3.9-2.7,7.3-6,10.4-9.7c1.5-1.8,3-3.7,4.3-5.7l2-3
				c0.6-1,1.1-2.1,1.7-3.1l0.8-1.6c0.2-0.5,0.5-1.1,0.7-1.6c0.5-1.1,1-2.2,1.4-3.3c0.7-2.3,1.5-4.5,2-6.8c0.6-2.3,0.9-4.7,1.3-7
				c0.1-1.2,0.2-2.4,0.3-3.6c0-0.6,0.1-1.2,0.1-1.8l0-1.8c0.2-9.5-1.7-19-4.8-28c-1.7-4.5-3.5-8.9-5.8-13c-1.1-2.1-2.4-4.1-3.6-6.2
				c-0.6-1-1.3-2-2-3c-0.7-1-1.3-2-2.1-2.9l-2.2-2.8c-0.7-0.9-1.5-1.8-2.3-2.7c-1.5-1.8-3.2-3.5-4.9-5.2c-3.5-3.3-7-6.4-11-9.1
				c-7.8-5.5-16.6-9.4-25.9-11.5c-4.7-0.9-9.4-1.6-14.2-1.4c-2.4-0.1-4.8,0.2-7.1,0.3c-1.2,0.1-2.4,0.1-3.6,0.3l-3.5,0.4
				c-1.2,0.2-2.4,0.3-3.5,0.5l-3.5,0.7c-2.4,0.4-4.6,1.1-6.9,1.6c-0.6,0.2-1.2,0.3-1.7,0.5l-1.7,0.6l-3.4,1.1
				c-1.1,0.4-2.2,0.9-3.3,1.4c-1.1,0.5-2.2,0.9-3.2,1.5l-3.2,1.6c-1,0.6-2,1.2-3.1,1.8l-1.5,0.9l-1.4,1c-0.9,0.7-1.9,1.4-2.9,2.1
				c-3.7,3-7,6.5-9.9,10.3c-5.7,7.6-9.3,16.7-11,26c-0.8,4.7-1.2,9.5-1.1,14.2c0.1,2.4,0.3,4.8,0.6,7.1l0.3,1.8l0.4,1.7
				c0.4,1.1,0.6,2.3,1.3,3.2L188,89.3z"/>
		</g>
		<g>
			<path class="st0" d="M201.5,51.2c2.7-5,6.7-9.2,11.3-12.6c4.6-3.4,9.6-6.2,15-8l1-0.4l1-0.3l2.1-0.6l2.1-0.6
				c0.7-0.2,1.4-0.3,2.1-0.4l4.2-0.8c1.4-0.2,2.8-0.3,4.3-0.5c2.8-0.4,5.7-0.4,8.5-0.5c2.8-0.1,5.8,0.1,8.7,0.5
				c1.4,0.2,2.9,0.5,4.3,0.8c1.4,0.4,2.8,0.7,4.2,1.1c2.8,0.9,5.5,2,8.1,3.3c5.2,2.5,10.1,5.7,14.6,9.4c8.9,7.3,16.4,16.4,21.6,26.9
				c1.3,2.6,2.3,5.4,3.2,8.1c0.8,2.8,1.6,5.7,1.9,8.6c0.8,5.9,0.4,12.1-2,17.8c-2.5,5.7-6.8,10.3-11.8,13.6c-2.5,1.7-5.2,3-7.9,4
				c-2.8,1.1-5.6,1.8-8.4,2.4c-5.7,1.2-11.3,1.7-16.9,2c-5.6,0.3-11.2,0.5-16.8,0.9c-5.6,0.3-11.1,0.6-16.6,1.6
				c-2.7,0.4-5.4,1-8.1,1.8c-2.7,0.7-5.3,1.7-7.9,2.7l-0.1-0.3c5-2.5,10.4-4.2,15.9-5.3c5.5-1.1,11.1-1.7,16.6-2.2
				c5.6-0.5,11.2-0.8,16.7-1.3c5.6-0.5,11.1-1.1,16.6-2.4c5.4-1.2,10.7-3.2,15.4-6.3c2.3-1.6,4.4-3.4,6.2-5.5
				c0.5-0.5,0.9-1.1,1.3-1.6l0.6-0.8l0.5-0.9c0.4-0.6,0.8-1.2,1.1-1.8l0.9-1.9c2.1-5.1,2.5-10.9,1.7-16.3c-0.3-2.8-1.1-5.5-1.9-8.1
				c-0.9-2.6-1.9-5.2-3.2-7.7c-4.9-10-12-18.9-20.6-26c-4.3-3.6-9-6.7-13.9-9.2c-5-2.5-10.3-4.4-15.8-5.2c-2.8-0.4-5.5-0.7-8.3-0.6
				c-2.8,0.1-5.6,0-8.4,0.3c-1.4,0.1-2.8,0.2-4.2,0.4l-4.1,0.7c-0.7,0.1-1.4,0.2-2.1,0.4l-2,0.5l-2,0.5l-1,0.3l-1,0.3
				c-5.3,1.7-10.4,4.2-15,7.3c-1.1,0.8-2.2,1.7-3.3,2.5c-1,0.9-2.1,1.8-3.1,2.8c-2,2-3.8,4.1-5.2,6.5L201.5,51.2z"/>
		</g>
		<g>
			<path class="st0" d="M188.3,89.2c-0.5-1.5-0.5-3.2-0.3-4.8c0.2-1.6,0.6-3.2,1.1-4.7c1-3,2.4-5.9,4.1-8.7
				c3.2-5.6,7.3-10.6,12.1-15c4.8-4.3,10.3-8.1,16.6-10.4c6.3-2.3,13.4-2.8,20-1.2c3.3,0.8,6.5,2.2,9.4,3.8c2.9,1.7,5.6,3.7,8.1,5.9
				c2.5,2.2,4.8,4.7,6.7,7.4c2,2.8,3.6,5.8,4.6,9.1c1,3.2,1.7,6.6,1.6,10c0,3.4-0.6,6.7-1.5,9.9c-0.5,1.6-1,3.1-1.6,4.6
				c-0.7,1.5-1.4,2.9-2.3,4.3c-1.7,2.8-3.5,5.4-5.8,7.7l-0.2-0.2c3.8-5,6.5-10.8,8-16.9c1.5-6.1,1.3-12.6-0.8-18.5
				c-2.1-5.9-6.1-11-10.7-15.2c-2.3-2.1-4.8-4-7.5-5.6c-2.7-1.6-5.6-2.8-8.6-3.6c-6-1.6-12.5-1.2-18.5,0.8c-5.9,2-11.4,5.4-16.1,9.5
				c-4.8,4.1-8.9,8.9-12.3,14.1c-1.7,2.6-3.2,5.4-4.4,8.3c-0.6,1.5-1,3-1.3,4.5c-0.3,1.5-0.4,3.1,0,4.6L188.3,89.2z"/>
		</g>
		<g>
			<path class="st0" d="M173.8,128.7c1.9-0.3,3.7-0.6,5.6-1c1.9-0.3,3.7-0.6,5.6-1c3.7-0.7,7.4-1.4,11.1-2.3
				c7.4-1.5,14.7-3.3,21.7-5.7c3.5-1.2,7-2.5,10.3-4c3.3-1.5,6.4-3.3,8.9-5.6c0.6-0.6,1.2-1.1,1.7-1.8c0.6-0.7,1.1-1.4,1.7-2.1
				c1.1-1.4,2-2.9,2.8-4.4c1.6-3,2.5-6.3,2.5-9.6c0.1-3.3-0.8-6.6-2.2-9.8c-1.4-3.2-3.4-6.2-5.5-9.2c-0.6-0.8-1-1.3-1.5-1.9
				c-0.5-0.6-1.1-1.1-1.8-1.6c-1.3-1-2.8-1.7-4.4-2.3c-3.2-1.2-6.7-1.8-10.3-1.9c-7.1-0.1-14.4,1.9-20.4,6c-3,2-5.6,4.6-7.5,7.8
				c-1,1.6-1.7,3.2-2.3,5c-0.6,1.8-1,3.6-1.3,5.5l-0.3,0c0.2-3.8,1.2-7.6,3-10.9c1.8-3.4,4.4-6.3,7.4-8.6c6.1-4.6,13.7-6.9,21.3-7.1
				c3.8-0.1,7.6,0.4,11.2,1.7c3.6,1.3,7,3.5,9.1,6.6c2.3,3,4.4,6.2,6,9.7c1.6,3.4,2.6,7.2,2.6,11.1c0,3.8-1.1,7.6-2.9,11
				c-0.9,1.7-2,3.3-3.1,4.8c-1.2,1.5-2.4,3-3.8,4.2c-2.9,2.5-6.3,4.3-9.7,5.9c-3.5,1.5-7.1,2.8-10.7,3.9c-7.3,2.2-14.7,3.7-22.1,5
				c-7.5,1.2-15,2.2-22.5,2.8L173.8,128.7z"/>
		</g>
	</g>
	<g class="st3">
		<g>
			<path class="st0" d="M359.6,89.4c-0.8-1-1.1-2.2-1.5-3.3l-0.5-1.7l-0.4-1.8c-0.4-2.4-0.7-4.8-0.8-7.2c-0.3-4.8,0-9.6,0.8-14.4
				c1.5-9.5,5-18.9,10.7-26.9c2.9-4,6.2-7.6,10-10.7c0.9-0.8,1.9-1.5,2.9-2.2l1.5-1.1l1.6-1c1-0.6,2.1-1.3,3.1-1.9l3.2-1.7
				c1.1-0.6,2.2-1.1,3.3-1.6c1.1-0.5,2.2-1,3.4-1.4l3.5-1.2l1.7-0.6c0.6-0.2,1.2-0.3,1.8-0.5c2.4-0.6,4.7-1.4,7.1-1.8l3.6-0.7
				c1.2-0.2,2.4-0.4,3.6-0.5l3.6-0.5c1.2-0.2,2.4-0.2,3.6-0.3c2.4-0.2,4.8-0.5,7.3-0.4c4.9-0.2,9.9,0.5,14.7,1.4
				c9.7,2.1,18.9,6.1,27,11.8c4.1,2.7,7.8,6,11.4,9.3c1.7,1.8,3.5,3.5,5.1,5.4c0.8,0.9,1.6,1.8,2.4,2.8l2.3,2.9c0.8,1,1.5,2,2.1,3
				c0.7,1,1.4,2,2.1,3c1.2,2.1,2.6,4.2,3.7,6.4c2.4,4.3,4.3,8.8,6,13.4c3.2,9.3,5.1,19.1,4.9,29l0,1.9c0,0.6-0.1,1.2-0.1,1.9
				c-0.1,1.2-0.2,2.5-0.3,3.7c-0.4,2.5-0.7,4.9-1.4,7.3c-0.5,2.4-1.4,4.8-2.1,7.2c-0.4,1.2-1,2.3-1.5,3.5c-0.3,0.6-0.5,1.1-0.8,1.7
				l-0.9,1.6c-0.6,1.1-1.2,2.2-1.8,3.3l-2.1,3.1c-1.4,2-2.9,3.9-4.5,5.8c-3.2,3.7-6.8,7.3-11,10.1c-4.2,2.8-9.1,4.9-14,5.8
				c-5,0.9-10,0.9-14.8,0.7c-4.9-0.3-9.6-0.8-14.4-1.4l-14.2-1.7c-4.7-0.5-9.5-1-14.2-1.4c-4.7-0.4-9.4-0.3-14,0
				c-4.7,0.4-9.3,1.2-13.9,2.4c-4.5,1.2-9,2.9-13.3,4.8c-4.3,1.9-8.5,4.2-12.9,6.2c-2.2,1-4.4,1.9-6.8,2.5c-1.2,0.3-2.4,0.4-3.6,0.4
				c-1.2,0-2.4-0.3-3.6-0.7l0.1-0.3c1.1,0.4,2.3,0.6,3.5,0.6c1.2,0,2.4-0.1,3.5-0.5c2.3-0.6,4.5-1.6,6.6-2.6
				c4.3-2.1,8.4-4.5,12.7-6.5c4.3-2.1,8.8-3.8,13.4-5.2c4.6-1.3,9.3-2.2,14.1-2.7c9.5-1.1,19.1,0.1,28.6,0.9l14.2,1.5
				c4.7,0.5,9.5,1,14.2,1.2c4.8,0.2,9.5,0.1,14.2-0.8c4.7-0.9,9.1-2.8,13-5.4c3.9-2.7,7.3-6,10.4-9.7c1.5-1.8,3-3.7,4.3-5.7l2-3
				c0.6-1,1.1-2.1,1.7-3.1l0.8-1.6c0.2-0.5,0.5-1.1,0.7-1.6c0.5-1.1,1-2.2,1.4-3.3c0.7-2.3,1.5-4.5,2-6.8c0.6-2.3,0.9-4.7,1.3-7
				c0.1-1.2,0.2-2.4,0.3-3.6c0-0.6,0.1-1.2,0.1-1.8l0-1.8c0.2-9.5-1.7-19-4.8-28c-1.7-4.5-3.5-8.9-5.8-13c-1.1-2.1-2.4-4.1-3.6-6.2
				c-0.6-1-1.3-2-2-3c-0.7-1-1.3-2-2.1-2.9l-2.2-2.8c-0.7-0.9-1.5-1.8-2.3-2.7c-1.5-1.8-3.2-3.5-4.9-5.2c-3.5-3.3-7-6.4-11-9.1
				c-7.8-5.5-16.6-9.4-25.9-11.5c-4.7-0.9-9.4-1.6-14.2-1.4c-2.4-0.1-4.8,0.2-7.1,0.3c-1.2,0.1-2.4,0.1-3.6,0.3l-3.5,0.4
				c-1.2,0.2-2.4,0.3-3.5,0.5l-3.5,0.7c-2.4,0.4-4.6,1.1-6.9,1.6c-0.6,0.2-1.2,0.3-1.7,0.5l-1.7,0.6l-3.4,1.1
				c-1.1,0.4-2.2,0.9-3.3,1.4c-1.1,0.5-2.2,0.9-3.2,1.5l-3.2,1.6c-1,0.6-2,1.2-3.1,1.8l-1.5,0.9l-1.4,1c-0.9,0.7-1.9,1.4-2.9,2.1
				c-3.7,3-7,6.5-9.9,10.3c-5.7,7.6-9.3,16.7-11,26c-0.8,4.7-1.2,9.5-1.1,14.2c0.1,2.4,0.3,4.8,0.6,7.1l0.3,1.8l0.4,1.7
				c0.4,1.1,0.6,2.3,1.3,3.2L359.6,89.4z"/>
		</g>
		<g>
			<path class="st0" d="M373,51.3c2.7-5,6.7-9.2,11.3-12.6c4.6-3.4,9.6-6.2,15-8l1-0.4l1-0.3l2.1-0.6l2.1-0.6
				c0.7-0.2,1.4-0.3,2.1-0.4l4.2-0.8c1.4-0.2,2.8-0.3,4.3-0.5c2.8-0.4,5.7-0.4,8.5-0.5c2.8-0.1,5.8,0.1,8.7,0.5
				c1.4,0.2,2.9,0.5,4.3,0.8c1.4,0.4,2.8,0.7,4.2,1.1c2.8,0.9,5.5,2,8.1,3.3c5.2,2.5,10.1,5.7,14.6,9.4c8.9,7.3,16.4,16.4,21.6,26.9
				c1.3,2.6,2.3,5.4,3.2,8.1c0.8,2.8,1.6,5.7,1.9,8.6c0.8,5.9,0.4,12.1-2,17.8c-2.5,5.7-6.8,10.3-11.8,13.6c-2.5,1.7-5.2,3-7.9,4
				c-2.8,1.1-5.6,1.8-8.4,2.4c-5.7,1.2-11.3,1.7-16.9,2c-5.6,0.3-11.2,0.5-16.8,0.9c-5.6,0.3-11.1,0.6-16.6,1.6
				c-2.7,0.4-5.4,1-8.1,1.8c-2.7,0.7-5.3,1.7-7.9,2.7l-0.1-0.3c5-2.5,10.4-4.2,15.9-5.3c5.5-1.1,11.1-1.7,16.6-2.2
				c5.6-0.5,11.2-0.8,16.7-1.3c5.6-0.5,11.1-1.1,16.6-2.4c5.4-1.2,10.7-3.2,15.4-6.3c2.3-1.6,4.4-3.4,6.2-5.5
				c0.5-0.5,0.9-1.1,1.3-1.6l0.6-0.8l0.5-0.9c0.4-0.6,0.8-1.2,1.1-1.8l0.9-1.9c2.1-5.1,2.5-10.9,1.7-16.3c-0.3-2.8-1.1-5.5-1.9-8.1
				c-0.9-2.6-1.9-5.2-3.2-7.7c-4.9-10-12-18.9-20.6-26c-4.3-3.6-9-6.7-13.9-9.2c-5-2.5-10.3-4.4-15.8-5.2c-2.8-0.4-5.5-0.7-8.3-0.6
				c-2.8,0.1-5.6,0-8.4,0.3c-1.4,0.1-2.8,0.2-4.2,0.4l-4.1,0.7c-0.7,0.1-1.4,0.2-2.1,0.4l-2,0.5l-2,0.5l-1,0.3l-1,0.3
				c-5.3,1.7-10.4,4.2-15,7.3c-1.1,0.8-2.2,1.7-3.3,2.5c-1,0.9-2.1,1.8-3.1,2.8c-2,2-3.8,4.1-5.2,6.5L373,51.3z"/>
		</g>
		<g>
			<path class="st0" d="M359.8,89.3c-0.5-1.5-0.5-3.2-0.3-4.8c0.2-1.6,0.6-3.2,1.1-4.7c1-3,2.4-5.9,4.1-8.7
				c3.2-5.6,7.3-10.6,12.1-15c4.8-4.3,10.3-8.1,16.6-10.4c6.3-2.3,13.4-2.8,20-1.2c3.3,0.8,6.5,2.2,9.4,3.8c2.9,1.7,5.6,3.7,8.1,5.9
				c2.5,2.2,4.8,4.7,6.7,7.4c2,2.8,3.6,5.8,4.6,9.1c1,3.2,1.7,6.6,1.6,10c0,3.4-0.6,6.7-1.5,9.9c-0.5,1.6-1,3.1-1.6,4.6
				c-0.7,1.5-1.4,2.9-2.3,4.3c-1.7,2.8-3.5,5.4-5.8,7.7l-0.2-0.2c3.8-5,6.5-10.8,8-16.9c1.5-6.1,1.3-12.6-0.8-18.5
				c-2.1-5.9-6.1-11-10.7-15.2c-2.3-2.1-4.8-4-7.5-5.6c-2.7-1.6-5.6-2.8-8.6-3.6c-6-1.6-12.5-1.2-18.5,0.8c-5.9,2-11.4,5.4-16.1,9.5
				c-4.8,4.1-8.9,8.9-12.3,14.1c-1.7,2.6-3.2,5.4-4.4,8.3c-0.6,1.5-1,3-1.3,4.5c-0.3,1.5-0.4,3.1,0,4.6L359.8,89.3z"/>
		</g>
		<g>
			<path class="st0" d="M345.3,128.8c1.9-0.3,3.7-0.6,5.6-1c1.9-0.3,3.7-0.6,5.6-1c3.7-0.7,7.4-1.4,11.1-2.3
				c7.4-1.5,14.7-3.3,21.7-5.7c3.5-1.2,7-2.5,10.3-4c3.3-1.5,6.4-3.3,8.9-5.6c0.6-0.6,1.2-1.1,1.7-1.8c0.6-0.7,1.1-1.4,1.7-2.1
				c1.1-1.4,2-2.9,2.8-4.4c1.6-3,2.5-6.3,2.5-9.6c0.1-3.3-0.8-6.6-2.2-9.8c-1.4-3.2-3.4-6.2-5.5-9.2c-0.6-0.8-1-1.3-1.5-1.9
				c-0.5-0.6-1.1-1.1-1.8-1.6c-1.3-1-2.8-1.7-4.4-2.3c-3.2-1.2-6.7-1.8-10.3-1.9c-7.1-0.1-14.4,1.9-20.4,6c-3,2-5.6,4.6-7.5,7.8
				c-1,1.6-1.7,3.2-2.3,5c-0.6,1.8-1,3.6-1.3,5.5l-0.3,0c0.2-3.8,1.2-7.6,3-10.9c1.8-3.4,4.4-6.3,7.4-8.6c6.1-4.6,13.7-6.9,21.3-7.1
				c3.8-0.1,7.6,0.4,11.2,1.7c3.6,1.3,7,3.5,9.1,6.6c2.3,3,4.4,6.2,6,9.7c1.6,3.4,2.6,7.2,2.6,11.1c0,3.8-1.1,7.6-2.9,11
				c-0.9,1.7-2,3.3-3.1,4.8c-1.2,1.5-2.4,3-3.8,4.2c-2.9,2.5-6.3,4.3-9.7,5.9c-3.5,1.5-7.1,2.8-10.7,3.9c-7.3,2.2-14.7,3.7-22.1,5
				c-7.5,1.2-15,2.2-22.5,2.8L345.3,128.8z"/>
		</g>
	</g>
	<g class="st3">
		<g>
			<path class="st0" d="M532.6,89.5c-0.8-1-1.1-2.2-1.5-3.3l-0.5-1.7l-0.4-1.8c-0.4-2.4-0.7-4.8-0.8-7.2c-0.3-4.8,0-9.6,0.8-14.4
				c1.5-9.5,5-18.9,10.7-26.9c2.9-4,6.2-7.6,10-10.7c0.9-0.8,1.9-1.5,2.9-2.2l1.5-1.1l1.6-1c1-0.6,2.1-1.3,3.1-1.9l3.2-1.7
				c1.1-0.6,2.2-1.1,3.3-1.6c1.1-0.5,2.2-1,3.4-1.4l3.5-1.2l1.7-0.6c0.6-0.2,1.2-0.3,1.8-0.5c2.4-0.6,4.7-1.4,7.1-1.8l3.6-0.7
				c1.2-0.2,2.4-0.4,3.6-0.5l3.6-0.5c1.2-0.2,2.4-0.2,3.6-0.3c2.4-0.2,4.8-0.5,7.3-0.4c4.9-0.2,9.9,0.5,14.7,1.4
				c9.7,2.1,18.9,6.1,27,11.8c4.1,2.7,7.8,6,11.4,9.3c1.7,1.8,3.5,3.5,5.1,5.4c0.8,0.9,1.6,1.8,2.4,2.8l2.3,2.9c0.8,1,1.5,2,2.1,3
				c0.7,1,1.4,2,2.1,3c1.2,2.1,2.6,4.2,3.7,6.4c2.4,4.3,4.3,8.8,6,13.4c3.2,9.3,5.1,19.1,4.9,29l0,1.9c0,0.6-0.1,1.2-0.1,1.9
				c-0.1,1.2-0.2,2.5-0.3,3.7c-0.4,2.5-0.7,4.9-1.4,7.3c-0.5,2.4-1.4,4.8-2.1,7.2c-0.4,1.2-1,2.3-1.5,3.5c-0.3,0.6-0.5,1.1-0.8,1.7
				l-0.9,1.6c-0.6,1.1-1.2,2.2-1.8,3.3l-2.1,3.1c-1.4,2-2.9,3.9-4.5,5.8c-3.2,3.7-6.8,7.3-11,10.1c-4.2,2.8-9.1,4.9-14,5.8
				c-5,0.9-10,0.9-14.8,0.7c-4.9-0.3-9.6-0.8-14.4-1.4l-14.2-1.7c-4.7-0.5-9.5-1-14.2-1.4c-4.7-0.4-9.4-0.3-14,0
				c-4.7,0.4-9.3,1.2-13.9,2.4c-4.5,1.2-9,2.9-13.3,4.8c-4.3,1.9-8.5,4.2-12.9,6.2c-2.2,1-4.4,1.9-6.8,2.5c-1.2,0.3-2.4,0.4-3.6,0.4
				c-1.2,0-2.4-0.3-3.6-0.7l0.1-0.3c1.1,0.4,2.3,0.6,3.5,0.6c1.2,0,2.4-0.1,3.5-0.5c2.3-0.6,4.5-1.6,6.6-2.6
				c4.3-2.1,8.4-4.5,12.7-6.5c4.3-2.1,8.8-3.8,13.4-5.2c4.6-1.3,9.3-2.2,14.1-2.7c9.5-1.1,19.1,0.1,28.6,0.9l14.2,1.5
				c4.7,0.5,9.5,1,14.2,1.2c4.8,0.2,9.5,0.1,14.2-0.8c4.7-0.9,9.1-2.8,13-5.4c3.9-2.7,7.3-6,10.4-9.7c1.5-1.8,3-3.7,4.3-5.7l2-3
				c0.6-1,1.1-2.1,1.7-3.1l0.8-1.6c0.2-0.5,0.5-1.1,0.7-1.6c0.5-1.1,1-2.2,1.4-3.3c0.7-2.3,1.5-4.5,2-6.8c0.6-2.3,0.9-4.7,1.3-7
				c0.1-1.2,0.2-2.4,0.3-3.6c0-0.6,0.1-1.2,0.1-1.8l0-1.8c0.2-9.5-1.7-19-4.8-28c-1.7-4.5-3.5-8.9-5.8-13c-1.1-2.1-2.4-4.1-3.6-6.2
				c-0.6-1-1.3-2-2-3c-0.7-1-1.3-2-2.1-2.9l-2.2-2.8c-0.7-0.9-1.5-1.8-2.3-2.7c-1.5-1.8-3.2-3.5-4.9-5.2c-3.5-3.3-7-6.4-11-9.1
				c-7.8-5.5-16.6-9.4-25.9-11.5c-4.7-0.9-9.4-1.6-14.2-1.4c-2.4-0.1-4.8,0.2-7.1,0.3c-1.2,0.1-2.4,0.1-3.6,0.3l-3.5,0.4
				c-1.2,0.2-2.4,0.3-3.5,0.5l-3.5,0.7c-2.4,0.4-4.6,1.1-6.9,1.6c-0.6,0.2-1.2,0.3-1.7,0.5l-1.7,0.6l-3.4,1.1
				c-1.1,0.4-2.2,0.9-3.3,1.4c-1.1,0.5-2.2,0.9-3.2,1.5L561,19c-1,0.6-2,1.2-3.1,1.8l-1.5,0.9l-1.4,1c-0.9,0.7-1.9,1.4-2.9,2.1
				c-3.7,3-7,6.5-9.9,10.3c-5.7,7.6-9.3,16.7-11,26c-0.8,4.7-1.2,9.5-1.1,14.2c0.1,2.4,0.3,4.8,0.6,7.1l0.3,1.8l0.4,1.7
				c0.4,1.1,0.6,2.3,1.3,3.2L532.6,89.5z"/>
		</g>
		<g>
			<path class="st0" d="M546.1,51.4c2.7-5,6.7-9.2,11.3-12.6c4.6-3.4,9.6-6.2,15-8l1-0.4l1-0.3l2.1-0.6l2.1-0.6
				c0.7-0.2,1.4-0.3,2.1-0.4l4.2-0.8c1.4-0.2,2.8-0.3,4.3-0.5c2.8-0.4,5.7-0.4,8.5-0.5c2.8-0.1,5.8,0.1,8.7,0.5
				c1.4,0.2,2.9,0.5,4.3,0.8c1.4,0.4,2.8,0.7,4.2,1.1c2.8,0.9,5.5,2,8.1,3.3c5.2,2.5,10.1,5.7,14.6,9.4c8.9,7.3,16.4,16.4,21.6,26.9
				c1.3,2.6,2.3,5.4,3.2,8.1c0.8,2.8,1.6,5.7,1.9,8.6c0.8,5.9,0.4,12.1-2,17.8c-2.5,5.7-6.8,10.3-11.8,13.6c-2.5,1.7-5.2,3-7.9,4
				c-2.8,1.1-5.6,1.8-8.4,2.4c-5.7,1.2-11.3,1.7-16.9,2c-5.6,0.3-11.2,0.5-16.8,0.9c-5.6,0.3-11.1,0.6-16.6,1.6
				c-2.7,0.4-5.4,1-8.1,1.8c-2.7,0.7-5.3,1.7-7.9,2.7l-0.1-0.3c5-2.5,10.4-4.2,15.9-5.3c5.5-1.1,11.1-1.7,16.6-2.2
				c5.6-0.5,11.2-0.8,16.7-1.3c5.6-0.5,11.1-1.1,16.6-2.4c5.4-1.2,10.7-3.2,15.4-6.3c2.3-1.6,4.4-3.4,6.2-5.5
				c0.5-0.5,0.9-1.1,1.3-1.6l0.6-0.8l0.5-0.9c0.4-0.6,0.8-1.2,1.1-1.8l0.9-1.9c2.1-5.1,2.5-10.9,1.7-16.3c-0.3-2.8-1.1-5.5-1.9-8.1
				c-0.9-2.6-1.9-5.2-3.2-7.7c-4.9-10-12-18.9-20.6-26c-4.3-3.6-9-6.7-13.9-9.2c-5-2.5-10.3-4.4-15.8-5.2c-2.8-0.4-5.5-0.7-8.3-0.6
				c-2.8,0.1-5.6,0-8.4,0.3c-1.4,0.1-2.8,0.2-4.2,0.4l-4.1,0.7c-0.7,0.1-1.4,0.2-2.1,0.4l-2,0.5l-2,0.5l-1,0.3l-1,0.3
				c-5.3,1.7-10.4,4.2-15,7.3c-1.1,0.8-2.2,1.7-3.3,2.5c-1,0.9-2.1,1.8-3.1,2.8c-2,2-3.8,4.1-5.2,6.5L546.1,51.4z"/>
		</g>
		<g>
			<path class="st0" d="M532.8,89.3c-0.5-1.5-0.5-3.2-0.3-4.8c0.2-1.6,0.6-3.2,1.1-4.7c1-3,2.4-5.9,4.1-8.7
				c3.2-5.6,7.3-10.6,12.1-15c4.8-4.3,10.3-8.1,16.6-10.4c6.3-2.3,13.4-2.8,20-1.2c3.3,0.8,6.5,2.2,9.4,3.8c2.9,1.7,5.6,3.7,8.1,5.9
				c2.5,2.2,4.8,4.7,6.7,7.4c2,2.8,3.6,5.8,4.6,9.1c1,3.2,1.7,6.6,1.6,10c0,3.4-0.6,6.7-1.5,9.9c-0.5,1.6-1,3.1-1.6,4.6
				c-0.7,1.5-1.4,2.9-2.3,4.3c-1.7,2.8-3.5,5.4-5.8,7.7l-0.2-0.2c3.8-5,6.5-10.8,8-16.9c1.5-6.1,1.3-12.6-0.8-18.5
				c-2.1-5.9-6.1-11-10.7-15.2c-2.3-2.1-4.8-4-7.5-5.6c-2.7-1.6-5.6-2.8-8.6-3.6c-6-1.6-12.5-1.2-18.5,0.8c-5.9,2-11.4,5.4-16.1,9.5
				c-4.8,4.1-8.9,8.9-12.3,14.1c-1.7,2.6-3.2,5.4-4.4,8.3c-0.6,1.5-1,3-1.3,4.5c-0.3,1.5-0.4,3.1,0,4.6L532.8,89.3z"/>
		</g>
		<g>
			<path class="st0" d="M518.4,128.8c1.9-0.3,3.7-0.6,5.6-1c1.9-0.3,3.7-0.6,5.6-1c3.7-0.7,7.4-1.4,11.1-2.3
				c7.4-1.5,14.7-3.3,21.7-5.7c3.5-1.2,7-2.5,10.3-4c3.3-1.5,6.4-3.3,8.9-5.6c0.6-0.6,1.2-1.1,1.7-1.8c0.6-0.7,1.1-1.4,1.7-2.1
				c1.1-1.4,2-2.9,2.8-4.4c1.6-3,2.5-6.3,2.5-9.6c0.1-3.3-0.8-6.6-2.2-9.8c-1.4-3.2-3.4-6.2-5.5-9.2c-0.6-0.8-1-1.3-1.5-1.9
				c-0.5-0.6-1.1-1.1-1.8-1.6c-1.3-1-2.8-1.7-4.4-2.3c-3.2-1.2-6.7-1.8-10.3-1.9c-7.1-0.1-14.4,1.9-20.4,6c-3,2-5.6,4.6-7.5,7.8
				c-1,1.6-1.7,3.2-2.3,5c-0.6,1.8-1,3.6-1.3,5.5l-0.3,0c0.2-3.8,1.2-7.6,3-10.9c1.8-3.4,4.4-6.3,7.4-8.6c6.1-4.6,13.7-6.9,21.3-7.1
				c3.8-0.1,7.6,0.4,11.2,1.7c3.6,1.3,7,3.5,9.1,6.6c2.3,3,4.4,6.2,6,9.7c1.6,3.4,2.6,7.2,2.6,11.1c0,3.8-1.1,7.6-2.9,11
				c-0.9,1.7-2,3.3-3.1,4.8c-1.2,1.5-2.4,3-3.8,4.2c-2.9,2.5-6.3,4.3-9.7,5.9c-3.5,1.5-7.1,2.8-10.7,3.9c-7.3,2.2-14.7,3.7-22.1,5
				c-7.5,1.2-15,2.2-22.5,2.8L518.4,128.8z"/>
		</g>
	</g>
	<g class="st3">
		<g>
			<path class="st0" d="M704.6,90.6c-0.8-1-1.1-2.2-1.5-3.3l-0.5-1.7l-0.4-1.8c-0.4-2.4-0.7-4.8-0.8-7.2c-0.3-4.8,0-9.6,0.8-14.4
				c1.5-9.5,5-18.9,10.7-26.9c2.9-4,6.2-7.6,10-10.7c0.9-0.8,1.9-1.5,2.9-2.2l1.5-1.1l1.6-1c1-0.6,2.1-1.3,3.1-1.9l3.2-1.7
				c1.1-0.6,2.2-1.1,3.3-1.6c1.1-0.5,2.2-1,3.4-1.4l3.5-1.2l1.7-0.6c0.6-0.2,1.2-0.3,1.8-0.5c2.4-0.6,4.7-1.4,7.1-1.8l3.6-0.7
				c1.2-0.2,2.4-0.4,3.6-0.5l3.6-0.5c1.2-0.2,2.4-0.2,3.6-0.3c2.4-0.2,4.8-0.5,7.3-0.4c4.9-0.2,9.9,0.5,14.7,1.4
				c9.7,2.1,18.9,6.1,27,11.8c4.1,2.7,7.8,6,11.4,9.3c1.7,1.8,3.5,3.5,5.1,5.4c0.8,0.9,1.6,1.8,2.4,2.8l2.3,2.9c0.8,1,1.5,2,2.1,3
				c0.7,1,1.4,2,2.1,3c1.2,2.1,2.6,4.2,3.7,6.4c2.4,4.3,4.3,8.8,6,13.4c3.2,9.3,5.1,19.1,4.9,29l0,1.9c0,0.6-0.1,1.2-0.1,1.9
				c-0.1,1.2-0.2,2.5-0.3,3.7c-0.4,2.5-0.7,4.9-1.4,7.3c-0.5,2.4-1.4,4.8-2.1,7.2c-0.4,1.2-1,2.3-1.5,3.5c-0.3,0.6-0.5,1.1-0.8,1.7
				l-0.9,1.6c-0.6,1.1-1.2,2.2-1.8,3.3l-2.1,3.1c-1.4,2-2.9,3.9-4.5,5.8c-3.2,3.7-6.8,7.3-11,10.1c-4.2,2.8-9.1,4.9-14,5.8
				c-5,0.9-10,0.9-14.8,0.7c-4.9-0.3-9.6-0.8-14.4-1.4l-14.2-1.7c-4.7-0.5-9.5-1-14.2-1.4c-4.7-0.4-9.4-0.3-14,0
				c-4.7,0.4-9.3,1.2-13.9,2.4c-4.5,1.2-9,2.9-13.3,4.8c-4.3,1.9-8.5,4.2-12.9,6.2c-2.2,1-4.4,1.9-6.8,2.5c-1.2,0.3-2.4,0.4-3.6,0.4
				c-1.2,0-2.4-0.3-3.6-0.7l0.1-0.3c1.1,0.4,2.3,0.6,3.5,0.6c1.2,0,2.4-0.1,3.5-0.5c2.3-0.6,4.5-1.6,6.6-2.6
				c4.3-2.1,8.4-4.5,12.7-6.5c4.3-2.1,8.8-3.8,13.4-5.2c4.6-1.3,9.3-2.2,14.1-2.7c9.5-1.1,19.1,0.1,28.6,0.9l14.2,1.5
				c4.7,0.5,9.5,1,14.2,1.2c4.8,0.2,9.5,0.1,14.2-0.8c4.7-0.9,9.1-2.8,13-5.4c3.9-2.7,7.3-6,10.4-9.7c1.5-1.8,3-3.7,4.3-5.7l2-3
				c0.6-1,1.1-2.1,1.7-3.1l0.8-1.6c0.2-0.5,0.5-1.1,0.7-1.6c0.5-1.1,1-2.2,1.4-3.3c0.7-2.3,1.5-4.5,2-6.8c0.6-2.3,0.9-4.7,1.3-7
				c0.1-1.2,0.2-2.4,0.3-3.6c0-0.6,0.1-1.2,0.1-1.8l0-1.8c0.2-9.5-1.7-19-4.8-28c-1.7-4.5-3.5-8.9-5.8-13c-1.1-2.1-2.4-4.1-3.6-6.2
				c-0.6-1-1.3-2-2-3c-0.7-1-1.3-2-2.1-2.9l-2.2-2.8c-0.7-0.9-1.5-1.8-2.3-2.7c-1.5-1.8-3.2-3.5-4.9-5.2c-3.5-3.3-7-6.4-11-9.1
				c-7.8-5.5-16.6-9.4-25.9-11.5c-4.7-0.9-9.4-1.6-14.2-1.4c-2.4-0.1-4.8,0.2-7.1,0.3c-1.2,0.1-2.4,0.1-3.6,0.3l-3.5,0.4
				c-1.2,0.2-2.4,0.3-3.5,0.5l-3.5,0.7c-2.4,0.4-4.6,1.1-6.9,1.6c-0.6,0.2-1.2,0.3-1.7,0.5l-1.7,0.6l-3.4,1.1
				c-1.1,0.4-2.2,0.9-3.3,1.4c-1.1,0.5-2.2,0.9-3.2,1.5l-3.2,1.6c-1,0.6-2,1.2-3.1,1.8l-1.5,0.9l-1.4,1c-0.9,0.7-1.9,1.4-2.9,2.1
				c-3.7,3-7,6.5-9.9,10.3c-5.7,7.6-9.3,16.7-11,26c-0.8,4.7-1.2,9.5-1.1,14.2c0.1,2.4,0.3,4.8,0.6,7.1l0.3,1.8l0.4,1.7
				c0.4,1.1,0.6,2.3,1.3,3.2L704.6,90.6z"/>
		</g>
		<g>
			<path class="st0" d="M718.1,52.5c2.7-5,6.7-9.2,11.3-12.6c4.6-3.4,9.6-6.2,15-8l1-0.4l1-0.3l2.1-0.6l2.1-0.6
				c0.7-0.2,1.4-0.3,2.1-0.4l4.2-0.8c1.4-0.2,2.8-0.3,4.3-0.5c2.8-0.4,5.7-0.4,8.5-0.5c2.8-0.1,5.8,0.1,8.7,0.5
				c1.4,0.2,2.9,0.5,4.3,0.8c1.4,0.4,2.8,0.7,4.2,1.1c2.8,0.9,5.5,2,8.1,3.3c5.2,2.5,10.1,5.7,14.6,9.4c8.9,7.3,16.4,16.4,21.6,26.9
				c1.3,2.6,2.3,5.4,3.2,8.1c0.8,2.8,1.6,5.7,1.9,8.6c0.8,5.9,0.4,12.1-2,17.8c-2.5,5.7-6.8,10.3-11.8,13.6c-2.5,1.7-5.2,3-7.9,4
				c-2.8,1.1-5.6,1.8-8.4,2.4c-5.7,1.2-11.3,1.7-16.9,2c-5.6,0.3-11.2,0.5-16.8,0.9c-5.6,0.3-11.1,0.6-16.6,1.6
				c-2.7,0.4-5.4,1-8.1,1.8c-2.7,0.7-5.3,1.7-7.9,2.7l-0.1-0.3c5-2.5,10.4-4.2,15.9-5.3c5.5-1.1,11.1-1.7,16.6-2.2
				c5.6-0.5,11.2-0.8,16.7-1.3c5.6-0.5,11.1-1.1,16.6-2.4c5.4-1.2,10.7-3.2,15.4-6.3c2.3-1.6,4.4-3.4,6.2-5.5
				c0.5-0.5,0.9-1.1,1.3-1.6l0.6-0.8l0.5-0.9c0.4-0.6,0.8-1.2,1.1-1.8l0.9-1.9c2.1-5.1,2.5-10.9,1.7-16.3c-0.3-2.8-1.1-5.5-1.9-8.1
				c-0.9-2.6-1.9-5.2-3.2-7.7c-4.9-10-12-18.9-20.6-26c-4.3-3.6-9-6.7-13.9-9.2c-5-2.5-10.3-4.4-15.8-5.2c-2.8-0.4-5.5-0.7-8.3-0.6
				c-2.8,0.1-5.6,0-8.4,0.3c-1.4,0.1-2.8,0.2-4.2,0.4l-4.1,0.7c-0.7,0.1-1.4,0.2-2.1,0.4l-2,0.5l-2,0.5l-1,0.3l-1,0.3
				c-5.3,1.7-10.4,4.2-15,7.3c-1.1,0.8-2.2,1.7-3.3,2.5c-1,0.9-2.1,1.8-3.1,2.8c-2,2-3.8,4.1-5.2,6.5L718.1,52.5z"/>
		</g>
		<g>
			<path class="st0" d="M704.8,90.5c-0.5-1.5-0.5-3.2-0.3-4.8c0.2-1.6,0.6-3.2,1.1-4.7c1-3,2.4-5.9,4.1-8.7
				c3.2-5.6,7.3-10.6,12.1-15c4.8-4.3,10.3-8.1,16.6-10.4c6.3-2.3,13.4-2.8,20-1.2c3.3,0.8,6.5,2.2,9.4,3.8c2.9,1.7,5.6,3.7,8.1,5.9
				c2.5,2.2,4.8,4.7,6.7,7.4c2,2.8,3.6,5.8,4.6,9.1c1,3.2,1.7,6.6,1.6,10c0,3.4-0.6,6.7-1.5,9.9c-0.5,1.6-1,3.1-1.6,4.6
				c-0.7,1.5-1.4,2.9-2.3,4.3c-1.7,2.8-3.5,5.4-5.8,7.7l-0.2-0.2c3.8-5,6.5-10.8,8-16.9c1.5-6.1,1.3-12.6-0.8-18.5
				c-2.1-5.9-6.1-11-10.7-15.2c-2.3-2.1-4.8-4-7.5-5.6c-2.7-1.6-5.6-2.8-8.6-3.6c-6-1.6-12.5-1.2-18.5,0.8c-5.9,2-11.4,5.4-16.1,9.5
				c-4.8,4.1-8.9,8.9-12.3,14.1c-1.7,2.6-3.2,5.4-4.4,8.3c-0.6,1.5-1,3-1.3,4.5c-0.3,1.5-0.4,3.1,0,4.6L704.8,90.5z"/>
		</g>
		<g>
			<path class="st0" d="M690.4,130c1.9-0.3,3.7-0.6,5.6-1c1.9-0.3,3.7-0.6,5.6-1c3.7-0.7,7.4-1.4,11.1-2.3
				c7.4-1.5,14.7-3.3,21.7-5.7c3.5-1.2,7-2.5,10.3-4c3.3-1.5,6.4-3.3,8.9-5.6c0.6-0.6,1.2-1.1,1.7-1.8c0.6-0.7,1.1-1.4,1.7-2.1
				c1.1-1.4,2-2.9,2.8-4.4c1.6-3,2.5-6.3,2.5-9.6c0.1-3.3-0.8-6.6-2.2-9.8c-1.4-3.2-3.4-6.2-5.5-9.2c-0.6-0.8-1-1.3-1.5-1.9
				c-0.5-0.6-1.1-1.1-1.8-1.6c-1.3-1-2.8-1.7-4.4-2.3c-3.2-1.2-6.7-1.8-10.3-1.9c-7.1-0.1-14.4,1.9-20.4,6c-3,2-5.6,4.6-7.5,7.8
				c-1,1.6-1.7,3.2-2.3,5c-0.6,1.8-1,3.6-1.3,5.5l-0.3,0c0.2-3.8,1.2-7.6,3-10.9c1.8-3.4,4.4-6.3,7.4-8.6c6.1-4.6,13.7-6.9,21.3-7.1
				c3.8-0.1,7.6,0.4,11.2,1.7c3.6,1.3,7,3.5,9.1,6.6c2.3,3,4.4,6.2,6,9.7c1.6,3.4,2.6,7.2,2.6,11.1c0,3.8-1.1,7.6-2.9,11
				c-0.9,1.7-2,3.3-3.1,4.8c-1.2,1.5-2.4,3-3.8,4.2c-2.9,2.5-6.3,4.3-9.7,5.9c-3.5,1.5-7.1,2.8-10.7,3.9c-7.3,2.2-14.7,3.7-22.1,5
				c-7.5,1.2-15,2.2-22.5,2.8L690.4,130z"/>
		</g>
	</g>
	<g class="st3">
		<g>
			<path class="st0" d="M874.1,89.6c-0.8-1-1.1-2.2-1.5-3.3l-0.5-1.7l-0.4-1.8c-0.4-2.4-0.7-4.8-0.8-7.2c-0.3-4.8,0-9.6,0.8-14.4
				c1.5-9.5,5-18.9,10.7-26.9c2.9-4,6.2-7.6,10-10.7c0.9-0.8,1.9-1.5,2.9-2.2l1.5-1.1l1.6-1c1-0.6,2.1-1.3,3.1-1.9l3.2-1.7
				c1.1-0.6,2.2-1.1,3.3-1.6c1.1-0.5,2.2-1,3.4-1.4l3.5-1.2l1.7-0.6c0.6-0.2,1.2-0.3,1.8-0.5c2.4-0.6,4.7-1.4,7.1-1.8l3.6-0.7
				c1.2-0.2,2.4-0.4,3.6-0.5l3.6-0.5c1.2-0.2,2.4-0.2,3.6-0.3c2.4-0.2,4.8-0.5,7.3-0.4c4.9-0.2,9.9,0.5,14.7,1.4
				c9.7,2.1,18.9,6.1,27,11.8c4.1,2.7,7.8,6,11.4,9.3c1.7,1.8,3.5,3.5,5.1,5.4c0.8,0.9,1.6,1.8,2.4,2.8l2.3,2.9c0.8,1,1.5,2,2.1,3
				c0.7,1,1.4,2,2.1,3c1.2,2.1,2.6,4.2,3.7,6.4c2.4,4.3,4.3,8.8,6,13.4c3.2,9.3,5.1,19.1,4.9,29l0,1.9c0,0.6-0.1,1.2-0.1,1.9
				c-0.1,1.2-0.2,2.5-0.3,3.7c-0.4,2.5-0.7,4.9-1.4,7.3c-0.5,2.4-1.4,4.8-2.1,7.2c-0.4,1.2-1,2.3-1.5,3.5c-0.3,0.6-0.5,1.1-0.8,1.7
				l-0.9,1.6c-0.6,1.1-1.2,2.2-1.8,3.3l-2.1,3.1c-1.4,2-2.9,3.9-4.5,5.8c-3.2,3.7-6.8,7.3-11,10.1c-4.2,2.8-9.1,4.9-14,5.8
				c-5,0.9-10,0.9-14.8,0.7c-4.9-0.3-9.6-0.8-14.4-1.4l-14.2-1.7c-4.7-0.5-9.5-1-14.2-1.4c-4.7-0.4-9.4-0.3-14,0
				c-4.7,0.4-9.3,1.2-13.9,2.4c-4.5,1.2-9,2.9-13.3,4.8c-4.3,1.9-8.5,4.2-12.9,6.2c-2.2,1-4.4,1.9-6.8,2.5c-1.2,0.3-2.4,0.4-3.6,0.4
				c-1.2,0-2.4-0.3-3.6-0.7l0.1-0.3c1.1,0.4,2.3,0.6,3.5,0.6c1.2,0,2.4-0.1,3.5-0.5c2.3-0.6,4.5-1.6,6.6-2.6
				c4.3-2.1,8.4-4.5,12.7-6.5c4.3-2.1,8.8-3.8,13.4-5.2c4.6-1.3,9.3-2.2,14.1-2.7c9.5-1.1,19.1,0.1,28.6,0.9l14.2,1.5
				c4.7,0.5,9.5,1,14.2,1.2c4.8,0.2,9.5,0.1,14.2-0.8c4.7-0.9,9.1-2.8,13-5.4c3.9-2.7,7.3-6,10.4-9.7c1.5-1.8,3-3.7,4.3-5.7l2-3
				c0.6-1,1.1-2.1,1.7-3.1l0.8-1.6c0.2-0.5,0.5-1.1,0.7-1.6c0.5-1.1,1-2.2,1.4-3.3c0.7-2.3,1.5-4.5,2-6.8c0.6-2.3,0.9-4.7,1.3-7
				c0.1-1.2,0.2-2.4,0.3-3.6c0-0.6,0.1-1.2,0.1-1.8l0-1.8c0.2-9.5-1.7-19-4.8-28c-1.7-4.5-3.5-8.9-5.8-13c-1.1-2.1-2.4-4.1-3.6-6.2
				c-0.6-1-1.3-2-2-3c-0.7-1-1.3-2-2.1-2.9l-2.2-2.8c-0.7-0.9-1.5-1.8-2.3-2.7c-1.5-1.8-3.2-3.5-4.9-5.2c-3.5-3.3-7-6.4-11-9.1
				c-7.8-5.5-16.6-9.4-25.9-11.5c-4.7-0.9-9.4-1.6-14.2-1.4c-2.4-0.1-4.8,0.2-7.1,0.3c-1.2,0.1-2.4,0.1-3.6,0.3L933,9.7
				c-1.2,0.2-2.4,0.3-3.5,0.5l-3.5,0.7c-2.4,0.4-4.6,1.1-6.9,1.6c-0.6,0.2-1.2,0.3-1.7,0.5l-1.7,0.6l-3.4,1.1
				c-1.1,0.4-2.2,0.9-3.3,1.4c-1.1,0.5-2.2,0.9-3.2,1.5l-3.2,1.6c-1,0.6-2,1.2-3.1,1.8l-1.5,0.9l-1.4,1c-0.9,0.7-1.9,1.4-2.9,2.1
				c-3.7,3-7,6.5-9.9,10.3c-5.7,7.6-9.3,16.7-11,26c-0.8,4.7-1.2,9.5-1.1,14.2c0.1,2.4,0.3,4.8,0.6,7.1l0.3,1.8l0.4,1.7
				c0.4,1.1,0.6,2.3,1.3,3.2L874.1,89.6z"/>
		</g>
		<g>
			<path class="st0" d="M887.6,51.5c2.7-5,6.7-9.2,11.3-12.6c4.6-3.4,9.6-6.2,15-8l1-0.4l1-0.3l2.1-0.6l2.1-0.6
				c0.7-0.2,1.4-0.3,2.1-0.4l4.2-0.8c1.4-0.2,2.8-0.3,4.3-0.5c2.8-0.4,5.7-0.4,8.5-0.5c2.8-0.1,5.8,0.1,8.7,0.5
				c1.4,0.2,2.9,0.5,4.3,0.8c1.4,0.4,2.8,0.7,4.2,1.1c2.8,0.9,5.5,2,8.1,3.3c5.2,2.5,10.1,5.7,14.6,9.4c8.9,7.3,16.4,16.4,21.6,26.9
				c1.3,2.6,2.3,5.4,3.2,8.1c0.8,2.8,1.6,5.7,1.9,8.6c0.8,5.9,0.4,12.1-2,17.8c-2.5,5.7-6.8,10.3-11.8,13.6c-2.5,1.7-5.2,3-7.9,4
				c-2.8,1.1-5.6,1.8-8.4,2.4c-5.7,1.2-11.3,1.7-16.9,2c-5.6,0.3-11.2,0.5-16.8,0.9c-5.6,0.3-11.1,0.6-16.6,1.6
				c-2.7,0.4-5.4,1-8.1,1.8c-2.7,0.7-5.3,1.7-7.9,2.7l-0.1-0.3c5-2.5,10.4-4.2,15.9-5.3c5.5-1.1,11.1-1.7,16.6-2.2
				c5.6-0.5,11.2-0.8,16.7-1.3c5.6-0.5,11.1-1.1,16.6-2.4c5.4-1.2,10.7-3.2,15.4-6.3c2.3-1.6,4.4-3.4,6.2-5.5
				c0.5-0.5,0.9-1.1,1.3-1.6l0.6-0.8l0.5-0.9c0.4-0.6,0.8-1.2,1.1-1.8l0.9-1.9c2.1-5.1,2.5-10.9,1.7-16.3c-0.3-2.8-1.1-5.5-1.9-8.1
				c-0.9-2.6-1.9-5.2-3.2-7.7c-4.9-10-12-18.9-20.6-26c-4.3-3.6-9-6.7-13.9-9.2c-5-2.5-10.3-4.4-15.8-5.2c-2.8-0.4-5.5-0.7-8.3-0.6
				c-2.8,0.1-5.6,0-8.4,0.3c-1.4,0.1-2.8,0.2-4.2,0.4l-4.1,0.7c-0.7,0.1-1.4,0.2-2.1,0.4l-2,0.5l-2,0.5l-1,0.3l-1,0.3
				c-5.3,1.7-10.4,4.2-15,7.3c-1.1,0.8-2.2,1.7-3.3,2.5c-1,0.9-2.1,1.8-3.1,2.8c-2,2-3.8,4.1-5.2,6.5L887.6,51.5z"/>
		</g>
		<g>
			<path class="st0" d="M874.3,89.5c-0.5-1.5-0.5-3.2-0.3-4.8c0.2-1.6,0.6-3.2,1.1-4.7c1-3,2.4-5.9,4.1-8.7
				c3.2-5.6,7.3-10.6,12.1-15c4.8-4.3,10.3-8.1,16.6-10.4c6.3-2.3,13.4-2.8,20-1.2c3.3,0.8,6.5,2.2,9.4,3.8c2.9,1.7,5.6,3.7,8.1,5.9
				c2.5,2.2,4.8,4.7,6.7,7.4c2,2.8,3.6,5.8,4.6,9.1c1,3.2,1.7,6.6,1.6,10c0,3.4-0.6,6.7-1.5,9.9c-0.5,1.6-1,3.1-1.6,4.6
				c-0.7,1.5-1.4,2.9-2.3,4.3c-1.7,2.8-3.5,5.4-5.8,7.7l-0.2-0.2c3.8-5,6.5-10.8,8-16.9c1.5-6.1,1.3-12.6-0.8-18.5
				c-2.1-5.9-6.1-11-10.7-15.2c-2.3-2.1-4.8-4-7.5-5.6c-2.7-1.6-5.6-2.8-8.6-3.6c-6-1.6-12.5-1.2-18.5,0.8c-5.9,2-11.4,5.4-16.1,9.5
				c-4.8,4.1-8.9,8.9-12.3,14.1c-1.7,2.6-3.2,5.4-4.4,8.3c-0.6,1.5-1,3-1.3,4.5c-0.3,1.5-0.4,3.1,0,4.6L874.3,89.5z"/>
		</g>
		<g>
			<path class="st0" d="M859.9,129c1.9-0.3,3.7-0.6,5.6-1c1.9-0.3,3.7-0.6,5.6-1c3.7-0.7,7.4-1.4,11.1-2.3
				c7.4-1.5,14.7-3.3,21.7-5.7c3.5-1.2,7-2.5,10.3-4c3.3-1.5,6.4-3.3,8.9-5.6c0.6-0.6,1.2-1.1,1.7-1.8c0.6-0.7,1.1-1.4,1.7-2.1
				c1.1-1.4,2-2.9,2.8-4.4c1.6-3,2.5-6.3,2.5-9.6c0.1-3.3-0.8-6.6-2.2-9.8c-1.4-3.2-3.4-6.2-5.5-9.2c-0.6-0.8-1-1.3-1.5-1.9
				c-0.5-0.6-1.1-1.1-1.8-1.6c-1.3-1-2.8-1.7-4.4-2.3c-3.2-1.2-6.7-1.8-10.3-1.9c-7.1-0.1-14.4,1.9-20.4,6c-3,2-5.6,4.6-7.5,7.8
				c-1,1.6-1.7,3.2-2.3,5c-0.6,1.8-1,3.6-1.3,5.5l-0.3,0c0.2-3.8,1.2-7.6,3-10.9c1.8-3.4,4.4-6.3,7.4-8.6c6.1-4.6,13.7-6.9,21.3-7.1
				c3.8-0.1,7.6,0.4,11.2,1.7c3.6,1.3,7,3.5,9.1,6.6c2.3,3,4.4,6.2,6,9.7c1.6,3.4,2.6,7.2,2.6,11.1c0,3.8-1.1,7.6-2.9,11
				c-0.9,1.7-2,3.3-3.1,4.8c-1.2,1.5-2.4,3-3.8,4.2c-2.9,2.5-6.3,4.3-9.7,5.9c-3.5,1.5-7.1,2.8-10.7,3.9c-7.3,2.2-14.7,3.7-22.1,5
				c-7.5,1.2-15,2.2-22.5,2.8L859.9,129z"/>
		</g>
	</g>
	<g class="st3">
		<g>
			<path class="st0" d="M1045.2,91.8c-0.8-1-1.1-2.2-1.5-3.3l-0.5-1.7l-0.4-1.8c-0.4-2.4-0.7-4.8-0.8-7.2c-0.3-4.8,0-9.6,0.8-14.4
				c1.5-9.5,5-18.9,10.7-26.9c2.9-4,6.2-7.6,10-10.7c0.9-0.8,1.9-1.5,2.9-2.2l1.5-1.1l1.6-1c1-0.6,2.1-1.3,3.1-1.9l3.2-1.7
				c1.1-0.6,2.2-1.1,3.3-1.6c1.1-0.5,2.2-1,3.4-1.4l3.5-1.2l1.7-0.6c0.6-0.2,1.2-0.3,1.8-0.5c2.4-0.6,4.7-1.4,7.1-1.8l3.6-0.7
				c1.2-0.2,2.4-0.4,3.6-0.5l3.6-0.5c1.2-0.2,2.4-0.2,3.6-0.3c2.4-0.2,4.8-0.5,7.3-0.4c4.9-0.2,9.9,0.5,14.7,1.4
				c9.7,2.1,18.9,6.1,27,11.8c4.1,2.7,7.8,6,11.4,9.3c1.7,1.8,3.5,3.5,5.1,5.4c0.8,0.9,1.6,1.8,2.4,2.8l2.3,2.9c0.8,1,1.5,2,2.1,3
				c0.7,1,1.4,2,2.1,3c1.2,2.1,2.6,4.2,3.7,6.4c2.4,4.3,4.3,8.8,6,13.4c3.2,9.3,5.1,19.1,4.9,29l0,1.9c0,0.6-0.1,1.2-0.1,1.9
				c-0.1,1.2-0.2,2.5-0.3,3.7c-0.4,2.5-0.7,4.9-1.4,7.3c-0.5,2.4-1.4,4.8-2.1,7.2c-0.4,1.2-1,2.3-1.5,3.5c-0.3,0.6-0.5,1.1-0.8,1.7
				l-0.9,1.6c-0.6,1.1-1.2,2.2-1.8,3.3l-2.1,3.1c-1.4,2-2.9,3.9-4.5,5.8c-3.2,3.7-6.8,7.3-11,10.1c-4.2,2.8-9.1,4.9-14,5.8
				c-5,0.9-10,0.9-14.8,0.7c-4.9-0.3-9.6-0.8-14.4-1.4l-14.2-1.7c-4.7-0.5-9.5-1-14.2-1.4c-4.7-0.4-9.4-0.3-14,0
				c-4.7,0.4-9.3,1.2-13.9,2.4c-4.5,1.2-9,2.9-13.3,4.8c-4.3,1.9-8.5,4.2-12.9,6.2c-2.2,1-4.4,1.9-6.8,2.5c-1.2,0.3-2.4,0.4-3.6,0.4
				c-1.2,0-2.4-0.3-3.6-0.7l0.1-0.3c1.1,0.4,2.3,0.6,3.5,0.6c1.2,0,2.4-0.1,3.5-0.5c2.3-0.6,4.5-1.6,6.6-2.6
				c4.3-2.1,8.4-4.5,12.7-6.5c4.3-2.1,8.8-3.8,13.4-5.2c4.6-1.3,9.3-2.2,14.1-2.7c9.5-1.1,19.1,0.1,28.6,0.9l14.2,1.5
				c4.7,0.5,9.5,1,14.2,1.2c4.8,0.2,9.5,0.1,14.2-0.8c4.7-0.9,9.1-2.8,13-5.4c3.9-2.7,7.3-6,10.4-9.7c1.5-1.8,3-3.7,4.3-5.7l2-3
				c0.6-1,1.1-2.1,1.7-3.1l0.8-1.6c0.2-0.5,0.5-1.1,0.7-1.6c0.5-1.1,1-2.2,1.4-3.3c0.7-2.3,1.5-4.5,2-6.8c0.6-2.3,0.9-4.7,1.3-7
				c0.1-1.2,0.2-2.4,0.3-3.6c0-0.6,0.1-1.2,0.1-1.8l0-1.8c0.2-9.5-1.7-19-4.8-28c-1.7-4.5-3.5-8.9-5.8-13c-1.1-2.1-2.4-4.1-3.6-6.2
				c-0.6-1-1.3-2-2-3c-0.7-1-1.3-2-2.1-2.9l-2.2-2.8c-0.7-0.9-1.5-1.8-2.3-2.7c-1.5-1.8-3.2-3.5-4.9-5.2c-3.5-3.3-7-6.4-11-9.1
				c-7.8-5.5-16.6-9.4-25.9-11.5c-4.7-0.9-9.4-1.6-14.2-1.4c-2.4-0.1-4.8,0.2-7.1,0.3c-1.2,0.1-2.4,0.1-3.6,0.3l-3.5,0.4
				c-1.2,0.2-2.4,0.3-3.5,0.5L1097,13c-2.4,0.4-4.6,1.1-6.9,1.6c-0.6,0.2-1.2,0.3-1.7,0.5l-1.7,0.6l-3.4,1.1
				c-1.1,0.4-2.2,0.9-3.3,1.4c-1.1,0.5-2.2,0.9-3.2,1.5l-3.2,1.6c-1,0.6-2,1.2-3.1,1.8l-1.5,0.9l-1.4,1c-0.9,0.7-1.9,1.4-2.9,2.1
				c-3.7,3-7,6.5-9.9,10.3c-5.7,7.6-9.3,16.7-11,26c-0.8,4.7-1.2,9.5-1.1,14.2c0.1,2.4,0.3,4.8,0.6,7.1l0.3,1.8l0.4,1.7
				c0.4,1.1,0.6,2.3,1.3,3.2L1045.2,91.8z"/>
		</g>
		<g>
			<path class="st0" d="M1058.7,53.7c2.7-5,6.7-9.2,11.3-12.6c4.6-3.4,9.6-6.2,15-8l1-0.4l1-0.3l2.1-0.6l2.1-0.6
				c0.7-0.2,1.4-0.3,2.1-0.4l4.2-0.8c1.4-0.2,2.8-0.3,4.3-0.5c2.8-0.4,5.7-0.4,8.5-0.5c2.8-0.1,5.8,0.1,8.7,0.5
				c1.4,0.2,2.9,0.5,4.3,0.8c1.4,0.4,2.8,0.7,4.2,1.1c2.8,0.9,5.5,2,8.1,3.3c5.2,2.5,10.1,5.7,14.6,9.4c8.9,7.3,16.4,16.4,21.6,26.9
				c1.3,2.6,2.3,5.4,3.2,8.1c0.8,2.8,1.6,5.7,1.9,8.6c0.8,5.9,0.4,12.1-2,17.8c-2.5,5.7-6.8,10.3-11.8,13.6c-2.5,1.7-5.2,3-7.9,4
				c-2.8,1.1-5.6,1.8-8.4,2.4c-5.7,1.2-11.3,1.7-16.9,2c-5.6,0.3-11.2,0.5-16.8,0.9c-5.6,0.3-11.1,0.6-16.6,1.6
				c-2.7,0.4-5.4,1-8.1,1.8c-2.7,0.7-5.3,1.7-7.9,2.7l-0.1-0.3c5-2.5,10.4-4.2,15.9-5.3c5.5-1.1,11.1-1.7,16.6-2.2
				c5.6-0.5,11.2-0.8,16.7-1.3c5.6-0.5,11.1-1.1,16.6-2.4c5.4-1.2,10.7-3.2,15.4-6.3c2.3-1.6,4.4-3.4,6.2-5.5
				c0.5-0.5,0.9-1.1,1.3-1.6l0.6-0.8l0.5-0.9c0.4-0.6,0.8-1.2,1.1-1.8l0.9-1.9c2.1-5.1,2.5-10.9,1.7-16.3c-0.3-2.8-1.1-5.5-1.9-8.1
				c-0.9-2.6-1.9-5.2-3.2-7.7c-4.9-10-12-18.9-20.6-26c-4.3-3.6-9-6.7-13.9-9.2c-5-2.5-10.3-4.4-15.8-5.2c-2.8-0.4-5.5-0.7-8.3-0.6
				c-2.8,0.1-5.6,0-8.4,0.3c-1.4,0.1-2.8,0.2-4.2,0.4l-4.1,0.7c-0.7,0.1-1.4,0.2-2.1,0.4l-2,0.5l-2,0.5l-1,0.3l-1,0.3
				c-5.3,1.7-10.4,4.2-15,7.3c-1.1,0.8-2.2,1.7-3.3,2.5c-1,0.9-2.1,1.8-3.1,2.8c-2,2-3.8,4.1-5.2,6.5L1058.7,53.7z"/>
		</g>
		<g>
			<path class="st0" d="M1045.4,91.7c-0.5-1.5-0.5-3.2-0.3-4.8c0.2-1.6,0.6-3.2,1.1-4.7c1-3,2.4-5.9,4.1-8.7
				c3.2-5.6,7.3-10.6,12.1-15c4.8-4.3,10.3-8.1,16.6-10.4c6.3-2.3,13.4-2.8,20-1.2c3.3,0.8,6.5,2.2,9.4,3.8c2.9,1.7,5.6,3.7,8.1,5.9
				c2.5,2.2,4.8,4.7,6.7,7.4c2,2.8,3.6,5.8,4.6,9.1c1,3.2,1.7,6.6,1.6,10c0,3.4-0.6,6.7-1.5,9.9c-0.5,1.6-1,3.1-1.6,4.6
				c-0.7,1.5-1.4,2.9-2.3,4.3c-1.7,2.8-3.5,5.4-5.8,7.7l-0.2-0.2c3.8-5,6.5-10.8,8-16.9c1.5-6.1,1.3-12.6-0.8-18.5
				c-2.1-5.9-6.1-11-10.7-15.2c-2.3-2.1-4.8-4-7.5-5.6c-2.7-1.6-5.6-2.8-8.6-3.6c-6-1.6-12.5-1.2-18.5,0.8c-5.9,2-11.4,5.4-16.1,9.5
				c-4.8,4.1-8.9,8.9-12.3,14.1c-1.7,2.6-3.2,5.4-4.4,8.3c-0.6,1.5-1,3-1.3,4.5c-0.3,1.5-0.4,3.1,0,4.6L1045.4,91.7z"/>
		</g>
		<g>
			<path class="st0" d="M1031,131.2c1.9-0.3,3.7-0.6,5.6-1c1.9-0.3,3.7-0.6,5.6-1c3.7-0.7,7.4-1.4,11.1-2.3
				c7.4-1.5,14.7-3.3,21.7-5.7c3.5-1.2,7-2.5,10.3-4c3.3-1.5,6.4-3.3,8.9-5.6c0.6-0.6,1.2-1.1,1.7-1.8c0.6-0.7,1.1-1.4,1.7-2.1
				c1.1-1.4,2-2.9,2.8-4.4c1.6-3,2.5-6.3,2.5-9.6c0.1-3.3-0.8-6.6-2.2-9.8c-1.4-3.2-3.4-6.2-5.5-9.2c-0.6-0.8-1-1.3-1.5-1.9
				c-0.5-0.6-1.1-1.1-1.8-1.6c-1.3-1-2.8-1.7-4.4-2.3c-3.2-1.2-6.7-1.8-10.3-1.9c-7.1-0.1-14.4,1.9-20.4,6c-3,2-5.6,4.6-7.5,7.8
				c-1,1.6-1.7,3.2-2.3,5c-0.6,1.8-1,3.6-1.3,5.5l-0.3,0c0.2-3.8,1.2-7.6,3-10.9c1.8-3.4,4.4-6.3,7.4-8.6c6.1-4.6,13.7-6.9,21.3-7.1
				c3.8-0.1,7.6,0.4,11.2,1.7c3.6,1.3,7,3.5,9.1,6.6c2.3,3,4.4,6.2,6,9.7c1.6,3.4,2.6,7.2,2.6,11.1c0,3.8-1.1,7.6-2.9,11
				c-0.9,1.7-2,3.3-3.1,4.8c-1.2,1.5-2.4,3-3.8,4.2c-2.9,2.5-6.3,4.3-9.7,5.9c-3.5,1.5-7.1,2.8-10.7,3.9c-7.3,2.2-14.7,3.7-22.1,5
				c-7.5,1.2-15,2.2-22.5,2.8L1031,131.2z"/>
		</g>
	</g>
	<rect x="2.1" y="-2.2" class="st6" width="1545.8" height="189.4"/>
</g>
</svg>
