<?xml version="1.0" encoding="utf-8"?>
<!-- Generator: Adobe Illustrator 21.1.0, SVG Export Plug-In . SVG Version: 6.00 Build 0)  -->
<svg version="1.1" id="Layer_1" xmlns="http://www.w3.org/2000/svg" xmlns:xlink="http://www.w3.org/1999/xlink" x="0px" y="0px"
	 viewBox="0 0 1542 186" style="enable-background:new 0 0 1542 186;" xml:space="preserve">
<style type="text/css">
	.st0{fill:#6EB7B4;}
	.st1{clip-path:url(#SVGID_2_);fill:#3D7F7A;}
	.st2{clip-path:url(#SVGID_2_);fill:#276A75;}
	.st3{clip-path:url(#SVGID_2_);}
	.st4{clip-path:url(#SVGID_4_);fill:#276A75;}
	.st5{clip-path:url(#SVGID_6_);fill:#276A75;}
</style>
<title>Artboard 1</title>
<g>
	<g>
		<path class="st0" d="M-304.4,87.5c0.6-0.9,0.9-2.1,1.2-3.2l0.4-1.7l0.3-1.7c0.3-2.3,0.4-4.6,0.4-6.9c0.1-4.6-0.4-9.2-1.4-13.8
			c-1.9-9-5.6-17.6-11.3-24.7c-2.8-3.5-6.1-6.7-9.7-9.5c-1.9-1.3-3.7-2.7-5.7-3.8c-1-0.6-1.9-1.2-3-1.7l-3.1-1.5
			c-1-0.5-2.1-0.9-3.1-1.3c-1.1-0.4-2.1-0.9-3.2-1.2l-3.3-1l-1.6-0.5l-1.7-0.4l-3.3-0.8c-1.1-0.3-2.2-0.4-3.4-0.6l-3.4-0.6
			c-1.1-0.2-2.3-0.3-3.4-0.4l-3.4-0.4c-1.1-0.1-2.3-0.1-3.4-0.2l-3.4-0.2c-1.1-0.1-2.3,0-3.4,0c-4.5-0.1-9,0.6-13.4,1.4
			c-8.8,2-17.2,5.6-24.6,10.8c-3.8,2.5-7.2,5.5-10.5,8.6c-1.6,1.6-3.2,3.2-4.7,4.9c-0.7,0.9-1.5,1.7-2.2,2.6l-2.1,2.7
			c-0.7,0.9-1.3,1.8-2,2.8c-0.6,0.9-1.3,1.9-1.9,2.8c-1.2,2-2.4,3.8-3.4,5.9c-2.2,4-3.9,8.2-5.5,12.4c-0.7,2.1-1.5,4.3-2,6.5
			c-0.6,2.2-1.1,4.4-1.5,6.6c-0.2,1.1-0.3,2.2-0.5,3.3c-0.2,1.1-0.3,2.2-0.4,3.3l-0.2,3.4l0,3.4c0.1,4.5,0.5,9,1.6,13.3l0.4,1.6
			c0.1,0.5,0.3,1.1,0.5,1.6c0.4,1.1,0.7,2.1,1.1,3.2c0.9,2,1.7,4.1,2.8,6c1,2,2.3,3.8,3.5,5.7c0.7,0.9,1.4,1.8,2,2.7
			c0.7,0.9,1.4,1.8,2.2,2.6c3,3.4,6.2,6.5,9.9,8.9c3.6,2.4,7.7,3.9,12.1,4.8c4.3,0.8,8.9,1,13.4,0.8c9.2-0.3,18.5-1.5,27.8-2.3
			c4.7-0.4,9.3-0.7,14-1c4.7-0.2,9.5-0.1,14.2,0.5c4.7,0.6,9.4,1.6,13.9,3c4.5,1.4,8.9,3.2,13.1,5.3c4.2,2.1,8.2,4.4,12.4,6.6
			c2.1,1.1,4.1,2.1,6.4,2.7c2.2,0.6,4.6,0.7,6.7,0l0.1,0.3c-2.2,0.8-4.7,0.8-7,0.2c-2.3-0.6-4.4-1.5-6.5-2.5
			c-4.2-2.1-8.3-4.3-12.5-6.3c-4.2-2-8.6-3.7-13-5c-4.5-1.3-9.1-2.2-13.7-2.6c-9.3-1-18.6,0-27.9,0.9c-9.3,0.9-18.5,2.2-27.9,2.6
			c-4.7,0.2-9.4,0.2-14-0.7c-4.6-0.8-9.1-2.5-13-5.1c-4-2.5-7.4-5.8-10.5-9.3c-3.1-3.5-5.9-7.3-8.1-11.4c-1.2-2-2.1-4.2-3-6.4
			c-0.4-1.1-0.8-2.2-1.1-3.3c-0.2-0.6-0.4-1.1-0.5-1.7l-0.4-1.7c-1.2-4.5-1.7-9.2-1.8-13.9l0-3.5l0.2-3.5c0-1.2,0.2-2.3,0.4-3.5
			c0.2-1.2,0.3-2.3,0.5-3.5c0.5-2.3,0.9-4.6,1.5-6.8c0.5-2.3,1.3-4.5,2.1-6.7c1.6-4.4,3.4-8.7,5.7-12.8c1.1-2.1,2.4-4,3.6-6
			c0.6-1,1.3-1.9,2-2.9c0.7-1,1.3-1.9,2.1-2.8l2.2-2.8c0.7-0.9,1.5-1.8,2.3-2.7c1.5-1.8,3.2-3.4,4.8-5.1c3.4-3.2,7-6.3,10.9-8.8
			c7.7-5.3,16.4-9.1,25.6-11.1c4.6-0.9,9.3-1.5,13.9-1.4c1.2,0,2.3-0.1,3.5,0.1l3.5,0.2c1.2,0.1,2.3,0.1,3.5,0.3l3.5,0.4
			c1.2,0.2,2.3,0.3,3.5,0.5l3.4,0.7c1.1,0.2,2.3,0.4,3.4,0.7l3.4,0.9l1.7,0.4l1.7,0.5l3.3,1.1c1.1,0.4,2.2,0.9,3.3,1.3
			c1.1,0.5,2.2,0.8,3.2,1.4l3.1,1.6c1.1,0.5,2,1.2,3,1.8c2,1.1,3.9,2.6,5.8,4c3.7,2.9,7,6.3,9.8,10c5.8,7.4,9.3,16.3,11,25.5
			c0.8,4.6,1.2,9.3,1.1,14c-0.1,2.3-0.3,4.7-0.6,7l-0.3,1.7l-0.4,1.7c-0.4,1.1-0.6,2.3-1.4,3.3L-304.4,87.5z"/>
	</g>
	<g>
		<path class="st0" d="M-317.7,50.9c-1.5-2.3-3.4-4.3-5.4-6.1c-1-0.9-2.1-1.8-3.1-2.6c-1.1-0.8-2.2-1.6-3.3-2.3
			c-4.6-2.9-9.5-5.1-14.7-6.5l-1-0.3l-1-0.2l-2-0.5l-2-0.5c-0.6-0.2-1.3-0.2-2-0.3l-4-0.6c-1.3-0.1-2.7-0.2-4-0.3
			c-2.7-0.3-5.4-0.1-8-0.2c-1.4,0-2.7,0.1-4,0.2c-1.3,0.1-2.6,0.4-3.9,0.5c-10.3,1.9-20,6.9-28.1,13.7c-8.2,6.7-15,15.2-19.6,24.6
			c-1.2,2.3-2.2,4.8-3,7.2c-0.8,2.5-1.5,5-1.8,7.5c-0.2,1.3-0.3,2.5-0.4,3.8c0,0.6,0,1.3,0,1.9l0,0.9c0,0.3,0.1,0.6,0.1,0.9
			c0.2,2.5,0.8,4.9,1.8,7.2l0.8,1.7l1,1.6c0.3,0.5,0.7,1,1.1,1.5c0.4,0.5,0.7,1,1.2,1.5c1.6,1.9,3.6,3.5,5.7,4.9
			c2.1,1.4,4.4,2.5,6.8,3.5c2.4,1,4.9,1.8,7.5,2.4c10.4,2.5,21.4,2.9,32.3,4.1c5.5,0.6,10.9,1.4,16.3,2.7c2.7,0.6,5.4,1.4,8,2.3
			c2.6,0.9,5.1,2.1,7.5,3.4l-0.1,0.3c-4.9-2.4-10.2-4-15.5-5c-5.4-1.1-10.8-1.6-16.3-2.1c-10.9-0.9-21.9-1.1-32.7-3.4
			c-2.7-0.6-5.3-1.3-7.9-2.3c-2.6-1-5.1-2.2-7.4-3.7c-4.6-3-8.6-7.2-10.8-12.2c-1.1-2.5-1.9-5.2-2.1-8c0-0.3-0.1-0.7-0.1-1l0-1
			c0-0.7-0.1-1.4,0-2.1c0.1-1.4,0.1-2.8,0.4-4.1c0.3-2.7,1.1-5.4,1.9-8c0.9-2.6,1.9-5.2,3.1-7.6c4.9-9.9,12.1-18.5,20.6-25.4
			c4.3-3.5,8.9-6.5,13.8-8.9c4.9-2.4,10.2-4.2,15.6-5c1.4-0.2,2.7-0.4,4.1-0.5c1.4-0.1,2.7-0.2,4.1-0.1c2.7,0.1,5.5,0,8.2,0.4
			c1.4,0.1,2.7,0.2,4.1,0.4l4.1,0.7c0.7,0.1,1.4,0.2,2,0.4l2,0.5l2,0.5l1,0.3l1,0.3c5.2,1.6,10.2,4.1,14.8,7.2
			c1.1,0.8,2.2,1.6,3.3,2.5c1,0.9,2.1,1.8,3,2.8c1.9,1.9,3.7,4,5.2,6.4L-317.7,50.9z"/>
	</g>
	<g>
		<path class="st0" d="M-304.7,87.5c0.3-1.5,0-3-0.4-4.4c-0.4-1.4-0.9-2.8-1.6-4.2c-1.3-2.7-2.9-5.3-4.7-7.7
			c-1.7-2.4-3.7-4.7-5.8-6.9c-2.1-2.1-4.2-4.2-6.6-6c-4.7-3.6-9.8-6.7-15.2-8.4c-2.7-0.8-5.5-1.5-8.3-1.5c-0.7-0.1-1.4,0-2.1,0
			c-0.7,0-1.4,0-2.1,0.1l-2.1,0.3l-2,0.5c-5.5,1.3-10.4,4.4-14.9,8.1c-2.2,1.9-4.3,3.9-6,6.2c-1.7,2.3-3.2,4.7-4.3,7.4
			c-2.1,5.3-2.7,11.2-1.5,17c0.5,2.9,1.4,5.8,2.5,8.6c0.6,1.4,1.2,2.8,1.9,4.1c0.7,1.4,1.4,2.7,2.3,4l-0.2,0.2
			c-1.9-2.4-3.5-5.1-4.9-7.8c-1.4-2.8-2.4-5.7-3.2-8.7c-1.5-6-1.3-12.4,0.8-18.2c1.1-2.9,2.6-5.6,4.4-8.1c1.8-2.5,4-4.7,6.3-6.8
			c4.7-4,10-7.4,16.1-8.9l2.3-0.5l2.3-0.3c0.8-0.1,1.5-0.1,2.3-0.1c0.8,0,1.5-0.1,2.3,0l2.3,0.2l2.3,0.4c0.8,0.1,1.5,0.3,2.3,0.5
			c0.7,0.2,1.5,0.4,2.2,0.7c5.9,2,11.2,5.3,15.9,9.2c2.4,2,4.5,4.2,6.6,6.5c2,2.3,3.9,4.8,5.6,7.3c1.7,2.6,3.2,5.3,4.3,8.2
			c0.3,0.7,0.5,1.4,0.8,2.2c0.3,0.7,0.4,1.5,0.6,2.2c0.2,1.5,0.4,3.1,0,4.6L-304.7,87.5z"/>
	</g>
	<g>
		<path class="st0" d="M-290.2,126.1c-1.9,0-3.7-0.1-5.6-0.1c-1.9-0.1-3.7-0.2-5.5-0.4c-3.7-0.3-7.4-0.6-11.1-1
			c-7.4-1-14.7-2.3-22-4.2c-3.6-0.9-7.3-2.1-10.8-3.6c-3.5-1.5-7-3.2-10.2-5.8c-0.8-0.6-1.5-1.4-2.3-2.1l-1.9-2.3
			c-0.7-0.7-1.2-1.6-1.7-2.4c-0.3-0.4-0.6-0.8-0.8-1.2l-0.7-1.3c-2-3.5-3.3-7.6-3.3-11.8c-0.1-2.1,0.3-4.2,0.7-6.2
			c0.3-1,0.6-2,0.9-2.9c0.4-0.9,0.7-1.9,1.2-2.8c1.7-3.6,3.9-6.8,6.2-9.8c0.3-0.4,0.6-0.7,1-1.2c0.4-0.4,0.7-0.8,1.1-1.2l1.2-1.1
			l1.3-0.9c1.8-1.2,3.6-2,5.5-2.7c1.9-0.6,3.9-1.1,5.8-1.3c2-0.2,3.9-0.3,5.9-0.2c7.8,0.4,15.4,2.9,21.5,7.7c3,2.5,5.5,5.5,7.2,9
			c0.4,0.9,0.8,1.7,1.1,2.6c0.1,0.5,0.3,0.9,0.4,1.3l0.3,1.4c0.2,0.9,0.3,1.9,0.4,2.8c0.1,0.9,0.1,1.9,0.1,2.8l-0.3,0
			c-0.2-3.7-1.2-7.3-3-10.5c-1.8-3.2-4.3-6-7.2-8.2c-5.9-4.3-13.3-6.5-20.6-6.6c-3.7-0.1-7.4,0.4-10.8,1.6c-1.7,0.6-3.4,1.4-4.9,2.5
			c-1.5,1-2.8,2.3-3.9,3.8c-2.2,2.9-4.2,6-5.8,9.3c-0.4,0.8-0.7,1.7-1,2.5c-0.3,0.9-0.5,1.7-0.8,2.6c-0.4,1.8-0.7,3.6-0.6,5.4
			c0.1,3.6,1.1,7.2,2.9,10.4l0.7,1.2c0.2,0.4,0.5,0.8,0.8,1.1c0.5,0.7,1,1.5,1.6,2.2l1.7,2.1c0.7,0.6,1.2,1.3,2,1.9
			c2.8,2.4,6.1,4.1,9.4,5.6c3.4,1.5,6.9,2.7,10.4,3.7c7.1,2.1,14.3,3.6,21.6,4.9c7.3,1.2,14.6,2.2,21.9,2.8L-290.2,126.1z"/>
	</g>
</g>
<g>
	<g>
		<path class="st0" d="M-468.2,87.5c0.6-0.9,0.9-2.1,1.2-3.2l0.4-1.7l0.3-1.7c0.3-2.3,0.4-4.6,0.4-6.9c0-4.6-0.5-9.3-1.4-13.8
			c-1.9-9-5.7-17.7-11.4-24.7c-2.9-3.5-6.1-6.7-9.7-9.5c-1.9-1.3-3.7-2.7-5.7-3.8l-1.5-0.9l-0.7-0.4l-0.8-0.4l-3.1-1.5
			c-8.3-3.8-17.3-5.8-26.4-6.9l-3.4-0.4c-1.1-0.1-2.3-0.1-3.4-0.2l-3.4-0.2c-1.2-0.1-2.3,0-3.4,0c-4.5-0.1-9,0.6-13.4,1.4
			c-8.8,2-17.2,5.6-24.7,10.8c-3.8,2.5-7.2,5.5-10.5,8.6c-1.6,1.6-3.2,3.2-4.7,4.9c-0.7,0.9-1.5,1.7-2.2,2.6l-2.1,2.7
			c-0.7,0.9-1.3,1.8-2,2.8c-0.6,0.9-1.3,1.9-1.9,2.8c-1.2,2-2.4,3.8-3.4,5.9c-2.2,4-3.9,8.2-5.5,12.4c-0.7,2.1-1.5,4.3-2,6.5
			c-0.7,2.2-1.1,4.4-1.5,6.6c-0.2,1.1-0.3,2.2-0.5,3.3c-0.2,1.1-0.3,2.2-0.4,3.4l-0.2,3.4l0,3.4c0.1,4.5,0.5,9,1.7,13.3l0.4,1.6
			l0.5,1.6c0.4,1.1,0.7,2.1,1.1,3.2l1.3,3.1l0.3,0.8l0.4,0.7l0.8,1.5c1,2,2.3,3.8,3.5,5.6l2.1,2.7c0.7,0.9,1.4,1.8,2.2,2.6
			c3,3.4,6.2,6.5,9.9,8.8c3.7,2.4,7.8,3.9,12.1,4.7c2.2,0.4,4.4,0.6,6.7,0.7c2.3,0.1,4.5,0.1,6.8,0c9.2-0.4,18.5-1.5,27.8-2.3
			c4.7-0.4,9.3-0.7,14.1-1c4.7-0.2,9.5-0.1,14.2,0.5c4.7,0.6,9.4,1.6,13.9,3c4.5,1.4,8.9,3.2,13.1,5.3c4.2,2.1,8.3,4.4,12.4,6.6
			c2.1,1.1,4.2,2.1,6.4,2.7c2.2,0.6,4.6,0.7,6.8,0l0.1,0.3c-2.2,0.8-4.7,0.8-7,0.2c-2.3-0.6-4.5-1.5-6.6-2.5
			c-4.2-2.1-8.3-4.3-12.5-6.3c-4.2-2-8.6-3.7-13.1-5c-4.5-1.3-9.1-2.2-13.7-2.6c-9.3-1-18.6,0-27.9,0.9c-9.3,0.9-18.6,2.2-27.9,2.6
			c-2.3,0.1-4.7,0.1-7,0.1c-2.3-0.1-4.7-0.3-7-0.7c-4.6-0.8-9.1-2.4-13.1-5c-4-2.5-7.4-5.8-10.5-9.3c-0.8-0.9-1.5-1.8-2.3-2.7
			l-2.2-2.8c-1.3-2-2.7-3.8-3.8-5.9l-0.8-1.5l-0.4-0.8l-0.4-0.8l-1.4-3.2c-0.4-1.1-0.8-2.2-1.2-3.3l-0.6-1.7l-0.4-1.7
			c-1.2-4.5-1.7-9.2-1.8-13.9l0-3.5l0.2-3.5c0-1.2,0.2-2.3,0.4-3.5c0.2-1.2,0.3-2.3,0.5-3.5c0.5-2.3,0.9-4.6,1.5-6.9
			c0.5-2.3,1.3-4.5,2.1-6.7c1.6-4.4,3.5-8.7,5.8-12.8c1.1-2.1,2.4-4,3.6-6.1c0.6-1,1.3-1.9,2-2.9c0.7-1,1.3-1.9,2.1-2.8l2.2-2.8
			c0.7-0.9,1.5-1.8,2.3-2.7c1.5-1.8,3.2-3.4,4.9-5.1c3.4-3.2,7-6.3,10.9-8.8c7.7-5.3,16.5-9.1,25.7-11.1c4.6-0.9,9.3-1.5,14-1.4
			c1.2,0,2.3,0,3.5,0.1l3.5,0.2c1.2,0.1,2.3,0.1,3.5,0.3l3.5,0.4c9.3,1.2,18.5,3.4,27,7.4l3.1,1.6l0.8,0.4l0.8,0.5l1.5,0.9
			c2.1,1.1,3.9,2.6,5.8,3.9c3.7,2.9,7,6.2,9.9,10c5.8,7.4,9.4,16.3,11.1,25.5c0.8,4.6,1.2,9.3,1.1,14c-0.1,2.3-0.3,4.7-0.6,7
			l-0.3,1.7l-0.4,1.7c-0.4,1.1-0.6,2.3-1.4,3.3L-468.2,87.5z"/>
	</g>
	<g>
		<path class="st0" d="M-481.5,50.9c-1.5-2.3-3.4-4.3-5.4-6.1c-1-0.9-2.1-1.8-3.1-2.6c-1.1-0.8-2.2-1.6-3.3-2.3
			c-4.6-2.9-9.5-5.1-14.7-6.5l-1-0.3l-1-0.2l-2-0.5l-2-0.5c-0.7-0.2-1.3-0.2-2-0.3l-4-0.6c-1.3-0.1-2.7-0.2-4-0.3
			c-2.7-0.3-5.4-0.1-8.1-0.2c-1.4,0-2.7,0.1-4,0.2c-1.3,0.1-2.6,0.4-3.9,0.5c-10.3,1.9-20,6.9-28.2,13.7
			c-8.2,6.7-15.1,15.2-19.7,24.6c-1.2,2.3-2.2,4.8-3.1,7.2c-0.8,2.5-1.5,5-1.8,7.5c-0.2,1.3-0.3,2.5-0.4,3.8c0,0.6,0,1.3,0,1.9
			l0,0.9l0.1,0.9c0.2,2.5,0.9,4.9,1.8,7.2l0.8,1.7l1,1.6c0.3,0.5,0.7,1,1.1,1.5c0.4,0.5,0.8,1,1.2,1.5c1.6,1.9,3.6,3.5,5.8,4.9
			c2.1,1.4,4.5,2.5,6.9,3.5c2.4,1,5,1.7,7.5,2.4c10.4,2.5,21.4,2.9,32.4,4.1c5.5,0.6,11,1.4,16.4,2.7c2.7,0.6,5.4,1.4,8,2.3
			c2.6,0.9,5.1,2.1,7.6,3.4l-0.1,0.3c-4.9-2.4-10.2-4-15.6-5c-5.4-1.1-10.8-1.6-16.3-2.1c-10.9-0.9-22-1.1-32.8-3.4
			c-2.7-0.6-5.4-1.3-7.9-2.3c-2.6-1-5.1-2.1-7.4-3.7c-2.3-1.5-4.5-3.2-6.3-5.3c-0.5-0.5-0.9-1-1.3-1.6c-0.4-0.5-0.9-1.1-1.2-1.7
			l-1.1-1.8c-0.3-0.6-0.6-1.2-0.9-1.9c-1.1-2.5-1.9-5.2-2.1-8l-0.1-1l0-1c0-0.7-0.1-1.4,0-2.1c0.1-1.4,0.1-2.8,0.4-4.1
			c0.3-2.7,1.1-5.4,1.9-8.1c0.9-2.6,1.9-5.2,3.2-7.6c4.9-9.9,12.1-18.5,20.7-25.4c4.3-3.4,8.9-6.5,13.9-8.8c5-2.4,10.2-4.2,15.7-5
			c1.4-0.2,2.7-0.4,4.1-0.5c1.4-0.1,2.8-0.2,4.1-0.1c2.7,0.1,5.5,0,8.2,0.4c1.4,0.1,2.7,0.2,4.1,0.4l4.1,0.7c0.7,0.1,1.4,0.2,2,0.4
			l2,0.5l2,0.5l1,0.3l1,0.3c5.3,1.6,10.3,4.1,14.8,7.2c1.1,0.8,2.2,1.6,3.3,2.5c1,0.9,2.1,1.8,3.1,2.8c2,1.9,3.8,4,5.2,6.4
			L-481.5,50.9z"/>
	</g>
	<g>
		<path class="st0" d="M-468.5,87.5c0.3-1.5,0-3-0.4-4.4c-0.2-0.7-0.4-1.4-0.7-2.1c-0.3-0.7-0.6-1.4-0.9-2.1
			c-1.3-2.7-2.9-5.3-4.7-7.7c-1.8-2.4-3.7-4.7-5.8-6.9c-2.1-2.1-4.3-4.2-6.6-6c-4.7-3.6-9.8-6.7-15.3-8.3c-2.7-0.8-5.5-1.5-8.4-1.5
			c-0.7-0.1-1.4,0-2.1,0c-0.7,0-1.4,0-2.1,0.1l-2.1,0.3l-2.1,0.5c-5.5,1.2-10.5,4.4-15,8.1c-2.2,1.9-4.3,3.9-6.1,6.2
			c-1.7,2.3-3.2,4.7-4.3,7.4c-2.2,5.3-2.7,11.2-1.6,17.1c0.5,2.9,1.4,5.8,2.5,8.6c0.6,1.4,1.2,2.8,1.9,4.1c0.7,1.4,1.4,2.7,2.3,4
			l-0.2,0.2c-1.9-2.4-3.5-5.1-4.9-7.9c-1.4-2.8-2.4-5.7-3.2-8.7c-1.5-6-1.3-12.5,0.9-18.3c1.1-2.9,2.6-5.6,4.4-8.1
			c1.9-2.5,4-4.7,6.3-6.8c4.7-4,10.1-7.4,16.1-8.8c6-1.5,12.5-1.1,18.3,0.9c5.9,2,11.2,5.3,16,9.2c2.4,2,4.6,4.2,6.6,6.5
			c2.1,2.3,3.9,4.8,5.6,7.3c1.7,2.6,3.2,5.3,4.3,8.2c0.3,0.7,0.6,1.4,0.8,2.2c0.3,0.7,0.4,1.5,0.6,2.2c0.3,1.5,0.4,3.1,0,4.6
			L-468.5,87.5z"/>
	</g>
	<g>
		<path class="st0" d="M-454,126.1c-1.9,0-3.7-0.1-5.6-0.1c-1.9-0.1-3.7-0.2-5.6-0.4c-3.7-0.3-7.4-0.6-11.1-1
			c-7.4-1-14.7-2.3-22-4.2c-1.8-0.5-3.6-1-5.5-1.6c-1.8-0.6-3.6-1.2-5.4-2c-3.5-1.5-7.1-3.2-10.3-5.8c-0.8-0.6-1.6-1.4-2.3-2.1
			c-0.7-0.8-1.3-1.5-1.9-2.3c-0.7-0.7-1.2-1.6-1.8-2.4l-0.8-1.2l-0.7-1.3c-2-3.5-3.3-7.6-3.4-11.8c-0.1-2.1,0.3-4.2,0.7-6.2
			c0.3-1,0.6-2,0.9-2.9c0.4-0.9,0.7-1.9,1.2-2.8c1.7-3.6,3.9-6.8,6.2-9.8l0.4-0.6c0.1-0.2,0.4-0.4,0.5-0.6c0.4-0.4,0.7-0.8,1.1-1.2
			c0.4-0.4,0.8-0.7,1.2-1.1l1.3-0.9c1.8-1.2,3.6-2,5.6-2.7c1.9-0.6,3.9-1.1,5.9-1.3c2-0.2,3.9-0.3,5.9-0.2
			c7.8,0.4,15.5,2.9,21.6,7.7c3,2.5,5.5,5.5,7.2,9c0.4,0.9,0.8,1.7,1.1,2.6c0.2,0.5,0.3,0.9,0.5,1.4l0.3,1.4
			c0.2,0.9,0.3,1.9,0.4,2.8c0.1,0.9,0.1,1.9,0.1,2.8l-0.3,0c-0.2-3.7-1.2-7.3-3-10.5c-1.8-3.2-4.4-6-7.3-8.2
			c-6-4.3-13.4-6.5-20.7-6.6c-3.7-0.1-7.4,0.4-10.8,1.6c-1.7,0.6-3.4,1.4-4.9,2.5c-1.5,1-2.8,2.3-3.9,3.8c-2.2,2.9-4.3,6-5.8,9.4
			c-0.4,0.8-0.7,1.7-1,2.5c-0.3,0.9-0.5,1.7-0.8,2.6c-0.4,1.8-0.7,3.6-0.6,5.4c0.1,3.7,1.2,7.2,3,10.4l0.7,1.2l0.8,1.1
			c0.5,0.8,1,1.5,1.6,2.2l1.8,2.1c0.6,0.6,1.3,1.3,2,1.9c2.8,2.4,6.1,4.1,9.5,5.5c3.4,1.5,6.9,2.7,10.4,3.7
			c7.1,2.1,14.3,3.6,21.6,4.8c7.3,1.2,14.6,2.2,22,2.8L-454,126.1z"/>
	</g>
</g>
<g>
	<g>
		<path class="st0" d="M-633.7,87.5c0.6-0.9,0.9-2.1,1.2-3.2l0.4-1.7l0.3-1.7c0.3-2.3,0.4-4.6,0.4-7c0-4.6-0.5-9.3-1.4-13.8
			c-1.9-9-5.7-17.7-11.5-24.8c-2.9-3.5-6.2-6.7-9.8-9.5c-1.9-1.3-3.7-2.7-5.7-3.7c-1.9-1.2-4-2.2-6.1-3.2
			c-8.3-3.8-17.4-5.8-26.5-6.9l-3.4-0.4c-1.1-0.1-2.3-0.1-3.4-0.2l-3.4-0.2c-1.2-0.1-2.3,0-3.4,0c-4.5,0-9,0.6-13.5,1.4
			c-8.8,2-17.3,5.6-24.7,10.8c-3.8,2.5-7.2,5.5-10.6,8.6c-1.6,1.6-3.2,3.2-4.7,4.9c-0.7,0.9-1.5,1.7-2.2,2.6l-2.1,2.7
			c-0.7,0.9-1.3,1.8-2,2.8c-0.6,0.9-1.3,1.9-1.9,2.8c-1.2,2-2.4,3.9-3.4,5.9c-2.2,4-4,8.2-5.5,12.4c-0.7,2.1-1.5,4.3-2,6.5
			c-0.7,2.2-1.1,4.4-1.5,6.6c-0.2,1.1-0.3,2.2-0.5,3.4l-0.2,1.7c-0.1,0.6-0.1,1.1-0.1,1.7l-0.2,3.4l0,3.4c0.1,4.5,0.6,9,1.7,13.3
			l0.4,1.6l0.5,1.6c0.4,1.1,0.7,2.1,1.1,3.2l1.3,3.1c0.2,0.5,0.5,1,0.7,1.5l0.8,1.5l0.8,1.5c0.3,0.5,0.6,0.9,0.9,1.4l1.9,2.8
			c1.4,1.8,2.8,3.6,4.3,5.3c3,3.4,6.3,6.5,10,8.8c1.9,1.2,3.8,2.2,5.8,2.9c2,0.8,4.2,1.3,6.3,1.7c2.2,0.4,4.4,0.6,6.7,0.7
			c2.3,0.1,4.5,0.1,6.8,0c9.2-0.4,18.5-1.5,27.9-2.3c4.7-0.4,9.4-0.7,14.1-1c4.8-0.2,9.5-0.1,14.3,0.5c4.7,0.6,9.4,1.6,13.9,3
			c4.5,1.4,8.9,3.2,13.2,5.3c4.2,2.1,8.3,4.4,12.4,6.6c2.1,1.1,4.2,2,6.4,2.7c2.2,0.6,4.6,0.7,6.8,0l0.1,0.3c-2.2,0.8-4.7,0.8-7,0.2
			c-2.3-0.6-4.5-1.5-6.6-2.5c-4.2-2.1-8.3-4.3-12.6-6.3c-4.2-2-8.6-3.7-13.1-5c-4.5-1.3-9.1-2.2-13.7-2.6c-9.3-1-18.7,0-28,0.8
			c-9.3,0.9-18.6,2.1-28,2.7c-4.7,0.2-9.4,0.2-14.1-0.6c-2.3-0.4-4.6-1-6.8-1.8c-2.2-0.8-4.3-1.9-6.3-3.1c-4-2.5-7.5-5.7-10.6-9.2
			c-1.6-1.8-3-3.6-4.5-5.5l-2-2.9c-0.3-0.5-0.7-1-1-1.5l-0.9-1.5l-0.9-1.5c-0.3-0.5-0.6-1-0.8-1.6l-1.4-3.2
			c-0.5-1.1-0.8-2.2-1.2-3.3l-0.6-1.7l-0.4-1.7c-1.2-4.5-1.7-9.3-1.9-13.9l0-3.5l0.2-3.5c0-0.6,0.1-1.2,0.1-1.8l0.2-1.7
			c0.2-1.2,0.3-2.3,0.5-3.5c0.5-2.3,0.9-4.6,1.5-6.9c0.5-2.3,1.3-4.5,2.1-6.7c1.6-4.4,3.5-8.7,5.8-12.8c1.1-2.1,2.4-4.1,3.6-6.1
			c0.6-1,1.3-1.9,2-2.9c0.7-1,1.3-1.9,2.1-2.8l2.2-2.8c0.7-0.9,1.5-1.8,2.3-2.7c1.5-1.8,3.2-3.4,4.9-5.1c3.4-3.2,7-6.3,11-8.8
			c7.7-5.3,16.5-9.1,25.7-11.1c4.6-0.9,9.3-1.5,14-1.4c1.2,0,2.4,0,3.5,0l3.5,0.2c1.2,0.1,2.3,0.1,3.5,0.3l3.5,0.4
			c9.3,1.2,18.5,3.4,27,7.4c2.1,1.1,4.2,2.1,6.2,3.3c2.1,1.1,3.9,2.6,5.8,3.9c3.7,2.9,7,6.2,9.9,9.9c5.8,7.4,9.5,16.3,11.2,25.6
			c0.8,4.6,1.3,9.3,1.1,14c-0.1,2.3-0.3,4.7-0.6,7l-0.3,1.7l-0.4,1.7c-0.4,1.1-0.6,2.3-1.4,3.3L-633.7,87.5z"/>
	</g>
	<g>
		<path class="st0" d="M-647.1,50.9c-1.5-2.3-3.4-4.3-5.4-6.1c-1-0.9-2.1-1.8-3.1-2.6c-1.1-0.8-2.2-1.6-3.3-2.3
			c-4.6-2.9-9.6-5.1-14.8-6.5l-1-0.3l-1-0.2l-2-0.5l-2-0.5c-0.7-0.2-1.3-0.2-2-0.3l-4-0.6c-1.3-0.1-2.7-0.2-4-0.3
			c-2.7-0.3-5.4-0.1-8.1-0.2c-0.7,0-1.4,0-2,0l-2,0.2c-1.3,0.1-2.6,0.4-3.9,0.5C-716,33.3-725.7,38.3-734,45
			c-8.2,6.7-15.2,15.2-19.8,24.6c-1.2,2.3-2.2,4.8-3.1,7.2c-0.8,2.5-1.5,5-1.8,7.5c-0.2,1.3-0.3,2.5-0.4,3.8c0,0.6,0,1.3,0,1.9
			l0,0.9l0.1,0.9c0.2,2.5,0.9,4.9,1.8,7.2c0.3,0.6,0.5,1.1,0.8,1.7l1,1.6c0.3,0.5,0.7,1,1.1,1.5c0.4,0.5,0.8,1,1.2,1.5
			c1.7,1.9,3.7,3.5,5.8,4.9c2.1,1.4,4.5,2.5,6.9,3.5c2.4,1,5,1.7,7.6,2.4c10.4,2.5,21.5,2.9,32.5,4.1c5.5,0.6,11,1.4,16.4,2.7
			c2.7,0.6,5.4,1.4,8,2.3c2.6,0.9,5.1,2.1,7.6,3.4l-0.1,0.3c-4.9-2.4-10.2-4-15.6-5c-5.4-1.1-10.9-1.6-16.3-2.1
			c-10.9-0.9-22-1.1-32.8-3.4c-2.7-0.6-5.4-1.3-8-2.3c-2.6-1-5.1-2.1-7.4-3.7c-2.3-1.5-4.5-3.2-6.4-5.3c-1.8-2.1-3.6-4.3-4.6-6.9
			c-1.1-2.5-1.9-5.2-2.1-8l-0.1-1l0-1c0-0.7,0-1.4,0-2.1c0.1-1.4,0.1-2.8,0.4-4.1c0.3-2.8,1.1-5.4,1.9-8.1c0.9-2.6,1.9-5.2,3.2-7.6
			c4.9-9.9,12.2-18.5,20.8-25.5c4.3-3.4,9-6.5,14-8.8c5-2.4,10.3-4.2,15.7-5c1.4-0.2,2.7-0.4,4.1-0.5c1.4-0.1,2.8-0.2,4.1-0.1
			c2.8,0.1,5.5,0,8.3,0.4c1.4,0.1,2.7,0.2,4.1,0.4l4.1,0.7c0.7,0.1,1.4,0.2,2,0.4l2,0.5l2,0.5l1,0.3l1,0.3
			c5.3,1.6,10.3,4.1,14.9,7.2c1.1,0.8,2.2,1.6,3.3,2.5c1,0.9,2.1,1.8,3.1,2.8c2,1.9,3.8,4,5.2,6.4L-647.1,50.9z"/>
	</g>
	<g>
		<path class="st0" d="M-634,87.5c0.3-1.5,0-3-0.4-4.4c-0.2-0.7-0.4-1.4-0.7-2.1l-0.4-1l-0.5-1c-1.3-2.7-2.9-5.3-4.7-7.7
			c-1.8-2.4-3.7-4.7-5.8-6.9c-2.1-2.1-4.3-4.2-6.6-6c-4.7-3.6-9.8-6.7-15.3-8.3c-2.7-0.8-5.5-1.5-8.4-1.5c-0.7-0.1-1.4,0-2.1,0
			c-0.7,0-1.4,0-2.1,0.1l-2.1,0.3l-2.1,0.5c-5.5,1.2-10.5,4.3-15,8c-2.2,1.9-4.3,3.9-6.1,6.2c-1.7,2.3-3.3,4.7-4.4,7.4
			c-2.2,5.3-2.7,11.3-1.6,17.1c0.5,2.9,1.4,5.8,2.5,8.6c0.6,1.4,1.2,2.8,1.9,4.1c0.7,1.4,1.4,2.7,2.3,4l-0.2,0.2
			c-1.9-2.4-3.5-5.1-4.9-7.9c-1.4-2.8-2.4-5.7-3.2-8.7c-1.5-6-1.3-12.5,0.9-18.3c1.1-2.9,2.6-5.6,4.5-8.1c1.9-2.5,4-4.7,6.4-6.8
			c4.7-4,10.1-7.4,16.2-8.8c6-1.5,12.5-1.1,18.4,0.9c5.9,1.9,11.3,5.2,16,9.2c2.4,2,4.6,4.2,6.6,6.5c2.1,2.3,4,4.8,5.6,7.3
			c1.7,2.6,3.2,5.3,4.3,8.2l0.4,1.1l0.4,1.1c0.3,0.7,0.4,1.5,0.6,2.3c0.3,1.5,0.4,3.1,0,4.7L-634,87.5z"/>
	</g>
	<g>
		<path class="st0" d="M-619.5,126.1c-1.9,0-3.7-0.1-5.6-0.1c-1.9-0.1-3.7-0.2-5.6-0.4c-3.7-0.3-7.4-0.6-11.1-1
			c-7.4-1-14.8-2.3-22.1-4.2c-1.8-0.5-3.6-1-5.5-1.6c-1.8-0.6-3.6-1.2-5.4-2c-3.5-1.5-7.1-3.2-10.3-5.8c-0.8-0.6-1.6-1.4-2.3-2.1
			c-0.7-0.8-1.3-1.5-1.9-2.3c-0.7-0.7-1.2-1.6-1.8-2.4l-0.9-1.2l-0.7-1.3c-2-3.5-3.3-7.6-3.4-11.8c-0.1-2.1,0.3-4.2,0.7-6.2
			c0.3-1,0.6-2,0.9-2.9c0.4-0.9,0.7-1.9,1.2-2.8c1.7-3.6,3.9-6.9,6.2-9.9l0.4-0.6c0.1-0.2,0.4-0.4,0.5-0.6c0.4-0.4,0.7-0.8,1.1-1.2
			c0.4-0.4,0.8-0.7,1.2-1.1l1.3-0.9c1.8-1.2,3.7-2,5.6-2.7c1.9-0.6,3.9-1.1,5.9-1.3c2-0.2,4-0.3,5.9-0.2c7.8,0.4,15.5,2.9,21.7,7.7
			c3,2.5,5.6,5.5,7.3,9c0.4,0.9,0.8,1.7,1.1,2.7c0.2,0.5,0.3,0.9,0.5,1.4l0.3,1.4c0.2,0.9,0.3,1.9,0.4,2.8c0.1,0.9,0.1,1.9,0.1,2.8
			l-0.3,0c-0.2-3.7-1.2-7.3-3-10.5c-1.8-3.2-4.4-6-7.3-8.2c-6-4.3-13.4-6.5-20.8-6.6c-3.7-0.1-7.4,0.4-10.9,1.6
			c-1.7,0.6-3.4,1.4-4.9,2.5c-1.5,1-2.8,2.3-3.9,3.8c-2.2,2.9-4.3,6-5.8,9.4c-0.4,0.8-0.7,1.7-1.1,2.5c-0.3,0.9-0.5,1.8-0.8,2.6
			c-0.4,1.8-0.7,3.6-0.6,5.4c0.1,3.7,1.2,7.2,3,10.4l0.7,1.2l0.8,1.1c0.5,0.8,1,1.5,1.6,2.2c0.6,0.7,1.2,1.4,1.8,2.1
			c0.6,0.6,1.3,1.3,2,1.9c2.8,2.3,6.1,4.1,9.5,5.5c3.4,1.5,6.9,2.7,10.5,3.7c7.1,2.1,14.4,3.6,21.7,4.8c7.3,1.2,14.7,2.2,22.1,2.8
			L-619.5,126.1z"/>
	</g>
</g>
<g>
	<defs>
		<rect id="SVGID_1_" x="-3.1" y="-1.9" width="1549.6" height="192.9"/>
	</defs>
	<clipPath id="SVGID_2_">
		<use xlink:href="#SVGID_1_"  style="overflow:visible;"/>
	</clipPath>
	
		<rect x="237.4" y="-153.8" transform="matrix(1 -3.510554e-03 3.510554e-03 1 4.931872e-02 3.1366)" class="st1" width="1312.1" height="282.7"/>
	
		<rect x="566.9" y="-784.7" transform="matrix(2.991769e-03 -1 1 2.991769e-03 1017.0692 766.2508)" class="st1" width="651.8" height="1315.5"/>
	<polygon class="st2" points="236.2,599.2 1550.4,594.2 1549.9,126.6 235.7,130.6 	"/>
	<g class="st3">
		<defs>
			
				<rect id="SVGID_3_" x="236.8" y="-52.3" transform="matrix(1 -3.100558e-03 3.100558e-03 1 -0.2408 2.7687)" width="1312.1" height="262.7"/>
		</defs>
		<clipPath id="SVGID_4_">
			<use xlink:href="#SVGID_3_"  style="overflow:visible;"/>
		</clipPath>
		<path class="st4" d="M1566.4,127.5c0,0-100.1,0.4-90.1-41.9c10.5-44.4,60.8-17.9,58.7,2.2c0,0,17.7-49.4-37.7-72.7
			c-74.5-31.3-150.7,57.5-94.4,121.6C1466.7,209.6,1566.4,127.5,1566.4,127.5z"/>
		<path class="st4" d="M1395.1,128.3c0,0-100.1,0.4-90.1-41.9c10.5-44.4,60.8-17.9,58.7,2.2c0,0,17.7-49.4-37.7-72.7
			c-74.5-31.3-150.7,57.5-94.4,121.6C1295.5,210.4,1395.1,128.3,1395.1,128.3z"/>
		<path class="st4" d="M1225.1,128.3c0,0-100.1,0.4-90.1-41.9c10.5-44.4,60.8-17.9,58.7,2.2c0,0,17.7-49.4-37.7-72.7
			c-74.5-31.3-150.7,57.5-94.4,121.6C1125.5,210.4,1225.1,128.3,1225.1,128.3z"/>
		<path class="st4" d="M1054.3,128.3c0,0-100.1,0.4-90.1-41.9c10.5-44.4,60.8-17.9,58.7,2.2c0,0,17.7-49.4-37.7-72.7
			c-74.5-31.3-150.7,57.5-94.4,121.6C954.7,210.4,1054.3,128.3,1054.3,128.3z"/>
		<path class="st4" d="M884.3,128.3c0,0-100.1,0.4-90.1-41.9c10.5-44.4,60.8-17.9,58.7,2.2c0,0,17.7-49.4-37.7-72.7
			c-74.5-31.3-150.7,57.5-94.4,121.6C784.7,210.4,884.3,128.3,884.3,128.3z"/>
		<path class="st4" d="M715.2,128.3c0,0-100.1,0.4-90.1-41.9c10.5-44.4,60.8-17.9,58.7,2.2c0,0,17.7-49.4-37.7-72.7
			c-74.5-31.3-150.7,57.5-94.4,121.6C615.6,210.4,715.2,128.3,715.2,128.3z"/>
		<path class="st4" d="M546.2,129.9c0,0-100.1,0.4-90.1-41.9c10.5-44.4,60.8-17.9,58.7,2.2c0,0,17.7-49.4-37.7-72.7
			c-74.5-31.3-150.7,57.5-94.4,121.6C446.5,211.9,546.2,129.9,546.2,129.9z"/>
	</g>
	<g class="st3">
		<g>
			<path class="st0" d="M1535.2,89.6c0.7-0.9,0.9-2.1,1.2-3.2l0.4-1.7l0.3-1.8c0.3-2.3,0.4-4.7,0.4-7.1c0.1-4.7-0.5-9.4-1.4-14
				c-1.9-9.2-5.7-18-11.6-25.2c-2.9-3.6-6.2-6.9-9.9-9.7c-1.9-1.3-3.7-2.7-5.8-3.8l-1.5-0.9c-0.5-0.3-1-0.6-1.5-0.8l-3.1-1.5
				l-0.8-0.4l-0.8-0.3l-1.6-0.6c-1.1-0.4-2.1-0.9-3.2-1.2l-3.3-1.1l-1.7-0.5l-1.7-0.4l-3.4-0.8c-1.1-0.3-2.3-0.4-3.4-0.7l-3.4-0.6
				c-1.2-0.2-2.3-0.3-3.5-0.4l-3.5-0.4c-1.2-0.1-2.3-0.1-3.5-0.2l-3.5-0.2c-1.2-0.1-2.3,0-3.5,0c-4.6-0.1-9.2,0.6-13.7,1.5
				c-8.9,2-17.5,5.8-25.1,11.1c-3.8,2.5-7.3,5.6-10.7,8.8c-1.6,1.7-3.3,3.3-4.8,5c-0.7,0.9-1.5,1.7-2.3,2.6l-2.1,2.7
				c-0.7,0.9-1.4,1.9-2,2.8c-0.6,1-1.3,1.9-1.9,2.9c-1.2,2-2.5,3.9-3.5,6c-2.2,4-4,8.3-5.6,12.6c-0.7,2.2-1.5,4.4-2.1,6.6
				c-0.7,2.2-1.1,4.5-1.5,6.7c-0.2,1.1-0.3,2.3-0.5,3.4c-0.2,1.1-0.3,2.3-0.4,3.4l-0.2,3.4l0,3.4c0.1,4.6,0.5,9.1,1.7,13.5l0.4,1.7
				c0.1,0.5,0.3,1.1,0.5,1.6c0.4,1.1,0.7,2.2,1.1,3.2c0.9,2.1,1.7,4.2,2.9,6.2c1,2,2.4,3.9,3.6,5.8c0.7,0.9,1.4,1.8,2.1,2.8
				c0.7,0.9,1.5,1.8,2.2,2.7c3,3.4,6.3,6.7,10.1,9c3.7,2.5,7.9,4,12.3,4.9c2.2,0.4,4.5,0.7,6.8,0.8c2.3,0.1,4.6,0.1,7,0
				c9.4-0.4,18.8-1.5,28.3-2.3c4.8-0.4,9.5-0.8,14.3-1c4.8-0.2,9.7-0.1,14.5,0.5c4.8,0.6,9.6,1.6,14.2,3c4.6,1.4,9.1,3.3,13.4,5.4
				c4.3,2.1,8.4,4.5,12.6,6.7c2.1,1.1,4.2,2.1,6.5,2.7c2.2,0.7,4.6,0.8,6.9,0l0.1,0.3c-2.3,0.8-4.8,0.8-7.1,0.2
				c-2.3-0.6-4.5-1.5-6.7-2.6c-4.3-2.1-8.4-4.4-12.7-6.4c-4.3-2-8.7-3.8-13.3-5.1c-4.6-1.3-9.2-2.2-14-2.7c-9.5-1.1-19,0-28.4,0.9
				c-9.5,0.9-18.9,2.2-28.4,2.7c-2.4,0.1-4.8,0.1-7.2,0.1c-2.4-0.1-4.8-0.3-7.1-0.7c-4.7-0.8-9.3-2.5-13.3-5.2
				c-4.1-2.6-7.5-5.9-10.7-9.5c-3.1-3.6-6-7.4-8.3-11.6c-1.2-2.1-2.1-4.3-3.1-6.5c-0.4-1.1-0.8-2.3-1.2-3.4
				c-0.2-0.6-0.4-1.1-0.6-1.7l-0.4-1.7c-1.2-4.6-1.7-9.4-1.8-14.2l0-3.6l0.2-3.6c0-1.2,0.2-2.4,0.4-3.6c0.2-1.2,0.3-2.4,0.5-3.5
				c0.5-2.3,0.9-4.7,1.6-7c0.6-2.3,1.4-4.6,2.1-6.8c1.7-4.5,3.5-8.9,5.9-13.1c1.1-2.1,2.4-4.1,3.6-6.2c0.6-1,1.3-2,2-3
				c0.7-1,1.3-2,2.1-2.9l2.2-2.8c0.7-0.9,1.6-1.8,2.3-2.7c1.5-1.8,3.3-3.5,4.9-5.2c3.5-3.2,7.1-6.4,11.1-9
				c7.8-5.5,16.8-9.3,26.1-11.3c4.7-0.9,9.4-1.5,14.2-1.4c1.2,0,2.4-0.1,3.6,0.1l3.6,0.2c1.2,0.1,2.4,0.1,3.6,0.3l3.5,0.4
				c1.2,0.2,2.4,0.3,3.5,0.5l3.5,0.7c1.2,0.2,2.4,0.4,3.5,0.7l3.5,0.9l1.7,0.4l1.7,0.6l3.4,1.1c1.1,0.4,2.2,0.9,3.3,1.3l1.7,0.7
				l0.8,0.3l0.8,0.4l3.2,1.6c0.5,0.3,1.1,0.6,1.6,0.9l1.5,0.9c2.1,1.2,4,2.7,5.9,4c3.7,3,7.1,6.4,10,10.2c5.9,7.6,9.6,16.7,11.3,26
				c0.8,4.7,1.3,9.5,1.1,14.2c-0.1,2.4-0.3,4.8-0.6,7.1l-0.3,1.8l-0.4,1.7c-0.4,1.1-0.6,2.3-1.4,3.3L1535.2,89.6z"/>
		</g>
		<g>
			<path class="st0" d="M1521.7,52.3c-1.5-2.3-3.4-4.3-5.5-6.2c-1-1-2.1-1.8-3.2-2.7c-1.1-0.8-2.2-1.6-3.4-2.4
				c-4.7-2.9-9.7-5.2-15-6.6l-1-0.3l-1-0.2l-2-0.5l-2-0.5c-0.7-0.2-1.3-0.2-2-0.3l-4.1-0.6c-1.4-0.1-2.7-0.2-4.1-0.3
				c-2.7-0.3-5.5-0.1-8.2-0.2c-1.4,0-2.7,0.1-4,0.2c-1.3,0.1-2.6,0.4-4,0.5c-10.5,2-20.4,7.1-28.7,13.9c-8.3,6.9-15.3,15.5-20,25.1
				c-1.2,2.4-2.2,4.9-3.1,7.4c-0.8,2.5-1.5,5.1-1.9,7.7c-0.2,1.3-0.3,2.6-0.4,3.9c0,0.6,0,1.3,0,1.9l0,1c0,0.3,0.1,0.6,0.1,1
				c0.2,2.6,0.9,5,1.8,7.3l0.8,1.7l1,1.6c0.3,0.5,0.7,1,1.1,1.5c0.4,0.5,0.8,1,1.2,1.5c1.7,2,3.7,3.6,5.8,5c2.1,1.5,4.5,2.6,7,3.6
				c2.4,1,5,1.8,7.7,2.4c10.6,2.6,21.8,3,32.9,4.2c5.6,0.7,11.2,1.4,16.7,2.7c2.7,0.6,5.5,1.4,8.1,2.4c2.7,1,5.2,2.2,7.7,3.5
				l-0.1,0.3c-5-2.4-10.4-4.1-15.9-5.1c-5.5-1.1-11-1.7-16.6-2.1c-11.1-0.9-22.4-1.1-33.3-3.5c-2.7-0.6-5.4-1.3-8.1-2.4
				c-2.6-1-5.2-2.2-7.5-3.8c-2.3-1.6-4.6-3.3-6.4-5.4c-0.5-0.5-0.9-1.1-1.4-1.6c-0.4-0.6-0.9-1.1-1.2-1.7l-1.1-1.8l-0.9-1.9
				c-1.1-2.6-1.9-5.3-2.1-8.2c0-0.4-0.1-0.7-0.1-1.1l0-1.1c0-0.7-0.1-1.4,0-2.1c0.1-1.4,0.1-2.8,0.4-4.2c0.3-2.8,1.1-5.5,1.9-8.2
				c0.9-2.6,1.9-5.3,3.2-7.8c5-10.1,12.3-18.9,21-25.9c4.4-3.5,9.1-6.6,14.1-9c5-2.4,10.4-4.3,16-5.1c1.4-0.2,2.8-0.4,4.2-0.5
				c1.4-0.1,2.8-0.2,4.2-0.1c2.8,0.1,5.6,0,8.4,0.4c1.4,0.1,2.8,0.2,4.2,0.4l4.1,0.7c0.7,0.1,1.4,0.2,2.1,0.4l2,0.5l2,0.5l1,0.3
				l1,0.3c5.4,1.6,10.4,4.2,15.1,7.3c1.1,0.8,2.3,1.7,3.4,2.5c1,0.9,2.1,1.8,3.1,2.8c2,2,3.8,4.1,5.3,6.5L1521.7,52.3z"/>
		</g>
		<g>
			<path class="st0" d="M1535,89.6c0.3-1.5,0-3-0.4-4.5c-0.2-0.7-0.4-1.5-0.7-2.2c-0.3-0.7-0.6-1.4-0.9-2.1c-1.3-2.8-3-5.4-4.8-7.8
				c-1.8-2.5-3.7-4.8-5.9-7c-2.1-2.2-4.3-4.3-6.8-6.1c-4.8-3.7-10-6.8-15.6-8.5c-2.8-0.8-5.6-1.5-8.5-1.6c-0.7-0.1-1.4,0-2.1,0
				c-0.7,0-1.4,0-2.1,0.1l-2.1,0.3l-2.1,0.5c-5.6,1.3-10.7,4.5-15.3,8.2c-2.2,1.9-4.4,4-6.2,6.3c-1.8,2.3-3.3,4.8-4.4,7.5
				c-2.3,5.4-2.7,11.5-1.5,17.4c1,6,3.5,11.8,6.8,17l-0.2,0.2c-2-2.5-3.6-5.2-5-8c-1.4-2.8-2.5-5.8-3.2-8.8
				c-1.5-6.1-1.3-12.7,0.9-18.6c1.1-3,2.6-5.7,4.5-8.3c1.9-2.5,4.1-4.8,6.4-6.9c4.8-4.1,10.2-7.6,16.4-9.1l2.3-0.5l2.4-0.3
				c0.8-0.1,1.6-0.1,2.4-0.1c0.8,0,1.6-0.1,2.4,0l2.4,0.2l2.3,0.4c0.8,0.1,1.5,0.3,2.3,0.5c0.8,0.2,1.5,0.4,2.3,0.7
				c6,2,11.4,5.4,16.2,9.4c2.4,2,4.6,4.3,6.7,6.6c2.1,2.3,4,4.8,5.7,7.5c1.7,2.6,3.2,5.4,4.4,8.3c0.3,0.7,0.6,1.5,0.8,2.2
				c0.3,0.7,0.4,1.5,0.6,2.3c0.3,1.5,0.4,3.2,0,4.7L1535,89.6z"/>
		</g>
		<g>
			<path class="st0" d="M1549.7,129c-1.9,0-3.8-0.1-5.7-0.1c-1.9-0.1-3.8-0.2-5.7-0.4c-3.8-0.3-7.5-0.6-11.3-1.1
				c-7.5-1-15-2.3-22.4-4.3c-1.9-0.5-3.7-1-5.5-1.6c-1.8-0.6-3.7-1.3-5.5-2c-3.6-1.5-7.2-3.3-10.4-5.9c-0.8-0.6-1.6-1.4-2.3-2.2
				l-1.9-2.3c-0.7-0.7-1.2-1.6-1.8-2.4l-0.9-1.3l-0.7-1.3c-2-3.6-3.3-7.7-3.4-12c-0.1-2.1,0.3-4.2,0.7-6.3c0.3-1,0.6-2,0.9-3
				c0.4-0.9,0.7-1.9,1.2-2.8c1.7-3.7,3.9-7,6.3-10l0.4-0.6c0.1-0.2,0.4-0.4,0.5-0.6c0.4-0.4,0.7-0.9,1.1-1.2l1.2-1.1l1.3-1
				c1.8-1.2,3.7-2.1,5.7-2.8c2-0.6,4-1.1,6-1.3c2-0.2,4-0.3,6-0.2c7.9,0.4,15.8,3,22,7.9c3,2.5,5.6,5.6,7.3,9.1
				c0.4,0.9,0.8,1.8,1.1,2.7c0.2,0.5,0.3,0.9,0.5,1.4l0.3,1.4c0.3,0.9,0.3,1.9,0.4,2.8c0.1,1,0.1,1.9,0.1,2.9l-0.3,0
				c-0.2-3.7-1.3-7.4-3.1-10.7c-1.8-3.3-4.4-6.1-7.4-8.3c-6.1-4.4-13.6-6.7-21.1-6.8c-3.7-0.1-7.5,0.5-11,1.7
				c-1.8,0.6-3.4,1.5-5,2.5c-1.6,1-2.8,2.4-3.9,3.9c-2.3,3-4.3,6.1-5.9,9.5c-0.4,0.8-0.7,1.7-1.1,2.6c-0.3,0.9-0.5,1.8-0.8,2.7
				c-0.4,1.8-0.7,3.7-0.6,5.5c0.1,3.7,1.2,7.4,3,10.6l0.7,1.2l0.8,1.2c0.5,0.8,1,1.6,1.6,2.3l1.8,2.2c0.7,0.6,1.3,1.4,2,1.9
				c2.9,2.4,6.2,4.2,9.6,5.7c3.4,1.5,7,2.7,10.6,3.8c7.2,2.1,14.6,3.7,22,5c7.4,1.2,14.9,2.2,22.4,2.9L1549.7,129z"/>
		</g>
	</g>
	<g class="st3">
		<g>
			<path class="st0" d="M1364,89.6c0.6-0.9,0.9-2.1,1.2-3.2l0.4-1.7l0.3-1.7c0.3-2.3,0.4-4.7,0.4-7c0.1-4.7-0.4-9.4-1.4-14
				c-1.9-9.2-5.6-18-11.4-25.2c-2.9-3.6-6.1-6.9-9.8-9.7c-0.9-0.7-1.9-1.3-2.8-2c-0.5-0.3-0.9-0.7-1.4-1l-1.5-0.9
				c-1-0.6-2-1.2-3-1.7l-3.1-1.5c-1-0.5-2.1-0.9-3.2-1.4c-1.1-0.4-2.1-0.9-3.2-1.3l-3.3-1.1l-1.7-0.5l-1.7-0.4
				c-2.3-0.5-4.5-1.2-6.8-1.5l-3.4-0.6c-1.1-0.2-2.3-0.3-3.5-0.4l-3.5-0.4c-1.2-0.1-2.3-0.1-3.5-0.2l-3.5-0.2c-0.6,0-1.2-0.1-1.7,0
				l-1.7,0c-4.6-0.1-9.1,0.6-13.6,1.5c-8.9,2-17.4,5.8-24.9,11.1c-3.8,2.5-7.3,5.6-10.6,8.8c-1.6,1.7-3.3,3.2-4.7,5
				c-0.7,0.9-1.5,1.7-2.2,2.6l-2.1,2.7c-0.7,0.9-1.4,1.9-2,2.8c-0.6,1-1.3,1.9-1.9,2.9c-1.2,2-2.4,3.9-3.5,6c-2.2,4-4,8.3-5.6,12.6
				c-0.7,2.2-1.5,4.3-2,6.6c-0.3,1.1-0.6,2.2-0.8,3.3l-0.7,3.4c-0.7,4.5-1.3,9.1-1.2,13.6l0,1.7l0.1,1.7c0.1,1.1,0.1,2.3,0.3,3.4
				l0.5,3.4l0.1,0.8l0.2,0.8l0.4,1.7c0.4,2.2,1.3,4.3,1.9,6.5c0.9,2.1,1.7,4.2,2.8,6.2l0.8,1.5l0.4,0.7l0.5,0.7l1.9,2.8
				c0.6,0.9,1.4,1.8,2.1,2.8c0.7,0.9,1.4,1.8,2.2,2.7c3,3.5,6.2,6.7,9.9,9.1c3.7,2.5,7.8,4.1,12.2,5c4.4,0.9,9,1,13.6,0.9
				c4.6-0.1,9.3-0.6,14-1l14.2-1.3c4.7-0.4,9.5-0.8,14.2-1c4.8-0.2,9.6-0.1,14.4,0.5c4.8,0.6,9.5,1.6,14.1,3c4.6,1.4,9,3.3,13.3,5.4
				c4.3,2.1,8.4,4.5,12.5,6.7c2.1,1.1,4.2,2.1,6.5,2.7c2.2,0.7,4.6,0.8,6.9,0l0.1,0.3c-2.3,0.8-4.8,0.8-7.1,0.2
				c-2.3-0.6-4.5-1.6-6.6-2.6c-4.3-2.1-8.4-4.4-12.7-6.4c-4.3-2-8.7-3.8-13.2-5.1c-4.5-1.3-9.2-2.2-13.9-2.7
				c-9.4-1-18.9,0.1-28.3,0.9l-14.1,1.5c-4.7,0.5-9.4,1-14.2,1.2c-4.7,0.2-9.5,0.1-14.2-0.7c-4.7-0.9-9.2-2.6-13.2-5.3
				c-4-2.6-7.4-6-10.6-9.6c-3.1-3.6-6-7.4-8.2-11.7c-1.2-2-2-4.3-3-6.5c-0.7-2.3-1.6-4.5-2.1-6.8l-0.4-1.7l-0.2-0.9l-0.1-0.9
				l-0.5-3.5c-0.2-1.2-0.2-2.4-0.3-3.6l-0.1-1.8l0-1.8c-0.2-4.8,0.4-9.5,1.1-14.2l0.7-3.5c0.2-1.2,0.6-2.3,0.9-3.5
				c0.5-2.3,1.4-4.6,2.1-6.8c1.7-4.5,3.5-8.9,5.8-13c1.1-2.1,2.4-4.1,3.6-6.2c0.6-1,1.3-2,2-2.9c0.7-1,1.3-2,2.1-2.9l2.2-2.8
				c0.7-0.9,1.6-1.8,2.3-2.7c1.5-1.8,3.2-3.5,4.9-5.2c3.5-3.2,7.1-6.4,11-9c7.8-5.5,16.7-9.3,26-11.4c4.7-0.9,9.4-1.5,14.2-1.4
				c1.2,0,2.4-0.1,3.6,0.1l3.6,0.2c1.2,0.1,2.4,0.1,3.5,0.3l3.5,0.5c1.2,0.2,2.4,0.3,3.5,0.5l3.5,0.7c2.3,0.4,4.6,1,6.9,1.6l1.7,0.5
				l1.7,0.6l3.4,1.1c1.1,0.4,2.2,0.9,3.3,1.3c1.1,0.5,2.2,0.9,3.3,1.4l3.2,1.6c1.1,0.5,2,1.2,3.1,1.8l1.5,0.9c0.5,0.3,1,0.7,1.5,1
				c1,0.7,1.9,1.4,2.9,2.1c3.7,3,7,6.4,9.9,10.2c5.8,7.6,9.4,16.6,11.1,26c0.8,4.7,1.2,9.4,1.1,14.2c-0.1,2.4-0.3,4.7-0.6,7.1
				l-0.3,1.8l-0.4,1.7c-0.4,1.1-0.6,2.3-1.4,3.3L1364,89.6z"/>
		</g>
		<g>
			<path class="st0" d="M1350.6,52.3c-1.5-2.3-3.4-4.3-5.4-6.2c-1-1-2.1-1.8-3.1-2.7c-1.1-0.8-2.2-1.6-3.4-2.4
				c-4.6-2.9-9.6-5.2-14.9-6.6l-1-0.3l-1-0.2l-2-0.5l-2-0.5c-0.7-0.2-1.3-0.2-2-0.3l-4-0.6c-1.4-0.1-2.7-0.2-4.1-0.3
				c-2.7-0.3-5.4-0.1-8.2-0.2c-1.4,0-2.7,0.1-4,0.2l-1,0.1l-1,0.2l-2,0.3c-10.5,2-20.3,7.1-28.5,14c-8.3,6.9-15.2,15.5-19.8,25.1
				c-1.2,2.4-2.2,4.8-3.1,7.3c-0.8,2.5-1.5,5.1-1.8,7.6c-0.2,1.3-0.3,2.6-0.4,3.9c0,0.6,0,1.3,0,1.9c0,0.6,0,1.3,0.1,1.9
				c0.2,2.6,0.9,5,1.8,7.3l0.8,1.7c0.3,0.5,0.7,1.1,1,1.6c0.3,0.5,0.7,1,1.1,1.5c0.4,0.5,0.8,1,1.2,1.5c1.7,2,3.6,3.6,5.8,5.1
				c2.1,1.5,4.5,2.6,6.9,3.6c2.4,1,5,1.8,7.6,2.5c10.5,2.6,21.7,3,32.8,4.2c5.5,0.7,11.1,1.4,16.6,2.7c2.7,0.6,5.4,1.4,8.1,2.4
				c2.6,1,5.2,2.2,7.6,3.5l-0.1,0.3c-5-2.4-10.3-4.1-15.8-5.1c-5.4-1.1-11-1.7-16.5-2.1l-16.6-1.2c-5.5-0.5-11.1-1.1-16.5-2.3
				c-5.4-1.2-10.8-3.1-15.5-6.2c-4.7-3.1-8.6-7.3-10.9-12.5c-1.1-2.6-1.9-5.3-2.1-8.1c-0.1-0.7-0.1-1.4-0.1-2.1c0-0.7-0.1-1.4,0-2.1
				c0.1-1.4,0.1-2.8,0.4-4.2c0.3-2.8,1.1-5.5,1.9-8.2c0.9-2.6,1.9-5.3,3.2-7.7c4.9-10,12.2-18.8,20.8-25.9c4.3-3.5,9-6.6,14-9
				c5-2.4,10.3-4.3,15.9-5.1c2.8-0.4,5.6-0.7,8.3-0.6c2.8,0.1,5.6,0,8.3,0.4c1.4,0.1,2.8,0.2,4.2,0.4l4.1,0.7
				c0.7,0.1,1.4,0.2,2.1,0.4l2,0.5l2,0.5l1,0.3l1,0.3c5.3,1.7,10.4,4.2,15,7.3c1.1,0.8,2.2,1.7,3.3,2.5c1,0.9,2.1,1.8,3.1,2.8
				c2,2,3.8,4.1,5.2,6.5L1350.6,52.3z"/>
		</g>
		<g>
			<path class="st0" d="M1363.7,89.6c0.3-1.5,0-3-0.4-4.5c-0.4-1.5-1-2.9-1.6-4.3c-1.3-2.7-2.9-5.4-4.7-7.8c-1.8-2.5-3.7-4.8-5.9-7
				c-2.1-2.2-4.3-4.3-6.7-6.1c-4.7-3.7-9.9-6.8-15.5-8.6c-2.8-0.8-5.6-1.5-8.5-1.6c-0.7-0.1-1.4,0-2.1,0c-0.7,0-1.4,0-2.1,0.1
				l-2.1,0.3l-2.1,0.5c-5.6,1.3-10.6,4.5-15.2,8.3c-2.2,1.9-4.3,4-6.1,6.3c-1.7,2.3-3.2,4.8-4.3,7.5c-2.2,5.4-2.7,11.4-1.5,17.4
				c0.5,3,1.4,5.9,2.6,8.7c0.6,1.4,1.2,2.8,1.9,4.2c0.7,1.4,1.4,2.7,2.3,4l-0.2,0.2c-1.9-2.5-3.5-5.2-4.9-8
				c-1.4-2.8-2.5-5.8-3.2-8.8c-1.5-6.1-1.3-12.6,0.8-18.6c1.1-3,2.6-5.7,4.4-8.3c1.9-2.5,4-4.8,6.4-6.9c4.7-4.1,10.2-7.6,16.3-9.1
				l2.3-0.5c0.8-0.1,1.6-0.2,2.3-0.3c0.8-0.1,1.6-0.1,2.4-0.1c0.8,0,1.6-0.1,2.4,0l2.4,0.2l2.3,0.4c0.8,0.1,1.5,0.3,2.3,0.5
				c0.8,0.2,1.5,0.4,2.3,0.7c6,2,11.4,5.4,16.1,9.5c2.4,2,4.6,4.3,6.7,6.6c2.1,2.4,4,4.8,5.7,7.5c1.7,2.6,3.2,5.4,4.3,8.3
				c0.6,1.5,1,3,1.4,4.5c0.3,1.5,0.4,3.2,0,4.7L1363.7,89.6z"/>
		</g>
		<g>
			<path class="st0" d="M1378.4,129c-1.9,0-3.8-0.1-5.6-0.1c-1.9-0.1-3.8-0.2-5.6-0.4c-3.8-0.3-7.5-0.6-11.3-1.1
				c-7.5-1-14.9-2.3-22.3-4.3c-1.8-0.5-3.7-1-5.5-1.6c-1.8-0.6-3.6-1.3-5.4-2c-3.6-1.5-7.1-3.3-10.4-6c-0.8-0.6-1.6-1.4-2.3-2.2
				l-1.9-2.3c-0.7-0.7-1.2-1.6-1.8-2.4c-0.3-0.4-0.6-0.8-0.8-1.3l-0.7-1.3c-2-3.6-3.3-7.7-3.3-12c-0.1-1.1,0.1-2.1,0.2-3.2
				c0.1-1,0.4-2.1,0.6-3.1c0.3-1,0.6-2,0.9-3c0.4-0.9,0.7-1.9,1.2-2.8c1.7-3.7,3.9-7,6.3-10c0.3-0.4,0.6-0.8,1-1.2
				c0.4-0.4,0.7-0.9,1.1-1.2l1.2-1.1l1.3-1c1.8-1.2,3.7-2.1,5.6-2.8c2-0.6,3.9-1.1,5.9-1.3c2-0.2,4-0.3,6-0.2
				c7.9,0.4,15.7,3,21.9,7.9c3,2.5,5.6,5.6,7.2,9.1c0.4,0.9,0.8,1.8,1.1,2.7c0.1,0.5,0.3,0.9,0.4,1.4l0.3,1.4
				c0.2,0.9,0.3,1.9,0.4,2.8c0.1,0.9,0.1,1.9,0.1,2.8l-0.3,0c-0.2-3.7-1.2-7.4-3-10.7c-1.8-3.3-4.4-6.1-7.3-8.3
				c-6-4.4-13.5-6.7-20.9-6.8c-3.7-0.1-7.5,0.4-11,1.7c-1.7,0.6-3.4,1.5-4.9,2.5c-1.5,1-2.8,2.4-3.9,3.9c-2.2,3-4.3,6.1-5.9,9.5
				c-0.4,0.8-0.7,1.7-1.1,2.6c-0.3,0.9-0.5,1.8-0.8,2.7c-0.2,0.9-0.4,1.8-0.5,2.7c0,0.9-0.2,1.8-0.1,2.8c0,3.7,1.1,7.3,2.9,10.6
				l0.7,1.2c0.2,0.4,0.5,0.8,0.8,1.2c0.5,0.8,1,1.6,1.6,2.3l1.8,2.2c0.3,0.3,0.6,0.7,1,1c0.3,0.3,0.7,0.6,1,0.9
				c2.8,2.4,6.1,4.2,9.6,5.7c3.4,1.5,7,2.7,10.5,3.8c7.2,2.1,14.5,3.7,21.9,5c7.4,1.3,14.8,2.2,22.3,2.9L1378.4,129z"/>
		</g>
	</g>
	<g class="st3">
		<g>
			<path class="st0" d="M1193.2,89.6c0.6-0.9,0.9-2.1,1.2-3.2l0.4-1.7l0.3-1.7c0.3-2.3,0.4-4.7,0.4-7c0.1-4.7-0.4-9.4-1.4-14
				c-1.9-9.2-5.6-18-11.4-25.2c-2.9-3.6-6.1-6.9-9.8-9.7c-0.9-0.7-1.9-1.3-2.8-2c-0.5-0.3-0.9-0.7-1.4-1l-1.5-0.9
				c-1-0.6-2-1.2-3-1.7l-3.1-1.5c-1-0.5-2.1-0.9-3.2-1.4c-1.1-0.4-2.1-0.9-3.2-1.3l-3.3-1.1l-1.7-0.5l-1.7-0.4
				c-2.3-0.5-4.5-1.2-6.8-1.5l-3.4-0.6c-1.1-0.2-2.3-0.3-3.5-0.4l-3.5-0.4c-1.2-0.1-2.3-0.1-3.5-0.2l-3.5-0.2c-0.6,0-1.2-0.1-1.7,0
				l-1.7,0c-4.6-0.1-9.1,0.6-13.6,1.5c-8.9,2-17.4,5.8-24.9,11.1c-3.8,2.5-7.3,5.6-10.6,8.8c-1.6,1.7-3.3,3.2-4.7,5
				c-0.7,0.9-1.5,1.7-2.2,2.6l-2.1,2.7c-0.7,0.9-1.4,1.9-2,2.8c-0.6,1-1.3,1.9-1.9,2.9c-1.2,2-2.4,3.9-3.5,6c-2.2,4-4,8.3-5.6,12.6
				c-0.7,2.2-1.5,4.3-2,6.6c-0.3,1.1-0.6,2.2-0.8,3.3l-0.7,3.4c-0.7,4.5-1.3,9.1-1.2,13.6l0,1.7l0.1,1.7c0.1,1.1,0.1,2.3,0.3,3.4
				l0.5,3.4l0.1,0.8l0.2,0.8l0.4,1.7c0.4,2.2,1.3,4.3,1.9,6.5c0.9,2.1,1.7,4.2,2.8,6.2l0.8,1.5l0.4,0.7l0.5,0.7l1.9,2.8
				c0.6,0.9,1.4,1.8,2.1,2.8c0.7,0.9,1.4,1.8,2.2,2.7c3,3.5,6.2,6.7,9.9,9.1c3.7,2.5,7.8,4.1,12.2,5c4.4,0.9,9,1,13.6,0.9
				c4.6-0.1,9.3-0.6,14-1l14.2-1.3c4.7-0.4,9.5-0.8,14.2-1c4.8-0.2,9.6-0.1,14.4,0.5c4.8,0.6,9.5,1.6,14.1,3c4.6,1.4,9,3.3,13.3,5.4
				c4.3,2.1,8.4,4.5,12.5,6.7c2.1,1.1,4.2,2.1,6.5,2.7c2.2,0.7,4.6,0.8,6.9,0l0.1,0.3c-2.3,0.8-4.8,0.8-7.1,0.2
				c-2.3-0.6-4.5-1.6-6.6-2.6c-4.3-2.1-8.4-4.4-12.7-6.4c-4.3-2-8.7-3.8-13.2-5.1c-4.5-1.3-9.2-2.2-13.9-2.7
				c-9.4-1-18.9,0.1-28.3,0.9l-14.1,1.5c-4.7,0.5-9.4,1-14.2,1.2c-4.7,0.2-9.5,0.1-14.2-0.7c-4.7-0.9-9.2-2.6-13.2-5.3
				c-4-2.6-7.4-6-10.6-9.6c-3.1-3.6-6-7.4-8.2-11.7c-1.2-2-2-4.3-3-6.5c-0.7-2.3-1.6-4.5-2.1-6.8l-0.4-1.7l-0.2-0.9l-0.1-0.9
				l-0.5-3.5c-0.2-1.2-0.2-2.4-0.3-3.6l-0.1-1.8l0-1.8c-0.2-4.8,0.4-9.5,1.1-14.2l0.7-3.5c0.2-1.2,0.6-2.3,0.9-3.5
				c0.5-2.3,1.4-4.6,2.1-6.8c1.7-4.5,3.5-8.9,5.8-13c1.1-2.1,2.4-4.1,3.6-6.2c0.6-1,1.3-2,2-2.9c0.7-1,1.3-2,2.1-2.9l2.2-2.8
				c0.7-0.9,1.6-1.8,2.3-2.7c1.5-1.8,3.2-3.5,4.9-5.2c3.5-3.2,7.1-6.4,11-9c7.8-5.5,16.7-9.3,26-11.4c4.7-0.9,9.4-1.5,14.2-1.4
				c1.2,0,2.4-0.1,3.6,0.1l3.6,0.2c1.2,0.1,2.4,0.1,3.5,0.3l3.5,0.5c1.2,0.2,2.4,0.3,3.5,0.5l3.5,0.7c2.3,0.4,4.6,1,6.9,1.6l1.7,0.5
				l1.7,0.6l3.4,1.1c1.1,0.4,2.2,0.9,3.3,1.3c1.1,0.5,2.2,0.9,3.3,1.4l3.2,1.6c1.1,0.5,2,1.2,3.1,1.8l1.5,0.9c0.5,0.3,1,0.7,1.5,1
				c1,0.7,1.9,1.4,2.9,2.1c3.7,3,7,6.4,9.9,10.2c5.8,7.6,9.4,16.6,11.1,26c0.8,4.7,1.2,9.4,1.1,14.2c-0.1,2.4-0.3,4.7-0.6,7.1
				l-0.3,1.8l-0.4,1.7c-0.4,1.1-0.6,2.3-1.4,3.3L1193.2,89.6z"/>
		</g>
		<g>
			<path class="st0" d="M1179.7,52.3c-1.5-2.3-3.4-4.3-5.4-6.2c-1-1-2.1-1.8-3.1-2.7c-1.1-0.8-2.2-1.6-3.4-2.4
				c-4.6-2.9-9.6-5.2-14.9-6.6l-1-0.3l-1-0.2l-2-0.5l-2-0.5c-0.7-0.2-1.3-0.2-2-0.3l-4-0.6c-1.4-0.1-2.7-0.2-4.1-0.3
				c-2.7-0.3-5.4-0.1-8.2-0.2c-1.4,0-2.7,0.1-4,0.2l-1,0.1l-1,0.2l-2,0.3c-10.5,2-20.3,7.1-28.5,14c-8.3,6.9-15.2,15.5-19.8,25.1
				c-1.2,2.4-2.2,4.8-3.1,7.3c-0.8,2.5-1.5,5.1-1.8,7.6c-0.2,1.3-0.3,2.6-0.4,3.9c0,0.6,0,1.3,0,1.9c0,0.6,0,1.3,0.1,1.9
				c0.2,2.6,0.9,5,1.8,7.3l0.8,1.7c0.3,0.5,0.7,1.1,1,1.6c0.3,0.5,0.7,1,1.1,1.5c0.4,0.5,0.8,1,1.2,1.5c1.7,2,3.6,3.6,5.8,5.1
				c2.1,1.5,4.5,2.6,6.9,3.6c2.4,1,5,1.8,7.6,2.5c10.5,2.6,21.7,3,32.8,4.2c5.5,0.7,11.1,1.4,16.6,2.7c2.7,0.6,5.4,1.4,8.1,2.4
				c2.6,1,5.2,2.2,7.6,3.5l-0.1,0.3c-5-2.4-10.3-4.1-15.8-5.1c-5.4-1.1-11-1.7-16.5-2.1l-16.6-1.2c-5.5-0.5-11.1-1.1-16.5-2.3
				c-5.4-1.2-10.8-3.1-15.5-6.2c-4.7-3.1-8.6-7.3-10.9-12.5c-1.1-2.6-1.9-5.3-2.1-8.1c-0.1-0.7-0.1-1.4-0.1-2.1c0-0.7-0.1-1.4,0-2.1
				c0.1-1.4,0.1-2.8,0.4-4.2c0.3-2.8,1.1-5.5,1.9-8.2c0.9-2.6,1.9-5.3,3.2-7.7c4.9-10,12.2-18.8,20.8-25.9c4.3-3.5,9-6.6,14-9
				c5-2.4,10.3-4.3,15.9-5.1c2.8-0.4,5.6-0.7,8.3-0.6c2.8,0.1,5.6,0,8.3,0.4c1.4,0.1,2.8,0.2,4.2,0.4l4.1,0.7
				c0.7,0.1,1.4,0.2,2.1,0.4l2,0.5l2,0.5l1,0.3l1,0.3c5.3,1.7,10.4,4.2,15,7.3c1.1,0.8,2.2,1.7,3.3,2.5c1,0.9,2.1,1.8,3.1,2.8
				c2,2,3.8,4.1,5.2,6.5L1179.7,52.3z"/>
		</g>
		<g>
			<path class="st0" d="M1192.9,89.6c0.3-1.5,0-3-0.4-4.5c-0.4-1.5-1-2.9-1.6-4.3c-1.3-2.7-2.9-5.4-4.7-7.8c-1.8-2.5-3.7-4.8-5.9-7
				c-2.1-2.2-4.3-4.3-6.7-6.1c-4.7-3.7-9.9-6.8-15.5-8.6c-2.8-0.8-5.6-1.5-8.5-1.6c-0.7-0.1-1.4,0-2.1,0c-0.7,0-1.4,0-2.1,0.1
				l-2.1,0.3l-2.1,0.5c-5.6,1.3-10.6,4.5-15.2,8.3c-2.2,1.9-4.3,4-6.1,6.3c-1.7,2.3-3.2,4.8-4.3,7.5c-2.2,5.4-2.7,11.4-1.5,17.4
				c0.5,3,1.4,5.9,2.6,8.7c0.6,1.4,1.2,2.8,1.9,4.2c0.7,1.4,1.4,2.7,2.3,4l-0.2,0.2c-1.9-2.5-3.5-5.2-4.9-8
				c-1.4-2.8-2.5-5.8-3.2-8.8c-1.5-6.1-1.3-12.6,0.8-18.6c1.1-3,2.6-5.7,4.4-8.3c1.9-2.5,4-4.8,6.4-6.9c4.7-4.1,10.2-7.6,16.3-9.1
				l2.3-0.5c0.8-0.1,1.6-0.2,2.3-0.3c0.8-0.1,1.6-0.1,2.4-0.1c0.8,0,1.6-0.1,2.4,0l2.4,0.2l2.3,0.4c0.8,0.1,1.5,0.3,2.3,0.5
				c0.8,0.2,1.5,0.4,2.3,0.7c6,2,11.4,5.4,16.1,9.5c2.4,2,4.6,4.3,6.7,6.6c2.1,2.4,4,4.8,5.7,7.5c1.7,2.6,3.2,5.4,4.3,8.3
				c0.6,1.5,1,3,1.4,4.5c0.3,1.5,0.4,3.2,0,4.7L1192.9,89.6z"/>
		</g>
		<g>
			<path class="st0" d="M1207.5,129c-1.9,0-3.8-0.1-5.6-0.1c-1.9-0.1-3.8-0.2-5.6-0.4c-3.8-0.3-7.5-0.6-11.3-1.1
				c-7.5-1-14.9-2.3-22.3-4.3c-1.8-0.5-3.7-1-5.5-1.6c-1.8-0.6-3.6-1.3-5.4-2c-3.6-1.5-7.1-3.3-10.4-6c-0.8-0.6-1.6-1.4-2.3-2.2
				l-1.9-2.3c-0.7-0.7-1.2-1.6-1.8-2.4c-0.3-0.4-0.6-0.8-0.8-1.3l-0.7-1.3c-2-3.6-3.3-7.7-3.3-12c-0.1-1.1,0.1-2.1,0.2-3.2
				c0.1-1,0.4-2.1,0.6-3.1c0.3-1,0.6-2,0.9-3c0.4-0.9,0.7-1.9,1.2-2.8c1.7-3.7,3.9-7,6.3-10c0.3-0.4,0.6-0.8,1-1.2
				c0.4-0.4,0.7-0.9,1.1-1.2l1.2-1.1l1.3-1c1.8-1.2,3.7-2.1,5.6-2.8c2-0.6,3.9-1.1,5.9-1.3c2-0.2,4-0.3,6-0.2
				c7.9,0.4,15.7,3,21.9,7.9c3,2.5,5.6,5.6,7.2,9.1c0.4,0.9,0.8,1.8,1.1,2.7c0.1,0.5,0.3,0.9,0.4,1.4l0.3,1.4
				c0.2,0.9,0.3,1.9,0.4,2.8c0.1,0.9,0.1,1.9,0.1,2.8l-0.3,0c-0.2-3.7-1.2-7.4-3-10.7c-1.8-3.3-4.4-6.1-7.3-8.3
				c-6-4.4-13.5-6.7-20.9-6.8c-3.7-0.1-7.5,0.4-11,1.7c-1.7,0.6-3.4,1.5-4.9,2.5c-1.6,1-2.8,2.4-3.9,3.9c-2.2,3-4.3,6.1-5.9,9.5
				c-0.4,0.8-0.7,1.7-1.1,2.6c-0.3,0.9-0.5,1.8-0.8,2.7c-0.2,0.9-0.4,1.8-0.5,2.7c0,0.9-0.2,1.8-0.1,2.8c0,3.7,1.1,7.3,2.9,10.6
				l0.7,1.2c0.2,0.4,0.5,0.8,0.8,1.2c0.5,0.8,1,1.6,1.6,2.3l1.8,2.2c0.3,0.3,0.6,0.7,1,1c0.3,0.3,0.7,0.6,1,0.9
				c2.8,2.4,6.1,4.2,9.6,5.7c3.4,1.5,7,2.7,10.5,3.8c7.2,2.1,14.5,3.7,21.9,5c7.4,1.3,14.8,2.2,22.3,2.9L1207.5,129z"/>
		</g>
	</g>
	<g class="st3">
		<g>
			<path class="st0" d="M1023,89.6c0.7-0.9,0.9-2.1,1.3-3.3l0.4-1.7l0.3-1.8c0.3-2.4,0.4-4.7,0.4-7.1c0-4.7-0.5-9.5-1.4-14.1
				c-1.9-9.2-5.8-18-11.8-25.3c-2.9-3.6-6.3-6.8-10-9.7c-1.9-1.3-3.8-2.7-5.8-3.8c-2-1.2-4.1-2.2-6.2-3.2c-8.5-3.8-17.7-5.9-27.1-7
				l-3.5-0.4l-3.5-0.2l-3.5-0.2c-1.2-0.1-2.3,0-3.5,0c-4.6,0-9.2,0.6-13.7,1.5c-9,2-17.6,5.7-25.2,11.1c-3.9,2.5-7.4,5.6-10.8,8.8
				c-1.6,1.7-3.3,3.3-4.8,5c-0.8,0.9-1.6,1.7-2.3,2.6l-2.1,2.7c-0.7,0.9-1.4,1.9-2,2.8c-0.6,1-1.3,1.9-2,2.9c-1.2,2-2.5,3.9-3.5,6
				c-2.3,4.1-4,8.4-5.7,12.7c-0.7,2.2-1.5,4.4-2.1,6.6c-0.7,2.2-1.1,4.5-1.5,6.8c-0.2,1.1-0.3,2.3-0.5,3.4l-0.2,1.7
				c-0.1,0.6-0.1,1.1-0.1,1.7l-0.2,3.4l0,3.4c0.1,4.6,0.6,9.2,1.8,13.6c0.1,0.6,0.3,1.1,0.4,1.7l0.5,1.6c0.4,1.1,0.7,2.2,1.1,3.2
				l1.4,3.1c0.2,0.5,0.5,1,0.8,1.5l0.8,1.5l0.8,1.5c0.3,0.5,0.6,0.9,0.9,1.4l1.9,2.8c1.4,1.9,2.8,3.7,4.4,5.4
				c3.1,3.5,6.4,6.6,10.2,9c1.9,1.2,3.9,2.2,6,3c2.1,0.8,4.3,1.3,6.5,1.8c4.5,0.8,9.1,0.9,13.8,0.7c9.4-0.4,18.9-1.6,28.5-2.3
				c4.8-0.4,9.6-0.8,14.4-1c4.9-0.2,9.7-0.1,14.6,0.5c4.8,0.6,9.6,1.6,14.2,3.1c4.6,1.4,9.1,3.3,13.4,5.4c4.3,2.1,8.5,4.5,12.7,6.7
				c2.1,1.1,4.3,2.1,6.5,2.7c2.3,0.7,4.7,0.7,6.9,0l0.1,0.3c-2.3,0.8-4.8,0.8-7.1,0.2c-2.3-0.6-4.6-1.5-6.7-2.6
				c-4.3-2.1-8.5-4.4-12.8-6.4c-4.3-2-8.8-3.8-13.4-5.1c-4.6-1.3-9.3-2.2-14-2.7c-9.5-1.1-19.1,0-28.6,0.9c-9.5,0.9-19,2.2-28.6,2.7
				c-4.8,0.2-9.6,0.2-14.4-0.6c-2.4-0.4-4.7-1-7-1.8c-2.3-0.8-4.4-1.9-6.5-3.2c-4.1-2.5-7.6-5.9-10.8-9.4c-1.6-1.8-3.1-3.7-4.5-5.6
				l-2-3c-0.3-0.5-0.7-1-1-1.5l-0.9-1.6l-0.9-1.6c-0.3-0.5-0.6-1-0.8-1.6l-1.4-3.3c-0.5-1.1-0.8-2.3-1.2-3.4l-0.6-1.7
				c-0.2-0.6-0.3-1.2-0.4-1.7c-1.3-4.6-1.8-9.5-1.9-14.2l0-3.6l0.2-3.6c0-0.6,0.1-1.2,0.1-1.8l0.2-1.8c0.2-1.2,0.3-2.4,0.5-3.6
				c0.5-2.4,0.9-4.7,1.6-7c0.6-2.3,1.4-4.6,2.1-6.9c1.7-4.5,3.5-8.9,5.9-13.1c1.1-2.1,2.4-4.1,3.7-6.2c0.6-1,1.4-2,2-3
				c0.7-1,1.4-2,2.1-2.9L890,39c0.8-0.9,1.6-1.8,2.4-2.7c1.5-1.8,3.3-3.5,5-5.2c3.5-3.2,7.2-6.4,11.2-9c7.9-5.5,16.9-9.3,26.3-11.3
				c4.7-0.9,9.5-1.6,14.3-1.5c1.2,0,2.4,0,3.6,0l3.6,0.2l3.6,0.3l3.6,0.4c9.5,1.2,18.9,3.5,27.6,7.6c2.1,1.1,4.3,2.1,6.3,3.4
				c2.1,1.2,4,2.6,6,4c3.8,3,7.2,6.4,10.2,10.1c5.9,7.6,9.7,16.7,11.5,26.1c0.9,4.7,1.3,9.5,1.1,14.3c-0.1,2.4-0.3,4.8-0.6,7.2
				l-0.3,1.8l-0.4,1.8c-0.4,1.1-0.7,2.3-1.4,3.3L1023,89.6z"/>
		</g>
		<g>
			<path class="st0" d="M1009.4,52.3c-1.5-2.3-3.5-4.4-5.5-6.2c-1-1-2.1-1.8-3.2-2.7c-1.1-0.8-2.2-1.6-3.4-2.4
				c-4.7-2.9-9.8-5.2-15.1-6.6l-1-0.3l-1-0.2l-2-0.5l-2-0.5c-0.7-0.2-1.4-0.2-2-0.3L970,32c-1.4-0.1-2.7-0.2-4.1-0.3
				c-2.7-0.3-5.5-0.1-8.2-0.2c-0.7,0-1.4,0-2.1,0l-2,0.2c-1.3,0.1-2.7,0.4-4,0.5c-10.6,2-20.5,7-28.9,13.9
				c-8.4,6.9-15.5,15.5-20.2,25.1c-1.3,2.4-2.2,4.9-3.1,7.4c-0.8,2.5-1.5,5.1-1.9,7.7c-0.3,1.3-0.3,2.6-0.4,3.9c0,0.6,0,1.3,0,1.9
				l0,1l0.1,1c0.2,2.6,0.9,5,1.9,7.3c0.3,0.6,0.5,1.1,0.8,1.7l1,1.6c0.3,0.5,0.8,1,1.1,1.5c0.4,0.5,0.8,1,1.2,1.5
				c1.7,2,3.7,3.6,5.9,5c0.6,0.3,1.1,0.7,1.7,1l1.7,0.9c1.2,0.6,2.4,1.1,3.6,1.6c2.5,1,5.1,1.8,7.7,2.4c10.6,2.5,21.9,3,33.1,4.2
				c5.6,0.7,11.2,1.4,16.7,2.8c2.8,0.6,5.5,1.4,8.2,2.4c2.7,1,5.2,2.2,7.7,3.5l-0.1,0.3c-5-2.4-10.5-4.1-16-5.1
				c-5.5-1.1-11.1-1.7-16.7-2.1c-11.2-0.9-22.5-1.1-33.5-3.4c-2.8-0.6-5.5-1.3-8.1-2.3c-2.6-1-5.2-2.2-7.6-3.7
				c-2.4-1.5-4.6-3.3-6.5-5.4c-1.9-2.1-3.6-4.4-4.7-7c-1.1-2.6-1.9-5.4-2.2-8.2l-0.1-1.1l0-1.1c0-0.7,0-1.4,0-2.1
				c0.1-1.4,0.1-2.8,0.4-4.2c0.3-2.8,1.1-5.5,1.9-8.2c0.9-2.7,2-5.3,3.2-7.8c5.1-10.1,12.5-18.9,21.2-26c4.4-3.5,9.2-6.6,14.3-9
				c5.1-2.4,10.5-4.2,16.1-5.1c1.4-0.2,2.8-0.4,4.2-0.5l2.1-0.1c0.7-0.1,1.4,0,2.1,0c2.8,0.1,5.6,0,8.4,0.4c1.4,0.1,2.8,0.2,4.2,0.4
				l4.2,0.7c0.7,0.1,1.4,0.2,2.1,0.4l2,0.5l2,0.5l1,0.3l1,0.3c5.4,1.6,10.5,4.1,15.2,7.3c1.2,0.8,2.3,1.7,3.4,2.5
				c1,0.9,2.2,1.8,3.1,2.8c2,2,3.9,4.1,5.3,6.6L1009.4,52.3z"/>
		</g>
		<g>
			<path class="st0" d="M1022.7,89.6c0.3-1.5,0-3.1-0.4-4.5c-0.2-0.7-0.4-1.5-0.7-2.2l-0.4-1.1l-0.5-1c-1.3-2.8-3-5.4-4.9-7.8
				c-1.8-2.5-3.8-4.9-5.9-7c-2.1-2.2-4.4-4.3-6.8-6.1c-4.8-3.7-10-6.8-15.7-8.5c-2.8-0.8-5.7-1.5-8.5-1.6c-0.7-0.1-1.4,0-2.2,0
				c-0.7,0-1.4,0-2.1,0.1l-2.1,0.3l-2.1,0.5c-5.6,1.3-10.7,4.4-15.4,8.2c-2.3,1.9-4.4,4-6.2,6.3c-1.8,2.3-3.3,4.8-4.5,7.5
				c-2.3,5.4-2.8,11.5-1.6,17.4c1,6,3.6,11.8,6.9,17.1l-0.2,0.2c-2-2.5-3.6-5.2-5-8c-1.4-2.8-2.5-5.8-3.2-8.9
				c-1.5-6.1-1.3-12.7,0.9-18.7c1.1-3,2.7-5.7,4.6-8.3c1.9-2.5,4.1-4.8,6.5-6.9c1.2-1,2.4-2,3.7-2.9l1.9-1.4l2.1-1.2
				c1.3-0.8,2.8-1.4,4.3-2.1c0.7-0.3,1.5-0.5,2.2-0.8c0.7-0.3,1.5-0.5,2.3-0.7c6.2-1.5,12.7-1.1,18.7,0.9c6,2,11.5,5.4,16.3,9.4
				c2.4,2,4.7,4.2,6.8,6.6c2.1,2.3,4,4.8,5.8,7.5c1.7,2.6,3.3,5.4,4.4,8.3l0.4,1.1l0.4,1.1c0.3,0.7,0.4,1.5,0.6,2.3
				c0.3,1.6,0.4,3.2,0,4.7L1022.7,89.6z"/>
		</g>
		<g>
			<path class="st0" d="M1037.6,129c-1.9,0-3.8-0.1-5.7-0.1c-1.9-0.1-3.8-0.2-5.7-0.4c-3.8-0.3-7.6-0.6-11.4-1.1
				c-7.6-1-15.1-2.3-22.5-4.2c-1.9-0.5-3.7-1-5.6-1.6c-1.8-0.6-3.7-1.3-5.5-2c-3.6-1.5-7.2-3.3-10.5-5.9c-0.8-0.6-1.6-1.4-2.4-2.2
				c-0.7-0.8-1.3-1.5-2-2.3c-0.7-0.7-1.2-1.6-1.8-2.4l-0.9-1.3c-0.3-0.4-0.5-0.9-0.8-1.3c-2-3.6-3.4-7.8-3.5-12.1
				c-0.1-2.2,0.3-4.3,0.7-6.3c0.3-1,0.6-2,0.9-3c0.4-0.9,0.7-1.9,1.2-2.8c1.8-3.7,4-7,6.4-10.1l0.4-0.6c0.2-0.2,0.4-0.4,0.5-0.6
				c0.4-0.4,0.7-0.9,1.1-1.2c0.4-0.4,0.8-0.7,1.2-1.1l1.3-1c1.8-1.2,3.7-2.1,5.7-2.7c2-0.6,4-1.1,6-1.3c2-0.2,4-0.3,6-0.2
				c4,0.2,7.9,1,11.7,2.2c3.8,1.3,7.3,3.2,10.4,5.6c3.1,2.5,5.7,5.6,7.4,9.1c0.4,0.9,0.8,1.8,1.1,2.7c0.2,0.5,0.3,0.9,0.5,1.4
				l0.3,1.4c0.3,0.9,0.3,1.9,0.4,2.9c0.1,1,0.1,1.9,0.1,2.9l-0.3,0c-0.2-3.8-1.3-7.5-3.1-10.8c-1.8-3.3-4.5-6.1-7.5-8.3
				c-6.1-4.4-13.7-6.6-21.2-6.7c-3.8-0.1-7.5,0.5-11.1,1.7c-1.8,0.6-3.5,1.5-5,2.5c-1.6,1-2.8,2.4-4,3.9c-2.3,3-4.4,6.2-6,9.6
				c-0.4,0.8-0.7,1.7-1.1,2.6c-0.3,0.9-0.6,1.8-0.8,2.7c-0.4,1.8-0.7,3.7-0.6,5.6c0.1,3.7,1.2,7.4,3.1,10.7l0.7,1.2l0.8,1.2
				c0.5,0.8,1,1.6,1.7,2.3c0.6,0.7,1.2,1.5,1.8,2.2c0.7,0.7,1.3,1.3,2,1.9c2.9,2.4,6.3,4.1,9.7,5.6c3.5,1.5,7,2.7,10.7,3.8
				c7.3,2.1,14.7,3.7,22.1,4.9c7.5,1.2,15,2.2,22.5,2.9L1037.6,129z"/>
		</g>
	</g>
	<g class="st3">
		<g>
			<path class="st0" d="M851.3,89.6c0.7-0.9,0.9-2.1,1.3-3.3l0.4-1.7l0.3-1.8c0.3-2.4,0.4-4.7,0.4-7.1c0-4.7-0.5-9.5-1.4-14.1
				c-1.9-9.2-5.8-18-11.7-25.2c-2.9-3.6-6.3-6.9-10-9.7c-1.9-1.3-3.8-2.7-5.8-3.8c-2-1.2-4.1-2.2-6.2-3.2c-8.5-3.8-17.7-5.9-27-7
				l-3.5-0.4c-1.2-0.1-2.3-0.1-3.5-0.2l-3.5-0.2c-1.2-0.1-2.3,0-3.5,0c-4.6-0.1-9.2,0.6-13.7,1.5c-9,2-17.6,5.7-25.2,11.1
				c-3.9,2.5-7.4,5.6-10.8,8.8c-1.6,1.7-3.3,3.3-4.8,5c-0.8,0.9-1.5,1.7-2.3,2.6l-2.1,2.7c-0.7,0.9-1.4,1.9-2,2.8
				c-0.6,1-1.3,1.9-2,2.9c-1.2,2-2.5,3.9-3.5,6c-2.3,4-4,8.3-5.6,12.7c-0.7,2.2-1.5,4.4-2.1,6.6c-0.7,2.2-1.1,4.5-1.5,6.7
				c-0.2,1.1-0.3,2.3-0.5,3.4l-0.2,1.7c-0.1,0.6-0.1,1.1-0.1,1.7l-0.2,3.4l0,3.4c0.1,4.6,0.6,9.2,1.7,13.6l0.4,1.7l0.5,1.6
				c0.4,1.1,0.7,2.2,1.1,3.2l1.3,3.1c0.2,0.5,0.5,1,0.8,1.5l0.8,1.5l0.8,1.5c0.3,0.5,0.6,1,0.9,1.4l1.9,2.8l2.1,2.8
				c0.7,0.9,1.5,1.8,2.2,2.7c3,3.5,6.4,6.6,10.2,9c1.9,1.2,3.9,2.2,5.9,3c2.1,0.8,4.2,1.3,6.5,1.8c2.2,0.4,4.5,0.6,6.8,0.7
				c2.3,0.1,4.6,0.1,7,0c9.4-0.4,18.9-1.6,28.4-2.3c4.8-0.4,9.5-0.8,14.4-1c4.8-0.2,9.7-0.1,14.5,0.5c4.8,0.6,9.6,1.6,14.2,3
				c4.6,1.4,9.1,3.3,13.4,5.4c4.3,2.1,8.5,4.5,12.7,6.7c2.1,1.1,4.3,2.1,6.5,2.7c2.2,0.7,4.7,0.7,6.9,0l0.1,0.3
				c-2.3,0.8-4.8,0.8-7.1,0.2c-2.3-0.6-4.6-1.5-6.7-2.6c-4.3-2.1-8.5-4.4-12.8-6.4c-4.3-2-8.8-3.8-13.3-5.1c-4.6-1.3-9.3-2.2-14-2.7
				c-9.5-1.1-19,0-28.5,0.9c-9.5,0.9-19,2.2-28.5,2.7c-2.4,0.1-4.8,0.1-7.2,0.1c-2.4-0.1-4.8-0.3-7.2-0.7c-4.7-0.8-9.3-2.5-13.4-5.1
				c-4.1-2.5-7.6-5.9-10.8-9.4c-0.8-0.9-1.5-1.8-2.3-2.7l-2.2-2.8l-2-3c-0.3-0.5-0.7-1-1-1.5l-0.9-1.6l-0.9-1.6
				c-0.3-0.5-0.6-1.1-0.8-1.6l-1.4-3.3c-0.5-1.1-0.8-2.3-1.2-3.4l-0.6-1.7l-0.4-1.7c-1.3-4.6-1.8-9.4-1.9-14.2l0-3.6l0.2-3.6
				c0-0.6,0.1-1.2,0.1-1.8l0.2-1.8c0.2-1.2,0.3-2.4,0.5-3.6c0.5-2.3,0.9-4.7,1.6-7c0.6-2.3,1.4-4.6,2.1-6.9
				c1.7-4.5,3.5-8.9,5.9-13.1c1.1-2.1,2.4-4.1,3.7-6.2c0.6-1,1.4-2,2-3c0.7-1,1.4-2,2.1-2.9l2.2-2.8c0.8-0.9,1.6-1.8,2.4-2.7
				c1.5-1.8,3.3-3.5,5-5.2c3.5-3.2,7.2-6.4,11.2-9c7.9-5.5,16.9-9.3,26.2-11.3c4.7-0.9,9.5-1.5,14.3-1.5c1.2,0,2.4,0,3.6,0.1
				l3.6,0.2c1.2,0.1,2.4,0.2,3.6,0.3l3.6,0.4c9.5,1.2,18.9,3.5,27.6,7.6c2.1,1.1,4.3,2.1,6.3,3.4c2.1,1.2,4,2.6,5.9,4
				c3.8,3,7.2,6.4,10.1,10.1c5.9,7.6,9.7,16.7,11.4,26.1c0.9,4.7,1.3,9.5,1.1,14.3c-0.1,2.4-0.3,4.8-0.6,7.1l-0.3,1.8l-0.4,1.8
				c-0.4,1.1-0.7,2.3-1.4,3.3L851.3,89.6z"/>
		</g>
		<g>
			<path class="st0" d="M837.7,52.3c-1.5-2.3-3.5-4.4-5.5-6.2c-1-1-2.1-1.8-3.2-2.7c-1.1-0.8-2.2-1.6-3.4-2.4
				c-4.7-2.9-9.8-5.2-15.1-6.6l-1-0.3l-1-0.2l-2-0.5l-2-0.5c-0.7-0.2-1.4-0.2-2-0.3l-4.1-0.6c-1.4-0.1-2.7-0.2-4.1-0.3
				c-2.7-0.3-5.5-0.1-8.2-0.2c-0.7,0-1.4,0-2,0l-2,0.2c-1.3,0.1-2.7,0.4-4,0.5c-10.6,2-20.5,7.1-28.9,13.9
				c-8.4,6.9-15.5,15.5-20.2,25.1c-1.2,2.4-2.2,4.9-3.1,7.4c-0.8,2.5-1.5,5.1-1.9,7.7c-0.2,1.3-0.3,2.6-0.4,3.9c0,0.6,0,1.3,0,1.9
				l0,1l0.1,1c0.2,2.6,0.9,5,1.9,7.3c0.3,0.6,0.5,1.1,0.8,1.7l1,1.6c0.3,0.5,0.7,1,1.1,1.5c0.4,0.5,0.8,1,1.2,1.5
				c1.7,2,3.7,3.6,5.9,5c2.2,1.5,4.6,2.6,7,3.6c2.5,1,5.1,1.8,7.7,2.4c10.6,2.5,21.9,3,33.1,4.2c5.6,0.7,11.2,1.4,16.7,2.8
				c2.8,0.6,5.5,1.4,8.1,2.4c2.7,1,5.2,2.2,7.7,3.5l-0.1,0.3c-5-2.4-10.4-4.1-15.9-5.1c-5.5-1.1-11.1-1.7-16.7-2.1
				c-11.2-0.9-22.4-1.1-33.5-3.5c-2.7-0.6-5.5-1.3-8.1-2.3c-2.6-1-5.2-2.2-7.6-3.7c-2.4-1.5-4.6-3.3-6.5-5.4
				c-0.5-0.5-0.9-1.1-1.4-1.6c-0.4-0.6-0.9-1.1-1.3-1.7l-1.1-1.8c-0.3-0.6-0.6-1.3-0.9-1.9c-1.1-2.6-1.9-5.4-2.2-8.2l-0.1-1.1l0-1.1
				c0-0.7-0.1-1.4,0-2.1c0.1-1.4,0.1-2.8,0.4-4.2c0.3-2.8,1.1-5.5,1.9-8.2c0.9-2.7,2-5.3,3.2-7.8c5-10.1,12.4-18.9,21.2-26
				c4.4-3.5,9.1-6.6,14.2-9c5.1-2.4,10.5-4.2,16-5.1c1.4-0.2,2.8-0.4,4.2-0.5c1.4-0.1,2.8-0.2,4.2-0.1c2.8,0.1,5.6,0,8.4,0.4
				c1.4,0.1,2.8,0.2,4.2,0.4l4.2,0.7c0.7,0.1,1.4,0.2,2.1,0.4l2,0.5l2,0.5l1,0.3l1,0.3c5.4,1.6,10.5,4.1,15.1,7.3
				c1.2,0.8,2.3,1.7,3.4,2.5c1,0.9,2.2,1.8,3.1,2.8c2,2,3.8,4.1,5.3,6.6L837.7,52.3z"/>
		</g>
		<g>
			<path class="st0" d="M851,89.6c0.3-1.5,0-3.1-0.4-4.5c-0.2-0.7-0.4-1.5-0.7-2.2l-0.4-1.1l-0.5-1c-1.3-2.8-3-5.4-4.8-7.8
				c-1.8-2.5-3.8-4.9-5.9-7c-2.1-2.2-4.4-4.3-6.8-6.1c-4.8-3.7-10-6.8-15.7-8.5c-2.8-0.8-5.7-1.5-8.5-1.6c-0.7-0.1-1.4,0-2.2,0
				c-0.7,0-1.4,0-2.1,0.1l-2.1,0.3l-2.1,0.5c-5.6,1.3-10.7,4.4-15.3,8.2c-2.3,1.9-4.4,4-6.2,6.3c-1.8,2.3-3.3,4.8-4.5,7.5
				c-2.3,5.4-2.8,11.5-1.6,17.4c1,6,3.5,11.8,6.9,17.1l-0.2,0.2c-2-2.5-3.6-5.2-5-8c-1.4-2.8-2.5-5.8-3.2-8.9
				c-1.5-6.1-1.3-12.7,0.9-18.7c1.1-3,2.7-5.7,4.5-8.3c1.9-2.5,4.1-4.8,6.5-6.9c4.8-4.1,10.3-7.5,16.5-9c6.2-1.5,12.7-1.1,18.7,0.9
				c6,2,11.5,5.4,16.3,9.4c2.4,2,4.7,4.2,6.8,6.6c2.1,2.3,4,4.8,5.7,7.5c1.7,2.6,3.3,5.4,4.4,8.3l0.4,1.1l0.4,1.1
				c0.3,0.7,0.4,1.5,0.6,2.3c0.3,1.6,0.4,3.2,0,4.7L851,89.6z"/>
		</g>
		<g>
			<path class="st0" d="M865.9,129c-1.9,0-3.8-0.1-5.7-0.1c-1.9-0.1-3.8-0.2-5.7-0.4c-3.8-0.3-7.6-0.6-11.4-1.1
				c-7.5-1-15.1-2.3-22.5-4.2c-1.9-0.5-3.7-1-5.6-1.6c-1.8-0.6-3.7-1.3-5.5-2c-3.6-1.5-7.2-3.3-10.5-5.9c-0.8-0.6-1.6-1.4-2.4-2.2
				c-0.7-0.8-1.3-1.5-1.9-2.3c-0.7-0.7-1.2-1.6-1.8-2.4l-0.9-1.3l-0.8-1.4c-2-3.6-3.4-7.8-3.5-12.1c-0.1-2.1,0.3-4.3,0.7-6.3
				c0.3-1,0.6-2,0.9-3c0.4-0.9,0.7-1.9,1.2-2.8c1.8-3.7,4-7,6.4-10.1l0.4-0.6c0.2-0.2,0.4-0.4,0.5-0.6c0.4-0.4,0.7-0.9,1.1-1.2
				c0.4-0.4,0.8-0.7,1.2-1.1l1.3-1c1.8-1.2,3.7-2.1,5.7-2.7c2-0.6,4-1.1,6-1.3c2-0.2,4-0.3,6-0.2c8,0.4,15.8,3,22.1,7.8
				c3.1,2.5,5.7,5.6,7.4,9.1c0.4,0.9,0.8,1.8,1.1,2.7c0.2,0.5,0.3,0.9,0.5,1.4l0.3,1.4c0.3,0.9,0.3,1.9,0.4,2.9
				c0.1,1,0.1,1.9,0.1,2.9l-0.3,0c-0.2-3.8-1.3-7.5-3.1-10.7c-1.8-3.3-4.5-6.1-7.5-8.3c-6.1-4.4-13.7-6.6-21.2-6.7
				c-3.8-0.1-7.5,0.5-11.1,1.7c-1.8,0.6-3.4,1.5-5,2.5c-1.6,1-2.8,2.4-4,3.9c-2.3,3-4.4,6.2-5.9,9.6c-0.4,0.8-0.7,1.7-1.1,2.6
				c-0.3,0.9-0.6,1.8-0.8,2.7c-0.4,1.8-0.7,3.7-0.6,5.5c0.1,3.7,1.2,7.4,3,10.7l0.7,1.2l0.8,1.2c0.5,0.8,1,1.6,1.7,2.3
				c0.6,0.7,1.2,1.5,1.8,2.2c0.7,0.7,1.3,1.3,2,1.9c2.9,2.4,6.3,4.2,9.7,5.6c3.5,1.5,7,2.7,10.7,3.8c7.2,2.1,14.7,3.7,22.1,4.9
				c7.5,1.2,15,2.2,22.5,2.9L865.9,129z"/>
		</g>
	</g>
	<g class="st3">
		<g>
			<path class="st0" d="M683.1,89.6c0.7-0.9,0.9-2.1,1.3-3.3l0.4-1.7l0.3-1.8c0.3-2.4,0.4-4.7,0.4-7.1c0-4.7-0.5-9.5-1.4-14.1
				c-1.9-9.2-5.9-18.1-11.8-25.3c-3-3.6-6.3-6.8-10-9.7c-1.9-1.3-3.8-2.7-5.9-3.8c-2-1.2-4.1-2.2-6.2-3.2c-8.5-3.8-17.8-5.9-27.1-7
				l-3.5-0.4l-3.5-0.2l-3.5-0.2c-1.2-0.1-2.3,0-3.5,0c-4.6,0-9.2,0.6-13.8,1.5c-9,2-17.7,5.7-25.3,11c-3.9,2.5-7.4,5.6-10.8,8.8
				c-1.6,1.7-3.3,3.3-4.8,5c-0.8,0.9-1.6,1.7-2.3,2.6l-2.1,2.8c-0.7,0.9-1.4,1.9-2,2.8c-0.7,1-1.3,1.9-2,2.9c-1.2,2-2.5,3.9-3.5,6
				c-2.3,4.1-4.1,8.4-5.7,12.7c-0.7,2.2-1.5,4.4-2.1,6.6c-0.7,2.2-1.1,4.5-1.5,6.8c-0.2,1.1-0.3,2.3-0.5,3.4l-0.2,1.7
				c-0.1,0.6-0.1,1.1-0.1,1.7c-0.1,1.1-0.2,2.3-0.2,3.4l0,3.5c0.1,4.6,0.6,9.2,1.8,13.6c1.2,4.4,2.7,8.7,5,12.7l0.8,1.5
				c0.3,0.5,0.6,0.9,0.9,1.4c0.6,0.9,1.3,1.9,1.9,2.8c1.4,1.9,2.9,3.7,4.4,5.4c3.1,3.5,6.4,6.6,10.2,9c1.9,1.2,3.9,2.2,6,3
				c2.1,0.8,4.3,1.3,6.5,1.7c4.5,0.8,9.1,0.9,13.8,0.7c9.4-0.4,19-1.6,28.5-2.3c4.8-0.4,9.6-0.8,14.4-1c4.9-0.2,9.7-0.1,14.6,0.5
				c4.8,0.6,9.6,1.6,14.2,3.1c4.6,1.4,9.1,3.3,13.5,5.4c4.3,2.1,8.5,4.5,12.7,6.7c2.1,1.1,4.3,2.1,6.5,2.7c2.3,0.7,4.7,0.7,6.9,0
				l0.1,0.3c-2.3,0.8-4.8,0.8-7.2,0.2c-2.3-0.6-4.6-1.5-6.7-2.6c-4.3-2.1-8.5-4.4-12.8-6.4c-4.3-2-8.8-3.8-13.4-5.1
				c-4.6-1.3-9.3-2.2-14-2.7c-9.5-1.1-19.1,0-28.6,0.8c-9.5,0.9-19,2.2-28.6,2.7c-4.8,0.2-9.6,0.2-14.4-0.6c-2.4-0.4-4.7-1-7-1.8
				c-2.3-0.8-4.4-1.9-6.5-3.2c-4.1-2.5-7.7-5.8-10.9-9.4c-1.6-1.8-3.1-3.7-4.6-5.6c-0.7-1-1.4-2-2-3c-0.3-0.5-0.7-1-1-1.5l-0.9-1.6
				c-2.4-4.1-4.1-8.7-5.4-13.3c-1.3-4.6-1.8-9.5-2-14.3l0-3.6c0.1-1.2,0.2-2.4,0.2-3.6c0-0.6,0.1-1.2,0.1-1.8l0.2-1.8
				c0.2-1.2,0.3-2.4,0.5-3.6c0.5-2.4,0.9-4.7,1.6-7c0.6-2.3,1.4-4.6,2.1-6.9c1.7-4.5,3.6-8.9,5.9-13.1c1.1-2.1,2.4-4.1,3.7-6.2
				c0.6-1,1.4-2,2-3c0.7-1,1.4-2,2.1-2.9l2.2-2.8c0.8-0.9,1.6-1.8,2.4-2.7c1.5-1.8,3.3-3.5,5-5.2c3.5-3.2,7.2-6.4,11.2-9
				c7.9-5.4,16.9-9.3,26.3-11.3c4.7-0.9,9.5-1.6,14.3-1.5c1.2,0,2.4,0,3.6,0l3.6,0.2l3.6,0.3l3.6,0.4c9.5,1.2,18.9,3.5,27.7,7.5
				c2.1,1.1,4.3,2.1,6.3,3.4c2.1,1.2,4,2.6,6,4c3.8,3,7.2,6.3,10.2,10.1c6,7.6,9.8,16.7,11.5,26.1c0.9,4.7,1.3,9.5,1.1,14.3
				c-0.1,2.4-0.3,4.8-0.6,7.2l-0.3,1.8l-0.4,1.8c-0.4,1.1-0.7,2.3-1.4,3.3L683.1,89.6z"/>
		</g>
		<g>
			<path class="st0" d="M669.4,52.3c-1.5-2.3-3.5-4.4-5.6-6.2c-1-1-2.1-1.8-3.2-2.7c-1.1-0.8-2.3-1.6-3.4-2.4
				c-4.7-2.9-9.8-5.2-15.1-6.6l-1-0.3l-1-0.2l-2-0.5l-2-0.5c-0.7-0.2-1.4-0.2-2-0.3L630,32c-1.4-0.1-2.7-0.2-4.1-0.3
				c-2.7-0.3-5.5-0.2-8.3-0.2c-0.7,0-1.4,0-2.1,0l-2,0.2c-1.3,0.1-2.7,0.4-4,0.5c-10.6,1.9-20.6,7-29,13.9
				c-8.4,6.9-15.5,15.5-20.3,25.2c-1.3,2.4-2.2,4.9-3.2,7.4c-0.8,2.5-1.5,5.1-1.9,7.7c-0.3,1.3-0.3,2.6-0.4,3.9c0,0.6,0,1.3,0,1.9
				l0,1l0.1,1c0.2,2.6,0.9,5,1.9,7.3c0.3,0.6,0.5,1.1,0.8,1.7l1,1.6c0.3,0.5,0.8,1,1.1,1.5c0.4,0.5,0.8,1,1.3,1.5
				c1.7,2,3.8,3.6,5.9,5c1.1,0.7,2.3,1.3,3.4,2c1.2,0.5,2.4,1.1,3.7,1.6c2.5,1,5.1,1.8,7.7,2.4c10.7,2.5,22,3,33.2,4.2
				c5.6,0.7,11.2,1.4,16.8,2.8c2.8,0.6,5.5,1.4,8.2,2.4c2.7,1,5.2,2.2,7.7,3.5l-0.1,0.3c-5.1-2.4-10.5-4.1-16-5.1
				c-5.5-1.1-11.1-1.7-16.7-2.1c-11.2-0.9-22.5-1.1-33.6-3.4c-2.8-0.6-5.5-1.3-8.1-2.3c-2.7-1-5.2-2.2-7.6-3.7
				c-2.4-1.5-4.6-3.3-6.5-5.4c-1.9-2.1-3.6-4.4-4.8-7c-1.2-2.6-2-5.4-2.2-8.2l-0.1-1.1l0-1.1c0-0.7,0-1.4,0-2.1
				c0.1-1.4,0.1-2.8,0.4-4.2c0.3-2.8,1.1-5.6,1.9-8.3c0.9-2.7,2-5.3,3.3-7.8c5.1-10.1,12.5-18.9,21.3-26c4.4-3.5,9.2-6.6,14.3-9
				c5.1-2.4,10.5-4.2,16.1-5.1c1.4-0.2,2.8-0.4,4.2-0.5l2.1-0.1c0.7,0,1.4,0,2.1,0c2.8,0.1,5.6,0,8.4,0.4c1.4,0.1,2.8,0.2,4.2,0.4
				l4.2,0.7c0.7,0.1,1.4,0.2,2.1,0.4l2,0.5l2,0.5l1,0.3l1,0.3c5.4,1.6,10.5,4.1,15.2,7.3c1.2,0.8,2.3,1.7,3.4,2.5
				c1.1,0.9,2.2,1.8,3.1,2.8c2,2,3.9,4.1,5.3,6.6L669.4,52.3z"/>
		</g>
		<g>
			<path class="st0" d="M682.8,89.6c0.3-1.5,0-3.1-0.4-4.5c-0.2-0.7-0.4-1.5-0.7-2.2l-0.4-1.1l-0.5-1c-1.3-2.8-3-5.4-4.9-7.8
				c-1.8-2.5-3.8-4.9-5.9-7c-2.1-2.2-4.4-4.3-6.8-6.1c-4.8-3.6-10.1-6.8-15.7-8.5c-5.6-1.8-11.5-2.1-17.1-0.7
				c-0.3,0.1-0.7,0.1-1.1,0.2l-1,0.3c-0.7,0.2-1.4,0.4-2.1,0.7c-1.3,0.6-2.7,1.1-3.9,1.9l-1.9,1.1l-1.8,1.3
				c-1.2,0.8-2.4,1.8-3.6,2.7c-2.3,1.9-4.4,4-6.2,6.3c-1.8,2.3-3.3,4.8-4.5,7.5c-2.3,5.4-2.8,11.5-1.6,17.5c1,6,3.6,11.8,6.9,17.1
				l-0.2,0.2c-2-2.5-3.6-5.2-5-8c-1.4-2.8-2.5-5.8-3.3-8.9c-1.5-6.1-1.3-12.7,0.9-18.7c1.1-3,2.7-5.7,4.6-8.3
				c1.9-2.5,4.1-4.8,6.5-6.9c1.2-1,2.4-2,3.7-2.9l1.9-1.4l2.1-1.2c1.3-0.8,2.8-1.4,4.3-2.1c0.7-0.3,1.5-0.5,2.2-0.8l1.1-0.4
				c0.4-0.1,0.8-0.2,1.2-0.3c6.2-1.5,12.8-1.1,18.8,0.9c6,2,11.5,5.3,16.3,9.4c2.4,2,4.7,4.2,6.8,6.6c2.1,2.3,4.1,4.8,5.8,7.5
				c1.7,2.6,3.3,5.4,4.5,8.3l0.4,1.1l0.4,1.1c0.3,0.7,0.4,1.5,0.6,2.3c0.3,1.6,0.4,3.2,0,4.8L682.8,89.6z"/>
		</g>
		<g>
			<path class="st0" d="M697.7,129c-1.9,0-3.8-0.1-5.7-0.1c-1.9-0.1-3.8-0.2-5.7-0.4c-3.8-0.3-7.6-0.6-11.4-1.1
				c-7.6-1-15.1-2.3-22.6-4.2c-1.9-0.5-3.7-1-5.6-1.6c-1.9-0.6-3.7-1.3-5.5-2c-3.6-1.5-7.2-3.2-10.5-5.9c-0.8-0.6-1.6-1.4-2.4-2.2
				c-0.7-0.8-1.3-1.5-2-2.3c-0.7-0.7-1.2-1.6-1.8-2.4l-0.9-1.3c-0.3-0.4-0.5-0.9-0.8-1.3c-2.1-3.6-3.4-7.8-3.5-12.1
				c-0.1-2.2,0.3-4.3,0.7-6.3c0.3-1,0.6-2,0.9-3c0.4-0.9,0.7-1.9,1.2-2.8c1.8-3.7,4-7,6.4-10.1l0.4-0.6c0.2-0.2,0.4-0.4,0.5-0.6
				c0.4-0.4,0.7-0.9,1.2-1.2c0.4-0.4,0.8-0.7,1.2-1.1l1.3-0.9c1.8-1.2,3.7-2.1,5.7-2.7c2-0.6,4-1.1,6-1.3c2-0.2,4-0.3,6-0.2
				c4,0.2,7.9,1,11.7,2.2c3.8,1.3,7.3,3.2,10.5,5.6c3.1,2.5,5.7,5.6,7.4,9.1c0.4,0.9,0.9,1.8,1.1,2.7c0.2,0.5,0.3,0.9,0.5,1.4
				l0.3,1.4c0.3,0.9,0.3,1.9,0.4,2.9c0.1,1,0.1,1.9,0.1,2.9l-0.3,0c-0.2-3.8-1.3-7.5-3.1-10.8c-1.8-3.3-4.5-6.1-7.5-8.3
				c-6.1-4.4-13.7-6.6-21.2-6.7c-3.8-0.1-7.6,0.5-11.1,1.7c-1.8,0.6-3.5,1.5-5,2.5c-1.6,1-2.9,2.4-4,3.9c-2.3,3-4.4,6.2-6,9.6
				c-1.6,3.4-2.6,7.1-2.5,10.9c0.1,3.7,1.2,7.4,3.1,10.7c0.2,0.4,0.4,0.8,0.7,1.2l0.8,1.2c0.5,0.8,1,1.6,1.7,2.3
				c0.6,0.7,1.2,1.5,1.8,2.2c0.7,0.7,1.3,1.3,2.1,1.9c2.9,2.4,6.3,4.1,9.8,5.6c3.5,1.5,7.1,2.7,10.7,3.8c7.3,2.1,14.7,3.7,22.2,4.9
				c7.5,1.2,15,2.2,22.6,2.9L697.7,129z"/>
		</g>
	</g>
	<g class="st3">
		<g>
			<path class="st0" d="M513.2,89.6c0.7-0.9,0.9-2.1,1.3-3.3l0.4-1.7l0.3-1.8c0.3-2.4,0.4-4.7,0.4-7.1c0-4.8-0.5-9.5-1.5-14.1
				c-2-9.3-5.9-18.1-11.9-25.3c-3-3.6-6.4-6.8-10.1-9.7l-2.9-2l-0.7-0.5l-0.8-0.4l-1.5-0.9c-2-1.2-4.1-2.2-6.2-3.2
				c-8.6-3.8-17.8-5.9-27.2-6.9l-3.5-0.4l-3.5-0.2l-3.5-0.2c-1.2-0.1-2.3,0-3.5,0c-4.6,0-9.2,0.6-13.8,1.5c-9,2-17.7,5.7-25.3,11
				c-3.9,2.5-7.4,5.6-10.8,8.8c-1.6,1.7-3.3,3.3-4.8,5c-0.8,0.9-1.6,1.7-2.3,2.6l-2.2,2.8c-0.7,0.9-1.4,1.9-2.1,2.8
				c-0.7,1-1.4,1.9-2,2.9c-1.2,2-2.5,3.9-3.5,6c-2.3,4.1-4.1,8.4-5.7,12.7l-1.1,3.3c-0.4,1.1-0.6,2.2-1,3.3
				c-0.7,2.2-1.1,4.5-1.6,6.8c-0.2,1.1-0.3,2.3-0.5,3.4l-0.2,1.7l-0.1,1.7c-0.1,1.2-0.2,2.3-0.2,3.5l0,3.5c0,1.2,0.1,2.3,0.2,3.4
				c0.1,1.1,0.1,2.3,0.3,3.4l0.5,3.4c0.2,1.1,0.5,2.2,0.8,3.3c1.2,4.4,2.8,8.7,5.1,12.7l0.8,1.5l1,1.4c0.7,0.9,1.3,1.9,1.9,2.8
				c1.4,1.9,2.9,3.7,4.4,5.4c1.5,1.7,3.2,3.3,4.9,4.9c1.7,1.5,3.5,2.9,5.4,4c1.9,1.2,3.9,2.2,6,2.9c2.1,0.8,4.3,1.3,6.5,1.7
				c4.5,0.8,9.2,0.9,13.9,0.7c9.4-0.4,19-1.6,28.6-2.3c4.8-0.4,9.6-0.7,14.4-1c4.9-0.2,9.8-0.1,14.6,0.5c4.8,0.6,9.6,1.6,14.3,3.1
				c4.6,1.4,9.1,3.3,13.5,5.4c4.3,2.1,8.5,4.5,12.8,6.7c2.1,1.1,4.3,2.1,6.6,2.7c2.3,0.7,4.7,0.7,6.9,0l0.1,0.3
				c-2.3,0.8-4.8,0.8-7.2,0.2c-2.4-0.6-4.6-1.5-6.7-2.6c-4.3-2.1-8.5-4.4-12.9-6.4c-4.3-2-8.8-3.8-13.4-5.1
				c-4.6-1.3-9.3-2.2-14.1-2.7c-9.5-1.1-19.1,0-28.7,0.8c-9.5,0.9-19.1,2.2-28.7,2.7c-4.8,0.2-9.6,0.2-14.4-0.5
				c-2.4-0.4-4.7-1-7-1.8c-2.3-0.8-4.4-1.9-6.5-3.1c-2.1-1.2-4-2.7-5.8-4.3c-1.8-1.6-3.5-3.3-5.1-5.1c-1.6-1.8-3.1-3.7-4.6-5.6
				c-0.7-1-1.4-2-2.1-3l-1-1.5L366,123c-2.5-4.1-4.2-8.7-5.4-13.4c-0.3-1.2-0.6-2.3-0.8-3.5l-0.6-3.6c-0.2-1.2-0.3-2.4-0.4-3.6
				c-0.1-1.2-0.2-2.4-0.2-3.6l0-3.6c0-1.2,0.1-2.4,0.2-3.6l0.1-1.8l0.2-1.8c0.2-1.2,0.3-2.4,0.5-3.6c0.5-2.4,0.9-4.7,1.6-7
				c0.3-1.2,0.6-2.3,1-3.5l1.1-3.4c1.7-4.5,3.6-8.9,5.9-13.1c1.1-2.1,2.4-4.1,3.7-6.2c0.6-1,1.4-2,2-3c0.7-1,1.4-2,2.1-2.9l2.2-2.8
				c0.8-0.9,1.6-1.8,2.4-2.7c1.6-1.8,3.3-3.5,5-5.2c3.5-3.2,7.2-6.4,11.3-9c7.9-5.4,17-9.3,26.4-11.3c4.7-0.9,9.5-1.6,14.3-1.5
				c1.2,0,2.4,0,3.6,0l3.6,0.2l3.6,0.3l3.6,0.4c9.5,1.2,19,3.5,27.7,7.5c2.1,1.1,4.3,2.1,6.4,3.4l1.5,0.9l0.8,0.5l0.7,0.5l2.9,2.1
				c3.8,3,7.3,6.3,10.3,10.1c6,7.6,9.8,16.7,11.6,26.1c0.9,4.7,1.3,9.5,1.2,14.3c-0.1,2.4-0.3,4.8-0.6,7.2l-0.3,1.8l-0.4,1.8
				c-0.4,1.1-0.7,2.3-1.4,3.4L513.2,89.6z"/>
		</g>
		<g>
			<path class="st0" d="M499.4,52.3c-1.6-2.3-3.5-4.4-5.6-6.2c-1-1-2.1-1.8-3.2-2.7c-1.1-0.8-2.3-1.6-3.4-2.4
				c-1.2-0.7-2.4-1.5-3.6-2.1c-1.3-0.6-2.5-1.3-3.7-1.8l-3.9-1.5l-4-1.2l-1-0.3l-1-0.2l-2-0.5l-2-0.5c-0.7-0.2-1.4-0.2-2-0.3
				l-4.1-0.6c-1.4-0.1-2.8-0.2-4.1-0.3c-2.7-0.3-5.5-0.2-8.3-0.2c-0.7,0-1.4,0-2.1,0l-2,0.2c-1.3,0.1-2.7,0.3-4,0.5
				c-10.6,1.9-20.6,7-29.1,13.9c-8.5,6.9-15.6,15.5-20.4,25.2c-1.3,2.4-2.3,4.9-3.2,7.4c-0.8,2.5-1.6,5.1-1.9,7.7
				c-0.3,1.3-0.3,2.6-0.4,3.9c0,0.6,0,1.3,0,1.9c0,0.3,0,0.6,0,1l0.1,1c0.2,2.6,0.9,5,1.9,7.3c0.3,0.6,0.5,1.2,0.8,1.7l1,1.6
				c0.3,0.5,0.8,1,1.2,1.5c0.4,0.5,0.8,1,1.3,1.5c1.7,1.9,3.8,3.6,6,5c1.1,0.7,2.3,1.3,3.4,2c1.2,0.5,2.4,1.1,3.7,1.6
				c1.2,0.5,2.5,0.9,3.8,1.3c1.3,0.4,2.6,0.8,4,1.1c10.7,2.5,22,3,33.3,4.2c5.6,0.7,11.3,1.4,16.8,2.8c2.8,0.6,5.5,1.4,8.2,2.4
				c2.7,1,5.3,2.2,7.8,3.5l-0.1,0.3c-5.1-2.4-10.5-4.1-16-5.1c-5.5-1.1-11.1-1.7-16.7-2.1c-11.2-0.9-22.6-1.1-33.6-3.4
				c-1.4-0.3-2.7-0.7-4.1-1c-1.3-0.4-2.7-0.8-4-1.3c-1.3-0.5-2.6-1.1-3.9-1.6c-1.3-0.7-2.5-1.3-3.7-2.1c-2.4-1.5-4.7-3.3-6.6-5.4
				c-1.9-2.1-3.7-4.4-4.8-7c-1.2-2.6-2-5.4-2.2-8.2l-0.1-1.1c0-0.4,0-0.7,0-1.1c0-0.7,0-1.4,0-2.1c0.1-1.4,0.1-2.8,0.4-4.2
				c0.3-2.8,1.1-5.6,1.9-8.3c0.9-2.7,2-5.3,3.3-7.8c5.1-10.1,12.6-19,21.4-26c4.4-3.5,9.2-6.6,14.3-9c5.1-2.4,10.5-4.2,16.1-5
				c1.4-0.2,2.8-0.4,4.2-0.5l2.1-0.1c0.7,0,1.4,0,2.1,0c2.8,0.1,5.7,0,8.5,0.4c1.4,0.1,2.8,0.2,4.2,0.4l4.2,0.7
				c0.7,0.1,1.4,0.2,2.1,0.4l2.1,0.5l2.1,0.5l1,0.3l1,0.3c5.4,1.6,10.6,4.1,15.2,7.3c1.2,0.8,2.3,1.7,3.4,2.5
				c1.1,0.9,2.2,1.8,3.2,2.8c2,2,3.9,4.1,5.4,6.6L499.4,52.3z"/>
		</g>
		<g>
			<path class="st0" d="M512.9,89.6c0.3-1.5,0-3.1-0.4-4.5c-0.2-0.7-0.4-1.5-0.7-2.2l-0.4-1.1l-0.5-1c-1.3-2.8-3-5.4-4.9-7.8
				c-1.8-2.5-3.8-4.9-5.9-7c-2.1-2.2-4.4-4.3-6.8-6.1c-4.8-3.6-10.1-6.8-15.7-8.5c-5.6-1.8-11.6-2.1-17.1-0.7
				c-0.4,0.1-0.7,0.1-1.1,0.2l-1,0.3c-0.7,0.2-1.4,0.4-2.1,0.7c-1.3,0.6-2.7,1.1-4,1.9l-1.9,1.1l-1.8,1.3c-1.2,0.8-2.4,1.8-3.6,2.7
				c-2.3,1.9-4.5,4-6.3,6.3c-1.8,2.3-3.4,4.8-4.5,7.5c-2.3,5.4-2.8,11.5-1.6,17.5c1,6,3.6,11.8,6.9,17.1l-0.2,0.2
				c-2-2.5-3.6-5.2-5-8c-1.4-2.8-2.5-5.8-3.3-8.9c-1.5-6.1-1.3-12.8,1-18.7c1.1-3,2.7-5.7,4.6-8.3c1.9-2.5,4.2-4.8,6.5-6.9
				c1.2-1,2.4-2,3.8-2.9l1.9-1.4l2.1-1.2c1.3-0.8,2.8-1.4,4.3-2.1c0.7-0.3,1.5-0.5,2.3-0.8l1.1-0.4c0.4-0.1,0.8-0.2,1.2-0.3
				c6.2-1.5,12.8-1.1,18.8,0.9c6,2,11.5,5.3,16.4,9.4c2.4,2,4.7,4.2,6.8,6.6c2.1,2.3,4.1,4.8,5.8,7.5c1.7,2.6,3.3,5.4,4.5,8.3
				l0.4,1.1l0.4,1.1c0.3,0.7,0.4,1.5,0.6,2.3c0.3,1.6,0.5,3.2,0,4.8L512.9,89.6z"/>
		</g>
		<g>
			<path class="st0" d="M527.8,129c-1.9,0-3.8-0.1-5.7-0.1c-1.9-0.1-3.8-0.2-5.7-0.4c-3.8-0.3-7.6-0.6-11.4-1.1
				c-7.6-1-15.1-2.3-22.6-4.2c-1.9-0.5-3.7-1-5.6-1.6c-1.9-0.6-3.7-1.3-5.5-2c-3.6-1.5-7.3-3.2-10.6-5.8c-0.4-0.3-0.8-0.6-1.2-1
				l-1.2-1.1c-0.7-0.8-1.3-1.5-2-2.3c-0.7-0.7-1.2-1.6-1.8-2.4l-0.9-1.3c-0.3-0.4-0.5-0.9-0.8-1.3c-2.1-3.6-3.5-7.8-3.6-12.1
				c-0.1-2.2,0.3-4.3,0.7-6.4c0.3-1,0.6-2,0.9-3c0.4-0.9,0.7-2,1.2-2.9c1.8-3.7,4-7,6.4-10.1l0.5-0.6c0.2-0.2,0.4-0.4,0.5-0.6
				c0.4-0.4,0.7-0.9,1.2-1.2c0.4-0.4,0.8-0.7,1.2-1.1l1.3-0.9c1.8-1.2,3.7-2.1,5.7-2.7c2-0.6,4-1.1,6-1.3c2-0.2,4-0.3,6-0.2
				c4,0.2,8,0.9,11.7,2.2c3.8,1.3,7.3,3.1,10.5,5.6c3.1,2.5,5.7,5.6,7.5,9.1c0.4,0.9,0.9,1.8,1.1,2.7c0.2,0.5,0.3,0.9,0.5,1.4
				l0.3,1.4c0.3,0.9,0.3,1.9,0.4,2.9c0.1,1,0.1,1.9,0.1,2.9l-0.3,0c-0.2-3.8-1.3-7.5-3.1-10.8c-1.9-3.3-4.5-6.1-7.6-8.3
				c-6.2-4.4-13.8-6.6-21.3-6.7c-3.8-0.1-7.6,0.5-11.1,1.7c-1.8,0.6-3.5,1.5-5,2.5c-1.6,1-2.9,2.4-4,3.9c-2.3,3-4.4,6.2-6,9.6
				c-1.6,3.4-2.6,7.1-2.5,10.9c0.1,3.7,1.2,7.4,3.1,10.7c0.2,0.4,0.4,0.8,0.7,1.2l0.8,1.2c0.5,0.8,1,1.6,1.7,2.3
				c0.6,0.7,1.2,1.5,1.8,2.2c0.7,0.7,1.3,1.3,2.1,1.9c2.9,2.4,6.3,4.1,9.8,5.6c3.5,1.5,7.1,2.7,10.7,3.8c7.3,2.1,14.7,3.7,22.2,4.9
				c7.5,1.2,15,2.2,22.6,2.9L527.8,129z"/>
		</g>
	</g>
	
		<rect x="-966.8" y="-153.8" transform="matrix(1 -3.510554e-03 3.510554e-03 1 4.189788e-02 -1.0911)" class="st1" width="1312.1" height="282.7"/>
	
		<rect x="-637.4" y="-784.7" transform="matrix(2.991769e-03 -1 1 2.991769e-03 -183.616 -438.032)" class="st1" width="651.8" height="1315.5"/>
	<polygon class="st2" points="-968.1,599.2 346.1,594.2 345.6,126.6 -968.6,130.6 	"/>
	<g class="st3">
		<defs>
			
				<rect id="SVGID_5_" x="-967.5" y="-52.3" transform="matrix(1 -3.100558e-03 3.100558e-03 1 -0.2466 -0.9653)" width="1312.1" height="262.7"/>
		</defs>
		<clipPath id="SVGID_6_">
			<use xlink:href="#SVGID_5_"  style="overflow:visible;"/>
		</clipPath>
		<path class="st5" d="M362.1,127.5c0,0-100.1,0.4-90.1-41.9c10.5-44.4,60.8-17.9,58.7,2.2c0,0,17.7-49.4-37.7-72.7
			c-74.5-31.3-150.7,57.5-94.4,121.6C262.4,209.6,362.1,127.5,362.1,127.5z"/>
		<path class="st5" d="M190.8,128.3c0,0-100.1,0.4-90.1-41.9c10.5-44.4,60.8-17.9,58.7,2.2c0,0,17.7-49.4-37.7-72.7
			C47.2-15.5-29,73.3,27.3,137.5C91.2,210.4,190.8,128.3,190.8,128.3z"/>
		<path class="st5" d="M20.9,128.3c0,0-100.1,0.4-90.1-41.9C-58.8,42-8.5,68.5-10.5,88.6c0,0,17.7-49.4-37.7-72.7
			c-74.5-31.3-150.7,57.5-94.4,121.6C-78.8,210.4,20.9,128.3,20.9,128.3z"/>
		<path class="st5" d="M-150,128.3c0,0-100.1,0.4-90.1-41.9c10.5-44.4,60.8-17.9,58.7,2.2c0,0,17.7-49.4-37.7-72.7
			c-74.5-31.3-150.7,57.5-94.4,121.6C-249.6,210.4-150,128.3-150,128.3z"/>
		<path class="st5" d="M-320,128.3c0,0-100.1,0.4-90.1-41.9c10.5-44.4,60.8-17.9,58.7,2.2c0,0,17.7-49.4-37.7-72.7
			c-74.5-31.3-150.7,57.5-94.4,121.6C-419.6,210.4-320,128.3-320,128.3z"/>
		<path class="st5" d="M-489,128.3c0,0-100.1,0.4-90.1-41.9c10.5-44.4,60.8-17.9,58.7,2.2c0,0,17.7-49.4-37.7-72.7
			c-74.5-31.3-150.7,57.5-94.4,121.6C-588.7,210.4-489,128.3-489,128.3z"/>
		<path class="st5" d="M-658.1,129.9c0,0-100.1,0.4-90.1-41.9c10.5-44.4,60.8-17.9,58.7,2.2c0,0,17.7-49.4-37.7-72.7
			c-74.5-31.3-150.7,57.5-94.4,121.6C-757.8,211.9-658.1,129.9-658.1,129.9z"/>
	</g>
	<g class="st3">
		<g>
			<path class="st0" d="M331,89.6c0.7-0.9,0.9-2.1,1.2-3.2l0.4-1.7l0.3-1.8c0.3-2.3,0.4-4.7,0.4-7.1c0.1-4.7-0.5-9.4-1.4-14
				c-1.9-9.2-5.7-18-11.6-25.2c-2.9-3.6-6.2-6.9-9.9-9.7c-1.9-1.3-3.7-2.7-5.8-3.8l-1.5-0.9c-0.5-0.3-1-0.6-1.5-0.8l-3.1-1.5
				l-0.8-0.4l-0.8-0.3l-1.6-0.6c-1.1-0.4-2.1-0.9-3.2-1.2l-3.3-1.1l-1.7-0.5l-1.7-0.4l-3.4-0.8c-1.1-0.3-2.3-0.4-3.4-0.7l-3.4-0.6
				c-1.2-0.2-2.3-0.3-3.5-0.4l-3.5-0.4c-1.2-0.1-2.3-0.1-3.5-0.2l-3.5-0.2c-1.2-0.1-2.3,0-3.5,0c-4.6-0.1-9.2,0.6-13.7,1.5
				c-8.9,2-17.5,5.8-25.1,11.1c-3.8,2.5-7.3,5.6-10.7,8.8c-1.6,1.7-3.3,3.3-4.8,5c-0.7,0.9-1.5,1.7-2.3,2.6l-2.1,2.7
				c-0.7,0.9-1.4,1.9-2,2.8c-0.6,1-1.3,1.9-1.9,2.9c-1.2,2-2.5,3.9-3.5,6c-2.2,4-4,8.3-5.6,12.6c-0.7,2.2-1.5,4.4-2.1,6.6
				c-0.7,2.2-1.1,4.5-1.5,6.7c-0.2,1.1-0.3,2.3-0.5,3.4c-0.2,1.1-0.3,2.3-0.4,3.4l-0.2,3.4l0,3.4c0.1,4.6,0.5,9.1,1.7,13.5l0.4,1.7
				c0.1,0.5,0.3,1.1,0.5,1.6c0.4,1.1,0.7,2.2,1.1,3.2c0.9,2.1,1.7,4.2,2.9,6.2c1,2,2.4,3.9,3.6,5.8c0.7,0.9,1.4,1.8,2.1,2.8
				c0.7,0.9,1.5,1.8,2.2,2.7c3,3.4,6.3,6.7,10.1,9c3.7,2.5,7.9,4,12.3,4.9c2.2,0.4,4.5,0.7,6.8,0.8c2.3,0.1,4.6,0.1,7,0
				c9.4-0.4,18.8-1.5,28.3-2.3c4.8-0.4,9.5-0.8,14.3-1c4.8-0.2,9.7-0.1,14.5,0.5c4.8,0.6,9.6,1.6,14.2,3c4.6,1.4,9.1,3.3,13.4,5.4
				c4.3,2.1,8.4,4.5,12.6,6.7c2.1,1.1,4.2,2.1,6.5,2.7c2.2,0.7,4.6,0.8,6.9,0l0.1,0.3c-2.3,0.8-4.8,0.8-7.1,0.2
				c-2.3-0.6-4.5-1.5-6.7-2.6c-4.3-2.1-8.4-4.4-12.7-6.4c-4.3-2-8.7-3.8-13.3-5.1c-4.6-1.3-9.2-2.2-14-2.7c-9.5-1.1-19,0-28.4,0.9
				c-9.5,0.9-18.9,2.2-28.4,2.7c-2.4,0.1-4.8,0.1-7.2,0.1c-2.4-0.1-4.8-0.3-7.1-0.7c-4.7-0.8-9.3-2.5-13.3-5.2
				c-4.1-2.6-7.5-5.9-10.7-9.5c-3.1-3.6-6-7.4-8.3-11.6c-1.2-2.1-2.1-4.3-3.1-6.5c-0.4-1.1-0.8-2.3-1.2-3.4
				c-0.2-0.6-0.4-1.1-0.6-1.7l-0.4-1.7c-1.2-4.6-1.7-9.4-1.8-14.2l0-3.6l0.2-3.6c0-1.2,0.2-2.4,0.4-3.6c0.2-1.2,0.3-2.4,0.5-3.5
				c0.5-2.3,0.9-4.7,1.6-7c0.6-2.3,1.4-4.6,2.1-6.8c1.7-4.5,3.5-8.9,5.9-13.1c1.1-2.1,2.4-4.1,3.6-6.2c0.6-1,1.3-2,2-3
				c0.7-1,1.3-2,2.1-2.9l2.2-2.8c0.7-0.9,1.6-1.8,2.3-2.7c1.5-1.8,3.3-3.5,4.9-5.2c3.5-3.2,7.1-6.4,11.1-9
				c7.8-5.5,16.8-9.3,26.1-11.3c4.7-0.9,9.4-1.5,14.2-1.4c1.2,0,2.4-0.1,3.6,0.1l3.6,0.2c1.2,0.1,2.4,0.1,3.6,0.3l3.5,0.4
				c1.2,0.2,2.4,0.3,3.5,0.5l3.5,0.7c1.2,0.2,2.4,0.4,3.5,0.7l3.5,0.9l1.7,0.4l1.7,0.6l3.4,1.1c1.1,0.4,2.2,0.9,3.3,1.3l1.7,0.7
				l0.8,0.3l0.8,0.4l3.2,1.6c0.5,0.3,1.1,0.6,1.6,0.9l1.5,0.9c2.1,1.2,4,2.7,5.9,4c3.7,3,7.1,6.4,10,10.2c5.9,7.6,9.6,16.7,11.3,26
				c0.8,4.7,1.3,9.5,1.1,14.2c-0.1,2.4-0.3,4.8-0.6,7.1l-0.3,1.8l-0.4,1.7c-0.4,1.1-0.6,2.3-1.4,3.3L331,89.6z"/>
		</g>
		<g>
			<path class="st0" d="M317.4,52.3c-1.5-2.3-3.4-4.3-5.5-6.2c-1-1-2.1-1.8-3.2-2.7c-1.1-0.8-2.2-1.6-3.4-2.4
				c-4.7-2.9-9.7-5.2-15-6.6l-1-0.3l-1-0.2l-2-0.5l-2-0.5c-0.7-0.2-1.3-0.2-2-0.3l-4.1-0.6c-1.4-0.1-2.7-0.2-4.1-0.3
				c-2.7-0.3-5.5-0.1-8.2-0.2c-1.4,0-2.7,0.1-4,0.2c-1.3,0.1-2.6,0.4-4,0.5c-10.5,2-20.4,7.1-28.7,13.9c-8.3,6.9-15.3,15.5-20,25.1
				c-1.2,2.4-2.2,4.9-3.1,7.4c-0.8,2.5-1.5,5.1-1.9,7.7c-0.2,1.3-0.3,2.6-0.4,3.9c0,0.6,0,1.3,0,1.9l0,1c0,0.3,0.1,0.6,0.1,1
				c0.2,2.6,0.9,5,1.8,7.3l0.8,1.7l1,1.6c0.3,0.5,0.7,1,1.1,1.5c0.4,0.5,0.8,1,1.2,1.5c1.7,2,3.7,3.6,5.8,5c2.1,1.5,4.5,2.6,7,3.6
				c2.4,1,5,1.8,7.7,2.4c10.6,2.6,21.8,3,32.9,4.2c5.6,0.7,11.2,1.4,16.7,2.7c2.7,0.6,5.5,1.4,8.1,2.4c2.7,1,5.2,2.2,7.7,3.5
				l-0.1,0.3c-5-2.4-10.4-4.1-15.9-5.1c-5.5-1.1-11-1.7-16.6-2.1c-11.1-0.9-22.4-1.1-33.3-3.5c-2.7-0.6-5.4-1.3-8.1-2.4
				c-2.6-1-5.2-2.2-7.5-3.8c-2.3-1.6-4.6-3.3-6.4-5.4c-0.5-0.5-0.9-1.1-1.4-1.6c-0.4-0.6-0.9-1.1-1.2-1.7l-1.1-1.8l-0.9-1.9
				c-1.1-2.6-1.9-5.3-2.1-8.2c0-0.4-0.1-0.7-0.1-1.1l0-1.1c0-0.7-0.1-1.4,0-2.1c0.1-1.4,0.1-2.8,0.4-4.2c0.3-2.8,1.1-5.5,1.9-8.2
				c0.9-2.6,1.9-5.3,3.2-7.8c5-10.1,12.3-18.9,21-25.9c4.4-3.5,9.1-6.6,14.1-9c5-2.4,10.4-4.3,16-5.1c1.4-0.2,2.8-0.4,4.2-0.5
				c1.4-0.1,2.8-0.2,4.2-0.1c2.8,0.1,5.6,0,8.4,0.4c1.4,0.1,2.8,0.2,4.2,0.4l4.1,0.7c0.7,0.1,1.4,0.2,2.1,0.4l2,0.5l2,0.5l1,0.3
				l1,0.3c5.4,1.6,10.4,4.2,15.1,7.3c1.1,0.8,2.3,1.7,3.4,2.5c1,0.9,2.1,1.8,3.1,2.8c2,2,3.8,4.1,5.3,6.5L317.4,52.3z"/>
		</g>
		<g>
			<path class="st0" d="M330.7,89.6c0.3-1.5,0-3-0.4-4.5c-0.2-0.7-0.4-1.5-0.7-2.2c-0.3-0.7-0.6-1.4-0.9-2.1c-1.3-2.8-3-5.4-4.8-7.8
				c-1.8-2.5-3.7-4.8-5.9-7c-2.1-2.2-4.3-4.3-6.8-6.1c-4.8-3.7-10-6.8-15.6-8.5c-2.8-0.8-5.6-1.5-8.5-1.6c-0.7-0.1-1.4,0-2.1,0
				c-0.7,0-1.4,0-2.1,0.1l-2.1,0.3l-2.1,0.5c-5.6,1.3-10.7,4.5-15.3,8.2c-2.2,1.9-4.4,4-6.2,6.3c-1.8,2.3-3.3,4.8-4.4,7.5
				c-2.3,5.4-2.7,11.5-1.5,17.4c1,6,3.5,11.8,6.8,17l-0.2,0.2c-2-2.5-3.6-5.2-5-8c-1.4-2.8-2.5-5.8-3.2-8.8
				c-1.5-6.1-1.3-12.7,0.9-18.6c1.1-3,2.6-5.7,4.5-8.3c1.9-2.5,4.1-4.8,6.4-6.9c4.8-4.1,10.2-7.6,16.4-9.1l2.3-0.5l2.4-0.3
				c0.8-0.1,1.6-0.1,2.4-0.1c0.8,0,1.6-0.1,2.4,0l2.4,0.2l2.3,0.4c0.8,0.1,1.5,0.3,2.3,0.5c0.8,0.2,1.5,0.4,2.3,0.7
				c6,2,11.4,5.4,16.2,9.4c2.4,2,4.6,4.3,6.7,6.6c2.1,2.3,4,4.8,5.7,7.5c1.7,2.6,3.2,5.4,4.4,8.3c0.3,0.7,0.6,1.5,0.8,2.2
				c0.3,0.7,0.4,1.5,0.6,2.3c0.3,1.5,0.4,3.2,0,4.7L330.7,89.6z"/>
		</g>
		<g>
			<path class="st0" d="M345.4,129c-1.9,0-3.8-0.1-5.7-0.1c-1.9-0.1-3.8-0.2-5.7-0.4c-3.8-0.3-7.5-0.6-11.3-1.1
				c-7.5-1-15-2.3-22.4-4.3c-1.9-0.5-3.7-1-5.5-1.6c-1.8-0.6-3.7-1.3-5.5-2c-3.6-1.5-7.2-3.3-10.4-5.9c-0.8-0.6-1.6-1.4-2.3-2.2
				l-1.9-2.3c-0.7-0.7-1.2-1.6-1.8-2.4l-0.9-1.3l-0.7-1.3c-2-3.6-3.3-7.7-3.4-12c-0.1-2.1,0.3-4.2,0.7-6.3c0.3-1,0.6-2,0.9-3
				c0.4-0.9,0.7-1.9,1.2-2.8c1.7-3.7,3.9-7,6.3-10l0.4-0.6c0.1-0.2,0.4-0.4,0.5-0.6c0.4-0.4,0.7-0.9,1.1-1.2l1.2-1.1l1.3-1
				c1.8-1.2,3.7-2.1,5.7-2.8c2-0.6,4-1.1,6-1.3c2-0.2,4-0.3,6-0.2c7.9,0.4,15.8,3,22,7.9c3,2.5,5.6,5.6,7.3,9.1
				c0.4,0.9,0.8,1.8,1.1,2.7c0.2,0.5,0.3,0.9,0.5,1.4l0.3,1.4c0.3,0.9,0.3,1.9,0.4,2.8c0.1,1,0.1,1.9,0.1,2.9l-0.3,0
				c-0.2-3.7-1.3-7.4-3.1-10.7c-1.8-3.3-4.4-6.1-7.4-8.3c-6.1-4.4-13.6-6.7-21.1-6.8c-3.7-0.1-7.5,0.5-11,1.7
				c-1.8,0.6-3.4,1.5-5,2.5c-1.6,1-2.8,2.4-3.9,3.9c-2.3,3-4.3,6.1-5.9,9.5c-0.4,0.8-0.7,1.7-1.1,2.6c-0.3,0.9-0.5,1.8-0.8,2.7
				c-0.4,1.8-0.7,3.7-0.6,5.5c0.1,3.7,1.2,7.4,3,10.6l0.7,1.2l0.8,1.2c0.5,0.8,1,1.6,1.6,2.3l1.8,2.2c0.7,0.6,1.3,1.4,2,1.9
				c2.9,2.4,6.2,4.2,9.6,5.7c3.4,1.5,7,2.7,10.6,3.8c7.2,2.1,14.6,3.7,22,5c7.4,1.2,14.9,2.2,22.4,2.9L345.4,129z"/>
		</g>
	</g>
	<g class="st3">
		<g>
			<path class="st0" d="M159.7,89.6c0.6-0.9,0.9-2.1,1.2-3.2l0.4-1.7l0.3-1.7c0.3-2.3,0.4-4.7,0.4-7c0.1-4.7-0.4-9.4-1.4-14
				c-1.9-9.2-5.6-18-11.4-25.2c-2.9-3.6-6.1-6.9-9.8-9.7c-0.9-0.7-1.9-1.3-2.8-2c-0.5-0.3-0.9-0.7-1.4-1l-1.5-0.9
				c-1-0.6-2-1.2-3-1.7l-3.1-1.5c-1-0.5-2.1-0.9-3.2-1.4c-1.1-0.4-2.1-0.9-3.2-1.3l-3.3-1.1l-1.7-0.5l-1.7-0.4
				c-2.3-0.5-4.5-1.2-6.8-1.5l-3.4-0.6c-1.1-0.2-2.3-0.3-3.5-0.4l-3.5-0.4c-1.2-0.1-2.3-0.1-3.5-0.2l-3.5-0.2c-0.6,0-1.2-0.1-1.7,0
				l-1.7,0c-4.6-0.1-9.1,0.6-13.6,1.5c-8.9,2-17.4,5.8-24.9,11.1c-3.8,2.5-7.3,5.6-10.6,8.8c-1.6,1.7-3.3,3.2-4.7,5
				c-0.7,0.9-1.5,1.7-2.2,2.6l-2.1,2.7c-0.7,0.9-1.4,1.9-2,2.8c-0.6,1-1.3,1.9-1.9,2.9c-1.2,2-2.4,3.9-3.5,6c-2.2,4-4,8.3-5.6,12.6
				c-0.7,2.2-1.5,4.3-2,6.6c-0.3,1.1-0.6,2.2-0.8,3.3l-0.7,3.4c-0.7,4.5-1.3,9.1-1.2,13.6l0,1.7l0.1,1.7c0.1,1.1,0.1,2.3,0.3,3.4
				l0.5,3.4l0.1,0.8l0.2,0.8l0.4,1.7c0.4,2.2,1.3,4.3,1.9,6.5c0.9,2.1,1.7,4.2,2.8,6.2l0.8,1.5l0.4,0.7l0.5,0.7l1.9,2.8
				c0.6,0.9,1.4,1.8,2.1,2.8c0.7,0.9,1.4,1.8,2.2,2.7c3,3.5,6.2,6.7,9.9,9.1c3.7,2.5,7.8,4.1,12.2,5c4.4,0.9,9,1,13.6,0.9
				c4.6-0.1,9.3-0.6,14-1l14.2-1.3c4.7-0.4,9.5-0.8,14.2-1c4.8-0.2,9.6-0.1,14.4,0.5c4.8,0.6,9.5,1.6,14.1,3c4.6,1.4,9,3.3,13.3,5.4
				c4.3,2.1,8.4,4.5,12.5,6.7c2.1,1.1,4.2,2.1,6.5,2.7c2.2,0.7,4.6,0.8,6.9,0l0.1,0.3c-2.3,0.8-4.8,0.8-7.1,0.2
				c-2.3-0.6-4.5-1.6-6.6-2.6c-4.3-2.1-8.4-4.4-12.7-6.4c-4.3-2-8.7-3.8-13.2-5.1c-4.5-1.3-9.2-2.2-13.9-2.7
				c-9.4-1-18.9,0.1-28.3,0.9l-14.1,1.5c-4.7,0.5-9.4,1-14.2,1.2c-4.7,0.2-9.5,0.1-14.2-0.7c-4.7-0.9-9.2-2.6-13.2-5.3
				c-4-2.6-7.4-6-10.6-9.6c-3.1-3.6-6-7.4-8.2-11.7c-1.2-2-2-4.3-3-6.5c-0.7-2.3-1.6-4.5-2.1-6.8l-0.4-1.7l-0.2-0.9l-0.1-0.9
				l-0.5-3.5c-0.2-1.2-0.2-2.4-0.3-3.6l-0.1-1.8l0-1.8C8.1,90,8.6,85.2,9.4,80.6l0.7-3.5c0.2-1.2,0.6-2.3,0.9-3.5
				c0.5-2.3,1.4-4.6,2.1-6.8c1.7-4.5,3.5-8.9,5.8-13c1.1-2.1,2.4-4.1,3.6-6.2c0.6-1,1.3-2,2-2.9c0.7-1,1.3-2,2.1-2.9l2.2-2.8
				c0.7-0.9,1.6-1.8,2.3-2.7c1.5-1.8,3.2-3.5,4.9-5.2c3.5-3.2,7.1-6.4,11-9c7.8-5.5,16.7-9.3,26-11.4c4.7-0.9,9.4-1.5,14.2-1.4
				c1.2,0,2.4-0.1,3.6,0.1l3.6,0.2c1.2,0.1,2.4,0.1,3.5,0.3l3.5,0.5c1.2,0.2,2.4,0.3,3.5,0.5l3.5,0.7c2.3,0.4,4.6,1,6.9,1.6l1.7,0.5
				l1.7,0.6l3.4,1.1c1.1,0.4,2.2,0.9,3.3,1.3c1.1,0.5,2.2,0.9,3.3,1.4l3.2,1.6c1.1,0.5,2,1.2,3.1,1.8l1.5,0.9c0.5,0.3,1,0.7,1.5,1
				c1,0.7,1.9,1.4,2.9,2.1c3.7,3,7,6.4,9.9,10.2c5.8,7.6,9.4,16.6,11.1,26c0.8,4.7,1.2,9.4,1.1,14.2c-0.1,2.4-0.3,4.7-0.6,7.1
				l-0.3,1.8l-0.4,1.7c-0.4,1.1-0.6,2.3-1.4,3.3L159.7,89.6z"/>
		</g>
		<g>
			<path class="st0" d="M146.3,52.3c-1.5-2.3-3.4-4.3-5.4-6.2c-1-1-2.1-1.8-3.1-2.7c-1.1-0.8-2.2-1.6-3.4-2.4
				c-4.6-2.9-9.6-5.2-14.9-6.6l-1-0.3l-1-0.2l-2-0.5l-2-0.5c-0.7-0.2-1.3-0.2-2-0.3l-4-0.6c-1.4-0.1-2.7-0.2-4.1-0.3
				c-2.7-0.3-5.4-0.1-8.2-0.2c-1.4,0-2.7,0.1-4,0.2l-1,0.1l-1,0.2l-2,0.3c-10.5,2-20.3,7.1-28.5,14C50.5,53.2,43.6,61.8,39,71.4
				c-1.2,2.4-2.2,4.8-3.1,7.3c-0.8,2.5-1.5,5.1-1.8,7.6c-0.2,1.3-0.3,2.6-0.4,3.9c0,0.6,0,1.3,0,1.9c0,0.6,0,1.3,0.1,1.9
				c0.2,2.6,0.9,5,1.8,7.3l0.8,1.7c0.3,0.5,0.7,1.1,1,1.6c0.3,0.5,0.7,1,1.1,1.5c0.4,0.5,0.8,1,1.2,1.5c1.7,2,3.6,3.6,5.8,5.1
				c2.1,1.5,4.5,2.6,6.9,3.6c2.4,1,5,1.8,7.6,2.5c10.5,2.6,21.7,3,32.8,4.2c5.5,0.7,11.1,1.4,16.6,2.7c2.7,0.6,5.4,1.4,8.1,2.4
				c2.6,1,5.2,2.2,7.6,3.5l-0.1,0.3c-5-2.4-10.3-4.1-15.8-5.1c-5.4-1.1-11-1.7-16.5-2.1l-16.6-1.2c-5.5-0.5-11.1-1.1-16.5-2.3
				c-5.4-1.2-10.8-3.1-15.5-6.2c-4.7-3.1-8.6-7.3-10.9-12.5c-1.1-2.6-1.9-5.3-2.1-8.1c-0.1-0.7-0.1-1.4-0.1-2.1c0-0.7-0.1-1.4,0-2.1
				c0.1-1.4,0.1-2.8,0.4-4.2c0.3-2.8,1.1-5.5,1.9-8.2c0.9-2.6,1.9-5.3,3.2-7.7C41.1,60,48.4,51.2,57,44.1c4.3-3.5,9-6.6,14-9
				c5-2.4,10.3-4.3,15.9-5.1c2.8-0.4,5.6-0.7,8.3-0.6c2.8,0.1,5.6,0,8.3,0.4c1.4,0.1,2.8,0.2,4.2,0.4l4.1,0.7
				c0.7,0.1,1.4,0.2,2.1,0.4l2,0.5l2,0.5l1,0.3l1,0.3c5.3,1.7,10.4,4.2,15,7.3c1.1,0.8,2.2,1.7,3.3,2.5c1,0.9,2.1,1.8,3.1,2.8
				c2,2,3.8,4.1,5.2,6.5L146.3,52.3z"/>
		</g>
		<g>
			<path class="st0" d="M159.5,89.6c0.3-1.5,0-3-0.4-4.5c-0.4-1.5-1-2.9-1.6-4.3c-1.3-2.7-2.9-5.4-4.7-7.8c-1.8-2.5-3.7-4.8-5.9-7
				c-2.1-2.2-4.3-4.3-6.7-6.1c-4.7-3.7-9.9-6.8-15.5-8.6c-2.8-0.8-5.6-1.5-8.5-1.6c-0.7-0.1-1.4,0-2.1,0c-0.7,0-1.4,0-2.1,0.1
				l-2.1,0.3l-2.1,0.5c-5.6,1.3-10.6,4.5-15.2,8.3c-2.2,1.9-4.3,4-6.1,6.3c-1.7,2.3-3.2,4.8-4.3,7.5c-2.2,5.4-2.7,11.4-1.5,17.4
				c0.5,3,1.4,5.9,2.6,8.7c0.6,1.4,1.2,2.8,1.9,4.2c0.7,1.4,1.4,2.7,2.3,4l-0.2,0.2c-1.9-2.5-3.5-5.2-4.9-8
				c-1.4-2.8-2.5-5.8-3.2-8.8c-1.5-6.1-1.3-12.6,0.8-18.6c1.1-3,2.6-5.7,4.4-8.3c1.9-2.5,4-4.8,6.4-6.9c4.7-4.1,10.2-7.6,16.3-9.1
				l2.3-0.5c0.8-0.1,1.6-0.2,2.3-0.3c0.8-0.1,1.6-0.1,2.4-0.1c0.8,0,1.6-0.1,2.4,0l2.4,0.2l2.3,0.4c0.8,0.1,1.5,0.3,2.3,0.5
				c0.8,0.2,1.5,0.4,2.3,0.7c6,2,11.4,5.4,16.1,9.5c2.4,2,4.6,4.3,6.7,6.6c2.1,2.4,4,4.8,5.7,7.5c1.7,2.6,3.2,5.4,4.3,8.3
				c0.6,1.5,1,3,1.4,4.5c0.3,1.5,0.4,3.2,0,4.7L159.5,89.6z"/>
		</g>
		<g>
			<path class="st0" d="M174.1,129c-1.9,0-3.8-0.1-5.6-0.1c-1.9-0.1-3.8-0.2-5.6-0.4c-3.8-0.3-7.5-0.6-11.3-1.1
				c-7.5-1-14.9-2.3-22.3-4.3c-1.8-0.5-3.7-1-5.5-1.6c-1.8-0.6-3.6-1.3-5.4-2c-3.6-1.5-7.1-3.3-10.4-6c-0.8-0.6-1.6-1.4-2.3-2.2
				l-1.9-2.3c-0.7-0.7-1.2-1.6-1.8-2.4c-0.3-0.4-0.6-0.8-0.8-1.3l-0.7-1.3c-2-3.6-3.3-7.7-3.3-12c-0.1-1.1,0.1-2.1,0.2-3.2
				c0.1-1,0.4-2.1,0.6-3.1c0.3-1,0.6-2,0.9-3c0.4-0.9,0.7-1.9,1.2-2.8c1.7-3.7,3.9-7,6.3-10c0.3-0.4,0.6-0.8,1-1.2
				c0.4-0.4,0.7-0.9,1.1-1.2l1.2-1.1l1.3-1c1.8-1.2,3.7-2.1,5.6-2.8c2-0.6,3.9-1.1,5.9-1.3c2-0.2,4-0.3,6-0.2
				c7.9,0.4,15.7,3,21.9,7.9c3,2.5,5.6,5.6,7.2,9.1c0.4,0.9,0.8,1.8,1.1,2.7c0.1,0.5,0.3,0.9,0.4,1.4l0.3,1.4
				c0.2,0.9,0.3,1.9,0.4,2.8c0.1,0.9,0.1,1.9,0.1,2.8l-0.3,0c-0.2-3.7-1.2-7.4-3-10.7c-1.8-3.3-4.4-6.1-7.3-8.3
				c-6-4.4-13.5-6.7-20.9-6.8c-3.7-0.1-7.5,0.4-11,1.7c-1.7,0.6-3.4,1.5-4.9,2.5c-1.6,1-2.8,2.4-3.9,3.9c-2.2,3-4.3,6.1-5.9,9.5
				c-0.4,0.8-0.7,1.7-1.1,2.6c-0.3,0.9-0.5,1.8-0.8,2.7c-0.2,0.9-0.4,1.8-0.5,2.7c0,0.9-0.2,1.8-0.1,2.8c0,3.7,1.1,7.3,2.9,10.6
				l0.7,1.2c0.2,0.4,0.5,0.8,0.8,1.2c0.5,0.8,1,1.6,1.6,2.3l1.8,2.2c0.3,0.3,0.6,0.7,1,1c0.3,0.3,0.7,0.6,1,0.9
				c2.8,2.4,6.1,4.2,9.6,5.7c3.4,1.5,7,2.7,10.5,3.8c7.2,2.1,14.5,3.7,21.9,5c7.4,1.3,14.8,2.2,22.3,2.9L174.1,129z"/>
		</g>
	</g>
	<g class="st3">
		<g>
			<path class="st0" d="M-11.1,89.6c0.6-0.9,0.9-2.1,1.2-3.2l0.4-1.7l0.3-1.7c0.3-2.3,0.4-4.7,0.4-7c0.1-4.7-0.4-9.4-1.4-14
				c-1.9-9.2-5.6-18-11.4-25.2c-2.9-3.6-6.1-6.9-9.8-9.7c-0.9-0.7-1.9-1.3-2.8-2c-0.5-0.3-0.9-0.7-1.4-1l-1.5-0.9
				c-1-0.6-2-1.2-3-1.7l-3.1-1.5c-1-0.5-2.1-0.9-3.2-1.4c-1.1-0.4-2.1-0.9-3.2-1.3l-3.3-1.1l-1.7-0.5l-1.7-0.4
				c-2.3-0.5-4.5-1.2-6.8-1.5l-3.4-0.6c-1.1-0.2-2.3-0.3-3.5-0.4l-3.5-0.4c-1.2-0.1-2.3-0.1-3.5-0.2l-3.5-0.2c-0.6,0-1.2-0.1-1.7,0
				l-1.7,0c-4.6-0.1-9.1,0.6-13.6,1.5c-8.9,2-17.4,5.8-24.9,11.1c-3.8,2.5-7.3,5.6-10.6,8.8c-1.6,1.7-3.3,3.2-4.7,5
				c-0.7,0.9-1.5,1.7-2.2,2.6l-2.1,2.7c-0.7,0.9-1.4,1.9-2,2.8c-0.6,1-1.3,1.9-1.9,2.9c-1.2,2-2.4,3.9-3.5,6c-2.2,4-4,8.3-5.6,12.6
				c-0.7,2.2-1.5,4.3-2,6.6c-0.3,1.1-0.6,2.2-0.8,3.3l-0.7,3.4c-0.7,4.5-1.3,9.1-1.2,13.6l0,1.7l0.1,1.7c0.1,1.1,0.1,2.3,0.3,3.4
				l0.5,3.4l0.1,0.8l0.2,0.8l0.4,1.7c0.4,2.2,1.3,4.3,1.9,6.5c0.9,2.1,1.7,4.2,2.8,6.2l0.8,1.5l0.4,0.7l0.5,0.7l1.9,2.8
				c0.6,0.9,1.4,1.8,2.1,2.8c0.7,0.9,1.4,1.8,2.2,2.7c3,3.5,6.2,6.7,9.9,9.1c3.7,2.5,7.8,4.1,12.2,5c4.4,0.9,9,1,13.6,0.9
				c4.6-0.1,9.3-0.6,14-1l14.2-1.3c4.7-0.4,9.5-0.8,14.2-1c4.8-0.2,9.6-0.1,14.4,0.5c4.8,0.6,9.5,1.6,14.1,3c4.6,1.4,9,3.3,13.3,5.4
				c4.3,2.1,8.4,4.5,12.5,6.7c2.1,1.1,4.2,2.1,6.5,2.7c2.2,0.7,4.6,0.8,6.9,0l0.1,0.3c-2.3,0.8-4.8,0.8-7.1,0.2
				c-2.3-0.6-4.5-1.6-6.6-2.6c-4.3-2.1-8.4-4.4-12.7-6.4c-4.3-2-8.7-3.8-13.2-5.1c-4.5-1.3-9.2-2.2-13.9-2.7
				c-9.4-1-18.9,0.1-28.3,0.9l-14.1,1.5c-4.7,0.5-9.4,1-14.2,1.2c-4.7,0.2-9.5,0.1-14.2-0.7c-4.7-0.9-9.2-2.6-13.2-5.3
				c-4-2.6-7.4-6-10.6-9.6c-3.1-3.6-6-7.4-8.2-11.7c-1.2-2-2-4.3-3-6.5c-0.7-2.3-1.6-4.5-2.1-6.8l-0.4-1.7l-0.2-0.9l-0.1-0.9
				l-0.5-3.5c-0.2-1.2-0.2-2.4-0.3-3.6l-0.1-1.8l0-1.8c-0.2-4.8,0.4-9.5,1.1-14.2l0.7-3.5c0.2-1.2,0.6-2.3,0.9-3.5
				c0.5-2.3,1.4-4.6,2.1-6.8c1.7-4.5,3.5-8.9,5.8-13c1.1-2.1,2.4-4.1,3.6-6.2c0.6-1,1.3-2,2-2.9c0.7-1,1.3-2,2.1-2.9l2.2-2.8
				c0.7-0.9,1.6-1.8,2.3-2.7c1.5-1.8,3.2-3.5,4.9-5.2c3.5-3.2,7.1-6.4,11-9c7.8-5.5,16.7-9.3,26-11.4c4.7-0.9,9.4-1.5,14.2-1.4
				c1.2,0,2.4-0.1,3.6,0.1l3.6,0.2c1.2,0.1,2.4,0.1,3.5,0.3l3.5,0.5c1.2,0.2,2.4,0.3,3.5,0.5l3.5,0.7c2.3,0.4,4.6,1,6.9,1.6l1.7,0.5
				l1.7,0.6l3.4,1.1c1.1,0.4,2.2,0.9,3.3,1.3c1.1,0.5,2.2,0.9,3.3,1.4l3.2,1.6c1.1,0.5,2,1.2,3.1,1.8l1.5,0.9c0.5,0.3,1,0.7,1.5,1
				c1,0.7,1.9,1.4,2.9,2.1c3.7,3,7,6.4,9.9,10.2c5.8,7.6,9.4,16.6,11.1,26c0.8,4.7,1.2,9.4,1.1,14.2c-0.1,2.4-0.3,4.7-0.6,7.1
				l-0.3,1.8l-0.4,1.7c-0.4,1.1-0.6,2.3-1.4,3.3L-11.1,89.6z"/>
		</g>
		<g>
			<path class="st0" d="M-24.6,52.3c-1.5-2.3-3.4-4.3-5.4-6.2c-1-1-2.1-1.8-3.1-2.7c-1.1-0.8-2.2-1.6-3.4-2.4
				c-4.6-2.9-9.6-5.2-14.9-6.6l-1-0.3l-1-0.2l-2-0.5l-2-0.5c-0.7-0.2-1.3-0.2-2-0.3l-4-0.6c-1.4-0.1-2.7-0.2-4.1-0.3
				c-2.7-0.3-5.4-0.1-8.2-0.2c-1.4,0-2.7,0.1-4,0.2l-1,0.1l-1,0.2l-2,0.3c-10.5,2-20.3,7.1-28.5,14c-8.3,6.9-15.2,15.5-19.8,25.1
				c-1.2,2.4-2.2,4.8-3.1,7.3c-0.8,2.5-1.5,5.1-1.8,7.6c-0.2,1.3-0.3,2.6-0.4,3.9c0,0.6,0,1.3,0,1.9c0,0.6,0,1.3,0.1,1.9
				c0.2,2.6,0.9,5,1.8,7.3l0.8,1.7c0.3,0.5,0.7,1.1,1,1.6c0.3,0.5,0.7,1,1.1,1.5c0.4,0.5,0.8,1,1.2,1.5c1.7,2,3.6,3.6,5.8,5.1
				c2.1,1.5,4.5,2.6,6.9,3.6c2.4,1,5,1.8,7.6,2.5c10.5,2.6,21.7,3,32.8,4.2c5.5,0.7,11.1,1.4,16.6,2.7c2.7,0.6,5.4,1.4,8.1,2.4
				c2.6,1,5.2,2.2,7.6,3.5l-0.1,0.3c-5-2.4-10.3-4.1-15.8-5.1c-5.4-1.1-11-1.7-16.5-2.1l-16.6-1.2c-5.5-0.5-11.1-1.1-16.5-2.3
				c-5.4-1.2-10.8-3.1-15.5-6.2c-4.7-3.1-8.6-7.3-10.9-12.5c-1.1-2.6-1.9-5.3-2.1-8.1c-0.1-0.7-0.1-1.4-0.1-2.1c0-0.7-0.1-1.4,0-2.1
				c0.1-1.4,0.1-2.8,0.4-4.2c0.3-2.8,1.1-5.5,1.9-8.2c0.9-2.6,1.9-5.3,3.2-7.7c4.9-10,12.2-18.8,20.8-25.9c4.3-3.5,9-6.6,14-9
				c5-2.4,10.3-4.3,15.9-5.1c2.8-0.4,5.6-0.7,8.3-0.6c2.8,0.1,5.6,0,8.3,0.4c1.4,0.1,2.8,0.2,4.2,0.4l4.1,0.7
				c0.7,0.1,1.4,0.2,2.1,0.4l2,0.5l2,0.5l1,0.3l1,0.3c5.3,1.7,10.4,4.2,15,7.3c1.1,0.8,2.2,1.7,3.3,2.5c1,0.9,2.1,1.8,3.1,2.8
				c2,2,3.8,4.1,5.2,6.5L-24.6,52.3z"/>
		</g>
		<g>
			<path class="st0" d="M-11.4,89.6c0.3-1.5,0-3-0.4-4.5c-0.4-1.5-1-2.9-1.6-4.3c-1.3-2.7-2.9-5.4-4.7-7.8c-1.8-2.5-3.7-4.8-5.9-7
				c-2.1-2.2-4.3-4.3-6.7-6.1c-4.7-3.7-9.9-6.8-15.5-8.6c-2.8-0.8-5.6-1.5-8.5-1.6c-0.7-0.1-1.4,0-2.1,0c-0.7,0-1.4,0-2.1,0.1
				l-2.1,0.3l-2.1,0.5c-5.6,1.3-10.6,4.5-15.2,8.3c-2.2,1.9-4.3,4-6.1,6.3c-1.7,2.3-3.2,4.8-4.3,7.5c-2.2,5.4-2.7,11.4-1.5,17.4
				c0.5,3,1.4,5.9,2.6,8.7c0.6,1.4,1.2,2.8,1.9,4.2c0.7,1.4,1.4,2.7,2.3,4l-0.2,0.2c-1.9-2.5-3.5-5.2-4.9-8
				c-1.4-2.8-2.5-5.8-3.2-8.8c-1.5-6.1-1.3-12.6,0.8-18.6c1.1-3,2.6-5.7,4.4-8.3c1.9-2.5,4-4.8,6.4-6.9c4.7-4.1,10.2-7.6,16.3-9.1
				l2.3-0.5c0.8-0.1,1.6-0.2,2.3-0.3c0.8-0.1,1.6-0.1,2.4-0.1c0.8,0,1.6-0.1,2.4,0l2.4,0.2l2.3,0.4c0.8,0.1,1.5,0.3,2.3,0.5
				c0.8,0.2,1.5,0.4,2.3,0.7c6,2,11.4,5.4,16.1,9.5c2.4,2,4.6,4.3,6.7,6.6c2.1,2.4,4,4.8,5.7,7.5c1.7,2.6,3.2,5.4,4.3,8.3
				c0.6,1.5,1,3,1.4,4.5c0.3,1.5,0.4,3.2,0,4.7L-11.4,89.6z"/>
		</g>
		<g>
			<path class="st0" d="M3.2,129c-1.9,0-3.8-0.1-5.6-0.1c-1.9-0.1-3.8-0.2-5.6-0.4c-3.8-0.3-7.5-0.6-11.3-1.1
				c-7.5-1-14.9-2.3-22.3-4.3c-1.8-0.5-3.7-1-5.5-1.6c-1.8-0.6-3.6-1.3-5.4-2c-3.6-1.5-7.1-3.3-10.4-6c-0.8-0.6-1.6-1.4-2.3-2.2
				l-1.9-2.3c-0.7-0.7-1.2-1.6-1.8-2.4c-0.3-0.4-0.6-0.8-0.8-1.3l-0.7-1.3c-2-3.6-3.3-7.7-3.3-12c-0.1-1.1,0.1-2.1,0.2-3.2
				c0.1-1,0.4-2.1,0.6-3.1c0.3-1,0.6-2,0.9-3c0.4-0.9,0.7-1.9,1.2-2.8c1.7-3.7,3.9-7,6.3-10c0.3-0.4,0.6-0.8,1-1.2
				c0.4-0.4,0.7-0.9,1.1-1.2l1.2-1.1l1.3-1c1.8-1.2,3.7-2.1,5.6-2.8c2-0.6,3.9-1.1,5.9-1.3c2-0.2,4-0.3,6-0.2
				c7.9,0.4,15.7,3,21.9,7.9c3,2.5,5.6,5.6,7.2,9.1c0.4,0.9,0.8,1.8,1.1,2.7c0.1,0.5,0.3,0.9,0.4,1.4l0.3,1.4
				c0.2,0.9,0.3,1.9,0.4,2.8c0.1,0.9,0.1,1.9,0.1,2.8l-0.3,0c-0.2-3.7-1.2-7.4-3-10.7c-1.8-3.3-4.4-6.1-7.3-8.3
				c-6-4.4-13.5-6.7-20.9-6.8c-3.7-0.1-7.5,0.4-11,1.7c-1.7,0.6-3.4,1.5-4.9,2.5c-1.6,1-2.8,2.4-3.9,3.9c-2.2,3-4.3,6.1-5.9,9.5
				c-0.4,0.8-0.7,1.7-1.1,2.6c-0.3,0.9-0.5,1.8-0.8,2.7c-0.2,0.9-0.4,1.8-0.5,2.7c0,0.9-0.2,1.8-0.1,2.8c0,3.7,1.1,7.3,2.9,10.6
				l0.7,1.2c0.2,0.4,0.5,0.8,0.8,1.2c0.5,0.8,1,1.6,1.6,2.3l1.8,2.2c0.3,0.3,0.6,0.7,1,1c0.3,0.3,0.7,0.6,1,0.9
				c2.8,2.4,6.1,4.2,9.6,5.7c3.4,1.5,7,2.7,10.5,3.8c7.2,2.1,14.5,3.7,21.9,5c7.4,1.3,14.8,2.2,22.3,2.9L3.2,129z"/>
		</g>
	</g>
	<g class="st3">
		<g>
			<path class="st0" d="M-141.6,84.2c0.6-0.9,0.9-2.1,1.2-3.2l0.4-1.7l0.3-1.7c0.3-2.3,0.4-4.6,0.4-6.9c0-4.6-0.5-9.3-1.4-13.8
				c-1.9-9-5.7-17.6-11.5-24.7c-2.9-3.5-6.2-6.7-9.8-9.5c-1.9-1.3-3.7-2.7-5.7-3.7c-1.9-1.2-4-2.1-6.1-3.1
				c-8.3-3.7-17.3-5.8-26.4-6.8l-3.4-0.4l-3.4-0.2l-3.4-0.2c-1.1-0.1-2.3,0-3.4,0c-4.5,0-9,0.6-13.4,1.4c-8.8,2-17.2,5.6-24.6,10.8
				c-3.8,2.5-7.2,5.5-10.5,8.6c-1.6,1.6-3.2,3.2-4.7,4.9c-0.7,0.9-1.5,1.7-2.2,2.6l-2.1,2.7c-0.7,0.9-1.3,1.8-2,2.8
				c-0.6,0.9-1.3,1.9-1.9,2.8c-1.2,1.9-2.4,3.8-3.4,5.9c-2.2,4-4,8.2-5.5,12.4c-0.7,2.1-1.5,4.3-2,6.5c-0.7,2.2-1,4.4-1.5,6.6
				c-0.2,1.1-0.3,2.2-0.5,3.3l-0.2,1.7c-0.1,0.6-0.1,1.1-0.1,1.7l-0.2,3.4l0,3.4c0.1,4.5,0.6,9,1.7,13.3c0.1,0.5,0.2,1.1,0.4,1.6
				l0.5,1.6c0.4,1,0.6,2.1,1.1,3.2l1.3,3.1c0.2,0.5,0.5,1,0.7,1.5l0.8,1.5l0.8,1.5c0.3,0.5,0.6,0.9,0.9,1.4l1.9,2.8
				c1.4,1.8,2.8,3.6,4.3,5.3c3,3.4,6.3,6.5,10,8.8c1.9,1.1,3.8,2.2,5.8,2.9c2,0.8,4.2,1.3,6.3,1.7c4.4,0.8,8.9,0.9,13.5,0.7
				c9.2-0.4,18.5-1.5,27.8-2.3c4.7-0.4,9.3-0.7,14-0.9c4.7-0.2,9.5-0.1,14.2,0.5c4.7,0.6,9.4,1.6,13.9,3c4.5,1.4,8.9,3.2,13.1,5.3
				c4.2,2.1,8.3,4.4,12.4,6.5c2.1,1.1,4.2,2,6.4,2.7c2.2,0.6,4.6,0.7,6.8,0l0.1,0.3c-2.2,0.8-4.7,0.8-7,0.2
				c-2.3-0.6-4.5-1.5-6.6-2.5c-4.2-2-8.3-4.3-12.5-6.3c-4.2-2-8.6-3.7-13.1-5c-4.5-1.3-9.1-2.2-13.7-2.6c-9.3-1-18.6,0-27.9,0.8
				c-9.3,0.9-18.6,2.1-27.9,2.6c-4.7,0.2-9.4,0.2-14-0.6c-2.3-0.4-4.6-1-6.8-1.8c-2.2-0.8-4.3-1.9-6.3-3.1c-4-2.5-7.5-5.7-10.6-9.2
				c-1.6-1.7-3-3.6-4.4-5.4l-2-2.9c-0.3-0.5-0.7-1-1-1.5l-0.8-1.5l-0.8-1.5c-0.3-0.5-0.6-1-0.8-1.6l-1.4-3.2
				c-0.5-1.1-0.8-2.2-1.2-3.3l-0.6-1.7c-0.2-0.6-0.3-1.1-0.4-1.7c-1.2-4.5-1.7-9.2-1.9-13.9l0-3.5l0.2-3.5c0-0.6,0.1-1.2,0.1-1.8
				l0.2-1.7c0.2-1.2,0.3-2.3,0.5-3.5c0.5-2.3,0.9-4.6,1.5-6.9c0.5-2.3,1.3-4.5,2.1-6.7c1.6-4.4,3.5-8.7,5.8-12.8
				c1.1-2.1,2.4-4,3.6-6c0.6-1,1.3-1.9,2-2.9c0.7-1,1.3-1.9,2.1-2.8l2.2-2.8c0.7-0.9,1.5-1.8,2.3-2.6c1.5-1.8,3.2-3.4,4.9-5.1
				c3.4-3.2,7-6.2,10.9-8.8c7.7-5.3,16.5-9.1,25.7-11.1c4.6-0.9,9.3-1.5,14-1.4c1.2,0,2.3,0,3.5,0l3.5,0.2l3.5,0.3l3.5,0.4
				c9.3,1.2,18.5,3.4,27,7.4c2.1,1.1,4.2,2,6.2,3.3c2.1,1.1,3.9,2.6,5.8,3.9c3.7,2.9,7,6.2,9.9,9.9c5.8,7.4,9.5,16.3,11.2,25.5
				c0.8,4.6,1.3,9.3,1.1,14c-0.1,2.3-0.3,4.7-0.6,7l-0.3,1.7l-0.4,1.7c-0.4,1.1-0.6,2.3-1.4,3.3L-141.6,84.2z"/>
		</g>
		<g>
			<path class="st0" d="M-154.9,47.7c-1.5-2.3-3.4-4.3-5.4-6.1c-1-0.9-2.1-1.7-3.1-2.6c-1.1-0.8-2.2-1.6-3.3-2.3
				c-4.6-2.9-9.5-5.1-14.7-6.4l-1-0.3l-1-0.2l-2-0.5l-2-0.5c-0.7-0.2-1.3-0.2-2-0.3l-4-0.6c-1.3-0.1-2.7-0.2-4-0.3
				c-2.7-0.3-5.4-0.1-8.1-0.2c-0.7,0-1.4,0-2,0l-2,0.2c-1.3,0.1-2.6,0.3-3.9,0.5c-10.3,1.9-20.1,6.9-28.3,13.6
				c-8.2,6.7-15.1,15.1-19.8,24.6c-1.2,2.3-2.2,4.8-3.1,7.2c-0.8,2.5-1.5,5-1.8,7.5c-0.2,1.3-0.3,2.5-0.4,3.8c0,0.6,0,1.3,0,1.9
				l0,0.9l0.1,0.9c0.2,2.5,0.9,4.9,1.8,7.2c0.3,0.5,0.5,1.1,0.8,1.7l1,1.6c0.3,0.5,0.7,1,1.1,1.5c0.4,0.5,0.8,1,1.2,1.5
				c1.7,1.9,3.7,3.5,5.8,4.9c2.1,1.4,4.5,2.5,6.9,3.5c2.4,1,5,1.7,7.5,2.4c10.4,2.5,21.4,2.9,32.4,4.1c5.5,0.6,11,1.4,16.4,2.7
				c2.7,0.6,5.4,1.4,8,2.3c2.6,0.9,5.1,2.1,7.6,3.4l-0.1,0.3c-4.9-2.4-10.2-4-15.6-5c-5.4-1.1-10.8-1.6-16.3-2.1
				c-10.9-0.9-22-1.1-32.7-3.4c-2.7-0.6-5.4-1.3-7.9-2.3c-2.6-1-5.1-2.1-7.4-3.6c-2.3-1.5-4.5-3.2-6.4-5.3c-1.8-2.1-3.5-4.3-4.6-6.9
				c-1.1-2.5-1.9-5.2-2.1-8l-0.1-1l0-1c0-0.7,0-1.4,0-2.1c0.1-1.4,0.1-2.8,0.4-4.1c0.3-2.7,1.1-5.4,1.9-8.1c0.9-2.6,1.9-5.2,3.2-7.6
				c4.9-9.9,12.2-18.5,20.8-25.4c4.3-3.4,9-6.4,13.9-8.8c5-2.4,10.2-4.1,15.7-5c1.4-0.2,2.7-0.4,4.1-0.5l2.1-0.1c0.7,0,1.4,0,2.1,0
				c2.7,0.1,5.5,0,8.2,0.4c1.4,0.1,2.7,0.2,4.1,0.4l4.1,0.7c0.7,0.1,1.4,0.2,2,0.4l2,0.5l2,0.5l1,0.3l1,0.3
				c5.3,1.6,10.3,4.1,14.8,7.1c1.1,0.8,2.2,1.6,3.3,2.5c1,0.9,2.1,1.8,3.1,2.8c2,1.9,3.8,4,5.2,6.4L-154.9,47.7z"/>
		</g>
		<g>
			<path class="st0" d="M-141.9,84.2c0.3-1.5,0-3-0.4-4.4c-0.2-0.7-0.4-1.4-0.7-2.1l-0.4-1l-0.5-1c-1.3-2.7-2.9-5.2-4.7-7.7
				c-1.8-2.4-3.7-4.7-5.8-6.8c-2.1-2.1-4.3-4.2-6.6-6c-4.7-3.6-9.8-6.7-15.3-8.3c-5.5-1.7-11.3-2.1-16.7-0.7c-5.5,1.2-10.5,4.3-15,8
				c-2.2,1.9-4.3,3.9-6.1,6.2c-1.7,2.3-3.2,4.7-4.3,7.3c-2.2,5.3-2.7,11.2-1.6,17c0.5,2.9,1.4,5.8,2.5,8.6c0.6,1.4,1.2,2.8,1.9,4.1
				c0.7,1.4,1.4,2.7,2.3,4l-0.2,0.2c-1.9-2.4-3.5-5.1-4.9-7.8c-1.4-2.8-2.4-5.7-3.2-8.7c-1.5-6-1.3-12.4,0.9-18.2
				c1.1-2.9,2.6-5.6,4.5-8.1c1.9-2.5,4-4.7,6.3-6.7c4.7-4,10.1-7.4,16.1-8.8c6-1.5,12.5-1.1,18.3,0.9c5.9,1.9,11.2,5.2,15.9,9.2
				c2.4,2,4.6,4.2,6.6,6.4c2.1,2.3,3.9,4.7,5.6,7.3c1.7,2.6,3.2,5.3,4.3,8.1l0.4,1.1l0.4,1.1c0.3,0.7,0.4,1.5,0.6,2.2
				c0.3,1.5,0.4,3.1,0,4.6L-141.9,84.2z"/>
		</g>
		<g>
			<path class="st0" d="M-127.3,122.7c-1.9,0-3.7-0.1-5.6-0.1c-1.9-0.1-3.7-0.2-5.6-0.4c-3.7-0.3-7.4-0.6-11.1-1
				c-7.4-1-14.7-2.3-22-4.1c-3.6-0.9-7.3-2-10.8-3.5c-3.5-1.5-7.1-3.2-10.3-5.7c-0.8-0.6-1.6-1.4-2.3-2.1c-0.7-0.8-1.3-1.5-1.9-2.3
				c-0.7-0.7-1.2-1.6-1.8-2.4l-0.9-1.2c-0.3-0.4-0.5-0.9-0.7-1.3c-2-3.5-3.3-7.6-3.4-11.8c-0.1-2.1,0.3-4.2,0.7-6.2
				c0.3-1,0.6-2,0.9-2.9c0.4-0.9,0.7-1.9,1.2-2.8c1.7-3.6,3.9-6.8,6.2-9.8l0.4-0.6c0.1-0.2,0.4-0.4,0.5-0.6c0.4-0.4,0.7-0.8,1.1-1.2
				c0.4-0.4,0.8-0.7,1.2-1.1l1.3-0.9c1.8-1.2,3.6-2,5.6-2.7c1.9-0.6,3.9-1.1,5.9-1.3c2-0.2,3.9-0.3,5.9-0.2
				c7.8,0.4,15.5,2.9,21.6,7.6c3,2.5,5.6,5.5,7.2,8.9c0.4,0.9,0.8,1.7,1.1,2.6c0.2,0.5,0.3,0.9,0.5,1.4l0.3,1.4
				c0.2,0.9,0.3,1.9,0.4,2.8c0.1,0.9,0.1,1.9,0.1,2.8l-0.3,0c-0.2-3.7-1.2-7.3-3-10.5c-1.8-3.2-4.4-5.9-7.3-8.1
				c-6-4.3-13.4-6.5-20.7-6.6c-3.7-0.1-7.4,0.4-10.8,1.6c-1.7,0.6-3.4,1.4-4.9,2.4c-1.5,1-2.8,2.3-3.9,3.8c-2.2,2.9-4.3,6-5.8,9.3
				c-0.4,0.8-0.7,1.7-1.1,2.5c-0.3,0.9-0.5,1.7-0.8,2.6c-0.4,1.8-0.7,3.6-0.6,5.4c0.1,3.6,1.2,7.2,3,10.4l0.7,1.2l0.8,1.1
				c0.5,0.8,1,1.5,1.6,2.2c0.6,0.7,1.2,1.4,1.8,2.1c0.6,0.6,1.3,1.3,2,1.9c2.8,2.3,6.1,4,9.5,5.5c3.4,1.5,6.9,2.6,10.4,3.7
				c7.1,2.1,14.3,3.6,21.6,4.8c7.3,1.2,14.6,2.2,22,2.8L-127.3,122.7z"/>
		</g>
	</g>
</g>
</svg>
