<svg id="Layer_1" data-name="Layer 1" xmlns="http://www.w3.org/2000/svg" xmlns:xlink="http://www.w3.org/1999/xlink" viewBox="0 0 1542 186"><defs><style>.cls-1,.cls-5{fill:none;}.cls-2{clip-path:url(#clip-path);}.cls-3{fill:#f4eee6;}.cls-4{clip-path:url(#clip-path-2);}.cls-5{stroke:#fcf6f1;stroke-miterlimit:10;stroke-width:3px;}.cls-6{clip-path:url(#clip-path-3);}</style><clipPath id="clip-path"><rect class="cls-1" x="1" y="1" width="1541" height="186"/></clipPath><clipPath id="clip-path-2"><rect class="cls-1" x="-0.68" y="-37.79" width="1278" height="257.48" transform="translate(-0.28 1.99) rotate(-0.18)"/></clipPath><clipPath id="clip-path-3"><rect class="cls-1" x="510.32" y="-37.79" width="1278" height="257.48" transform="translate(-0.28 3.59) rotate(-0.18)"/></clipPath></defs><title>Artboard 1</title><g class="cls-2"><polygon class="cls-3" points="1275.6 590.12 -2.4 585.24 -1.89 126.88 1276.11 130.79 1275.6 590.12"/><g class="cls-4"><path class="cls-3" d="M1294.32,138.4s-97.54.42-87.78-41c10.24-43.53,59.17-17.54,57.2,2.19,0,0,17.26-48.44-36.72-71.31-72.53-30.72-146.77,56.32-92,119.23C1197.27,218.88,1294.32,138.4,1294.32,138.4Z"/><path class="cls-3" d="M1127.52,139.18s-97.54.42-87.78-41c10.24-43.53,59.17-17.54,57.2,2.19,0,0,17.26-48.44-36.72-71.31-72.53-30.72-146.77,56.32-92,119.23C1030.47,219.66,1127.52,139.18,1127.52,139.18Z"/><path class="cls-3" d="M962,139.18s-97.54.42-87.78-41c10.24-43.53,59.17-17.54,57.2,2.19,0,0,17.26-48.44-36.72-71.31-72.53-30.72-146.77,56.32-92,119.23C864.92,219.66,962,139.18,962,139.18Z"/><path class="cls-3" d="M795.57,139.18s-97.54.42-87.78-41C718,54.6,767,80.59,765,100.32c0,0,17.26-48.44-36.72-71.31-72.53-30.72-146.77,56.32-92,119.23C698.52,219.66,795.57,139.18,795.57,139.18Z"/><path class="cls-3" d="M630,139.18s-97.54.42-87.78-41c10.24-43.53,59.17-17.54,57.2,2.19,0,0,17.26-48.44-36.72-71.31C490.2-1.71,416,85.33,470.77,148.25,533,219.66,630,139.18,630,139.18Z"/><path class="cls-3" d="M465.34,139.18s-97.54.42-87.78-41c10.24-43.53,59.17-17.54,57.2,2.19,0,0,17.26-48.44-36.72-71.31-72.53-30.72-146.77,56.32-92,119.23C368.29,219.66,465.34,139.18,465.34,139.18Z"/><path class="cls-3" d="M300.65,140.74s-97.54.42-87.78-41c10.24-43.53,59.17-17.54,57.2,2.19,0,0,17.26-48.44-36.72-71.31C160.81-.14,86.57,86.9,141.38,149.81,203.6,221.22,300.65,140.74,300.65,140.74Z"/><path class="cls-3" d="M136.17,140s-97.54.42-87.78-41c10.24-43.53,59.17-17.54,57.2,2.19,0,0,17.26-48.44-36.72-71.31C-3.66-.85-77.9,86.19-23.09,149.1,39.12,220.51,136.17,140,136.17,140Z"/></g><path class="cls-5" d="M1263.74,99.54c4.61-5.69,12.58-74.36-67.94-77.73-58.24-2.44-98.92,73.79-68.19,115.42,21,28.4,36.72,19.39,80.79,16.36,39.65-2.73,53.78,21.06,66.41,16.36"/><path class="cls-5" d="M1250.72,63.19s-12.1-22.75-51.09-22c-38.32.77-73.43,50.73-56.2,74.85s58.86,10.45,86.43,24.23"/><path class="cls-5" d="M1263.5,99.47c3.58-12.26-30.93-59.6-64.12-33.72-29.14,22.71-5.95,50.84-5.95,50.84"/><path class="cls-5" d="M1277.55,137.52s-51.34-3.91-64.36-18.63-7.2-26.85,1-37.6c10.43-13.7,47.88-8.25,49.39,18"/><path class="cls-5" d="M1096.77,99.54c4.61-5.69,12.58-74.36-67.94-77.73-58.24-2.44-98.92,73.79-68.19,115.42,21,28.4,36.72,19.39,80.79,16.36,39.65-2.73,53.78,21.06,66.41,16.36"/><path class="cls-5" d="M1083.75,63.19s-12.1-22.75-51.09-22c-38.32.77-73.43,50.73-56.2,74.85s58.86,10.45,86.43,24.23"/><path class="cls-5" d="M1096.53,99.47c3.58-12.26-30.93-59.6-64.12-33.72-29.14,22.71-5.95,50.84-5.95,50.84"/><path class="cls-5" d="M1110.58,137.52s-51.34-3.91-64.36-18.63-7.2-26.85,1-37.6c10.43-13.7,47.88-8.25,49.39,18"/><path class="cls-5" d="M931.23,99.54c4.61-5.69,12.58-74.36-67.94-77.73-58.24-2.44-98.92,73.79-68.19,115.42,21,28.4,36.72,19.39,80.79,16.36,39.65-2.73,53.78,21.06,66.41,16.36"/><path class="cls-5" d="M918.21,63.19s-12.1-22.75-51.09-22c-38.32.77-73.43,50.73-56.2,74.85s58.86,10.45,86.43,24.23"/><path class="cls-5" d="M931,99.47c3.58-12.26-30.93-59.6-64.12-33.72-29.14,22.71-5.95,50.84-5.95,50.84"/><path class="cls-5" d="M945,137.52s-51.34-3.91-64.36-18.63-7.2-26.85,1-37.6c10.43-13.7,47.88-8.25,49.39,18"/><polygon class="cls-3" points="1786.6 590.12 508.61 585.24 509.11 126.88 1787.11 130.79 1786.6 590.12"/><g class="cls-6"><path class="cls-3" d="M1638.52,139.18s-97.54.42-87.78-41c10.24-43.53,59.17-17.54,57.2,2.19,0,0,17.26-48.44-36.72-71.31-72.53-30.72-146.77,56.32-92,119.23C1541.47,219.66,1638.52,139.18,1638.52,139.18Z"/><path class="cls-3" d="M1473,139.18s-97.54.42-87.78-41c10.24-43.53,59.17-17.54,57.2,2.19,0,0,17.26-48.44-36.72-71.31-72.53-30.72-146.77,56.32-92,119.23C1375.92,219.66,1473,139.18,1473,139.18Z"/></g><path class="cls-5" d="M1607.77,99.54c4.61-5.69,12.58-74.36-67.94-77.73-58.24-2.44-98.92,73.79-68.19,115.42,21,28.4,36.72,19.39,80.79,16.36,39.65-2.73,53.78,21.06,66.41,16.36"/><path class="cls-5" d="M1594.75,63.19s-12.1-22.75-51.09-22c-38.32.77-73.43,50.73-56.2,74.85s58.86,10.45,86.43,24.23"/><path class="cls-5" d="M1607.53,99.47c3.58-12.26-30.93-59.6-64.12-33.72-29.14,22.71-5.95,50.84-5.95,50.84"/><path class="cls-5" d="M1442.23,99.54c4.61-5.69,12.58-74.36-67.94-77.73-58.24-2.44-98.92,73.79-68.19,115.42,21,28.4,36.72,19.39,80.79,16.36,39.65-2.73,53.78,21.06,66.41,16.36"/><path class="cls-5" d="M1429.21,63.19s-12.1-22.75-51.09-22c-38.32.77-73.43,50.73-56.2,74.85s58.86,10.45,86.43,24.23"/><path class="cls-5" d="M1442,99.47c3.58-12.26-30.93-59.6-64.12-33.72-29.14,22.71-5.95,50.84-5.95,50.84"/><path class="cls-5" d="M1456,137.52s-51.34-3.91-64.36-18.63-7.2-26.85,1-37.6c10.43-13.7,47.88-8.25,49.39,18"/><path class="cls-5" d="M764.23,99.54c4.61-5.69,12.58-74.36-67.94-77.73-58.24-2.44-98.92,73.79-68.19,115.42,21,28.4,36.72,19.39,80.79,16.36,39.65-2.73,53.78,21.06,66.41,16.36"/><path class="cls-5" d="M751.21,63.19s-12.1-22.75-51.09-22c-38.32.77-73.43,50.73-56.2,74.85s58.86,10.45,86.43,24.23"/><path class="cls-5" d="M764,99.47c3.58-12.26-30.93-59.6-64.12-33.72-29.14,22.71-5.95,50.84-5.95,50.84"/><path class="cls-5" d="M778,137.52s-51.34-3.91-64.36-18.63-7.2-26.85,1-37.6c10.43-13.7,47.88-8.25,49.39,18"/><path class="cls-5" d="M598.2,99.54c4.61-5.69,12.58-74.36-67.94-77.73C472,19.36,431.34,95.59,462.07,137.23c21,28.4,36.72,19.39,80.79,16.36,39.65-2.73,53.78,21.06,66.41,16.36"/><path class="cls-5" d="M585.18,63.19s-12.1-22.75-51.09-22c-38.32.77-73.43,50.73-56.2,74.85s58.86,10.45,86.43,24.23"/><path class="cls-5" d="M598,99.47c3.58-12.26-30.93-59.6-64.12-33.72-29.14,22.71-5.95,50.84-5.95,50.84"/><path class="cls-5" d="M612,137.52s-51.34-3.91-64.36-18.63-7.2-26.85,1-37.6c10.43-13.7,47.88-8.25,49.39,18"/><path class="cls-5" d="M434.59,99.54c4.61-5.69,12.58-74.36-67.94-77.73-58.24-2.44-98.92,73.79-68.19,115.42,21,28.4,36.72,19.39,80.79,16.36,39.65-2.73,53.78,21.06,66.41,16.36"/><path class="cls-5" d="M421.58,63.19s-12.1-22.75-51.09-22c-38.32.77-73.43,50.73-56.2,74.85s58.86,10.45,86.43,24.23"/><path class="cls-5" d="M434.35,99.47c3.58-12.26-30.93-59.6-64.12-33.72-29.14,22.71-5.95,50.84-5.95,50.84"/><path class="cls-5" d="M448.4,137.52S397.06,133.61,384,118.9s-7.2-26.85,1-37.6c10.43-13.7,47.88-8.25,49.39,18"/><path class="cls-5" d="M269.48,99.54c4.61-5.69,12.58-74.36-67.94-77.73-58.24-2.44-98.92,73.79-68.19,115.42,21,28.4,36.72,19.39,80.79,16.36,39.65-2.73,53.78,21.06,66.41,16.36"/><path class="cls-5" d="M256.47,63.19s-12.1-22.75-51.09-22c-38.32.77-73.43,50.73-56.2,74.85S208,126.52,235.6,140.3"/><path class="cls-5" d="M269.24,99.47c3.58-12.26-30.93-59.6-64.12-33.72-29.14,22.71-5.95,50.84-5.95,50.84"/><path class="cls-5" d="M283.29,137.52S232,133.61,218.93,118.9s-7.2-26.85,1-37.6c10.43-13.7,47.88-8.25,49.39,18"/><path class="cls-5" d="M104.67,99.54c4.61-5.69,12.58-74.36-67.94-77.73C-21.51,19.36-62.2,95.59-31.47,137.23c21,28.4,36.72,19.39,80.79,16.36,39.65-2.73,53.78,21.06,66.41,16.36"/><path class="cls-5" d="M91.65,63.19s-12.1-22.75-51.09-22C2.24,42-32.88,91.95-15.65,116.07s58.86,10.45,86.43,24.23"/><path class="cls-5" d="M104.42,99.47C108,87.2,73.5,39.87,40.3,65.75c-29.14,22.71-5.95,50.84-5.95,50.84"/><path class="cls-5" d="M118.47,137.52s-51.34-3.91-64.36-18.63-7.2-26.85,1-37.6c10.43-13.7,47.88-8.25,49.39,18"/></g></svg>